<?xml version="1.0" standalone="no"?>
<!DOCTYPE svg PUBLIC "-//W3C//DTD SVG 1.1//EN" "http://www.w3.org/Graphics/SVG/1.1/DTD/svg11.dtd" >
<svg xmlns="http://www.w3.org/2000/svg" xmlns:xlink="http://www.w3.org/1999/xlink" version="1.1">
<metadata>
Created by FontForge 20170731 at Tue Jun 20 15:43:44 2023
 By Aleksey,,,
(c)Maikohatta
</metadata>
<defs>
<font id="EQUALIRegular" horiz-adv-x="512" >
  <font-face 
    font-family="EQUALI"
    font-weight="400"
    font-stretch="normal"
    units-per-em="1000"
    panose-1="0 0 0 0 0 0 0 0 0 0"
    ascent="800"
    descent="-200"
    x-height="506"
    cap-height="700"
    bbox="-67 -312 1164.82 1010"
    underline-thickness="0"
    underline-position="0"
    unicode-range="U+000A-FB02"
  />
<missing-glyph horiz-adv-x="527" 
d="M50 700h427v-700h-427v700zM78 680l185 -309l186 309h-371zM251 350l-180 300v-601zM264 329l-185 -308h370zM276 350l181 -303v605z" />
    <glyph glyph-name="fb.liga" unicode="fb" horiz-adv-x="839" 
d="M595.5 350q-32.5 0 -55 -28.5t-22.5 -68.5t22.5 -68.5t55 -28.5t55 28.5t22.5 68.5t-22.5 68.5t-55 28.5zM303 506q5 0 8.5 -4t3.5 -9v-131q0 -5 -3.5 -8.5t-8.5 -3.5h-66v-338q0 -5 -3.5 -8.5t-8.5 -3.5h-131q-5 0 -8.5 3.5t-3.5 8.5v338h-66q-5 0 -8.5 3.5t-3.5 8.5
v131q0 5 3.5 9t8.5 4h67q9 82 71 138t146 56q92 0 152.5 -62.5t65.5 -155.5v-27q52 51 117 51q80 0 137 -74.5t57 -179t-57 -178.5t-137 -74q-81 0 -138 74l-16 -65q-2 -9 -11 -9h-95q-5 0 -9 3.5t-4 8.5v470q0 26 -18 44t-44 18q-19 0 -35 -10.5t-23 -27.5h61z" />
    <glyph glyph-name="fh.liga" unicode="fh" horiz-adv-x="847" 
d="M518 482v-27q52 51 116 51q81 0 138 -74t57 -179v-241q0 -5 -3.5 -8.5t-8.5 -3.5h-131q-5 0 -9 3.5t-4 8.5v241q0 40 -22.5 68.5t-55 28.5t-55 -28.5t-22.5 -68.5v-241q0 -5 -3.5 -8.5t-8.5 -3.5h-132q-5 0 -8.5 3.5t-3.5 8.5v470q0 26 -18 44t-44 18q-19 0 -35 -10.5
t-23 -27.5h61q5 0 8.5 -4t3.5 -9v-131q0 -5 -3.5 -8.5t-8.5 -3.5h-66v-338q0 -5 -3.5 -8.5t-8.5 -3.5h-131q-5 0 -8.5 3.5t-3.5 8.5v338h-66q-5 0 -8.5 3.5t-3.5 8.5v131q0 5 3.5 9t8.5 4h67q9 82 71 138t146 56q90 0 154 -64t64 -154z" />
    <glyph glyph-name="fk.liga" unicode="fk" horiz-adv-x="822" 
d="M518 482v-151h43l94 168q3 7 10 7h143q7 0 10.5 -6t0.5 -12l-130 -235l130 -235q3 -6 -0.5 -12t-10.5 -6h-143q-7 0 -10 6l-94 169h-43v-163q0 -5 -3.5 -8.5t-8.5 -3.5h-131q-5 0 -9 3.5t-4 8.5v470q0 26 -18 44.5t-44 18.5q-19 0 -35 -11t-23 -28h61q5 0 8.5 -3.5
t3.5 -8.5v-132q0 -5 -3.5 -8.5t-8.5 -3.5h-66v-338q0 -5 -3.5 -8.5t-8.5 -3.5h-131q-5 0 -8.5 3.5t-3.5 8.5v338h-66q-5 0 -8.5 3.5t-3.5 8.5v131q0 5 3.5 9t8.5 4h67q9 82 71 138t146 56q90 0 154 -64t64 -154z" />
    <glyph glyph-name="ft.liga" unicode="ft" horiz-adv-x="677" 
d="M358 506q-7 17 -23 27.5t-35 10.5t-35 -10.5t-23 -27.5h6h110zM596 362q0 -5 -3.5 -8.5t-8.5 -3.5h-66v-117q0 -32 23 -54.5t55 -22.5h65q5 0 8.5 -4t3.5 -9v-131q0 -5 -3.5 -8.5t-8.5 -3.5h-143q-64 0 -110 45.5t-46 110.5v194h-125v-338q0 -5 -3.5 -8.5t-8.5 -3.5h-131
q-5 0 -8.5 3.5t-3.5 8.5v338h-66q-5 0 -8.5 3.5t-3.5 8.5v131q0 5 3.5 9t8.5 4h67q9 82 71 138t145.5 56t146 -56t71.5 -138h67q5 0 8.5 -4t3.5 -9v-131z" />
    <glyph glyph-name="ff.liga" unicode="ff" horiz-adv-x="600" 
d="M362 506v38h-47q-44 0 -67 -38h114zM362 350h-62h-63v-338q0 -5 -3.5 -8.5t-8.5 -3.5h-131q-5 0 -8.5 3.5t-3.5 8.5v338h-66q-5 0 -8.5 3.5t-3.5 8.5v131q0 5 3.5 9t8.5 4h66v38q0 65 45.5 110.5t109.5 45.5h424q5 0 9 -3.5t4 -8.5v-131q0 -5 -4 -9t-9 -4h-65
q-45 0 -68 -38h56q5 0 8.5 -4t3.5 -9v-131q0 -5 -3.5 -8.5t-8.5 -3.5h-66v-338q0 -5 -3.5 -8.5t-8.5 -3.5h-131q-5 0 -9 3.5t-4 8.5v338z" />
    <glyph glyph-name="fi.liga" unicode="fi" horiz-adv-x="546" 
d="M315 493v-131q0 -5 -3.5 -8.5t-8.5 -3.5h-66v-338q0 -5 -3.5 -8.5t-8.5 -3.5h-131q-5 0 -8.5 3.5t-3.5 8.5v338h-66q-5 0 -8.5 3.5t-3.5 8.5v131q0 5 3.5 9t8.5 4h66v38q0 65 45.5 110.5t109.5 45.5q90 0 269 -1q5 0 8.5 -3.5t3.5 -8.5v-131q0 -5 -3.5 -8.5t-8.5 -3.5
h-191q-44 1 -67 -38h55q5 0 8.5 -4t3.5 -9zM362 493q0 5 3.5 9t8.5 4h132q5 0 8.5 -4t3.5 -9v-481q0 -5 -3.5 -8.5t-8.5 -3.5h-132q-5 0 -8.5 3.5t-3.5 8.5v481z" />
    <glyph glyph-name="fl.liga" unicode="fl" horiz-adv-x="545" 
d="M518 482v-470q0 -5 -3.5 -8.5t-8.5 -3.5h-132q-5 0 -8.5 3.5t-3.5 8.5v470q0 26 -18 44t-44 18q-19 0 -35 -10.5t-23 -27.5h61q5 0 8.5 -4t3.5 -9v-131q0 -5 -3.5 -8.5t-8.5 -3.5h-66v-338q0 -5 -3.5 -8.5t-8.5 -3.5h-131q-5 0 -8.5 3.5t-3.5 8.5v338h-66q-5 0 -8.5 3.5
t-3.5 8.5v131q0 5 3.5 9t8.5 4h67q9 82 71 138t146 56q90 0 154 -64t64 -154z" />
    <glyph glyph-name=".notdef" horiz-adv-x="527" 
d="M50 700h427v-700h-427v700zM78 680l185 -309l186 309h-371zM251 350l-180 300v-601zM264 329l-185 -308h370zM276 350l181 -303v605z" />
    <glyph glyph-name=".null" horiz-adv-x="0" 
 />
    <glyph glyph-name=".null" horiz-adv-x="0" 
 />
    <glyph glyph-name="nonmarkingreturn" horiz-adv-x="333" 
 />
    <glyph glyph-name="LF" unicode="&#xa;" horiz-adv-x="0" 
 />
    <glyph glyph-name="controlCR" unicode="&#xd;" horiz-adv-x="0" 
 />
    <glyph glyph-name="space" unicode=" " horiz-adv-x="230" 
 />
    <glyph glyph-name="exclam" unicode="!" horiz-adv-x="214" 
d="M107 0q-32 0 -55 22.5t-23 55t23 55t55 22.5t55 -22.5t23 -55t-23 -55t-55 -22.5zM29 688q0 5 3.5 8.5t8.5 3.5h131q5 0 9 -3.5t4 -8.5v-481q0 -6 -4 -9.5t-9 -3.5h-131q-5 0 -8.5 3.5t-3.5 9.5v481z" />
    <glyph glyph-name="quotedbl" unicode="&#x22;" horiz-adv-x="389" 
d="M369 620q0 -45 -26.5 -81t-69.5 -49q15 24 18 52q-32 0 -55 23t-23 55t23 55t55 23t55 -23t23 -55zM175 620q0 -45 -26.5 -81t-69.5 -49q14 25 18 52q-32 0 -55 23t-23 55t23 55t55 23t55 -23t23 -55z" />
    <glyph glyph-name="quotedbl" unicode="&#x201d;" horiz-adv-x="389" 
d="M369 620q0 -45 -26.5 -81t-69.5 -49q15 24 18 52q-32 0 -55 23t-23 55t23 55t55 23t55 -23t23 -55zM175 620q0 -45 -26.5 -81t-69.5 -49q14 25 18 52q-32 0 -55 23t-23 55t23 55t55 23t55 -23t23 -55z" />
    <glyph glyph-name="quotedbl" unicode="&#x201c;" horiz-adv-x="389" 
d="M369 620q0 -45 -26.5 -81t-69.5 -49q15 24 18 52q-32 0 -55 23t-23 55t23 55t55 23t55 -23t23 -55zM175 620q0 -45 -26.5 -81t-69.5 -49q14 25 18 52q-32 0 -55 23t-23 55t23 55t55 23t55 -23t23 -55z" />
    <glyph glyph-name="numbersign" unicode="#" horiz-adv-x="603" 
d="M564 389h-55l-17 -78h72q5 0 9 -3.5t4 -8.5v-131q0 -5 -4 -9t-9 -4h-106l-31 -146q-3 -9 -12 -9h-134q-6 0 -10 4.5t-2 10.5l30 140h-80l-32 -146q-2 -9 -12 -9h-134q-6 0 -9.5 4.5t-2.5 9.5l31 141h-22q-5 0 -8.5 3.5t-3.5 8.5v132q0 5 3.5 8.5t8.5 3.5h56l17 78h-73
q-5 0 -8.5 3.5t-3.5 8.5v131q0 5 3.5 8.5t8.5 3.5h106l32 146q2 10 12 10h134q6 0 9.5 -5t2.5 -10l-31 -141h81l32 146q2 10 11 10h135q5 0 9 -4.5t2 -10.5l-30 -141h21q5 0 9 -3.5t4 -8.5v-131q0 -5 -4 -8.5t-9 -3.5zM333 311l17 78h-81l-16 -78h80z" />
    <glyph glyph-name="dollar" unicode="$" horiz-adv-x="509" 
d="M189 844h131q5 0 8.5 -3.5t3.5 -8.5v-153q95 -25 135 -113q5 -10 -5 -16l-114 -66q-8 -3 -10.5 0t-8.5 11.5l-12 17t-22.5 15t-40.5 6.5q-77 0 -77 -59q0 -21 13 -34.5t35 -19t50 -11t57 -10.5t57 -18.5t50 -33.5t35.5 -57t13.5 -88q0 -77 -43 -130t-113 -73v-154
q0 -6 -3.5 -9.5t-8.5 -3.5h-131q-5 0 -8.5 3.5t-3.5 9.5v152q-95 26 -136 114q-4 10 5 16l115 66q8 3 10.5 -0.5t8.5 -11.5t12 -16.5t22.5 -15t39.5 -6.5q78 0 78 59q0 24 -17 38t-44.5 19.5t-60.5 10.5t-66.5 16t-61 30.5t-44.5 59.5t-17 98q0 77 42.5 130t113.5 73v154
q0 5 3.5 8.5t8.5 3.5z" />
    <glyph glyph-name="percent" unicode="%" horiz-adv-x="567" 
d="M439 0q-32 0 -55 22.5t-23 55t23 55t55 22.5t55 -22.5t23 -55t-23 -55t-55 -22.5zM128 544q-32 0 -55 23t-23 55t23 55t55 23t55 -23t23 -55t-23 -55t-55 -23zM433.5 695.5q3.5 -4.5 2.5 -10.5l-147 -676q-2 -9 -12 -9h-134q-6 0 -9.5 4.5t-2.5 10.5l147 675q2 10 12 10
h134q6 0 9.5 -4.5z" />
    <glyph glyph-name="ampersand" unicode="&#x26;" horiz-adv-x="597" 
d="M573 284q0 -5 -4 -8.5t-9 -3.5h-72q7 -27 7 -58q-1 -54 66 -58q12 -1 12 -12v-132q0 -5 -4 -8.5t-9 -3.5q-84 4 -143 49q-64 -49 -155 -49q-59 0 -108.5 22.5t-79 60.5t-43 83t-2 94t46.5 90q-34 40 -45 88.5t2 94t42.5 83.5t78.5 61t108 23q95 0 161.5 -54.5
t71.5 -146.5q0 -5 -3.5 -9t-9.5 -4h-132q-10 0 -12 10q-4 25 -29 38.5t-52.5 12.5t-50 -17.5t-22.5 -43.5q0 -58 77 -58h299q5 0 9 -3.5t4 -8.5v-132zM184 214q0 -22 15.5 -38t38.5 -20t45.5 -1t39 19t16.5 40q0 28 -24 44.5t-53.5 16.5t-53.5 -16.5t-24 -44.5z" />
    <glyph glyph-name="quotesingle" unicode="'" horiz-adv-x="195" 
d="M175 620q0 -45 -26.5 -81t-69.5 -49q14 24 18 52q-32 0 -55 23t-23 55t23 55t55 23t55 -23t23 -55z" />
    <glyph glyph-name="quotesingle" unicode="&#x2019;" horiz-adv-x="195" 
d="M175 620q0 -45 -26.5 -81t-69.5 -49q14 24 18 52q-32 0 -55 23t-23 55t23 55t55 23t55 -23t23 -55z" />
    <glyph glyph-name="quotesingle" unicode="&#x2018;" horiz-adv-x="195" 
d="M175 620q0 -45 -26.5 -81t-69.5 -49q14 24 18 52q-32 0 -55 23t-23 55t23 55t55 23t55 -23t23 -55z" />
    <glyph glyph-name="parenleft" unicode="(" horiz-adv-x="387" 
d="M323 850q5 0 9 -3.5t4 -8.5v-132q0 -10 -10 -12q-61 -9 -103 -110t-42 -239.5t42 -239t103 -109.5q10 -2 10 -12v-132q0 -5 -4 -9t-9 -3q-82 5 -150.5 73.5t-108 183t-39.5 248.5t39.5 248t108 183t150.5 74z" />
    <glyph glyph-name="parenright" unicode=")" horiz-adv-x="387" 
d="M63 850q82 -5 150.5 -74t108 -183t39.5 -248t-39.5 -248.5t-108 -183t-150.5 -73.5q-5 -1 -9 3t-4 9v132q0 10 10 12q61 9 103.5 109.5t42.5 239t-42.5 239.5t-103.5 110q-10 2 -10 12v132q0 5 4 8.5t9 3.5z" />
    <glyph glyph-name="asterisk" unicode="*" horiz-adv-x="233" 
d="M97 678q0 5 3.5 8.5t8.5 3.5h15q5 0 8.5 -3.5t3.5 -8.5v-38l27 27q8 8 17 0l10 -11q9 -8 0 -17l-27 -27h38q5 0 8.5 -3.5t3.5 -8.5v-15q0 -5 -3.5 -8.5t-8.5 -3.5h-38l27 -27q9 -8 0 -17l-10 -10q-9 -9 -17 0l-27 27v-38q0 -5 -3.5 -9t-8.5 -4h-15q-5 0 -8.5 4t-3.5 9v38
l-27 -27q-9 -9 -17 0l-11 10q-8 9 0 17l27 27h-38q-5 0 -8.5 3.5t-3.5 8.5v15q0 5 3.5 8.5t8.5 3.5h38l-27 27q-8 9 0 17l11 11q8 8 17 0l27 -27v38z" />
    <glyph glyph-name="plus" unicode="+" horiz-adv-x="233" 
d="M31 260q-5 0 -8.5 3.5t-3.5 8.5v54q0 5 3.5 8.5t8.5 3.5h46v46q0 5 3.5 8.5t8.5 3.5h54q5 0 8.5 -3.5t3.5 -8.5v-46h46q5 0 8.5 -3.5t3.5 -8.5v-54q0 -5 -3.5 -8.5t-8.5 -3.5h-46v-46q0 -5 -3.5 -8.5t-8.5 -3.5h-54q-5 0 -8.5 3.5t-3.5 8.5v46h-46z" />
    <glyph glyph-name="comma" unicode="," horiz-adv-x="194" 
d="M175 76q0 -45 -26.5 -81t-69.5 -49q14 24 18 52q-32 0 -55 22.5t-23 55t23 55t55 22.5t55 -22.5t23 -54.5z" />
    <glyph glyph-name="hyphen" unicode="-" horiz-adv-x="229" 
d="M29 260q-5 0 -8.5 3.5t-3.5 8.5v54q0 5 3.5 8.5t8.5 3.5h170q5 0 8.5 -3.5t3.5 -8.5v-54q0 -5 -3.5 -8.5t-8.5 -3.5h-170z" />
    <glyph glyph-name="period" unicode="." horiz-adv-x="194" 
d="M97 0q-32 0 -55 22.5t-23 55t23 55t55 22.5t55 -22.5t23 -55t-23 -55t-55 -22.5z" />
    <glyph glyph-name="slash" unicode="/" horiz-adv-x="405" 
d="M355 685l-147 -676q-2 -9 -12 -9h-134q-6 0 -9.5 4.5t-2.5 10.5l147 675q2 10 12 10h134q6 0 9.5 -4.5t2.5 -10.5z" />
    <glyph glyph-name="zero" unicode="0" horiz-adv-x="511" 
d="M255.5 700q63.5 0 117 -47t85 -127.5t31.5 -175.5t-31.5 -175.5t-85 -127.5t-117 -47t-117.5 47t-85 127.5t-31 175.5t31 175.5t85 127.5t117.5 47zM255.5 156q32.5 0 55 56.5t22.5 137.5t-22.5 137.5t-55 56.5t-55 -56.5t-22.5 -137.5t22.5 -137.5t55 -56.5z" />
    <glyph glyph-name="one" unicode="1" horiz-adv-x="389" 
d="M206 700h141q5 0 8.5 -3.5t3.5 -8.5v-676q0 -5 -3.5 -8.5t-8.5 -3.5h-131q-5 0 -9 3.5t-4 8.5v518l-102 -51q-5 -3 -10 -0.5t-7 7.5l-34 127q-2 9 7 14l144 72q3 1 5 1z" />
    <glyph glyph-name="two" unicode="2" horiz-adv-x="516" 
d="M491 143v-131q0 -5 -3.5 -8.5t-8.5 -3.5h-443q-5 0 -8.5 3.5t-3.5 8.5v144q0 63 13.5 109.5t35 72.5t49.5 44t57.5 25t57.5 13.5t49.5 12t35 19t13.5 34.5q0 58 -78 58q-66 0 -76 -41q-1 -6 -6.5 -8.5t-10.5 0.5l-115 66q-9 6 -5 16q57 123 213 123q99 0 166.5 -58
t67.5 -156q0 -55 -13.5 -93t-35.5 -55t-50 -28.5t-57 -14t-57 -10.5t-50 -19t-35 -39t-13 -71h299q5 0 8.5 -4t3.5 -9z" />
    <glyph glyph-name="three" unicode="3" horiz-adv-x="522" 
d="M263 272h-65q-5 0 -8.5 3.5t-3.5 8.5v132q0 5 3.5 8.5t8.5 3.5h65q78 0 78 58t-78 58q-65 0 -75 -41q-2 -6 -7.5 -8t-10.5 1l-114 67q-10 6 -5 16q58 121 212 121q99 0 166.5 -58t67.5 -156q0 -77 -49 -136q49 -59 49 -136q0 -98 -67 -156t-167 -58q-154 0 -212 121
q-4 10 5 16l114 67q5 3 10.5 1t7.5 -8q10 -42 75 -42q78 0 78 58.5t-78 58.5z" />
    <glyph glyph-name="four" unicode="4" horiz-adv-x="516" 
d="M286 684l-104 -334h148v338q0 5 3.5 8.5t8.5 3.5h132q5 0 8.5 -3.5t3.5 -8.5v-676q0 -5 -3.5 -8.5t-8.5 -3.5h-132q-5 0 -8.5 3.5t-3.5 8.5v182h-299q-5 0 -8.5 4t-3.5 9v141q0 2 1 4l106 340q2 8 11 8h138q6 0 9.5 -5t1.5 -11z" />
    <glyph glyph-name="five" unicode="5" horiz-adv-x="519" 
d="M27 700h455q5 0 8.5 -3.5t3.5 -8.5v-131q0 -5 -3.5 -9t-8.5 -4h-299v-116h77q99 0 166.5 -58t67.5 -156t-67.5 -156t-166.5 -58q-154 0 -212 121q-5 10 5 16l113 67q6 3 11.5 1t6.5 -8q11 -41 76 -41q78 0 78 58t-78 58h-233v428z" />
    <glyph glyph-name="six" unicode="6" horiz-adv-x="515" 
d="M260 428q99 0 166.5 -58t67.5 -156t-67.5 -156t-166.5 -58t-166 58t-67 156v272q0 98 67 156t166 58q72 0 129 -31.5t84 -88.5q5 -10 -4 -16l-115 -68q-5 -3 -10.5 -0.5t-7.5 8.5q-10 40 -76 40q-17 0 -30 -2.5t-21.5 -7t-14 -12.5t-8 -15t-4 -20t-1 -21t1 -24t0.5 -25
q37 11 77 11zM260 156q36 0 57 12t21 46q0 58 -77.5 58t-77.5 -58t77 -58z" />
    <glyph glyph-name="seven" unicode="7" horiz-adv-x="535" 
d="M516 543l-147 -534q-2 -9 -11 -9h-137q-6 0 -9.5 4.5t-1.5 10.5l145 529h-293q-5 0 -8.5 3.5t-3.5 8.5v132q0 5 3.5 8.5t8.5 3.5h442q5 0 9 -3.5t4 -8.5v-142q0 -1 -1 -3z" />
    <glyph glyph-name="eight" unicode="8" horiz-adv-x="523" 
d="M261.5 700q58.5 0 108 -22.5t79 -60.5t43 -83t2 -94t-46.5 -90q34 -40 45.5 -89t-1.5 -94t-42.5 -83t-79 -61t-107.5 -23q-59 0 -108.5 22.5t-79 60.5t-43 83t-2 94t46.5 90q-35 41 -46.5 90t2 94t43 83t79 60.5t108 22.5zM184 214q0 -28 24 -44.5t53.5 -17t53.5 15.5
t24 46q0 29 -24 45t-53.5 16t-53.5 -16.5t-24 -44.5zM184 486q0 -28 24 -44t53.5 -17t53.5 15.5t24 45.5t-24 45t-53.5 16t-53.5 -16t-24 -45z" />
    <glyph glyph-name="nine" unicode="9" horiz-adv-x="515" 
d="M254 700q99 0 166.5 -58t67.5 -156v-272q0 -98 -67 -156t-167 -58q-71 0 -128.5 31.5t-84.5 88.5q-5 10 5 16l115 68q5 3 10.5 0.5t7.5 -8.5q10 -40 75 -40q18 0 31 2.5t21 7t14 12.5t8.5 15t3.5 20t1 21t-0.5 24t-0.5 25q-37 -11 -78 -11q-99 0 -166 58t-67 156t67 156
t166 58zM254.5 428q77.5 0 77.5 58t-78 58q-35 0 -56 -12t-21 -46q0 -58 77.5 -58z" />
    <glyph glyph-name="colon" unicode=":" horiz-adv-x="200" 
d="M99.5 124q-32.5 0 -55 22.5t-22.5 55t23 55t55 22.5t55 -22.5t23 -55t-23 -55t-55.5 -22.5zM99.5 318q-32.5 0 -55 23t-22.5 55t23 55t55 23t55 -23t23 -55t-23 -55t-55.5 -23z" />
    <glyph glyph-name="semicolon" unicode=";" horiz-adv-x="202" 
d="M179 202q0 -45 -26.5 -81t-69.5 -49q14 24 18 52q-32 0 -55 22.5t-23 55t23 55t55 22.5t55 -22.5t23 -54.5zM101 318q-32 0 -55 23t-23 55t23 55t55 23t55 -23t23 -55t-23 -55t-55 -23z" />
    <glyph glyph-name="less" unicode="&#x3c;" horiz-adv-x="237" 
d="M206 327l-75 -28l75 -28q8 -3 8 -11v-56q0 -7 -5 -10.5t-11 -1.5l-170 63q-8 3 -8 11v65q0 9 8 12l170 62q6 3 11 -1t5 -10v-56q1 -8 -8 -11z" />
    <glyph glyph-name="equal" unicode="=" horiz-adv-x="235" 
d="M32 202q-5 0 -8.5 3.5t-3.5 8.5v53q0 5 3.5 8.5t8.5 3.5h170q5 0 8.5 -3.5t3.5 -8.5v-53q0 -5 -3.5 -8.5t-8.5 -3.5h-170zM32 318q-5 0 -8.5 3.5t-3.5 8.5v54q0 5 3.5 8.5t8.5 3.5h170q5 0 8.5 -3.5t3.5 -8.5v-54q0 -5 -3.5 -8.5t-8.5 -3.5h-170z" />
    <glyph glyph-name="greater" unicode="&#x3e;" horiz-adv-x="237" 
d="M30 327q-8 3 -8 11v56q0 6 5 10t11 1l170 -62q8 -3 8 -12v-65q0 -8 -8 -11l-170 -63q-6 -2 -11 2t-5 10v56q0 8 8 11l76 28z" />
    <glyph glyph-name="question" unicode="?" horiz-adv-x="508" 
d="M263.5 0q-32.5 0 -55 22.5t-22.5 55t22.5 55t55 22.5t55 -22.5t22.5 -55t-22.5 -55t-55 -22.5zM263 700q100 0 167 -58t67 -156q0 -43 -8.5 -71.5t-21.5 -42.5t-29.5 -23t-33 -17.5t-30 -21.5t-22.5 -39t-11 -65q0 -5 -3.5 -8.5t-8.5 -3.5h-131q-5 0 -8.5 3.5t-3.5 8.5
q1 52 13 90t29.5 58t37 36.5t36.5 27t28 28t11 40.5q0 58 -78 58q-23 0 -40 -6.5t-23 -15t-11.5 -16.5t-8 -11t-10.5 0l-114 68q-10 5 -5 15q58 122 212 122z" />
    <glyph glyph-name="at" unicode="@" horiz-adv-x="1187" 
d="M771 1010q205 0 312 -171q90 -144 81 -351q-8 -197 -100 -337q-99 -150 -249 -152h-4q-64 0 -109.5 32.5t-61.5 87.5q-43 -56 -89.5 -88t-89.5 -32q-53 0 -85.5 47.5t-36 125.5t20.5 177q39 145 123.5 247.5t165.5 102.5q65 0 98 -70l16 61q2 9 12 9h130q6 0 9.5 -5
t2.5 -10l-121 -452q-9 -32 8 -55t49 -23q62 0 107 101q52 116 43 268q-10 182 -107 270q-67 61 -167 61q-105 0 -213 -67.5t-191 -184t-120 -253.5q-29 -102 -22.5 -192.5t37.5 -158.5t89.5 -109.5t133.5 -44.5q6 -1 9.5 -5.5t1.5 -10.5l-35 -131q-2 -9 -12 -9
q-87 2 -159.5 36.5t-121.5 94.5t-77.5 142.5t-27.5 180.5t28 207q36 134 112 256.5t172.5 211t211.5 141t226 52.5zM671.5 348.5q21.5 80.5 14 137.5t-39.5 57t-70 -57t-60 -137.5t-14.5 -137.5t40 -57t70.5 57t59.5 137.5z" />
    <glyph glyph-name="A" unicode="A" horiz-adv-x="570" 
d="M413 690l141 -675q1 -6 -2.5 -10.5t-9.5 -4.5h-134q-10 0 -12 10l-22 107h-179l-22 -107q-2 -10 -12 -10h-134q-6 0 -9.5 4.5t-2.5 10.5l141 675q2 10 12 10h233q10 0 12 -10zM228 272h113l-57 272z" />
    <glyph glyph-name="B" unicode="B" 
d="M437 362q60 -63 60 -148q0 -88 -63 -151t-151 -63h-241q-5 0 -8.5 3.5t-3.5 8.5v676q0 5 3.5 8.5t8.5 3.5h221q89 0 151.5 -63t62.5 -151q0 -68 -40 -124zM186 544v-116h77q24 0 41.5 17t17.5 41t-17.5 41t-41.5 17h-77zM283 156q24 0 41 17t17 41t-17 41t-41 17h-97
v-116h97z" />
    <glyph glyph-name="C" unicode="C" horiz-adv-x="679" 
d="M365 700q92 0 170.5 -44.5t126.5 -119.5q2 -5 1 -10t-6 -7l-113 -66q-10 -6 -17 4q-26 40 -69 63.5t-93 23.5q-81 0 -137.5 -57t-56.5 -137.5t56.5 -137.5t137.5 -57q50 0 93 24t69 64q7 9 17 4l113 -66q5 -3 6 -7.5t-1 -9.5q-48 -75 -126.5 -119.5t-170.5 -44.5
q-95 0 -175.5 47t-127.5 127.5t-47 175.5t47 175.5t127.5 127.5t175.5 47z" />
    <glyph glyph-name="D" unicode="D" 
d="M186 698q132 -13 221.5 -113t89.5 -235q0 -137 -89 -237t-222 -112q-26 -2 -144 -1q-5 0 -8.5 3.5t-3.5 8.5v676q0 5 3.5 8.5t8.5 3.5q116 1 144 -2zM186 160q67 13 111 66.5t44 123.5t-44 123.5t-111 67.5v-381z" />
    <glyph glyph-name="E" unicode="E" 
d="M497 688v-131q0 -5 -3.5 -9t-8.5 -4h-299v-116h221q5 0 8.5 -3.5t3.5 -8.5v-132q0 -5 -3.5 -8.5t-8.5 -3.5h-221v-116h299q5 0 8.5 -4t3.5 -9v-131q0 -5 -3.5 -8.5t-8.5 -3.5h-443q-5 0 -8.5 3.5t-3.5 8.5v676q0 5 3.5 8.5t8.5 3.5h443q5 0 8.5 -3.5t3.5 -8.5z" />
    <glyph glyph-name="F" unicode="F" 
d="M42 700h443q5 0 8.5 -3.5t3.5 -8.5v-131q0 -5 -3.5 -9t-8.5 -4h-299v-116h221q5 0 8.5 -3.5t3.5 -8.5v-132q0 -5 -3.5 -8.5t-8.5 -3.5h-221v-260q0 -5 -4 -8.5t-9 -3.5h-131q-5 0 -8.5 3.5t-3.5 8.5v676q0 5 3.5 8.5t8.5 3.5z" />
    <glyph glyph-name="G" unicode="G" horiz-adv-x="730" 
d="M715 416v-66q0 -95 -47 -175.5t-127.5 -127.5t-175.5 -47t-175.5 47t-127.5 127.5t-47 175.5t47 175.5t127.5 127.5t175.5 47q92 0 170.5 -44.5t126.5 -119.5q2 -5 1 -9.5t-6 -7.5l-113 -66q-10 -5 -17 4q-26 40 -69 63.5t-93 23.5q-81 0 -137.5 -56.5t-56.5 -137.5
t56.5 -137.5t137.5 -56.5q59 0 107 32t71 84h-166q-5 0 -8.5 3.5t-3.5 8.5v132q0 5 3.5 8.5t8.5 3.5h326q5 0 8.5 -3.5t3.5 -8.5z" />
    <glyph glyph-name="H" unicode="H" horiz-adv-x="527" 
d="M42 700h131q5 0 9 -3.5t4 -8.5v-260h155v260q0 5 3.5 8.5t8.5 3.5h131q5 0 9 -3.5t4 -8.5v-676q0 -5 -4 -8.5t-9 -3.5h-131q-5 0 -8.5 3.5t-3.5 8.5v260h-155v-260q0 -5 -4 -8.5t-9 -3.5h-131q-5 0 -8.5 3.5t-3.5 8.5v676q0 5 3.5 8.5t8.5 3.5z" />
    <glyph glyph-name="I" unicode="I" horiz-adv-x="216" 
d="M42 700h131q5 0 9 -3.5t4 -8.5v-676q0 -5 -4 -8.5t-9 -3.5h-131q-5 0 -8.5 3.5t-3.5 8.5v676q0 5 3.5 8.5t8.5 3.5z" />
    <glyph glyph-name="J" unicode="J" horiz-adv-x="480" 
d="M145 216q6 -26 27 -43t49 -17q32 0 54.5 22.5t22.5 54.5v455q0 5 4 8.5t9 3.5h131q5 0 8.5 -3.5t3.5 -8.5v-455q0 -96 -68.5 -164.5t-164.5 -68.5q-70 0 -129 39t-86 103q-4 10 5 16q77 44 116 66q5 3 11 1q5 -3 7 -9z" />
    <glyph glyph-name="K" unicode="K" horiz-adv-x="506" 
d="M42 700h131q5 0 9 -3.5t4 -8.5v-260h32l109 264q3 8 11 8h140q7 0 10.5 -5.5t1.5 -11.5l-138 -333l138 -333q2 -6 -1.5 -11.5t-10.5 -5.5h-140q-8 0 -11 8l-109 264h-32v-260q0 -5 -4 -8.5t-9 -3.5h-131q-5 0 -8.5 3.5t-3.5 8.5v676q0 5 3.5 8.5t8.5 3.5z" />
    <glyph glyph-name="L" unicode="L" 
d="M497 143v-131q0 -5 -3.5 -8.5t-8.5 -3.5h-443q-5 0 -8.5 3.5t-3.5 8.5v676q0 5 3.5 8.5t8.5 3.5h131q5 0 9 -3.5t4 -8.5v-532h299q5 0 8.5 -4t3.5 -9z" />
    <glyph glyph-name="M" unicode="M" horiz-adv-x="838" 
d="M204 693l215 -421l215 421q3 7 10 7h152q5 0 8.5 -3.5t3.5 -8.5v-676q0 -5 -3.5 -8.5t-8.5 -3.5h-132q-5 0 -8.5 3.5t-3.5 8.5v383q-135 -266 -138 -272q-4 -6 -11 -6h-168q-8 0 -11 6q-46 91 -138 272v-383q0 -5 -4 -8.5t-9 -3.5h-131q-5 0 -8.5 3.5t-3.5 8.5v676
q0 5 3.5 8.5t8.5 3.5h151q8 0 11 -7z" />
    <glyph glyph-name="N" unicode="N" horiz-adv-x="527" 
d="M353 700h132q5 0 8.5 -3.5t3.5 -8.5v-676q0 -5 -3.5 -8.5t-8.5 -3.5h-148q-8 0 -11 7l-140 329v-324q0 -5 -4 -8.5t-9 -3.5h-131q-5 0 -8.5 3.5t-3.5 8.5v676q0 5 3.5 8.5t8.5 3.5h147q8 0 12 -7l140 -329v324q0 5 3.5 8.5t8.5 3.5z" />
    <glyph glyph-name="O" unicode="O" horiz-adv-x="730" 
d="M365 700q145 0 247.5 -102.5t102.5 -247.5t-102.5 -247.5t-247.5 -102.5t-247.5 102.5t-102.5 247.5t102.5 247.5t247.5 102.5zM365 156q81 0 137.5 56.5t56.5 137.5t-56.5 138t-137.5 57t-137.5 -57t-56.5 -137.5t56.5 -137.5t137.5 -57z" />
    <glyph glyph-name="P" unicode="P" 
d="M283 700q88 0 151 -63t63 -151t-63 -151t-151 -63h-97v-260q0 -5 -4 -8.5t-9 -3.5h-131q-5 0 -8.5 3.5t-3.5 8.5v676q0 5 3.5 8.5t8.5 3.5h241zM283 428q24 0 41 17t17 41t-17 41t-41 17h-97v-116h97z" />
    <glyph glyph-name="Q" unicode="Q" horiz-adv-x="730" 
d="M604 94l37 -64q6 -11 -5 -17l-113 -65q-11 -6 -17 4l-37 64q-50 -16 -104 -16q-95 0 -175.5 47t-127.5 127.5t-47 175.5t47 175.5t127.5 127.5t175.5 47t175.5 -47t127.5 -127.5t47 -175.5q0 -74 -29.5 -140.5t-81.5 -115.5zM522 235q37 52 37 115q0 81 -56.5 138
t-137.5 57t-137.5 -57t-56.5 -137.5t56.5 -137.5t137.5 -57q11 0 23 1l-16 27q-6 10 5 17l113 65q11 6 17 -4z" />
    <glyph glyph-name="R" unicode="R" 
d="M497 486q0 -61 -32 -112t-85 -78l110 -279q3 -6 -1 -11.5t-10 -5.5h-139q-9 0 -12 8l-104 264h-38v-260q0 -5 -4 -8.5t-9 -3.5h-131q-5 0 -8.5 3.5t-3.5 8.5v676q0 5 3.5 8.5t8.5 3.5h241q88 0 151 -63t63 -151zM283 428q24 0 41 17t17 41t-17 41t-41 17h-97v-116h97z
" />
    <glyph glyph-name="S" unicode="S" horiz-adv-x="497" 
d="M171 486q0 -21 13 -34.5t35 -19t50 -11t57 -10t57 -18.5t50 -33.5t35.5 -57t13.5 -88.5q0 -98 -67.5 -156t-166.5 -58q-156 0 -213 123q-4 10 5 16l115 66q8 3 10.5 0t8.5 -11.5l12 -17t22.5 -14.5t39.5 -6q78 0 78 58q0 24 -17 38t-44.5 20t-60.5 10.5t-66.5 15.5
t-61 30.5t-44.5 59.5t-17 98q0 98 67 156t166 58q156 0 213 -123q5 -10 -5 -16l-114 -66q-8 -3 -10.5 0.5t-8.5 11.5t-12 16.5t-22.5 15t-40.5 6.5q-77 0 -77 -59z" />
    <glyph glyph-name="T" unicode="T" horiz-adv-x="497" 
d="M482 688v-131q0 -5 -4 -9t-9 -4h-143v-532q0 -5 -3.5 -8.5t-8.5 -3.5h-131q-5 0 -8.5 3.5t-3.5 8.5v532h-144q-5 0 -8.5 4t-3.5 9v131q0 5 3.5 8.5t8.5 3.5h443q4 0 8 -3.5t4 -8.5z" />
    <glyph glyph-name="U" unicode="U" horiz-adv-x="517" 
d="M37 700h132q5 0 8.5 -3.5t3.5 -8.5v-455q0 -32 22.5 -54.5t55 -22.5t55 22.5t22.5 54.5v455q0 5 3.5 8.5t8.5 3.5h132q5 0 8.5 -3.5t3.5 -8.5v-455q0 -96 -68.5 -164.5t-165 -68.5t-165 68.5t-68.5 164.5v455q0 5 3.5 8.5t8.5 3.5z" />
    <glyph glyph-name="V" unicode="V" horiz-adv-x="569" 
d="M158 0l-143 685q-1 6 2.5 10.5t9.5 4.5h134q10 0 12 -10l111 -534l112 534q2 10 12 10h134q6 0 9.5 -4.5t2.5 -10.5l-143 -685h-253z" />
    <glyph glyph-name="W" unicode="W" horiz-adv-x="955" 
d="M542 10l-65 310l-64 -310q-2 -10 -12 -10h-233q-10 0 -12 10l-141 675q-1 6 2.5 10.5t9.5 4.5h134q10 0 12 -10l111 -534l112 534q2 10 12 10h139q10 0 12 -10l111 -534l112 534q2 10 12 10h134q5 0 9 -4.5t2 -10.5l-141 -675q-1 -10 -11 -10h-233q-10 0 -12 10z" />
    <glyph glyph-name="X" unicode="X" horiz-adv-x="485" 
d="M468 683l-142 -333l142 -333q3 -6 -0.5 -11.5t-10.5 -5.5h-141q-8 0 -11 7l-63 147l-63 -147q-3 -7 -11 -7h-141q-6 0 -10 5.5t-1 11.5l142 333l-142 333q-3 6 1 11.5t10 5.5h141q8 0 11 -7l63 -147l63 147q3 7 11 7h141q7 0 10.5 -5.5t0.5 -11.5z" />
    <glyph glyph-name="Y" unicode="Y" horiz-adv-x="485" 
d="M468 683l-148 -347v-324q0 -5 -3.5 -8.5t-8.5 -3.5h-131q-5 0 -9 3.5t-4 8.5v324l-148 347q-3 6 1 11.5t10 5.5h141q8 0 11 -7l63 -147l63 147q3 7 11 7h141q7 0 10.5 -5.5t0.5 -11.5z" />
    <glyph glyph-name="Y" unicode="&#x178;" horiz-adv-x="485" 
d="M468 683l-148 -347v-324q0 -5 -3.5 -8.5t-8.5 -3.5h-131q-5 0 -9 3.5t-4 8.5v324l-148 347q-3 6 1 11.5t10 5.5h141q8 0 11 -7l63 -147l63 147q3 7 11 7h141q7 0 10.5 -5.5t0.5 -11.5z" />
    <glyph glyph-name="Y" unicode="&#xdd;" horiz-adv-x="485" 
d="M468 683l-148 -347v-324q0 -5 -3.5 -8.5t-8.5 -3.5h-131q-5 0 -9 3.5t-4 8.5v324l-148 347q-3 6 1 11.5t10 5.5h141q8 0 11 -7l63 -147l63 147q3 7 11 7h141q7 0 10.5 -5.5t0.5 -11.5z" />
    <glyph glyph-name="Z" unicode="Z" horiz-adv-x="497" 
d="M482 688v-140q0 -4 -3 -7l-274 -385h265q5 0 8.5 -4t3.5 -9v-131q0 -5 -3.5 -8.5t-8.5 -3.5h-443q-5 0 -8.5 3.5t-3.5 8.5v140q0 4 2 7l275 385h-265q-5 0 -8.5 4t-3.5 9v131q0 5 3.5 8.5t8.5 3.5h443q4 0 8 -3.5t4 -8.5z" />
    <glyph glyph-name="bracketleft" unicode="[" horiz-adv-x="392" 
d="M341 -16v-132q0 -5 -3.5 -8.5t-8.5 -3.5h-287q-5 0 -8.5 3.5t-3.5 8.5v987q0 5 3.5 8.5t8.5 3.5h287q5 0 8.5 -3.5t3.5 -8.5v-131q0 -5 -3.5 -8.5t-8.5 -3.5h-143v-700h143q5 0 8.5 -3.5t3.5 -8.5z" />
    <glyph glyph-name="backslash" unicode="\" horiz-adv-x="405" 
d="M50 685q-1 6 2.5 10.5t9.5 4.5h134q10 0 12 -10l147 -675q1 -6 -2.5 -10.5t-9.5 -4.5h-134q-10 0 -12 9z" />
    <glyph glyph-name="bracketright" unicode="]" horiz-adv-x="392" 
d="M50 -16q0 5 3.5 8.5t8.5 3.5h144v700h-144q-5 0 -8.5 3.5t-3.5 8.5v131q0 5 3.5 8.5t8.5 3.5h287q5 0 8.5 -3.5t3.5 -8.5v-987q0 -5 -3.5 -8.5t-8.5 -3.5h-287q-5 0 -8.5 3.5t-3.5 8.5v132z" />
    <glyph glyph-name="asciicircum" unicode="^" horiz-adv-x="249" 
d="M96 508q-3 -8 -11 -8h-56q-6 0 -9.5 5.5t-1.5 11.5l62 170q3 8 12 8h65q8 0 11 -8l63 -170q2 -6 -1.5 -11.5t-10.5 -5.5h-56q-8 0 -11 8l-28 76z" />
    <glyph glyph-name="underscore" unicode="_" horiz-adv-x="346" 
d="M29 0q-5 0 -8.5 3.5t-3.5 8.5v53q0 5 3.5 9t8.5 4h287q5 0 8.5 -4t3.5 -9v-53q0 -5 -3.5 -8.5t-8.5 -3.5h-287z" />
    <glyph glyph-name="grave" unicode="`" horiz-adv-x="177" 
d="M18 644q-3 5 -1.5 10.5t6.5 7.5l46 22q11 5 16 -6l73 -153q5 -11 -6 -17l-15 -7q-9 -4 -15 4z" />
    <glyph glyph-name="a" unicode="a" horiz-adv-x="502" 
d="M465 506q5 0 8.5 -4t3.5 -9v-481q0 -5 -3.5 -8.5t-8.5 -3.5h-95q-10 0 -12 9l-16 65q-57 -74 -138 -74q-80 0 -137 74t-57 179t57 179t137 74q65 0 117 -51v38q0 5 3.5 9t8.5 4h132zM243.5 156q32.5 0 55 28.5t22.5 68.5t-22.5 68.5t-55 28.5t-55 -28.5t-22.5 -68.5
t22.5 -68.5t55 -28.5z" />
    <glyph glyph-name="b" unicode="b" horiz-adv-x="502" 
d="M297 506q81 0 138 -74t57 -179t-57 -179t-138 -74q-80 0 -137 74l-16 -65q-2 -9 -12 -9h-95q-5 0 -8.5 3.5t-3.5 8.5v676q0 5 3.5 8.5t8.5 3.5h131q5 0 9 -3.5t4 -8.5v-233q51 51 116 51zM258.5 156q32.5 0 55 28.5t22.5 68.5t-22.5 68.5t-55 28.5t-55 -28.5t-22.5 -68.5
t22.5 -68.5t55 -28.5z" />
    <glyph glyph-name="c" unicode="c" horiz-adv-x="488" 
d="M263 0q-105 0 -179 74t-74 178.5t74 179t179 74.5q65 0 121.5 -31.5t90.5 -84.5q3 -4 1.5 -9t-5.5 -8l-114 -66q-9 -5 -16 3q-29 40 -78 40q-40 0 -68.5 -28.5t-28.5 -68.5t28.5 -68.5t68.5 -28.5q49 0 78 39q7 9 16 3l114 -65q4 -3 5.5 -8t-1.5 -10q-34 -53 -90.5 -84
t-121.5 -31z" />
    <glyph glyph-name="d" unicode="d" horiz-adv-x="502" 
d="M465 700q5 0 8.5 -3.5t3.5 -8.5v-676q0 -5 -3.5 -8.5t-8.5 -3.5h-95q-10 0 -12 9l-16 65q-57 -74 -138 -74q-80 0 -137 74t-57 178.5t57 179t137 74.5q65 0 117 -51v233q0 5 3.5 8.5t8.5 3.5h132zM243.5 156q32.5 0 55 28.5t22.5 68.5t-22.5 68.5t-55 28.5t-55 -28.5
t-22.5 -68.5t22.5 -68.5t55 -28.5z" />
    <glyph glyph-name="e" unicode="e" horiz-adv-x="526" 
d="M263 506q102 0 175 -71t77 -172q1 -10 -9 -12l-309 -70q28 -25 66 -25q49 0 78 39q7 9 16 3l114 -65q4 -3 5.5 -8t-1.5 -10q-34 -53 -90.5 -84t-121.5 -31q-105 0 -179 74t-74 179t74 179t179 74zM166 253l184 42q-12 25 -35.5 40t-51.5 15q-40 0 -68.5 -28.5
t-28.5 -68.5z" />
    <glyph glyph-name="f" unicode="f" horiz-adv-x="349" 
d="M321 493v-131q0 -5 -3.5 -8.5t-8.5 -3.5h-66v-338q0 -5 -3.5 -8.5t-8.5 -3.5h-131q-5 0 -8.5 3.5t-3.5 8.5v338h-66q-5 0 -8.5 3.5t-3.5 8.5v131q0 5 3.5 9t8.5 4h66v38q0 65 45.5 110.5t109.5 45.5h144q5 0 8.5 -3.5t3.5 -8.5v-131q0 -5 -3.5 -9t-8.5 -4h-66
q-44 0 -67 -38h55q5 0 8.5 -4t3.5 -9z" />
    <glyph glyph-name="g" unicode="g" horiz-adv-x="502" 
d="M465 506q5 0 8.5 -4t3.5 -9v-454q0 -96 -68.5 -164.5t-165.5 -68.5q-100 0 -169 73q-4 4 -3 10t6 9l122 70q5 3 11 1q16 -8 33 -8q32 0 55 23t23 55v11q-52 -50 -117 -50q-80 0 -137 74t-57 178.5t57 179t137 74.5q81 0 138 -74l16 64q2 10 12 10h95zM243.5 156
q32.5 0 55 28.5t22.5 68.5t-22.5 68.5t-55 28.5t-55 -28.5t-22.5 -68.5t22.5 -68.5t55 -28.5z" />
    <glyph glyph-name="h" unicode="h" horiz-adv-x="507" 
d="M37 700h131q5 0 8.5 -3.5t3.5 -8.5v-233q52 51 117 51q81 0 138 -74.5t57 -178.5v-241q0 -5 -4 -8.5t-9 -3.5h-131q-5 0 -8.5 3.5t-3.5 8.5v241q0 40 -22.5 68.5t-55 28.5t-55 -28.5t-22.5 -68.5v-241q0 -5 -4 -8.5t-9 -3.5h-131q-5 0 -8.5 3.5t-3.5 8.5v676q0 5 3.5 8.5
t8.5 3.5z" />
    <glyph glyph-name="i" unicode="i" horiz-adv-x="206" 
d="M103 544q-32 0 -55 23t-23 55t23 55t55 23t55 -23t23 -55t-23 -55t-55 -23zM25 493q0 5 3.5 9t8.5 4h131q5 0 9 -4t4 -9v-481q0 -5 -4 -8.5t-9 -3.5h-131q-5 0 -8.5 3.5t-3.5 8.5v481z" />
    <glyph glyph-name="j" unicode="j" horiz-adv-x="249" 
d="M1 -38q28 4 47.5 26t19.5 51v454q0 5 3.5 9t8.5 4h131q5 0 8.5 -4t3.5 -9v-454q0 -93 -64 -160.5t-156 -72.5q-5 0 -9 3.5t-4 8.5v132q0 10 11 12zM145.5 544q-32.5 0 -55 23t-22.5 55t22.5 55t55 23t55 -23t22.5 -55t-22.5 -55t-55 -23z" />
    <glyph glyph-name="k" unicode="k" horiz-adv-x="494" 
d="M37 700h131q5 0 9 -3.5t4 -8.5v-357h43l93 168q4 7 11 7h143q7 0 10.5 -6t0.5 -12l-131 -235l131 -235q3 -6 -0.5 -12t-10.5 -6h-143q-7 0 -11 6l-93 169h-43v-163q0 -5 -4 -8.5t-9 -3.5h-131q-5 0 -8.5 3.5t-3.5 8.5v676q0 5 3.5 8.5t8.5 3.5z" />
    <glyph glyph-name="l" unicode="l" horiz-adv-x="206" 
d="M37 700h131q5 0 9 -3.5t4 -8.5v-676q0 -5 -4 -8.5t-9 -3.5h-131q-5 0 -8.5 3.5t-3.5 8.5v676q0 5 3.5 8.5t8.5 3.5z" />
    <glyph glyph-name="m" unicode="m" horiz-adv-x="823" 
d="M37 506h95q10 0 12 -10l16 -64q57 74 137 74q47 0 88 -27.5t68 -74.5q27 47 68 74.5t87 27.5q81 0 138 -74t57 -179v-241q0 -5 -3.5 -8.5t-8.5 -3.5h-131q-6 0 -9.5 3.5t-3.5 8.5v241q0 40 -22.5 68.5t-55 28.5t-55 -28.5t-22.5 -68.5v-241q0 -5 -3.5 -8.5t-8.5 -3.5
h-132q-5 0 -8.5 3.5t-3.5 8.5v241q0 40 -22.5 68.5t-55 28.5t-55 -28.5t-22.5 -68.5v-241q0 -5 -3.5 -8.5t-8.5 -3.5h-132q-5 0 -8.5 3.5t-3.5 8.5v240.5v240.5q0 5 3.5 9t8.5 4z" />
    <glyph glyph-name="n" unicode="n" 
d="M181 253v-241q0 -5 -4 -8.5t-9 -3.5h-131q-5 0 -8.5 3.5t-3.5 8.5v481q0 5 3.5 9t8.5 4h95q10 0 12 -10l16 -64q57 74 137 74q81 0 138 -74t57 -179v-241q0 -5 -3.5 -8.5t-8.5 -3.5h-132q-5 0 -8.5 3.5t-3.5 8.5v241q0 40 -22.5 68.5t-55 28.5t-55 -28.5t-22.5 -68.5z
" />
    <glyph glyph-name="o" unicode="o" horiz-adv-x="526" 
d="M262.5 506q104.5 0 179 -74t74.5 -179t-74.5 -179t-179 -74t-178.5 74t-74 179t74 179t178.5 74zM263 156q40 0 68.5 28.5t28.5 68.5t-28.5 68.5t-68.5 28.5t-68.5 -28.5t-28.5 -68.5t28.5 -68.5t68.5 -28.5z" />
    <glyph glyph-name="p" unicode="p" horiz-adv-x="502" 
d="M297 506q81 0 138 -74.5t57 -179t-57 -178.5t-138 -74q-65 0 -116 51v-233q0 -5 -4 -8.5t-9 -3.5h-131q-5 0 -8.5 3.5t-3.5 8.5v675q0 5 3.5 9t8.5 4h95q10 0 12 -10l16 -64q57 74 137 74zM258.5 156q32.5 0 55 28.5t22.5 68.5t-22.5 68.5t-55 28.5t-55 -28.5
t-22.5 -68.5t22.5 -68.5t55 -28.5z" />
    <glyph glyph-name="q" unicode="q" horiz-adv-x="502" 
d="M465 506q5 0 8.5 -4t3.5 -9v-675q0 -5 -3.5 -8.5t-8.5 -3.5h-132q-5 0 -8.5 3.5t-3.5 8.5v233q-52 -51 -117 -51q-80 0 -137 74t-57 179t57 179t137 74q81 0 138 -74l16 64q2 10 12 10h95zM243.5 156q32.5 0 55 28.5t22.5 68.5t-22.5 68.5t-55 28.5t-55 -28.5
t-22.5 -68.5t22.5 -68.5t55 -28.5z" />
    <glyph glyph-name="r" unicode="r" horiz-adv-x="478" 
d="M297 506q57 0 103.5 -38.5t70.5 -102.5q4 -9 -5 -15l-118 -68q-5 -3 -10.5 -1t-7.5 8q-8 27 -27.5 44t-44.5 17q-32 0 -54.5 -28.5t-22.5 -68.5v-241q0 -5 -4 -8.5t-9 -3.5h-131q-5 0 -8.5 3.5t-3.5 8.5v481q0 5 3.5 9t8.5 4h95q10 0 12 -10l16 -64q57 74 137 74z" />
    <glyph glyph-name="s" unicode="s" horiz-adv-x="487" 
d="M318 332q-11 16 -48.5 21t-70.5 -4t-33 -28q0 -11 5 -18t15.5 -9t18 -3t22 0t16.5 1q23 0 35.5 -0.5t35 -1.5t36 -3.5t33 -7.5t31 -12.5t25 -18.5t21 -25t12.5 -33.5t5 -43.5q0 -47 -29.5 -81.5t-74.5 -51t-99.5 -20.5t-104.5 5.5t-90.5 33.5t-56.5 57q-5 10 5 16l126 73
q10 5 16 -4q11 -16 48.5 -21.5t70.5 3.5t33 29q0 11 -5 17.5t-16 9t-18 3t-21.5 0t-17.5 -0.5h-35.5t-35 1.5t-36 4t-32.5 7.5t-31 12t-25 18t-20.5 25.5t-12.5 34t-5 43.5q0 46 29 80.5t74 51.5t100 20.5t105 -6t90.5 -33t56.5 -57.5q5 -10 -5 -15l-126 -73q-10 -6 -16 4z
" />
    <glyph glyph-name="t" unicode="t" horiz-adv-x="409" 
d="M321 362q0 -5 -3.5 -8.5t-8.5 -3.5h-66v-117q0 -32 23 -54.5t55 -22.5h66q5 0 8.5 -4t3.5 -9v-131q0 -5 -3.5 -8.5t-8.5 -3.5h-144q-64 0 -109.5 45.5t-45.5 110.5v194h-66q-5 0 -8.5 3.5t-3.5 8.5v131q0 5 3.5 9t8.5 4h66v182q0 5 3.5 8.5t8.5 3.5h131q5 0 8.5 -3.5
t3.5 -8.5v-182h66q5 0 8.5 -4t3.5 -9v-131z" />
    <glyph glyph-name="u" unicode="u" 
d="M331 253v240q0 5 3.5 9t8.5 4h132q5 0 8.5 -4t3.5 -9v-481q0 -5 -3.5 -8.5t-8.5 -3.5h-95q-10 0 -12 9l-16 65q-57 -74 -138 -74q-80 0 -137 74t-57 179v240q0 5 3.5 9t8.5 4h131q5 0 9 -4t4 -9v-240q0 -40 22.5 -68.5t55 -28.5t55 28.5t22.5 68.5z" />
    <glyph glyph-name="v" unicode="v" horiz-adv-x="556" 
d="M385 497q2 9 11 9h138q6 0 9.5 -5t1.5 -11q-50 -161 -150 -481q-3 -9 -12 -9h-210q-9 0 -12 9q-50 160 -150 481q-2 6 1.5 11t9.5 5h138q9 0 11 -9l107 -341z" />
    <glyph glyph-name="w" unicode="w" horiz-adv-x="938" 
d="M766 497q3 9 12 9h137q6 0 10 -5t2 -11q-50 -161 -151 -481q-2 -9 -11 -9h-211q-9 0 -11 9q-14 44 -40 126t-34 110q-13 -39 -37.5 -118t-36.5 -118q-3 -9 -12 -9h-210q-9 0 -12 9q-25 80 -75 240.5t-75 240.5q-2 6 1.5 11t9.5 5h138q9 0 11 -9l107 -341l107 341
q2 9 11 9h145q9 0 12 -9l106 -341z" />
    <glyph glyph-name="x" unicode="x" horiz-adv-x="469" 
d="M178 500l56 -97l57 97q3 6 10 6h146q7 0 10.5 -6.5t-0.5 -12.5l-136 -234l136 -235q4 -6 0.5 -12t-10.5 -6h-146q-7 0 -10 6l-57 97l-56 -97q-3 -6 -10 -6h-146q-7 0 -10.5 6t0.5 12l136 235l-136 234q-4 6 -0.5 12.5t10.5 6.5h146q7 0 10 -6z" />
    <glyph glyph-name="y" unicode="y" 
d="M220 -31q16 -8 33 -8q32 0 55 23t23 55v12q-52 -51 -117 -51q-80 0 -137 74t-57 179v240q0 5 3.5 9t8.5 4h131q5 0 9 -4t4 -9v-240q0 -40 22.5 -68.5t54.5 -28.5t55 28.5t23 68.5v240q0 5 3.5 9t8.5 4h131q5 0 9 -4t4 -9v-454q0 -96 -69 -164.5t-165 -68.5
q-100 0 -169 73q-4 4 -3.5 10t6.5 9l122 70q5 3 11 1z" />
    <glyph glyph-name="y" unicode="&#xff;" 
d="M220 -31q16 -8 33 -8q32 0 55 23t23 55v12q-52 -51 -117 -51q-80 0 -137 74t-57 179v240q0 5 3.5 9t8.5 4h131q5 0 9 -4t4 -9v-240q0 -40 22.5 -68.5t54.5 -28.5t55 28.5t23 68.5v240q0 5 3.5 9t8.5 4h131q5 0 9 -4t4 -9v-454q0 -96 -69 -164.5t-165 -68.5
q-100 0 -169 73q-4 4 -3.5 10t6.5 9l122 70q5 3 11 1z" />
    <glyph glyph-name="y" unicode="&#xfd;" 
d="M220 -31q16 -8 33 -8q32 0 55 23t23 55v12q-52 -51 -117 -51q-80 0 -137 74t-57 179v240q0 5 3.5 9t8.5 4h131q5 0 9 -4t4 -9v-240q0 -40 22.5 -68.5t54.5 -28.5t55 28.5t23 68.5v240q0 5 3.5 9t8.5 4h131q5 0 9 -4t4 -9v-454q0 -96 -69 -164.5t-165 -68.5
q-100 0 -169 73q-4 4 -3.5 10t6.5 9l122 70q5 3 11 1z" />
    <glyph glyph-name="z" unicode="z" horiz-adv-x="497" 
d="M482 493v-137q0 -6 -5 -10l-225 -190h218q5 0 8.5 -4t3.5 -9v-131q0 -5 -3.5 -8.5t-8.5 -3.5h-443q-5 0 -8.5 3.5t-3.5 8.5v138q0 6 4 9l226 191h-218q-5 0 -8.5 3.5t-3.5 8.5v131q0 5 3.5 9t8.5 4h443q5 0 8.5 -4t3.5 -9z" />
    <glyph glyph-name="braceleft" unicode="{" horiz-adv-x="546" 
d="M496 -16v-132q0 -5 -3.5 -8.5t-8.5 -3.5h-154q-60 0 -102.5 43t-42.5 103v198q0 15 -2 28.5t-7.5 25.5t-10 21t-14.5 18.5t-16 15t-20 14.5t-20 13t-23 13.5t-22 12.5q5 3 22 12.5t23 13t20 12.5t20 14.5t16 15.5t14.5 19t10 20.5t7.5 25t2 29.5v198q0 60 42.5 102.5
t102.5 42.5h154q5 0 8.5 -3.5t3.5 -8.5v-131q0 -12 -12 -12q-61 -4 -102.5 -44t-41.5 -102v-75q0 -84 -78 -129q78 -45 78 -129v-75q0 -62 41.5 -102t102.5 -44q12 0 12 -12z" />
    <glyph glyph-name="verticalbar" unicode="|" horiz-adv-x="216" 
d="M42 851h131q5 0 9 -3.5t4 -8.5v-987q0 -5 -4 -8.5t-9 -3.5h-131q-5 0 -8.5 3.5t-3.5 8.5v987q0 5 3.5 8.5t8.5 3.5z" />
    <glyph glyph-name="braceright" unicode="}" horiz-adv-x="546" 
d="M50 -16q0 12 11 12q62 4 103.5 44t41.5 102v75q0 84 77 129q-77 45 -77 129v75q0 62 -41.5 102t-103.5 44q-11 0 -11 12v131q0 5 3.5 8.5t8.5 3.5h153q61 0 103.5 -42.5t42.5 -102.5v-198q0 -16 2 -29.5t7.5 -25t10 -20.5t14.5 -19l15.5 -15.5t20 -14.5t20 -12.5
t22.5 -13t23 -12.5q-4 -2 -25.5 -14t-25.5 -15t-21 -14.5t-22 -17.5t-16 -18.5t-14.5 -23.5t-7 -26.5t-3.5 -32.5v-198q0 -60 -42.5 -103t-103.5 -43h-153q-5 0 -8.5 3.5t-3.5 8.5v132z" />
    <glyph glyph-name="asciitilde" unicode="~" horiz-adv-x="338" 
d="M18 294q11 16 26 27q21 16 45 23q16 4 29 4.5t25.5 -2.5t20 -5.5t20.5 -8.5q27 -12 46 -7q11 2 19 9q5 4 9 8q6 8 15 3l43 -24q4 -3 5.5 -8t-2.5 -10q-10 -15 -25 -26q-21 -16 -46 -23q-15 -4 -28 -4.5t-25.5 2.5t-20 5.5t-20.5 8.5q-28 12 -46 7q-11 -3 -19 -9
q-5 -4 -9 -9q-7 -7 -15 -2l-43 24q-5 2 -6 7.5t2 9.5z" />
    <glyph glyph-name="nonbreakingspace" unicode="&#xa0;" horiz-adv-x="311" 
 />
    <glyph glyph-name="softhyphen" unicode="&#xad;" horiz-adv-x="0" 
 />
    <glyph glyph-name="Agrave" unicode="&#xc0;" horiz-adv-x="569" 
d="M285 544l-57 -272h113zM217 886q-4 4 -2.5 9.5t6.5 8.5l46 22q11 5 16 -6l73 -154q5 -11 -6 -16l-15 -7q-9 -4 -15 4zM396 10l-22 107h-179l-22 -107q-2 -10 -12 -10h-134q-6 0 -9.5 4.5t-2.5 10.5l141 675q2 10 12 10h233q10 0 12 -10l141 -675q1 -6 -3 -10.5t-9 -4.5
h-134q-10 0 -12 10z" />
    <glyph glyph-name="Aacute" unicode="&#xc1;" horiz-adv-x="569" 
d="M284 544l-56 -272h113zM354.5 896q1.5 -6 -2.5 -10l-103 -139q-6 -8 -15 -4l-15 7q-11 5 -6 16l73 154q5 11 16 6l46 -22q5 -2 6.5 -8zM396 10l-22 107h-179l-22 -107q-2 -10 -12 -10h-134q-6 0 -9.5 4.5t-2.5 10.5l141 675q2 10 12 10h233q10 0 12 -10l141 -675
q1 -6 -3 -10.5t-9 -4.5h-134q-10 0 -12 10z" />
    <glyph glyph-name="Acircumflex" unicode="&#xc2;" horiz-adv-x="569" 
d="M284 544l-56 -272h113zM362 747l-78 103l-77 -103q-6 -8 -15 -4l-15 7q-11 5 -6 16l75 158q3 7 11 7h55q8 0 11 -7l75 -158q5 -11 -6 -16l-15 -7q-9 -4 -15 4zM396 10l-22 107h-179l-22 -107q-2 -10 -12 -10h-134q-6 0 -9.5 4.5t-2.5 10.5l141 675q2 10 12 10h233
q10 0 12 -10l141 -675q1 -6 -3 -10.5t-9 -4.5h-134q-10 0 -12 10z" />
    <glyph glyph-name="Atilde" unicode="&#xc3;" horiz-adv-x="569" 
d="M284 544l-56 -272h113zM132 820.5q-1 5.5 2 9.5q11 16 26 27q20 16 45 22q15 4 28.5 5t26 -2t19.5 -5.5t20 -8.5q28 -12 46 -8q11 3 20 10q5 4 8 8q7 8 16 3l42 -24q5 -3 6 -8t-2 -10q-11 -15 -26 -26q-20 -16 -45 -23q-15 -4 -28.5 -4.5t-26 2t-20 5.5t-19.5 9
q-28 12 -46 7q-11 -3 -20 -9q-5 -4 -9 -9q-6 -8 -15 -2l-42 24q-5 2 -6 7.5zM396 10l-22 107h-179l-22 -107q-2 -10 -12 -10h-134q-6 0 -9.5 4.5t-2.5 10.5l141 675q2 10 12 10h233q10 0 12 -10l141 -675q1 -6 -3 -10.5t-9 -4.5h-134q-10 0 -12 10z" />
    <glyph glyph-name="Adieresis" unicode="&#xc4;" horiz-adv-x="569" 
d="M284 544l-56 -272h113zM110 834.5q0 32.5 22.5 55.5t55 22.5t55 -23t22.5 -54.5t-23 -55t-55 -23t-54.5 22.5t-22.5 55zM304 834.5q0 32.5 23 55.5t55 22.5t55 -23t23 -55t-23 -55t-55 -22.5t-55 22.5t-23 55zM396 10l-22 107h-179l-22 -107q-2 -10 -12 -10h-134
q-6 0 -9.5 4.5t-2.5 10.5l141 675q2 10 12 10h233q10 0 12 -10l141 -675q1 -6 -3 -10.5t-9 -4.5h-134q-10 0 -12 10z" />
    <glyph glyph-name="Aring" unicode="&#xc5;" horiz-adv-x="570" 
d="M413 690l141 -675q1 -6 -2.5 -10.5t-9.5 -4.5h-134q-10 0 -12 10l-22 107h-179l-22 -107q-2 -10 -12 -10h-134q-6 0 -9.5 4.5t-2.5 10.5l141 675q2 10 12 10h233q10 0 12 -10zM228 272h113l-57 272zM284.5 718q-48.5 0 -82.5 34.5t-34 82.5t34 82t82.5 34t82.5 -34
t34 -82t-34 -82.5t-82.5 -34.5zM284.5 913q-32.5 0 -55 -23t-22.5 -55t22.5 -55t55 -23t55 23t22.5 55t-22.5 55t-55 23z" />
    <glyph glyph-name="AE" unicode="&#xc6;" horiz-adv-x="767" 
d="M228 272h57v272zM284 117h-89l-22 -107q-2 -10 -12 -10h-134q-6 0 -9.5 4.5t-2.5 10.5l141 675q2 10 12 10h571q5 0 8.5 -3.5t3.5 -8.5v-131q0 -5 -3.5 -9t-8.5 -4h-296l-3 -116h221q5 0 8.5 -3.5t3.5 -8.5v-132q0 -5 -3.5 -8.5t-8.5 -3.5h-221v-116h299q5 0 8.5 -3.5
t3.5 -8.5v-132q0 -5 -3.5 -8.5t-8.5 -3.5h-455v117z" />
    <glyph glyph-name="Ccedilla" unicode="&#xc7;" horiz-adv-x="679" 
d="M365 700q92 0 170.5 -44.5t126.5 -119.5q2 -5 1 -10t-6 -7l-113 -66q-10 -6 -17 4q-26 40 -69 63.5t-93 23.5q-81 0 -137.5 -57t-56.5 -137.5t56.5 -137.5t137.5 -57q50 0 93 24t69 64q7 9 17 4l113 -66q5 -3 6 -8t-1 -9q-42 -67 -109.5 -110t-147.5 -52l2 -1
q-2 -5 -6 -17q-1 -2 0 -4t4 -2q63 -11 71 -63q7 -46 -31 -85q-48 -48 -113 -25q-8 2 -16 6q-5 3 -6.5 8t1.5 9l25 43q5 8 14 5q27 -10 44 6q14 13 -1 21q-13 7 -42 4q-20 -2 -32 14t-5 35l16 46q-133 13 -224 112.5t-91 235.5q0 95 47 175.5t127.5 127.5t175.5 47z" />
    <glyph glyph-name="Egrave" unicode="&#xc8;" 
d="M195 886q-3 4 -2 10q2 6 7 8l46 22q11 5 16 -6l73 -154q5 -11 -6 -16l-15 -7q-9 -4 -15 4zM485 700q5 0 8.5 -3.5t3.5 -8.5v-131q0 -5 -3.5 -9t-8.5 -4h-299v-116h221q5 0 8.5 -3.5t3.5 -8.5v-132q0 -5 -3.5 -8.5t-8.5 -3.5h-221v-116h299q5 0 8.5 -3.5t3.5 -8.5v-132
q0 -5 -3.5 -8.5t-8.5 -3.5h-443q-5 0 -8.5 3.5t-3.5 8.5v676q0 5 3.5 8.5t8.5 3.5h443z" />
    <glyph glyph-name="Eacute" unicode="&#xc9;" 
d="M331 886l-103 -139q-6 -8 -15 -4l-15 7q-11 5 -6 16l73 154q5 11 16 6l46 -22q5 -2 6.5 -8t-2.5 -10zM485 700q5 0 8.5 -3.5t3.5 -8.5v-131q0 -5 -3.5 -9t-8.5 -4h-299v-116h221q5 0 8.5 -3.5t3.5 -8.5v-132q0 -5 -3.5 -8.5t-8.5 -3.5h-221v-116h299q5 0 8.5 -3.5
t3.5 -8.5v-132q0 -5 -3.5 -8.5t-8.5 -3.5h-443q-5 0 -8.5 3.5t-3.5 8.5v676q0 5 3.5 8.5t8.5 3.5h443z" />
    <glyph glyph-name="Ecircumflex" unicode="&#xca;" 
d="M341 747l-78 103l-77 -103q-6 -8 -15 -4l-15 7q-11 5 -6 16l75 158q3 7 11 7h55q7 0 11 -7l75 -158q5 -11 -6 -16l-15 -7q-9 -4 -15 4zM485 700q4 0 8 -3.5t4 -8.5v-131q0 -5 -3.5 -9t-8.5 -4h-299v-116h221q5 0 8.5 -3.5t3.5 -8.5v-132q0 -5 -3.5 -8.5t-8.5 -3.5h-221
v-116h299q5 0 8.5 -3.5t3.5 -8.5v-132q0 -5 -3.5 -8.5t-8.5 -3.5h-443q-5 0 -8.5 3.5t-3.5 8.5v676q0 5 3.5 8.5t8.5 3.5h443z" />
    <glyph glyph-name="Edieresis" unicode="&#xcb;" 
d="M88 834.5q0 32.5 23 55.5t55 22.5t55 -23t23 -55t-23 -55t-55 -22.5t-55 22.5t-23 55zM283 834.5q0 32.5 22.5 55.5t55 22.5t55 -23t22.5 -54.5t-22.5 -55t-55 -23t-55 22.5t-22.5 55zM485 700q5 0 8.5 -3.5t3.5 -8.5v-131q0 -5 -3.5 -9t-8.5 -4h-299v-116h221
q5 0 8.5 -3.5t3.5 -8.5v-132q0 -5 -3.5 -8.5t-8.5 -3.5h-221v-116h299q5 0 8.5 -3.5t3.5 -8.5v-132q0 -5 -3.5 -8.5t-8.5 -3.5h-443q-5 0 -8.5 3.5t-3.5 8.5v676q0 5 3.5 8.5t8.5 3.5h443z" />
    <glyph glyph-name="Igrave" unicode="&#xcc;" horiz-adv-x="216" 
d="M40 886q-4 4 -2.5 10t6.5 8l46 22q11 5 17 -6l72 -154q6 -11 -5 -16l-16 -7q-9 -4 -15 4zM30 688q0 5 3.5 8.5t8.5 3.5h131q5 0 9 -3.5t4 -8.5v-676q0 -5 -4 -8.5t-9 -3.5h-131q-5 0 -8.5 3.5t-3.5 8.5v676z" />
    <glyph glyph-name="Iacute" unicode="&#xcd;" horiz-adv-x="216" 
d="M42 700h131q5 0 9 -3.5t4 -8.5v-676q0 -5 -4 -8.5t-9 -3.5h-131q-5 0 -8.5 3.5t-3.5 8.5v676q0 5 3.5 8.5t8.5 3.5zM177.5 896q1.5 -6 -1.5 -10l-104 -139q-6 -8 -15 -4l-15 7q-11 5 -6 16l73 154q5 11 16 6l46 -22q5 -2 6.5 -8z" />
    <glyph glyph-name="Icircumflex" unicode="&#xce;" horiz-adv-x="215" 
d="M42 700h131q5 0 8.5 -3.5t3.5 -8.5v-676q0 -5 -3.5 -8.5t-8.5 -3.5h-131q-5 0 -8.5 3.5t-3.5 8.5v676q0 5 3.5 8.5t8.5 3.5zM185 747l-78 103l-77 -103q-6 -8 -15 -4l-15 7q-11 5 -6 16l75 158q3 7 11 7h55q7 0 11 -7l75 -158q5 -11 -6 -16l-15 -7q-9 -4 -15 4z" />
    <glyph glyph-name="Idieresis" unicode="&#xcf;" horiz-adv-x="216" 
d="M-67 834.5q0 32.5 23 55.5t55 22.5t55 -23t23 -55t-23 -55t-55 -22.5t-55 22.5t-23 55zM127 834.5q0 32.5 23 55.5t55 22.5t55 -23t23 -55t-23 -55t-55 -22.5t-55 22.5t-23 55zM30 688q0 5 3.5 8.5t8.5 3.5h132q5 0 8.5 -3.5t3.5 -8.5v-676q0 -5 -3.5 -8.5t-8.5 -3.5
h-132q-5 0 -8.5 3.5t-3.5 8.5v676z" />
    <glyph glyph-name="Ntilde" unicode="&#xd1;" horiz-adv-x="527" 
d="M113 830q11 16 26 27q20 16 45 22q15 4 28.5 5t26 -2t19.5 -5.5t20 -8.5q28 -12 46 -8q11 3 20 10q5 4 8 8q7 8 16 3l42 -24q5 -3 6 -8t-2 -10q-11 -15 -26 -26q-20 -16 -45 -23q-15 -4 -28.5 -4.5t-26 2t-20 5.5t-19.5 9q-28 12 -47 7q-11 -3 -19 -9q-5 -4 -9 -9
q-6 -8 -15 -2l-42 24q-5 2 -6 7.5t2 9.5zM341 688q0 5 3.5 8.5t8.5 3.5h132q5 0 8.5 -3.5t3.5 -8.5v-676q0 -5 -3.5 -8.5t-8.5 -3.5h-148q-8 0 -11 7l-140 329v-324q0 -5 -4 -8.5t-9 -3.5h-131q-5 0 -8.5 3.5t-3.5 8.5v676q0 5 3.5 8.5t8.5 3.5h147q8 0 12 -7l140 -329v324z
" />
    <glyph glyph-name="Ograve" unicode="&#xd2;" horiz-adv-x="731" 
d="M401 747l-104 139q-3 4 -2 10t7 8l46 22q11 5 16 -6l73 -154q5 -11 -6 -16l-15 -7q-9 -4 -15 4zM365 700q95 0 175.5 -47t127.5 -127.5t47 -175.5t-47 -175.5t-127.5 -127.5t-175.5 -47t-175.5 47t-127.5 127.5t-47 175.5t47 175.5t127.5 127.5t175.5 47zM365.5 156
q80.5 0 137 56.5t56.5 137.5t-56.5 137.5t-137 56.5t-137.5 -56.5t-57 -137.5t57 -137.5t137.5 -56.5z" />
    <glyph glyph-name="Oacute" unicode="&#xd3;" horiz-adv-x="731" 
d="M365 700q145 0 247.5 -102.5t102.5 -247.5t-102.5 -247.5t-247.5 -102.5t-247.5 102.5t-102.5 247.5t102.5 247.5t247.5 102.5zM365 156q81 0 137.5 56.5t56.5 137.5t-56.5 137.5t-137.5 56.5t-137.5 -56.5t-56.5 -137.5t56.5 -137.5t137.5 -56.5zM314 743l-15 7
q-11 5 -6 16l73 154q6 11 17 6l45 -22q6 -2 7 -8t-2 -10l-104 -139q-6 -8 -15 -4z" />
    <glyph glyph-name="Ocircumflex" unicode="&#xd4;" horiz-adv-x="731" 
d="M273 743l-15 7q-11 5 -6 16l75 158q3 7 10 7h55q8 0 11 -7l75 -158q5 -11 -6 -16l-15 -7q-9 -4 -15 4l-77 103l-77 -103q-6 -8 -15 -4zM365 700q95 0 175.5 -47t127.5 -127.5t47 -175.5t-47 -175.5t-127.5 -127.5t-175.5 -47t-175.5 47t-127.5 127.5t-47 175.5t47 175.5
t127.5 127.5t175.5 47zM365 156q81 0 137.5 56.5t56.5 137.5t-56.5 137.5t-137.5 56.5t-137.5 -56.5t-56.5 -137.5t56.5 -137.5t137.5 -56.5z" />
    <glyph glyph-name="Otilde" unicode="&#xd5;" horiz-adv-x="731" 
d="M365 700q145 0 247.5 -102.5t102.5 -247.5t-102.5 -247.5t-247.5 -102.5t-247.5 102.5t-102.5 247.5t102.5 247.5t247.5 102.5zM365 156q81 0 137.5 56.5t56.5 137.5t-56.5 137.5t-137.5 56.5t-137.5 -56.5t-56.5 -137.5t56.5 -137.5t137.5 -56.5zM261 788l-43 25
q-4 2 -5.5 7.5t1.5 9.5q11 15 26 27q21 16 45 22q16 4 29 5t25.5 -2t20 -5.5t20.5 -8.5q27 -13 46 -8q11 3 19 10q5 4 9 8q7 8 15 3l43 -24q4 -3 5.5 -8t-1.5 -10q-11 -15 -26 -26q-21 -16 -45 -23q-16 -4 -29 -5t-25.5 2t-20 6t-20.5 9q-27 12 -46 7q-11 -3 -19 -10
q-5 -3 -9 -8q-6 -8 -15 -3z" />
    <glyph glyph-name="Odieresis" unicode="&#xd6;" horiz-adv-x="731" 
d="M462 757q-32 0 -55 23t-23 55t23 55t55 23t55 -23t23 -55.5t-23 -55t-55 -22.5zM268 757q-32 0 -55 23t-23 55t23 55t55 23t55 -23t23 -55.5t-23 -55t-55 -22.5zM365 700q145 0 247.5 -102.5t102.5 -247.5t-102.5 -247.5t-247.5 -102.5t-247.5 102.5t-102.5 247.5
t102.5 247.5t247.5 102.5zM365 156q81 0 137.5 56.5t56.5 137.5t-56.5 137.5t-137.5 56.5t-137.5 -56.5t-56.5 -137.5t56.5 -137.5t137.5 -56.5z" />
    <glyph glyph-name="Oslash" unicode="&#xd8;" horiz-adv-x="731" 
d="M251 192l76 349q-67 -14 -111.5 -67.5t-44.5 -123.5q0 -48 21.5 -89.5t58.5 -68.5zM560 350q0 48 -22 89.5t-59 68.5l-76 -349q68 14 112.5 67.5t44.5 123.5zM515 695.5q4 -4.5 2 -10.5l-4 -18q91 -43 146.5 -128t55.5 -189q0 -94 -46.5 -174.5t-126 -127.5t-173.5 -48
h-144q-6 0 -9.5 4.5t-2.5 10.5l4 18q-91 43 -146.5 128t-55.5 189q0 94 46.5 174.5t126 127.5t174.5 48h143q6 0 10 -4.5z" />
    <glyph glyph-name="Ugrave" unicode="&#xd9;" horiz-adv-x="507" 
d="M186 886q-4 4 -2.5 10t6.5 8l46 22q11 5 16 -6l73 -154q5 -11 -6 -16l-15 -7q-9 -4 -15 4zM20 688q0 5 3.5 8.5t8.5 3.5h132q5 0 8.5 -3.5t3.5 -8.5v-455q0 -32 22.5 -54.5t55 -22.5t55 22.5t22.5 54.5v455q0 5 3.5 8.5t8.5 3.5h132q5 0 8.5 -3.5t3.5 -8.5v-455
q0 -96 -68.5 -164.5t-165 -68.5t-165 68.5t-68.5 164.5v455z" />
    <glyph glyph-name="Uacute" unicode="&#xda;" horiz-adv-x="507" 
d="M321 886l-103 -139q-6 -8 -15 -4l-15 7q-11 5 -6 16l73 154q5 11 16 6l46 -22q5 -2 6.5 -8t-2.5 -10zM20 688q0 5 3.5 8.5t8.5 3.5h132q5 0 8.5 -3.5t3.5 -8.5v-455q0 -32 22.5 -54.5t54.5 -22.5t55 22.5t23 54.5v455q0 5 3.5 8.5t8.5 3.5h132q5 0 8.5 -3.5t3.5 -8.5
v-455q0 -96 -68.5 -164.5t-165 -68.5t-165 68.5t-68.5 164.5v455z" />
    <glyph glyph-name="Ucircumflex" unicode="&#xdb;" horiz-adv-x="507" 
d="M331 747l-78 103l-77 -103q-6 -8 -15 -4l-15 7q-11 5 -6 16l75 158q3 7 11 7h55q8 0 11 -7l75 -158q5 -11 -6 -16l-15 -7q-9 -4 -15 4zM20 688q0 5 3.5 8.5t8.5 3.5h132q5 0 8.5 -3.5t3.5 -8.5v-455q0 -32 22.5 -54.5t54.5 -22.5t55 22.5t23 54.5v455q0 5 3.5 8.5
t8.5 3.5h132q5 0 8.5 -3.5t3.5 -8.5v-455q0 -96 -68.5 -164.5t-165 -68.5t-165 68.5t-68.5 164.5v455z" />
    <glyph glyph-name="Udieresis" unicode="&#xdc;" horiz-adv-x="507" 
d="M78 834.5q0 32.5 23 55.5t55 22.5t55 -23t23 -55t-23 -55t-55 -22.5t-55 22.5t-23 55zM273 834.5q0 32.5 22.5 55.5t55 22.5t55 -23t22.5 -55t-22.5 -55t-55 -22.5t-55 22.5t-22.5 55zM20 688q0 5 3.5 8.5t8.5 3.5h132q5 0 8.5 -3.5t3.5 -8.5v-455q0 -32 22.5 -54.5
t55 -22.5t55 22.5t22.5 54.5v455q0 5 3.5 8.5t8.5 3.5h132q5 0 8.5 -3.5t3.5 -8.5v-455q0 -96 -68.5 -164.5t-165 -68.5t-165 68.5t-68.5 164.5v455z" />
    <glyph glyph-name="germandbls" unicode="&#xdf;" horiz-adv-x="507" 
d="M37 0q-5 0 -8.5 3.5t-3.5 8.5v474q0 88 63 151t151 63h19q89 0 151.5 -63t62.5 -151q0 -68 -40 -124q60 -62 60 -148q0 -88 -63 -151t-151 -63h-47q-5 0 -8.5 3.5t-3.5 8.5v131q0 5 3.5 9t8.5 4h47q24 0 41 17t17 41t-17 41t-41 17h-47q-5 0 -8.5 3.5t-3.5 8.5v132
q0 5 3.5 8.5t8.5 3.5h27q24 0 41.5 17t17.5 41t-17.5 41t-41.5 17h-19q-24 0 -41 -17t-17 -41v-474q0 -5 -4 -8.5t-9 -3.5h-131z" />
    <glyph glyph-name="agrave" unicode="&#xe0;" horiz-adv-x="502" 
d="M279 552l-104 139q-3 5 -1.5 10.5t6.5 8.5l46 21q11 6 16 -5l73 -154q5 -11 -6 -16l-15 -8q-9 -4 -15 4zM465 506q5 0 8.5 -4t3.5 -9v-481q0 -5 -3.5 -8.5t-8.5 -3.5h-95q-10 0 -12 9l-16 65q-57 -74 -138 -74q-80 0 -137 74t-57 179t57 179t137 74q65 0 117 -51v38
q0 5 3.5 9t8.5 4h132zM243.5 156q32.5 0 55 28.5t22.5 68.5t-22.5 68.5t-55 28.5t-55 -28.5t-22.5 -69t22.5 -68.5t55 -28z" />
    <glyph glyph-name="aacute" unicode="&#xe1;" horiz-adv-x="502" 
d="M193 548l-15 8q-11 5 -6 16l73 154q5 11 16 5l46 -21q5 -3 6.5 -8.5t-2.5 -10.5l-103 -139q-6 -8 -15 -4zM465 506q5 0 8.5 -4t3.5 -9v-481q0 -5 -3.5 -8.5t-8.5 -3.5h-95q-10 0 -12 9l-16 65q-57 -74 -138 -74q-80 0 -137 74t-57 178.5t57 179t137 74.5q65 0 117 -51v38
q0 5 3.5 9t8.5 4h132zM243.5 156q32.5 0 55 28.5t22.5 68.5t-22.5 68.5t-55 28.5t-55 -28.5t-22.5 -69t22.5 -68.5t55 -28z" />
    <glyph glyph-name="acircumflex" unicode="&#xe2;" horiz-adv-x="502" 
d="M151 548l-15 8q-11 5 -6 16l75 158q3 7 11 7h55q7 0 11 -7l75 -158q5 -11 -6 -16l-15 -8q-9 -4 -15 4l-78 104l-77 -104q-6 -8 -15 -4zM465 506q5 0 8.5 -4t3.5 -9v-481q0 -5 -3.5 -8.5t-8.5 -3.5h-95q-10 0 -12 9l-16 65q-57 -74 -138 -74q-80 0 -137 74t-57 178.5
t57 179t137 74.5q65 0 117 -51v38q0 5 3.5 9t8.5 4h132zM243.5 156q32.5 0 55 28.5t22.5 68.5t-22.5 68.5t-55 28.5t-55 -28.5t-22.5 -68.5t22.5 -68.5t55 -28.5z" />
    <glyph glyph-name="atilde" unicode="&#xe3;" horiz-adv-x="502" 
d="M139 594l-42 24q-5 3 -6 8t2 10q11 15 26 27q20 15 45 22q15 4 28.5 5t26 -2t19.5 -6t20 -9q28 -12 46 -7q11 3 20 10q4 3 8 8q7 8 16 3l42 -24q5 -3 6 -8.5t-2 -9.5q-11 -15 -26 -27q-20 -16 -45 -22q-15 -4 -28.5 -5t-26 2t-20 5.5t-19.5 8.5q-28 13 -46 8
q-11 -3 -20 -10q-5 -3 -9 -8q-6 -8 -15 -3zM465 506q5 0 8.5 -4t3.5 -9v-481q0 -5 -3.5 -8.5t-8.5 -3.5h-95q-10 0 -12 9l-16 65q-57 -74 -138 -74q-80 0 -137 74t-57 179t57 179t137 74q65 0 117 -51v38q0 5 3.5 9t8.5 4h132zM243.5 156q32.5 0 55 28.5t22.5 68.5
t-22.5 68.5t-55 28.5t-55 -28.5t-22.5 -69t22.5 -68.5t55 -28z" />
    <glyph glyph-name="adieresis" unicode="&#xe4;" horiz-adv-x="502" 
d="M465 506q5 0 8.5 -4t3.5 -9v-481q0 -5 -3.5 -8.5t-8.5 -3.5h-95q-10 0 -12 9l-16 65q-57 -74 -138 -74q-80 0 -137 74t-57 179t57 179t137 74q65 0 117 -51v38q0 5 3.5 9t8.5 4h132zM243.5 156q32.5 0 55 28.5t22.5 68.5t-22.5 68.5t-55 28.5t-55 -28.5t-22.5 -68.5
t22.5 -68.5t55 -28.5zM340.5 563q-32.5 0 -55 22.5t-22.5 55t22.5 55t55 22.5t55 -22.5t22.5 -55t-22.5 -55t-55 -22.5zM146 563q-32 0 -55 22.5t-23 55t23 55t55 22.5t55 -22.5t23 -55t-23 -55t-55 -22.5z" />
    <glyph glyph-name="aring" unicode="&#xe5;" horiz-adv-x="502" 
d="M465 506q5 0 8.5 -4t3.5 -9v-481q0 -5 -3.5 -8.5t-8.5 -3.5h-95q-10 0 -12 9l-16 65q-57 -74 -138 -74q-80 0 -137 74t-57 178.5t57 179t137 74.5q65 0 117 -51v38q0 5 3.5 9t8.5 4h132zM243.5 156q32.5 0 55 28.5t22.5 68.5t-22.5 68.5t-55 28.5t-55 -28.5t-22.5 -69
t22.5 -68.5t55 -28zM243.5 524q-48.5 0 -82.5 34t-34 82t34 82.5t82.5 34.5t82.5 -34t34 -82.5t-34 -82.5t-82.5 -34zM243.5 718q-32.5 0 -55 -22.5t-22.5 -55t22.5 -55t55 -22.5t55 22.5t22.5 55t-22.5 55t-55 22.5z" />
    <glyph glyph-name="ae" unicode="&#xe6;" horiz-adv-x="837" 
d="M574 506q102 0 175.5 -71t77.5 -172q0 -10 -10 -12l-308 -70q27 -25 65 -25q49 0 78 39q7 9 16 3l114 -65q5 -3 6 -8t-2 -10q-34 -53 -90 -84t-122 -31q-51 0 -97 19v-7q0 -5 -3.5 -8.5t-8.5 -3.5h-95q-10 0 -12 9l-16 65q-57 -74 -138 -74q-80 0 -137 74t-57 178.5
t57 179t137 74.5q65 0 117 -51v38q0 5 3.5 9t8.5 4h132q5 0 8.5 -4t3.5 -9v-7q46 20 97 20zM243.5 156q32.5 0 55 28t22.5 68.5t-22.5 69t-55 28.5t-55 -28.5t-22.5 -69t22.5 -68.5t55 -28zM477 253l184 42q-12 25 -35.5 40t-51.5 15q-40 0 -68.5 -28.5t-28.5 -68.5z" />
    <glyph glyph-name="ccedilla" unicode="&#xe7;" horiz-adv-x="488" 
d="M294 2l-3 -9q-1 -2 0 -4t3 -2q63 -11 72 -62q7 -47 -31 -86q-48 -48 -114 -25q-8 2 -15 6q-5 3 -6.5 8t0.5 9l25 43q6 8 15 5q27 -10 44 6q14 13 -1 21q-13 7 -42 4q-20 -2 -32 14t-6 35l14 39q-89 16 -148 86t-59 163q0 104 74 178.5t179 74.5q65 0 121.5 -31.5
t90.5 -84.5q3 -4 1.5 -9.5t-5.5 -7.5l-114 -66q-9 -5 -16 3q-29 40 -78 40q-40 0 -68.5 -28.5t-28.5 -68.5t28.5 -68.5t68.5 -28.5q49 0 78 39q6 9 16 3l114 -65q4 -3 5.5 -8t-1.5 -9q-30 -47 -77.5 -77t-103.5 -37z" />
    <glyph glyph-name="egrave" unicode="&#xe8;" horiz-adv-x="526" 
d="M166 253l184 42q-12 25 -35.5 40t-51.5 15q-40 0 -68.5 -28.5t-28.5 -68.5zM10 253q0 105 74 179t179 74q102 0 175 -71t77 -172q1 -10 -9 -12l-309 -70q28 -25 66 -25q49 0 78 39q7 9 16 3l114 -65q4 -3 5.5 -8t-1.5 -9q-34 -54 -90.5 -85t-121.5 -31q-105 0 -179 74
t-74 179zM195 691q-4 5 -2.5 10.5t6.5 8.5l46 21q11 6 16 -5l73 -154q5 -11 -6 -16l-15 -8q-9 -4 -15 4z" />
    <glyph glyph-name="eacute" unicode="&#xe9;" horiz-adv-x="526" 
d="M166 253l184 42q-12 25 -35.5 40t-51.5 15q-40 0 -68.5 -28.5t-28.5 -68.5zM10 253q0 105 74 179t179 74q102 0 175 -71t77 -172q1 -10 -9 -12l-309 -70q28 -25 66 -25q49 0 78 39q7 9 16 3l114 -65q4 -3 5.5 -8t-1.5 -10q-34 -53 -90.5 -84t-121.5 -31q-105 0 -179 74
t-74 179zM332.5 701.5q1.5 -5.5 -1.5 -10.5l-104 -139q-6 -8 -15 -4l-15 8q-11 5 -6 16l73 154q5 10 16 5l46 -21q5 -3 6.5 -8.5z" />
    <glyph glyph-name="ecircumflex" unicode="&#xea;" horiz-adv-x="526" 
d="M166 253l184 42q-12 25 -35.5 40t-51.5 15q-40 0 -68.5 -28.5t-28.5 -68.5zM340 552l-77 104l-78 -104q-6 -8 -15 -4l-15 8q-11 5 -6 16l75 158q4 7 11 7h55q8 0 11 -7l75 -158q5 -11 -6 -16l-15 -8q-9 -4 -15 4zM10 252.5q0 104.5 74 179t179 74.5q102 0 175 -71
t77 -172q1 -10 -9 -12l-309 -70q28 -25 66 -25q49 0 78 39q7 9 16 3l114 -65q4 -3 5.5 -8t-1.5 -10q-34 -53 -90.5 -84t-121.5 -31q-105 0 -179 74t-74 178.5z" />
    <glyph glyph-name="edieresis" unicode="&#xeb;" horiz-adv-x="526" 
d="M166 253l184 42q-12 25 -35.5 40t-51.5 15q-40 0 -68.5 -28.5t-28.5 -68.5zM88 640q0 32 22.5 55t55 23t55 -22.5t22.5 -55t-22.5 -55t-55 -22.5t-55 22.5t-22.5 54.5zM282 640.5q0 32.5 23 55t55 22.5t55 -22.5t23 -55t-23 -55t-55 -22.5t-55 22.5t-23 55zM10 252.5
q0 104.5 74 179t179 74.5q102 0 175 -71t77 -172q1 -10 -9 -12l-309 -70q28 -25 66 -25q49 0 78 39q6 9 16 3l114 -65q4 -3 5.5 -8t-1.5 -10q-34 -53 -90.5 -84t-121.5 -31q-105 0 -179 74t-74 178.5z" />
    <glyph glyph-name="igrave" unicode="&#xec;" horiz-adv-x="206" 
d="M35 691q-4 5 -2.5 10.5t6.5 8.5l46 21q11 5 17 -5l72 -154q6 -11 -5 -16l-16 -8q-9 -4 -15 4zM25 493q0 5 3.5 9t8.5 4h131q5 0 9 -4t4 -9v-481q0 -5 -4 -8.5t-9 -3.5h-131q-5 0 -8.5 3.5t-3.5 8.5v481z" />
    <glyph glyph-name="iacute" unicode="&#xed;" horiz-adv-x="206" 
d="M37 506h131q5 0 9 -4t4 -9v-481q0 -5 -4 -8.5t-9 -3.5h-131q-5 0 -8.5 3.5t-3.5 8.5v481q0 5 3.5 9t8.5 4zM173 702q1 -6 -2 -11l-104 -139q-6 -8 -15 -4l-15 8q-11 5 -6 16l73 154q5 11 16 5l46 -21q5 -3 7 -8z" />
    <glyph glyph-name="icircumflex" unicode="&#xee;" horiz-adv-x="279" 
d="M74 506h131q5 0 8.5 -4t3.5 -9v-481q0 -5 -3.5 -8.5t-8.5 -3.5h-131q-5 0 -8.5 3.5t-3.5 8.5v481q0 5 3.5 9t8.5 4zM217 552l-78 104l-77 -104q-6 -8 -15 -4l-15 8q-11 5 -6 16l75 158q3 7 11 7h55q7 0 11 -7l75 -158q5 -11 -6 -16l-15 -8q-9 -4 -15 4z" />
    <glyph glyph-name="idieresis" unicode="&#xef;" horiz-adv-x="395" 
d="M25 640.5q0 32.5 23 55t55 22.5t55 -22.5t23 -55t-23 -55t-55 -22.5t-55 22.5t-23 55zM219 640.5q0 32.5 23 55t55 22.5t55 -22.5t23 -55t-23 -55t-55 -22.5t-55 22.5t-23 55zM122 493q0 5 3.5 9t8.5 4h132q5 0 8.5 -4t3.5 -9v-481q0 -5 -3.5 -8.5t-8.5 -3.5h-132
q-5 0 -8.5 3.5t-3.5 8.5v481z" />
    <glyph glyph-name="ntilde" unicode="&#xf1;" horiz-adv-x="507" 
d="M181 253v-241q0 -5 -4 -8.5t-9 -3.5h-131q-5 0 -8.5 3.5t-3.5 8.5v481q0 5 3.5 9t8.5 4h95q10 0 12 -10l16 -64q57 74 137 74q81 0 138 -74t57 -179v-241q0 -5 -3.5 -8.5t-8.5 -3.5h-132q-5 0 -8.5 3.5t-3.5 8.5v241q0 40 -22.5 68.5t-55 28.5t-55 -28.5t-22.5 -68.5z
M106 626q-1 5 2 10q11 15 26 27q20 15 45 22q15 4 28.5 5t26 -2t19.5 -6t20 -8q28 -13 46 -8q11 3 20 10q4 3 8 8q7 8 16 3l42 -24q5 -3 6 -8.5t-2 -9.5q-11 -15 -26 -27q-20 -16 -45 -22q-16 -4 -29 -5t-25.5 2t-20 5.5t-20.5 8.5q-27 13 -46 8q-11 -3 -19 -10q-5 -3 -9 -8
q-6 -8 -15 -3l-42 24q-5 3 -6 8z" />
    <glyph glyph-name="ograve" unicode="&#xf2;" horiz-adv-x="526" 
d="M262.5 506q104.5 0 179 -74.5t74.5 -179t-74 -178.5t-179 -74t-179 74t-74 178.5t74 179t178.5 74.5zM263 156q40 0 68.5 28.5t28.5 68.5t-28.5 68.5t-68.5 28.5t-68.5 -28.5t-28.5 -69t28.5 -68.5t68.5 -28zM299 552l-104 139q-4 5 -2.5 10.5t6.5 8.5l46 21q11 6 16 -5
l73 -154q5 -11 -5 -16l-16 -8q-9 -4 -14 4z" />
    <glyph glyph-name="oacute" unicode="&#xf3;" horiz-adv-x="526" 
d="M212 548l-15 8q-11 5 -6 16l73 154q5 11 16 5l46 -21q5 -3 6.5 -8.5t-1.5 -10.5l-104 -139q-6 -8 -15 -4zM262.5 506q104.5 0 179 -74.5t74.5 -179t-74 -178.5t-179 -74t-179 74t-74 178.5t74 179t178.5 74.5zM263 156q40 0 68.5 28.5t28.5 68.5t-28.5 68.5t-68.5 28.5
t-68.5 -28.5t-28.5 -69t28.5 -68.5t68.5 -28z" />
    <glyph glyph-name="ocircumflex" unicode="&#xf4;" horiz-adv-x="526" 
d="M170 548l-15 8q-11 5 -5 16l74 158q4 7 11 7h55q8 0 11 -7l75 -158q5 -11 -6 -16l-15 -8q-9 -4 -15 4l-77 104l-78 -104q-6 -8 -15 -4zM262.5 506q104.5 0 179 -74.5t74.5 -179t-74 -178.5t-179 -74t-179 74t-74 178.5t74 179t178.5 74.5zM263 156q40 0 68.5 28.5
t28.5 68.5t-28.5 68.5t-68.5 28.5t-68.5 -28.5t-28.5 -68.5t28.5 -68.5t68.5 -28.5z" />
    <glyph glyph-name="otilde" unicode="&#xf5;" horiz-adv-x="526" 
d="M262.5 506q104.5 0 179 -74.5t74.5 -179t-74 -178.5t-179 -74t-179 74t-74 179t74 179t178.5 74zM263 156q40 0 68.5 28.5t28.5 68.5t-28.5 68.5t-68.5 28.5t-68.5 -28.5t-28.5 -69t28.5 -68.5t68.5 -28zM159 594l-43 24q-5 3 -6 8t2 10q11 15 26 27q20 15 45 22
q16 4 29 5t25.5 -2t20 -6t20.5 -9q27 -12 46 -7q10 3 19 10q5 3 9 8q6 8 15 3l42 -24q5 -3 6.5 -8.5t-2.5 -9.5q-11 -15 -25 -27q-21 -16 -46 -22q-15 -4 -28 -5t-25.5 2t-20 5.5t-20.5 8.5q-28 13 -46 8q-11 -3 -20 -10q-4 -3 -8 -8q-7 -8 -15 -3z" />
    <glyph glyph-name="odieresis" unicode="&#xf6;" horiz-adv-x="526" 
d="M360 563q-32 0 -55 22.5t-23 55t23 55t55 22.5t55 -22.5t23 -55t-23 -55t-55 -22.5zM263 506q105 0 179 -74t74 -179t-74 -179t-179 -74t-179 74t-74 179t74 179t179 74zM263 156q40 0 68.5 28.5t28.5 68.5t-28.5 68.5t-68.5 28.5t-68.5 -28.5t-28.5 -68.5t28.5 -68.5
t68.5 -28.5zM165.5 563q-32.5 0 -55 22.5t-22.5 55t22.5 55t55 22.5t55 -22.5t22.5 -55t-22.5 -55t-55 -22.5z" />
    <glyph glyph-name="oslash" unicode="&#xf8;" horiz-adv-x="526" 
d="M198 180l56 170q-38 -4 -63 -31.5t-25 -65.5q0 -44 32 -73zM360 253q0 43 -33 72l-55 -169q37 3 62.5 31t25.5 66zM10 253q0 105 74 179t179 74q20 0 41 -4l1 4h65q6 0 9.5 -5t1.5 -11l-3 -12q62 -32 100 -92.5t38 -132.5q0 -105 -74 -179t-179 -74q-21 0 -41 3l-1 -3
h-65q-6 0 -10 5t-2 11l4 12q-62 31 -100 91.5t-38 133.5z" />
    <glyph glyph-name="ugrave" unicode="&#xf9;" horiz-adv-x="507" 
d="M180 691q-3 5 -1 11q1 5 6 8l46 21q11 6 16 -5l73 -154q5 -11 -6 -16l-15 -8q-9 -4 -15 4zM248.5 156q32.5 0 55 28.5t22.5 68.5v240q0 5 3.5 9t8.5 4h132q5 0 8.5 -4t3.5 -9v-481q0 -5 -3.5 -8.5t-8.5 -3.5h-95q-10 0 -12 9l-16 65q-57 -74 -138 -74q-80 0 -137 74
t-57 179v240q0 5 3.5 9t8.5 4h131q5 0 9 -4t4 -9v-240q0 -41 22.5 -69t55 -28z" />
    <glyph glyph-name="uacute" unicode="&#xfa;" horiz-adv-x="507" 
d="M316 691l-103 -139q-6 -8 -15 -4l-15 8q-11 5 -6 16l73 154q5 11 16 5l46 -21q5 -3 6.5 -8.5t-2.5 -10.5zM248.5 156q32.5 0 55 28.5t22.5 68.5v240q0 5 3.5 9t8.5 4h132q5 0 8.5 -4t3.5 -9v-481q0 -5 -3.5 -8.5t-8.5 -3.5h-95q-10 0 -12 9l-16 65q-57 -74 -138 -74
q-80 0 -137 74t-57 179v240q0 5 3.5 9t8.5 4h131q5 0 9 -4t4 -9v-240q0 -41 22.5 -69t55 -28z" />
    <glyph glyph-name="ucircumflex" unicode="&#xfb;" horiz-adv-x="507" 
d="M326 552l-78 104l-77 -104q-6 -8 -15 -4l-15 8q-11 5 -6 16l75 158q3 7 11 7h55q8 0 11 -7l75 -158q5 -11 -6 -16l-15 -8q-9 -4 -15 4zM248.5 156q32.5 0 55 28.5t22.5 68.5v240q0 5 3.5 9t8.5 4h132q5 0 8.5 -4t3.5 -9v-481q0 -5 -3.5 -8.5t-8.5 -3.5h-95q-10 0 -12 9
l-16 65q-57 -74 -138 -74q-80 0 -137 74t-57 179v240q0 5 3.5 9t8.5 4h131q5 0 9 -4t4 -9v-240q0 -41 22.5 -69t55 -28z" />
    <glyph glyph-name="udieresis" unicode="&#xfc;" horiz-adv-x="507" 
d="M73 640.5q0 32.5 23 55t55 22.5t55 -22.5t23 -55t-23 -55t-55 -22.5t-55 22.5t-23 55zM268 640.5q0 32.5 22.5 55t55 22.5t55 -22.5t22.5 -55t-22.5 -55t-55 -22.5t-55 22.5t-22.5 55zM248.5 156q32.5 0 55 28t22.5 69v240q0 5 3.5 9t8.5 4h132q5 0 8.5 -4t3.5 -9v-481
q0 -5 -3.5 -8.5t-8.5 -3.5h-95q-10 0 -12 9l-16 65q-57 -74 -138 -74q-80 0 -137 74t-57 179v240q0 5 3.5 9t8.5 4h131q5 0 9 -4t4 -9v-240q0 -41 22.5 -69t55 -28z" />
    <glyph glyph-name="OE" unicode="&#x152;" horiz-adv-x="1042" 
d="M1014 545h-299v-117h221q5 0 8.5 -3.5t3.5 -8.5v-132q0 -5 -3.5 -8.5t-8.5 -3.5h-221v-116h299q5 0 8.5 -3.5t3.5 -8.5v-132q0 -5 -3.5 -8.5t-8.5 -3.5h-442q-5 0 -9 3.5t-4 8.5v47q-88 -59 -194 -59q-95 0 -175.5 47t-127.5 127.5t-47 175.5t47 175.5t127.5 127.5
t175.5 47q106 0 194 -59v47q0 5 4 8.5t9 3.5h442q5 0 8.5 -3.5t3.5 -8.5v-131q0 -5 -3.5 -8.5t-8.5 -3.5zM365 156q81 0 137.5 57t56.5 137.5t-56.5 137.5t-137.5 57t-137.5 -57t-56.5 -137.5t56.5 -137.5t137.5 -57z" />
    <glyph glyph-name="oe" unicode="&#x153;" horiz-adv-x="876" 
d="M613 506q102 0 175 -71t77 -172q1 -10 -9 -12l-308 -70q27 -25 65 -25q49 0 78 39q7 9 16 3l114 -65q4 -3 5.5 -8t-1.5 -10q-34 -53 -90.5 -84t-121.5 -31q-102 0 -175 70q-74 -70 -175 -70q-105 0 -179 74t-74 178.5t74 179t179 74.5q101 0 175 -71q73 71 175 71z
M263 156q40 0 68.5 28.5t28.5 68.5t-28.5 68.5t-68.5 28.5t-68.5 -28.5t-28.5 -68.5t28.5 -68.5t68.5 -28.5zM516 253l184 42q-12 25 -35.5 40t-51.5 15q-40 0 -68.5 -28.5t-28.5 -68.5z" />
    </font>
</defs>
</svg>
