<?xml version="1.0" standalone="no"?>
<!DOCTYPE svg PUBLIC "-//W3C//DTD SVG 1.1//EN" "http://www.w3.org/Graphics/SVG/1.1/DTD/svg11.dtd" >
<svg xmlns="http://www.w3.org/2000/svg" xmlns:xlink="http://www.w3.org/1999/xlink" version="1.1">
<metadata>
Created by FontForge 20200306 at Thu Aug  5 17:23:43 2021
 By convertio
</metadata>
<defs>
<font id="BaysideCondensedDemo" horiz-adv-x="477" >
  <font-face 
    font-family="Bayside Condensed Demo"
    font-weight="400"
    font-stretch="normal"
    units-per-em="2048"
    panose-1="0 0 0 0 0 0 0 0 0 0"
    ascent="1638"
    descent="-410"
    bbox="0 -96 1434 1440"
    underline-thickness="0"
    underline-position="0"
    unicode-range="U+000A-25FC"
  />
<missing-glyph horiz-adv-x="748" 
d="M68 0v1365h544v-1365h-544zM136 68h408v1229h-408v-1229z" />
    <glyph glyph-name=".notdef" horiz-adv-x="748" 
d="M68 0v1365h544v-1365h-544zM136 68h408v1229h-408v-1229z" />
    <glyph glyph-name="glyph1" horiz-adv-x="0" 
 />
    <glyph glyph-name="glyph1" horiz-adv-x="0" 
 />
    <glyph glyph-name="glyph2" horiz-adv-x="682" 
 />
    <glyph glyph-name="uni000A" unicode="&#xa;" horiz-adv-x="0" 
 />
    <glyph glyph-name="uni000D" unicode="&#xd;" horiz-adv-x="0" 
 />
    <glyph glyph-name="space" unicode=" " horiz-adv-x="184" 
 />
    <glyph glyph-name="zero" unicode="0" 
d="M14 147v260v880q0 61 43 104t104 43h150q59 0 101.5 -42.5t42.5 -101.5v-1147q0 -59 -42 -101t-101 -42h-151q-61 0 -104 43t-43 104zM221 185q0 -6 4.5 -10.5t10.5 -4.5t10.5 4.5t4.5 10.5v1016v46q0 14 -13 16q-7 1 -12 -3.5t-5 -11.5v-1063z" />
    <glyph glyph-name="one" unicode="1" horiz-adv-x="339" 
d="M14 1162v125q0 61 42.5 104t103.5 43h20q59 0 101 -42t42 -101v-70v-45v-1176h-204v1162h-3h-102z" />
    <glyph glyph-name="two" unicode="2" 
d="M14 0v188q0 68 34 128l179 459q24 69 24 127v345q0 14 -13 16q-7 1 -12 -3.5t-5 -11.5v-398h-207v437q0 61 43 104t104 43h150q59 0 101.5 -42.5t42.5 -101.5v-441q0 -58 -24 -127l-212 -518h236v-204h-441z" />
    <glyph glyph-name="three" unicode="3" 
d="M14 147v459h207v-421q0 -7 5 -11.5t12 -3.5q13 2 13 16v449h-133v185h133v427q0 14 -13 16q-7 1 -12 -3.5t-5 -11.5v-398h-207v437q0 61 43 104t104 43h150q59 0 101.5 -42.5t42.5 -101.5v-441q0 -44 -24.5 -80t-64.5 -52q40 -16 64.5 -52.5t24.5 -80.5v-440
q0 -59 -42.5 -101.5t-101.5 -42.5h-150q-61 0 -104 43t-43 104z" />
    <glyph glyph-name="four" unicode="4" horiz-adv-x="442" 
d="M14 402v205l151 827h195v-827h67v-205h-67v-402h-204v402h-142zM118 607h38v291z" />
    <glyph glyph-name="five" unicode="5" horiz-adv-x="479" 
d="M14 143v340h204v-298q0 -6 4.5 -10.5t10.5 -4.5t10.5 4.5t4.5 10.5v449q0 7 -5 11.5t-12 3.5q-13 -2 -13 -16v-27h-204v681q0 61 43 104t104 43h150q59 0 101.5 -42.5t42.5 -101.5v-440h-208v398q0 6 -4.5 10.5t-10.5 4.5t-10.5 -4.5t-4.5 -10.5v-429h97q59 -2 100 -44.5
t41 -101.5v-526q0 -61 -43 -104t-104 -43h-150q-59 0 -101.5 42t-42.5 101z" />
    <glyph glyph-name="six" unicode="6" 
d="M14 143v432v86v626q0 61 43 104t104 43h150q59 0 101.5 -42.5t42.5 -101.5v-440h-208v398q0 6 -4.5 10.5t-10.5 4.5t-10.5 -4.5t-4.5 -10.5v-444h97q59 -2 100 -44.5t41 -101.5v-511q0 -61 -43 -104t-104 -43h-150q-59 0 -101.5 42t-42.5 101zM218 185q0 -6 4.5 -10.5
t10.5 -4.5t10.5 4.5t4.5 10.5v434q0 7 -5 11.5t-12 3.5q-13 -2 -13 -16v-433z" />
    <glyph glyph-name="seven" unicode="7" 
d="M14 850v441q0 59 42 101t101 42h152q60 0 103 -43t43 -103v-399q0 -38 -10 -85l-99 -567q-9 -42 -9 -86v-151h-204v151q0 44 9 86l99 567q10 47 10 86v340h-33v-380h-204z" />
    <glyph glyph-name="eight" unicode="8" 
d="M14 147v434q0 45 25 81.5t65 53.5q-40 16 -65 52t-25 81v441q0 59 42.5 101t101.5 42h150q61 0 104 -42.5t43 -103.5v-435q0 -45 -25 -81.5t-65 -53.5q40 -16 65 -52t25 -81v-441q0 -59 -42 -101t-101 -42h-151q-61 0 -104 43t-43 104zM218 828q0 -14 13 -16q7 -1 12 3.5
t5 11.5v421q0 6 -4.5 10.5t-10.5 4.5t-10.5 -4.5t-4.5 -10.5v-420zM221 185q0 -6 4.5 -10.5t10.5 -4.5t10.5 4.5t4.5 10.5v421q0 14 -13 16q-7 1 -12 -3.5t-5 -11.5v-422z" />
    <glyph glyph-name="nine" unicode="9" 
d="M14 144v462h208v-421q0 -6 4.5 -10.5t10.5 -4.5t10.5 4.5t4.5 10.5v466h-97q-59 2 -100 45t-41 102v489q0 61 43 104t104 43h151q59 0 101 -42.5t42 -101.5v-410v-85v-649q0 -61 -43 -103.5t-104 -42.5h-150q-59 0 -101.5 42.5t-42.5 101.5zM221 836q0 -7 5 -11.5
t12 -3.5q13 2 13 16v411q0 6 -4.5 10.5t-10.5 4.5t-10.5 -4.5t-4.5 -10.5v-412z" />
    <glyph glyph-name="B" unicode="B" 
d="M14 0v1433l1 1h293q61 0 104 -43t43 -104v-444q0 -54 -36 -95l-28 -31l27 -31q37 -42 37 -96v-443q0 -61 -43 -104t-104 -43h-293h-1zM218 185q0 -6 4.5 -10.5t10.5 -4.5t10.5 4.5t4.5 10.5v460h-30v-460zM218 789h30v459q0 7 -5 11.5t-12 3.5q-13 -2 -13 -16v-46v-412z
" />
    <glyph glyph-name="D" unicode="D" 
d="M14 0v590v844h297q59 0 101.5 -42.5t42.5 -101.5v-1147q0 -59 -42 -101t-101 -42h-298zM221 185q0 -6 4.5 -10.5t10.5 -4.5t10.5 4.5t4.5 10.5v1016v46q0 14 -13 16q-7 1 -12 -3.5t-5 -11.5v-1063z" />
    <glyph glyph-name="F" unicode="F" horiz-adv-x="370" 
d="M14 0v590v844h338v-171h-131v-474h131v-144h-131v-645h-207z" />
    <glyph glyph-name="G" unicode="G" 
d="M14 143v447v701q0 59 42 101t101 42h155q59 0 101 -42.5t42 -101.5v-350h-204v323h-30v-1093h30v475l-27 144h231v-82v-563q0 -59 -42.5 -101.5t-101.5 -42.5h-154q-59 0 -101 42t-42 101z" />
    <glyph glyph-name="H" unicode="H" 
d="M14 0v1434h204v-645h30v645h207v-1434h-207v645h-30v-645h-204z" />
    <glyph glyph-name="J" unicode="J" 
d="M14 144v465h204v-377v-46q0 -14 13 -16q7 -1 12 3.5t5 11.5v1248l1 1h206v-591v-696q0 -61 -43 -104t-104 -43h-150q-59 0 -101.5 42.5t-42.5 101.5z" />
    <glyph glyph-name="K" unicode="K" horiz-adv-x="475" 
d="M14 0v1433l1 1h203v-187v-46v-412h30v645h207v-591q0 -54 -36 -95l-28 -31l27 -31q37 -42 37 -96v-590h-206h-1v645h-30v-645h-203h-1z" />
    <glyph glyph-name="L" unicode="L" horiz-adv-x="370" 
d="M14 0v590v844h207v-1264h131v-170h-338z" />
    <glyph glyph-name="M" unicode="M" horiz-adv-x="712" 
d="M14 0v590v697q0 61 43 104t104 43h386q59 0 101 -42.5t42 -101.5v-1290h-204v1201v46q0 14 -13 16q-7 1 -12 -3.5t-5 -11.5v-1248h-206v590v663q-3 9 -12 10q-7 1 -12 -3.5t-5 -11.5v-1248h-207z" />
    <glyph glyph-name="P" unicode="P" 
d="M14 0v1433l1 1h296q59 0 101.5 -42.5t42.5 -101.5v-502q0 -52 -33.5 -92t-84.5 -49v-2h-119v-645h-203h-1zM218 789h30v474h-30v-16v-46v-412z" />
    <glyph glyph-name="Q" unicode="Q" 
d="M14 154v443v697q0 61 43 103.5t104 42.5h150q59 0 101.5 -42t42.5 -101v-1147q0 -59 -42 -101t-101 -42h-1l37 -103h-171v103h-16q-61 0 -104 43t-43 104zM221 192q0 -6 4.5 -10.5t10.5 -4.5t10.5 4.5t4.5 10.5v1062q0 14 -13 16q-7 1 -12 -3.5t-5 -11.5v-1063z" />
    <glyph glyph-name="R" unicode="R" 
d="M14 0v1433l1 1h293q61 0 104 -43t43 -104v-444q0 -54 -36 -95l-28 -31l27 -31q37 -42 37 -96v-590h-206h-1v645h-30v-645h-203h-1zM218 789h30v474h-30v-16v-46v-412z" />
    <glyph glyph-name="S" unicode="S" 
d="M14 144v465h1h203v-424q0 -7 5.5 -11.5t12.5 -3.5q12 2 12 16v406q0 17 -16 25l-134 62q-38 17 -61 52.5t-23 77.5v477q0 61 43.5 104.5t104.5 43.5h149q59 0 101.5 -42.5t42.5 -101.5v-465h-1h-203v423q0 7 -5 11.5t-12 3.5q-13 -2 -13 -16v-406q0 -19 16 -25l133 -61
q38 -17 61.5 -53t23.5 -78v-477q0 -61 -43 -104t-104 -43h-150q-59 0 -101.5 42.5t-42.5 101.5z" />
    <glyph glyph-name="T" unicode="T" horiz-adv-x="473" 
d="M14 1263v171h441v-171h-118v-1263h-204v1263h-119z" />
    <glyph glyph-name="V" unicode="V" horiz-adv-x="487" 
d="M25 1434h204l15 -847l15 847h206l-116 -1434h-206z" />
    <glyph glyph-name="W" unicode="W" horiz-adv-x="710" 
d="M14 144v1290h204v-1v-1201v-46q0 -14 13 -16q7 -1 12 3.5t5 11.5v1248l1 1h206v-591v-663q3 -9 11 -10q7 -1 12.5 3.5t5.5 11.5v1248v1h206v-591v-696q0 -61 -42.5 -104t-103.5 -43h-386q-59 0 -101.5 42.5t-42.5 101.5z" />
    <glyph glyph-name="X" unicode="X" horiz-adv-x="473" 
d="M14 0v590q0 54 37 96l28 31l-28 31q-37 42 -37 95v591h207v-645h29v645h206v-591q0 -54 -36 -95l-28 -31l28 -31q36 -41 36 -96v-590h-206v645h-29v-645h-207z" />
    <glyph glyph-name="Z" unicode="Z" horiz-adv-x="409" 
d="M14 143q0 10 7 54l158 1042q3 9 -2.5 16.5t-15.5 7.5h-147v171h233q59 0 101.5 -42.5t42.5 -101.5q0 -5 -7 -52l-157 -1042q-3 -10 2.5 -18t15.5 -8h146v-170h-233q-59 0 -101.5 42t-42.5 101z" />
    <glyph glyph-name="uni00A0" unicode="&#xa0;" horiz-adv-x="397" 
 />
    <glyph glyph-name="uni00AD" unicode="&#xad;" horiz-adv-x="0" 
 />
    <glyph glyph-name="Ccedilla" unicode="&#xc7;" horiz-adv-x="475" 
d="M14 147v443v697q0 61 43 104t104 43h150q59 0 101.5 -42.5t42.5 -101.5v-465h-204v376v46q0 14 -13 16q-7 1 -12 -3.5t-5 -11.5v-1063q0 -6 4.5 -10.5t10.5 -4.5t10.5 4.5t4.5 10.5v424h204v-466q0 -59 -42 -101t-101 -42h-151q-61 0 -104 43t-43 104z" />
    <glyph glyph-name="Ntilde" unicode="&#xd1;" 
d="M14 0v590v697q0 61 43 104t104 43h150q59 0 101.5 -42.5t42.5 -101.5v-1290h-204v1201v46q0 14 -13 16q-7 1 -12 -3.5t-5 -11.5v-1248h-207z" />
    <glyph glyph-name="adieresis" unicode="&#xe4;" 
d="M14 0v1287q0 61 42.5 104t103.5 43h149q61 0 103.5 -43t42.5 -104v-1287h-207v645h-30v-645h-204zM218 789h30v459q0 7 -5 11.5t-12 3.5q-13 -2 -13 -15v-47v-412z" />
    <glyph glyph-name="ecircumflex" unicode="&#xea;" horiz-adv-x="370" 
d="M14 0v590v844h338v-171h-131v-474h131v-144h-131v-475h131v-170h-338z" />
    <glyph glyph-name="icircumflex" unicode="&#xee;" horiz-adv-x="235" 
d="M14 0v1434h204v-1434h-204z" />
    <glyph glyph-name="odieresis" unicode="&#xf6;" 
d="M14 147v443v697q0 61 43 104t104 43h150q59 0 101.5 -42.5t42.5 -101.5v-1147q0 -59 -42 -101t-101 -42h-151q-61 0 -104 43t-43 104zM221 185q0 -6 4.5 -10.5t10.5 -4.5t10.5 4.5t4.5 10.5v1016v46q0 14 -13 16q-7 1 -12 -3.5t-5 -11.5v-1063z" />
    <glyph glyph-name="ucircumflex" unicode="&#xfb;" 
d="M14 144v1290h204v-1v-1201v-46q0 -14 13 -16q7 -1 12 3.5t5 11.5v1248l1 1h206v-591v-696q0 -61 -43 -104t-104 -43h-150q-59 0 -101.5 42.5t-42.5 101.5z" />
    <glyph glyph-name="ydieresis" unicode="&#xff;" 
d="M14 144v465h204v-377v-46q0 -14 13 -16q7 -1 12 3.5t5 11.5v460h-91q-59 0 -101 42t-42 101v646h207v-645h27v644l1 1h206v-591v-696q0 -61 -43 -104t-104 -43h-150q-59 0 -101.5 42.5t-42.5 101.5z" />
    <glyph glyph-name="uni2000" unicode="&#x2000;" horiz-adv-x="720" 
 />
    <glyph glyph-name="uni2001" unicode="&#x2001;" horiz-adv-x="1440" 
 />
    <glyph glyph-name="uni2002" unicode="&#x2002;" horiz-adv-x="720" 
 />
    <glyph glyph-name="uni2003" unicode="&#x2003;" horiz-adv-x="1440" 
 />
    <glyph glyph-name="uni2004" unicode="&#x2004;" horiz-adv-x="480" 
 />
    <glyph glyph-name="uni2005" unicode="&#x2005;" horiz-adv-x="360" 
 />
    <glyph glyph-name="uni2006" unicode="&#x2006;" horiz-adv-x="240" 
 />
    <glyph glyph-name="uni2007" unicode="&#x2007;" horiz-adv-x="240" 
 />
    <glyph glyph-name="uni2008" unicode="&#x2008;" horiz-adv-x="180" 
 />
    <glyph glyph-name="uni2009" unicode="&#x2009;" horiz-adv-x="288" 
 />
    <glyph glyph-name="uni200A" unicode="&#x200a;" horiz-adv-x="80" 
 />
    <glyph glyph-name="uni202F" unicode="&#x202f;" horiz-adv-x="288" 
 />
    <glyph glyph-name="uni205F" unicode="&#x205f;" horiz-adv-x="360" 
 />
    <glyph glyph-name="uni25FC" unicode="&#x25fc;" horiz-adv-x="1433" 
d="M0 0v1434h1434v-1434h-1434z" />
    </font>
</defs>
</svg>
