<svg xmlns="http://www.w3.org/2000/svg">
<defs>
<font id="HanleyPro-SlimBold" horiz-adv-x="911" >
  <font-face 
    font-family="Hanley Pro Slim Bold"
    font-weight="400"
    font-stretch="normal"
    units-per-em="2048"
    panose-1="0 0 5 0 0 0 0 0 0 0"
    ascent="2021"
    descent="-27"
    x-height="1534"
    cap-height="1536"
    bbox="-786 -844 4129 2372"
    underline-thickness="102"
    underline-position="-204"
    unicode-range="U+0020-2265"
  />
<missing-glyph horiz-adv-x="2355" 
d="M1245 1487h-8h-6h-8l-2 2l-4 6q-3 3 -3 6l-4 6l-4 6l-2 7l-4 6h-10v-8q0 -1 -1 -3.5t-1 -3.5v-8v-6v-6q0 -2 -2 -2h-6h-6h-7l-2 2v6l2 8v6v7v8v6v6v6v8v7v2v12l2 6v6v8l2 2h7q4 0 6 -2h6h8h6h6q5 0 7 -2q4 0 6 -2q4 0 6 -2l4 -4l4 -4l4 -6q0 -4 2 -6v-4q0 -9 -2 -11
q0 -4 -2 -6q0 -2 -4 -6q0 -2 -4 -6l-6 -4q0 -4 2 -6l4 -6q0 -5 2 -7l4 -6l2 -6l4 -4q0 -4 2 -6v-2zM1100 1481h-8q-2 2 -7 2l-6 4l-6 2l-4 6q-4 0 -4 4q-4 4 -4 6l-4 6q0 5 -2 7v6q-2 2 -2 6v8v6v6q0 4 2 6q0 5 2 7l2 6l4 6l4 4q4 4 6 4q4 4 6 4l6 2q5 0 7 2h6h6l6 -2l6 -2
l4 -2q4 -4 6 -4v-2v-2l-4 -4l-2 -4l-4 -4q0 -2 -2 -2q-4 4 -6 4q-2 2 -6 2h-6l-9 -2l-4 -2q-4 -4 -4 -6l-4 -7v-6v-6v-6v-6l2 -8l4 -4q0 -3 4 -7q3 -2 5 -4l6 -2h8l6 2l6 4q4 4 4 7h2h2l4 -5l5 -2l4 -4h2v-2l-4 -6l-5 -4q-4 -4 -6 -4q-4 -4 -6 -4l-6 -2l-6 -2h-6zM1352 1468
h-6l-7 2q-3 0 -6 3l-4 2v6v8l-2 8l-8 2l-6 2h-8q-1 1 -3.5 1t-3.5 1h-2l-2 -8l-4 -6l-4 -6l-2 -2q-4 0 -6 2h-6l-6 2q-2 0 -2 2l4 6q2 2 2 6l4 6l2 4l4 7l4 6q0 4 2 6l4 6q2 2 2 6l4 6q2 2 2 6l5 4l4 7q0 4 2 6l4 6q0 4 2 6l4 2l6 -2l6 -2h6l2 -2l2 -8v-6v-7l2 -6v-8l3 -6
v-6v-6l2 -8v-7l2 -6v-6v-8q2 -2 2 -6v-6q0 -5 2 -7v-2h-2zM1202 1546h6l6 2l7 6v7v6l-4 4l-7 2h-6h-6h-6h-2v-6v-6v-7v-6v-2h6h6zM963 1450l-5 2q0 4 -2 6q0 4 -2 6l-2 9v6q-2 2 -2 6q-2 2 -2 6l-2 6l-2 6l-2 8q-2 2 -2 7q-2 2 -2 6l-2 6q0 4 -2 6l-2 8l-2 6l2 2l6 2
q4 0 6 2q3 0 6 3q4 0 6 2h9q2 2 6 2h6h8q2 -2 6 -2l6 -5q3 0 7 -4l4 -4q4 -4 4 -6l4 -6l2 -6q2 -2 2 -6q2 -2 2 -6l2 -7v-8v-6l-2 -8l-2 -6l-4 -6l-4 -4l-4 -5q-4 -4 -7 -4l-6 -4l-6 -2l-8 -2l-6 -2q-4 0 -6 -2zM1395 1454l-6 2l-7 2l-4 2l-2 2l2 6l2 7l2 6l2 8l5 6l2 6l2 6

<glyph glyph-name=".notdef" horiz-adv-x="2355" 
d="M1245 1487h-8h-6h-8l-2 2l-4 6q-3 3 -3 6l-4 6l-4 6l-2 7l-4 6h-10v-8q0 -1 -1 -3.5t-1 -3.5v-8v-6v-6q0 -2 -2 -2h-6h-6h-7l-2 2v6l2 8v6v7v8v6v6v6v8v7v2v12l2 6v6v8l2 2h7q4 0 6 -2h6h8h6h6q5 0 7 -2q4 0 6 -2q4 0 6 -2l4 -4l4 -4l4 -6q0 -4 2 -6v-4q0 -9 -2 -11
q0 -4 -2 -6q0 -2 -4 -6q0 -2 -4 -6l-6 -4q0 -4 2 -6l4 -6q0 -5 2 -7l4 -6l2 -6l4 -4q0 -4 2 -6v-2zM1100 1481h-8q-2 2 -7 2l-6 4l-6 2l-4 6q-4 0 -4 4q-4 4 -4 6l-4 6q0 5 -2 7v6q-2 2 -2 6v8v6v6q0 4 2 6q0 5 2 7l2 6l4 6l4 4q4 4 6 4q4 4 6 4l6 2q5 0 7 2h6h6l6 -2l6 -2
l4 -2q4 -4 6 -4v-2v-2l-4 -4l-2 -4l-4 -4q0 -2 -2 -2q-4 4 -6 4q-2 2 -6 2h-6l-9 -2l-4 -2q-4 -4 -4 -6l-4 -7v-6v-6v-6v-6l2 -8l4 -4q0 -3 4 -7q3 -2 5 -4l6 -2h8l6 2l6 4q4 4 4 7h2h2l4 -5l5 -2l4 -4h2v-2l-4 -6l-5 -4q-4 -4 -6 -4q-4 -4 -6 -4l-6 -2l-6 -2h-6zM1352 1468
h-6l-7 2q-3 0 -6 3l-4 2v6v8l-2 8l-8 2l-6 2h-8q-1 1 -3.5 1t-3.5 1h-2l-2 -8l-4 -6l-4 -6l-2 -2q-4 0 -6 2h-6l-6 2q-2 0 -2 2l4 6q2 2 2 6l4 6l2 4l4 7l4 6q0 4 2 6l4 6q2 2 2 6l4 6q2 2 2 6l5 4l4 7q0 4 2 6l4 6q0 4 2 6l4 2l6 -2l6 -2h6l2 -2l2 -8v-6v-7l2 -6v-8l3 -6
v-6v-6l2 -8v-7l2 -6v-6v-8q2 -2 2 -6v-6q0 -5 2 -7v-2h-2zM1202 1546h6l6 2l7 6v7v6l-4 4l-7 2h-6h-6h-6h-2v-6v-6v-7v-6v-2h6h6zM963 1450l-5 2q0 4 -2 6q0 4 -2 6l-2 9v6q-2 2 -2 6q-2 2 -2 6l-2 6l-2 6l-2 8q-2 2 -2 7q-2 2 -2 6l-2 6q0 4 -2 6l-2 8l-2 6l2 2l6 2
q4 0 6 2q3 0 6 3q4 0 6 2h9q2 2 6 2h6h8q2 -2 6 -2l6 -5q3 0 7 -4l4 -4q4 -4 4 -6l4 -6l2 -6q2 -2 2 -6q2 -2 2 -6l2 -7v-8v-6l-2 -8l-2 -6l-4 -6l-4 -4l-4 -5q-4 -4 -7 -4l-6 -4l-6 -2l-8 -2l-6 -2q-4 0 -6 -2zM1395 1454l-6 2l-7 2l-4 2l-2 2l2 6l2 7l2 6l2 8l5 6l2 6l2 6
q0 4 2 6q0 5 2 7l2 6l2 6l2 8q2 2 2 6q2 2 2 6l4 7q0 2 2 2l6 -5l6 -2q5 0 7 -2q4 0 6 -2q4 0 6 -2q4 0 6 -2q4 0 6 -2l8 -2l6 -2v-2l-2 -6q0 -4 -2 -6l-2 -6h-2l-6 2l-6 2q-1 0 -3 1t-3 1q-2 2 -6 2l-6 2q-2 2 -7 2h-2q0 -4 -2 -6q0 -4 -2 -6q0 -5 -2 -7v-2q1 -1 3 -1t3 -1
q1 0 3.5 -1t3.5 -1l6 -2l6 -2q2 -2 6 -2v-2l-2 -8l-2 -8h-2q-4 0 -6 2l-6 2q-5 0 -7 2l-6 2l-6 2v-2q-2 -2 -2 -6l-4 -6l-2 -6l-2 -7l-2 -6l-2 -6h-2zM1325 1518v2v6v6l-2 6v6v6l-4 -6l-2 -4l-4 -6q-1 -1 -1 -3t-1 -3l-4 -6h2l4 -2h6q4 0 6 -2zM975 1477l8 2q2 2 6 2
q4 4 6 4q0 2 4 6l2 6v4v10l-2 7l-2 6l-4 6q0 2 -4 6l-6 4h-6q-3 3 -6 0h-8l-5 -2l-2 -2q2 -2 2 -6l3 -6l2 -6l2 -7l2 -8l2 -6q1 -1 1 -3t1 -3q0 -4 2 -6q0 -4 2 -6v-2zM856 1405q-2 2 -2 6l-4 6q0 1 -1 3t-1 3l-4 7l-2 6l-4 6l-2 6l-5 6l-2 6l-4 6l-2 7q-2 2 -2 6l-4 6
q-2 2 -2 6l-4 6l2 2l4 2l6 4l6 2h2l7 -4l6 -4l4 -4l6 -4l6 -4l6 -4l6 -4l5 -4l6 -5q1 0 3 -1t3 -1l-4 7l-2 6l-2 4l-4 6q-1 1 -1.5 3t-1.5 3l-4 6q0 4 -2 6l-4 7l-2 6v2l6 4l6 2l5 2h4l2 -6l4 -6l2 -7l4 -6q0 -4 2 -6l4 -6q0 -4 2 -6l4 -6l2 -6l2 -7l4 -6l3 -6l4 -6l2 -6
l4 -6l-2 -2l-4 -4q-5 0 -7 -2t-6 -2h-2l-6 4l-6 4l-6 4l-4 4l-6 2l-7 4l-6 4l-4 4l-6 4l-6 4l2 -6l4 -6q2 -2 2 -6l4 -6l2 -6l4 -6l2 -5l2 -6l5 -6l-3 -4l-4 -2l-6 -2l-6 -4zM1495 1409l-4 4q-4 0 -6 2v2l2 6l4 7l2 6l4 6l4 6q0 4 2 6l4 6l2 6l4 7q3 3 3 6l4 6q2 2 2 6l-4 4
q-5 0 -7 2l-4 2l-6 4v2l2 6l2 5l4 6h2l7 -4l6 -2l4 -3l6 -4l6 -2l6 -4q2 -2 6 -2l4 -4l7 -2l6 -4q2 -2 6 -2v-4l-2 -4l-2 -6l-4 -5l-2 -2l-6 5l-5 2l-6 2l-4 4h-2l-4 -6q0 -5 -2 -7l-4 -6q0 -4 -2 -6l-4 -6l-2 -6l-4 -6q-2 -2 -2 -6l-5 -7l-4 -6l-2 -6l-4 -6h-2q-2 2 -6 2z
M1602 1341l-7 5l-6 4l-4 4l-6 4l-6 4l-6 4l-4 4l-7 4l-6 4v2l4 6l5 5l4 6l4 6l4 4l4 6l4 6l4 4l4 7l4 6l4 4l4 6l5 6l4 4l4 6q0 2 2 0l6 -4l4 -4l6 -4l4 -2l6 -4l7 -4l4 -4l6 -4l6 -5v-4l-4 -4l-4 -4l-2 -4q0 -2 -4 -2l-4 4l-7 4l-4 4l-6 4l-4 5l-6 4h-2l-2 -7l-4 -4l-4 -4
v-2l6 -4l4 -2l6 -4l4 -4l6 -4v-2l-6 -6l-4 -9h-2l-6 4l-4 5l-6 4l-5 2l-4 4h-2l-4 -6l-4 -6l-4 -5v-2l6 -4l4 -4l6 -4l7 -4l4 -4l6 -4v-2l-4 -4q0 -4 -2 -6l-4 -5h-2zM764 1339h-2q0 5 -2 7l-2 8l-2 6l-2 6l-2 6q0 4 -2 6q0 4 -2 6q0 4 -3 7q0 4 -2 6l-2 8l-2 6l-2 6l-2 6
l-2 7q0 4 -2 6q0 4 -2 6l2 4l4 4l6 4l4 2l3 2q2 0 8 -6l4 -2l6 -6l6 -2l4 -4l6 -4l4 -4l7 -5l6 -4l4 -4l6 -4l6 -4l4 -4l6 -4l4 -4l7 -4v-2l-5 -5l-6 -4q-2 -2 -6 -2h-2l-6 4l-6 5l-6 4h-2l-4 -4l-7 -5l-6 -4l-6 -4v-2l2 -6l2 -8q2 -2 2 -6v-2l-6 -4l-4 -5zM768 1397l4 2
l4 4l4 2q2 2 0 2l-4 4l-4 4l-6 4l-4 4l-6 4v-2l2 -4l2 -6l2 -6l2 -6l2 -6h2zM688 1268l-6 6l-4 4l-4 4l-6 6l-4 4l-5 4l-6 7l-4 4l-4 4l-6 6l-4 4l-4 4l-6 6l-4 4l-5 4q-2 2 0 4l5 5l4 4l4 4h2l4 -4l6 -4l4 -7l4 -4l4 -4l4 -4h2l5 4l6 6l4 4l4 5l6 6l-6 4l-4 6l-4 4l-4 4
l-4 4l-5 4q-2 2 0 4l5 5l4 4l4 4h2l6 -4l4 -7l4 -4l6 -4l4 -6l4 -4l7 -4l4 -6l4 -4l6 -4l4 -7l4 -4l6 -6l4 -4l4 -4q2 -2 0 -4l-4 -4l-4 -4l-4 -4h-2l-6 6l-4 4l-4 4l-6 6l-4 4l-7 6l-6 -6l-4 -4l-4 -4l-6 -6l-4 -4v-2l6 -6l4 -4l4 -5l6 -4l4 -6l4 -4q2 -2 0 -4l-4 -4l-4 -4
l-4 -4h-2zM1683 1282h-6l-8 2l-6 2q-2 0 -6 4l-4 4q-2 0 -6 4l-5 5l-6 6l-4 4l-4 6v2l4 4l4 6l6 4l5 4l4 7l6 4l4 4l4 6l6 4l4 4l6 6l5 4l4 4l6 7l4 4h2l6 -4l4 -7l4 -4l6 -4q0 -2 4 -6l5 -4l4 -6q0 -6 2 -8q0 -5 2 -7v-6l-2 -8q0 -4 -2 -6q0 -4 -2 -6l-4 -6q0 -4 -5 -4
l-4 -7l-6 -4l-4 -4l-6 -4q-2 -2 -6 -2q-2 -2 -6 -2zM1679 1305h9q2 0 6 4q2 0 6 4l4 4l4 4q4 4 4 6l4 6v8q0 5 -2 7q0 2 -4 6l-4 4l-4 4h-2l-4 -4l-4 -4l-6 -6l-5 -5l-4 -4l-6 -6l-4 -4l-4 -4l-6 -6l6 -6l4 -4q2 -2 6 -2q2 -2 6 -2zM1157 1067l-219 115q-16 3 -16 26
q0 17 16 27l219 115q13 8 35 8t35 -8l219 -115q16 -10 16 -27q0 -23 -16 -26l-219 -115q-17 -10 -35 -10t-35 10zM1206 1157q4 0 6 2l7 2q0 4 4 4l4 6l2 7q0 4 2 6v6v6q-2 2 -2 6q-2 2 -2 6l-4 4l-4 5l-7 4l-6 2h-6h-8l-6 -4v2q0 4 2 6l2 4q4 4 6 4q2 2 6 2t6 -2q4 0 4 -4h2
l5 4q4 0 6 2l4 2v2v2l-4 4l-4 4l-7 4h-6q-2 2 -6 2t-6 -2h-6l-6 -4q-2 0 -6 -4l-4 -4l-3 -4l-4 -6q0 -4 -2 -6v-6l-2 -7v-6v-6v-6v-6q2 -2 2 -6l2 -6l2 -4l5 -7l4 -4l4 -4q4 0 6 -2q4 0 6 -2h6q4 0 6 2zM1290 1157h6h7h6h6l2 2v6v4v7l-2 2h-6h-6h-7h-6h-4h-2l6 6l4 4l4 4
q0 1 5 6l2 4q4 4 4 6q2 2 2 6q2 2 2 7v4v8l-2 6l-2 4l-4 4q-4 4 -7 4l-4 4h-6q-2 2 -6 2t-6 -2h-6l-4 -2q-4 -4 -6 -4l-3 -4l-4 -4l-4 -6l2 -2l4 -2q2 -2 7 -2l4 -4l2 2q0 4 4 4q0 4 4 4l6 2q4 0 4 -2q4 0 4 -4q2 -2 2 -6v-4l-4 -7q0 -2 -4 -6l-4 -4q0 -4 -4 -4q0 -2 -4 -6
l-4 -4l-4 -4q0 -4 -4 -4q0 -1 -5 -6l-4 -5v-4v-8l2 -2h7h6h6h6h6h6zM1094 1157h6l6 2q4 0 6 2q4 0 6 2q2 0 6 4l4 4l5 5l2 6q2 2 2 6q2 2 2 6v6v6v6v7q0 4 -2 6q0 4 -2 6l-2 6l-5 4l-6 6l-4 2q-2 2 -6 2q-2 2 -6 2l-6 2h-6h-7h-6h-6h-6l-2 -2v-6v-6v-6v-6v-6v-6v-7v-8v-6v-6
v-6v-6v-7v-6v-6l2 -2h6h6h6h7zM1094 1178h-7v6v6v6v6v6v9v6v6v6h7h6l6 -2l6 -2q0 -2 4 -6q0 -4 2 -6v-7l2 -6l-2 -6v-6l-2 -6l-4 -4q-4 -4 -6 -4l-6 -2h-6zM1786 1198h-6q-2 0 -6 4q-5 0 -5 4l-4 6v7l4 6q0 4 5 4q2 2 6 2q3 3 6 0q4 0 6 -2q4 0 4 -4l4 -6v-7l-4 -6
q0 -2 -4 -6zM582 1198l-7 2q-4 4 -4 6q-2 2 -2 6q-3 4 0 7q0 4 2 6q0 4 4 4q2 2 7 2q3 3 6 0q4 0 6 -2q2 0 6 -4l2 -6v-7l-2 -6q-4 -4 -6 -4q0 -4 -6 -4h-6zM1024 1196h6l4 4v6v6q-2 3 -4 5h-6h-6q0 -5 -4 -5v-6v-6q4 0 4 -4h6zM1354 1196h6q0 4 4 4v6v6q-4 0 -4 5h-6h-6
q0 -5 -5 -5v-6v-6q5 0 5 -4h6zM1192 1178l-4 4q-2 2 -2 6q-2 2 -2 6v2l4 4l6 2l4 2l6 -2l6 -6v-6q0 -6 -2 -6q0 -2 -4 -6q-2 -2 -6 -2t-6 2zM823 442l-14 -2q-47 0 -68 49q-6 11 -10 29v27q0 77 43.5 136t99.5 67q6 2 21 2q26 0 41 -15q8 -3 12 -10h2l4 16q6 18 25 21l39 6
h2q6 0 9.5 -4t2.5 -10q-36 -130 -53 -205v-6q0 -7 6 -13t14 -6q14 0 25 11q32 19 63 96q30 119 37 137q3 17 23 20l39 7h2q6 0 10 -5.5t2 -11.5v-2v-2q22 25 53 31h15q58 0 67 -62l2 -18q0 -16 -6 -37l-20 -90v-4q0 -19 20 -19q16 0 27 11q31 21 61 96v2q3 98 47 211v2
l-30 -6q-34 -5 -174 -14q-79 -4 -138 -11l-20 -4q-64 -9 -150 -33q-2 -2 -8 -2l-8 -2q-22 0 -25 17v2q0 14 23 30q27 17 100 31q48 6 74 6q93 7 154 7q134 3 192 12l25 4l4 4q49 115 100 123q2 2 6 2q14 0 24.5 -12.5t10.5 -30.5q0 -27 -22.5 -54.5t-63.5 -45.5l-2 -5
q-47 -171 -47 -247q0 -29 9.5 -46.5t23.5 -17.5q7 0 24 10q41 30 60 95q4 26 12 51q19 49 55.5 84.5t79.5 42.5q2 2 14 2q29 0 48 -15t24 -40v-11q0 -27 -16 -49q-22 -30 -56 -47.5t-90 -32.5l-2 -2q10 -64 80 -55q25 5 45 16q54 25 84 101l37 137q3 17 23 20l41 7h2
q6 0 10 -5t2 -10q-43 -145 -51 -190v-17q0 -24 18 -24q15 0 35 20q12 11 20.5 23.5t14 24t8 20t4.5 16.5l2 8l37 131q4 18 22 21l41 6q4 1 8.5 -2t4.5 -8q4 0 0 -4l-70 -256h2q40 15 49 24q38 28 74 111q3 10 12 10h2q16 0 19 -18v-4l-4 -17q-20 -47 -35.5 -72t-42.5 -47
q-29 -23 -90 -45l-2 -4q-21 -65 -39 -92q-29 -41 -86 -51h-17q-24 0 -41 10q-17 17 -20 37v8q0 52 82 92q2 2 0 2h-12q-53 0 -68 43q-53 -65 -133 -77q-6 -2 -27 -2q-72 0 -98 57q-42 -79 -100 -88q-65 -9 -90 57q-41 -77 -101 -86h-4q-2 -2 -16 -2q-61 0 -70 57v15
q0 16 2 22q0 2 3 15t8.5 35.5t11.5 46.5l4 24q0 21 -15 21q-30 0 -55.5 -37.5t-38.5 -89.5l-33 -121q-4 -18 -22 -21l-41 -6h-2q-5 0 -8.5 4.5t-3.5 10.5q-25 -22 -54 -25q-4 -2 -14 -2q-44 0 -66 31q-3 7 -10 0q-35 -47 -82 -56zM1591 1018l-2 4l-4 2q-12 0 -35 -63l2 -3
q19 11 30 29.5t9 30.5zM756 260q-100 0 -153 26.5t-60 86.5q-2 6 -2 26q0 35 12 82l22 84q0 2 -2 2l-147 -16l-2 -2q-32 -98 -75.5 -148.5t-112.5 -50.5q-43 0 -72 27.5t-29 68.5t27.5 73t68.5 38h7q15 0 18 -12v-2q0 -15 -16 -21q-25 -7 -39.5 -24t-14.5 -37
q0 -19 13.5 -33t33.5 -14q64 0 113 125l-2 2l-20 -2h-2q-16 0 -19 14v4q0 13 16 16l37 9l4 2q35 115 70 196q1 1 -2 4l-59 13q-52 10 -82 10q-54 0 -97 -25.5t-49 -66.5v-10q0 -25 15.5 -41.5t36.5 -16.5q32 0 45 29q7 11 16 14h2q13 0 16 -14q0 -8 -2 -10q-7 -28 -28 -43
t-49 -15q-32 0 -57.5 22t-31.5 58q-2 4 -2 19q0 64 51.5 109.5t131.5 45.5q27 0 59.5 -7.5t67 -19t39.5 -12.5h4q34 57 73 66h9q25 0 34 -19q9 -9 11 -20q4 -25 -17.5 -46.5t-56.5 -27.5l-25 -2q-4 0 -4 -2q-8 -18 -26 -102l-15 -70v-2l152 29l2 2l53 190q11 43 30.5 64.5
t55.5 25.5l2 2q5 0 8 -5t2 -11l-110 -412q-19 -68 -19 -92q0 -38 27 -55t92 -17q60 0 193 19l39 6q41 7 117.5 22.5t109.5 20.5q163 33 254 47q136 19 196 19q68 0 111 -15q61 -18 70 -57v-2q0 -17 -15 -17h-4q-11 0 -18 11q-8 13 -43 22q-6 2 -39 2q-52 0 -129 -12
l-232 -43l-301 -55q-7 -1 -59 -8q-165 -19 -227 -19zM512 819q11 1 19.5 6.5t10.5 11.5t-1 11q-4 4 -6 4q-7 0 -18 -10.5t-17 -22.5l2 -2q8 0 10 2zM1780 788q12 21 12 31q0 18 -20 15l-19 -7q-25 -11 -45 -35.5t-27 -54.5h2q66 15 97 51zM918 606q14 49 14 62q0 26 -27 26
t-51 -24q-41 -35 -53 -97q-4 -28 -4 -32q0 -39 24 -39q21 0 53.5 32t43.5 72zM1997 582q2 2 -2 2q-50 -16 -68 -35q-12 -12 -12 -27q0 -18 18 -18q43 0 64 78zM457 80q-8 2 -4 8q2 3 8 2q85 -29 203 -29q10 0 25 1t37 2t38 2q146 10 436 65l135 23q216 41 307 43l70 2
q130 0 215 -31q4 -1 5 -4.5t-1 -6t-6 -1.5q-76 28 -178 28q-53 0 -105 -6q-73 -5 -180 -28l-121 -25q-148 -31 -329 -59q-138 -21 -301 -21q-164 0 -254 35zM1870 -82h-8q-3 0 -7 4l-10 19q-16 21 -18 30l-15 21l-14 22l-10 17h-2v-11v-10v-20v-33q3 -18 12 -27q2 -2 0 -2
h-4l-20 2l-9 2l-12 2q-4 0 -4 3l2 4q10 7 10 18l2 25v10v29v18v10v23q-3 18 -12 30q-2 2 0 2h4l14 -2l21 -4q5 0 8 -6l10 -14l15 -23q3 -4 14.5 -23.5t15.5 -23.5l5 -8h2v10v47q0 15 -13 31q0 2 2 2h2q9 0 29 -4l14 -2h2q0 -4 -2 -4q-10 -13 -10 -31v-39v-69v-25l-2 -2
q-10 0 -12 2zM1657 -74h-4q-18 0 -33 11q-31 25 -31 73q0 40 23 70q21 24 47 24h4q33 0 49 -28q17 -31 17 -58q0 -18 -17 -57q-7 -14 -20 -22q-16 -13 -35 -13zM1503 -88l2 4q11 11 11 23l2 24v25v35q0 26 -2 34q0 16 -11 23q-2 2 0 2l4 2l19 2q4 0 6 2l18 2q9 0 11 2
q6 0 6 -2l-4 -4q-9 -12 -9 -23q-2 -6 -2 -24v-25v-34v-35q2 -13 13 -23q2 -2 0 -2l-4 -2l-23 -2l-20 -4q-9 0 -11 -2q-6 0 -6 2zM1403 -109h-6q0 3 4 7q8 11 8 22l2 25v18v14v27v19v12q0 6 -4 2q-10 0 -12 -2q-12 -4 -25 -17q-2 -2 -2 0l-2 5v18v6v8q0 4 6 4l19 2l28 7l31 6
l14 2l23 4q4 0 4 -2v-23v-10q0 -6 -2 -6l-4 2q-6 6 -17 6q-14 0 -18 -2l-2 -2v-23v-59v-33q0 -13 12 -22v-4h-4l-22 -4l-21 -4zM1677 -29q9 21 9 45t-9 45q-7 17 -18 17q-16 -3 -19 -17q-10 -23 -10 -49q0 -28 12 -49q7 -10 15 -10q11 4 20 18zM1294 -133h-14q-28 0 -41 22
q-14 17 -14 56q0 33 12 57q23 39 57 45h9q2 0 18 -4q2 -2 10 -2q9 0 12 10l5 4q2 0 2 -4v-22v-23v-8v-4l-7 -2q-6 0 -8 -2h-2l-2 2q-7 17 -14 22q-6 6 -14 6q-9 0 -19 -10q-20 -17 -20 -57q0 -46 26 -55h6q17 0 27 16q8 13 8 23l4 4h4q2 2 13 2q2 0 2 -4q0 -10 -8 -31
q-10 -17 -25 -29q-8 -8 -27 -12zM1081 -168l4 4q9 12 9 23q2 6 2 24v25v37v32q-3 17 -13 23v4h4l19 4h6q2 2 12 2q2 1 37 8l35 7h4h2v-2v-15v-18v-2v-2l-2 -2q-8 8 -20 8q-4 0 -13.5 -2t-13.5 -2q-2 -2 -10 -2q-2 -2 -6 -2l-4 -2v-7v-16v-14l2 -4l8 2l14 2l17 4h2v-2v-6v-9
v-8q0 -4 -2 -4h-5q-16 -4 -22 -4q-2 -2 -12 -2q-2 0 -2 -4v-27v-10l2 -2l24 2l21 6q5 0 20 12q1 1 2 3t2 2l2 -2l-2 -19l2 -10v-2v-6l-2 -4h-4l-18 -5l-19 -4q-2 0 -22 -4q-9 0 -11 -2h-4h-4l-18 -4h-2q-4 -2 -15 -2q-6 -3 -6 0zM942 -190l2 4q7 11 10 22v27v22v37v33
q0 13 -12 25l2 2h4q2 2 17 2l6 2l20 2q2 2 10 2h5l-2 -6q-9 -12 -9 -21q-2 -6 -2 -26v-25v-33v-31l2 -2q9 0 11 2h10l24 7q14 5 21 12l4 4l2 -4v-17v-12v-8l-2 -2l-2 -2l-21 -2l-18 -4q-17 0 -47 -6l-19 -4h-10h-6zM496 -160q-15 27 -15 60q0 35 15 53q21 30 57 24l12 -4
l15 -10q6 -6 10 -6q8 0 14 6q0 2 4 2l2 -4v-22v-23v-8l-2 -4h-6l-6 2h-4l-2 4q-3 15 -15 27q-9 9 -18 12h-4q-33 0 -33 -55q0 -20 8 -38.5t21 -25.5l10 -4h4q14 0 19 8q8 8 8 19q0 4 4 4l4 -2l12 -2q2 0 2 -5q0 -6 -4 -17l-4 -11q-12 -15 -24 -21q-4 -2 -17 -2q-46 0 -67 43
zM801 -205l2 4q6 4 10 23v24v25v35v35q0 13 -12 22l2 4h4q12 0 18 2h4l21 2h10h6l-4 -4q-8 -11 -8 -22q-2 -6 -2 -25v-24v-35v-29q0 -4 4 -4q2 2 8 2h10l25 4q15 3 21 12l4 2q2 0 2 -2v-16v-12v-8v-5h-4l-21 -2l-18 -2l-47 -4l-19 -2q-8 0 -10 -2q-6 0 -6 2zM672 -199
q-31 25 -31 76q0 38 23 68q19 22 47 22q12 0 14 -2q23 -6 39 -31q16 -29 16 -57q0 -26 -16 -55q-7 -15 -21 -23q-15 -12 -34 -12q-20 0 -37 14zM729 -168q8 19 8 45t-8 45q-7 17 -18 17q-13 0 -19 -13q-10 -27 -10 -51q0 -28 12 -49q7 -10 15 -10q10 0 20 16zM457 -274
q-4 3 -5 6t1.5 5t7.5 1q79 -31 203 -31q14 0 100 4q121 9 436 68q281 54 442 63q14 2 70 2q132 0 215 -30q4 -1 5 -4t-1 -5.5t-6 -1.5q-71 27 -178 27q-11 0 -105 -4q-92 -9 -301 -53q-164 -35 -329 -60q-131 -20 -301 -20q-166 0 -254 33z" />
    <glyph glyph-name=".null" horiz-adv-x="0" 
 />
    <glyph glyph-name="nonmarkingreturn" horiz-adv-x="682" 
 />
    <glyph glyph-name="space" unicode=" " horiz-adv-x="409" 
 />
    <glyph glyph-name="exclam" unicode="!" horiz-adv-x="604" 
d="M276 242h-12h-4q-19 0 -29 10q-11 8 -14 27v20l-2 215q0 132 -2 150v94l-2 47l-2 299l-2 74v84q0 106 -2 137v57v43q0 11 7 21.5t17 11.5q4 2 19 2l37 2l30 -2h31h16q13 0 24.5 -8.5t12.5 -24.5v-20v-150v-59v-150l-2 -288v-121l-2 -119q0 -138 2 -148v-77q3 -69 0 -84
q0 -43 -43 -43h-28h-25h-8h-17zM307 0h-39q-17 0 -30 8q-19 13 -19 37v29v24v8v29v4q0 22 14 33q8 8 25 8l51 2q39 0 49 -2q19 0 27 -8q14 -14 14 -33v-4v-29v-8q-1 -4 -1 -8.5t0.5 -9t0.5 -6.5v-29q-3 -31 -26 -41q-12 -4 -31 -4h-35z" />
    <glyph glyph-name="quotedbl" unicode="&#x22;" horiz-adv-x="712" 
d="M125 1286q-2 2 -2 10q0 15 10 25l14 14q18 25 31 56l6 24v2q0 10 -10 13q-33 6 -33 47v75v4q0 28 21 43q18 11 47 11h6l25 2l41 -2q14 0 26 -4q26 -10 29 -37q2 -8 2 -35q0 -67 -35 -139q-23 -44 -55 -76q-52 -52 -90 -55h-2q-11 0 -20.5 6t-10.5 16zM377 1286
q-2 2 -2 10t10 25l14 14q18 25 31 56l6 24v2q0 10 -10 13q-30 3 -33 47v75q0 31 23 47q18 11 45 11h8l23 2l40 -2q15 0 27 -4q26 -10 29 -37q2 -8 2 -35q0 -74 -35 -139q-23 -51 -55 -76q-53 -53 -88 -55h-2q-11 0 -21.5 6t-11.5 16z" />
    <glyph glyph-name="numbersign" unicode="#" horiz-adv-x="1351" 
d="M434 96h-28h-15h-6q-28 0 -41 13q-9 12 -6 30l57 307l4 25v2q0 12 -10 12h-14q-50 0 -66 -2h-41h-45q-4 -2 -20 -2q-19 0 -25 -2h-6h-8q-26 0 -35 15q-6 9 -6 20l2 16l14 56q4 12 4 14l2 6q3 14 9 23q9 20 32 20q51 2 232 2h2q13 0 16 15l35 170v2q0 4 -3.5 8t-8.5 4
q-39 0 -51 -2h-41h-45l-21 -2h-25h-6h-10q-24 0 -33 12q-6 6 -6 21q0 14 2 16q1 8 7 27.5t8 27.5l4 15l2 6q3 17 8 24q11 18 31 21h209q14 3 18 14v6l6 31l25 135l10 45l6 41q4 34 10 49l2 9q0 14 9 26q13 19 36 19q6 2 31 2h14q17 0 23 -2h6q20 0 29 -9q12 -9 12 -24
q0 -7 -6 -37l-2 -10l-4 -23l-6 -20l-6 -31l-3 -10l-2 -13l-34 -182v-2q0 -4 4 -8t8 -4h127l8 -2q13 0 16 14v6l7 31l24 135l10 45q1 9 5 24.5t4 16.5l8 49l2 9l8 26q13 19 37 19q6 2 31 2h16l23 -2h4q19 0 28 -9q13 -10 13 -24q0 -2 -7 -37q0 -8 -2 -10q0 -3 -4 -23
q-4 -16 -4 -20l-8 -31q0 -8 -2 -10q0 -11 -2 -13q-3 -14 -35 -184v-2q0 -4 3.5 -8t8.5 -4q62 0 80 2h17h18q4 -2 21 -2h10q4 2 24 2h15h4h4q23 0 31 -14q6 -10 6 -37l-13 -45l-6 -23l-2 -4q-6 -21 -10 -25q-10 -14 -27 -14h-16h-6h-6h-2h-17q-12 0 -16 2h-23h-6h-6h-47h-55
q-6 0 -11.5 -4t-5.5 -10q-4 -20 -4 -21l-12 -71q-2 -2 -2 -15l-4 -18q0 -1 -4 -29l-4 -24l-2 -2q0 -5 4 -9t8 -4h49h14h21h18h10h25h14h4h5q21 0 30 -12q12 -15 6 -37q-6 -27 -12 -47l-6 -20v-5l-10 -24q-11 -14 -29 -14h-22h-25l-45 2h-6h-43h-27q-13 0 -16 -15l-13 -59
l-14 -86q-3 -11 -10 -55l-10 -60l-6 -29q0 -3 -2 -13.5t-3 -16.5l-2 -8q-3 -30 -10 -37q-13 -19 -37 -19h-26h-27h-16h-4q-30 0 -43 13q-10 13 -7 30l58 307l6 31v2q0 5 -4 9t-8 4q-9 -3 -31 -3q-39 0 -53 -2h-13h-14h-16q-14 0 -17 -14l-10 -53l-16 -86l-9 -55l-12 -60
q0 -1 -4 -29l-4 -30l-2 -8l-10 -37q-13 -19 -37 -19h-27zM756 666q5 27 17.5 88.5t17.5 87.5l2 2q0 10 -13 10h-6h-53l-10 -2h-15h-22h-21h-6q-13 0 -16 -14l-2 -15l-13 -71q-2 -2 -2 -15l-4 -18l-6 -31l-2 -20l-2 -2q0 -5 4 -9t8 -4q74 0 97 -2h30q14 0 17 15z" />
    <glyph glyph-name="dollar" unicode="$" horiz-adv-x="778" 
d="M403 0h-24h-12h-5q-14 0 -26 4q-21 9 -21 35v111v2q0 15 -14 18q-109 35 -151 141q-7 12 -17 56q-6 34 -10 102v6v19q0 38 27 47q16 4 18 4h27h34q24 0 37 -13q15 -12 15 -36v-17q3 -102 28 -131q24 -31 76 -31t84 48q14 19 20 65v27q0 94 -51 168q-25 39 -96 110l-49 49
q-54 57 -78 90q-42 60 -53 93q-25 70 -25 137q0 78 33 145q25 52 92 94q22 16 41 19q14 8 14 18v29v61v5v10q0 18 2 22q9 27 37 27l25 2q12 0 14 -2h19h4q18 0 28 -10q11 -11 11 -29v-33v-12v-27v-24v-17q0 -15 12 -18q30 -8 49 -23q55 -36 80 -88q27 -52 35 -106
q4 -54 4 -57v-9q0 -12 -2 -14q-6 -25 -31 -31q-6 -2 -24 -2h-52q-40 0 -43 45l-2 25q0 4 -6 41q-14 50 -45 67q-14 7 -41 7q-33 0 -53 -13q-45 -34 -45 -110q0 -51 28 -93.5t97 -111.5l24 -27l27 -28q90 -90 125 -146q61 -110 61 -233q0 -35 -6 -70q-11 -66 -44.5 -118.5
t-82.5 -78.5q-18 -10 -47 -20q-12 -3 -12 -16v-7v-34v-37v-10l2 -13q0 -8 -4 -28q-6 -25 -35 -25h-23z" />
    <glyph glyph-name="percent" unicode="%" horiz-adv-x="1288" 
d="M246 889q-41 23 -66 63q-57 86 -57 250q0 102 20 170t82 119q48 39 127 39q30 0 54 -6q63 -15 106 -82q37 -55 49 -131q10 -92 8 -142v-4q0 -9 -6 -84q-9 -62 -31 -108q-27 -61 -73 -88q-53 -27 -103 -27q-59 0 -110 31zM414 4h-49q-23 0 -33 10q-2 3 -3 7t-0.5 7t1.5 6
v3l121 360q96 295 155 467q6 19 36 103.5t50 148.5l13 37q44 127 53 162l18 53l17 49l20 60q1 1 2 5t2 5q9 36 39 39h31h14h29q15 0 20 -8q6 -6 6 -13q0 -5 -12 -43l-4 -14l-49 -143q-54 -150 -72 -211l-43 -131q-72 -231 -129 -400l-31 -92l-30 -92q-6 -22 -19 -59t-16 -48
l-21 -65l-24 -72l-19 -61q-13 -42 -25.5 -56t-33.5 -14h-14zM358 989q40 0 58 33q20 32 26 82q4 46 4 47v20q5 54 -4 109q-10 47 -28 82q-21 41 -64 41q-38 0 -59 -27q-23 -27 -31.5 -62t-13.5 -100q-4 -115 33 -180l22 -28q29 -19 51 -19q4 0 6 2zM842 31q-45 30 -66 63
q-57 90 -57 252q0 101 20 168.5t82 118.5q48 39 127 39q29 0 53 -6q64 -15 107 -82q37 -55 49 -131q10 -92 8 -142v-4q0 -9 -6 -84q-9 -62 -31 -108q-27 -61 -73 -88q-52 -27 -103 -27q-59 0 -110 31zM948 131h6q40 0 58 33q20 39 26 82q4 46 4 49q0 14 2 18q3 62 -6 109
q-10 56 -28 82q-21 41 -64 41q-34 0 -59 -25q-42 -49 -45 -164q-5 -42 2.5 -94.5t29.5 -85.5l23 -29q22 -16 51 -16z" />
    <glyph glyph-name="ampersand" unicode="&#x26;" horiz-adv-x="1140" 
d="M524 -20h-4q-80 0 -164 40q-110 57 -171.5 176t-61.5 277q0 166 80 293q15 24 53 65q30 30 61 50q5 5 5 10t-5 6l-4 4q-33 27 -49 45q-49 58 -71 131q-15 55 -15 121q0 80 29 156q53 132 180 178q68 22 131 22q23 0 29 -2q179 -12 268 -176q22 -42 31 -73l2 -13
q0 -19 -21 -28l-67 -17q-40 -9 -41 -10h-10q-24 0 -33 25q-18 64 -58 98q-36 33 -102 33q-37 0 -76 -17q-88 -50 -88 -168q0 -95 64 -159q35 -35 67 -54q33 -17 80 -28q37 -9 37 -45v-13q0 -47 -2 -61q0 -26 -10 -39q-7 -7 -31 -14l-22 -7q-57 -17 -74 -28q-32 -16 -53 -37
q-51 -41 -76 -107q-29 -69 -29 -153q0 -120 57 -213q59 -92 172 -92h5q132 0 172 112q16 50 16 94q0 51 -18 78q-15 21 -41 21l-11 -2q-28 -9 -43 -33q-9 -20 -34 -20q-14 0 -23 6q-3 2 -19.5 11.5t-21.5 14.5l-8 4l-27 19l-3 2q-2 2 -4.5 4t-5 6t-4 9.5t-1.5 11.5
q0 18 33 57q50 67 90 96q33 26 57 43l82 66q84 75 108 207q7 27 17 98q0 23 22 29q4 4 21 4h67h15q24 0 35 -11q10 -13 10 -26q0 -32 -10 -84q-20 -151 -78 -242q-3 -5 -45 -59l-45 -43q-17 -17 -31 -27l-2 -2q-11 -4 2 -16l2 -2q66 -51 84 -136q6 -34 6 -75q0 -37 -6 -84
q-12 -81 -66 -166q-44 -66 -125 -103.5t-180 -37.5z" />
    <glyph glyph-name="quotesingle" unicode="'" horiz-adv-x="460" 
d="M125 1286q-2 2 -2 10q0 15 10 25l14 14q18 25 31 56l6 24v2q0 10 -10 13q-33 6 -33 47v51q0 36 4.5 49.5t16.5 21.5q18 11 47 11h6l25 2l41 -2q14 0 26 -4q26 -10 29 -37q2 -8 2 -35q0 -67 -35 -139q-23 -44 -55 -76q-52 -52 -90 -55h-2q-11 0 -20.5 6t-10.5 16z" />
    <glyph glyph-name="parenleft" unicode="(" horiz-adv-x="653" 
d="M381 -37q-96 133 -156 279q-59 148 -86 301q-16 115 -16 209q0 206 59 407q39 121 84 217q16 36 58 105l2 4l39 59l6 10q23 33 45 33q16 0 24 -8l41 -29l19 -12q0 -2 2 -2q16 -11 20 -29q2 -2 2 -8q0 -9 -8 -22l-16 -25l-4 -6t-3.5 -5t-2.5 -3t-1 -2l-8 -11l-8 -14
q-25 -32 -35 -55l-8 -15l-4 -10q-62 -111 -90 -227q-17 -63 -27 -109l-8 -49l-6 -76q-4 -70 -4 -79q0 -29 2 -37v-11q0 -17 4 -71q8 -94 33 -197q27 -106 63 -190q29 -59 66 -127l35 -52l6 -12l10 -12q16 -29 18 -35l2 -8q0 -15 -18 -33l-47 -35l-12 -10l-7 -2
q-17 -14 -32 -14q-21 0 -33 18z" />
    <glyph glyph-name="parenright" unicode=")" horiz-adv-x="647" 
d="M215 -47l-47 33l-14 10l-4 4q-20 16 -21 20q-6 6 -6 19q0 11 8 24q163 231 207 510q16 115 16 205q0 175 -47 336q-27 103 -74 189l-8 14q-30 61 -43 80q-10 16 -30 49l-5 4l-6 10q-10 12 -14 29l-2 8q0 21 18 33q13 13 39 31l19 12l2 2q18 12 30 12h5q5 -1 9.5 -2.5
t7.5 -4t5 -4.5l4 -4l2 -3q11 -14 29 -41l2 -4q4 -5 8.5 -15t7.5 -14l37 -63l4 -9l11 -18q67 -132 102 -258q23 -83 29 -121l10 -55q4 -23 10 -86q6 -53 6 -99q2 -10 2 -41q0 -8 -4 -86q-5 -91 -35 -223q-31 -124 -71 -217q-36 -83 -72 -145l-4 -8l-39 -68l-4 -4l-23 -31
q-12 -18 -32 -18q-14 0 -25 8z" />
    <glyph glyph-name="asterisk" unicode="*" horiz-adv-x="739" 
d="M612 1186l-24 -35l-8 -12l-19 -27l-8 -10l-4 -4q-13 -7 -23 0l-4 4l-10 6l-6 4l-17 10q-4 4 -6 4q-9 9 -30 21q-1 3 -4 2.5t-6 -3t-3 -5.5v-8l2 -78q0 -9 -6 -15q-8 -8 -16 -8h-43h-15h-16h-16q-11 0 -13 2q-18 3 -18 19v8v10v6q-2 6 -2 21v6v39q0 4 -5.5 5t-6.5 -1
l-11 -6l-59 -43q-2 -1 -5 -2l-4.5 -1.5t-2.5 -0.5q-12 0 -19 10l-24 35l-8 12l-19 25q-6 9 -6 12q-2 2 -2 10q0 10 6 16l10 7l4 4l7 4l16 12l6 4l55 41q5 4 5 10t-5 7l-20 16l-43 29l-19 12l-6 2q-15 12 -18 22v5q0 6 6 18l18 27l17 20l2 4q19 31 31 35q2 2 8 2q5 0 22 -10
l9 -6l12 -9l8 -6l29 -20q12 -4 12 6v43l-2 20v7v6q0 14 8 22t21 8h14h18h27h4h12q26 0 35 -6q10 -10 10 -28v-11v-16v-10v-37q0 -4 4.5 -6t6.5 0l34 26l19 13l4 4q17 10 23 10q16 0 22 -14l18 -27l17 -20l2 -2q22 -36 22 -43q0 -16 -18 -25l-8 -6l-15 -10l-8 -5
q-32 -23 -41 -28l-20 -15q-8 -8 0 -16q19 -11 41 -27l61 -40q4 -2 8 -15q0 -12 -4 -16z" />
    <glyph glyph-name="plus" unicode="+" horiz-adv-x="784" 
d="M662 760v-31v-16q-3 -22 -27 -25h-6h-2h-39h-4l-101 -2q-14 0 -14 -14q2 -6 2 -23v-43l2 -78q0 -12 -8 -20q-10 -10 -23 -10h-43h-14h-14h-19q-12 0 -14 2q-22 3 -25 26v11v12v22v4l-2 97q0 6 -4.5 10t-9.5 4q-41 0 -51 2h-10l-41 -2h-23h-4h-8q-37 0 -37 37v31v26v4v15
q0 28 6 37q8 14 31 14h6h10h17h10h51h43q14 0 14 12v51q1 10 1 20t-0.5 20t-0.5 14v20q-2 2 -2 6v6q0 17 10 27t27 10h14h19h27h4h14q28 0 37 -6q14 -8 14 -37v-10v-14v-11l-2 -51v-47q0 -14 14 -14h23l45 2h76q13 0 22 -9t9 -22v-43v-14z" />
    <glyph glyph-name="comma" unicode="," horiz-adv-x="460" 
d="M125 -135q-2 2 -2 10q0 15 10 25l14 14q19 26 31 55l6 23v4q0 9 -10 12q-33 4 -33 45v78v4q0 28 21 43q17 10 47 10h6h25h41l26 -4q26 -13 29 -37q2 -8 2 -34q0 -75 -35 -140q-18 -37 -55 -77q-51 -51 -90 -54h-2q-11 0 -20.5 6.5t-10.5 16.5z" />
    <glyph glyph-name="hyphen" unicode="-" horiz-adv-x="784" 
d="M356 682h-110q-2 2 -13 2l-38 -2h-23h-4h-8q-37 0 -37 37v31v26v4v15q0 24 6 36q9 15 31 15h6h10h17h10h51l344 -2h33q13 0 22 -9t9 -22v-43v-14v-31v-16q-1 -6 -3.5 -10.5t-7 -7t-7.5 -4.5t-9 -2.5t-8.5 -0.5h-9h-7.5l-176 -2h-57h-21z" />
    <glyph glyph-name="period" unicode="." horiz-adv-x="430" 
d="M213 0h-41q-18 0 -31 8q-15 9 -18 37v31v24v9v30v4q0 19 14 33q12 12 78 12l51 -2q17 0 27 -10q14 -11 14 -33v-4v-30v-9v-24v-31q0 -27 -26 -41q-12 -4 -31 -4h-37z" />
    <glyph glyph-name="slash" unicode="/" horiz-adv-x="913" 
d="M229 -10h-61q-23 0 -35 12q-10 17 -10 29l4 20l487 1452q6 22 23 35q17 10 39 10h72q25 0 36 -14q7 -14 7 -25q0 -12 -3 -18l-137 -391q-250 -724 -360 -1065q0 -2 -3 -8.5t-9.5 -15.5t-14.5 -13q-13 -8 -35 -8z" />
    <glyph glyph-name="zero" unicode="0" horiz-adv-x="946" 
d="M358 -6q-121 35 -202 196q-64 130 -88 308q-17 150 -17 260v65l2 8q0 109 10 197q15 147 54 250q55 147 141 209q91 67 199 67q112 0 209 -75q79 -60 125 -154q58 -109 81 -248.5t23 -331.5v-77q-3 -396 -188 -592q-90 -96 -244 -96q-59 0 -105 14zM602 215
q62 82 85.5 192.5t31.5 299.5q2 12 2 63q0 134 -22 264.5t-66 218.5q-29 56 -55 82q-52 49 -121 49h-13q-44 -5 -80.5 -30t-56.5 -66q-49 -101 -67 -246q-9 -72 -11 -147q0 -45 -2 -57q-2 -23 -2 -103q0 -108 17 -227q20 -136 69 -250q61 -117 154 -117q39 0 76.5 19.5
t60.5 54.5z" />
    <glyph glyph-name="one" unicode="1" horiz-adv-x="655" 
d="M360 20q-6 10 -6 52l2 32v50v30v156v176v135l2 168q2 39 2 180v131l-2 64q0 2 -2 2.5t-4 -0.5q-2 0 -2 -2l-24 -39q-2 -3 -8.5 -16t-14.5 -23l-6 -10q-10 -13 -13.5 -17t-11.5 -9.5t-16 -6.5h-16h-21h-4h-18h-25h-4h-8h-2q-11 0 -23 4q-16 10 -16 29q0 9 6 24l6 11l4 6
q1 3 17 31l6 14l43 74q95 160 98 166l12 20q22 40 41 64q15 15 29 18h16h2h39h39l12 2h5q11 0 20 -6q12 -9 18 -29v-14v-4v-33v-20v-62v-14l3 -461q2 -47 2 -213q0 -70 -2.5 -202t-2.5 -193l3 -127v-66q0 -14 2 -16v-21l-2 -24q-6 -28 -37 -31h-17h-20h-21h-8h-4h-18
q-41 0 -50 20z" />
    <glyph glyph-name="two" unicode="2" horiz-adv-x="960" 
d="M174 0h-22q-25 3 -31 29q-2 4 -2 22v6q0 6 0.5 18t1.5 34.5t2 40.5q0 9 4 71q11 83 29 144q35 106 96 188q78 103 170 203l47 51q85 98 94 111q48 67 74 143q18 55 18 115q0 181 -137 202q-4 2 -24 2q-35 0 -68.5 -13.5t-50.5 -33.5q-40 -47 -43 -184q0 -17 -2 -21
q0 -26 -13 -36q-11 -11 -36 -11h-5h-20h-23h-18h-14q-6 0 -11.5 0.5t-8 1t-3.5 0.5q-22 9 -22 43v25q3 78 14 141q7 45 20 72q31 76 97.5 126t152.5 60q24 4 58 4q103 0 172 -38q63 -35 107 -101t57 -147q8 -55 8 -90l-2 -50q0 -6 -13 -79q-19 -81 -51 -138
q-25 -52 -119 -166q-49 -59 -92 -96l-53 -57q-97 -100 -145 -182q-37 -56 -48 -129q-10 -58 -10 -97q-1 -6 3.5 -10t9.5 -4h10h49h78l63 -2l113 2l131 2h10q24 0 35 -8q14 -11 14 -39v-16v-54l2 -10v-4q0 -19 -10 -29q-12 -12 -33 -12h-67l-68 2h-16q-10 -2 -51 -2h-60h-65
h-58h-22h-115h-45h-22h-21z" />
    <glyph glyph-name="three" unicode="3" horiz-adv-x="1007" 
d="M150 207q-19 59 -21 84q-8 44 -8 74l-2 4q0 18 2 24q6 27 39 27h2h12h10h19h24h17h4h10h6q27 0 37 -23q2 -6 2 -22v-2q3 -48 21 -97q21 -57 65 -96q41 -30 96 -30q90 0 146 59q41 43 62.5 110t21.5 140q0 82 -31 155q-28 67 -74 107q-25 22 -55 37q-47 21 -74 28l-22 7
q-24 7 -31 14q-10 10 -10 35v2v14v21v16v10v4q0 40 31 52q12 6 32 10q2 1 24 9t30 13q32 18 65 51q31 32 48.5 75t17.5 85q0 60 -24 104t-67 64q-39 17 -75 17q-64 0 -103 -33q-60 -54 -69 -185v-14v-12l-2 -4q0 -17 -7 -27q-12 -18 -38 -18h-5h-22h-27h-8h-8q-23 0 -29 2
q-13 0 -24 10t-11 31l3 43q13 125 53 192q88 166 274 178q6 2 29 2q59 0 127 -22q131 -48 178 -176q29 -85 29 -158q0 -50 -17 -123q-18 -73 -71 -129q-25 -29 -50 -47l-2 -2q-4 -1 -4 -6t4 -10q24 -16 60 -52q31 -27 53 -65q76 -113 76 -285q0 -147 -53 -268
q-59 -128 -174 -191q-84 -40 -164 -40h-6q-125 0 -213 55q-92 59 -129 172z" />
    <glyph glyph-name="four" unicode="4" horiz-adv-x="1034" 
d="M719 0h-10h-15h-24h-15h-30h-4q-12 0 -29 10q-8 8 -8 25v28v11v16v21v6q3 43 0 86v53v57q2 18 2 76v31q-3 14 -17 14h-10h-22h-15h-57h-39h-39h-45q-35 2 -135 2h-35h-4q-29 0 -41 15q-8 8 -8 36v41v37q0 15 2 19q3 10 12 26l2 6l19 29l10 19l57 104l96 180l41 80l48 94
q107 204 167 338l5 8l18 43l2 3q2 3 4.5 5.5l6 6t8.5 5.5t10 3h6h26h25h18h15h4q21 0 31 -10t10 -29l2 -217l2 -119l2 -246v-92v-69v-129v-2q0 -15 14 -15h15h26h41q36 0 45 -24q4 -12 4 -25v-4v-8l2 -15l-2 -45q0 -46 -34 -49q-4 -2 -15 -2h-8h-4q-35 0 -45 2h-25
q-14 0 -14 -14v-55v-7q2 -43 2 -196v-76v-45v-2l-2 -12q-6 -29 -39 -29h-2h-8zM455 606h37h36h25h12q6 0 11.5 4.5t5.5 10.5l2 161l-2 80l2 70l2 69q0 46 -2 60q0 2 -2 2.5t-4 -0.5l-17 -33q-6 -12 -14 -27t-13 -24.5t-8 -15.5l-18 -33l-43 -80l-41 -76l-74 -135l-10 -18
q-2 -5 1 -9t7 -4h6l43 -2h35h23z" />
    <glyph glyph-name="five" unicode="5" horiz-adv-x="974" 
d="M375 -14q-133 22 -199 133q-33 57 -41 108q-16 82 -16 131v13v6q0 16 2 22q13 23 35 23q102 0 112 -2q29 -6 29 -37v-16v-13q3 -74 29 -131q20 -42 73 -63q30 -10 56 -10l20 2q44 2 86.5 31.5t67.5 76.5q33 64 41 125q8 44 8 123q0 124 -35 180q-15 27 -37 49
q-40 40 -97.5 53t-154.5 13h-12h-49h-60h-10q-2 -2 -12 -2q-8 0 -10 2q-27 0 -35 14q-8 8 -8 25q-2 8 -2 35v14v10v57v39v78q2 23 2 94l-2 203v23v45v26q0 35 6 45q9 18 28 21h41l60 2h59h105h102h2h80h27h51h39h6h14q22 0 31 -18q4 -12 4 -23v-2v-8v-13l2 -43v-16l-2 -20
q-10 -23 -31 -23q-8 -2 -32 -2h-9h-82h-24h-35h-2h-64h-61h-22h-76h-19q-14 0 -14 -14v-25v-47v-113v-61q0 -80 -2 -107v-4v-2q0 -6 4.5 -10t9.5 -4h6q5 0 107 -4q93 -3 162 -35q59 -24 112 -80q78 -81 105 -213q12 -65 12 -147q0 -184 -65 -314q-39 -73 -97 -125
q-90 -78 -231 -81h-12q-39 0 -76 6z" />
    <glyph glyph-name="six" unicode="6" horiz-adv-x="1042" 
d="M416 0q-114 38 -176 139q-55 83 -78 180q-43 191 -43 463v84q5 192 46 338.5t140 251.5q44 47 108 72.5t134 25.5q48 0 104 -16q90 -28 154 -115q40 -57 63 -120q14 -47 19 -76l4 -10q1 -4 1 -10t1 -9l4 -20q2 -4 2 -17q0 -26 -20 -35q-19 -8 -41 -10q-2 -2 -11 -2
q-23 -3 -26 -6l-17 -2q-4 0 -6 -2h-10q-28 0 -37 35l-8 32l-6 27q-5 25 -21 66q-24 71 -69 100q-36 22 -78 22q-87 0 -137 -69q-61 -82 -85 -192t-32 -294q-2 -10 -2 -49q0 -7 10 -4q90 96 234 105h24q124 0 211 -74q63 -54 103 -136t47 -175q2 -14 2 -60q0 -141 -56 -256
q-49 -101 -141 -157q-77 -45 -184 -45q-74 0 -127 20zM547 150h8q52 1 95.5 35t64.5 83q35 78 35 174q0 75 -23.5 138t-64.5 100q-41 35 -103 35q-50 0 -102 -25q-63 -33 -92 -101t-29 -151q0 -162 84 -243q45 -45 127 -45z" />
    <glyph glyph-name="seven" unicode="7" horiz-adv-x="952" 
d="M827 1346q-7 -53 -61 -183l-12 -28q-45 -105 -95 -205q-38 -76 -47 -92l-51 -105q-85 -177 -119 -280q-38 -103 -53 -230q-9 -106 -12 -180v-6q0 -19 -6 -25q-9 -12 -31 -12h-12h-29h-16h-23h-6h-8h-10h-7q-18 0 -26 8q-10 10 -10 27v14v4l2 17v12q9 172 47 319
q52 197 147 387l41 82q144 292 154 316q36 84 51 164v2q0 12 -12 12h-19h-6q-49 0 -61 -2h-64h-33q-18 2 -86 2h-45h-22h-19h-55h-43h-2h-6q-23 0 -33 10.5t-10 24.5v43v24q3 40 8 47q10 16 31 19q6 2 43 2h63h68h112h113h2h88h29h57h43q4 0 6 2q13 0 15 -2q22 0 32 -16
q5 -10 5 -19v-4q0 -102 -7 -149z" />
    <glyph glyph-name="eight" unicode="8" horiz-adv-x="1044" 
d="M262 76q-69 61 -106 155t-37 207q0 147 61 269l15 26q18 37 57 82q13 21 33 37q8 11 -2 18l-33 35q-30 39 -51 84q-41 93 -41 187q0 5 4 55q9 93 74 182t174 127q46 14 98 14q18 0 24 -2q148 -9 236 -110q102 -114 102 -271q0 -169 -122 -288q-3 -2 -5 -4q-9 -9 0 -19
l17 -16q48 -48 90 -121q76 -134 76 -291q0 -80 -25 -160q-26 -84 -84 -155q-51 -63 -132 -100t-171 -37q-142 0 -252 96zM631 999q45 50 57 129q6 24 6 54q0 59 -20 100q-25 69 -92 96q-24 10 -41 13q-32 4 -33 4q-44 0 -84 -27q-35 -26 -59.5 -65t-30.5 -78q-4 -50 -4 -51
q0 -57 22 -115q31 -77 94 -103q33 -10 58 -10q77 0 127 53zM668 215q80 99 80 246q0 36 -11 86q-15 66 -53 119q-68 102 -170 102h-8q-118 -6 -180 -164q-29 -82 -29 -155q0 -117 45 -191q22 -42 55 -68q52 -40 121 -40q95 0 150 65z" />
    <glyph glyph-name="nine" unicode="9" horiz-adv-x="1042" 
d="M391 -6q-85 26 -151 117q-43 57 -64 120q-10 26 -20 74l-6 29q0 2 -1 5t-2 8t-2 9l-2 15q0 24 23 37q15 7 39 10h10l27 6q4 2 18 2q2 2 6 2h8q30 0 39 -35l6 -31l7 -26l20 -68q19 -62 70 -100q38 -23 78 -23q38 0 76 19.5t63 50.5q59 82 83 193.5t32 291.5q2 10 2 50
q0 4 -4 5t-5 -1q-91 -94 -235 -103q-6 -2 -23 -2q-124 0 -213 74q-63 54 -102.5 135.5t-46.5 175.5q-2 14 -2 62q0 141 55 254q50 103 141 157q83 47 185 47q65 0 129 -22q114 -39 174 -137q56 -85 78 -183q43 -176 43 -460v-86q-5 -191 -46.5 -338t-140.5 -252
q-96 -96 -241 -96q-62 0 -105 14zM586 848q63 33 92 101t29 151q0 162 -84 243q-51 46 -127 46h-9q-49 -1 -91.5 -35t-67.5 -84q-35 -78 -35 -174q0 -75 23.5 -138t64.5 -98q40 -37 102 -37q51 0 103 25z" />
    <glyph glyph-name="colon" unicode=":" horiz-adv-x="600" 
d="M256 672q-20 0 -33 8q-15 12 -18 39v31v26v8v33v2q0 21 14 35q10 10 29 10l53 2l53 -2q17 0 27 -10q14 -11 14 -35v-2v-33v-10v-24v-31q0 -29 -26 -43q-16 -4 -33 -4q-10 -2 -37 -2q-33 0 -43 2zM299 -6h-43q-20 0 -33 10q-15 12 -18 37v31v26v8v33v2q0 21 14 35
q10 10 29 10q12 2 53 2t53 -2q17 0 27 -10q14 -11 14 -35v-2v-33v-8v-26v-31q0 -29 -26 -43q-16 -4 -33 -4h-37z" />
    <glyph glyph-name="semicolon" unicode=";" horiz-adv-x="632" 
d="M274 672q-19 0 -32 8q-19 13 -19 39v31v26v8v33v2q0 23 15 35q10 10 26 10l55 2l54 -2q16 0 26 -10q15 -15 15 -35v-2v-33v-10v-24v-31q-3 -30 -29 -43q-12 -4 -31 -4q-10 -2 -39 -2q-33 0 -41 2zM207 -150q-2 2 -2 11q0 17 10 24l14 17q21 21 33 55l6 23v2q0 11 -12 14
l-14 8q-19 13 -19 37v31v26v8v33v2q0 23 15 35q10 10 28 10h19h28h2h56q2 0 26 -6q26 -10 29 -37q2 -8 2 -37q0 -75 -37 -145q-23 -44 -57 -78q-53 -53 -92 -55l-2 -2q-12 0 -22 6.5t-11 17.5z" />
    <glyph glyph-name="less" unicode="&#x3c;" horiz-adv-x="819" 
d="M637 1096l20 -29l13 -20l2 -3q1 -2 7 -10.5t11.5 -18.5t5.5 -18q0 -10 -6 -16q-10 -15 -39 -35l-28 -18q-3 -3 -17.5 -12t-23.5 -17l-27 -18l-131 -93l-27 -16q-8 -8 0 -16l39 -29l139 -96l58 -39l14 -10l37 -27q12 -12 12 -27q0 -9 -6 -18l-20 -29l-15 -20l-2 -2
q-21 -41 -47 -41l-6 2q-12 3 -45 26l-29 19q-39 28 -41 29l-24 18q-121 87 -213 145l-84 58q-24 18 -32.5 27.5t-8.5 21.5q0 17 33 43l57 41q26 17 168 115q128 85 137 92l21 14l34 25q22 16 35 16q15 0 29 -14z" />
    <glyph glyph-name="equal" unicode="=" horiz-adv-x="784" 
d="M356 807l-110 2h-13h-38q-17 0 -23 -2h-4h-8q-14 0 -25.5 9.5t-11.5 27.5v33v26v4v15q0 24 6 36q9 15 31 15h6h10h17h10q10 -2 51 -2h55h45l58 -2l53 -2h4q31 0 41 2h45l76 2q13 0 22 -9.5t9 -21.5v-43v-14v-31v-16q-3 -22 -27 -25h-19h-6h-16h-6h-4q-24 0 -75 -2t-75 -2
h-57h-21zM618 557h-10h-16h-8h-52h-55h-47l-55 2q-12 2 -56 2h-2h-43q-10 -2 -45 -2h-77q-12 0 -20.5 9t-8.5 22v41v16v31q0 12 2 14q1 11 9 18t16 7h6h4l30 2l160 2h60h18q88 0 111 -2h12q31 0 39 2h22h6h7q14 0 25.5 -9.5t11.5 -27.5v-33v-24v-4v-15q0 -28 -7 -39
q-9 -12 -30 -12h-7z" />
    <glyph glyph-name="greater" unicode="&#x3e;" horiz-adv-x="819" 
d="M219 1106q1 0 45 -25q4 -4 8.5 -7.5t10 -7t8.5 -5.5q3 -3 17.5 -12t23.5 -17l26 -18q133 -95 213 -146l84 -57q26 -19 33.5 -28t7.5 -21q0 -16 -32 -41l-60 -43l-168 -115l-155 -106l-35 -25q-2 -1 -8.5 -5t-14.5 -7.5t-14 -3.5q-16 0 -27 14l-20 29q-3 5 -8.5 11t-6.5 9
l-2 2q-22 31 -22 47q0 3 4 19q6 8 41 33q17 13 29 18q39 28 41 29l24 18l133 92l25 19q4 4 4 9t-4 7q-6 4 -37 27q-137 94 -139 96q-12 8 -31.5 21.5t-26.5 17.5l-14 10q-27 17 -37 27q-12 12 -12 26q0 10 6 19l18 28q15 18 15 21l2 4q26 39 49 39q4 0 6 -2z" />
    <glyph glyph-name="question" unicode="?" horiz-adv-x="1073" 
d="M551 242h-12h-11h-67q-18 0 -29.5 10.5t-13.5 28.5v4l2 26q0 9 2 11q0 28 2 36l8 72q14 83 27 133q41 157 143 369l16 33q36 74 50 115.5t14 88.5t-18 109q-15 65 -74 86q-24 8 -47 8q-33 0 -62 -16q-57 -36 -84 -142l-12 -59q0 -16 -2 -22v-9q-3 -28 -23 -37
q-12 -4 -26 -4h-53q-13 0 -17 -2h-10q-27 0 -39 15q-10 10 -10 37v2l4 47q7 54 20 102q29 97 85.5 163t131.5 91q46 16 103 16q120 0 205 -73q71 -68 98 -162l14 -70q2 -14 2 -57q0 -83 -26.5 -163t-85.5 -193q-59 -111 -103 -234q-32 -100 -43 -196q-8 -63 -8 -95
q-2 -2 -2 -12v-18q-2 -17 -13 -28t-28 -11h-8zM508 0h-37q-20 0 -33 8q-16 13 -16 37v29v22v8v31v2q0 21 12 33q10 10 27 10l51 2l49 -2q15 0 25 -10q14 -11 14 -33v-2v-31v-8v-22v-29q0 -31 -27 -41q-12 -4 -28 -4h-37z" />
    <glyph glyph-name="at" unicode="@" horiz-adv-x="1230" 
d="M211 428q-9 11 -29 45q-59 115 -59 244q0 162 82 287q54 84 135 143q139 102 315 102q138 0 254 -78q117 -76 166 -208q33 -82 33 -166q0 -103 -49 -185q-74 -114 -203 -114q-99 0 -145 73q-2 5 -7 5.5t-10 -3.5q-29 -32 -61 -49q-37 -18 -78 -18q-88 0 -141 78
q-39 51 -39 129q0 47 14 82q19 59 72 112q67 64 145 64q6 0 8 -2q65 -3 107 -31q10 -7 20 0q15 12 47 12q25 0 48 -7.5t30 -20.5q6 -9 6 -23q0 -17 -12 -41l-2 -6q-24 -64 -24 -121q0 -61 36 -61q29 0 56 30q26 33 26 93q0 62 -31 128t-73 99q-85 70 -199 70
q-136 0 -239 -93q-38 -38 -45 -47q-84 -110 -84 -227q0 -103 64.5 -197.5t166.5 -115.5q28 -7 55 -7q41 0 107 17l28 12l5 2q12 6 20 6q18 0 31.5 -14t38.5 -53q20 -33 20 -51q0 -4 -1 -8t-2 -6.5t-3.5 -5.5t-4.5 -4.5t-6.5 -4.5t-6.5 -4.5t-8.5 -5t-8.5 -4.5
q-75 -33 -182 -39h-21q-109 0 -204 49t-158 139zM625 682q43 43 43 96q0 23 -14 36t-38 13q-37 0 -66 -29.5t-34 -68.5q-2 -2 -2 -16q0 -21 6 -39q6 -22 23 -29q2 -2 14 -2q32 0 68 39z" />
    <glyph glyph-name="A" unicode="A" horiz-adv-x="903" 
d="M115 0h-17h-16q-25 0 -33 14q-12 15 -6 35l4 23l31 129q2 7 16 63l17 64l10 41q1 7 2.5 14.5t3 14.5t2.5 10q2 14 16 69l11 45q10 39 57 252q0 1 41 187l27 116l6 25l18 69q30 117 31 121l26 111q1 9 5 23t4 16l6 35l4 16q0 15 8 23q12 18 41 18h4h29q41 0 53 2
q32 0 41 -33q1 -3 2.5 -10t3 -14.5t2.5 -14.5l8 -37l17 -92q5 -15 10 -53l18 -102l15 -64l10 -53q7 -27 8 -37q3 -13 14 -67.5t17 -77.5l6 -31q15 -50 17 -72l18 -90l18 -90l15 -72l12 -53l18 -82l23 -108l20 -86l19 -78l8 -51q6 -24 6 -31l-4 -17l-6 -8q-9 -9 -25 -12h-8
h-8h-6h-21h-28h-21q-28 0 -37 37l-14 72q-3 8 -14 59l-25 115l-2 6q-18 69 -25 121q-9 30 -12 61l-2 8q-3 15 -16 15h-47h-45h-4h-156h-4q-18 0 -21 -15v-4l-28 -141l-19 -92q-6 -33 -10 -43l-2 -6l-12 -52l-13 -51l-4 -18l-6 -29q-7 -22 -18.5 -32.5t-34.5 -10.5h-12h-7h-6
h-10h-14zM362 651l50 2h88h55q10 0 10 11q0 6 -4 22l-16 72l-17 86l-10 49q-1 7 -8.5 49.5t-13.5 69.5l-25 121l-4 20q0 5 -3 5t-3 -5l-6 -25q-16 -67 -17 -73l-16 -72l-25 -111l-24 -108q-2 -10 -5 -24.5t-8.5 -36t-9.5 -37.5v-2q0 -5 4 -9t8 -4z" />
    <glyph glyph-name="B" unicode="B" horiz-adv-x="837" 
d="M311 0h-41h-47h-12h-25q-35 0 -47 4q-20 11 -20 39l2 209v164l-2 45v270q0 368 2 483v72v133v25v26v7v6q0 24 12 39q15 12 39 12h23l24 2l41 -2h70h24h17q61 0 110 -6q56 -9 111 -37q78 -41 123 -152q26 -71 26 -141q0 -58 -18 -117q-35 -112 -129 -176q-4 -1 -4 -7t4 -7
q69 -45 127 -123q96 -125 96 -309q0 -122 -43 -209q-63 -135 -201 -207q-39 -21 -77.5 -28.5t-122.5 -14.5h-2h-60zM442 993q61 25 98.5 83.5t37.5 127.5q0 56 -22.5 97.5t-68.5 58.5q-35 14 -104 14h-21h-45h-20q-14 0 -14 -14v-111v-121v-143v-8q0 -14 14 -14q69 0 145 30
zM309 156h4q60 0 74 2q1 0 16.5 2t30.5 4t35.5 8t34.5 14q48 26 88 72q55 67 55 193q0 121 -39.5 193t-130.5 116q-59 30 -155 39h-17h-8q-14 0 -14 -15v-43q0 -33 -2 -41v-194q0 -260 2 -336q0 -6 5 -10t11 -4h10z" />
    <glyph glyph-name="C" unicode="C" horiz-adv-x="909" 
d="M281 55q-74 51 -125 148q-57 112 -81 253t-24 330v78q5 191 46.5 339t140.5 253q44 47 108.5 72.5t134.5 25.5q46 0 105 -16q87 -24 153 -117q38 -53 64 -121l20 -75l4 -29l4 -20v-9q0 -20 -18 -32q-15 -5 -25 -5h-10h-8h-6h-25h-20h-21q-32 0 -41 35v2l-6 29
q-8 39 -20 68q-19 62 -70 100q-36 22 -78 22q-41 0 -78.5 -18.5t-60.5 -50.5q-61 -82 -85 -193t-32 -295l-2 -61q0 -153 31 -322q35 -164 109 -241q52 -55 120 -55q1 0 33 4q32 5 65 32.5t52 65.5q21 51 33 88l10 45l2 25q3 20 14 26q10 10 43 10l13 -2q24 0 30 2h19h14
q19 0 31 -6q9 -5 12.5 -17t1.5 -20l-4 -49q-7 -64 -20 -100q-6 -19 -11 -27q-47 -127 -135 -188q-83 -59 -184 -59q-120 0 -223 75z" />
    <glyph glyph-name="D" unicode="D" horiz-adv-x="919" 
d="M190 0h-10q-37 0 -49 18q-8 8 -8 60v12v57v35q0 52 -2 66v94q-2 47 -2 213q0 274 6 532v127v78v78v96v11q0 34 14 45q12 12 92 12q6 2 29 2q78 0 146 -8q197 -21 303 -160q82 -101 127 -293q23 -107 32 -278q3 -83 -12 -203l-6 -43q-23 -147 -72 -250q-42 -79 -100 -137
q-42 -42 -99.5 -78t-111.5 -53q-89 -28 -160 -31h-4q-58 -4 -72 -2h-22h-19zM418 193q58 21 114 71q77 70 101 131q22 49 31 80q38 115 38 281q0 220 -53 391q-13 46 -51 94q-35 44 -64.5 70t-64.5 39q-36 12 -82 18h-8q-6 2 -47 2h-15h-18q-6 0 -10 -4.5t-4 -9.5v-15v-92
q-2 -14 -2 -65l2 -441q0 -251 2 -323v-35v-25q0 -81 2 -108v-8q0 -48 2 -62q0 -6 4 -9.5t10 -2.5q58 3 113 23z" />
    <glyph glyph-name="E" unicode="E" horiz-adv-x="821" 
d="M801 70v-13q0 -26 -8 -34q-9 -21 -35 -21h-10h-21l-59 -2h-113h-47h-35l-53 2l-64 -2h-127h-28q-2 2 -11 2h-6h-4q-20 0 -24 2q-33 9 -33 49q-2 31 -2 156v35q0 159 2 202q2 39 2 181l-2 104q-4 406 -4 465q0 164 2 211v68q0 33 12 45q11 14 47 14h39h45h78l92 2l76 -2
h39h41h28h50h45h28q20 0 29 -12q12 -9 12 -33v-4q0 -15 -2 -19v-8v-22q3 -12 0 -25v-6q0 -25 -10 -35q-12 -12 -39 -12h-6q-56 0 -72 -2h-73h-86h-84h-70h-25h-12q-14 0 -14 -15q-1 -21 -1 -52.5t0.5 -66t0.5 -44.5v-19q0 -60 2 -76v-114v-19q0 -14 14 -14h23q124 0 161 2
h19h35h4q10 0 22 -4q16 -3 23 -27q4 -9 4 -37v-8v-10q0 -29 -2 -39q0 -10 -4 -18q-1 -13 -11.5 -21t-21.5 -8q-29 -2 -127 -2h-39q-56 0 -72 -2h-14q-14 0 -14 -14v-17v-63q0 -195 2 -250q2 -39 2 -180q2 -6 2 -45q0 -5 5 -9t11 -4h4h31h51l50 -2l53 2h82q70 0 90 2h20h25
h26h5q24 0 32 -8q17 -14 17 -35v-6v-45z" />
    <glyph glyph-name="F" unicode="F" horiz-adv-x="813" 
d="M225 0h-30h-17h-4q-23 0 -29 2q-24 12 -24 37v266q-2 68 -2 307l2 248l2 246v33v28v76l-2 82l2 35v35v20v53v5v4v6q0 21 6 30q9 19 37 19h33h49h49q104 0 135 2l135 2l70 -2h47h61q13 0 25 -4q23 -10 23 -41v-25v-26v-11v-14q0 -26 -13 -39q-12 -12 -32 -12h-58h-26
q-8 -2 -35 -2l-66 2h-55h-111q-23 -2 -96 -2q-14 0 -14 -14v-60l-2 -67l2 -76v-76v-35v-37v-45q0 -14 14 -14h23q126 0 161 2h19h35h4q12 0 24 -4q16 -3 23 -27q5 -16 2 -37v-8v-10v-39l-4 -18q-10 -29 -35 -29q-29 -2 -125 -2h-39q-56 0 -72 -2h-12q-14 0 -14 -14v-68v-6
v-103l2 -92v-92v-104v-66q2 -14 2 -70v-34l2 -37v-10v-13q0 -29 -8 -37q-13 -16 -35 -16h-29z" />
    <glyph glyph-name="G" unicode="G" horiz-adv-x="913" 
d="M281 53q-74 51 -125 148q-105 205 -105 583v78q5 195 46.5 342t142.5 252q44 47 107.5 72.5t133.5 25.5q49 0 105 -16q90 -27 153 -117q42 -56 64 -121q14 -35 20 -77l6 -27l5 -20l2 -15q0 -28 -25 -37q-12 -4 -29 -4h-6h-4h-39h-8h-12h-13q-32 3 -41 41l-2 10l-6 25
l-18 68q-28 73 -72 100q-36 22 -78 22q-38 0 -76 -19.5t-63 -51.5q-61 -82 -85 -192t-32 -294l-2 -63q0 -153 31 -322q34 -161 111 -241q53 -56 120 -56l31 3q35 6 67.5 34t49.5 66q36 73 39 149q6 76 6 140v24q-2 6 -2 35v4q0 14 -14 14h-25h-37h-29h-2h-28h-23h-39
q-22 3 -26 7q-25 11 -21 45v2v18v10v27l-2 23q0 20 10 30q13 13 29 13h2q8 2 35 2h16h74h31h65h66h41h6q28 0 43 -15q12 -9 12 -35v-63v-92v-17q0 -83 -4 -153q-10 -113 -41 -199q-41 -109 -141 -178q-85 -61 -184 -61q-110 0 -211 73z" />
    <glyph glyph-name="H" unicode="H" horiz-adv-x="944" 
d="M713 0h-11h-2q-21 0 -30 12q-11 11 -11 25v45v37q-2 8 -2 45v145q-2 18 -2 84v90v41v15v53q-2 12 -2 55v70v26v25q0 14 -14 14h-6h-25h-65q-6 -2 -27 -2h-16h-17h-55h-59h-58q-14 0 -14 -14l2 -23v-34v-35v-103v-92q2 -23 2 -92v-102v-68q0 -56 2 -70v-34l2 -37v-10v-13
q0 -10 -4 -30q-10 -23 -41 -23h-29h-32h-19h-4q-25 0 -31 2q-24 12 -24 37q0 280 -2 358v215l2 248q2 55 2 246v24v177v55v35v73v5v10q0 14 4 26q10 23 39 23l35 2q14 0 18 -2h25h2q32 0 41 -12q6 -9 6 -25v-2v-35v-10v-10v-10v-41v-27v-12v-9v-131v-110q1 -14 1 -26.5
t-0.5 -24.5t-0.5 -17v-37v-39q3 -14 16 -14h2h23h149h146h10q14 0 14 14v2l-2 41v17v26l-2 84v97q0 122 -2 159v66q3 28 0 49q0 34 43 37l31 2l27 -2h26h14q31 0 37 -35v-24v-172v-70v-59v-62v-51v-64v-69v-74v-84v-35q-2 -6 -2 -33v-161l-2 -140v-118v-9v-43q2 -10 2 -47
v-65q3 -37 0 -76q0 -22 -12.5 -32.5t-28.5 -10.5h-26h-21h-6h-16z" />
    <glyph glyph-name="I" unicode="I" horiz-adv-x="432" 
d="M129 18q-6 12 -6 54v32v54v26q0 115 2 150v317q0 131 2 170l2 187l-2 125v122q0 197 -2 246q0 13 9.5 23t21.5 10l88 2l18 -2h2q15 0 23 -4q18 -9 18 -29v-14v-4v-33v-20v-64v-12q0 -79 2 -232t2 -227v-213l-2 -399v-125q0 -52 2 -66v-16v-21q0 -20 -2 -26
q-6 -29 -37 -29h-16h-23h-20h-10h-4h-17q-42 0 -51 18z" />
    <glyph glyph-name="J" unicode="J" horiz-adv-x="839" 
d="M379 -20h-14q-91 3 -158 53q-66 48 -109 129q-27 48 -41 153l-2 9q-11 89 -14 208v50v30q0 16 10 26.5t23 12.5h16h19h16h16h19h2h6q28 0 37 -12q10 -10 10 -35v-4v-59v-43v-37q3 -163 66 -248q34 -49 88 -55q6 -2 22 -2q49 0 76 24q29 26 47 56q23 49 31 141q4 70 4 162
q2 8 2 36v187v178v168v14q0 142 -2 185v55v35v71v5v12q0 4 4 24q9 22 39 25h35h14h25h2h6q20 0 28 -8q15 -9 15 -31v-31v-14v-41v-76v-26q-2 -47 -2 -205v-58q0 -81 2 -104q0 -96 2 -123v-74v-38v-31v-68v-51l2 -68q0 -30 -4 -116q-5 -74 -16 -124.5t-37 -103.5
q-55 -107 -164 -145q-50 -18 -121 -18z" />
    <glyph glyph-name="K" unicode="K" horiz-adv-x="827" 
d="M139 12q-10 10 -10 25v45v37l-2 43v147v84v90q-3 20 0 41v15l-2 53v55v70v26v64v98l-2 27q0 83 -2 110v84l-2 97v159v66v49q0 11 6.5 21.5t13.5 11.5q12 4 19 4h30h27h25h14q33 0 35 -35v-24v-172v-70v-62v-59v-51v-43q2 -2 6 -2l59 102l49 88l19 33q14 28 53 92
q63 103 92 158q12 23 27 37q11 8 43 8h18h17h10h14h15l8 2q26 0 35 -18q2 -2 2 -15q0 -15 -8 -26l-31 -52l-17 -26l-86 -148l-22 -39q-21 -42 -35 -65q-29 -47 -70 -121l-18 -33l-12 -20l-6 -12l-21 -35l-10 -17q-6 -12 0 -24l31 -66l32 -67l52 -115q55 -130 69 -156
q20 -39 37 -82l23 -51l88 -188l16 -35l33 -66q0 -2 2.5 -10t3.5 -14t-2 -15q-9 -20 -37 -20h-8h-15h-12h-12h-16h-19q-35 0 -47 12q-17 20 -25 45q-24 58 -94 201q-37 74 -53 119l-21 41q-89 201 -135 299q-2 5 -6 5.5t-6 -3.5l-4 -8q-8 -8 -8 -31v-139v-140l-2 -118
q0 -42 2 -52v-47v-71q0 -5 0.5 -17t0.5 -24.5t-1 -26.5q0 -22 -6 -31q-8 -14 -35 -14h-15h-14h-47q-22 0 -31 12z" />
    <glyph glyph-name="L" unicode="L" horiz-adv-x="804" 
d="M731 0h-8h-4h-25l-18 2h-4l-35 -2h-39h-104h-91h-63h-84h-18h-76q-43 0 -43 41v39v80q0 116 2 147v158v276v62v119v190v193v79v23v10v21q-2 8 -2 39v4q0 27 8 35q9 18 41 18h14h6q48 0 62 2h4q22 0 31.5 -12t9.5 -27q3 -27 0 -51v-27v-78v-16v-74v-94v-186
q-2 -39 -2 -174v-66v-125v-174l2 -180v-12l2 -43q0 -15 14 -15q8 -2 39 -2l72 -2h10q41 0 51 2h64h14q64 0 82 2h84h16q17 0 29 -11t12 -28v-22v-31v-37v-4v-6q0 -38 -26 -41q-6 -2 -27 -2z" />
    <glyph glyph-name="M" unicode="M" horiz-adv-x="1058" 
d="M223 0h-26h-19h-10q-17 0 -29 4q-20 14 -20 35l2 248l2 280l-2 68v475v14q0 140 -2 183v55v35v71v5v12q0 12 6 24q9 22 39 25l49 2h2l10 -2h11h6h4q27 0 39 -12q8 -10 12 -23l2 -4l14 -31l90 -235q42 -119 84 -225q15 -43 31 -74l8 -21q2 -5 7 -5t6 5l14 33q1 2 4 9
t7.5 18.5t8.5 25.5l23 60q18 39 72 184l8 25l26 69q4 16 27 78t31 88q0 9 10 21q14 14 43 14h14h21l33 -2h4l2 2q20 0 35 -12q12 -9 12 -35v-166v-315l2 -76v-211q2 -66 2 -309v-64v-115v-36q2 -27 2 -125v-4v-25q0 -30 -25 -39l-22 -2h-27h-16h-21h-12h-8h-6q-27 0 -37 16
q-6 12 -6 35v4v49v21v29q2 6 2 26v139v99v106v107v112q4 82 4 189v82v14v4q0 2 -2 2.5t-4 -0.5l-15 -39l-4 -6q-1 -1 -2 -5t-2 -5v-2q-19 -56 -49 -127l-57 -139l-17 -45l-6 -17q-9 -28 -43 -28h-10h-37h-10q-3 -3 -8 -3q-3 0 -23 5q-16 3 -28 30q-47 104 -89 217l-51 134
l-12 28q-1 1 -3.5 0.5t-2.5 -2.5v-37v-49q2 -18 2 -76q0 -64 2 -84v-18v-23v-36q2 -6 2 -31v-103v-94v-92q0 -77 2 -102v-68v-70l2 -32v-39v-10v-13q0 -18 -4 -30q-10 -23 -39 -23h-35z" />
    <glyph glyph-name="N" unicode="N" horiz-adv-x="944" 
d="M184 0h-12h-2q-19 0 -31 12q-8 8 -8 25q-2 10 -2 45v37v45q0 116 -2 145v209v19q0 43 -2 55v55v172v86v25l-4 110v86l-2 97v159v66v49q0 34 41 37h33h16h16q2 2 8 2l19 -2h8h4q21 -3 37 -25q9 -12 12 -30l17 -43l92 -275q13 -43 63 -196l82 -240q65 -187 78 -227
q0 -4 2 -6q0 -2 2 -2t2 2v30v135q2 55 2 252q0 152 -2 193l-2 155q0 78 2 101v90v33q0 8 2 10q0 17 9.5 28t23.5 13q6 2 37 2h16h9h16h8q30 0 43 -16q8 -8 8 -27v-72v-71v-86q0 -135 2 -170v-97q0 -131 -2 -168v-116v-2v-56q2 -14 2 -59q0 -189 -2 -240v-262v-6v-16
q0 -46 -14 -60q-13 -10 -41 -10h-12h-15h-53h-18q-30 0 -45 47q-2 2 -2 6q-15 35 -23 62l-20 51l-39 115l-23 63q-20 68 -35 102l-55 156l-25 70l-43 121l-45 131l-4 12l-10 29q-1 1 -3.5 0.5t-2.5 -2.5v-35v-74v-86v-33v-33q0 -126 -2 -161v-140q0 -91 -2 -118v-9l2 -43
l2 -47v-65v-76q-1 -23 -14 -33t-29 -10h-25h-20h-8h-15z" />
    <glyph glyph-name="O" unicode="O" horiz-adv-x="946" 
d="M281 53q-74 55 -125 154q-57 112 -81 252t-24 327v80q5 193 46.5 339t142.5 251q92 98 243 98q49 0 105 -16q126 -38 203 -197q67 -130 90 -307q14 -106 14 -258v-67v-9q-3 -117 -10 -196q-15 -134 -56 -250q-53 -142 -141 -209q-95 -65 -199 -65q-114 0 -208 73z
M489 147l15 3q44 5 79.5 29t55.5 65q47 96 68 245q7 57 10 148l2 57q4 94 4 103q0 115 -16 227q-27 158 -72 250q-23 50 -62 83.5t-92 33.5q-38 0 -76 -20t-61 -52q-65 -89 -86 -203q-22 -121 -31 -291v-63q0 -310 86 -481q28 -54 56 -82q55 -52 120 -52z" />
    <glyph glyph-name="P" unicode="P" horiz-adv-x="780" 
d="M225 0h-30h-17h-4q-23 0 -29 2q-24 12 -24 37q0 280 -2 358v215l2 250q2 53 2 246v27v172q-3 27 0 55v35v73v5v10q0 12 4 24q9 25 39 25l33 2l16 -2h33h14q8 1 17 1t18 -0.5t12 -0.5h58l22 2q61 0 119 -10q91 -15 154 -84q57 -63 81 -152q9 -34 15 -90l2 -61
q0 -235 -117 -355q-79 -79 -205 -106q-58 -13 -133 -16q-14 0 -14 -15q0 -60 2 -76v-92v-92v-102v-64q2 -16 2 -74v-32q2 -10 2 -39v-10v-13q0 -18 -4 -30q-10 -23 -39 -23h-29zM340 844q73 5 120.5 19t76.5 44q19 22 32 51q35 75 35 177q0 4 -4 82q-5 43 -30.5 81.5
t-61.5 55.5q-25 14 -100 14h-29h-68h-10q-14 0 -14 -14v-4v-9v-131v-110v-68v-41v-37v-34q0 -46 2 -58v-6q0 -14 14 -14q31 0 37 2z" />
    <glyph glyph-name="Q" unicode="Q" horiz-adv-x="1007" 
d="M281 53q-74 55 -125 154q-57 112 -81 252t-24 327v80q5 193 46.5 339t142.5 251q92 98 243 98q49 0 105 -16q126 -38 203 -197q67 -130 90 -307q14 -106 14 -258v-67v-9q-3 -117 -10 -196q-15 -134 -56 -250q-2 -2 -2 -10q0 -3 4 -15q6 -8 11 -18l41 -66l22 -36l39 -60
q12 -15 12 -35q0 -12 -2 -14q-11 -20 -43 -20h-4h-12h-27h-43h-12q-19 0 -25 2q-13 3 -26 16l-29 45l-8 14q-7 10 -18 2l-19 -14q-95 -65 -199 -65q-114 0 -208 73zM489 147l15 3q12 0 16 2q38 6 72 32q11 8 22 23q8 8 2 22l-6 11l-51 77l-24 35l-23 35l-57 88l-2 4
q-19 32 -11 49q9 21 39 21h15h12h12q65 0 90 2q27 0 39 -21l2 -4l19 -30q2 -2 10 -19l12 -20q2 -2 6 -2t4 4l5 22v8q7 57 10 148l2 57q4 94 4 103q0 115 -16 227q-27 158 -72 250q-23 50 -62 83.5t-92 33.5q-38 0 -76 -20t-61 -52q-65 -89 -86 -203q-22 -121 -31 -291v-63
q0 -310 86 -481q28 -54 56 -82q55 -52 120 -52z" />
    <glyph glyph-name="R" unicode="R" horiz-adv-x="827" 
d="M805 20q-9 -20 -37 -20h-6h-17h-12h-12h-16h-19q-35 0 -47 12q-11 14 -25 43q-31 75 -92 199l-2 4q-40 81 -53 117q-5 9 -39 88q-11 29 -47 108q-7 20 -51 109q-4 6 -21 45q-2 0 -2 2q-3 6 -5.5 11.5t-3 8t-1.5 3.5l-4 2q-2 0 -2 -2v-7v-34v-35q0 -80 2 -103v-92v-92
v-102v-64q2 -16 2 -74v-32q2 -10 2 -39v-10v-13q0 -18 -4 -30q-10 -23 -39 -23h-29h-30h-17h-4q-23 0 -29 2q-24 12 -24 37q0 280 -2 358v215l2 250q2 53 2 246v27v172q-3 27 0 55v35v73v5v10q0 12 4 24q9 25 39 25l33 2l16 -2h10h4h2l43 2l35 -2h58h22q83 0 119 -8
q125 -21 194 -137q56 -100 56 -213q0 -87 -29.5 -165.5t-83.5 -133.5q-38 -38 -76 -60q-47 -25 -86 -37q-12 -4 -8 -16l21 -45l32 -72q15 -27 29 -65l45 -103l19 -41q31 -61 43 -90l88 -188q3 -5 7.5 -16.5t8.5 -18.5l33 -68q10 -23 4 -37zM537 989q63 72 63 195
q0 55 -25.5 104.5t-64.5 69.5q-25 14 -82 14h-22h-23h-4q-37 0 -49 -2q-23 0 -29 -2q-14 0 -14 -14v-6v-9v-133v-114v-68v-37v-49q0 -14 14 -14h2h41q75 7 120 21t73 44z" />
    <glyph glyph-name="S" unicode="S" horiz-adv-x="745" 
d="M215 20q-43 22 -68 54q-74 74 -92 194q0 5 -4 25l-6 49l-4 37v4v16q9 31 39 31q16 0 20 2h21h18q6 -2 23 -2l8 2l6 -2q13 0 22.5 -9.5t10.5 -27.5v-10v-12q6 -73 24 -119t54 -76q35 -24 78 -24q56 0 92 36q61 70 61 181q0 84 -34 169.5t-89 143.5q-54 58 -139 133l-14 12
q-185 170 -185 369q0 52 15 104q18 90 96 168q86 86 221 86q19 0 25 -2q69 -6 135 -41q65 -39 100 -98q36 -56 45 -158l2 -47v-6v-8q0 -24 -12 -33q-13 -10 -33 -10h-18h-19h-16h-14h-15h-10q-15 0 -24 6q-19 15 -19 45v2q0 27 -2 33l-10 53q-27 90 -127 90q-42 0 -75.5 -27
t-45.5 -71q-12 -38 -12 -88q0 -82 35 -135q49 -68 73 -92l70 -70l67 -66q150 -153 199 -344q17 -63 17 -127q0 -32 -11 -104q-35 -151 -147 -229q-71 -47 -168 -47q-94 0 -164 40z" />
    <glyph glyph-name="T" unicode="T" horiz-adv-x="798" 
d="M449 0h-11h-26h-60q-32 0 -41 20q-4 12 -4 21v94v45v41l2 94v328q0 129 2 166l2 184l-2 123v123v92v8q0 15 -14 15h-49q-50 0 -64 -2q-55 0 -71 2q-11 0 -13 -2h-12q-10 0 -12 2q-13 0 -23 9.5t-10 27.5v6v29t-0.5 22t-0.5 16.5v11.5t-0.5 7t-0.5 5v1v4q0 18 9.5 27.5
t23.5 9.5q27 2 116 2h74l150 2l92 2l141 -2h66h4q18 0 26 -8q15 -12 15 -31v-49v-23v-20v-8q0 -23 -10 -33q-13 -10 -25 -10h-82h-18h-88h-31q-15 0 -15 -15v-2l3 -452v-176q1 -49 -3 -390v-36q0 -145 3 -222v-12q0 -47 -43 -47z" />
    <glyph glyph-name="U" unicode="U" 
d="M455 -20h-15q-97 3 -164 53q-72 51 -112 129q-27 46 -39 121q-14 68 -14 245v7l-2 55v55v72v24v64v98l-3 27q0 83 -2 110v84l-2 97v159v66v51q0 24 21 33q6 2 18 2q6 2 33 2h25h24h15q32 0 34 -37q2 -4 2 -22l-2 -172q2 -14 2 -70v-62v-61v-49l-2 -66v-69v-74v-84v-35
v-33q0 -74 2 -94q0 -27 2 -35v-10l3 -108q2 -82 16.5 -138t50.5 -104q35 -44 96 -53q6 -2 25 -2q56 0 82 26q30 23 47 56q24 40 33 139q6 72 6 162v36l2 189l-2 178v168v12v185q-3 27 0 55v47q0 19 -2 25v43v4v10q0 19 8 27q10 16 35 16h26h21h2h12h17h4h4q23 0 31 -8
q14 -11 14 -31v-31v-14v-41v-74l-2 -30v-203v-58q0 -81 2 -104v-123v-74q2 -6 2 -34v-35v-68v-51v-68q0 -93 -2 -116q-5 -77 -16 -127t-39 -103q-58 -105 -172 -145q-56 -16 -125 -16z" />
    <glyph glyph-name="V" unicode="V" horiz-adv-x="841" 
d="M322 33q-9 35 -9 37l-6 39q-14 71 -16 90l-10 53l-17 102l-24 125l-19 94l-18 95l-19 88l-16 90q-2 31 -16 90l-15 72q-5 15 -10 53q-15 71 -16 84l-23 106l-18 88q-1 8 -17 78l-10 62l-2 10v4v4q0 17 8 25q12 12 29 12h12h8h49h9h18q29 0 35 -37l4 -18q0 -11 2 -13
q6 -45 10 -61l2 -6l27 -133l2 -9l10 -51q2 -22 8 -39l15 -75l12 -54l2 -16l21 -100l14 -84l6 -37l18 -99l13 -67l2 -6q4 -34 20 -115l15 -76q0 -2 2 -2t4 2l6 33l14 74l17 67l18 78q39 202 53 293l6 33l27 143l25 133l10 41v8l12 50l12 51l5 20l6 29q9 43 51 43h10h6h4h11
l14 2l18 -2h19q22 0 31 -12q4 -4 6 -9.5t2.5 -10t0.5 -8v-6.5l-1 -3l-6 -21q-7 -40 -29 -131l-14 -63l-15 -64q-8 -38 -8 -41l-8 -39l-14 -69q-6 -18 -11 -43q-4 -18 -11.5 -53t-19 -92t-22.5 -109l-37 -187l-26 -116l-7 -23q-3 -27 -16 -72l-29 -120l-22 -111l-8 -39
l-6 -37l-5 -14q0 -12 -6 -21q-11 -20 -41 -20h-2h-28h-50q-34 0 -38 33z" />
    <glyph glyph-name="W" unicode="W" horiz-adv-x="1081" 
d="M776 0h-18q-24 3 -31 33l-4 18q-5 36 -10 49v13l-4 16l-13 68l-10 47l-14 80q-12 59 -35 176l-21 123l-24 129q-10 70 -25 135l-18 94q-6 17 -8 35q-1 2 -3.5 2t-2.5 -2l-5 -31q-2 -4 -2 -16l-6 -39q-3 -20 -16.5 -96t-28.5 -164.5t-31 -184.5l-36 -223q-1 -18 -7 -43
t-6 -29l-8 -49q-7 -33 -8 -51l-4 -20l-4 -27v-4l-2 -10q-3 -22 -27 -29h-14h-6h-5h-16h-8h-25h-6h-12h-4h-6q-16 0 -25 6q-14 11 -14 29q0 12 -2 14q0 9 -4 41q0 5 -4 37q0 1 -2 16.5t-6.5 51t-8.5 75.5l-18 144l-19 137q-36 293 -92 879l-2 8v14q-2 6 -2 21l-2 18v6
q0 37 37 37h16h12h5h12h24h3h8q24 0 35 -14q7 -11 10 -37v-6q4 -27 14 -146l8 -106l21 -178l12 -107l18 -149l23 -189q0 -2 2 -2t2 2q26 132 76 457q37 229 63 383q1 4 2 9l1.5 7.5t0.5 3.5q1 4 2 9t2 8t1 4v4q6 27 14 35q12 12 33 12h67q20 0 31 -14q6 -9 6 -19l16 -67
l7 -35l20 -101l6 -32l21 -109l18 -92q49 -248 60 -315l22 -123l2 -9q0 -2 2 -2t2 2l37 318l19 180l16 150q7 90 8 110q7 82 8 101l2 18q0 16 13 29q10 10 26 10h23h16h15l28 2l23 -2l18 -8q10 -10 10 -29q0 -32 -8 -76l-6 -41l-31 -254l-8 -92l-8 -61l-31 -275
q-48 -419 -63 -618l-2 -19q-2 -6 -2 -24q0 -19 -13 -29q-8 -8 -28 -8h-25h-22h-9h-8z" />
    <glyph glyph-name="X" unicode="X" horiz-adv-x="811" 
d="M168 0h-6h-29h-33h-20q-25 0 -33 14q-6 9 -6 21q0 13 6 22l2 9q3 9 9 28t8 25q9 30 30 88q14 40 39 98l43 115l17 45l14 37l24 69l58 154l16 41q3 19 0 29l-2 8l-24 71q-10 32 -29 74l-19 47l-10 25l-12 31q-65 160 -80 204l-43 119q-3 6 -5 12.5t-3 11.5t-2 7
q-22 69 -27 78q-6 9 -6 20q0 10 8 21q9 12 27 12h12l33 -2h25h10h18q27 0 37 -23l4 -14l2 -4q6 -19 10 -25l7 -14l28 -76l8.5 -17t6.5 -15q6 -21 23.5 -64.5t19.5 -48.5q33 -82 55 -148q4 -10 22 -63q1 -4 6 -4t5 4l61 149l31 82q24 50 59 148l12 37q11 37 29 78q9 18 39 18
h6h13l18 2l37 -2h6h4h10q17 -3 25 -14q4 -8 4 -17t-10 -39q-4 -10 -11 -30q-2 -4 -10 -27q-4 -6 -10 -23l-31 -79q-47 -118 -114 -299l-68 -175l-14 -34q-3 -15 0 -29l12 -31q3 -14 12 -28l64 -177l47 -126q12 -33 37 -99q42 -104 55 -145q8 -29 18 -51l13 -33l10 -29
q1 -3 2 -6.5t1.5 -5t0.5 -2.5q0 -9 -6 -21q-11 -14 -37 -14h-10h-2h-33h-12h-15h-6h-6h-12q-28 3 -37 27q-4 3 -6 16q-21 53 -27 76q-9 26 -26.5 75t-24.5 66l-33 90q-8 27 -69 195q-2 5 -6 5t-5 -5l-32 -94q-84 -229 -97 -263l-49 -135l-2 -8q-17 -45 -49 -45z" />
    <glyph glyph-name="Y" unicode="Y" horiz-adv-x="802" 
d="M324 6q-15 9 -15 31q-3 25 0 47v4q2 53 2 254v35v102v96v76v45v31l-4 25q-2 23 -22 77v2q-56 157 -142 383l-71 195l-4 14l-5 9l-10 28q0 1 -4 13l-6 18q-2 2 -2 10q0 13 6 19q9 14 39 14h53q23 0 25 2h4q24 0 33 -18q6 -8 12 -25l2 -8l25 -60v-4l16 -39l16 -41l25 -65
l12 -37l10 -27l13 -32l8 -25l37 -98l16 -45q0 -4 2 -6q1 -2 5 -2t6 2l2 6l14 43l39 100l8 25l14 34l9 25l14 37l24 63l17 43l14 37l2 6l25 60l2 6l12 27q10 16 41 16h10h13h14h16h21h2h4h10q15 -3 25 -16q4 -12 4 -17q0 -6 -4 -18q0 -1 -8 -23l-13 -33l-6 -18
q-43 -120 -74 -195q-28 -71 -34 -92l-62 -161l-35 -95l-22 -65q-19 -55 -19 -70l2 -55v-25v-100v-84v-70q2 -18 2 -92v-14v-109v-41q0 -5 0.5 -19.5t0.5 -29.5t-1 -31v7v-31q-9 -31 -32 -37h-17h-8h-6h-27h-34h-5h-8q-19 0 -28 6z" />
    <glyph glyph-name="Z" unicode="Z" horiz-adv-x="757" 
d="M51 14q-10 17 -10 29q0 21 8 37q1 2 2 7t3 11.5t5 12.5l2 10q11 31 31 92q20 64 53 154l60 170l12 32l78 213l67 181q22 56 46 133l38 118q35 106 43 138q3 14 -10 14h-55h-68h-96q-73 0 -96 -2h-66q-26 0 -35 12q-10 7 -12 19t0 39v16v31q0 18 4 30q13 23 39 23l254 -2
h21l127 2l127 2q51 0 57 -2q24 -3 35 -21q2 -4 2 -18q0 -20 -8 -41q-1 -4 -5 -16.5t-12.5 -37.5t-15.5 -48l-8 -29q-59 -174 -68 -195q-45 -128 -59 -172q-11 -27 -35 -98t-41 -115l-33 -94q-90 -244 -125 -350l-14 -37q-2 -7 -12.5 -37t-14.5 -45q-2 -5 1 -8.5t9 -3.5h11
h22h45l58 -2l98 2h74h14h27h20h21q22 0 30 -8q15 -12 15 -35v-23v-49v-16q0 -11 -6.5 -21.5t-16.5 -11.5q-12 -4 -29 -4h-8h-18h-23h-18h-41h-57h-25h-59h-72h-201h-8h-20q-44 0 -58 14z" />
    <glyph glyph-name="bracketleft" unicode="[" horiz-adv-x="673" 
d="M504 -37h-336q-22 0 -31 12q-14 8 -14 35v125v316v913l2 195q0 27 20 36q12 4 29 4h6h45h72h72h69h29h22h9h6q45 0 45 -43q2 -8 2 -45q-2 -6 -2 -22v-2v-4q0 -18 -6 -27q-13 -16 -31 -16h-27h-32h-4q-8 2 -41 2l-78 -2h-27q-14 0 -14 -15l-2 -387l-2 -256v-135
q2 -47 2 -213v-80q0 -61 2 -88v-18v-113q0 -14 14 -14l203 2q18 0 31 -10q12 -12 12 -35v-68q0 -23 -12 -35t-33 -12z" />
    <glyph glyph-name="backslash" unicode="\" horiz-adv-x="913" 
d="M739 -8h-61q-30 0 -45 12q-6 4 -11 12t-8 14l-2 7l-485 1452q-1 4 -2 9l-1.5 7.5t-0.5 3.5q0 17 12 29q13 10 33 10l57 2h4q18 0 35 -10q13 -10 23 -33l368 -1077l131 -379q6 -18 0 -33q-9 -26 -47 -26z" />
    <glyph glyph-name="bracketright" unicode="]" horiz-adv-x="673" 
d="M135 -31q-12 12 -12 35v68q0 23 14 34q11 11 29 11l203 -2q14 0 14 14q2 25 2 113v18v90v78q2 47 2 215q0 102 2 133q-2 57 -2 256l-4 387q0 15 -14 15h-25q-18 2 -78 2h-41l-4 -2h-33q-22 0 -28 2q-21 0 -29 14q-8 8 -8 31v2v22v47q6 41 47 41h4h6h25h31h69h72h72h45h4
q16 0 28 -4q23 -10 23 -37v-194l2 -914q0 -245 -2 -315v-125q0 -23 -12 -35q-13 -10 -33 -10h-334q-22 0 -35 10z" />
    <glyph glyph-name="asciicircum" unicode="^" horiz-adv-x="684" 
d="M201 1638q-6 2 -25 17l-16 12l-2 2q-35 21 -35 43q0 16 22 45l19 25l16 24q99 152 131 187l2 4q16 16 29 16t29 -16l2 -4q32 -35 131 -187l16 -24l19 -25q16 -20 22 -39v-6q0 -22 -35 -43l-2 -2l-16 -12q-19 -15 -25 -17q-9 -6 -18 -6q-18 0 -31 19l-18 24l-8 13l-33 49
l-6 6l-2 4q-6 4 -17 22q-2 5 -7 5t-9 -5q-7 -12 -17 -22l-2 -4l-6 -6l-33 -49l-8 -13l-18 -24q-13 -19 -31 -19q-9 0 -18 6z" />
    <glyph glyph-name="underscore" unicode="_" horiz-adv-x="985" 
d="M369 -258h-224q-35 2 -149 2v141h270l486 -2q184 0 237 2v-141h-31q-367 0 -471 -2h-118z" />
    <glyph glyph-name="grave" unicode="`" horiz-adv-x="479" 
d="M319 1591h-18h-12h-17h-2q-10 0 -26 4q-13 13 -17 21l-45 100l-30 74l-13 25q0 1 -0.5 2t-1.5 3.5t-2 4.5l-12 30q-4 12 -4 17q0 12 8 20q12 15 41 15h8h6h19h35q37 -3 49 -45l2 -11q16 -36 18 -53l29 -84q4 -10 9.5 -28.5t8.5 -24.5q0 -1 0.5 -2t1.5 -3.5t2 -4.5
q4 -20 4 -27q0 -12 -6 -18q-4 -15 -28 -15h-7z" />
    <glyph glyph-name="a" unicode="a" horiz-adv-x="903" 
d="M115 0h-17h-16q-25 0 -33 14q-12 15 -6 35l4 23l31 129q2 7 16 63l17 64l10 41q1 7 2.5 14.5t3 14.5t2.5 10q2 14 16 69l11 45q10 39 57 252q0 1 41 187l27 116l6 25l18 69q30 117 31 121l26 111q1 9 5 23t4 16l6 35l4 16q0 15 8 23q12 18 41 18h4h29q41 0 53 2
q32 0 41 -33q1 -3 2.5 -10t3 -14.5t2.5 -14.5l8 -37l17 -92q5 -15 10 -53l18 -102l15 -64l10 -53q7 -27 8 -37q3 -13 14 -67.5t17 -77.5l6 -31q15 -50 17 -72l18 -90l18 -90l15 -72l12 -53l18 -82l23 -108l20 -86l19 -78l8 -51q6 -24 6 -31l-4 -17l-6 -8q-9 -9 -25 -12h-8
h-8h-6h-21h-28h-21q-28 0 -37 37l-14 72q-3 8 -14 59l-25 115l-2 6q-18 69 -25 121q-9 30 -12 61l-2 8q-3 15 -16 15h-47h-45h-4h-156h-4q-18 0 -21 -15v-4l-28 -141l-19 -92q-6 -33 -10 -43l-2 -6l-12 -52l-13 -51l-4 -18l-6 -29q-7 -22 -18.5 -32.5t-34.5 -10.5h-12h-7h-6
h-10h-14zM362 651l50 2h88h55q10 0 10 11q0 6 -4 22l-16 72l-17 86l-10 49q-1 7 -8.5 49.5t-13.5 69.5l-25 121l-4 20q0 5 -3 5t-3 -5l-6 -25q-16 -67 -17 -73l-16 -72l-25 -111l-24 -108q-2 -10 -5 -24.5t-8.5 -36t-9.5 -37.5v-2q0 -5 4 -9t8 -4z" />
    <glyph glyph-name="b" unicode="b" horiz-adv-x="833" 
d="M301 0h-43h-37h-10h-25q-35 0 -47 4q-20 11 -20 39l2 209v164l-2 45v270q0 368 2 483v72v133v25v26v7v6q0 24 12 39q15 12 39 12h23h24h82h49h21q82 0 121 -8q126 -21 192 -137q57 -92 57 -213q0 -191 -114 -299q-9 -9 2 -19q26 -18 47 -39l47 -49q25 -34 51 -82
q39 -79 39 -217q0 -163 -84 -295q-58 -88 -174 -137q-67 -29 -195 -39h-59zM334 940l33 2q60 2 94.5 12t58.5 35q58 64 58 185q0 63 -24 113t-62 69q-37 16 -95 16h-14h-14h-4h-7q-47 0 -61 -2q-14 0 -14 -14v-107v-121v-143v-33q0 -14 14 -14q31 0 37 2zM297 156h4
q62 0 74 2q63 9 104 30q90 44 129 115t39 189q0 121 -55 188q-39 45 -86 68q-44 23 -111 26h-49h-35h-14q-6 0 -10 -4.5t-4 -9.5q0 -50 -2 -60v-194q0 -260 2 -336q0 -6 4.5 -10t9.5 -4z" />
    <glyph glyph-name="c" unicode="c" horiz-adv-x="892" 
d="M852 391q-21 -144 -80 -244q-44 -83 -123 -129q-66 -38 -160 -38h-4q-99 2 -179.5 57.5t-131.5 157.5q-69 134 -92 254q-31 146 -31 325q0 98 12 184q20 137 43.5 223t65.5 160q83 152 209 195q47 15 100 18h8q97 0 152 -38q66 -45 119 -146q46 -90 61 -199q2 -2 2 -12
q0 -33 -26 -37q-2 -2 -15 -2h-6h-2q-14 0 -18 2h-19h-20q-6 -2 -23 -2h6h-4q-20 0 -32 6q-17 10 -17 29q-25 117 -67 174q-42 60 -99 60q-24 0 -63 -17q-26 -12 -50.5 -35.5t-37.5 -48.5q-5 -8 -9.5 -16t-9 -18t-7.5 -16t-7.5 -19t-7 -19t-8 -22.5t-7.5 -23t-8.5 -28.5
t-9.5 -30l-4 -15q-21 -78 -29 -194q-6 -65 -6 -127q0 -184 53 -338l2 -10q1 -7 8.5 -26.5t23 -53.5t34.5 -64q67 -110 158 -110h6q56 3 94 41q29 29 51 96l12 35l13 59q2 4 2 14q6 22 14 27q8 8 29 8h4h24h27h19h16h4q11 0 23 -4q24 -9 18 -43z" />
    <glyph glyph-name="d" unicode="d" horiz-adv-x="919" 
d="M190 0h-10q-37 0 -49 18q-8 8 -8 60v12v57v35q0 52 -2 66v94q-2 47 -2 213q0 274 6 532v127v78v78v96v11q0 34 14 45q12 12 92 12q6 2 29 2q78 0 146 -8q197 -21 303 -160q82 -101 127 -293q23 -107 32 -278q3 -83 -12 -203l-6 -43q-23 -147 -72 -250q-42 -79 -100 -137
q-42 -42 -99.5 -78t-111.5 -53q-89 -28 -160 -31h-4q-58 -4 -72 -2h-22h-19zM418 193q58 21 114 71q77 70 101 131q22 49 31 80q38 115 38 281q0 220 -53 391q-13 46 -51 94q-35 44 -64.5 70t-64.5 39q-36 12 -82 18h-8q-6 2 -47 2h-15h-18q-6 0 -10 -4.5t-4 -9.5v-15v-92
q-2 -14 -2 -65l2 -441q0 -251 2 -323v-35v-25q0 -81 2 -108v-8q0 -48 2 -62q0 -6 4 -9.5t10 -2.5q58 3 113 23z" />
    <glyph glyph-name="e" unicode="e" horiz-adv-x="811" 
d="M508 0h-207h-8h-37h-45h-18h-25h-12q-34 0 -37 35v31v12v8v41v47v27v12v16v72v61v62v49v64v69v74v86q0 27 2 33v32v19v49q-3 71 0 141l2 93v120v52q-2 10 -2 47v63v76q0 22 12.5 32.5t28.5 10.5h20l31 2l20 -2h37h6h21q71 0 94 -2h105h45l127 2h32q6 -2 25 -2q25 0 33 -8
q10 -10 10 -33q2 -16 2 -78v-4q0 -21 -10 -31q-12 -12 -33 -12h-113h-86h-79h-68q-14 -2 -59 -2h-27q-6 0 -10 -4.5t-4 -9.5v-125v-82q0 -72 2 -90v-27v-70q0 -14 14 -14t16 2h45h23h16h41q8 2 39 2q48 0 60 2h10h2q26 0 35 -20q4 -6 5 -14t1 -9v-4v-39v-4q2 -6 2 -33
q0 -4 -4 -20q-8 -25 -29 -25q-10 -2 -51 -2h-21h-69h-70h-18h-6h-27q-5 0 -8.5 -5t-3.5 -11v-33q-3 -49 0 -100v-27q0 -83 2 -110v-84q2 -25 2 -123v-72v-25q0 -14 14 -14q77 0 100 -2h95h61l68 2h35l24 -2h59q38 0 43 -37q3 -15 0 -29v-10v-6v-33v-4v-6q0 -30 -22 -43
q-12 -4 -23 -4h-61h-55h-39h-80z" />
    <glyph glyph-name="f" unicode="f" horiz-adv-x="782" 
d="M207 0h-23h-22q-39 0 -39 37v12v14v111v107v63v72v63v70l-2 151q0 103 -2 134v16v49q0 110 2 141v93q0 49 2 63v64l-2 45v47q0 37 -2 47v92q1 23 14 33t29 10h20l31 2l20 -2h37q80 0 103 -2h112h56l127 2q22 0 28 -2h21q19 0 28 -6q17 -10 17 -35l-2 -78q0 -27 -8 -35
q-12 -12 -35 -12h-101h-86h-86h-65q-12 -2 -57 -2h-29q-6 0 -10 -4.5t-4 -9.5q0 -94 2 -125v-82v-29v-61v-27q0 -54 2 -70q0 -14 14 -14l16 2h45q60 0 76 2h43l58 2h12h2q26 0 35 -20q4 -12 4 -23v-4q2 -8 2 -39v-4l2 -22l-2 -25q-4 -16 -13 -23.5t-18 -7.5q-10 -2 -53 -2
h-19h-69h-70h-20h-6h-25q-6 0 -10 -5t-4 -11v-33v-100l2 -27q0 -83 2 -110v-101v-137l2 -102q0 -54 2 -68v-47q0 -27 -25 -33q-8 -4 -16 -4h-43z" />
    <glyph glyph-name="g" unicode="g" horiz-adv-x="913" 
d="M281 53q-74 51 -125 148q-105 205 -105 583v78q5 195 46.5 342t142.5 252q44 47 107.5 72.5t133.5 25.5q49 0 105 -16q90 -27 153 -117q42 -56 64 -121q14 -35 20 -77l6 -27l5 -20l2 -15q0 -28 -25 -37q-12 -4 -29 -4h-6h-4h-39h-8h-12h-13q-32 3 -41 41l-2 10l-6 25
l-18 68q-28 73 -72 100q-36 22 -78 22q-38 0 -76 -19.5t-63 -51.5q-61 -82 -85 -192t-32 -294l-2 -63q0 -153 31 -322q34 -161 111 -241q53 -56 120 -56l31 3q35 6 67.5 34t49.5 66q36 73 39 149q6 76 6 140v24q-2 6 -2 35v4q0 14 -14 14h-25h-37h-29h-2h-28h-23h-39
q-22 3 -26 7q-25 11 -21 45v2v18v10v27l-2 23q0 20 10 30q13 13 29 13q10 2 37 2h16h74h31h65h66h41h6q28 0 43 -15q12 -9 12 -35v-63v-92v-17q0 -83 -4 -153q-10 -113 -41 -199q-41 -109 -141 -178q-85 -61 -184 -61q-110 0 -211 73z" />
    <glyph glyph-name="h" unicode="h" horiz-adv-x="944" 
d="M713 0h-11h-2q-21 0 -30 12q-11 11 -11 25v45v37q-2 8 -2 45v145q-2 18 -2 84v90v41v15v53q-2 12 -2 55v70v26v25q0 14 -14 14h-6h-25h-65q-6 -2 -27 -2h-16h-17h-55h-59h-58q-14 0 -14 -14l2 -23v-34v-35v-103v-92q2 -23 2 -92v-102v-68q0 -56 2 -70v-34l2 -37v-10v-13
q0 -10 -4 -30q-10 -23 -41 -23h-29h-32h-19h-4q-25 0 -31 2q-24 12 -24 37q0 280 -2 358v215l2 248q2 55 2 246v24v177v55v35v73v5v10q0 14 4 26q10 23 39 23l35 2q14 0 18 -2h25h2q32 0 41 -12q6 -9 6 -25v-2v-35v-10v-10v-10v-41v-27v-12v-9v-131v-110q1 -14 1 -26.5
t-0.5 -24.5t-0.5 -17v-37v-39q3 -14 16 -14h2h23h149h146h10q14 0 14 14v2l-2 41v17v26l-2 84v97q0 122 -2 159v66q3 28 0 49q0 34 43 37l31 2l27 -2h26h14q31 0 37 -35v-24v-172v-70v-59v-62v-51v-64v-69v-74v-84v-35q-2 -6 -2 -33v-161l-2 -140v-118v-9v-43q2 -10 2 -47
v-65q3 -37 0 -76q0 -22 -12.5 -32.5t-28.5 -10.5h-26h-21h-6h-16z" />
    <glyph glyph-name="i" unicode="i" horiz-adv-x="759" 
d="M156 0h-31q-43 3 -43 43v25v22v6v27v2q0 21 10 31t27 10l22 2h21h16h15h43h6q26 0 34 2q15 0 15 14v11q-4 394 -4 444v178l2 393v39v86v21q0 14 -15 14h-10h-39h-24h-37h-29h-16q-13 0 -24.5 9t-12.5 30v53v35q0 32 35 35l22 2h6q14 -2 76 -2h76q14 2 65 2h58h63h31h12
h39l39 2l31 -2q43 -3 43 -41v-25v-20v-6v-25v-4q0 -20 -12 -29q-10 -10 -25 -10h-23h-20h-16h-15q-10 -2 -43 -2h-6h-31q-14 0 -14 -14v-8q-2 -35 -2 -156v-311l-2 -170l-2 -187q0 -96 2 -123v-124v-95q0 -14 14 -14h13h39l24 2l37 -2h29h18q33 0 35 -39v-55v-39
q0 -32 -35 -35l-22 -2h-7q-14 2 -75 2h-76q-52 0 -66 -2h-57h-64h-30h-13h-38h-39z" />
    <glyph glyph-name="j" unicode="j" horiz-adv-x="837" 
d="M379 -20h-14q-91 3 -158 53q-66 48 -109 129q-27 48 -41 153l-2 9q-11 89 -14 208v50v30q0 16 10 25.5t23 11.5q4 2 18 2h17h16h16h19h2h6q28 0 37 -12q10 -10 10 -37v-2v-59v-43v-37q0 -157 66 -248q34 -49 88 -55q4 -2 22 -2q49 0 76 24q28 25 45 56q24 46 33 141
q4 70 4 162v36q2 41 2 187v178v168v14q0 140 -2 183v32v9q0 13 -14 16h-62h-57h-15q-66 0 -84 -2h-81h-23h-29q-49 0 -63 2q-13 0 -25 4q-17 8 -20 31v28v11v4v35v4v6q0 34 24 43q12 4 23 4h10h55l60 2h45h45h133q23 -2 107 -2h4h32h33h19h2h4q22 0 30 -8q15 -9 15 -29v-33
v-14v-41v-74l-2 -28v-205v-58q0 -81 2 -104v-121v-76q2 -6 2 -36v-33v-66v-51v-68q0 -95 -2 -118q-9 -135 -53 -226q-55 -106 -166 -147q-53 -16 -119 -16z" />
    <glyph glyph-name="k" unicode="k" horiz-adv-x="854" 
d="M139 12q-10 10 -10 25v45v37l-2 43v147v84v90q-3 20 0 41v15l-2 53v55v70v26v64v98l-2 27q0 83 -2 108v86l-2 97v159v66v49q0 24 20 33q12 4 19 4h30h27h25h14q33 0 35 -35v-24v-172v-70v-62v-59v-49v-57q0 -2 2.5 -2.5t3.5 0.5q21 36 55.5 100t50.5 90l19 35l57 98
l92 162q23 33 27 35q13 10 45 10h18h15h12h14h15l8 2q26 0 35 -18q1 -3 2 -6.5t1.5 -5.5t0.5 -3q0 -6 -4 -16l-4 -10l-33 -54q-4 -5 -8.5 -14.5t-7.5 -13.5q-41 -63 -89 -154q-6 -9 -13 -23l-9 -18q-30 -54 -37 -65q-30 -46 -70 -127q-16 -29 -20 -33l-10 -21l-8 -14
q-7 -10 -21 -37l-10 -16q-5 -14 6 -17l8 -4q53 -22 88 -53q27 -21 51 -51q47 -63 66 -127q34 -106 55 -260q9 -78 37 -158q18 -63 53 -117q6 -9 25 -28q4 -5 10 -11l4 -4q13 -10 13 -24q0 -12 -5 -17q-10 -16 -36 -16h-15h-39h-30h-31q-22 0 -35 10q-10 7 -27 35
q-55 84 -73 188q-5 30 -10.5 71.5t-8.5 55.5q-1 5 -2 20.5t-3 33.5t-5 37q-11 74 -25.5 116.5t-46.5 85.5q-59 77 -139 80q-14 0 -14 -14q-2 -4 -2 -19q1 -32 1 -63t-0.5 -59t-0.5 -37v-140l-2 -118q0 -42 2 -52v-47v-71q0 -5 0.5 -17t0.5 -24.5t-1 -26.5q0 -22 -6 -31
q-8 -14 -35 -14h-15h-28h-6h-15q-34 0 -43 12z" />
    <glyph glyph-name="l" unicode="l" horiz-adv-x="813" 
d="M543 0h-131l-107 2q-43 0 -57 -2h-53h-29q-28 0 -41 25q-6 12 -6 34v4v50v12v47v31l2 147v72l-2 227v221v91l2 143q2 35 2 158v112q-2 25 -2 115q0 31 24 43q6 2 29 2h4h17l30 2l29 -2q29 0 39 -23q4 -12 4 -43v-10q0 -29 -2 -37v-35v-69q-2 -14 -2 -68v-102v-92v-92
q-2 -23 -2 -103v-203q-2 -59 -2 -276v-133v-45l2 -17q0 -14 14 -14h103q72 0 92 -2l63 2l74 2h27h26q44 0 58 -2q15 0 24 -6q16 -9 19 -29q2 -6 2 -31q-2 -2 -2 -10v-4v-35v-2v-8q0 -31 -23 -41q-9 -6 -23 -6h-10h-51h-53h-41h-47z" />
    <glyph glyph-name="m" unicode="m" horiz-adv-x="1058" 
d="M219 0h-26h-25h-12q-34 0 -37 35v24v172v70v59v62v49v66v69v74v84q0 29 2 35v32v162l2 140v118v52q-2 10 -2 47v65v76q3 43 41 43h24h19h4h18q40 0 54 -14q2 -2 20 -31l2 -4l19 -43l16 -45l20 -51l27 -68l27 -61l28 -74q11 -35 37 -92l19 -52l6 -16l2 -6l22 -59
q2 -4 6 -4t5 4l12 30l24 62l78 202l25 64l26 65q9 17 21 56l14 35l17 45l10 30q9 27 41 27l29 2l30 -2h17h4q24 0 30 -2q23 -13 23 -37q0 -280 2 -358v-213q0 -195 -2 -250l-2 -246v-25q0 -133 2 -174q0 -43 -2 -55v-35v-73v-5v-10q0 -12 -4 -24q-9 -22 -39 -25h-33h-16h-23
h-2h-4q-21 0 -29 8q-14 8 -14 31l-2 31v14q0 21 2 27v24v37v12v9l2 131l-2 110v66v37v53l-2 76v84l-2 18v21v36v33v103q0 63 -2 81q-1 3 -4 3l-39 -105q-1 -1 -2 -3.5l-3 -7.5t-3 -9l-51 -144l-31 -73q-4 -17 -10 -23l-9 -18q-6 -16 -15 -20.5t-28 -4.5h-12h-10h-55h-5h-4
q-12 0 -24 4q-12 8 -21 29v2l-10 20q-1 5 -4 12t-4 9l-21 51l-6 12l-51 144l-18 53l-39 104q-1 1 -3.5 0.5t-2.5 -2.5l2 -26v-41v-15v-53l2 -55v-72v-24v-64q-3 -46 0 -98v-27q0 -83 2 -110v-84q2 -18 2 -97v-159v-66v-49q0 -27 -21 -33q-12 -4 -20 -4h-29z" />
    <glyph glyph-name="n" unicode="n" horiz-adv-x="960" 
d="M786 -2h-18h-20h-54q-29 0 -43 14q-13 10 -22 43l-11 31l-12 29q-6 28 -28 88q-56 170 -86 243l-56 156l-24 70l-47 129l-56 162q-1 1 -3.5 0.5t-2.5 -2.5v-35v-72v-86v-33v-35v-20v-191q0 -190 -2 -245v-74v-68l-2 -57q0 -47 -45 -47h-4l-25 2q-16 0 -20 -2h-35
q-22 2 -36.5 14.5t-14.5 34.5v72v74v65q0 82 2 109v139v69l-2 132l2 124v89v122l2 351v92q0 20 12 35q19 16 53 16q15 0 19 -2h12h6h19h22q27 -3 43 -25q10 -14 13 -30l16 -43l90 -275l66 -198l81 -238q7 -18 78 -229v-4q1 -2 3.5 -2t2.5 2v28v137l3 252l-3 193
q-2 35 -2 153v103q2 18 2 88v33v10q3 40 35 43q6 2 37 2h17h8h10q31 0 44.5 -3.5t23.5 -14.5q8 -13 8 -27l-2 -72v-71q2 -18 2 -86l-2 -281v-268v-338v-281v-8v-16q0 -45 -15 -60q-13 -10 -39 -10z" />
    <glyph glyph-name="o" unicode="o" horiz-adv-x="929" 
d="M240 92q-116 134 -158 354q-31 169 -31 338q0 77 10 197q11 121 41 213q36 119 86 192q32 48 54 70q92 98 229 98q43 0 86 -12q112 -30 188 -147q50 -85 86 -209q30 -109 43 -305q5 -68 5 -123q0 -106 -9 -189q-11 -117 -47 -241q-49 -145 -129 -248q-78 -97 -223 -100
h-4q-134 0 -227 112zM477 139h15q40 1 73.5 38t55.5 83q55 108 71 254l10 90q7 116 7 201q0 175 -31 311q-16 67 -33 115q-59 157 -174 166h-10q-73 0 -109 -54q-65 -90 -86 -190q-45 -170 -45 -379q0 -142 29 -293q34 -165 104 -266q30 -44 55.5 -60t67.5 -16z" />
    <glyph glyph-name="p" unicode="p" horiz-adv-x="780" 
d="M225 0h-30h-17h-4q-23 0 -29 2q-24 12 -24 37q0 280 -2 358v215l2 250q2 53 2 246v27v172q-3 27 0 55v35v73v5v10q0 12 4 24q9 25 39 25l33 2l16 -2h33h14q8 1 17 1t18 -0.5t12 -0.5h58l22 2q61 0 119 -10q91 -15 154 -84q57 -63 81 -152q9 -34 15 -90l2 -61
q0 -235 -117 -355q-79 -79 -205 -106q-58 -13 -133 -16q-14 0 -14 -15q0 -60 2 -76v-92v-92v-102v-64q2 -16 2 -74v-32q2 -10 2 -39v-10v-13q0 -18 -4 -30q-10 -23 -39 -23h-29zM340 844q73 5 120.5 19t76.5 44q19 22 32 51q35 75 35 177q0 4 -4 82q-5 43 -30.5 81.5
t-61.5 55.5q-25 14 -100 14h-29h-68h-10q-14 0 -14 -14v-4v-9v-131v-110v-68v-41v-37v-34q0 -46 2 -58v-6q0 -14 14 -14q31 0 37 2z" />
    <glyph glyph-name="q" unicode="q" horiz-adv-x="1007" 
d="M281 53q-74 55 -125 154q-57 112 -81 252t-24 327v80q5 193 46.5 339t142.5 251q92 98 243 98q49 0 105 -16q126 -38 203 -197q67 -130 90 -307q14 -106 14 -258v-67v-9q-3 -117 -10 -196q-15 -134 -56 -250q-2 -2 -2 -10q0 -3 4 -15q6 -8 11 -18l41 -66l22 -36l39 -60
q12 -15 12 -35q0 -12 -2 -14q-11 -20 -43 -20h-4h-12h-27h-43h-12q-19 0 -25 2q-13 3 -26 16l-29 45l-8 14q-7 10 -18 2l-19 -14q-95 -65 -199 -65q-114 0 -208 73zM489 147l15 3q12 0 16 2q38 6 72 32q11 8 22 23q8 8 2 22l-6 11l-51 77l-24 35l-23 35l-57 88l-2 4
q-19 32 -11 49q9 21 39 21h15h12h12q65 0 90 2q27 0 39 -21l2 -4l19 -30q2 -2 10 -19l12 -20q2 -2 6 -2t4 4l5 22v8q7 57 10 148l2 57q4 94 4 103q0 115 -16 227q-27 158 -72 250q-23 50 -62 83.5t-92 33.5q-38 0 -76 -20t-61 -52q-65 -89 -86 -203q-22 -121 -31 -291v-63
q0 -310 86 -481q28 -54 56 -82q55 -52 120 -52z" />
    <glyph glyph-name="r" unicode="r" horiz-adv-x="847" 
d="M225 0h-30h-17h-4q-23 0 -29 2q-24 12 -24 37q0 278 -2 356v217l2 250q2 53 2 246v27v172q-3 27 0 55v35v73v5v10q0 12 4 24q9 25 39 25l33 2l16 -2h10h4h2l43 2l35 -2h58h22q83 0 119 -8q125 -21 194 -137q56 -100 56 -213q0 -87 -29.5 -165.5t-83.5 -133.5
q-32 -32 -65 -52l-19 -12q-5 -2 -5.5 -6.5t3.5 -9.5l12 -15q44 -52 72 -135q22 -62 37 -201q2 -26 8 -71q9 -65 33 -156q21 -70 55 -119q2 -4 27 -28l10 -13q22 -13 12 -36q-2 -8 -10.5 -15.5t-21.5 -7.5h-15h-18h-21h-28h-33q-22 0 -35 10q-16 16 -27 35q-54 86 -73 193
q-7 32 -17 129l-12 92q-11 75 -26 119.5t-46 87.5q-6 10 -30 34q-22 22 -60 37q-31 10 -47 13h6q4 0 -4 2q-6 0 -11 -4.5t-5 -10.5v-28v-35q0 -80 2 -103v-92v-92v-102v-64q2 -16 2 -74v-34q2 -8 2 -37v-10v-13q0 -18 -4 -30q-10 -23 -39 -23h-29zM344 928q75 5 120.5 18.5
t72.5 46.5q63 72 63 191v28q-5 44 -30 83.5t-62 58.5q-25 14 -100 14h-29h-68h-10q-14 0 -14 -14v-6v-9v-133v-112v-68v-35v-51q0 -14 14 -14h2q33 0 41 2z" />
    <glyph glyph-name="s" unicode="s" horiz-adv-x="745" 
d="M215 20q-43 22 -68 54q-74 74 -92 194q0 5 -4 25l-6 49l-4 37v4v16q9 31 39 31q16 0 20 2h21h18q6 -2 23 -2l8 2l6 -2q13 0 22.5 -9.5t10.5 -27.5v-10v-12q6 -73 24 -119t54 -76q35 -24 78 -24q56 0 92 36q61 70 61 181q0 84 -34 169.5t-89 143.5q-54 58 -139 133l-14 12
q-185 170 -185 369q0 52 15 104q18 90 96 168q86 86 221 86q19 0 25 -2q69 -6 135 -41q65 -39 100 -98q36 -56 45 -158l2 -47v-6v-8q0 -24 -12 -33q-13 -10 -35 -10h-16h-19h-16h-14h-15h-10q-15 0 -24 6q-19 15 -19 45v2q0 27 -2 33l-10 53q-27 90 -127 90q-42 0 -75.5 -27
t-45.5 -71q-12 -38 -12 -88q0 -82 35 -135q49 -68 73 -92l70 -70l67 -66q150 -153 199 -344q17 -63 17 -127q0 -32 -11 -104q-35 -151 -147 -229q-71 -47 -168 -47q-94 0 -164 40z" />
    <glyph glyph-name="t" unicode="t" horiz-adv-x="835" 
d="M457 0h-8h-27h-10h-23h-18h-2q-38 0 -47 20q-5 15 -5 23v94v45v41q0 74 2 94v21v137v78v49v86v92q-2 55 -2 246v70v135v100v17q0 14 -14 14l-31 2l-69 -2h-6h-27l-57 -2h-11h-10h-4q-20 0 -29 6q-16 13 -16 37l-2 10v45q2 4 2 23q-3 6 0 12q0 18 6 27q11 14 31 14h18h17
h26h35h78q16 -2 76 -2h28h33h25h76q33 2 143 2h18l41 2l60 -2h2q19 0 28 -12q9 -9 9 -27v-41v-22v-15v-4l2 -10q0 -21 -13 -31q-10 -10 -24 -10l-117 -2h-12l-88 2h-29q-14 0 -14 -14v-13v-4q2 -98 2 -444v-176q2 -78 -2 -392v-38l2 -220v-14q0 -47 -43 -47z" />
    <glyph glyph-name="u" unicode="u" 
d="M455 -20h-15q-97 3 -164 53q-72 51 -112 129q-27 46 -39 121q-14 68 -14 245v7l-2 55v55v72v24v64v98l-3 27q0 83 -2 110v84l-2 97v159v66v51q0 24 21 33q6 2 18 2q6 2 33 2h25h24h15q32 0 34 -37q2 -4 2 -22l-2 -172q2 -14 2 -70v-62v-61v-49l-2 -66v-69v-74v-84v-35
v-33q0 -74 2 -94q0 -27 2 -35v-10l3 -108q2 -82 16.5 -138t50.5 -104q35 -44 96 -53q6 -2 25 -2q56 0 82 26q30 23 47 56q24 40 33 139q6 72 6 162v36l2 189l-2 178v168v12v185q-3 27 0 55v47q0 19 -2 25v43v4v10q0 19 8 27q10 16 35 16h26h21h2h12h17h4h4q23 0 31 -8
q14 -11 14 -31v-31v-14v-41v-74l-2 -30v-203v-58q0 -81 2 -104v-123v-74q2 -6 2 -34v-35v-68v-51v-68q0 -93 -2 -116q-5 -77 -16 -127t-39 -103q-58 -105 -172 -145q-56 -16 -125 -16z" />
    <glyph glyph-name="v" unicode="v" horiz-adv-x="841" 
d="M322 33q-9 35 -9 37l-6 39q-14 71 -16 90l-10 53l-17 102l-24 125l-19 94l-18 95l-19 88l-16 90q-2 31 -16 90l-15 72q-5 15 -10 53q-15 71 -16 84l-23 106l-18 88q-1 8 -17 78l-10 62l-2 10v4v4q0 17 8 25q12 12 29 12h12h8h49h9h18q29 0 35 -37l4 -18q0 -11 2 -13
q6 -45 10 -61l2 -6l27 -133l2 -9l10 -51q2 -22 8 -39l15 -75l12 -54l2 -16l21 -100l14 -84l6 -37l18 -99l13 -67l2 -6q4 -34 20 -115l15 -76q0 -2 2 -2t4 2l6 33l14 74l17 67l18 78q39 202 53 293l6 33l27 143l25 133l10 41v8l12 50l12 51l5 20l6 29q9 43 51 43h10h6h4h11
l14 2l18 -2h19q22 0 31 -12q4 -4 6 -9.5t2.5 -10t0.5 -8v-6.5l-1 -3l-6 -21q-7 -40 -29 -131l-14 -63l-15 -64q-8 -38 -8 -41l-8 -39l-14 -69q-6 -18 -11 -43q-4 -18 -11.5 -53t-19 -92t-22.5 -109l-37 -187l-26 -116l-7 -23q-3 -27 -16 -72l-29 -120l-22 -111l-8 -39
l-6 -37l-5 -14q0 -12 -6 -21q-11 -20 -41 -20h-2h-28h-50q-34 0 -38 33z" />
    <glyph glyph-name="w" unicode="w" horiz-adv-x="1081" 
d="M776 0h-18q-24 3 -31 33l-4 18q-5 36 -10 49v13l-4 16l-13 68l-10 47l-14 80q-12 59 -35 176l-21 123l-24 129q-10 70 -25 135l-18 94q-6 17 -8 35q-1 2 -3.5 2t-2.5 -2l-5 -31q-2 -4 -2 -16l-6 -39q-3 -20 -16.5 -96t-28.5 -164.5t-31 -184.5l-36 -223q-1 -18 -7 -43
t-6 -29l-8 -49q-7 -33 -8 -51l-4 -20l-4 -27v-4l-2 -10q-3 -22 -27 -29h-14h-6h-5h-16h-8h-25h-6h-12h-4h-6q-16 0 -25 6q-14 11 -14 29q0 12 -2 14q0 9 -4 41q0 5 -4 37q0 1 -2 16.5t-6.5 51t-8.5 75.5l-18 144l-19 137q-36 293 -92 879l-2 8v14q-2 6 -2 21l-2 18v6
q0 37 37 37h16h12h5h12h24h3h8q24 0 35 -14q7 -11 10 -37v-6q4 -27 14 -146l8 -106l21 -178l12 -107l18 -149l23 -189q0 -2 2 -2t2 2q26 132 76 457q37 229 63 383q1 4 2 9l1.5 7.5t0.5 3.5q1 4 2 9t2 8t1 4v4q6 27 14 35q12 12 33 12h67q20 0 31 -14q6 -9 6 -19l16 -67
l7 -35l20 -101l6 -32l21 -109l18 -92q49 -248 60 -315l22 -123l2 -9q0 -2 2 -2t2 2l37 318l19 180l16 150q7 90 8 110q7 82 8 101l2 18q0 16 13 29q10 10 26 10h23h16h15l28 2l23 -2l18 -8q10 -10 10 -29q0 -32 -8 -76l-6 -41l-31 -254l-8 -92l-8 -61l-31 -275
q-48 -419 -63 -618l-2 -19q-2 -6 -2 -24q0 -19 -13 -29q-8 -8 -28 -8h-25h-22h-9h-8z" />
    <glyph glyph-name="x" unicode="x" horiz-adv-x="811" 
d="M168 0h-6h-29h-33h-20q-25 0 -33 14q-6 9 -6 21q0 13 6 22l2 9q3 9 9 28t8 25q9 30 30 88q14 40 39 98l43 115l17 45l14 37l24 69l58 154l16 41q3 19 0 29l-2 8l-24 71q-10 32 -29 74l-19 47l-10 25l-12 31q-65 160 -80 204l-43 119q-3 6 -5 12.5t-3 11.5t-2 7
q-22 69 -27 78q-6 9 -6 20q0 10 8 21q9 12 27 12h12l33 -2h25h10h18q27 0 37 -23l4 -14l2 -4q6 -19 10 -25l7 -14l28 -76l8.5 -17t6.5 -15q6 -21 23.5 -64.5t19.5 -48.5q33 -82 55 -148q4 -10 22 -63q1 -4 6 -4t5 4l61 149l31 82q24 50 59 148l12 37q11 37 29 78q9 18 39 18
h6h13l18 2l37 -2h6h4h10q17 -3 25 -14q4 -8 4 -17t-10 -39q-4 -10 -11 -30q-2 -4 -10 -27q-4 -6 -10 -23l-31 -79q-47 -118 -114 -299l-68 -175l-14 -34q-3 -15 0 -29l12 -31q3 -14 12 -28l64 -177l47 -126q12 -33 37 -99q42 -104 55 -145q8 -29 18 -51l13 -33l10 -29
q1 -3 2 -6.5t1.5 -5t0.5 -2.5q0 -9 -6 -21q-11 -14 -37 -14h-10h-2h-33h-12h-15h-6h-6h-12q-28 3 -37 27q-4 3 -6 16q-21 53 -27 76q-9 26 -26.5 75t-24.5 66l-33 90q-8 27 -69 195q-2 5 -6 5t-5 -5l-32 -94q-84 -229 -97 -263l-49 -135l-2 -8q-17 -45 -49 -45z" />
    <glyph glyph-name="y" unicode="y" horiz-adv-x="802" 
d="M324 6q-15 9 -15 31q-3 25 0 47v4q2 53 2 254v35v102v96v76v45v31l-4 25q-2 23 -22 77v2q-56 157 -142 383l-71 195l-4 14l-5 9l-10 28q0 1 -4 13l-6 18q-2 2 -2 10q0 13 6 19q9 14 39 14h53q23 0 25 2h4q24 0 33 -18q6 -8 12 -25l2 -8l25 -60v-4l16 -39l16 -41l25 -65
l12 -37l10 -27l13 -32l8 -25l37 -98l16 -45q0 -4 2 -6q1 -2 5 -2t6 2l2 6l14 43l39 100l8 25l14 34l9 25l14 37l24 63l17 43l14 37l2 6l25 60l2 6l12 27q10 16 41 16h10h13h14h16h21h2h4h10q15 -3 25 -16q4 -12 4 -17q0 -6 -4 -18q0 -1 -8 -23l-13 -33l-6 -18
q-43 -120 -74 -195q-28 -71 -34 -92l-62 -161l-35 -95l-22 -65q-19 -55 -19 -70l2 -55v-25v-100v-84v-70q2 -18 2 -92v-14v-109v-41q0 -5 0.5 -19.5t0.5 -29.5t-1 -31v7v-31q-9 -31 -32 -37h-17h-8h-6h-27h-34h-5h-8q-19 0 -28 6z" />
    <glyph glyph-name="z" unicode="z" horiz-adv-x="757" 
d="M51 14q-10 17 -10 29q0 21 8 37q1 2 2 7t3 11.5t5 12.5l2 10q11 31 31 92q20 64 53 154l60 170l12 32l78 213l67 181q22 56 46 133l38 118q35 106 43 138q3 14 -10 14h-55h-68h-96q-73 0 -96 -2h-66q-26 0 -35 12q-10 7 -12 19t0 39v16v31q0 18 4 30q13 23 39 23l254 -2
h21l127 2l127 2q51 0 57 -2q24 -3 35 -21q2 -4 2 -18q0 -20 -8 -41q-1 -4 -5 -16.5t-12.5 -37.5t-15.5 -48l-8 -29q-59 -174 -68 -195q-45 -128 -59 -172q-11 -27 -35 -98t-41 -115l-33 -94q-90 -244 -125 -350l-14 -37q-2 -7 -12.5 -37t-14.5 -45q-2 -5 1 -8.5t9 -3.5h11
h22h45l58 -2l98 2h74h14h27h20h21q22 0 30 -8q15 -12 15 -35v-23v-49v-16q0 -11 -6.5 -21.5t-16.5 -11.5q-12 -4 -29 -4h-8h-18h-23h-18h-41h-57h-25h-59h-72h-201h-8h-20q-44 0 -58 14z" />
    <glyph glyph-name="braceleft" unicode="{" horiz-adv-x="679" 
d="M432 -35q-40 8 -67 23q-67 30 -113 88q-64 82 -64 200q0 42 2 54q8 60 31 123q7 26 15 41q6 20 20 61q0 10 2 12v4q6 50 -29 91q-14 19 -41 26l-22 4h-12q-31 3 -31 37v31v14v14v29q0 34 31 37q10 0 12 2q20 0 22 2q24 9 41 29q35 41 29 88v6l-4 12l-18 62l-6 13
q-5 14 -9 26q-23 63 -31 123q-2 12 -2 53q0 118 64 203q46 58 113 88q26 11 67 22q35 6 72 6q19 0 31 -4h2q20 -11 20 -59l-2 -6q0 -19 2 -25v-33q-3 -29 -27 -35q-4 -2 -26 -2q-29 0 -33 -2q-26 -4 -49 -14q-16 -8 -37 -29q-33 -39 -33 -108q0 -32 6 -72q4 -18 27 -90
q33 -90 33 -160q0 -50 -21 -100q-12 -28 -41 -64l-4 -2q-7 -10 0 -20l4 -4q29 -37 41 -64q21 -47 21 -100q0 -19 -3 -41.5t-8 -42t-9.5 -35t-8.5 -27t-4 -12.5q-18 -51 -27 -92q-6 -38 -6 -72q0 -67 33 -106q14 -19 37 -29q9 -6 49 -16l33 -2q22 0 26 -2q24 -6 27 -35v-33
q-2 -6 -2 -24l2 -4v-15q0 -36 -20 -45l-2 -2q-2 -2 -31 -2q-38 0 -72 6z" />
    <glyph glyph-name="bar" unicode="|" horiz-adv-x="413" 
d="M291 55v-12q0 -25 -2 -29q-9 -24 -37 -24l-29 -2l-26 2h-17h-4q-17 0 -29 4q-22 9 -22 35q0 282 -2 362v217q0 197 2 252l2 250v25q0 137 -2 178v55q2 6 2 35v74v4v12q0 19 2 25q9 21 39 24h31h14h23h8q13 0 26 -10t13 -31q2 -6 2 -33v-10l-2 -28v-25v-37v-14v-8v-134
v-110v-68v-37v-53l2 -76v-86v-18q2 -6 2 -23v-36v-33v-103v-94q2 -23 2 -94v-105v-65v-72q2 -8 2 -35v-38v-11zM244 1542h-2h2z" />
    <glyph glyph-name="braceright" unicode="}" horiz-adv-x="679" 
d="M143 -39v2q-13 6 -16.5 18.5t-3.5 41.5v4v24v33q3 32 27 35q2 2 26 2l33 2q39 10 47 16q24 9 37 29q35 41 35 106q0 38 -9 72q-9 40 -24 90q-33 103 -33 162q0 52 21 98q14 31 39 64l4 4q10 10 0 20l-4 4q-17 20 -39 62q-21 44 -21 100q0 70 33 160l24 90q9 34 9 72
q0 61 -35 108q-8 13 -37 29q-18 10 -47 14q-4 2 -33 2q-24 0 -26 2q-24 3 -27 35v33v25v6v12q0 36 20 47q16 4 31 4q40 0 74 -6q19 -4 67 -22q73 -36 111 -88q66 -84 66 -203q0 -5 -2 -23.5t-3 -29.5q-6 -54 -28 -123l-15 -39l-20 -62l-2 -12l-2 -6q-3 -56 29 -88
q19 -18 43 -29q2 -2 22 -2l12 -2q31 -3 31 -37v-29v-14v-14v-31q0 -34 -31 -37h-12l-22 -4q-24 -7 -43 -26q-32 -32 -29 -91l2 -4l2 -12l20 -61l15 -41q22 -69 28 -123q1 -10 2 -22t2 -20t1 -12q0 -116 -66 -200q-38 -52 -111 -88q-36 -16 -67 -23q-35 -6 -74 -6
q-27 0 -31 2z" />
    <glyph glyph-name="asciitilde" unicode="~" horiz-adv-x="890" 
d="M426 684q-64 31 -100 31q-43 0 -58 -27q-16 -31 -43 -31q-13 0 -28 9l-9 4q-65 36 -65 69q0 29 41 70l4 2q57 57 125 66l26 2q60 0 150 -41l53 -21q21 -8 43 -8q13 0 21 4q18 7 39 37q15 24 43 24q8 0 15 -2.5t11 -5.5l4 -2l45 -33q20 -13 23 -28l2 -12q0 -14 -8 -27
q-27 -49 -86 -84q-57 -31 -117 -31q-7 0 -43 4q-24 5 -88 31z" />
    <glyph glyph-name="exclamdown" unicode="&#xa1;" horiz-adv-x="604" 
d="M295 1352q-39 0 -49 2q-19 0 -27 8q-12 12 -12 35v2v28v9v24v29q0 31 26 41q12 4 29 4l37 2l37 -2q20 0 33 -8q16 -13 16 -37v-29v-24v-9v-28v-2q0 -23 -12 -35q-14 -11 -27 -8q-12 -2 -51 -2zM322 0h-33h-29h-16q-34 0 -37 33q-2 4 -2 20v150v59v150l2 288v121
q2 27 2 119v147q-5 99 -2 162q3 43 45 43h29h22h10h17h12h2q20 0 31 -8q12 -12 12 -29v-20l2 -215q2 -14 2 -150q0 -84 2 -94v-47q0 3 0 -96l4 -203v-74q2 -18 2 -84v-137v-57v-43q0 -30 -24 -33q-4 -2 -19 -2h-34z" />
    <glyph glyph-name="cent" unicode="&#xa2;" horiz-adv-x="866" 
d="M743 627q0 -9 -6 -27l-2 -4q-3 -10 -6.5 -20.5t-7.5 -21.5t-6 -17l-17 -35q-28 -61 -86 -103q-44 -33 -84 -43q-14 -3 -14 -18v-6q0 -46 2 -58v-28v-31v-8v-10q0 -21 -2 -27q-10 -23 -35 -23h-22h-25h-12h-4q-12 0 -27 5q-20 6 -20 32v162q0 13 -15 19l-30 14
q-72 41 -122 120.5t-69 182.5q-10 62 -10 102q0 87 29 179q52 148 172 219l32 16q13 6 13 19v8v43v28v62v2v10q0 5 4 21q9 21 35 24h26h12h19h6q14 0 27 -8q12 -9 12 -29v-28v-9v-22v-21l-2 -30v-11v-6v-26q0 -14 14 -17q124 -38 176 -147q2 -2 17 -37q16 -38 24 -72
q2 -2 2 -14q0 -17 -8 -25q-8 -14 -33 -14h-55h-33q-29 0 -39 29q-14 59 -44.5 97t-69.5 38q-34 0 -66.5 -23t-52.5 -57q-55 -94 -55 -203q0 -104 55 -202q20 -33 50 -54.5t63 -21.5q64 0 106 88q10 25 16 49q6 25 33 25h33h51h8h7q21 0 30 -19q6 -9 6 -18zM471 1415h-2h2z
" />
    <glyph glyph-name="sterling" unicode="&#xa3;" horiz-adv-x="841" 
d="M123 197v75q0 15 8 23l21 20q80 100 98 246q5 38 2 101q0 5 -4 9.5t-10 4.5h-7h-10q-27 0 -33 -2h-18h-4h-8q-14 0 -24.5 9t-10.5 28v32v25v4v14q0 28 6 37q9 15 29 15h6h8h14h7q5 0 7 4t1 8l-4 10q-42 86 -52 119q-15 47 -18 90q-3 46 6 92q8 41 31 92q24 41 61 78
q39 39 88 53q46 17 95 17h4q54 0 110 -21q59 -24 101 -71q36 -39 59 -95q19 -47 29 -96q8 -57 8 -80q0 -12 -9.5 -20t-21.5 -8h-102q-12 0 -22 8t-11 20v6v11q-1 16 -8 49q-9 51 -31 80q-24 31 -49 45q-31 8 -33 8q-6 2 -24 2h-13q-32 -3 -57 -25q-34 -29 -43 -77
q-4 -20 -4 -41q0 -50 24 -105l25 -53l12 -27l4 -8q7 -9 11 -22l12 -33q8 -14 18 -14h6l41 2h43h72q12 0 20.5 -9t8.5 -22v-41v-16v-31v-15q-1 -11 -9.5 -17.5t-17.5 -6.5l-16 -2h-23h-4l-90 -2q-14 0 -14 -15v-24q0 -74 -17 -164q-12 -55 -45 -131q-2 -5 1 -9.5t9 -4.5
l318 2q35 0 35 -31v-43l2 -14q0 -25 -2 -31q0 -23 -8 -31q-17 -10 -27 -10h-107h-63h-27h-37l-292 -2q-12 0 -21.5 9t-9.5 22z" />
    <glyph glyph-name="currency" unicode="&#xa4;" horiz-adv-x="1320" 
d="M205 246l-27 26l-18 19l-2 4q-33 26 -33 49t31 47l22 21l33 34l16 17l62 59q13 12 2 23q-37 61 -49 110q-7 19 -13 60l-2 49q0 78 25 151q7 19 41 86l2 3q5 13 -4 22l-15 14l-143 144q-10 10 -10 22q0 13 8 21l33 33l10 12l25 24q16 13 20 13l8 2q12 0 23 -11l10 -8l6 -6
l17 -16l14 -15l41 -38l14 -17l58 -55q12 -12 22 -2q69 43 141 55q52 10 89 10q5 0 55 -4q74 -9 137 -41l37 -20q11 -9 22 2l13 12q99 99 143 146q8 8 23 8q14 0 22 -8q18 -15 33 -33l12 -10l23 -25q11 -8 14 -21v-8q0 -14 -8 -22l-8 -8l-9 -9l-16 -16l-12 -14l-41 -39
l-15 -17l-55 -55q-12 -12 -2 -22q14 -23 23 -41q43 -87 43 -189q0 -30 -11 -94q-15 -73 -55 -137q-10 -9 2 -21l78 -76l43 -43l10 -10l29 -31q6 -12 6 -20q0 -15 -10 -25l-27 -24l-18 -21l-2 -2q-32 -32 -51 -32q-7 0 -9 2q-11 2 -39 30l-20 21l-35 35l-14 14l-62 61
q-8 8 -22 2l-12 -6q-75 -46 -172 -55q-10 -2 -41 -2q-74 0 -138 22q-41 13 -94 44q-10 10 -22 -3l-78 -79q-19 -22 -41 -41l-10 -13q-34 -34 -52 -34q-14 0 -24 10zM768 532q85 42 125 117q24 46 29 90q4 32 4 37q0 31 -6 58q-20 92 -92.5 149t-165.5 57q-82 0 -150 -45
q-59 -43 -84 -94q-24 -46 -29 -80q-2 -6 -2 -33q0 -35 2 -45l13 -55q15 -40 43 -76q55 -74 141 -94q41 -8 66 -8q51 0 106 22z" />
    <glyph glyph-name="yen" unicode="&#xa5;" horiz-adv-x="854" 
d="M362 176q-14 11 -14 31v39v2q2 35 2 149q0 15 -14 15h-12h-52h-4h-10h-12q-13 0 -41 4q-31 8 -31 35q-4 35 -2 49v12q0 24 3 33.5t15 15.5q10 6 39 6q4 2 101 2q20 0 20 13v45q0 6 -4.5 10t-9.5 4h-41h-41h-6q-13 0 -41 4q-27 6 -33 33q-2 10 -2 51l2 25v4q0 24 19 33
q9 6 32 6h4h82q6 0 9.5 4.5t1.5 9.5q-13 38 -113 307q-40 100 -59 162l-5 10l-2 8l-10 25l-2 8l-6 17q-2 2 -2 10q0 12 6 18q9 15 29 15h8h16h15h12h8h12q25 0 35 -17l10 -20l2 -6l21 -52v-4l12 -30l15 -35l20 -53l12 -33l6 -21q8 -13 11 -28l8 -19l29 -80l10 -30q2 -1 5 -1
t5 1l10 26l31 84q1 2 4 9t4 12q6 10 10 26q1 4 4.5 11.5t4.5 9.5l10 33q3 4 20 51l17 37q1 2 2 7t3 11t5 12l2 4l21 50l2 6l10 22q14 17 37 17h10h8h12h15h18h4h8q17 -3 25 -17q4 -12 4 -16q0 -5 -4 -17q-1 -4 -3 -9l-3 -7.5t-2 -3.5l-4 -12t-4 -15l-6 -14l-62 -162l-29 -76
l-51 -135l-26 -78l-9 -18q-1 -4 2.5 -8t8.5 -4l41 -2h24h12q35 0 41 -2q27 -6 33 -35q2 -10 2 -49v-13q-2 -26 -5 -35.5t-15 -15.5q-3 -3 -33 -6h-4h-70h-51q-5 0 -9.5 -4t-4.5 -10v-43q0 -15 18 -15h62h24h12q13 0 41 -4q27 -6 33 -35v-49v-24v-2q0 -26 -18 -35
q-9 -6 -33 -6h-4q-14 -2 -70 -2h-49q-6 0 -10 -5.5t-4 -11.5v-168v-4v-18q-6 -26 -29 -33q-2 -2 -47 -2h-37q-18 0 -27 6z" />
    <glyph glyph-name="brokenbar" unicode="&#xa6;" horiz-adv-x="413" 
d="M223 858h-26h-17h-4h-22q-13 1 -21 11.5t-8 21.5q0 118 -2 151v93q0 81 2 106l2 105v6q0 60 -2 78v24q2 2 2 12v33v2v4q0 17 8 25q12 12 33 12h31h14h23h6q16 0 20 -2q21 -6 21 -29q2 -4 2 -16v-4l-2 -14v-11v-14v-4v-4v-103v-28v-17v-20l2 -33v-35v-8q2 -2 2 -10v-14
v-15v-45v-39q2 -10 2 -39v-43v-28v-31l2 -12v-19v-4v-4q0 -21 -8 -29q-10 -10 -33 -10h-27zM197 -10h-17h-4h-22q-13 1 -21 11.5t-8 21.5q0 116 -2 151v92q0 82 2 105l2 106v6q0 58 -2 76v27q2 2 2 12v33v2v4q0 17 8 25q12 12 33 12h31h14h23h4q16 0 22 -2q21 -6 21 -29
q2 -4 2 -16v-4l-2 -15v-10v-14v-4v-5q0 -6 -0.5 -23.5t-0.5 -37t1 -41.5v-29v-16v-20l2 -33v-37v-6q2 -2 2 -10v-15v-14v-45v-39q2 -10 2 -39v-43v-29v-30l2 -13v-18v-4v-4q0 -21 -8 -29q-10 -10 -33 -10l-27 -2q-20 0 -26 2z" />
    <glyph glyph-name="section" unicode="&#xa7;" horiz-adv-x="782" 
d="M387 10h-22q-64 6 -117.5 37t-79.5 80q-29 57 -35 131l-4 39v4v6q0 22 12 31q13 10 33 10q4 0 16 -0.5t25 -0.5t27 1h4q15 0 24 -6q17 -14 17 -41v-2q0 -19 2 -25q0 -27 8 -43q10 -37 33.5 -53t64.5 -16q32 0 58 20.5t36 55.5q11 42 11 69q0 63 -29 107q-37 53 -59 75
l-58 56l-53 55q-124 127 -164 283q-14 43 -14 104q0 34 10 86q9 39 17 57q6 15 0 27q-27 61 -27 133q0 30 10 88q19 83 82 140q75 69 182 69h23q64 -6 116 -37t78 -80q28 -49 37 -131l2 -39v-4v-6q0 -21 -12 -30q-11 -11 -31 -11l-61 -2q-24 0 -37 8q-16 10 -16 41v2
q0 19 -2 25q0 19 -7 43q-12 37 -35.5 53.5t-64.5 16.5q-32 0 -58 -20.5t-36 -55.5q-8 -24 -8 -72q0 -65 26 -104q37 -53 60 -76q20 -24 57 -55l53 -56q123 -123 166 -282q12 -53 12 -105q0 -50 -8 -86q-7 -33 -18 -57q-3 -12 0 -27q26 -59 26 -135q0 -41 -10 -86
q-18 -77 -80 -139q-77 -70 -182 -70zM498 633q-1 63 -29.5 127t-69.5 108q-43 46 -104 101q-10 3 -10 -6q4 -62 31.5 -127t66.5 -107q11 -14 104 -100q1 -2 6 -1t5 5z" />
    <glyph glyph-name="dieresis" unicode="&#xa8;" horiz-adv-x="663" 
d="M168 1651q-23 0 -31 8q-15 9 -18 37v28v27v8v31v2q0 21 14 35q8 8 27 8q12 2 51 2q41 0 51 -2q19 0 27 -8q14 -11 14 -35v-2v-31v-10v-25v-28q0 -32 -27 -41l-32 -6h-35q-31 0 -41 2zM418 1651h-15h-2q-20 0 -34 14q-9 9 -9 27l-2 51q0 41 2 51q0 18 9 27q11 14 34 14h2
h15h16h10h25h14h15q32 0 41 -27q3 -3 6 -32q0 -60 -2 -74q0 -25 -8 -33q-12 -15 -37 -18h-15h-14q-13 3 -25 0h-10h-16z" />
    <glyph glyph-name="copyright" unicode="&#xa9;" horiz-adv-x="1234" 
d="M211 489q-88 127 -88 302q0 143 60.5 263.5t168.5 182.5q111 63 264 63q107 0 201 -34.5t154 -100.5q67 -73 104 -176.5t37 -214.5q0 -203 -115 -336q-68 -77 -167 -118t-209 -41q-156 0 -283 83q-77 50 -127 127zM991 788q0 138 -65 230q-34 54 -97 96q-94 64 -215 64
q-84 0 -159 -31t-125 -90q-88 -102 -88 -254q0 -85 28.5 -163t79.5 -134q47 -50 117.5 -77.5t150.5 -27.5q111 0 199 52q83 46 128.5 137t45.5 198zM535 506q-40 29 -54 63q-41 80 -41 228q0 93 15 151q19 73 61 115q40 43 105 43q24 0 45 -6q44 -12 67 -51q18 -25 27 -52
q6 -20 8 -30l2 -11l4 -24q3 -14 -8 -14l-18 -3h-66q-7 0 -10 9l-4 14q0 8 -2 10l-7 23q-8 19 -20 28q-7 7 -18 7q-22 0 -35 -21q-43 -55 -43 -197q0 -61 13 -117t36 -79q11 -14 31 -14h8q21 3 31 26l16 49l4 13l2 12q3 8 10 8h68l16 -2q13 0 10 -14q-8 -53 -20 -90
q-19 -52 -57 -80q-41 -27 -82 -27q-50 0 -94 33z" />
    <glyph glyph-name="ordfeminine" unicode="&#xaa;" horiz-adv-x="512" 
d="M158 784h-11h-24q-4 0 -4 7l35 145l18 84l12 53l39 168q3 6 6 6h52q5 0 8 -6l39 -168l12 -53q6 -44 18 -84l35 -145q0 -7 -4 -7h-24h-11h-4h-10h-14q-3 0 -5 1t-3 3.5t-1.5 4.5t-1.5 6.5t-2 7.5l-10 45q-1 3 -2.5 10t-3 14.5t-2.5 14.5q0 4 -4 4h-70l-4 -2l-18 -86
q-6 -20 -8 -21.5t-19 -1.5h-10h-4zM256 969h23q2 0 2 2l-7 39v2q-6 16 -8 39l-6 26q-2 14 -5 13q-2 0 -3 -5l-8 -49l-6 -26l-7 -39q-2 -2 2 -2h23z" />
    <glyph glyph-name="guillemotleft" unicode="&#xab;" horiz-adv-x="1271" 
d="M600 406q-12 4 -45 24l-29 21q-9 8 -23.5 16.5t-17.5 11.5l-24 19q-121 87 -213 145q-66 44 -84 57q-24 17 -32.5 27.5t-8.5 22.5q0 15 33 41l57 43q11 7 72 48t96 66q128 85 137 92l21 15l34 24q21 15 35 15q16 0 29 -13l20 -28l13 -21l2 -2q1 -2 7 -10.5t11.5 -18.5
t5.5 -18q0 -9 -6 -18q-7 -11 -39 -33l-28 -19l-41 -28l-27 -19l-131 -92l-27 -18q-9 -8 0 -17q30 -17 39 -26l139 -97q10 -7 30 -20.5t28 -17.5l14 -11l37 -26q12 -12 12 -27q0 -8 -6 -20l-20 -27l-15 -21l-2 -4q-23 -39 -47 -39q-3 0 -6 3zM1053 406q-12 4 -45 24l-29 21
l-41 28l-25 19q-121 87 -213 145l-86 57q-39 29 -39 50q0 11 6.5 19t26.5 22l58 43q4 3 26.5 17.5t61 40.5t80.5 56q128 85 137 92l20 15l35 24q21 15 35 15q16 0 29 -13l20 -28l12 -21l2 -2q1 -2 7.5 -10.5t12 -18.5t5.5 -18q0 -9 -6 -18q-7 -11 -39 -33l-29 -19l-41 -28
l-26 -19l-131 -92l-27 -18q-8 -8 0 -17q30 -17 39 -26l139 -97l57 -38l15 -11l37 -26q10 -17 10 -27q0 -8 -4 -20l-21 -27l-14 -21l-2 -4q-23 -39 -47 -39q-3 0 -6 3z" />
    <glyph glyph-name="logicalnot" unicode="&#xac;" horiz-adv-x="784" 
d="M508 586q-12 9 -12 39q2 2 2 12v20v13v65v15q0 14 -15 14h-26h-29h-51h-21l-110 2h-13h-38q-6 -2 -23 -2h-4h-8q-14 0 -25.5 9.5t-11.5 27.5v33v26v2v15q0 26 6 38q9 15 31 15h6l10 -2h17h10h51h55h45l58 -2q58 -4 98 0h16h33h4h29h31q39 0 39 -41v-31v-33v-16l-3 -78
v-68q3 -9 3 -26v-8v-9q0 -8 -5 -18q-6 -20 -32 -20h-15h-18h-27h-2h-14q-33 0 -41 8z" />
    <glyph glyph-name="registered" unicode="&#xae;" horiz-adv-x="923" 
d="M182 1118q-59 89 -59 209q0 96 42 179.5t116 125.5q77 45 180 45q159 0 244 -94q45 -51 70.5 -122.5t25.5 -145.5q0 -143 -78 -230q-46 -53 -114.5 -81.5t-143.5 -28.5q-115 0 -195 57q-42 25 -88 86zM719 1325q0 96 -45 158q-26 40 -66 65q-64 43 -147 43
q-127 0 -197 -82q-59 -68 -59 -176q0 -57 19.5 -112t54.5 -91q63 -69 184 -69q81 0 137 33q56 32 87.5 94.5t31.5 136.5zM410 1130h-15q-19 0 -22.5 2t-3.5 13v61v47v80l2 68v10q0 33 -2 43v16v11v32q0 9 4 12t20 3h8h11h10h33q26 0 34 -2q36 -7 57 -38t21 -71
q0 -47 -35 -88q-10 -13 -22 -18l-4 -2q-11 -6 -8 -21l6 -10l6 -16l57 -121q1 -4 -1.5 -6t-4.5 -2h-4h-49l-10 2l-2 1q-3 2 -4.5 4t-2.5 5l-34 74l-11 20q0 1 -3 1t-3 -1l2 -10v-25v-43v-2q0 -9 -1 -14.5t-2 -8.5t-4 -4.5l-4 -2t-5.5 0t-5.5 0.5h-8zM485 1376q15 15 15 45
q0 27 -19 37q-2 2 -16 2h-12q-15 0 -15 -14v-49v-21q0 -14 15 -14q21 3 32 14z" />
    <glyph glyph-name="overscore" unicode="&#xaf;" horiz-adv-x="782" 
d="M526 1653l-73 2h-74h-139h-25h-18q-29 0 -41 4q-25 6 -35 35q-2 12 -2 53q0 42 12 59q17 17 51 17h8h66h72h75h142h30l50 -4q31 -6 37 -39q2 -10 2 -51q0 -42 -13 -58q-11 -16 -51 -16z" />
    <glyph glyph-name="degree" unicode="&#xb0;" horiz-adv-x="749" 
d="M233 981q-38 23 -65 63q-45 62 -45 154q0 41 8 68q24 110 111 157q59 35 133 35q117 0 180 -72q72 -79 72 -196q0 -104 -60 -170q-32 -38 -82.5 -60t-107.5 -22q-86 0 -144 43zM455 1126q20 26 20 70q0 25 -8 49q-24 64 -92 64q-48 0 -74 -29q-17 -26 -22 -51
q-5 -20 -5 -33q0 -29 13 -55q10 -25 36.5 -40.5t57.5 -15.5q50 0 74 41z" />
    <glyph glyph-name="plusminus" unicode="&#xb1;" horiz-adv-x="765" 
d="M360 594h-16q-12 0 -14 2q-10 1 -16.5 9t-6.5 16v8v10v4q-2 6 -2 23v4l-2 92q0 4 -3.5 8t-8.5 4q-10 2 -49 2h-11h-38q-6 -2 -23 -2h-4h-8q-35 0 -35 35v33v24v4v13q0 25 6 37q8 14 29 14h6h10l16 -2h9h49h43q12 0 12 14q2 10 2 47v51q-2 6 -2 21v6v6q0 19 8 27
q13 10 27 10h14h19h24h4h13q29 0 37 -8q14 -8 14 -35v-8v-16q-2 -2 -2 -11v-49v-45q0 -14 14 -14l21 2h43l75 2q11 0 19 -9t10 -22v-41v-14v-29q0 -12 -2 -16q-7 -23 -25 -23h-8l-137 -4q-14 0 -14 -12l2 -23v-43q0 -59 2 -73q0 -11 -8 -19q-10 -10 -23 -10h-41h-14h-15z
M606 379h-6h-8h-17h-8h-51h-51h-45l-215 2h-53q-12 0 -20.5 8.5t-8.5 20.5v41v14v29q0 12 2 16q3 22 25 22q38 3 114 3q53 2 135 2h19q83 0 106 -2h11q30 0 38 2h21h6h6q34 0 37 -35v-31v-27v-2v-14q0 -29 -8 -37q-9 -12 -29 -12z" />
    <glyph glyph-name="uni00B2" unicode="&#xb2;" horiz-adv-x="557" 
d="M164 920h-37q-8 0 -8 12v74l4 28q5 42 10 64q12 41 32.5 71t74.5 95l16 20q21 21 31 35q32 43 32 88q0 51 -24 63l-12 3l-15 -5q-16 -9 -24 -47q-6 -17 -8 -43q0 -8 -9 -8h-96q-8 0 -8 8q0 46 10 84q27 94 98 121q19 8 54 8q58 0 98 -37q32 -25 47 -77q6 -30 6 -33
q2 -6 2 -31q0 -88 -57 -168q-7 -11 -18 -23.5t-21 -22.5t-12 -13l-19 -21q-36 -39 -53 -69q-11 -19 -14 -43q0 -4 -2 -6v-7q0 -4 4 -4h12h168q8 0 8 -12l2 -47v-45q0 -12 -12 -12h-113h-147z" />
    <glyph glyph-name="uni00B3" unicode="&#xb3;" horiz-adv-x="589" 
d="M133 1018q-5 13 -10 39l-4 30v31q0 12 10 12h37h16h6h7h24q9 0 12 -10q6 -49 9 -59q10 -24 20 -31q8 -8 27 -8q31 0 47 16q28 31 28 88q0 32 -12 56q-10 25 -24 37q-8 9 -19 12q-13 8 -53 14q-12 3 -12 15v30v6l-2 9q2 2 2 28q0 7 6 10l51 19q40 22 43 63v7q0 39 -27 49
q-6 6 -20 6q-48 0 -51 -72v-10q-3 -8 -11 -8h-94q-8 0 -8 8v18q3 43 25 86q40 76 127 82h14q36 0 57 -8q63 -21 84 -84q13 -37 13 -72q0 -23 -7 -55q-7 -27 -32 -59l-4 -4q-4 -4 0 -11l6 -6q12 -12 24 -30q33 -50 33 -125q0 -73 -26.5 -126.5t-75.5 -78.5q-40 -19 -76 -19
h-2q-122 0 -158 105z" />
    <glyph glyph-name="acute" unicode="&#xb4;" horiz-adv-x="479" 
d="M215 1591h-6h-19h-10h-20q-26 0 -35 15q-6 9 -6 18q0 4 3 14t3 13l2 8l18 55l29 84l19 53l2 11q6 15 10.5 22.5t14 13.5t24.5 7q8 2 37 2h16h6h10q29 0 41 -15q6 -9 6 -20q0 -5 -4 -17l-12 -30l-4 -10l-12 -25l-31 -74q-14 -37 -43 -98l-16 -23q-12 -4 -23 -4z" />
    <glyph glyph-name="paragraph" unicode="&#xb6;" horiz-adv-x="1071" 
d="M420 18q-6 10 -6 127v138q2 63 2 522q0 6 -4.5 11t-10.5 5q-107 20 -186 105q-92 106 -92 248q0 74 27.5 142.5t78.5 119.5q59 59 121 77q65 19 168 19l66 -2h86h145h33q12 0 16 2h19q14 0 18 -2q15 0 27 -4q16 -10 16 -29v-102q2 -18 2 -58q0 -37 0.5 -65t1 -42t0.5 -16
v-65v-39v-111v-358q-2 -96 -2 -358q0 -98 2 -125v-66v-18v-19q0 -23 -4 -35q-8 -18 -33 -22h-18h-74q-40 0 -51 20q-6 12 -6 54q2 6 2 32v52v26v533v96v27l2 30v117v107v208v48q0 14 -14 14h-117h-25q-14 0 -14 -14q0 -52 0.5 -86.5t1 -48.5t0.5 -15v-43q2 -23 2 -156v-125
q-2 -59 -2 -591v-125q0 -52 2 -66v-18v-19q0 -15 -4 -35q-8 -19 -35 -22h-16h-74q-42 0 -51 20z" />
    <glyph glyph-name="middot" unicode="&#xb7;" horiz-adv-x="430" 
d="M172 672q-18 0 -31 8q-15 9 -18 37v31v24v8v31v2q0 21 14 35q8 8 27 8l51 2q41 0 51 -2q19 0 27 -8q14 -11 14 -35v-2v-31v-8v-24v-31q0 -31 -26 -41q-12 -4 -33 -4q-8 -2 -35 -2q-31 0 -41 2z" />
    <glyph glyph-name="cedilla" unicode="&#xb8;" horiz-adv-x="618" 
d="M186 -403l-53 45q-14 17 -14 30q0 19 16 29l53 41q11 8 25 8q9 0 23 -14q33 -37 63 -37q23 0 37 15t14 40q0 24 -14.5 36.5t-36.5 12.5q-20 0 -37 -10q-8 -8 -20 -8q-3 0 -19 4l-49 27l-2 2q-34 12 -37 30q-2 10 2 23l17 39q55 127 63 143q10 26 41 23l113 -17
q12 -1 17.5 -10t0.5 -20l-2 -6l-22 -56q-1 -4 -4.5 -11l-4.5 -9q-2 -5 1.5 -10.5t9.5 -6.5q45 -15 79 -47q54 -54 54 -129q0 -93 -70 -145q-53 -41 -131 -41q-57 0 -113 29z" />
    <glyph glyph-name="uni00B9" unicode="&#xb9;" horiz-adv-x="493" 
d="M260 926v51v405q0 15 -10 2q-18 -30 -35.5 -51.5t-24.5 -9.5q-12 3 -40 25l-19 14q-12 6 -12 16q0 9 6 15q79 125 125 188q6 6 12 6q2 2 8 2h35h51q9 0 11 -2t2 -4v-6v-55q2 -8 2 -35q0 -217 2 -264l2 -133v-164q0 -6 -8 -6l-99 -2q-8 0 -8 8z" />
    <glyph glyph-name="ordmasculine" unicode="&#xba;" horiz-adv-x="610" 
d="M152 885q-33 56 -33 141q0 67 23 124.5t63 86.5q45 31 100 31q37 0 72.5 -17.5t60.5 -48.5q54 -77 54 -184q0 -94 -43 -158q-26 -36 -64.5 -56t-77.5 -20q-55 0 -108 41q-29 23 -47 60zM383 936q13 23 16 63q2 6 2 27q0 38 -8 59q-17 71 -63 80q-20 4 -25 4
q-51 0 -74 -39q-16 -29 -22 -65q-2 -10 -2 -41q0 -28 10 -70q12 -32 37.5 -52.5t54.5 -20.5q12 0 31 8q30 17 43 47z" />
    <glyph glyph-name="guillemotright" unicode="&#xbb;" horiz-adv-x="1271" 
d="M182 418q-9 9 -20 28q-3 5 -8.5 11.5t-6.5 9.5l-2 2q-22 31 -22 47q0 4 4 16q8 12 41 35l29 19q9 8 23.5 16.5t17.5 11.5l24 19l133 92l25 16q4 5 4 10t-4 7l-37 28l-141 97l-56 39l-14 10q-14 9 -37 26q-12 12 -12 27q0 10 6 19l18 28q15 18 15 21l2 2q25 39 49 39h6
q12 -4 45 -27l27 -18l41 -29l26 -19q121 -87 213 -145l84 -59q41 -24 41 -47q0 -18 -32 -43l-60 -41q-30 -22 -87.5 -60.5t-80.5 -54.5l-155 -107l-35 -24q-24 -17 -37 -17q-18 0 -27 15zM635 418q-12 12 -21 28l-14 21l-2 2q-23 33 -23 47q0 1 5 16q8 12 41 35l28 19
q9 8 23.5 16.5t17.5 11.5l25 19l133 92l24 16q4 5 4 10t-4 7l-36 28l-142 97l-55 39l-14 10q-14 9 -37 26q-13 13 -13 27q0 8 7 19l18 28q14 17 14 21l2 2q13 22 23.5 30.5t26.5 8.5h6q8 -3 43 -27l28 -18l41 -29l27 -19l211 -145q17 -12 38 -26t32 -21.5t16 -11.5
q41 -24 41 -47q0 -18 -35 -43q-4 -4 -57 -41q-30 -22 -87.5 -60.5t-80.5 -54.5l-156 -107l-35 -24q-24 -17 -36 -17q-18 0 -27 15z" />
    <glyph glyph-name="onequarter" unicode="&#xbc;" horiz-adv-x="1142" 
d="M336 0h-49q-24 0 -31 10q-7 9 -2 23l119 360q61 191 157 467l86 252l13 37l53 162l18 53l17 49l18 60l4 12q7 19 14.5 27.5t24.5 9.5h31h14h31q14 0 20 -9q1 -2 2 -5t2 -4.5t1 -2.5q0 -2 -13 -43q0 -1 -0.5 -2.5t-1.5 -5t-2 -6.5l-49 -144q-8 -27 -32.5 -96.5
t-37.5 -113.5l-43 -132q-129 -397 -131 -399l-30 -92l-29 -92l-35 -105l-22 -67q-22 -69 -23 -72q-11 -39 -20 -63q-12 -40 -24.5 -54t-33.5 -14h-16zM256 881v49v43v348q0 15 -10 2q-51 -76 -60 -59l-36 24l-19 12q-12 9 -12 15q0 10 6 16q90 138 121 180q6 9 10 9h8h33h49
h10q4 0 4 -4v-7v-53v-33q0 -31 5 -256v-129v-157q0 -7 -7 -7h-96q-6 0 -6 7zM831 6v55v160q0 8 -6 8h-123h-98q-12 0 -15 9.5t3 19.5l49 80l64 108l110 187q9 16 31 16h26h48q14 0 14 -12l2 -51v-72l2 -170q0 -6 8 -6h72q4 0 4 -6l2 -96q0 -7 -6 -7h-35h-37q-6 0 -6 -6
l2 -215q0 -8 -8 -8h-94q-9 0 -9 6zM831 342q0 74 -2 92q0 6 -2 6q-3 -1 -4 -4l-53 -92q-1 -1 0.5 -4.5t3.5 -3.5h49q8 0 8 6z" />
    <glyph glyph-name="onehalf" unicode="&#xbd;" horiz-adv-x="1085" 
d="M324 0h-48q-25 0 -32 10q-7 9 -2 23q28 82 69.5 211t48.5 149q100 293 158 467l86 252l12 37l54 162l18 53l17 49l20 60l2 10q7 21 14 29.5t25 9.5h31h14h31q14 0 20 -9q4 -4 4 -12q0 -1 -1 -5.5t-3.5 -15.5t-5.5 -22l-6 -14q-5 -25 -49 -144q-8 -27 -32.5 -96.5
t-37.5 -113.5l-43 -132l-129 -399q-29 -82 -31 -92q-19 -53 -30 -92l-35 -105l-23 -67q-2 -11 -22 -72q-8 -28 -21 -63q-12 -40 -24 -54t-33 -14h-16zM256 872v50v45v346q0 15 -10 2q-15 -27 -33.5 -49t-26.5 -11l-36 25l-19 14q-12 6 -12 15q0 5 6 14q19 35 121 182
q6 6 10 6h8l33 2h49q8 0 10 -2q4 0 4 -4v-6v-53v-33q0 -31 5 -256v-127v-160q0 -6 -7 -6h-96q-6 0 -6 6zM702 2h-34q-9 0 -9 14v70l3 29q3 34 12 61q11 40 33.5 73.5t68.5 86.5l17 18l28 35q31 42 31 84q0 51 -23 62l-12 2q-2 0 -4 -1t-5 -2t-5 -2q-17 -10 -25 -45l-6 -41
q0 -8 -10 -8h-90q-8 0 -8 8q0 42 10 80q25 90 94 117q16 8 49 8q58 0 96 -35q29 -26 45 -75q7 -17 7 -31q2 -6 2 -31q0 -85 -56 -162l-49 -57l-18 -20q-30 -32 -51 -66q-11 -28 -15 -43v-6l-2 -4q0 -4 4 -4h13l161 -2q9 0 9 -11l2 -45v-43q3 -12 -11 -12h-110
q-31 -2 -142 -2z" />
    <glyph glyph-name="threequarters" unicode="&#xbe;" horiz-adv-x="1150" 
d="M342 0h-49q-23 0 -31 10q-5 7 -4.5 14t2.5 9l119 360q50 155 158 467q14 42 42.5 126t41.5 126l12 37q44 127 53 162l19 53q15 42 16 49q17 53 20 60l4 12q7 19 14.5 27.5t24.5 9.5h45h31q15 0 21 -9q1 -2 2 -5l1.5 -4.5t0.5 -2.5q0 -2 -13 -43q0 -1 -0.5 -2.5t-1.5 -5
t-2 -6.5l-49 -144q-50 -139 -71 -210l-41 -132q-129 -396 -132 -399l-30 -92l-31 -94l-35 -103l-20 -67q-22 -69 -23 -72l-20 -61q-13 -42 -25 -56t-33 -14h-16zM131 961q-7 30 -8 34l-4 31v31q0 12 10 12l35 -2h16l6 2h7h24q7 0 10 -12l9 -58q6 -14 20 -28q8 -8 25 -8
q29 0 45 16q26 26 26 86q0 30 -10 53t-25 35l-16 12l-53 15q-12 0 -12 12v31v6v8v27q0 8 8 8q5 3 23.5 9t23.5 9q40 21 43 62v6q0 36 -25 47q-9 6 -22 6q-44 0 -47 -70q-2 0 -2 -10q0 -8 -9 -8h-90q-8 0 -8 8v19q3 43 23 82q40 73 122 79q2 2 15 2q22 0 55 -10
q60 -22 82 -82q10 -27 10 -67q0 -27 -6 -54q-9 -35 -31 -57l-4 -4q-7 -7 0 -10l6 -6q11 -9 23 -29q33 -44 33 -121q0 -69 -26.5 -120t-74.5 -76q-36 -19 -71 -19h-2q-118 -3 -154 103zM842 6v55v160q0 8 -6 8h-123h-99q-12 0 -15 9.5t3 19.5l49 80l64 108l110 187
q9 16 31 16h27h47q14 0 14 -12l2 -51v-72l2 -170q0 -6 8 -6h72q4 0 4 -6v-96q0 -7 -4 -7h-35h-37q-6 0 -6 -6l2 -215q0 -8 -8 -8h-94q-8 0 -8 6zM842 342l-2 92q0 6 -2 6q-3 -1 -4 -4q-44 -73 -54 -92q-3 -8 4 -8h50q8 0 8 6z" />
    <glyph glyph-name="questiondown" unicode="&#xbf;" horiz-adv-x="1073" 
d="M563 1364l-49 2q-19 0 -27 8q-14 14 -14 35v2v29v8q3 12 0 25q0 22 2 28q0 29 25 41q12 4 30 4h35h39q18 0 31 -8q16 -13 16 -37v-28v-25v-8q3 -13 0 -29v-2q0 -23 -12 -35q-8 -8 -27 -8q-10 -2 -49 -2zM322 66q-74 61 -99 161q-12 39 -14 70q-4 50 -4 57q0 82 27.5 165
t86.5 192q65 123 101 233q34 105 43 197l10 94v12v19q2 17 13 28t28 11h8h13h10h69q18 0 29.5 -11.5t11.5 -29.5v-4l-2 -25v-10l-4 -37q-2 -28 -8 -72q-6 -54 -27 -133q-40 -163 -143 -371q-2 -5 -16 -30q-28 -63 -37 -85t-18 -55t-9 -65q0 -36 17 -109q18 -66 75 -86
q16 -8 47 -8q33 0 62 16q57 36 84 142q6 15 12 59l2 23v8q3 26 23 37q12 4 26 4h56h14h10q27 0 39 -12q10 -13 10 -37v-2l-4 -50q-6 -60 -20 -100q-26 -98 -82.5 -164t-134.5 -92q-43 -14 -103 -14q-122 0 -202 74z" />
    <glyph glyph-name="Agrave" unicode="&#xc0;" horiz-adv-x="903" 
d="M412 1606q-15 11 -17 20q-9 15 -45 98l-31 74l-12 27l-4 8l-12 31q-4 12 -4 18q0 11 8 19q13 16 41 16q6 0 8 -2h6q4 2 19 2l37 -2q35 -3 47 -45l4 -8q1 -9 7.5 -28.5t8.5 -27.5l29 -84q4 -10 9.5 -28.5t8.5 -24.5l2 -10q6 -12 6 -27q0 -12 -6 -18q-4 -15 -28 -15h-7h-18
h-29h-6q-12 0 -22 7zM115 0h-17h-16q-25 0 -33 14q-12 15 -6 35l4 23l31 129q2 7 16 63l17 64l10 41q1 7 2.5 14.5t3 14.5t2.5 10q2 14 16 69l11 45q10 39 57 252q0 1 41 187l27 116l6 25l18 69q30 117 31 121l26 111q1 9 5 23t4 16l6 35l4 16q0 15 8 23q12 18 41 18h4h29
q41 0 55 2q30 0 39 -33q1 -3 2.5 -10t3 -14.5t2.5 -14.5l8 -37l17 -92q5 -15 10 -53l18 -102l15 -64l10 -53q7 -27 8 -37q3 -13 14 -67.5t17 -77.5l6 -31q15 -50 17 -72l18 -90l18 -90l15 -72l12 -53l18 -82l23 -108l20 -86l19 -78l8 -51q6 -24 6 -31l-4 -17l-6 -8
q-9 -9 -25 -12h-8h-8h-6h-21h-28h-21q-28 0 -37 37l-14 72q-3 8 -14 59l-25 115l-2 6q-18 69 -25 121q-9 30 -12 61l-2 8q-3 15 -16 15h-47h-45h-4h-156h-4q-18 0 -21 -15v-4l-28 -141l-19 -92q-6 -33 -10 -43l-2 -6l-12 -52l-13 -51l-4 -18l-6 -29q-7 -22 -18.5 -32.5
t-34.5 -10.5h-12h-7h-6h-10h-14zM362 651l50 2h88h55q10 0 10 11q0 6 -4 22l-16 72l-17 86l-10 49q-1 7 -8.5 49.5t-13.5 69.5l-25 121l-4 20q0 5 -3 5t-3 -5l-6 -25l-17 -73l-16 -72l-25 -111l-24 -108q-2 -10 -5 -24.5t-8.5 -36t-9.5 -37.5v-2q0 -5 4 -9t8 -4z" />
    <glyph glyph-name="Aacute" unicode="&#xc1;" horiz-adv-x="903" 
d="M502 1599h-6h-19h-10h-21q-25 0 -34 15q-6 9 -6 18q0 4 3 14t3 13l2 10l18 53l29 84l18 56l2 8q6 16 10.5 24t14 14t24.5 7l37 2l17 -2h6l10 2q28 0 41 -16q6 -9 6 -19q0 -6 -4 -18l-12 -31q-1 -1 -2 -5t-2 -5l-11 -25l-32 -74q-14 -37 -43 -98q-3 -13 -17 -20
q-11 -7 -22 -7zM115 0h-17h-16q-25 0 -33 14q-12 15 -6 35l4 23l31 129q2 7 16 63l17 64l10 41q1 7 2.5 14.5t3 14.5t2.5 10q2 14 16 69l11 45q10 39 57 252q0 1 41 187l27 116l6 25l18 69q30 117 31 121l26 111q1 9 5 23t4 16l6 35l4 16q0 15 8 23q12 18 41 18h4h29l55 2
q30 0 39 -33q1 -3 2.5 -10t3 -14.5t2.5 -14.5l8 -37l17 -92q5 -15 10 -53l18 -102l15 -64l10 -53q7 -27 8 -37q3 -13 14 -67.5t17 -77.5l6 -31q15 -50 17 -72l18 -90l18 -90l15 -72l12 -53l18 -82l23 -108l20 -86l19 -78l8 -51q6 -24 6 -31l-4 -17l-6 -8q-9 -9 -25 -12h-8
h-8h-6h-21h-28h-21q-28 0 -37 37l-14 72q-3 8 -14 59l-25 115l-2 6q-18 69 -25 121q-9 30 -12 61l-2 8q-3 15 -16 15h-47h-45h-4h-156h-4q-18 0 -21 -15v-4l-28 -141l-19 -92q-6 -33 -10 -43l-2 -6l-12 -52l-13 -51l-4 -18l-6 -29q-7 -22 -18.5 -32.5t-34.5 -10.5h-12h-7h-6
h-10h-14zM362 651l50 2h88h55q10 0 10 11q0 6 -4 22l-16 72l-17 86l-10 49q-1 7 -8.5 49.5t-13.5 69.5l-25 121l-4 20q0 5 -3 5t-3 -5l-6 -25l-17 -73l-16 -72l-25 -111l-24 -108q-2 -10 -5 -24.5t-8.5 -36t-9.5 -37.5v-2q0 -5 4 -9t8 -4z" />
    <glyph glyph-name="Acircumflex" unicode="&#xc2;" horiz-adv-x="903" 
d="M313 1589q-10 5 -22 17l-17 12h-4q-34 22 -34 45q0 9 9 24t15 21l16 25l17 24q96 147 131 187l2 4q16 16 29 16q5 0 9.5 -1.5t7.5 -3.5t5 -4t4 -5l2 -2l4 -4q20 -25 129 -187l19 -24l16 -25q17 -22 23 -39v-6q0 -23 -35 -45h-2l-16 -12q-19 -15 -25 -17q-9 -6 -18 -6
q-15 0 -31 16l-19 27q-2 6 -8 12l-35 52l-4 4q0 2 -6 8q-2 6 -12 16q-1 4 -7 4t-10 -4l-12 -16l-6 -8l-2 -4l-37 -52l-8 -12l-19 -27q-7 -16 -30 -16q-10 0 -19 6zM115 0h-17h-16q-25 0 -33 14q-12 15 -6 35l4 23l31 129q2 7 16 63l17 64l10 41q1 7 2.5 14.5t3 14.5t2.5 10
q2 14 16 69l11 45q10 39 57 252q0 1 41 187l27 116l6 25l18 69q30 117 31 121l26 111q1 9 5 23t4 16l6 35l4 16q0 15 8 23q12 18 41 18h4h29q41 0 55 2q30 0 39 -33q1 -3 2.5 -10t3 -14.5t2.5 -14.5l8 -37l17 -92q5 -15 10 -53l18 -102l15 -64l10 -53q7 -27 8 -37
q3 -13 14 -67.5t17 -77.5l6 -31q15 -50 17 -72l18 -90l18 -90l15 -72l12 -53l18 -82l23 -108l20 -86l19 -78q3 -18 6 -39.5t4 -24.5l2 -8v-4q2 -2 2 -6q0 -15 -10 -25q-9 -9 -25 -12h-8h-8h-6h-21h-28h-21q-28 0 -37 37l-14 72q-3 8 -14 59l-25 115l-2 6q-18 69 -25 121
q-9 30 -12 61l-2 8q-3 15 -16 15h-47h-45h-4h-156h-4q-18 0 -21 -15v-4l-28 -141l-19 -92q-6 -33 -10 -43l-2 -6l-12 -52l-13 -51l-4 -18l-6 -29q-7 -22 -18.5 -32.5t-34.5 -10.5h-12h-7h-6h-10h-14zM362 651l50 2h88h55q10 0 10 11q0 6 -4 22l-16 72l-17 86l-10 49
q-1 7 -8.5 49.5t-13.5 69.5l-25 121l-4 20q0 5 -3 5t-3 -5l-6 -25l-17 -73l-16 -72l-25 -111l-24 -108q-2 -10 -5 -24.5t-8.5 -36t-9.5 -37.5v-2q0 -5 4 -9t8 -4z" />
    <glyph glyph-name="Atilde" unicode="&#xc3;" horiz-adv-x="903" 
d="M508 1640q-44 10 -76 29l-12 4q-46 21 -70 21q-30 0 -45 -21q-16 -28 -41 -28h-2q-8 2 -45 18q-38 21 -41 47q-7 28 35 70l2 2q48 48 109 57h22q50 0 129 -33l45 -18q21 -6 35 -6q12 0 14 2q12 4 33 31q14 22 41 22q6 0 12.5 -2.5t10 -5t4.5 -2.5l39 -27q16 -16 20 -26
l2 -11q0 -13 -8 -26q-27 -43 -75 -71t-99 -28h-2q-29 0 -37 2zM115 0h-17h-16q-25 0 -33 14q-12 15 -6 35l4 23l31 129q2 7 16 63l17 64l10 41q1 7 2.5 14.5t3 14.5t2.5 10q2 14 16 69l11 45q10 39 57 252q0 1 41 187l27 116l6 25l18 69q30 117 31 121l26 111q1 9 5 23t4 16
l6 35l4 16q0 15 8 23q12 18 41 18h4h29q41 0 55 2q30 0 39 -33q1 -3 2.5 -10t3 -14.5t2.5 -14.5l8 -37l17 -92q5 -15 10 -53l18 -102l15 -64l10 -53q7 -27 8 -37q3 -13 14 -67.5t17 -77.5l6 -31q15 -50 17 -72l18 -90l18 -90l15 -72l12 -53l18 -82l23 -108l20 -86l19 -78
l8 -51q6 -24 6 -31l-4 -17l-6 -8q-9 -9 -25 -12h-43h-28h-21q-28 0 -37 37l-14 72q-3 8 -14 59l-25 115l-2 6q-18 69 -25 121q-9 30 -12 61l-2 8q-3 15 -16 15h-47h-45h-4h-156h-4q-18 0 -21 -15v-4l-28 -141l-19 -92q-6 -33 -10 -43l-2 -6l-12 -52l-13 -51l-4 -18l-6 -29
q-7 -22 -18.5 -32.5t-34.5 -10.5h-12h-7h-6h-10h-14zM362 651l50 2h88h55q10 0 10 11q0 6 -4 22l-16 72l-17 86l-10 49q-1 7 -8.5 49.5t-13.5 69.5l-25 121l-4 20q0 5 -3 5t-3 -5l-6 -25l-17 -73l-16 -72l-25 -111l-24 -108q-2 -10 -5 -24.5t-8.5 -36t-9.5 -37.5v-2
q0 -5 4 -9t8 -4z" />
    <glyph glyph-name="Adieresis" unicode="&#xc4;" horiz-adv-x="903" 
d="M340 1630h-41q-23 0 -31 8q-18 12 -18 37v31v25v8v30v5q0 21 14 32q11 11 25 11l53 2l51 -2q16 0 27 -11q14 -14 14 -32v-5v-30l-2 -8v-25q3 -16 0 -31q0 -29 -24 -41q-16 -4 -31 -4h-37zM578 1630h-39q-20 0 -33 8q-17 14 -17 37v31v25v8q-3 15 0 30v5q0 19 13 32
q11 11 26 11l54 2l49 -2q17 0 28 -11q13 -13 13 -32v-5q3 -15 0 -30v-8v-25v-31q0 -26 -27 -41q-12 -4 -31 -4h-36zM115 0h-17h-16q-25 0 -33 14q-12 15 -6 35l4 23l31 129q2 7 16 63l17 64l10 41q1 7 2.5 14.5t3 14.5t2.5 10q2 14 16 69l11 45q10 39 57 252q0 1 41 187
l27 116l6 25l18 69q30 117 31 121l26 111q1 9 5 23t4 16l6 35l4 16q0 15 8 23q12 18 41 18h4h29q41 0 55 2q30 0 39 -33q1 -3 2.5 -10t3 -14.5t2.5 -14.5l8 -37l17 -92q5 -15 10 -53l18 -102l15 -64l10 -53q7 -27 8 -37q3 -13 14 -67.5t17 -77.5l6 -31q15 -50 17 -72l18 -90
l18 -90l15 -72l12 -53l18 -82l23 -108l20 -86l19 -78l8 -51q6 -24 6 -31l-4 -17l-6 -8q-9 -9 -25 -12h-8h-8h-6h-21h-28h-21q-28 0 -37 37l-14 72q-3 8 -14 59l-25 115l-2 6q-18 69 -25 121q-9 30 -12 61l-2 8q-3 15 -16 15h-47h-45h-4h-156h-4q-18 0 -21 -15v-4l-28 -141
l-19 -92q-6 -33 -10 -43l-2 -6l-12 -52l-13 -51l-4 -18l-6 -29q-7 -22 -18.5 -32.5t-34.5 -10.5h-12h-7h-6h-10h-14zM362 651l50 2h88h55q10 0 10 11q0 6 -4 22l-16 72l-17 86l-10 49q-1 7 -8.5 49.5t-13.5 69.5l-25 121l-4 20q0 5 -3 5t-3 -5l-6 -25l-17 -73l-16 -72
l-25 -111l-24 -108q-2 -10 -5 -24.5t-8.5 -36t-9.5 -37.5v-2q0 -5 4 -9t8 -4z" />
    <glyph glyph-name="Aring" unicode="&#xc5;" horiz-adv-x="903" 
d="M346 1632q-28 21 -49 49q-35 53 -35 119q0 27 6 51q18 82 86 123q46 27 103 27q87 0 139 -55q55 -55 55 -152q0 -80 -45 -131q-55 -64 -147 -64q-69 0 -113 33zM508 1798q0 9 -4 29q-12 31 -47 31q-25 0 -37 -15q-14 -14 -14 -43q0 -19 6 -31t20.5 -20t28.5 -8
q23 0 35 15.5t12 41.5zM115 0h-17h-16q-25 0 -33 14q-12 15 -6 35l4 23l31 129q2 7 16 63l17 64l10 41q1 7 2.5 14.5t3 14.5t2.5 10q2 14 16 69l11 45q10 39 57 252q0 1 41 187l27 116l6 25l18 69q30 117 31 121l26 111q1 9 5 23t4 16l6 35l4 16q0 15 8 23q12 18 41 18h4h29
q41 0 55 2q30 0 39 -33q1 -3 2.5 -10t3 -14.5t2.5 -14.5l8 -37l17 -92q5 -15 10 -53l18 -102l15 -64l10 -53q7 -27 8 -37q3 -13 14 -67.5t17 -77.5l6 -31q15 -50 17 -72l18 -90l18 -90l15 -72l12 -53l18 -82l23 -108l20 -86l19 -78l8 -51q6 -24 6 -31l-4 -17l-6 -8
q-9 -9 -25 -12h-8h-8h-6h-21h-28h-21q-28 0 -37 37l-14 72q-3 8 -14 59l-25 115l-2 6q-18 69 -25 121q-9 30 -12 61l-2 8q-3 15 -16 15h-47h-45h-4h-156h-4q-18 0 -21 -15v-4l-28 -141l-19 -92q-6 -33 -10 -43l-2 -6l-12 -52l-13 -51l-4 -18l-6 -29q-7 -22 -18.5 -32.5
t-34.5 -10.5h-12h-7h-6h-10h-14zM362 651l50 2h88h55q10 0 10 11q0 6 -4 22l-16 72l-17 86l-10 49q-1 7 -8.5 49.5t-13.5 69.5l-25 121l-4 20q0 5 -3 5t-3 -5l-6 -25l-17 -73l-16 -72l-25 -111l-24 -108q-2 -10 -5 -24.5t-8.5 -36t-9.5 -37.5q-1 -6 3 -10.5t9 -4.5z" />
    <glyph glyph-name="AE" unicode="&#xc6;" horiz-adv-x="1228" 
d="M47 16q-13 13 -4 33q4 22 29 125l6 27l28 106l7 21l6 41q1 3 2.5 10t3 14.5t2.5 14.5l29 114q30 108 57 252l39 187l35 141l22 80l27 110q14 50 33 148q6 17 8 35l6 28l6 13q13 16 39 16h4h2q94 4 283 4l219 -2h20h193q19 0 29 -10q12 -12 12 -35l-2 -4v-31v-37
q0 -35 -12 -47t-39 -12h-74q-16 -2 -76 -2h-80l-78 2l-81 -2h-23l-14 2q-15 0 -15 -15q-1 -22 -1 -43.5t0.5 -42t0.5 -28.5v-70v-94q2 -23 2 -96v-19q0 -14 15 -14q143 0 184 2q19 0 25 2h28q17 0 29 -4q14 -8 20 -27q5 -25 5 -37v-8q0 -32 -3 -47q0 -21 -10.5 -35
t-27.5 -14q-18 -2 -82 -2l-82 -2h-74h-14q-6 0 -10.5 -4.5t-2.5 -9.5v-19v-53v-62q0 -178 2 -229l5 -147v-45q3 -16 16 -13h4l63 -2h60q47 0 59 2h88q66 0 84 2h72q28 0 41 -8.5t14 -36.5v-49q0 -16 2 -22v-7l-2 -24q-4 -18 -16 -27q-8 -8 -27 -8h-4h-4q-64 0 -82 -2h-53
h-53h-54l-47 2h-45h-96l-90 -2l-21 2h-16q-15 0 -35 4q-14 4 -22.5 15t-10.5 18.5t-2 11.5v117v113q0 143 2 182q0 12 -14 12h-190q-14 0 -17 -12l-4 -19l-51 -254q-9 -25 -27 -100l-10 -47q-7 -21 -19 -32t-36 -11h-80q-25 0 -35 16zM387 647h129q14 0 14 15v129
q-4 328 -4 395v92v72q0 8 -6 8q-7 0 -10 -6l-10 -45l-17 -54l-28 -118l-17 -72l-16 -74q-4 -17 -60 -270l-12 -60v-2q0 -12 10 -12q6 2 27 2z" />
    <glyph glyph-name="Ccedilla" unicode="&#xc7;" horiz-adv-x="909" 
d="M342 -340q-30 18 -51 45q-9 9 -12 23l-3 6q0 13 13 26l4 2l53 39q9 6 23 6q8 0 14 -6q39 -39 72 -39q19 0 32 15t13 35q0 25 -19 38q-9 9 -30 9q-22 0 -37 -11q-9 -6 -19 -6l-16 4l-70 37q-10 6 -14.5 18.5t0.5 24.5l22 54l5 8q1 2 4 8.5t4 11.5q2 2 2 6q0 12 -8 15
l-43 26q-69 49 -125 150q-57 112 -81 253t-24 328v80q5 192 46.5 338.5t140.5 251.5q92 98 243 98q59 0 105 -14q90 -27 153 -117q39 -54 64 -120q6 -15 20 -78l4 -27l4 -20v-9q0 -23 -18 -32l-74 -7l-20 3h-21q-32 0 -41 34v2l-6 29q-7 31 -20 66q-19 62 -70 100
q-36 25 -78 25q-38 0 -77 -20t-62 -52q-61 -82 -85 -192t-32 -294l-2 -63q0 -150 31 -319q35 -165 109 -242q52 -55 120 -55q25 0 33 2q35 6 66.5 33.5t50.5 66.5q22 46 33 88l10 45l2 23q3 33 33 36h4h20h13h30h19h18l6 3q11 0 21 -7q14 -8 14 -30l-4 -56q-6 -63 -20 -102
q0 -1 -1.5 -4t-4 -9.5t-5.5 -13.5q-47 -124 -135 -188q-68 -51 -153 -57q-1 0 -1 -3t1 -4q32 -11 59 -38q51 -51 51 -127q0 -44 -17.5 -81t-49.5 -57q-48 -39 -117 -39q-2 -2 -10 -2q-59 0 -109 29z" />
    <glyph glyph-name="Egrave" unicode="&#xc8;" horiz-adv-x="821" 
d="M436 1606l-16 20q-25 53 -43 98l-33 74l-10 27l-4 8l-15 31l-2 18q0 13 6 19q13 16 41 16q9 0 11 -2h6q4 2 16 2l37 -2q35 -3 47 -45l4 -8l19 -56l28 -84l17 -53l4 -10q0 -3 3 -13t3 -14q0 -9 -6 -18q-9 -15 -31 -15h-4h-20h-11h-18h-6q-13 0 -23 7zM555 0h-47h-35l-53 2
l-64 -2h-127h-28q-2 2 -11 2h-6h-4q-20 0 -24 2q-33 9 -33 49q-2 31 -2 156v35q0 159 2 202q2 39 2 181l-2 104q-4 406 -4 465q0 164 2 211v68q0 33 12 45q11 14 47 14h39h45h78l92 2l76 -2h39h41h28h50h45h28q20 0 29 -12q12 -9 12 -33v-4q0 -15 -2 -19v-8v-22q3 -12 0 -25
v-6q0 -25 -10 -35q-12 -12 -39 -12h-6q-56 0 -72 -2h-73h-86h-84h-70h-25h-12q-14 0 -14 -15q-1 -21 -1 -52.5t0.5 -66t0.5 -44.5v-19q0 -60 2 -76v-114v-19q0 -14 14 -14h23q124 0 161 2h19h35h4q10 0 22 -4q16 -3 23 -27q4 -9 4 -37v-8v-10q0 -29 -2 -37q0 -12 -4 -20
q-1 -13 -11.5 -21t-21.5 -8q-29 -2 -127 -2h-39q-56 0 -72 -2h-16q-12 0 -12 -14v-17v-63q0 -195 2 -250q2 -39 2 -180q2 -6 2 -45q0 -5 5 -9t11 -4h4h31h51l50 -2l53 2h82q70 0 90 2h20h25h26h5q24 0 32 -8q17 -14 17 -35v-6v-45l2 -18v-13q0 -26 -8 -34q-9 -21 -35 -21h-6
h-2h-23l-59 -2h-113z" />
    <glyph glyph-name="Eacute" unicode="&#xc9;" horiz-adv-x="821" 
d="M500 1599h-6h-17h-12h-19q-25 0 -34 15q-6 9 -6 18q0 15 6 27l2 10q3 6 8.5 24.5t9.5 28.5l29 84q3 16 18 56l2 8q12 42 47 45l39 2q13 0 17 -2h6q2 2 8 2q28 0 41 -16q8 -8 8 -19l-4 -18l-12 -31l-4 -8l-13 -27l-30 -74q-8 -15 -21.5 -48t-21.5 -50q-10 -17 -19 -20
q-10 -7 -22 -7zM555 0h-47h-35l-53 2l-64 -2h-127h-28q-2 2 -11 2h-6h-4q-20 0 -24 2q-33 9 -33 49q-2 31 -2 156v33q0 161 2 204q2 39 2 181l-2 104q-4 406 -4 465q0 164 2 211v68q0 33 12 45q11 14 47 14h39h45h78l92 2l76 -2h39h41h28h50h45h28q20 0 29 -12q12 -9 12 -33
v-4l-2 -19v-8v-47v-6q0 -25 -10 -35q-12 -12 -39 -12h-6q-56 0 -72 -2h-73h-86h-84h-70h-25h-12q-14 0 -14 -15q-1 -21 -1 -52.5t0.5 -66t0.5 -44.5v-19q0 -60 2 -76v-114v-19q0 -14 14 -14h23q124 0 161 2h19h35h4q10 0 22 -4q16 -3 23 -27q4 -9 4 -37v-8v-10q0 -29 -2 -37
q0 -12 -4 -20q-1 -13 -11.5 -21t-21.5 -8q-29 -2 -127 -2h-39q-56 0 -72 -2h-14q-14 0 -14 -14v-17v-63q0 -195 2 -250q2 -39 2 -180q2 -6 2 -45q0 -5 5 -9t11 -4h4h31h51l50 -2l53 2h82q70 0 90 2h20h25h26h5q24 0 32 -8q17 -14 17 -35v-6v-45l2 -18v-13q0 -26 -8 -34
q-9 -21 -35 -21h-6h-2h-23l-59 -2h-113z" />
    <glyph glyph-name="Ecircumflex" unicode="&#xca;" horiz-adv-x="817" 
d="M317 1591q-10 5 -22 17l-19 12h-2q-34 21 -34 43q0 19 24 43l17 25l16 24q83 126 131 187l2 4q16 16 27 16q12 0 28 -16l2 -4q48 -61 131 -187l17 -24l16 -25q21 -28 23 -37l2 -6q0 -21 -35 -43h-2l-16 -12q-19 -15 -25 -17q-6 -6 -18 -6t-29 17l-19 24q-2 6 -8 12
l-35 54l-4 4q0 2 -6 8l-12 18q-1 4 -7 4t-11 -4l-13 -18q-6 -6 -6 -8l-4 -4l-35 -54q-6 -6 -8 -12l-18 -24q-17 -17 -29 -17q-13 0 -19 6zM553 2h-47h-35l-53 2l-64 -2h-127h-28l-17 2h-4q-18 0 -24 2q-31 9 -31 47q-2 33 -2 156v35q0 159 2 202q2 39 2 181l-2 104
q-4 406 -4 465q0 164 2 211v68q0 33 12 45t45 12h39h45h78l92 2q60 0 76 -2h39h43h26h50h45h28q12 0 29 -10q10 -10 10 -33v-4q0 -13 -2 -19v-8v-22q3 -12 0 -25v-6q0 -23 -10 -33q-9 -12 -37 -12h-6q-56 0 -72 -2h-73h-86h-84h-70h-25h-14q-14 0 -14 -15v-165v-19
q0 -60 2 -76v-114v-21q0 -14 14 -14h25q124 0 161 2h19h35h4q16 0 22 -2q16 -10 23 -27q2 -5 3 -11t0.5 -10.5t-1.5 -9.5v-4v-10v-10q0 -29 -2 -37q0 -8 -4 -20q-6 -27 -31 -27q-29 -2 -127 -2h-37q-58 0 -74 -2h-16q-14 0 -14 -14v-19v-63q0 -195 2 -250l4 -178v-47
q3 -15 16 -15h6h31h51h49h54h82q70 0 90 2h20h25h26h5q44 0 47 -41v-6v-2q0 -2 0.5 -5t1 -7.5t0.5 -12.5v-18v-18v-13q0 -25 -9 -34q-10 -19 -32 -19h-31l-59 -2h-113z" />
    <glyph glyph-name="Edieresis" unicode="&#xcb;" horiz-adv-x="821" 
d="M307 1638h-14h-2q-23 0 -35 15q-8 8 -8 26q-2 10 -2 52q0 41 2 51q0 18 8 26q15 15 35 15h2h14h17h8h24h17h14q31 -3 41 -27q4 -8 5 -19t1 -12q0 -63 -2 -77q0 -23 -8 -31q-13 -19 -37 -19h-14h-17h-24h-8h-17zM547 1638h-12h-5q-20 0 -32 15q-11 11 -11 26q-2 10 -2 52
q0 41 2 51q0 15 11 26q15 15 32 15h5h12h18h8q4 -1 9 -1t9.5 0.5t6.5 0.5h16h15q27 -3 41 -27q4 -12 4 -33v-75q0 -18 -8 -31q-13 -19 -37 -19h-15h-16h-25h-8h-18zM555 0h-47h-35l-53 2l-64 -2h-127h-28q-2 2 -11 2h-6h-4q-20 0 -24 2q-33 9 -33 49q-2 31 -2 156v35
q0 159 2 202l2 181l-2 104q-4 406 -4 465q0 164 2 211v68q0 33 12 45q11 14 47 14h37h47h78l92 2l76 -2h39h41h28h50h45h28q20 0 29 -12q12 -9 12 -33v-4q0 -15 -2 -19v-8v-22q3 -12 0 -25v-6q0 -25 -10 -35q-12 -12 -39 -12h-6q-56 0 -72 -2h-73h-86h-84h-70h-25h-12
q-14 0 -14 -15q-1 -21 -1 -52.5t0.5 -66t0.5 -44.5v-19q0 -60 2 -76v-114v-19q0 -14 14 -14h23q124 0 161 2h19h35h4q10 0 22 -4q16 -3 23 -27q4 -9 4 -37v-8v-10q0 -29 -2 -37q0 -12 -4 -20q-1 -13 -11.5 -21t-21.5 -8q-29 -2 -127 -2h-39q-56 0 -72 -2h-16q-12 0 -12 -14
v-17v-63q0 -195 2 -250q2 -39 2 -180q2 -6 2 -45q0 -5 5 -9t11 -4h4h31h51l50 -2l53 2h82q70 0 90 2h20h25h26h5q24 0 32 -8q17 -14 17 -35v-6v-45l2 -18v-13q0 -26 -8 -34q-9 -21 -41 -21h-2h-23l-59 -2h-113z" />
    <glyph glyph-name="Igrave" unicode="&#xcc;" horiz-adv-x="440" 
d="M164 1606q-7 4 -17 20q-8 17 -21.5 50t-21.5 48l-30 74l-13 27l-4 8l-12 31l-4 18q0 11 8 19q13 16 41 16q6 0 8 -2h6q4 2 17 2l37 -2q37 -3 49 -45l2 -8q15 -40 18 -56l29 -84q4 -10 9.5 -28.5t8.5 -24.5l2 -10q7 -14 7 -27q0 -8 -7 -18q-9 -15 -28 -15h-6h-19h-12h-16
h-9q-8 0 -22 7zM137 18q-6 12 -6 54v32v54v26q0 121 2 156v311q0 131 2 170l2 187l-2 125v122q0 197 -2 246q0 13 9.5 23t21.5 10h51h18l19 2l18 -2q13 0 25 -4q18 -9 18 -29v-14v-4v-33v-20v-64v-12q0 -79 2 -232t2 -227v-213l-2 -399v-125q0 -52 2 -66v-16v-21
q0 -20 -2 -26q-6 -29 -36 -29h-17h-22h-21h-10h-4h-17q-42 0 -51 18z" />
    <glyph glyph-name="Iacute" unicode="&#xcd;" horiz-adv-x="434" 
d="M393 1882q0 -6 -4 -18l-12 -31l-4 -8l-13 -27l-30 -74q-8 -15 -21.5 -48t-21.5 -50q-10 -17 -19 -20q-7 -7 -49 -7h-12h-12q-28 0 -37 15q-6 6 -6 18t6 27l2 10q3 6 8.5 24.5t9.5 28.5l29 84q3 16 18 56l2 8q12 42 47 45l39 2q13 0 17 -2h6q2 2 8 2q28 0 41 -16
q8 -8 8 -19zM309 682l-2 -399v-125q0 -52 2 -66v-16v-21q0 -20 -2 -26q-6 -29 -37 -29h-16h-23h-20h-10h-4h-17q-42 0 -51 18q-6 12 -6 54v32v54v26q0 119 2 154v313q0 131 2 170l2 187l-2 125v122q0 197 -2 246q0 13 9.5 23t21.5 10h51h18l19 2q6 0 8 -2q27 0 35 -4
q18 -9 18 -29v-14v-4v-33v-20v-64v-12q0 -79 2 -232t2 -227v-213z" />
    <glyph glyph-name="Icircumflex" unicode="&#xce;" horiz-adv-x="684" 
d="M561 1669v-6q0 -23 -35 -45h-2l-16 -12q-19 -15 -25 -17q-9 -6 -18 -6q-15 0 -31 16l-18 27l-8 12l-37 52l-2 4l-7 8l-12 16q-2 4 -7 4t-9 -4l-12 -16l-7 -8l-4 -4q-34 -51 -35 -52l-8 -12l-18 -27q-16 -16 -31 -16q-9 0 -18 6q-6 2 -25 17l-16 12h-2q-35 22 -35 45
q0 16 22 45l19 25l16 24q99 152 131 187l2 4q16 16 29 16t29 -16l2 -4q36 -42 131 -187l16 -24l19 -25q16 -20 22 -39zM434 682l-2 -399q0 -96 2 -125v-66v-16v-21q0 -20 -2 -26q-6 -29 -35 -29h-18h-23h-20h-8h-4h-19q-39 0 -51 18q-7 17 -4 54v32v54v26v152l2 315v170
q2 41 2 187v125l-2 122v246q0 14 9 23.5t22 9.5h51h16l19 2l16 -2q21 0 29 -4q16 -10 16 -29v-14v-4v-33q0 -16 2 -20v-64v-12l2 -459v-213z" />
    <glyph glyph-name="Idieresis" unicode="&#xcf;" horiz-adv-x="673" 
d="M184 1638h-14h-2q-21 0 -33 15q-10 10 -10 26l-2 52q0 41 2 51l10 26q15 15 33 15h2h14h17h10h25h14h14q31 -3 41 -27q6 -9 6 -31v-77q0 -18 -10 -31q-13 -19 -37 -19h-14h-14h-25h-10h-17zM424 1638h-12h-4q-21 0 -33 15q-10 10 -10 26l-3 52l3 51q0 16 10 26
q15 15 33 15h4h12h18h9h24h17h14q27 -3 41 -27q4 -12 4 -33v-75q0 -18 -8 -31q-13 -19 -37 -19h-14h-17h-24h-9h-18zM250 18q-6 12 -6 54v32q0 42 2 54v26v156v311l2 170l2 187q0 98 -2 125v122v246q-1 13 8 23t23 10h51h16l19 2l20 -2q13 0 25 -4q16 -10 16 -29v-14v-4v-33
v-20q3 -40 0 -64v-12q0 -79 2 -232t2 -227v-215l-2 -397v-125q2 -14 2 -66v-16v-21q0 -20 -2 -26q-6 -29 -35 -29h-18h-23h-20h-10h-5h-16q-39 0 -51 18z" />
    <glyph glyph-name="Eth" unicode="&#xd0;" horiz-adv-x="1107" 
d="M379 0h-10q-38 0 -50 18q-8 8 -8 60v12v57v35q0 52 -2 66v94q-2 45 -2 213v121q0 14 -14 14h-25q-8 -2 -43 -2q-57 0 -75 -2q-13 0 -22 9.5t-9 21.5v43v14v33q0 12 2 14q3 22 24 25h9h10l131 2q14 0 14 14q0 29 4 225v127v78v78v96v11q0 32 13 45q12 12 94 12q6 2 29 2
q77 0 145 -8q194 -21 303 -160q82 -101 127 -293q24 -114 33 -278q3 -77 -13 -203l-6 -43q-24 -150 -71 -250q-41 -77 -101 -137q-42 -42 -99.5 -78t-111.5 -53q-89 -28 -159 -31h-4q-58 -4 -72 -2h-23h-18zM606 193q60 21 115 71q75 69 100 131q22 49 31 80q39 118 39 281
q0 220 -53 391q-13 44 -52 94q-35 44 -64.5 70t-64.5 39q-36 12 -82 18h-8q-6 2 -47 2h-16h-19q-12 0 -12 -14v-15q0 -74 -2 -92v-65l2 -322q0 -14 14 -14h43h13h39h22h4l8 2q14 0 25.5 -9.5t11.5 -27.5v-33v-26v-2v-15q0 -27 -6 -39q-8 -14 -31 -14q-4 0 -6 2h-10h-16h-9
h-51h-37q-14 0 -14 -14q0 -197 2 -252v-35v-25q0 -81 2 -108v-8v-62q3 -15 17 -12q56 3 112 23z" />
    <glyph glyph-name="Ntilde" unicode="&#xd1;" horiz-adv-x="944" 
d="M457 1669l-13 4q-46 21 -69 21q-30 0 -45 -21q-5 -11 -16.5 -19.5t-24.5 -8.5h-2l-45 18q-40 23 -43 47q-7 29 34 70l5 2q45 48 108 57h23q54 0 127 -33l47 -18q21 -6 35 -6q12 0 14 2q12 3 31 31q14 22 41 22q7 0 13.5 -2.5t10.5 -4.5l4 -3l39 -27l3 -2q3 -3 6 -5.5
t6.5 -7.5t5.5 -11v-11q0 -12 -7 -26q-26 -45 -74 -72t-102 -27q-48 0 -112 31zM184 0h-12h-2q-19 0 -31 12q-8 8 -8 25q-2 10 -2 45v37v45q0 116 -2 145v209v19q0 43 -2 55v55v172v86v25l-4 112v84l-2 97v159v66v49q0 34 41 37h28h9h12h8h21h26q21 -3 37 -25q9 -12 12 -30
l17 -43l92 -275q13 -43 63 -196l82 -240q65 -187 78 -227q0 -4 2 -6q0 -2 2 -2t2 2v30v135q2 55 2 252q0 152 -2 193l-2 155q0 78 2 101v90v33l2 10q0 17 9.5 28t23.5 13q6 2 37 2h16h9h16h8q30 0 43 -16q8 -8 8 -27v-72v-71v-86q0 -135 2 -170v-97q0 -131 -2 -168v-116v-2
v-56q2 -14 2 -59q0 -189 -2 -240v-262v-6v-16q0 -46 -14 -60q-13 -10 -41 -10h-12h-15h-53h-18q-30 0 -45 47q-2 2 -2 6q-15 35 -23 62l-20 51l-39 115l-23 63q-20 68 -35 102l-55 156l-25 70l-43 121l-45 131l-4 12l-10 29q-1 1 -3.5 0.5t-2.5 -2.5v-35v-74v-86v-33v-33
q0 -126 -2 -161v-140q0 -91 -2 -118v-9l2 -43l2 -47v-65v-76q-1 -23 -14 -33t-29 -10h-25h-20h-8h-15z" />
    <glyph glyph-name="Ograve" unicode="&#xd2;" horiz-adv-x="946" 
d="M428 1604q-4 3 -8 8t-7 10l-3 4l-43 98q-9 30 -31 74l-12 25q0 1 -2 4t-3 6l-12 31q-4 12 -4 16q0 13 8 21q11 14 41 14h8h9h16q29 0 37 -2q35 -3 47 -43l4 -10l19 -54l26 -84q7 -18 19 -55l4 -8q6 -24 6 -27q0 -8 -6 -20q-15 -15 -31 -15h-6q-15 0 -19 2h-10h-18
q-2 -2 -6 -2q-13 0 -23 7zM281 53q-74 55 -125 154q-57 112 -81 252t-24 327v80q5 193 46.5 339t142.5 251q92 98 243 98q49 0 105 -16q126 -38 203 -197q67 -130 90 -307q14 -106 14 -258v-67v-9q-3 -117 -10 -196q-15 -134 -56 -250q-53 -142 -141 -209q-95 -65 -199 -65
q-114 0 -208 73zM489 147l15 3q44 5 79.5 29t55.5 65q47 96 68 245q7 57 10 148l2 57q4 94 4 103q0 115 -16 227q-27 158 -72 250q-23 50 -62 83.5t-90 33.5q-38 0 -77 -20t-62 -52q-65 -89 -86 -203q-22 -121 -31 -291v-63q0 -310 86 -481q28 -54 56 -82q55 -52 120 -52z
" />
    <glyph glyph-name="Oacute" unicode="&#xd3;" horiz-adv-x="946" 
d="M502 1599h-19h-12q-4 -2 -18 -2q-20 0 -35 15q-6 12 -6 20q0 3 6 27l2 8l18 55l29 84l18 54l2 10q9 22 19 32t31 11q6 2 36 2h17h6h10q30 0 41 -14q6 -9 6 -21q0 -4 -4 -16l-12 -31l-4 -10l-12 -25l-31 -74q-11 -34 -43 -100q-9 -14 -17 -20q-11 -7 -22 -7q-6 0 -6 2z
M281 53q-74 55 -125 154q-57 112 -81 252t-24 327v80q5 193 46.5 339t142.5 251q92 98 243 98q49 0 105 -16q126 -38 203 -197q67 -130 90 -307q14 -106 14 -258v-67v-9q-3 -117 -10 -196q-15 -134 -56 -250q-53 -142 -141 -209q-95 -65 -199 -65q-114 0 -208 73zM489 147
l15 3q44 5 79.5 29t55.5 65q47 96 68 245q7 57 10 148l2 57q4 94 4 103q0 115 -16 227q-27 158 -72 250q-23 50 -62 83.5t-92 33.5q-38 0 -76 -20t-61 -52q-65 -89 -86 -203q-22 -121 -31 -291v-63q0 -310 86 -481q28 -54 56 -82q55 -52 120 -52z" />
    <glyph glyph-name="Ocircumflex" unicode="&#xd4;" horiz-adv-x="946" 
d="M332 1587l-23 19l-16 10l-4 2q-35 22 -35 43q0 6 3 13t6 12t9 12.5t7 9.5l16 23l16 26q34 48 62 90q36 55 69 97l2 2q15 18 29 18q15 0 29 -18l4 -2l63 -93l66 -94l18 -26l17 -23q18 -30 22 -41v-6q0 -21 -35 -43l-2 -2q-1 0 -2.5 -1t-5.5 -4t-8 -5l-25 -19
q-16 -4 -18 -4q-15 0 -31 16l-18 27l-8 12q-1 1 -35 52l-4 4q0 2 -6 8l-13 16q-1 4 -6 4t-10 -4l-12 -16l-7 -8l-2 -4l-36 -52q-3 -6 -9 -12l-18 -27q-8 -16 -31 -16q-2 0 -18 4zM281 53q-74 55 -125 154q-57 112 -81 252t-24 327v80q5 193 46.5 339t142.5 251q92 98 243 98
q49 0 105 -16q126 -38 203 -197q67 -130 90 -307q14 -106 14 -258v-67v-9q-3 -117 -10 -196q-15 -134 -56 -250q-53 -142 -141 -209q-95 -65 -199 -65q-114 0 -208 73zM489 147l15 3q44 5 79.5 29t55.5 65q47 96 68 245q7 57 10 148l2 57q4 94 4 103q0 115 -16 227
q-27 158 -72 250q-23 50 -62 83.5t-92 33.5q-38 0 -76 -20t-61 -52q-65 -89 -86 -203q-22 -121 -31 -291v-63q0 -310 86 -481q28 -54 56 -82q55 -52 120 -52z" />
    <glyph glyph-name="Otilde" unicode="&#xd5;" horiz-adv-x="946" 
d="M530 1640q-34 9 -75 27l-13 6q-47 21 -69 21q-30 0 -45 -21q-16 -28 -41 -28h-2q-8 0 -18.5 4.5t-18.5 8.5l-8 5q-40 23 -43 47q-4 17 4.5 32t31.5 38l3 2q46 46 108 55q6 2 23 2q50 0 129 -33l45 -18q24 -8 34 -8q3 0 15 4q11 3 33 28q16 23 39 23q15 0 28 -8l39 -29
q18 -11 21 -24v-13q0 -10 -7 -24q-27 -45 -75 -73t-101 -28q-5 0 -37 4zM281 53q-74 55 -125 154q-57 112 -81 252t-24 327v80q5 193 46.5 339t142.5 251q92 98 243 98q49 0 105 -16q126 -38 203 -197q67 -127 90 -307q14 -106 14 -258v-67v-9q-3 -117 -10 -196
q-15 -134 -56 -250q-53 -142 -141 -209q-95 -65 -199 -65q-114 0 -208 73zM489 147l15 3q44 5 79.5 29t55.5 65q47 96 68 245q7 57 10 148l2 57q4 94 4 103q0 115 -16 227q-27 158 -72 250q-23 50 -62 83.5t-92 33.5q-38 0 -76 -20t-61 -52q-65 -89 -86 -203
q-22 -121 -31 -291v-63q0 -310 86 -481q28 -54 56 -82q55 -52 120 -52z" />
    <glyph glyph-name="Odieresis" unicode="&#xd6;" horiz-adv-x="946" 
d="M307 1638h-2q-22 0 -35 13q-10 13 -10 26v54v49q0 15 10 28q13 13 35 13h2l12 2l19 -2h8h25h16h14q29 0 41 -27q4 -12 4 -31q3 -42 0 -75q0 -20 -8 -33q-14 -17 -37 -17h-14h-16h-25h-8l-19 -2q-10 0 -12 2zM547 1638h-2q-23 0 -33 13q-10 10 -10 26l-2 54q0 39 2 51
q0 16 10 26q10 13 33 13h2l14 2l17 -2h10h24h15h14q32 0 41 -27q6 -15 6 -31v-75q0 -20 -10 -33q-14 -17 -37 -17h-14h-15h-24h-10l-17 -2q-12 0 -14 2zM281 53q-74 55 -125 154q-57 112 -81 252t-24 327v80q5 193 46.5 339t142.5 251q92 98 243 98q49 0 105 -16
q126 -38 203 -197q67 -130 90 -307q14 -106 14 -258v-67v-9q-3 -117 -10 -196q-15 -134 -56 -250q-53 -142 -141 -209q-95 -65 -199 -65q-114 0 -208 73zM489 147l15 3q44 5 79.5 29t55.5 65q47 96 68 245q7 57 10 148l2 57q4 94 4 103q0 115 -16 227q-27 158 -72 250
q-23 50 -62 83.5t-92 33.5q-38 0 -76 -20t-61 -52q-65 -89 -86 -203q-22 -121 -31 -291v-63q0 -310 86 -481q28 -54 56 -82q55 -52 120 -52z" />
    <glyph glyph-name="multiply" unicode="&#xd7;" horiz-adv-x="714" 
d="M199 547l-23 22l-18 19l-2 2q-30 30 -33 43v6q0 13 16 29l8 6l11 12l8 6l35 37l30 31q5 2 5.5 7.5t-3.5 10.5l-36 37q-15 19 -37 37l-17 14q0 4 -4 4q-16 16 -16 31t12 27l23 22l18 19l2 2q30 31 43 33h4q17 0 31 -17l6 -6l12 -12l7 -6l36 -37l33 -35q10 -7 21 0l14 16
l35 37l51 51q6 9 21 9q11 0 20 -9q11 -10 31 -30l10 -11l22 -20l11 -12q6 -9 6 -19t-8 -18q0 -4 -4 -4l-9 -11l-4 -2l-14 -16l-6 -6l-66 -70q-10 -10 0 -20l15 -15l36 -32q6 -6 17 -17.5t19.5 -20t15.5 -14.5q8 -8 8 -20q0 -15 -8 -23l-31 -30l-10 -11l-23 -22l-10 -10
l-6 -2q-7 -2 -12 -2q-10 0 -19 6l-4 4l-10 8l-2 4q-7 6 -17 16l-6 5l-65 63q-11 11 -21 0l-37 -33l-37 -39l-14 -16l-4 -2q-15 -18 -31 -18q-14 0 -26 12z" />
    <glyph glyph-name="Oslash" unicode="&#xd8;" horiz-adv-x="952" 
d="M248 -37h-29h-14h-6q-33 0 -41 14q-10 17 -4 35q27 84 32 103l7 14v10q0 1 -1 3.5t-2 6.5t-2 7q-21 27 -30 51q-59 112 -83 254t-24 330v79q5 193 47.5 341t143.5 253q44 47 108.5 73t134.5 26q57 0 107 -15q15 -5 33 -14q12 -3 18 8q11 32 45 35h31h14h25h2q24 0 33 -12
q13 -16 4 -37q-4 -22 -11 -35l-2 -10l-10 -31q-8 -22 -8 -25l-2 -2l-2 -10q0 -7 6 -16l27 -49q66 -129 90 -310q16 -144 16 -262q0 -51 -2 -65v-8q0 -41 -2 -84q-4 -79 -8 -115q-15 -146 -55 -252q-52 -144 -142 -209q-92 -68 -198 -68q-86 0 -154 39q-13 4 -16 -8
q-8 -25 -17.5 -34.5t-32.5 -10.5h-26zM332 575l98 302l84 262l12 39l54 168v6q0 9 -7 16q-42 31 -88 31q-40 0 -77.5 -20.5t-61.5 -53.5q-62 -82 -85.5 -193.5t-31.5 -302.5q-2 -10 -2 -61q0 -203 43 -365q0 -1 4 -1t5 1q13 49 53 172zM494 147h12q94 10 137 97
q50 95 68 248q7 57 10 147q2 14 2 59q4 94 4 103q0 117 -16 229q-15 76 -27 123q0 8 -8 0l-12 -41q-2 -7 -5.5 -17t-8.5 -25.5t-9 -27.5l-12 -45q-14 -37 -17 -51l-24 -78l-27 -90l-6 -18l-6 -23l-12 -39l-11 -34q-1 -4 -13.5 -44t-20.5 -63l-31 -98l-29 -97q0 1 -4 -10
t-12 -38t-19 -62l-14 -47q-2 -2 -2 -6q0 -12 8 -17q47 -35 105 -35z" />
    <glyph glyph-name="Ugrave" unicode="&#xd9;" 
d="M395 1604l-18 22l-43 98q-9 30 -31 74q-4 6 -10 25l-6 10l-13 31l-4 16q0 12 9 21q11 14 40 14h9h8h16q29 0 37 -2q35 -3 47 -43l4 -10l19 -54l26 -84q14 -35 19 -55l4 -8q6 -24 6 -27q0 -8 -6 -20q-15 -15 -31 -15h-4q-16 0 -20 2h-29l-6 -2q-12 0 -23 7zM455 -20h-15
q-97 3 -164 53q-72 51 -112 129q-27 46 -39 121q-17 84 -14 245v7l-2 55v55v72v24v64v98l-3 27q0 83 -2 110v84l-2 97v159v66v51q0 24 21 33q6 2 20 2l31 2h25h24h15q32 0 34 -37q2 -4 2 -22l-2 -172q2 -14 2 -70v-62v-61v-49l-2 -66v-69v-72v-86v-35v-33q0 -74 2 -94
q0 -27 2 -35v-10l3 -108q2 -82 16.5 -138t50.5 -104q35 -44 96 -53q6 -2 25 -2q56 0 82 26q30 23 47 56q24 40 33 139q6 72 6 162v36l2 189l-2 178v168v12v185q-3 27 0 55v47q0 19 -2 25v43v6v8q0 19 8 27q10 16 35 16h26h21h2h12h17h8q23 0 31 -8q14 -11 14 -31v-31v-14
v-41v-74l-2 -30v-203v-58q0 -81 2 -104v-123v-74q2 -6 2 -36v-33v-68v-51v-68q0 -93 -2 -116q-5 -77 -16 -127t-39 -103q-58 -105 -172 -145q-56 -16 -125 -16z" />
    <glyph glyph-name="Uacute" unicode="&#xda;" 
d="M377 1612q-6 12 -6 20q0 3 6 27l4 8q3 14 9 32.5t7 22.5l29 84l18 54l5 10q12 40 47 43q8 2 36 2h17h6h10q30 0 41 -14q6 -6 6 -21q0 -2 -4 -18l-12 -29q0 -1 -0.5 -2t-1.5 -3.5t-2 -4.5l-10 -25l-33 -74q-11 -34 -43 -100q-9 -14 -17 -20q-8 -5 -45 -5h-2h-10
q-6 -2 -20 -2q-20 0 -35 15zM455 -20h-15q-97 3 -164 53q-72 51 -112 129q-27 46 -39 121q-17 84 -14 245v7l-2 55v55v72v24v64v98l-3 27q0 83 -2 110v84l-2 97v159v66v51q0 24 21 33q6 2 20 2q6 2 31 2h25h39q32 0 34 -37q2 -4 2 -22l-2 -172q2 -14 2 -70v-62v-61v-49
l-2 -66v-69v-72v-86v-35v-33q0 -74 2 -94q0 -27 2 -35v-10l3 -108q2 -82 16.5 -138t50.5 -104q35 -44 96 -53q6 -2 25 -2q56 0 82 26q30 23 47 56q24 40 33 139q6 72 6 162v36l2 189l-2 178v168v12v185q-3 27 0 55v47q0 19 -2 25v43v6v8q0 19 8 27q10 16 35 16h26h21h2h12
h25q23 0 31 -8q14 -11 14 -31v-31v-14v-41v-74l-2 -30v-203v-58q0 -81 2 -104v-123v-74q2 -6 2 -36v-33v-68v-51v-68q0 -93 -2 -116q-5 -77 -16 -127t-39 -103q-58 -105 -172 -145q-56 -16 -125 -16z" />
    <glyph glyph-name="Ucircumflex" unicode="&#xdb;" 
d="M315 1587l-24 19l-17 10l-2 2q-34 21 -34 43q0 15 22 47l16 23l19 26l63 94q42 61 66 93l4 2q9 18 29 18q13 0 28 -18l2 -2q6 -6 131 -187l17 -26l16 -23q20 -26 23 -41q2 -2 2 -6q0 -15 -13.5 -27.5t-21.5 -15.5l-4 -2l-16 -10l-23 -19q-4 -1 -9 -2l-7.5 -1.5t-3.5 -0.5
q-10 0 -18.5 5.5t-10.5 10.5l-19 27q-6 6 -8 12l-37 52l-2 4l-6 8l-12 16q-1 4 -6 4t-10 -4q-11 -12 -13 -16q-6 -6 -6 -8l-4 -4q-34 -51 -35 -52l-8 -12l-18 -27q-16 -16 -31 -16q-3 0 -19 4zM455 -20h-15q-97 3 -164 53q-72 51 -112 129q-27 46 -39 121q-17 84 -14 245v7
l-2 55v55v72v24v64v98l-3 27q0 83 -2 110v84l-2 97v159v66v51q0 24 21 33q6 2 20 2l31 2h25h24h15q32 0 34 -37q2 -4 2 -22l-2 -172q2 -14 2 -70v-62v-61v-49l-2 -66v-69v-72v-86v-35v-33q0 -74 2 -94q0 -27 2 -35v-10l3 -108q2 -82 16.5 -138t50.5 -104q35 -44 96 -53
q6 -2 25 -2q56 0 82 26q30 23 47 56q24 40 33 139q6 72 6 162v36l2 189l-2 178v168v12v185q-3 27 0 55v47q0 19 -2 25v43v4v10q0 19 8 27q10 16 35 16h26h21h2h12h17h4h4q23 0 31 -8q14 -11 14 -31v-31v-14v-41v-74l-2 -30v-203v-58q0 -81 2 -104v-123v-74q2 -6 2 -34v-35
v-68v-51v-68q0 -93 -2 -116q-5 -77 -16 -127t-39 -103q-58 -105 -172 -145q-56 -16 -125 -16z" />
    <glyph glyph-name="Udieresis" unicode="&#xdc;" 
d="M291 1638h-2q-23 0 -33 13q-10 10 -10 26l-2 54q0 39 2 49q0 18 10 28q10 13 33 13h2l14 2l17 -2h10h24h15h14q32 0 41 -27q6 -9 6 -31v-75q0 -20 -10 -33q-14 -17 -37 -17h-14h-15h-24h-10l-17 -2q-12 0 -14 2zM530 1638h-4q-19 0 -32 13q-11 11 -11 26l-2 54l2 49
q0 17 11 28q13 13 32 13h4l13 2l18 -2h8h25h16h15q29 0 41 -27q4 -12 4 -31v-75q0 -20 -8 -33q-14 -17 -37 -17h-15h-16h-25h-8l-18 -2q-11 0 -13 2zM455 -20h-15q-97 3 -164 53q-72 51 -112 129q-27 46 -39 121q-14 68 -14 245v7l-2 55v55v72v24v64v98q0 18 -3 27
q0 83 -2 110v84l-2 97v159v66v51q0 24 21 33q6 2 18 2l33 2h25h24h15q32 0 34 -37q2 -4 2 -22q0 -11 -0.5 -42t-0.5 -63.5t1 -66.5v-70v-62v-61v-49l-2 -66v-69v-72v-86v-35v-33q0 -74 2 -94q0 -27 2 -35v-10l3 -108q2 -82 16.5 -138t50.5 -104q35 -44 96 -53q6 -2 25 -2
q56 0 82 26q34 27 47 56q24 40 33 139q6 72 6 162v36l2 189l-2 178v168v12v185q-3 27 0 55v47q0 19 -2 25v43v6v8q0 19 8 27q10 16 35 16h26h23h12h17h8q23 0 31 -8q14 -11 14 -31v-31v-14v-41v-74l-2 -30v-203v-58q0 -81 2 -104v-123v-74q2 -6 2 -36v-33v-68v-51v-68
q0 -93 -2 -116q-5 -77 -16 -127t-39 -103q-58 -105 -172 -145q-56 -16 -125 -16z" />
    <glyph glyph-name="Yacute" unicode="&#xdd;" horiz-adv-x="802" 
d="M324 1614q-7 10 -7 18q0 4 3.5 14t3.5 13l4 10q7 29 18 53l27 84l18 56l4 8q12 42 47 45l37 2q13 0 17 -2h6q2 2 10 2q28 0 41 -16q8 -8 8 -19q0 -6 -6 -18q-1 -8 -6 -18t-6 -13l-4 -8q0 -1 -1.5 -4t-4 -9.5t-5.5 -13.5l-32 -74q-18 -45 -43 -98q-4 -11 -19 -22
q-12 -5 -43 -5h-2h-10h-21q-25 0 -34 15zM762 1501q0 -6 -4 -18q0 -1 -8 -23l-13 -33l-6 -18q-43 -120 -74 -195q-28 -71 -34 -92l-62 -161l-35 -95l-22 -65q-19 -55 -19 -70l2 -55v-25v-100v-84v-70q2 -18 2 -92v-14v-109v-41v-82v-22q-9 -31 -32 -37h-17h-8h-6h-27h-34h-5
h-8q-19 0 -28 6q-15 9 -15 31q-3 25 0 47v4q2 53 2 254v35v102v96v76v45v31l-4 25q-2 23 -22 77v2q-56 157 -142 383l-71 195l-4 14l-5 9l-10 28q0 1 -4 13l-6 18q-2 2 -2 10q0 13 6 19q9 14 39 14h23h14h16h11l14 2h4q24 0 33 -18q6 -8 12 -25l2 -8l25 -60v-4l16 -39
l16 -41l25 -65l12 -37l10 -27l13 -32l8 -25l37 -98l16 -45q0 -4 2 -6q1 -2 5 -2t6 2l2 6l14 43l39 100l8 25l14 34l9 25l14 37l24 63l17 43l14 37l2 6l25 60l2 6l12 27q10 16 41 16h10h13h14h16h21h2h4h10q15 -3 25 -16q4 -12 4 -17z" />
    <glyph glyph-name="Thorn" unicode="&#xde;" horiz-adv-x="849" 
d="M125 18q-6 8 -6 138v32v43v25v135q2 35 2 156v115q0 114 2 145l2 156q0 89 -2 114v115q0 131 -2 178v127q0 37 37 37h98q37 0 37 -37v-125q-2 -43 -2 -170v-43q0 -14 14 -14h88q184 -6 279 -86q60 -50 93.5 -123.5t33.5 -157.5q0 -88 -35 -172q-53 -117 -150 -166
q-56 -29 -122 -40.5t-173 -16.5h-12q-15 -3 -12 -16v-111v-25v-43v-32v-111q0 -16 -6 -25q-9 -18 -35 -18h-59h-11h-10h-8l-8 -2q-21 0 -33 18zM418 565q5 0 33 4q62 11 96.5 35.5t54.5 73.5q19 36 19 102q0 31 -5 56q-12 94 -102 129q-68 22 -149 22l-62 -2q-14 -3 -14 -16
v-6l2 -156q2 -31 2 -145v-87q0 -14 14 -14h23q42 0 88 4z" />
    <glyph glyph-name="germandbls" unicode="&#xdf;" horiz-adv-x="1497" 
d="M563 741q70 -76 108 -176t38 -209q0 -49 -9 -90q-13 -82 -55 -147.5t-104 -100.5q-66 -38 -168 -38q-44 0 -56 2q-84 12 -148 62t-95 126q-14 40 -19 72q-11 59 -14 141v25v4q0 30 22 39l3 1q2 0 7 0.5t11 0.5h16h15h22h23h4q22 0 37 -11q12 -12 12 -36v-21
q2 -75 10 -117t31 -69q17 -20 51 -33.5t66 -13.5l22 2q133 24 133 202q0 172 -143 324l-68 68l-63 63q-43 45 -92 109q-50 63 -70 118q-31 95 -31 174q0 106 43 185q34 64 115 114q67 43 156 43h2q87 0 160 -43q67 -42 100 -110q31 -61 43 -135q6 -69 6 -76v-8
q0 -35 -29 -41q-6 -2 -26 -2q-17 0 -21 2h-20q-15 0 -21 -2h-8q-24 0 -35 20q-2 6 -2 21v2l-4 30q-3 42 -10 60q-18 73 -70 100q-25 14 -67 14q-23 0 -41 -6q-51 -16 -76 -64.5t-25 -107.5q0 -95 74 -190q68 -77 90 -100l70 -72q42 -42 100 -105zM1456 360q0 -52 -12 -104
q-30 -148 -146 -229q-71 -47 -170 -47q-87 0 -163 40q-28 14 -68 54q-75 75 -90 194q-4 20 -4 25l-8 49q-2 10 -2 37v4q-3 6 0 16q0 12 9.5 21.5t28.5 9.5q15 0 19 2h22h19q4 -2 20 -2l9 2l6 -2q32 0 32 -37v-10l3 -12q9 -138 77 -195q30 -24 76 -24q56 0 92 36
q64 70 64 181q0 84 -34 169.5t-89 143.5q-15 17 -141 133l-15 12q-182 167 -182 369q0 48 12 104q20 91 97 168q41 41 100 63.5t121 22.5q20 0 26 -2q67 -6 133 -41q68 -39 103 -98q34 -60 43 -158q2 -10 2 -47v-6v-8q0 -24 -12 -33q-10 -10 -33 -10h-19h-16h-16h-15h-16h-8
q-18 0 -27 6q-16 13 -16 45v2l-4 33q0 15 -9 53q-17 48 -46.5 69t-80.5 21q-42 0 -75 -26.5t-47 -71.5q-13 -41 -13 -88q0 -82 35 -135q4 -5 32 -40.5t42 -51.5l69 -70l68 -66q150 -153 199 -344q18 -62 18 -127z" />
    <glyph glyph-name="agrave" unicode="&#xe0;" horiz-adv-x="903" 
d="M412 1606q-15 11 -17 20q-9 15 -45 98l-31 74l-12 27l-4 8l-12 31q-4 12 -4 18q0 11 8 19q13 16 41 16q6 0 8 -2h6q4 2 19 2l37 -2q35 -3 47 -45l4 -8q1 -9 7.5 -28.5t8.5 -27.5l29 -84q4 -10 9.5 -28.5t8.5 -24.5l2 -10q6 -12 6 -27q0 -12 -6 -18q-4 -15 -28 -15h-7h-18
h-29h-6q-12 0 -22 7zM115 0h-17h-16q-25 0 -33 14q-12 15 -6 35l4 23l31 129q2 7 16 63l17 64l10 41q1 7 2.5 14.5t3 14.5t2.5 10q2 14 16 69l11 45q10 39 57 252q0 1 41 187l27 116l6 25l18 69q30 117 31 121l26 111q1 9 5 23t4 16l6 35l4 16q0 15 8 23q12 18 41 18h4h29
q41 0 55 2q30 0 39 -33q1 -3 2.5 -10t3 -14.5t2.5 -14.5l8 -37l17 -92q5 -15 10 -53l18 -102l15 -64l10 -53q7 -27 8 -37q3 -13 14 -67.5t17 -77.5l6 -31q15 -50 17 -72l18 -90l18 -90l15 -72l12 -53l18 -82l23 -108l20 -86l19 -78l8 -51q6 -24 6 -31l-4 -17l-6 -8
q-9 -9 -25 -12h-8h-8h-6h-21h-28h-21q-28 0 -37 37l-14 72q-3 8 -14 59l-25 115l-2 6q-18 69 -25 121q-9 30 -12 61l-2 8q-3 15 -16 15h-47h-45h-4h-156h-4q-18 0 -21 -15v-4l-28 -141l-19 -92q-6 -33 -10 -43l-2 -6l-12 -52l-13 -51l-4 -18l-6 -29q-7 -22 -18.5 -32.5
t-34.5 -10.5h-12h-7h-6h-10h-14zM362 651l50 2h88h55q10 0 10 11q0 6 -4 22l-16 72l-17 86l-10 49q-1 7 -8.5 49.5t-13.5 69.5l-25 121l-4 20q0 5 -3 5t-3 -5l-6 -25l-17 -73l-16 -72l-25 -111l-24 -108q-2 -10 -5 -24.5t-8.5 -36t-9.5 -37.5v-2q0 -5 4 -9t8 -4z" />
    <glyph glyph-name="aacute" unicode="&#xe1;" horiz-adv-x="903" 
d="M502 1599h-6h-19h-10h-21q-25 0 -34 15q-6 9 -6 18q0 4 3 14t3 13l2 10l18 53l29 84l18 56l2 8q6 16 10.5 24t14 14t24.5 7l37 2l17 -2h6l10 2q28 0 41 -16q6 -9 6 -19q0 -6 -4 -18l-12 -31q-1 -1 -2 -5t-2 -5l-11 -25l-32 -74q-14 -37 -43 -98q-3 -13 -17 -20
q-11 -7 -22 -7zM115 0h-17h-16q-25 0 -33 14q-12 15 -6 35l4 23l31 129q2 7 16 63l17 64l10 41q1 7 2.5 14.5t3 14.5t2.5 10q2 14 16 69l11 45q10 39 57 252q0 1 41 187l27 116l6 25l18 69q30 117 31 121l26 111q1 9 5 23t4 16l6 35l4 16q0 15 8 23q12 18 41 18h4h29
q41 0 55 2q30 0 39 -33q1 -3 2.5 -10t3 -14.5t2.5 -14.5l8 -37l17 -92q5 -15 10 -53l18 -102l15 -64l10 -53q7 -27 8 -37q3 -13 14 -67.5t17 -77.5l6 -31q15 -50 17 -72l18 -90l18 -90l15 -72l12 -53l18 -82l23 -108l20 -86l19 -78l8 -51q6 -24 6 -31l-4 -17l-6 -8
q-9 -9 -25 -12h-8h-8h-6h-21h-28h-21q-28 0 -37 37l-14 72q-3 8 -14 59l-25 115l-2 6q-18 69 -25 121q-9 30 -12 61l-2 8q-3 15 -16 15h-47h-45h-4h-156h-4q-18 0 -21 -15v-4l-28 -141l-19 -92q-6 -33 -10 -43l-2 -6l-12 -52l-13 -51l-4 -18l-6 -29q-7 -22 -18.5 -32.5
t-34.5 -10.5h-12h-7h-6h-10h-14zM362 651l50 2h88h55q10 0 10 11q0 6 -4 22l-16 72l-17 86l-10 49q-1 7 -8.5 49.5t-13.5 69.5l-25 121l-4 20q0 5 -3 5t-3 -5l-6 -25l-17 -73l-16 -72l-25 -111l-24 -108q-2 -10 -5 -24.5t-8.5 -36t-9.5 -37.5v-2q0 -5 4 -9t8 -4z" />
    <glyph glyph-name="acircumflex" unicode="&#xe2;" horiz-adv-x="903" 
d="M313 1589q-10 5 -22 17l-17 12h-4q-34 22 -34 45q0 9 9 24t15 21l16 25l17 24q96 147 131 187l2 4q16 16 29 16q5 0 9.5 -1.5t7.5 -3.5t5 -4t4 -5l2 -2l4 -4q20 -25 129 -187l19 -24l16 -25q17 -22 23 -39v-6q0 -23 -35 -45h-2l-16 -12q-19 -15 -25 -17q-9 -6 -18 -6
q-15 0 -31 16l-19 27q-2 6 -8 12l-35 52l-4 4q0 2 -6 8q-2 6 -12 16q-1 4 -7 4t-10 -4l-12 -16l-6 -8l-2 -4l-37 -52l-8 -12l-19 -27q-7 -16 -30 -16q-10 0 -19 6zM115 0h-17h-16q-25 0 -33 14q-12 15 -6 35l4 23l31 129q2 7 16 63l17 64l10 41q1 7 2.5 14.5t3 14.5t2.5 10
q2 14 16 69l11 45q10 39 57 252q0 1 41 187l27 116l6 25l18 69q30 117 31 121l26 111q1 9 5 23t4 16l6 35l4 16q0 15 8 23q12 18 41 18h4h29q41 0 55 2q30 0 39 -33q1 -3 2.5 -10t3 -14.5t2.5 -14.5l8 -37l17 -92q5 -15 10 -53l18 -102l15 -64l10 -53q7 -27 8 -37
q3 -13 14 -67.5t17 -77.5l6 -31q15 -50 17 -72l18 -90l18 -90l15 -72l12 -53l18 -82l23 -108l20 -86l19 -78q3 -18 6 -39.5t4 -24.5l2 -8v-4v-2q2 0 2 -4q0 -15 -10 -25q-9 -9 -25 -12h-8h-8h-6h-21h-28h-21q-28 0 -37 37l-14 72q-3 8 -14 59l-25 115l-2 6q-18 69 -25 121
q-9 30 -12 61l-2 8q-3 15 -16 15h-47h-45h-4h-156h-4q-18 0 -21 -15v-4l-28 -141l-19 -92q-6 -33 -10 -43l-2 -6l-12 -52l-13 -51l-4 -18l-6 -29q-7 -22 -18.5 -32.5t-34.5 -10.5h-12h-7h-6h-10h-14zM362 651l50 2h88h55q10 0 10 11q0 6 -4 22l-16 72l-17 86l-10 49
q-1 7 -8.5 49.5t-13.5 69.5l-25 121l-4 20q0 5 -3 5t-3 -5l-6 -25l-17 -73l-16 -72l-25 -111l-24 -108q-2 -10 -5 -24.5t-8.5 -36t-9.5 -37.5v-2q0 -5 4 -9t8 -4z" />
    <glyph glyph-name="atilde" unicode="&#xe3;" horiz-adv-x="903" 
d="M432 1669l-12 4q-46 21 -70 21q-30 0 -45 -21q-16 -28 -41 -28h-2q-8 2 -45 18q-38 21 -41 47q-7 28 35 70l2 2q48 48 109 57h22q50 0 129 -33l45 -18q21 -6 35 -6q12 0 14 2q12 4 33 31q14 22 41 22q6 0 12.5 -2.5t10 -5t4.5 -2.5l39 -27q16 -16 20 -26l2 -11
q0 -13 -8 -26q-27 -43 -75 -71t-99 -28q-31 0 -39 2q-44 10 -76 29zM115 0h-17h-16q-25 0 -33 14q-12 15 -6 35l4 23l31 129q2 7 16 63l17 64l10 41q1 7 2.5 14.5t3 14.5t2.5 10q2 14 16 69l11 45q10 39 57 252q0 1 41 187l27 116l6 25l18 69q30 117 31 121l26 111q1 9 5 23
t4 16l6 35l4 16q0 15 8 23q12 18 41 18h4h29q41 0 55 2q30 0 39 -33q1 -3 2.5 -10t3 -14.5t2.5 -14.5l8 -37l17 -92q5 -15 10 -53l18 -102l15 -64l10 -53q7 -27 8 -37q3 -13 14 -67.5t17 -77.5l6 -31q15 -50 17 -72l18 -90l18 -90l15 -72l12 -53l18 -82l23 -108l20 -86
l19 -78l8 -51q6 -24 6 -31l-4 -17l-6 -8q-9 -9 -25 -12h-43h-28h-21q-28 0 -37 37l-14 72q-3 8 -14 59l-25 115l-2 6q-18 69 -25 121q-9 30 -12 61l-2 8q-3 15 -16 15h-47h-45h-4h-156h-4q-18 0 -21 -15v-4l-28 -141l-19 -92q-6 -33 -10 -43l-2 -6l-12 -52l-13 -51l-4 -18
l-6 -29q-7 -22 -18.5 -32.5t-34.5 -10.5h-12h-7h-6h-10h-14zM362 651l50 2h88h55q10 0 10 11q0 6 -4 22l-16 72l-17 86l-10 49q-1 7 -8.5 49.5t-13.5 69.5l-25 121l-4 20q0 5 -3 5t-3 -5l-6 -25l-17 -73l-16 -72l-25 -111l-24 -108q-2 -10 -5 -24.5t-8.5 -36t-9.5 -37.5v-2
q0 -5 4 -9t8 -4z" />
    <glyph glyph-name="adieresis" unicode="&#xe4;" horiz-adv-x="903" 
d="M340 1630h-41q-23 0 -31 8q-18 12 -18 37v31v25v8v30v5q0 21 14 32q11 11 25 11l53 2l51 -2q16 0 27 -11q14 -14 14 -32v-5v-30l-2 -8v-25q3 -16 0 -31q0 -29 -24 -41q-16 -4 -31 -4h-37zM578 1630h-39q-20 0 -33 8q-17 14 -17 37v31v25v8q-3 15 0 30v5q0 19 13 32
q11 11 26 11l54 2l49 -2q17 0 28 -11q13 -13 13 -32v-5q3 -15 0 -30v-8v-25v-31q0 -26 -27 -41q-12 -4 -31 -4h-36zM115 0h-17h-16q-25 0 -33 14q-12 15 -6 35l4 23l31 129q2 7 16 63l17 64l10 41q1 7 2.5 14.5t3 14.5t2.5 10q2 14 16 69l11 45q10 39 57 252q0 1 41 187
l27 116l6 25l18 69q30 117 31 121l26 111q1 9 5 23t4 16l6 35l4 16q0 15 8 23q12 18 41 18h4h29q41 0 55 2q30 0 39 -33q1 -3 2.5 -10t3 -14.5t2.5 -14.5l8 -37l17 -92q5 -15 10 -53l18 -102l15 -64l10 -53q7 -27 8 -37q3 -13 14 -67.5t17 -77.5l6 -31q15 -50 17 -72l18 -90
l18 -90l15 -72l12 -53l18 -82l23 -108l20 -86l19 -78l8 -51q6 -24 6 -31l-4 -17l-6 -8q-9 -9 -25 -12h-8h-8h-6h-21h-28h-21q-28 0 -37 37l-14 72q-3 8 -14 59l-25 115l-2 6q-18 69 -25 121q-9 30 -12 61l-2 8q-3 15 -16 15h-47h-45h-4h-156h-4q-18 0 -21 -15v-4l-28 -141
l-19 -92q-6 -33 -10 -43l-2 -6l-12 -52l-13 -51l-4 -18l-6 -29q-7 -22 -18.5 -32.5t-34.5 -10.5h-12h-7h-6h-10h-14zM362 651l50 2h88h55q10 0 10 11q0 6 -4 22l-16 72l-17 86l-10 49q-1 7 -8.5 49.5t-13.5 69.5l-25 121l-4 20q0 5 -3 5t-3 -5l-6 -25l-17 -73l-16 -72
l-25 -111l-24 -108q-2 -10 -5 -24.5t-8.5 -36t-9.5 -37.5v-2q0 -5 4 -9t8 -4z" />
    <glyph glyph-name="aring" unicode="&#xe5;" horiz-adv-x="903" 
d="M346 1632q-28 21 -49 49q-35 53 -35 119q0 27 6 51q18 82 86 123q46 27 103 27q87 0 139 -55q55 -55 55 -152q0 -80 -45 -131q-55 -64 -147 -64q-69 0 -113 33zM508 1798q0 9 -4 29q-12 31 -47 31q-25 0 -37 -15q-14 -14 -14 -43q0 -19 6 -31t20.5 -20t28.5 -8
q23 0 35 15.5t12 41.5zM115 0h-17h-16q-25 0 -33 14q-12 15 -6 35l4 23l31 129q2 7 16 63l17 64l10 41q1 7 2.5 14.5t3 14.5t2.5 10q2 14 16 69l11 45q10 39 57 252q0 1 41 187l27 116l6 25l18 69q30 117 31 121l26 111q1 9 5 23t4 16l6 35l4 16q0 15 8 23q12 18 41 18h4h29
q41 0 55 2q30 0 39 -33q1 -3 2.5 -10t3 -14.5t2.5 -14.5l8 -37l17 -92q5 -15 10 -53l18 -102l15 -64l10 -53q7 -27 8 -37q3 -13 14 -67.5t17 -77.5l6 -31q15 -50 17 -72l18 -90l18 -90l15 -72l12 -53l18 -82l23 -108l20 -86l19 -78l8 -51q6 -24 6 -31l-4 -17l-6 -8
q-9 -9 -25 -12h-8h-8h-6h-21h-28h-21q-28 0 -37 37l-14 72q-3 8 -14 59l-25 115l-2 6q-18 69 -25 121q-9 30 -12 61l-2 8q-3 15 -16 15h-47h-45h-4h-156h-4q-18 0 -21 -15v-4l-28 -141l-19 -92q-6 -33 -10 -43l-2 -6l-12 -52l-13 -51l-4 -18l-6 -29q-7 -22 -18.5 -32.5
t-34.5 -10.5h-12h-7h-6h-10h-14zM362 651l50 2h88h55q10 0 10 11q0 6 -4 22l-16 72l-17 86l-10 49q-1 7 -8.5 49.5t-13.5 69.5l-25 121l-4 20q0 5 -3 5t-3 -5l-6 -25l-17 -73l-16 -72l-25 -111l-24 -108q-2 -10 -5 -24.5t-8.5 -36t-9.5 -37.5q-1 -6 3 -10.5t9 -4.5z" />
    <glyph glyph-name="ae" unicode="&#xe6;" horiz-adv-x="1228" 
d="M47 16q-13 13 -4 33q4 22 29 125l6 27l28 106l7 21l6 41q1 3 2.5 10t3 14.5t2.5 14.5l29 114q30 108 57 252l39 187l35 141l22 80l27 110q14 50 33 148q6 17 8 35l6 28l6 13q13 16 39 16h4h2q94 4 283 4l219 -2h20h193q19 0 29 -10q12 -12 12 -35l-2 -4v-31v-37
q0 -35 -12 -47t-39 -12h-74q-16 -2 -76 -2h-80l-78 2l-81 -2h-23l-14 2q-15 0 -15 -15q-1 -22 -1 -43.5t0.5 -42t0.5 -28.5v-70v-94q2 -23 2 -96v-19q0 -14 15 -14q143 0 184 2q19 0 25 2h28q17 0 29 -4q14 -8 20 -27q5 -25 5 -37v-8q0 -32 -3 -47q0 -21 -10.5 -35
t-27.5 -14q-18 -2 -82 -2l-82 -2h-74h-14q-6 0 -10.5 -4.5t-2.5 -9.5v-19v-53v-62q0 -178 2 -229l5 -147v-45q3 -16 16 -13h4l63 -2h60q47 0 59 2h88q66 0 84 2h72q28 0 41 -8.5t14 -36.5v-49q0 -16 2 -22v-7l-2 -24q-4 -18 -16 -27q-8 -8 -27 -8h-4h-4q-64 0 -82 -2h-53
h-53h-54l-47 2h-45h-96l-90 -2l-21 2h-16q-15 0 -35 4q-14 4 -22.5 15t-10.5 18.5t-2 11.5v117v113q0 143 2 182q0 12 -14 12h-190q-14 0 -17 -12l-4 -19l-51 -254q-9 -25 -27 -100l-10 -47q-7 -21 -19 -32t-36 -11h-80q-25 0 -35 16zM387 647h129q14 0 14 15v129
q-4 328 -4 395v92v72q0 8 -6 8q-7 0 -10 -6l-10 -45l-17 -54l-28 -118l-17 -72l-16 -74q-4 -17 -60 -270l-12 -60v-2q0 -12 10 -12q6 2 27 2z" />
    <glyph glyph-name="ccedilla" unicode="&#xe7;" horiz-adv-x="909" 
d="M342 -344q-30 18 -51 45q-9 9 -12 23l-3 6q0 13 13 26l4 2l53 39q9 6 23 6q8 0 14 -6q39 -39 72 -39q20 0 32.5 14.5t12.5 34.5q0 26 -19 39q-9 9 -30 9q-22 0 -37 -11q-9 -6 -19 -6l-16 4l-70 37q-10 6 -14.5 18.5t0.5 24.5l22 53l5 9q1 2 4 8.5t4 11.5q2 2 2 6
q0 12 -8 15l-43 26q-69 49 -125 150q-57 112 -81 253t-24 328v80q5 192 46.5 338.5t140.5 251.5q92 98 243 98q59 0 105 -14q90 -27 153 -117q38 -53 64 -121q6 -16 20 -77l4 -27l4 -20v-9q0 -23 -18 -32l-74 -7l-20 2h-21q-32 0 -41 35v2l-6 29q-7 31 -20 66
q-19 62 -70 100q-35 24 -78 24q-39 0 -77.5 -19.5t-61.5 -51.5q-61 -82 -85 -192t-32 -294l-2 -63q0 -151 31 -320q35 -164 109 -241q53 -56 120 -56q21 0 33 3q35 6 66.5 33.5t50.5 66.5q22 46 33 88l10 45l2 23q3 33 33 36h4h20h13h30h19h18l6 2q12 0 21 -6q14 -8 14 -30
l-4 -56q-6 -63 -20 -102q0 -1 -1.5 -4t-4 -9.5t-5.5 -13.5q-47 -124 -135 -188q-70 -52 -153 -58q-1 0 -1 -2.5t1 -3.5q31 -11 59 -39q51 -51 51 -127q0 -43 -17.5 -80t-49.5 -57q-48 -39 -117 -39q-2 -2 -10 -2q-59 0 -109 29z" />
    <glyph glyph-name="egrave" unicode="&#xe8;" horiz-adv-x="821" 
d="M436 1606l-16 20q-25 53 -43 98l-33 74l-10 27l-4 8l-15 31l-2 18q0 13 6 19q13 16 41 16q9 0 11 -2h6q4 2 16 2l37 -2q35 -3 47 -45l4 -8l19 -56l28 -84l17 -53l4 -10q0 -3 3 -13t3 -14q0 -9 -6 -18q-9 -15 -31 -15h-4h-20h-11h-18h-6q-13 0 -23 7zM555 0h-47h-35l-53 2
l-64 -2h-127h-28q-2 2 -11 2h-6h-4q-20 0 -24 2q-33 9 -33 49q-2 31 -2 156v35q0 159 2 202q2 39 2 181l-2 104q-4 406 -4 465q0 164 2 211v68q0 33 12 45q11 14 47 14h39h45h78l92 2l76 -2h39h41h28h50h45h28q20 0 29 -12q12 -9 12 -33v-4q0 -15 -2 -19v-8v-22q3 -12 0 -25
v-6q0 -25 -10 -35q-12 -12 -39 -12h-6q-56 0 -72 -2h-73h-86h-84h-70h-25h-12q-14 0 -14 -15q-1 -21 -1 -52.5t0.5 -66t0.5 -44.5v-19q0 -60 2 -76v-114v-19q0 -14 14 -14h23q124 0 161 2h19h35h4q10 0 22 -4q16 -3 23 -27q4 -9 4 -37v-8v-10q0 -29 -2 -37q0 -12 -4 -20
q-1 -13 -11.5 -21t-21.5 -8q-29 -2 -127 -2h-39q-56 0 -72 -2h-16q-12 0 -12 -14v-17v-63q0 -195 2 -250q2 -39 2 -180q2 -6 2 -45q0 -5 5 -9t11 -4h4h31h51l50 -2l53 2h82q70 0 90 2h20h25h26h5q24 0 32 -8q17 -14 17 -35v-6v-45l2 -18v-13q0 -26 -8 -34q-9 -21 -35 -21h-6
h-2h-23l-59 -2h-113z" />
    <glyph glyph-name="eacute" unicode="&#xe9;" horiz-adv-x="821" 
d="M500 1599h-6h-17h-12h-19q-25 0 -34 15q-6 9 -6 18q0 15 6 27l2 10q3 6 8.5 24.5t9.5 28.5l29 84q3 16 18 56l2 8q12 42 47 45l39 2q13 0 17 -2h6q2 2 8 2q28 0 41 -16q8 -8 8 -19l-4 -18l-12 -31l-4 -8l-13 -27l-30 -74q-8 -15 -21.5 -48t-21.5 -50q-10 -17 -19 -20
q-10 -7 -22 -7zM555 0h-47h-35l-53 2l-64 -2h-127h-28q-2 2 -11 2h-6h-4q-20 0 -24 2q-33 9 -33 49q-2 31 -2 156v33q0 161 2 204q2 39 2 181l-2 104q-4 406 -4 465q0 164 2 211v68q0 33 12 45q11 14 47 14h39h45h78l92 2l76 -2h39h41h28h50h45h28q20 0 29 -12q12 -9 12 -33
v-4l-2 -19v-8v-47v-6q0 -25 -10 -35q-12 -12 -39 -12h-6q-56 0 -72 -2h-73h-86h-84h-70h-25h-12q-14 0 -14 -15q-1 -21 -1 -52.5t0.5 -66t0.5 -44.5v-19q0 -60 2 -76v-114v-19q0 -14 14 -14h23q124 0 161 2h19h35h4q10 0 22 -4q16 -3 23 -27q4 -9 4 -37v-8v-10q0 -29 -2 -37
q0 -12 -4 -20q-1 -13 -11.5 -21t-21.5 -8q-29 -2 -127 -2h-39q-56 0 -72 -2h-14q-14 0 -14 -14v-17v-63q0 -195 2 -250q2 -39 2 -180q2 -6 2 -45q0 -5 5 -9t11 -4h4h31h51l50 -2l53 2h82q70 0 90 2h20h25h26h5q24 0 32 -8q17 -14 17 -35v-6v-45l2 -18v-13q0 -26 -8 -34
q-9 -21 -35 -21h-6h-2h-23l-59 -2h-113z" />
    <glyph glyph-name="ecircumflex" unicode="&#xea;" horiz-adv-x="817" 
d="M317 1591q-10 5 -22 17l-19 12h-2q-34 21 -34 43q0 19 24 43l17 25l16 24q83 126 131 187l2 4q16 16 27 16q12 0 28 -16l2 -4q48 -61 131 -187l17 -24l16 -25q21 -28 23 -37l2 -6q0 -21 -35 -43h-2l-16 -12q-19 -15 -25 -17q-6 -6 -18 -6t-29 17l-19 24q-2 6 -8 12
l-35 54l-4 4q0 2 -6 8l-12 18q-1 4 -7 4t-11 -4l-13 -18q-6 -6 -6 -8l-4 -4l-35 -54q-6 -6 -8 -12l-18 -24q-17 -17 -29 -17q-13 0 -19 6zM553 2h-47h-35l-53 2l-64 -2h-127h-28l-17 2h-4q-18 0 -24 2q-31 9 -31 47q-2 33 -2 156v35q0 159 2 202q2 39 2 181l-2 104
q-4 406 -4 465q0 164 2 211v68q0 33 12 45t45 12h39h45h78l92 2q60 0 76 -2h39h43h26h50h45h28q12 0 29 -10q10 -10 10 -33v-4q0 -13 -2 -19v-8v-22q3 -12 0 -25v-6q0 -23 -10 -33q-9 -12 -37 -12h-6q-56 0 -72 -2h-73h-86h-84h-70h-25h-14q-14 0 -14 -15v-165v-19
q0 -60 2 -76v-114v-21q0 -14 14 -14h25q124 0 161 2h19h35h4q16 0 22 -2q16 -10 23 -27q2 -5 3 -11t0.5 -10.5t-1.5 -9.5v-4v-10v-10q0 -29 -2 -37q0 -8 -4 -20q-6 -27 -31 -27q-29 -2 -127 -2h-37q-58 0 -74 -2h-16q-14 0 -14 -14v-19v-63q0 -195 2 -250l4 -178v-47
q3 -15 16 -15h6h31h51h49h54h82q70 0 90 2h20h25h26h5q44 0 47 -41v-6v-2q0 -2 0.5 -5t1 -7.5t0.5 -12.5v-18v-18v-13q0 -25 -9 -34q-10 -19 -32 -19h-31l-59 -2h-113z" />
    <glyph glyph-name="edieresis" unicode="&#xeb;" horiz-adv-x="821" 
d="M307 1638h-14h-2q-23 0 -35 15q-8 8 -8 26q-2 10 -2 52q0 41 2 51q0 18 8 26q15 15 35 15h2h14h17h8h24h17h14q31 -3 41 -27q4 -8 5 -19t1 -12q0 -63 -2 -77q0 -23 -8 -31q-13 -19 -37 -19h-14h-17h-24h-8h-17zM547 1638h-12h-5q-20 0 -32 15q-11 11 -11 26q-2 10 -2 52
q0 41 2 51q0 15 11 26q15 15 32 15h5h12h18h8q4 -1 9 -1t9.5 0.5t6.5 0.5h16h15q27 -3 41 -27q4 -12 4 -33v-75q0 -18 -8 -31q-13 -19 -37 -19h-15h-16h-25h-8h-18zM555 0h-47h-35l-53 2l-64 -2h-127h-28q-2 2 -11 2h-6h-4q-20 0 -24 2q-33 9 -33 49q-2 31 -2 156v35
q0 159 2 202l2 181l-2 104q-4 406 -4 465q0 164 2 211v68q0 33 12 45q11 14 47 14h37h47h78l92 2l76 -2h39h41h28h50h45h28q20 0 29 -12q12 -9 12 -33v-4q0 -15 -2 -19v-8v-22q3 -12 0 -25v-6q0 -25 -10 -35q-12 -12 -39 -12h-6q-56 0 -72 -2h-73h-86h-84h-70h-25h-12
q-14 0 -14 -15q-1 -21 -1 -52.5t0.5 -66t0.5 -44.5v-19q0 -60 2 -76v-114v-19q0 -14 14 -14h23q124 0 161 2h19h35h4q10 0 22 -4q16 -3 23 -27q4 -9 4 -37v-8v-10q0 -29 -2 -37q0 -12 -4 -20q-1 -13 -11.5 -21t-21.5 -8q-29 -2 -127 -2h-39q-56 0 -72 -2h-16q-12 0 -12 -14
v-17v-63q0 -195 2 -250q2 -39 2 -180q2 -6 2 -45q0 -5 5 -9t11 -4h4h31h51l50 -2l53 2h82q70 0 90 2h20h25h26h5q24 0 32 -8q17 -14 17 -35v-6v-45l2 -18v-13q0 -26 -8 -34q-9 -21 -41 -21h-2h-23l-59 -2h-113z" />
    <glyph glyph-name="igrave" unicode="&#xec;" horiz-adv-x="440" 
d="M164 1606q-7 4 -17 20q-8 17 -21.5 50t-21.5 48l-30 74l-13 27l-4 8l-12 31l-4 18q0 11 8 19q13 16 41 16q6 0 8 -2h6q4 2 17 2l37 -2q37 -3 49 -45l2 -8q15 -40 18 -56l29 -84q4 -10 9.5 -28.5t8.5 -24.5l2 -10q7 -14 7 -27q0 -8 -7 -18q-9 -15 -28 -15h-6h-19h-12h-16
h-9q-8 0 -22 7zM137 18q-6 12 -6 54v32v54v26q0 121 2 156v311q0 131 2 170l2 187l-2 125v122q0 197 -2 246q0 13 9.5 23t21.5 10h51h18l19 2l18 -2q13 0 25 -4q18 -9 18 -29v-14v-4v-33v-20v-64v-12q0 -79 2 -232t2 -227v-213l-2 -399v-125q0 -52 2 -66v-16v-21
q0 -20 -2 -26q-6 -29 -36 -29h-17h-22h-21h-10h-4h-17q-42 0 -51 18z" />
    <glyph glyph-name="iacute" unicode="&#xed;" horiz-adv-x="434" 
d="M393 1882q0 -6 -4 -18l-12 -31l-4 -8l-13 -27l-30 -74q-8 -15 -21.5 -48t-21.5 -50q-10 -17 -19 -20q-7 -7 -49 -7h-12h-12q-28 0 -37 15q-6 6 -6 18t6 27l2 10q3 6 8.5 24.5t9.5 28.5l29 84q3 16 18 56l2 8q12 42 47 45l39 2q13 0 17 -2h6q2 2 8 2q28 0 41 -16
q8 -8 8 -19zM309 682l-2 -399v-125q0 -52 2 -66v-16v-21q0 -20 -2 -26q-6 -29 -37 -29h-16h-23h-20h-10h-4h-17q-42 0 -51 18q-6 12 -6 54v32v54v26q0 119 2 154v313q0 131 2 170l2 187l-2 125v122q0 197 -2 246q0 13 9.5 23t21.5 10h51h18l19 2q6 0 8 -2q27 0 35 -4
q18 -9 18 -29v-14v-4v-33v-20v-64v-12q0 -79 2 -232t2 -227v-213z" />
    <glyph glyph-name="icircumflex" unicode="&#xee;" horiz-adv-x="684" 
d="M561 1669v-6q0 -23 -35 -45h-2l-16 -12q-19 -15 -25 -17q-9 -6 -18 -6q-15 0 -31 16l-18 27l-8 12l-37 52l-2 4l-7 8l-12 16q-2 4 -7 4t-9 -4l-12 -16l-7 -8l-4 -4q-34 -51 -35 -52l-8 -12l-18 -27q-16 -16 -31 -16q-9 0 -18 6q-6 2 -25 17l-16 12h-2q-35 22 -35 45
q0 16 22 45l19 25l16 24q99 152 131 187l2 4q16 16 29 16t29 -16l2 -4q36 -42 131 -187l16 -24l19 -25q16 -20 22 -39zM434 682l-2 -399q0 -96 2 -125v-66v-16v-21q0 -20 -2 -26q-6 -29 -35 -29h-18h-23h-20h-8h-4h-19q-39 0 -51 18q-7 17 -4 54v32v54v26v152l2 315v170
q2 41 2 187v125l-2 122v246q0 14 9 23.5t22 9.5h51h16l19 2l16 -2q21 0 29 -4q16 -10 16 -29v-14v-4v-33q0 -16 2 -20v-64v-12l2 -459v-213z" />
    <glyph glyph-name="idieresis" unicode="&#xef;" horiz-adv-x="673" 
d="M184 1638h-14h-2q-21 0 -33 15q-10 10 -10 26l-2 52q0 41 2 51l10 26q15 15 33 15h2h14h17h10h25h14h14q31 -3 41 -27q6 -9 6 -31v-77q0 -18 -10 -31q-13 -19 -37 -19h-14h-14h-25h-10h-17zM424 1638h-12h-4q-21 0 -33 15q-10 10 -10 26l-3 52l3 51q0 16 10 26
q15 15 33 15h4h12h18h9h24h17h14q27 -3 41 -27q4 -12 4 -33v-75q0 -18 -8 -31q-13 -19 -37 -19h-14h-17h-24h-9h-18zM250 18q-6 12 -6 54v32q0 42 2 54v26v156v311l2 170l2 187q0 98 -2 125v122v246q-1 13 8 23t23 10h51h16l19 2l20 -2q13 0 25 -4q16 -10 16 -29v-14v-4v-33
v-20q3 -40 0 -64v-12q0 -79 2 -232t2 -227v-215l-2 -397v-125q2 -14 2 -66v-16v-21q0 -20 -2 -26q-6 -29 -35 -29h-18h-23h-20h-10h-5h-16q-39 0 -51 18z" />
    <glyph glyph-name="eth" unicode="&#xf0;" horiz-adv-x="1107" 
d="M379 0h-10q-38 0 -50 18q-8 8 -8 60v12v57v35q0 52 -2 66v94q-2 45 -2 213v121q0 14 -14 14h-25q-8 -2 -43 -2q-57 0 -75 -2q-13 0 -22 9.5t-9 21.5v43v14v33q0 12 2 14q3 22 24 25h9h10l131 2q14 0 14 14q0 29 4 225v127v78v78v96v11q0 32 13 45q12 12 94 12q6 2 29 2
q77 0 145 -8q194 -21 303 -160q82 -101 127 -293q24 -114 33 -278q3 -77 -13 -203l-6 -43q-24 -150 -71 -250q-41 -77 -101 -137q-42 -42 -99.5 -78t-111.5 -53q-89 -28 -159 -31h-4q-58 -4 -72 -2h-23h-18zM606 193q60 21 115 71q75 69 100 131q22 49 31 80q39 118 39 281
q0 220 -53 391q-13 44 -52 94q-35 44 -64.5 70t-64.5 39q-36 12 -82 18h-8q-6 2 -47 2h-16h-19q-12 0 -12 -14v-15q0 -74 -2 -92v-65l2 -322q0 -14 14 -14h43h13h39h22h4l8 2q14 0 25.5 -9.5t11.5 -27.5v-33v-26v-2v-15q0 -27 -6 -39q-8 -14 -31 -14q-4 0 -6 2h-10h-16h-9
h-51h-37q-14 0 -14 -14q0 -197 2 -252v-35v-25q0 -81 2 -108v-8v-62q3 -15 17 -12q56 3 112 23z" />
    <glyph glyph-name="ntilde" unicode="&#xf1;" horiz-adv-x="944" 
d="M457 1669l-13 4q-46 21 -69 21q-30 0 -45 -21q-5 -11 -16.5 -19.5t-24.5 -8.5h-2l-45 18q-40 23 -43 47q-7 29 34 70l5 2q45 48 108 57h23q54 0 127 -33l47 -18q21 -6 35 -6q12 0 14 2q12 3 31 31q14 22 41 22q7 0 13.5 -2.5t10.5 -4.5l4 -3l39 -27l3 -2q3 -3 6 -5.5
t6.5 -7.5t5.5 -11v-11q0 -12 -7 -26q-26 -45 -74 -72t-102 -27q-48 0 -112 31zM184 0h-12h-2q-19 0 -31 12q-8 8 -8 25q-2 10 -2 45v37v45q0 116 -2 145v209v19q0 43 -2 55v55v172v86v25l-4 112v84l-2 97v159v66v49q0 34 41 37h28h9h12h8h21h26q21 -3 37 -25q9 -12 12 -30
l17 -43l92 -275q13 -43 63 -196l82 -240q65 -187 78 -227q0 -4 2 -6q0 -2 2 -2t2 2v30v135q2 55 2 252q0 152 -2 193l-2 155q0 78 2 101v90v33l2 10q0 17 9.5 28t23.5 13q6 2 37 2h16h9h16h8q30 0 43 -16q8 -8 8 -27v-72v-71v-86q0 -135 2 -170v-97q0 -131 -2 -168v-116v-2
v-56q2 -14 2 -59q0 -189 -2 -240v-262v-6v-16q0 -46 -14 -60q-13 -10 -41 -10h-12h-15h-53h-18q-30 0 -45 47q-2 2 -2 6q-15 35 -23 62l-20 51l-39 115l-23 63q-20 68 -35 102l-55 156l-25 70l-43 121l-45 131l-4 12l-10 29q-1 1 -3.5 0.5t-2.5 -2.5v-35v-74v-86v-33v-33
q0 -126 -2 -161v-140q0 -91 -2 -118v-9l2 -43l2 -47v-65v-76q-1 -23 -14 -33t-29 -10h-25h-20h-8h-15z" />
    <glyph glyph-name="ograve" unicode="&#xf2;" horiz-adv-x="946" 
d="M428 1604q-4 3 -8 8t-7 10l-3 4l-43 98q-9 30 -31 74l-12 25q0 1 -2 4t-3 6l-12 31q-4 12 -4 16q0 13 8 21q11 14 41 14h8h9h16q29 0 37 -2q35 -3 47 -43l4 -10l19 -54l26 -84q7 -18 19 -55l4 -8q6 -24 6 -27q0 -8 -6 -20q-15 -15 -31 -15h-6q-15 0 -19 2h-10h-18
q-2 -2 -6 -2q-13 0 -23 7zM281 53q-74 55 -125 154q-57 112 -81 252t-24 327v80q5 193 46.5 339t142.5 251q92 98 243 98q49 0 105 -16q126 -38 203 -197q67 -130 90 -307q14 -106 14 -258v-67v-9q-3 -117 -10 -196q-15 -134 -56 -250q-53 -142 -141 -209q-95 -65 -199 -65
q-114 0 -208 73zM489 147l15 3q44 5 79.5 29t55.5 65q47 96 68 245q7 57 10 148l2 57q4 94 4 103q0 115 -16 227q-27 158 -72 250q-23 50 -62 83.5t-90 33.5q-38 0 -77 -20t-62 -52q-65 -89 -86 -203q-22 -121 -31 -291v-63q0 -310 86 -481q28 -54 56 -82q55 -52 120 -52z
" />
    <glyph glyph-name="oacute" unicode="&#xf3;" horiz-adv-x="946" 
d="M502 1599h-19h-12q-4 -2 -18 -2q-20 0 -35 15q-6 12 -6 20q0 3 6 27l2 8l18 55l29 84l18 54l2 10q9 22 19 32t31 11q6 2 36 2h17h6h10q30 0 41 -14q6 -9 6 -21q0 -4 -4 -16l-12 -31l-4 -10l-12 -25l-31 -74q-11 -34 -43 -100q-9 -14 -17 -20q-11 -7 -22 -7q-6 0 -6 2z
M281 53q-74 55 -125 154q-57 112 -81 252t-24 327v80q5 193 46.5 339t142.5 251q92 98 243 98q49 0 105 -16q126 -38 203 -197q67 -130 90 -307q14 -106 14 -258v-67v-9q-3 -117 -10 -196q-15 -134 -56 -250q-53 -142 -141 -209q-95 -65 -199 -65q-114 0 -208 73zM489 147
l15 3q44 5 79.5 29t55.5 65q47 96 68 245q7 57 10 148l2 57q4 94 4 103q0 115 -16 227q-27 158 -72 250q-23 50 -62 83.5t-92 33.5q-38 0 -76 -20t-61 -52q-65 -89 -86 -203q-22 -121 -31 -291v-63q0 -310 86 -481q28 -54 56 -82q55 -52 120 -52z" />
    <glyph glyph-name="ocircumflex" unicode="&#xf4;" horiz-adv-x="946" 
d="M332 1587l-23 19l-16 10l-4 2q-35 22 -35 43q0 6 3 13t6 12t9 12.5t7 9.5l16 23l16 26q34 48 62 90q36 55 69 97l2 2q15 18 29 18q15 0 29 -18l4 -2l63 -93l66 -94l18 -26l17 -23q18 -30 22 -41v-6q0 -21 -35 -43l-2 -2q-1 0 -2.5 -1t-5.5 -4t-8 -5l-25 -19
q-16 -4 -18 -4q-15 0 -31 16l-18 27l-8 12q-1 1 -35 52l-4 4q0 2 -6 8l-13 16q-1 4 -6 4t-10 -4l-12 -16l-7 -8l-2 -4l-36 -52q-3 -6 -9 -12l-18 -27q-8 -16 -31 -16q-2 0 -18 4zM281 53q-74 55 -125 154q-57 112 -81 252t-24 327v80q5 193 46.5 339t142.5 251q92 98 243 98
q49 0 105 -16q126 -38 203 -197q67 -130 90 -307q14 -106 14 -258v-67v-9q-3 -117 -10 -196q-15 -134 -56 -250q-53 -142 -141 -209q-95 -65 -199 -65q-114 0 -208 73zM489 147l15 3q44 5 79.5 29t55.5 65q47 96 68 245q7 57 10 148l2 57q4 94 4 103q0 115 -16 227
q-27 158 -72 250q-23 50 -62 83.5t-92 33.5q-38 0 -76 -20t-61 -52q-65 -89 -86 -203q-22 -121 -31 -291v-63q0 -310 86 -481q28 -54 56 -82q55 -52 120 -52z" />
    <glyph glyph-name="otilde" unicode="&#xf5;" horiz-adv-x="946" 
d="M530 1640q-34 9 -75 27l-13 6q-47 21 -69 21q-30 0 -45 -21q-16 -28 -41 -28h-2q-8 0 -18.5 4.5t-18.5 8.5l-8 5q-40 23 -43 47q-4 17 4.5 32t31.5 38l3 2q46 46 108 55q6 2 23 2q50 0 129 -33l45 -18q24 -8 34 -8q3 0 15 4q11 3 33 28q16 23 39 23q15 0 28 -8l39 -29
q18 -11 21 -24v-13q0 -10 -7 -24q-27 -45 -75 -73t-101 -28q-5 0 -37 4zM281 53q-74 55 -125 154q-57 112 -81 252t-24 327v80q5 193 46.5 339t142.5 251q92 98 243 98q49 0 105 -16q126 -38 203 -197q67 -127 90 -307q14 -106 14 -258v-67v-9q-3 -117 -10 -196
q-15 -134 -56 -250q-53 -142 -141 -209q-95 -65 -199 -65q-114 0 -208 73zM489 147l15 3q44 5 79.5 29t55.5 65q47 96 68 245q7 57 10 148l2 57q4 94 4 103q0 115 -16 227q-27 158 -72 250q-23 50 -62 83.5t-92 33.5q-38 0 -76 -20t-61 -52q-65 -89 -86 -203
q-22 -121 -31 -291v-63q0 -310 86 -481q28 -54 56 -82q55 -52 120 -52z" />
    <glyph glyph-name="odieresis" unicode="&#xf6;" horiz-adv-x="946" 
d="M307 1638h-2q-22 0 -35 13q-10 13 -10 26v54v49q0 15 10 28q13 13 35 13h2l12 2l19 -2h8h25h16h14q29 0 41 -27q4 -12 4 -31q3 -42 0 -75q0 -20 -8 -33q-14 -17 -37 -17h-14h-16h-25h-8l-19 -2q-10 0 -12 2zM547 1638h-2q-23 0 -33 13q-10 10 -10 26l-2 54q0 39 2 51
q0 16 10 26q10 13 33 13h2l14 2l17 -2h10h24h15h14q32 0 41 -27q6 -15 6 -31v-75q0 -20 -10 -33q-14 -17 -37 -17h-14h-15h-24h-10l-17 -2q-12 0 -14 2zM281 53q-74 55 -125 154q-57 112 -81 252t-24 327v80q5 193 46.5 339t142.5 251q92 98 243 98q49 0 105 -16
q126 -38 203 -197q67 -130 90 -307q14 -106 14 -258v-67v-9q-3 -117 -10 -196q-15 -134 -56 -250q-53 -142 -141 -209q-95 -65 -199 -65q-114 0 -208 73zM489 147l15 3q44 5 79.5 29t55.5 65q47 96 68 245q7 57 10 148l2 57q4 94 4 103q0 115 -16 227q-27 158 -72 250
q-23 50 -62 83.5t-92 33.5q-38 0 -76 -20t-61 -52q-65 -89 -86 -203q-22 -121 -31 -291v-63q0 -310 86 -481q28 -54 56 -82q55 -52 120 -52z" />
    <glyph glyph-name="divide" unicode="&#xf7;" horiz-adv-x="784" 
d="M391 905h-33q-45 3 -45 43v25v18v8q-1 5 -1 10v8v6l1 3q0 21 13 31q10 10 24 10h43h41q15 0 25 -10q12 -9 12 -31q2 -19 0 -27v-8v-18v-15q0 -40 -25 -49q-12 -4 -26 -4h-29zM625 684h-7h-10h-16h-8h-52h-59h-43q-12 2 -55 2q-12 2 -56 2h-4h-41q-10 -2 -45 -2h-75
q-14 0 -22.5 9t-8.5 22v41v16v29q0 14 2 16q3 25 25 25l6 2h18h23h4l149 2h60h18q88 0 111 -2h12q31 0 39 2h22h6h7q14 0 25.5 -9.5t11.5 -27.5v-33v-24v-4v-15q0 -29 -7 -39q-9 -12 -30 -12zM391 463l-33 2q-45 0 -45 41v24v21v6v27q0 19 13 32q9 9 24 9q10 2 43 2l41 -2
q16 0 25 -9q12 -9 12 -32q3 -12 0 -27v-6v-21v-12q0 -40 -25 -49q-12 -4 -26 -4z" />
    <glyph glyph-name="oslash" unicode="&#xf8;" horiz-adv-x="983" 
d="M256 -37h-31h-14h-6q-32 0 -43 14q-10 16 -4 37l35 107l4 16q2 2 2 8q0 11 -6 17q-3 5 -9 14t-12 19t-10 20q-60 118 -85.5 265t-25.5 341v82q5 201 48.5 354.5t148.5 262.5q44 49 111.5 75.5t142.5 26.5q57 0 110 -16q8 -1 20.5 -6.5t14.5 -6.5q14 -5 17 6q15 35 47 37
q6 2 32 2h17l22 -2h2h2q23 0 35 -12q6 -9 6 -22q0 -15 -2 -17q-5 -27 -10 -35l-4 -12q-4 -11 -10 -31l-8 -24l-2 -4l-3 -11q0 -6 7 -16l28 -51q68 -138 92 -322q17 -129 17 -270v-68v-10q-3 -137 -12 -205q-15 -153 -56 -260q-59 -152 -147 -219q-98 -70 -207 -70
q-83 0 -160 41q-13 4 -16 -8q-8 -26 -18 -36t-33 -11h-27zM287 420l55 178l102 313l88 273l13 41l55 172v8q0 11 -8 16q-42 31 -92 31q-39 0 -79.5 -20.5t-64.5 -55.5q-62 -86 -87 -204.5t-33 -309.5q-3 -18 -3 -65q0 -209 46 -377q0 -2 3.5 -2t4.5 2zM510 156h12
q44 1 82 28t62 70q51 104 69 258q10 69 10 154l5 59q2 25 2 106q0 116 -17 238q-13 85 -26 127q-2 7 -7 5q-2 0 -2 -3l-14 -45l-22 -72l-15 -45l-16 -53l-25 -82q-5 -16 -9 -30.5t-7.5 -25t-5.5 -17.5t-4 -13l-2 -6l-7 -21l-6 -22l-12 -39l-10 -37l-37 -110l-31 -103
l-33 -100l-34 -113l-15 -49l-2 -8q0 -9 8 -17q52 -34 109 -34z" />
    <glyph glyph-name="ugrave" unicode="&#xf9;" 
d="M395 1604l-18 22l-43 98q-9 30 -31 74q-4 6 -10 25l-6 10l-13 31l-4 16q0 12 9 21q11 14 40 14h9h8h16q29 0 37 -2q35 -3 47 -43l4 -10l19 -54l26 -84q14 -35 19 -55l4 -8q6 -24 6 -27q0 -8 -6 -20q-15 -15 -31 -15h-4q-16 0 -20 2h-29l-6 -2q-12 0 -23 7zM455 -20h-15
q-97 3 -164 53q-72 51 -112 129q-27 46 -39 121q-17 84 -14 245v7l-2 55v55v72v24v64v98l-3 27q0 83 -2 110v84l-2 97v159v66v51q0 24 21 33q6 2 20 2l31 2h25h24h15q32 0 34 -37q2 -4 2 -22l-2 -172q2 -14 2 -70v-62v-61v-49l-2 -66v-69v-72v-86v-35v-33q0 -74 2 -94
q0 -27 2 -35v-10l3 -108q2 -82 16.5 -138t50.5 -104q35 -44 96 -53q6 -2 25 -2q56 0 82 26q30 23 47 56q24 40 33 139q6 72 6 162v36l2 189l-2 178v168v12v185q-3 27 0 55v47q0 19 -2 25v43v6v8q0 19 8 27q10 16 35 16h26h21h2h12h17h8q23 0 31 -8q14 -11 14 -31v-31v-14
v-41v-74l-2 -30v-203v-58q0 -81 2 -104v-123v-74q2 -6 2 -36v-33v-68v-51v-68q0 -93 -2 -116q-5 -77 -16 -127t-39 -103q-58 -105 -172 -145q-56 -16 -125 -16z" />
    <glyph glyph-name="uacute" unicode="&#xfa;" 
d="M377 1612q-6 12 -6 20q0 3 6 27l4 8q3 14 9 32.5t7 22.5l29 84l18 54l5 10q12 40 47 43q8 2 36 2h17h6h10q30 0 41 -14q6 -6 6 -21l-2 -16l-14 -31q0 -1 -0.5 -2t-1.5 -3.5t-2 -4.5l-10 -25l-33 -74q-11 -34 -43 -100q-9 -14 -17 -20q-8 -5 -45 -5h-2h-10q-6 -2 -20 -2
q-20 0 -35 15zM455 -20h-15q-97 3 -164 53q-72 51 -112 129q-27 46 -39 121q-17 84 -14 245v7l-2 55v55v72v24v64v98l-3 27q0 83 -2 110v84l-2 97v159v66v51q0 24 21 33q6 2 20 2q6 2 31 2h25h39q32 0 34 -37q2 -4 2 -22l-2 -172q2 -14 2 -70v-62v-61v-49l-2 -66v-69v-72
v-86v-35v-33q0 -74 2 -94q0 -27 2 -35v-10l3 -108q2 -82 16.5 -138t50.5 -104q35 -44 96 -53q6 -2 25 -2q56 0 82 26q30 23 47 56q24 40 33 139q6 72 6 162v36l2 189l-2 178v168v12v185q-3 27 0 55v47q0 19 -2 25v43v6v8q0 19 8 27q10 16 35 16h26h21h2h12h25q23 0 31 -8
q14 -11 14 -31v-31v-14v-41v-74l-2 -30v-203v-58q0 -81 2 -104v-123v-74q2 -6 2 -36v-33v-68v-51v-68q0 -93 -2 -116q-5 -77 -16 -127t-39 -103q-58 -105 -172 -145q-56 -16 -125 -16z" />
    <glyph glyph-name="ucircumflex" unicode="&#xfb;" 
d="M315 1587l-24 19l-17 10l-2 2q-34 21 -34 43q0 15 22 47l16 23l19 26l63 94q42 61 66 93l4 2q9 18 29 18q13 0 28 -18l2 -2q6 -6 131 -187l17 -26l16 -23q20 -26 23 -41q2 -2 2 -6q0 -15 -13.5 -27.5t-21.5 -15.5l-4 -2l-16 -10l-23 -19q-4 -1 -9 -2l-7.5 -1.5t-3.5 -0.5
q-10 0 -18.5 5.5t-10.5 10.5l-19 27q-6 6 -8 12l-37 52l-2 4l-6 8l-12 16q-1 4 -6 4t-10 -4q-11 -12 -13 -16q-6 -6 -6 -8l-4 -4q-34 -51 -35 -52l-8 -12l-18 -27q-16 -16 -31 -16q-3 0 -19 4zM455 -20h-15q-97 3 -164 53q-72 51 -112 129q-27 46 -39 121q-17 84 -14 245v7
l-2 55v55v72v24v64v98l-3 27q0 83 -2 110v84l-2 97v159v66v51q0 24 21 33q6 2 20 2l31 2h25h24h15q32 0 34 -37q2 -4 2 -22l-2 -172q2 -14 2 -70v-62v-61v-49l-2 -66v-69v-72v-86v-35v-33q0 -74 2 -94q0 -27 2 -35v-10l3 -108q2 -82 16.5 -138t50.5 -104q35 -44 96 -53
q6 -2 25 -2q56 0 82 26q30 23 47 56q24 40 33 139q6 72 6 162v36l2 189l-2 178v168v12v185q-3 27 0 55v47q0 19 -2 25v43v4v10q0 19 8 27q10 16 35 16h26h21h2h12h17h4h4q23 0 31 -8q14 -11 14 -31v-31v-14v-41v-74l-2 -30v-203v-58q0 -81 2 -104v-123v-74q2 -6 2 -34v-35
v-68v-51v-68q0 -93 -2 -116q-5 -77 -16 -127t-39 -103q-58 -105 -172 -145q-56 -16 -125 -16z" />
    <glyph glyph-name="udieresis" unicode="&#xfc;" 
d="M291 1638h-2q-23 0 -33 13q-10 10 -10 26l-2 54q0 39 2 49q0 18 10 28q10 13 33 13h2l14 2l17 -2h10h24h15h14q32 0 41 -27q6 -9 6 -31v-75q0 -20 -10 -33q-14 -17 -37 -17h-14h-15h-24h-10l-17 -2q-12 0 -14 2zM530 1638h-4q-19 0 -32 13q-11 11 -11 26l-2 54l2 49
q0 17 11 28q13 13 32 13h4l13 2l18 -2h8h25h16h15q29 0 41 -27q4 -12 4 -31v-75q0 -20 -8 -33q-14 -17 -37 -17h-15h-16h-25h-8l-18 -2q-11 0 -13 2zM455 -20h-15q-97 3 -164 53q-72 51 -112 129q-27 46 -39 121q-14 68 -14 245v7l-2 55v55v72v24v64v98q0 18 -3 27
q0 83 -2 110v84l-2 97v159v66v51q0 24 21 33q6 2 18 2l33 2h25h24h15q32 0 34 -37q2 -4 2 -22q0 -11 -0.5 -42t-0.5 -63.5t1 -66.5v-70v-62v-61v-49l-2 -66v-69v-72v-86v-35v-33q0 -74 2 -94q0 -27 2 -35v-10l3 -108q2 -82 16.5 -138t50.5 -104q35 -44 96 -53q6 -2 25 -2
q56 0 82 26q34 27 47 56q24 40 33 139q6 72 6 162v36l2 189l-2 178v168v12v185q-3 27 0 55v47q0 19 -2 25v43v6v8q0 19 8 27q10 16 35 16h26h23h12h17h8q23 0 31 -8q14 -11 14 -31v-31v-14v-41v-74l-2 -30v-203v-58q0 -81 2 -104v-123v-74q2 -6 2 -36v-33v-68v-51v-68
q0 -93 -2 -116q-5 -77 -16 -127t-39 -103q-58 -105 -172 -145q-56 -16 -125 -16z" />
    <glyph glyph-name="yacute" unicode="&#xfd;" horiz-adv-x="802" 
d="M324 1614q-7 10 -7 18q0 4 3.5 14t3.5 13l4 10q7 29 18 53l27 84l18 56l4 8q12 42 47 45l37 2q13 0 17 -2h6q2 2 10 2q28 0 41 -16q8 -8 8 -19q0 -6 -6 -18q-1 -8 -6 -18t-6 -13l-4 -8q0 -1 -1.5 -4t-4 -9.5t-5.5 -13.5l-32 -74q-18 -45 -43 -98q-4 -11 -19 -22
q-12 -5 -43 -5h-2h-10h-21q-25 0 -34 15zM762 1501q0 -6 -4 -18q0 -1 -8 -23l-13 -33l-6 -18q-43 -120 -74 -195q-28 -71 -34 -92l-62 -161l-35 -95l-22 -65q-19 -55 -19 -70l2 -55v-25v-100v-84v-70q2 -18 2 -92v-14v-109v-41v-82v-22q-9 -31 -32 -37h-17h-8h-6h-27h-34h-5
h-8q-19 0 -28 6q-15 9 -15 31q-3 25 0 47v4q2 53 2 254v35v102v96v76v45v31l-4 25q-2 23 -22 77v2q-56 157 -142 383l-71 195l-4 14l-5 9l-10 28q0 1 -4 13l-6 18q-2 2 -2 10q0 13 6 19q9 14 39 14h23h14h16h11l14 2h4q24 0 33 -18q6 -8 12 -25l2 -8l25 -60v-4l16 -39
l16 -41l25 -65l12 -37l10 -27l13 -32l8 -25l37 -98l16 -45q0 -4 2 -6q1 -2 5 -2t6 2l2 6l14 43l39 100l8 25l14 34l9 25l14 37l24 63l17 43l14 37l2 6l25 60l2 6l12 27q10 16 41 16h10h13h14h16h21h2h4h10q15 -3 25 -16q4 -12 4 -17z" />
    <glyph glyph-name="thorn" unicode="&#xfe;" horiz-adv-x="849" 
d="M125 18q-6 8 -6 138v32v43v25v135q2 35 2 156v115q0 114 2 145l2 156q0 89 -2 114v115q0 131 -2 178v127q0 37 37 37h98q37 0 37 -37v-125q-2 -43 -2 -170v-43q0 -14 14 -14h88q184 -6 279 -86q60 -50 93.5 -123.5t33.5 -157.5q0 -88 -35 -172q-53 -117 -150 -166
q-56 -29 -122 -40.5t-173 -16.5h-12q-15 -3 -12 -16v-111v-25v-43v-32v-111q0 -16 -6 -25q-9 -18 -35 -18h-59h-11h-10h-8l-8 -2q-21 0 -33 18zM418 565q5 0 33 4q62 11 96.5 35.5t54.5 73.5q19 36 19 102q0 31 -5 56q-12 94 -102 129q-68 22 -149 22l-62 -2q-14 -3 -14 -16
v-6l2 -156q2 -31 2 -145v-87q0 -14 14 -14h23q42 0 88 4z" />
    <glyph glyph-name="ydieresis" unicode="&#xff;" horiz-adv-x="802" 
d="M188 1679q-2 10 -2 52q0 41 2 51q0 17 9 26q15 15 34 15h2h15h16h8h27h14h15q31 -3 41 -27q6 -24 6 -33q0 -61 -2 -75q0 -23 -8 -31q-13 -19 -37 -19h-15h-16h-25h-8h-16h-15h-2q-22 0 -34 15q-9 9 -9 26zM430 1679l-2 52q0 41 2 51q0 16 10 26q15 15 33 15h4h12h19h8h25
h16h14q27 -3 41 -27q4 -12 4 -33v-75q0 -18 -10 -31q-10 -19 -35 -19h-14h-16h-25h-8h-19h-12h-4q-21 0 -33 15q-10 10 -10 26zM762 1501q0 -6 -4 -18q0 -1 -8 -23l-13 -33l-6 -18q-43 -120 -74 -195q-28 -71 -34 -92l-62 -161l-35 -95l-22 -65q-19 -55 -19 -70l2 -55v-25
v-100v-84v-70q2 -18 2 -92v-14v-109v-41q0 -5 0.5 -19.5t0.5 -29.5t-1 -31v-24q-9 -31 -32 -37h-17h-8h-6h-27h-39h-8q-19 0 -28 6q-15 9 -15 31q-3 25 0 47v4q2 53 2 254v35v102v96v76v45v31l-4 25q-2 23 -22 77v2q-56 157 -142 383l-71 195l-4 14l-5 9l-10 28q0 1 -4 13
l-6 18q-2 2 -2 10q0 13 6 19q8 14 31 14h10h21h14h16h11l14 2h4q24 0 33 -18q6 -8 12 -25l2 -8l25 -60v-4l16 -39l16 -41l25 -65l12 -37l10 -27l13 -32l8 -25l37 -98l16 -45q0 -4 2 -6q1 -2 5 -2t6 2l2 6l14 43l39 100l8 25l14 34l9 25l14 37l24 63l17 43l14 37l2 6l25 60
l2 6l12 27q10 16 39 16h12h13h14h16h21h2h4h10q15 -3 25 -16q4 -12 4 -17z" />
    <glyph glyph-name="Amacron" unicode="&#x100;" horiz-adv-x="903" 
d="M600 1649h-74h-73h-140h-24h-19q-27 0 -43 4q-32 8 -32 37q-2 10 -2 51v4q0 29 2 37q3 19 20 28q3 1 9 2.5t10.5 3t7.5 1.5h8l78 2l73 -2h76h141h31q27 0 47 -5q33 -6 39 -38q2 -10 2 -50q0 -55 -22 -67q-11 -8 -41 -8h-74zM115 0h-17h-16q-25 0 -33 14q-12 15 -6 35
l4 23l31 129q2 7 16 63l17 64l10 41q1 7 2.5 14.5t3 14.5t2.5 10q2 14 16 69l11 45q10 39 57 252q0 1 41 187l27 116l6 25l18 69q30 117 31 121l26 111q1 9 5 23t4 16l6 35l4 16q0 15 8 23q12 18 41 18h4h29q41 0 55 2q30 0 39 -33q1 -3 2.5 -10t3 -14.5t2.5 -14.5l8 -37
l17 -92q5 -15 10 -53l18 -102l15 -64l10 -53q7 -27 8 -37q3 -13 14 -67.5t17 -77.5l6 -31q15 -50 17 -72l18 -90l18 -90l15 -72l12 -53l18 -82l23 -108l20 -86l19 -78l8 -51q6 -24 6 -31l-4 -17l-6 -8q-9 -9 -25 -12h-8h-8h-6h-21h-28h-21q-28 0 -37 37l-14 72q-3 8 -14 59
l-25 115l-2 6q-18 69 -25 121q-9 30 -12 61l-2 8q-3 15 -16 15h-47h-45h-4h-156h-4q-18 0 -21 -15v-4l-28 -141l-19 -92q-6 -33 -10 -43l-2 -6l-12 -52l-13 -51l-4 -18l-6 -29q-7 -22 -18.5 -32.5t-34.5 -10.5h-12h-7h-6h-10h-14zM362 651l50 2h88h55q10 0 10 11q0 6 -4 22
l-16 72l-17 86l-10 49q-1 7 -8.5 49.5t-13.5 69.5l-25 121l-4 20q0 5 -3 5t-3 -5l-6 -25q-16 -67 -17 -73l-16 -72l-25 -111l-24 -108q-2 -10 -5 -24.5t-8.5 -36t-9.5 -37.5v-2q0 -5 4 -9t8 -4z" />
    <glyph glyph-name="amacron" unicode="&#x101;" horiz-adv-x="903" 
d="M600 1649h-74h-73h-140h-24h-19q-27 0 -43 4q-32 8 -32 37q-2 10 -2 51v4q0 29 2 37q3 19 20 28q3 1 9 2.5t10.5 3t7.5 1.5h8l78 2l73 -2h76h141h31q27 0 47 -5q33 -6 39 -38q2 -10 2 -50q0 -55 -22 -67q-11 -8 -41 -8h-74zM115 0h-17h-16q-25 0 -33 14q-12 15 -6 35
l4 23l31 129q2 7 16 63l17 64l10 41q1 7 2.5 14.5t3 14.5t2.5 10q2 14 16 69l11 45q10 39 57 252q0 1 41 187l27 116l6 25l18 69q30 117 31 121l26 111q1 9 5 23t4 16l6 35l4 16q0 15 8 23q12 18 41 18h4h29q41 0 55 2q30 0 39 -33q1 -3 2.5 -10t3 -14.5t2.5 -14.5l8 -37
l17 -92q5 -15 10 -53l18 -102l15 -64l10 -53q7 -27 8 -37q3 -13 14 -67.5t17 -77.5l6 -31q15 -50 17 -72l18 -90l18 -90l15 -72l12 -53l18 -82l23 -108l20 -86l19 -78l8 -51q6 -24 6 -31l-4 -17l-6 -8q-9 -9 -25 -12h-8h-8h-6h-21h-28h-21q-28 0 -37 37l-14 72q-3 8 -14 59
l-25 115l-2 6q-18 69 -25 121q-9 30 -12 61l-2 8q-3 15 -16 15h-47h-45h-4h-156h-4q-18 0 -21 -15v-4l-28 -141l-19 -92q-6 -33 -10 -43l-2 -6l-12 -52l-13 -51l-4 -18l-6 -29q-7 -22 -18.5 -32.5t-34.5 -10.5h-12h-7h-6h-10h-14zM362 651l50 2h88h55q10 0 10 11q0 6 -4 22
l-16 72l-17 86l-10 49q-1 7 -8.5 49.5t-13.5 69.5l-25 121l-4 20q0 5 -3 5t-3 -5l-6 -25q-16 -67 -17 -73l-16 -72l-25 -111l-24 -108q-2 -10 -5 -24.5t-8.5 -36t-9.5 -37.5v-2q0 -5 4 -9t8 -4z" />
    <glyph glyph-name="Abreve" unicode="&#x102;" horiz-adv-x="903" 
d="M276 1665q-52 36 -79 70h-2q-2 3 -7 10t-7 9.5t-4.5 7.5t-3 8.5t0 8.5t2.5 11q5 19 37 41q28 22 51 22t53 -30q7 -9 41 -33q50 -29 105 -29q54 0 104 29q25 14 45 37q26 26 50 26q13 0 32 -8q49 -34 58 -55q2 -2 2 -12q0 -22 -21 -43h-2q-36 -42 -82 -70
q-83 -53 -184 -53q-100 0 -189 53zM115 0h-17h-16q-25 0 -33 14q-12 15 -6 35l4 23l31 129q2 7 16 63l17 64l10 41q1 7 2.5 14.5t3 14.5t2.5 10q2 14 16 69l11 45q10 39 57 252q0 1 41 187l27 116l6 25l18 69q30 117 31 121l26 111q1 9 5 23t4 16l6 35l4 16q0 15 8 23
q12 18 41 18h4h29q41 0 53 2q32 0 41 -33q1 -3 2.5 -10t3 -14.5t2.5 -14.5l8 -37l17 -92q5 -15 10 -53l18 -102l15 -64l10 -53q7 -27 8 -37q3 -13 14 -67.5t17 -77.5l6 -31q15 -50 17 -72l18 -90l18 -90l15 -72l12 -53l18 -82l23 -108l20 -86l19 -78l8 -51q6 -24 6 -31
l-4 -17l-6 -8q-9 -9 -25 -12h-8h-8h-6h-21h-28h-21q-28 0 -37 37l-14 72q-3 8 -14 59l-25 115l-2 6q-18 69 -25 121q-9 30 -12 61l-2 8q-3 15 -16 15h-47h-45h-4h-156h-4q-18 0 -21 -15v-4l-28 -141l-19 -92q-6 -33 -10 -43l-2 -6l-12 -52l-13 -51l-4 -18l-6 -29
q-7 -22 -18.5 -32.5t-34.5 -10.5h-12h-7h-6h-10h-14zM362 651l50 2h88h55q10 0 10 11q0 6 -4 22l-16 72l-17 86l-10 49q-1 7 -8.5 49.5t-13.5 69.5l-25 121l-4 20q0 5 -3 5t-3 -5l-6 -25q-16 -67 -17 -73l-16 -72l-25 -111l-24 -108q-2 -10 -5 -24.5t-8.5 -36t-9.5 -37.5v-2
q0 -5 4 -9t8 -4z" />
    <glyph glyph-name="abreve" unicode="&#x103;" horiz-adv-x="903" 
d="M276 1665q-52 36 -79 70h-2q-2 3 -7 10t-7 9.5t-4.5 7.5t-3 8.5t0 8.5t2.5 11q5 19 37 41q28 22 51 22t53 -30q7 -9 41 -33q50 -29 105 -29q54 0 104 29q25 14 45 37q26 26 50 26q13 0 32 -8q49 -34 58 -55q2 -2 2 -12q0 -22 -21 -43h-2q-36 -42 -82 -70
q-83 -53 -184 -53q-100 0 -189 53zM115 0h-17h-16q-25 0 -33 14q-12 15 -6 35l4 23l31 129q2 7 16 63l17 64l10 41q1 7 2.5 14.5t3 14.5t2.5 10q2 14 16 69l11 45q10 39 57 252q0 1 41 187l27 116l6 25l18 69q30 117 31 121l26 111q1 9 5 23t4 16l6 35l4 16q0 15 8 23
q12 18 41 18h4h29q41 0 53 2q32 0 41 -33q1 -3 2.5 -10t3 -14.5t2.5 -14.5l8 -37l17 -92q5 -15 10 -53l18 -102l15 -64l10 -53q7 -27 8 -37q3 -13 14 -67.5t17 -77.5l6 -31q15 -50 17 -72l18 -90l18 -90l15 -72l12 -53l18 -82l23 -108l20 -86l19 -78l8 -51q6 -24 6 -31
l-4 -17l-6 -8q-9 -9 -25 -12h-8h-8h-6h-21h-28h-21q-28 0 -37 37l-14 72q-3 8 -14 59l-25 115l-2 6q-18 69 -25 121q-9 30 -12 61l-2 8q-3 15 -16 15h-47h-45h-4h-156h-4q-18 0 -21 -15v-4l-28 -141l-19 -92q-6 -33 -10 -43l-2 -6l-12 -52l-13 -51l-4 -18l-6 -29
q-7 -22 -18.5 -32.5t-34.5 -10.5h-12h-7h-6h-10h-14zM362 651l50 2h88h55q10 0 10 11q0 6 -4 22l-16 72l-17 86l-10 49q-1 7 -8.5 49.5t-13.5 69.5l-25 121l-4 20q0 5 -3 5t-3 -5l-6 -25q-16 -67 -17 -73l-16 -72l-25 -111l-24 -108q-2 -10 -5 -24.5t-8.5 -36t-9.5 -37.5v-2
q0 -5 4 -9t8 -4z" />
    <glyph glyph-name="Aogonek" unicode="&#x104;" horiz-adv-x="966" 
d="M606 -279q-22 46 -22 93q0 102 104 221q6 9 6 20q0 4 -10 54q-3 8 -14 59l-25 115l-2 6q-18 69 -25 121l-12 61l-2 8q-3 15 -16 15h-45h-47h-4h-156h-4q-18 0 -21 -15v-4l-28 -141l-19 -92q-6 -33 -10 -43l-2 -6l-12 -52l-13 -51l-4 -18l-6 -29q-7 -22 -18.5 -32.5
t-34.5 -10.5h-12h-7h-6h-10h-14h-17h-16q-25 0 -33 14q-12 15 -6 35l4 23l31 129q2 7 16 63l17 64l10 41q1 7 2.5 14.5t3 14.5t2.5 10q2 14 16 69l11 45q10 39 57 252q0 1 41 187l27 116l6 25l18 69q30 117 31 121q22 93 26 111q2 18 9 39l6 37l4 14q0 15 8 23q12 18 41 18
h4h29l55 2q30 0 39 -33q1 -3 2.5 -10t3 -14.5t2.5 -14.5l8 -37q0 -1 2 -11l6.5 -32.5t8.5 -48.5l10 -53l18 -100l15 -66l10 -53l8 -35q14 -78 31 -147l6 -31q15 -50 17 -72l18 -90l18 -90l15 -72l12 -53l18 -82l23 -108l20 -86l19 -78l10 -58v-2q2 -4 2 -18q0 -21 -10 -31
l-2 -2q0 -2 -2 -2q-95 -110 -109 -166l-2 -18q0 -25 13 -41q14 -14 30 -14q10 0 21 4t20 9t10 5l5 2q9 6 22 6q12 0 16 -4q5 -4 15 -14l35 -62q4 -4 4 -16q0 -14 -15 -29q-64 -42 -127 -45h-12q-53 0 -97.5 26.5t-68.5 71.5zM362 651l50 2h88h55q10 0 10 11q0 6 -4 22
l-16 72l-17 86l-10 49q-1 7 -8.5 49.5t-13.5 69.5l-25 121l-4 20q0 5 -3 5t-3 -5l-6 -25l-17 -73l-16 -72l-25 -111l-24 -108l-21 -98l-2 -2q0 -5 4 -9t8 -4z" />
    <glyph glyph-name="aogonek" unicode="&#x105;" horiz-adv-x="966" 
d="M606 -279q-22 46 -22 93q0 102 104 221q6 9 6 20q0 4 -10 54q-3 8 -14 59l-25 115l-2 6q-17 67 -25 123q-9 27 -12 61l-2 6q-3 15 -16 15h-45h-47h-4h-156h-4q-18 0 -21 -15v-4l-28 -141l-19 -92q-5 -29 -10 -41l-2 -8l-12 -52l-13 -49l-4 -20l-6 -29q-7 -22 -18.5 -32.5
t-34.5 -10.5h-12h-7h-6h-10h-14h-17h-16q-25 0 -33 14q-11 15 -6 35l4 23l31 131q14 47 16 61l17 64l10 43q1 7 2.5 14.5t3 14.5t2.5 10q2 11 16 67l11 45q10 39 57 252q0 1 41 187l27 116l6 25l18 69q30 117 31 121l26 111q1 9 5 23t4 16l6 37l4 14q0 15 8 23q12 18 41 18
h4h29l55 2q33 0 39 -33q5 -16 8 -39l8 -37q0 -1 2 -11l6.5 -32.5t8.5 -48.5q5 -15 10 -53l18 -100l15 -66l10 -51l8 -37q17 -87 31 -145l6 -33q15 -50 17 -72l18 -90l18 -90l15 -72l12 -53l18 -82l23 -108l20 -86l19 -78q5 -42 10 -56v-4q2 -4 2 -18q0 -21 -10 -31l-2 -2
l-2 -2q-94 -106 -109 -166l-2 -18q0 -26 13 -39q11 -14 30 -14q24 0 51 18h5q9 6 22 6q12 0 16 -4q4 -1 7.5 -4.5t5.5 -6.5l2 -3l35 -62q4 -4 4 -16q0 -14 -15 -29q-53 -39 -127 -45h-12q-53 0 -97.5 26.5t-68.5 71.5zM362 651l50 2h88h55q10 0 10 13q0 4 -4 20
q-14 57 -16 72q-6 21 -17 88l-10 47q-1 7 -8.5 49.5t-13.5 69.5l-25 121l-4 20q0 5 -3 5t-3 -5q-6 -15 -6 -25l-17 -73l-16 -72l-25 -111l-24 -108l-21 -98l-2 -2q0 -5 4 -9t8 -4z" />
    <glyph glyph-name="Cacute" unicode="&#x106;" horiz-adv-x="909" 
d="M489 1599h-16h-12q-4 -2 -19 -2q-19 0 -34 15q-7 10 -7 20q0 13 7 27l2 8l18 55l29 84l16 54l4 10q12 40 47 43q8 2 37 2h19h6h8q30 0 41 -14q8 -8 8 -21q0 -4 -4 -16l-12 -31q-1 -2 -2 -4.5t-1.5 -3.5t-0.5 -2l-13 -25l-30 -74l-45 -100q-9 -14 -17 -20q-11 -7 -22 -7
q-5 0 -7 2zM281 55q-74 51 -125 148q-57 112 -81 253t-24 330v78q5 191 46.5 339t140.5 253q44 47 108.5 72.5t134.5 25.5q46 0 105 -16q87 -24 153 -117q38 -53 64 -121l20 -75l4 -29l4 -20v-9q0 -20 -18 -32q-15 -5 -27 -5h-8h-8h-6h-25h-20h-21q-32 0 -41 35v2l-6 29
q-8 39 -20 68q-24 70 -70 100q-36 22 -78 22q-41 0 -78.5 -18.5t-60.5 -50.5q-61 -82 -85 -193t-32 -295l-2 -61q0 -153 31 -322q35 -164 109 -241q52 -55 120 -55q1 0 33 4q32 5 65 32.5t52 65.5q21 51 33 88l10 45l2 25q3 20 14 26q10 10 43 10l13 -2q24 0 30 2h19h18h6
q12 0 21 -6q9 -5 12.5 -17t1.5 -20l-4 -49q-7 -64 -20 -100q-6 -19 -11 -27q-47 -127 -135 -188q-83 -59 -184 -59q-120 0 -223 75z" />
    <glyph glyph-name="Ccircumflex" unicode="&#x108;" horiz-adv-x="909" 
d="M262 1661q0 14 23 47l16 23l18 26l64 94q42 61 66 93l4 2q9 18 28 18q14 0 29 -18l2 -2q64 -84 131 -187l16 -26l17 -23q19 -24 22 -41q2 -2 2 -6q0 -22 -34 -43l-4 -2l-17 -10l-22 -19q-16 -4 -21 -4q-8 0 -15 4t-11 8l-3 4l-18 27q-6 6 -8 12l-37 52l-2 4l-6 8l-13 16
q-1 4 -6 4t-10 -4q-10 -10 -12 -16q-6 -6 -6 -8l-4 -4q-34 -51 -35 -52l-8 -12l-19 -27q-16 -16 -31 -16q-2 0 -18 4l-25 19l-16 10l-2 2q-35 22 -35 43zM858 403l-4 -49q-7 -64 -20 -100l-11 -27q-47 -127 -135 -188q-83 -59 -184 -59q-120 0 -223 75q-74 51 -125 148
q-57 112 -81 253t-24 330v78q5 191 46.5 339t140.5 253q44 47 108.5 72.5t134.5 25.5q46 0 105 -16q87 -24 153 -117q38 -53 64 -121l20 -75l4 -29l4 -20v-9q0 -20 -18 -32q-15 -5 -25 -5h-10h-8h-6h-25h-20h-21q-32 0 -41 35v2l-6 29q-8 39 -20 68q-19 62 -70 100
q-36 22 -78 22q-41 0 -78.5 -18.5t-60.5 -50.5q-61 -82 -85 -193t-32 -295l-2 -61q0 -153 31 -322q35 -164 109 -241q52 -55 120 -55q1 0 33 4q32 5 65 32.5t52 65.5q21 51 33 88l10 45l2 25q3 20 14 26q10 10 43 10l13 -2q24 0 30 2h19h14h2q17 0 29 -6q9 -5 12.5 -17
t1.5 -20z" />
    <glyph glyph-name="ccircumflex" unicode="&#x109;" horiz-adv-x="909" 
d="M262 1661q0 14 23 47l16 23l18 26l64 94q42 61 66 93l4 2q9 18 28 18q14 0 29 -18l2 -2q64 -84 131 -187l16 -26l17 -23q19 -24 22 -41q2 -2 2 -6q0 -22 -34 -43l-4 -2l-17 -10l-22 -19q-16 -4 -21 -4q-8 0 -15 4t-11 8l-3 4l-18 27q-6 6 -8 12l-37 52l-2 4l-6 8l-13 16
q-1 4 -6 4t-10 -4q-10 -10 -12 -16q-6 -6 -6 -8l-4 -4q-34 -51 -35 -52l-8 -12l-19 -27q-16 -16 -31 -16q-2 0 -18 4l-25 19l-16 10l-2 2q-35 22 -35 43zM858 403l-4 -49q-7 -64 -20 -100l-11 -27q-47 -127 -135 -188q-83 -59 -184 -59q-120 0 -223 75q-74 51 -125 148
q-57 112 -81 253t-24 330v78q5 191 46.5 339t140.5 253q44 47 108.5 72.5t134.5 25.5q46 0 105 -16q87 -24 153 -117q38 -53 64 -121l20 -75l4 -29l4 -20v-9q0 -20 -18 -32q-15 -5 -25 -5h-10h-8h-6h-25h-20h-21q-32 0 -41 35v2l-6 29q-8 39 -20 68q-19 62 -70 100
q-36 22 -78 22q-41 0 -78.5 -18.5t-60.5 -50.5q-61 -82 -85 -193t-32 -295l-2 -61q0 -153 31 -322q35 -164 109 -241q52 -55 120 -55q1 0 33 4q32 5 65 32.5t52 65.5q21 51 33 88l10 45l2 25q3 20 14 26q10 10 43 10l13 -2q24 0 30 2h19h14h2q17 0 29 -6q9 -5 12.5 -17
t1.5 -20z" />
    <glyph glyph-name="Cdotaccent" unicode="&#x10a;" horiz-adv-x="909" 
d="M516 1628h-8h-41h-27q-10 0 -12 2q-17 3 -27 17q-10 13 -10 45v73q0 18 9.5 32t25.5 15l27 5h26q37 0 47 -2q20 0 35 -11q14 -11 14 -30v-23v-22v-54q0 -34 -26 -43q-12 -4 -33 -4zM281 55q-74 51 -125 148q-57 112 -81 253t-24 330v78q5 191 46.5 339t140.5 253
q44 47 108.5 72.5t134.5 25.5q46 0 105 -16q87 -24 153 -117q38 -53 64 -121q12 -34 18 -75q0 -2 6 -29l4 -20v-9q0 -20 -18 -32q-15 -5 -25 -5h-10h-8h-6h-25h-20h-21q-32 0 -41 35v2l-6 29q-8 39 -20 68q-19 62 -70 100q-36 22 -78 22q-41 0 -78.5 -18.5t-60.5 -50.5
q-61 -82 -85 -193t-32 -295l-2 -61q0 -153 31 -322q35 -164 109 -241q52 -55 120 -55q1 0 33 4q32 5 65 32.5t52 65.5q21 51 33 88l10 45l2 25q3 20 14 26q10 10 43 10l13 -2q24 0 30 2h19h18h2q13 0 25 -6q9 -5 12.5 -17t1.5 -20l-4 -49q-7 -64 -20 -100l-11 -27
q-47 -127 -135 -188q-83 -59 -184 -59q-120 0 -223 75z" />
    <glyph glyph-name="cdotaccent" unicode="&#x10b;" horiz-adv-x="909" 
d="M516 1628h-8h-41h-27q-10 0 -12 2q-17 3 -27 17q-10 13 -10 45v73q0 18 9.5 32t25.5 15l27 5h26q37 0 47 -2q20 0 35 -11q14 -11 14 -30v-23v-22v-54q0 -34 -26 -43q-12 -4 -33 -4zM281 55q-74 51 -125 148q-57 112 -81 253t-24 330v78q5 191 46.5 339t140.5 253
q44 47 108.5 72.5t134.5 25.5q46 0 105 -16q87 -24 153 -117q38 -53 64 -121q12 -34 18 -75q0 -2 6 -29l4 -20v-9q0 -20 -18 -32q-15 -5 -25 -5h-10h-8h-6h-25h-20h-21q-32 0 -41 35v2l-6 29q-8 39 -20 68q-19 62 -70 100q-36 22 -78 22q-41 0 -78.5 -18.5t-60.5 -50.5
q-61 -82 -85 -193t-32 -295l-2 -61q0 -153 31 -322q35 -164 109 -241q52 -55 120 -55q1 0 33 4q32 5 65 32.5t52 65.5q21 51 33 88l10 45l2 25q3 20 14 26q10 10 43 10l13 -2q24 0 30 2h19h18h2q13 0 25 -6q9 -5 12.5 -17t1.5 -20l-4 -49q-7 -64 -20 -100l-11 -27
q-47 -127 -135 -188q-83 -59 -184 -59q-120 0 -223 75z" />
    <glyph glyph-name="Ccaron" unicode="&#x10c;" horiz-adv-x="909" 
d="M453 1599l-4 5q-30 38 -130 186l-18 25l-16 24q-18 22 -23 39v6q0 22 35 43l2 2l16 13q16 13 25 16q9 6 18 6q15 0 31 -16l19 -27q2 -6 8 -12l35 -54l4 -2q0 -5 6 -8q3 -9 12 -18q8 -8 16 0l13 18l6 8l2 5l37 51q2 6 8 12l18 27q11 16 29 16q12 0 21 -6l22 -16l17 -13
l4 -2q34 -21 34 -43q0 -9 -9 -24t-15 -21l-17 -24l-16 -25q-79 -121 -131 -186l-2 -5q-16 -16 -29 -16q-18 0 -28 16zM281 55q-74 51 -125 148q-57 112 -81 253t-24 330v78q5 191 46.5 339t140.5 253q44 47 108.5 72.5t134.5 25.5q46 0 105 -16q87 -24 153 -117
q38 -53 64 -121l20 -75l4 -29l4 -20v-9q0 -23 -18 -32q-15 -5 -27 -5h-8h-8h-6h-25h-20h-21q-32 0 -41 35v2l-6 29q-8 39 -20 68q-19 62 -70 100q-36 22 -78 22q-41 0 -78.5 -18.5t-60.5 -50.5q-61 -82 -85 -193t-32 -295l-2 -61q0 -153 31 -322q35 -164 109 -241
q52 -55 120 -55q1 0 33 4q32 5 65 32.5t52 65.5q21 51 33 88l10 45l2 25q3 33 33 36h4h20l13 -2q24 0 30 2h19h18h6q12 0 21 -6q14 -8 14 -32q0 -4 -4 -54q-7 -64 -20 -100q-6 -19 -11 -27q-47 -127 -135 -188q-83 -59 -184 -59q-120 0 -223 75z" />
    <glyph glyph-name="Dcaron" unicode="&#x10e;" horiz-adv-x="919" 
d="M365 1602l-3 2q-40 51 -129 186l-18 27l-16 22q-18 22 -23 39v8q0 21 35 43h2l16 13q16 13 25 16q9 6 18 6q15 0 31 -16l19 -27q2 -6 8 -12l35 -51l2 -5l6 -8l14 -16q5 -5 10 -5t6 5l13 16l6 8l2 5l35 51l10 12l18 27q2 5 10.5 10.5t18.5 5.5t19 -6q7 -2 24 -16l16 -13h3
l4 -3q5 -2 10 -6t10 -8.5t8.5 -11.5t3.5 -14q0 -11 -24 -47l-17 -22l-16 -27q-62 -95 -131 -186q-2 -3 -4 -5q-10 -16 -27 -16q-14 0 -30 19zM190 0h-10q-37 0 -49 18q-8 8 -8 60v12v57v35q0 52 -2 66v94q-2 47 -2 213q0 274 6 532v127v78v78v96v11q0 34 14 45q12 12 92 12
q6 2 29 2q78 0 146 -8q197 -21 303 -160q82 -101 127 -293q23 -107 32 -278q3 -83 -12 -203l-6 -43q-23 -147 -72 -250q-42 -79 -100 -137q-42 -42 -99.5 -78t-111.5 -53q-89 -28 -160 -31h-4q-58 -4 -72 -2h-22h-19zM418 193q58 21 114 71q77 70 101 131q22 49 31 80
q38 115 38 281l-2 92q-6 116 -26 205q-24 123 -76 188q-57 75 -113 102q-71 30 -170 27h-16q-6 0 -10 -4.5t-4 -9.5v-15v-92q-2 -14 -2 -65l2 -441q0 -251 2 -323v-35v-25q0 -81 2 -108v-8q0 -48 2 -62q0 -6 4 -9.5t10 -2.5q58 3 113 23z" />
    <glyph glyph-name="dcaron" unicode="&#x10f;" horiz-adv-x="919" 
d="M365 1602l-3 2q-40 51 -129 186l-18 27l-16 22q-18 22 -23 39v8q0 21 35 43h2l16 13q16 13 25 16q9 6 18 6q15 0 31 -16l19 -27q2 -6 8 -12l35 -51l2 -5l6 -8l14 -16q5 -5 10 -5t6 5l13 16l6 8l2 5l35 51l10 12l18 27q2 5 10.5 10.5t18.5 5.5t19 -6q7 -2 24 -16l16 -13h3
l4 -3q5 -2 10 -6t10 -8.5t8.5 -11.5t3.5 -14q0 -11 -24 -47l-17 -22l-16 -27q-62 -95 -131 -186q-2 -3 -4 -5q-10 -16 -27 -16q-14 0 -30 19zM190 0h-10q-37 0 -49 18q-8 8 -8 60v12v57v35q0 52 -2 66v94q-2 47 -2 213q0 274 6 532v127v78v78v96v11q0 34 14 45q12 12 92 12
q6 2 29 2q78 0 146 -8q197 -21 303 -160q82 -101 127 -293q23 -107 32 -278q3 -83 -12 -203l-6 -43q-23 -147 -72 -250q-42 -79 -100 -137q-42 -42 -99.5 -78t-111.5 -53q-89 -28 -160 -31h-4q-58 -4 -72 -2h-22h-19zM418 193q58 21 114 71q77 70 101 131q22 49 31 80
q38 115 38 281l-2 92q-6 116 -26 205q-24 123 -76 188q-57 75 -113 102q-71 30 -170 27h-16q-6 0 -10 -4.5t-4 -9.5v-15v-92q-2 -14 -2 -65l2 -441q0 -251 2 -323v-35v-25q0 -81 2 -108v-8q0 -48 2 -62q0 -6 4 -9.5t10 -2.5q58 3 113 23z" />
    <glyph glyph-name="Dcroat" unicode="&#x110;" horiz-adv-x="1107" 
d="M379 0h-10q-38 0 -50 18q-8 8 -8 60v12v57v35q0 52 -2 66v94q-2 45 -2 213v121q0 14 -14 14h-25q-8 -2 -43 -2q-57 0 -75 -2q-13 0 -22 9.5t-9 21.5v43v14v31v2q0 36 26 39h9h10h6h16h7h4l98 2q14 0 14 14q0 29 4 225v127v78v78v96v11q0 32 13 45q12 12 94 12q6 2 29 2
q77 0 145 -8q194 -21 303 -160q82 -101 127 -293q24 -114 33 -278q3 -77 -13 -203l-6 -43q-24 -150 -71 -250q-41 -77 -101 -137q-42 -42 -99.5 -78t-111.5 -53q-89 -28 -159 -31h-4q-58 -4 -72 -2h-23h-18zM606 193q60 21 115 71q75 69 100 131q22 49 31 80q39 118 39 281
q0 220 -53 391q-13 44 -52 94q-35 44 -64.5 70t-64.5 39q-36 12 -82 18h-8q-6 2 -47 2h-16h-19q-12 0 -12 -14v-15q0 -74 -2 -92v-65l2 -322q0 -14 14 -14h43h13h39h22h4l8 2q14 0 25.5 -9.5t11.5 -27.5v-33v-26v-2v-15q0 -27 -6 -39q-8 -14 -31 -14q-4 0 -6 2h-10h-16h-9
h-51h-37q-14 0 -14 -14q0 -197 2 -252v-35v-25q0 -81 2 -108v-8v-62q3 -15 17 -12q56 3 112 23z" />
    <glyph glyph-name="dslash" unicode="&#x111;" horiz-adv-x="1107" 
d="M379 0h-10q-38 0 -50 18q-8 8 -8 60v12v57v35q0 52 -2 66v94q-2 45 -2 213v121q0 14 -14 14h-25q-8 -2 -43 -2q-57 0 -75 -2q-13 0 -22 9.5t-9 21.5v43v14v33q0 12 2 14q3 22 24 25h9h10l131 2q14 0 14 14q0 29 4 225v127v78v78v96v11q0 32 13 45q12 12 94 12q6 2 29 2
q77 0 145 -8q194 -21 303 -160q82 -101 127 -293q24 -114 33 -278q3 -77 -13 -203l-6 -43q-24 -150 -71 -250q-41 -77 -101 -137q-42 -42 -99.5 -78t-111.5 -53q-89 -28 -159 -31h-4q-58 -4 -72 -2h-23h-18zM606 193q60 21 115 71q75 69 100 131q22 49 31 80q39 118 39 281
q0 220 -53 391q-13 44 -52 94q-35 44 -64.5 70t-64.5 39q-36 12 -82 18h-8q-6 2 -47 2h-16h-19q-12 0 -12 -14v-15q0 -74 -2 -92v-65l2 -322q0 -14 14 -14h43h13h39h22h4l8 2q14 0 25.5 -9.5t11.5 -27.5v-33v-26v-2v-15q0 -27 -6 -39q-8 -14 -31 -14q-4 0 -6 2h-10h-16h-9
h-51h-37q-14 0 -14 -14q0 -197 2 -252v-35v-25q0 -81 2 -108v-8v-62q3 -15 17 -12q56 3 112 23z" />
    <glyph glyph-name="Emacron" unicode="&#x112;" horiz-adv-x="821" 
d="M596 1649h-76h-71h-142h-22h-19q-27 0 -43 4q-29 10 -35 37q-2 10 -2 51q0 10 2 12v29q3 18 23 28q6 4 15 6l10 1h12l76 2l73 -2h74h141h33q27 0 47 -5q37 -8 37 -38q4 -20 4 -50q0 -51 -22 -67q-11 -8 -41 -8h-74zM555 0h-47h-35l-53 2l-64 -2h-155q-2 2 -11 2h-6h-4
q-20 0 -24 2q-33 9 -33 49q-2 31 -2 156v35q0 159 2 202q2 39 2 181l-2 104q-4 406 -4 465q0 164 2 211v68q0 33 12 45q11 14 47 14h39h45h78l92 2l76 -2h39h41h28h50h45h28q20 0 29 -12q12 -9 12 -33v-4q0 -15 -2 -19v-8v-22q3 -12 0 -25v-6q0 -25 -10 -35q-12 -12 -39 -12
h-6q-56 0 -72 -2h-73h-86h-84h-70h-25h-12q-14 0 -14 -15q-1 -21 -1 -52.5t0.5 -66t0.5 -44.5v-19q0 -60 2 -76v-114v-19q0 -14 14 -14h23q124 0 161 2h19h35h4q10 0 22 -4q16 -3 23 -27q4 -9 4 -37v-8v-10q0 -29 -2 -39q0 -10 -4 -18q-1 -13 -11.5 -21t-21.5 -8
q-29 -2 -127 -2h-39q-56 0 -72 -2h-16q-12 0 -12 -14v-17v-63q0 -195 2 -250q2 -39 2 -180q2 -6 2 -45q0 -5 5 -9t11 -4h4h31h51l50 -2l53 2h82q70 0 90 2h20h25h26h5q24 0 32 -8q17 -14 17 -35v-6v-45l2 -18v-13q0 -26 -8 -34q-9 -21 -35 -21h-6h-2h-23l-59 -2h-113z" />
    <glyph glyph-name="emacron" unicode="&#x113;" horiz-adv-x="821" 
d="M596 1649h-76h-71h-142h-22h-19q-27 0 -43 4q-29 10 -35 37q-2 10 -2 51q0 10 2 12v29q3 18 23 28q6 4 15 6l10 1h12l76 2l73 -2h74h141h33q27 0 47 -5q37 -8 37 -38q4 -20 4 -50q0 -51 -22 -67q-11 -8 -41 -8h-74zM555 0h-47h-35l-53 2l-64 -2h-155q-2 2 -11 2h-6h-4
q-20 0 -24 2q-33 9 -33 49q-2 31 -2 156v35q0 159 2 202q2 39 2 181l-2 104q-4 406 -4 465q0 164 2 211v68q0 33 12 45q11 14 47 14h39h45h78l92 2l76 -2h39h41h28h50h45h28q20 0 29 -12q12 -9 12 -33v-4q0 -15 -2 -19v-8v-22q3 -12 0 -25v-6q0 -25 -10 -35q-12 -12 -39 -12
h-6q-56 0 -72 -2h-73h-86h-84h-70h-25h-12q-14 0 -14 -15q-1 -21 -1 -52.5t0.5 -66t0.5 -44.5v-19q0 -60 2 -76v-114v-19q0 -14 14 -14h23q124 0 161 2h19h35h4q10 0 22 -4q16 -3 23 -27q4 -9 4 -37v-8v-10q0 -29 -2 -39q0 -10 -4 -18q-1 -13 -11.5 -21t-21.5 -8
q-29 -2 -127 -2h-39q-56 0 -72 -2h-16q-12 0 -12 -14v-17v-63q0 -195 2 -250q2 -39 2 -180q2 -6 2 -45q0 -5 5 -9t11 -4h4h31h51l50 -2l53 2h82q70 0 90 2h20h25h26h5q24 0 32 -8q17 -14 17 -35v-6v-45l2 -18v-13q0 -26 -8 -34q-9 -21 -35 -21h-6h-2h-23l-59 -2h-113z" />
    <glyph glyph-name="Ebreve" unicode="&#x114;" horiz-adv-x="821" 
d="M272 1665q-52 36 -79 70h-3q-2 3 -5.5 8t-5 7t-4 6t-3.5 6.5t-2 6t-1 6.5t1 7l2 8q5 19 37 41q28 22 53 22q21 0 51 -30q7 -9 41 -33q50 -29 105 -29q54 0 104 29q25 14 45 37q26 26 49 26q14 0 33 -8q49 -34 58 -55q2 -2 2 -12q0 -22 -21 -43h-2q-36 -42 -82 -70
q-83 -53 -184 -53q-100 0 -189 53zM555 0h-47h-35l-53 2l-64 -2h-127l-45 2h-4q-20 0 -24 2q-33 9 -33 49q-2 31 -2 156v35q0 159 2 202q2 39 2 181l-2 104q-4 406 -4 465q0 164 2 211v68q0 33 12 45q11 14 47 14h39h45h78l92 2l76 -2h39h41h28h50h45h28q20 0 29 -12
q12 -9 12 -33v-4q0 -15 -2 -19v-8v-22q3 -12 0 -25v-6q0 -25 -10 -35q-12 -12 -39 -12h-6q-56 0 -72 -2h-73h-86h-84h-70h-25h-12q-14 0 -14 -15q-1 -21 -1 -52.5t0.5 -66t0.5 -44.5v-19q0 -60 2 -76v-114v-19q0 -14 14 -14h23q124 0 161 2h19h35h4q10 0 22 -4q16 -3 23 -27
q4 -9 4 -37v-8v-10q0 -29 -2 -39q0 -10 -4 -18q-1 -13 -11.5 -21t-21.5 -8q-29 -2 -127 -2h-39q-56 0 -72 -2h-16q-12 0 -12 -14v-17v-63q0 -195 2 -250q2 -39 2 -180q2 -6 2 -45q0 -5 5 -9t11 -4h4h31h51l50 -2l53 2h82q70 0 90 2h45h31q24 0 32 -8q17 -14 17 -35v-6v-45
l2 -18v-13q0 -26 -8 -34q-9 -21 -35 -21h-6h-2h-23l-59 -2h-113z" />
    <glyph glyph-name="ebreve" unicode="&#x115;" horiz-adv-x="821" 
d="M272 1665q-52 36 -79 70h-3q-2 3 -5.5 8t-5 7t-4 6t-3.5 6.5t-2 6t-1 6.5t1 7l2 8q5 19 37 41q28 22 53 22q21 0 51 -30q7 -9 41 -33q50 -29 105 -29q54 0 104 29q25 14 45 37q26 26 49 26q14 0 33 -8q49 -34 58 -55q2 -2 2 -12q0 -22 -21 -43h-2q-36 -42 -82 -70
q-83 -53 -184 -53q-100 0 -189 53zM555 0h-47h-35l-53 2l-64 -2h-127l-45 2h-4q-20 0 -24 2q-33 9 -33 49q-2 31 -2 156v35q0 159 2 202q2 39 2 181l-2 104q-4 406 -4 465q0 164 2 211v68q0 33 12 45q11 14 47 14h39h45h78l92 2l76 -2h39h41h28h50h45h28q20 0 29 -12
q12 -9 12 -33v-4q0 -15 -2 -19v-8v-22q3 -12 0 -25v-6q0 -25 -10 -35q-12 -12 -39 -12h-6q-56 0 -72 -2h-73h-86h-84h-70h-25h-12q-14 0 -14 -15q-1 -21 -1 -52.5t0.5 -66t0.5 -44.5v-19q0 -60 2 -76v-114v-19q0 -14 14 -14h23q124 0 161 2h19h35h4q10 0 22 -4q16 -3 23 -27
q4 -9 4 -37v-8v-10q0 -29 -2 -39q0 -10 -4 -18q-1 -13 -11.5 -21t-21.5 -8q-29 -2 -127 -2h-39q-56 0 -72 -2h-16q-12 0 -12 -14v-17v-63q0 -195 2 -250q2 -39 2 -180q2 -6 2 -45q0 -5 5 -9t11 -4h4h31h51l50 -2l53 2h82q70 0 90 2h45h31q24 0 32 -8q17 -14 17 -35v-6v-45
l2 -18v-13q0 -26 -8 -34q-9 -21 -35 -21h-6h-2h-23l-59 -2h-113z" />
    <glyph glyph-name="Edotaccent" unicode="&#x116;" horiz-adv-x="821" 
d="M369 1681q-1 17 -1 33.5t0.5 31t0.5 19.5q0 27 12 39q18 11 29 11q10 2 51 2q39 0 51 -2q16 0 25 -9q14 -8 14 -30v-25v-22v-54q0 -28 -27 -43q-12 -4 -32 -4h-74q-49 6 -49 53zM555 0h-47h-35l-53 2l-64 -2h-127h-28q-2 2 -11 2h-6h-4q-20 0 -24 2q-33 9 -33 49
q-2 31 -2 156v35q0 159 2 202q2 39 2 181l-2 104q-4 406 -4 465q0 164 2 211v68q0 33 12 45q11 14 47 14h39h45h78l92 2l76 -2h39h41h28h50h45h28q20 0 29 -12q12 -9 12 -33v-4q0 -15 -2 -19v-8v-22q3 -12 0 -25v-6q0 -25 -10 -35q-12 -12 -39 -12h-6q-56 0 -72 -2h-73h-86
h-84h-70h-25h-12q-14 0 -14 -15q-1 -21 -1 -52.5t0.5 -66t0.5 -44.5v-19q0 -60 2 -76v-114v-19q0 -14 14 -14h23q124 0 161 2h19h35h4q10 0 22 -4q16 -3 23 -27q4 -9 4 -37v-8v-10q0 -29 -2 -39q0 -10 -4 -18q-1 -13 -11.5 -21t-21.5 -8q-29 -2 -127 -2h-39q-56 0 -72 -2
h-16q-12 0 -12 -14v-17v-63q0 -195 2 -250q2 -39 2 -180q2 -6 2 -45q0 -5 5 -9t11 -4h4h31h51l50 -2l53 2h82q70 0 90 2h20h25h26h5q24 0 32 -8q17 -14 17 -35v-6v-45l2 -18v-13q0 -26 -8 -34q-9 -21 -35 -21h-8h-23l-59 -2h-113z" />
    <glyph glyph-name="edotaccent" unicode="&#x117;" horiz-adv-x="821" 
d="M369 1681q-1 17 -1 33.5t0.5 31t0.5 19.5q0 27 12 39q18 11 29 11q10 2 51 2q39 0 51 -2q16 0 25 -9q14 -8 14 -30v-25v-22v-54q0 -28 -27 -43q-12 -4 -32 -4h-74q-49 6 -49 53zM555 0h-47h-35l-53 2l-64 -2h-127h-28q-2 2 -11 2h-6h-4q-20 0 -24 2q-33 9 -33 49
q-2 31 -2 156v35q0 159 2 202q2 39 2 181l-2 104q-4 406 -4 465q0 164 2 211v68q0 33 12 45q11 14 47 14h39h45h78l92 2l76 -2h39h41h28h50h45h28q20 0 29 -12q12 -9 12 -33v-4q0 -15 -2 -19v-8v-22q3 -12 0 -25v-6q0 -25 -10 -35q-12 -12 -39 -12h-6q-56 0 -72 -2h-73h-86
h-84h-70h-25h-12q-14 0 -14 -15q-1 -21 -1 -52.5t0.5 -66t0.5 -44.5v-19q0 -60 2 -76v-114v-19q0 -14 14 -14h23q124 0 161 2h19h35h4q10 0 22 -4q16 -3 23 -27q4 -9 4 -37v-8v-10q0 -29 -2 -39q0 -10 -4 -18q-1 -13 -11.5 -21t-21.5 -8q-29 -2 -127 -2h-39q-56 0 -72 -2
h-16q-12 0 -12 -14v-17v-63q0 -195 2 -250q2 -39 2 -180q2 -6 2 -45q0 -5 5 -9t11 -4h4h31h51l50 -2l53 2h82q70 0 90 2h20h25h26h5q24 0 32 -8q17 -14 17 -35v-6v-45l2 -18v-13q0 -26 -8 -34q-9 -21 -35 -21h-8h-23l-59 -2h-113z" />
    <glyph glyph-name="Eogonek" unicode="&#x118;" horiz-adv-x="847" 
d="M827 -303q0 -19 -16 -29q-53 -39 -127 -45h-12q-54 0 -97.5 25.5t-68.5 72.5q-23 51 -23 93q0 48 21 92q14 37 47 82q4 12 -6 12h-37h-35l-53 2q-52 0 -66 -2q-149 0 -155 2h-9h-6h-4q-18 0 -24 2q-33 9 -33 49q-2 33 -2 156v35q0 159 2 202q2 39 2 183l-2 102
q-4 410 -4 465q0 164 2 211v70q0 33 12 43q11 14 47 14h37h47h78q18 2 92 2h76l39 -2h41h28h50h45h28q19 0 29 -10q12 -12 12 -35v-2q0 -15 -2 -19v-10v-22q3 -12 0 -25v-6q0 -22 -10 -35q-12 -12 -39 -12h-6h-72q-16 -2 -73 -2h-86q-18 2 -84 2q-56 0 -70 -2h-25h-12
q-14 0 -14 -15q-1 -21 -1 -52.5t0.5 -66t0.5 -44.5v-19q0 -60 2 -76v-114v-19q0 -14 14 -14h21q126 0 163 2h19h35h2q18 0 24 -2q20 -10 23 -29q4 -9 4 -35v-10l-2 -47q0 -12 -4 -20q-1 -13 -11.5 -21t-21.5 -8q-29 -2 -125 -2h-41l-72 -2h-14q-14 0 -14 -14v-17v-63
q0 -195 2 -250q2 -39 2 -178q2 -8 2 -45q0 -6 5 -10.5t11 -4.5h4h31h51h50h53h82q70 0 90 2h20h25h26h5q24 0 32 -8q17 -14 17 -35v-6v-45l2 -16v-15q0 -26 -8 -34q-9 -21 -35 -21q-15 0 -25 -10q-87 -107 -96 -152l-2 -18q0 -25 14 -39q8 -14 31 -14q16 0 51 18h2q9 6 23 6
q12 0 16 -4l14 -14l35 -62q6 -6 6 -16z" />
    <glyph glyph-name="eogonek" unicode="&#x119;" horiz-adv-x="847" 
d="M827 -303q0 -19 -16 -29q-53 -39 -127 -45h-12q-54 0 -97.5 25.5t-68.5 72.5q-23 51 -23 93q0 48 21 92q14 37 47 82q4 12 -6 12h-37h-35l-53 2q-52 0 -66 -2q-149 0 -155 2h-9h-6h-4q-18 0 -24 2q-33 9 -33 49q-2 33 -2 156v35q0 159 2 202q2 39 2 183l-2 102
q-4 410 -4 465q0 164 2 211v70q0 33 12 43q11 14 47 14h37h47h78q18 2 92 2h76l39 -2h41h28h50h45h28q19 0 29 -10q12 -12 12 -35v-2q0 -15 -2 -19v-10v-22q3 -12 0 -25v-6q0 -22 -10 -35q-12 -12 -39 -12h-6h-72q-16 -2 -73 -2h-86q-18 2 -84 2q-56 0 -70 -2h-25h-12
q-14 0 -14 -15q-1 -21 -1 -52.5t0.5 -66t0.5 -44.5v-19q0 -60 2 -76v-114v-19q0 -14 14 -14h21q126 0 163 2h19h35h2q18 0 24 -2q20 -10 23 -29q4 -9 4 -35v-10l-2 -47q0 -12 -4 -20q-1 -13 -11.5 -21t-21.5 -8q-29 -2 -125 -2h-41l-72 -2h-14q-14 0 -14 -14v-17v-63
q0 -195 2 -250q2 -39 2 -178q2 -8 2 -45q0 -6 5 -10.5t11 -4.5h4h31h51h50h53h82q70 0 90 2h20h25h26h5q24 0 32 -8q17 -14 17 -35v-6v-45l2 -16v-15q0 -26 -8 -34q-9 -21 -35 -21q-15 0 -25 -10q-87 -107 -96 -152l-2 -18q0 -25 14 -39q8 -14 31 -14q16 0 51 18h2q9 6 23 6
q12 0 16 -4l14 -14l35 -62q6 -6 6 -16z" />
    <glyph glyph-name="Ecaron" unicode="&#x11a;" horiz-adv-x="821" 
d="M242 1878l-2 8q0 7 3.5 14t8.5 11.5t10 8.5t10 6l4 3h3l16 13q17 14 24 16q9 6 19 6q15 0 31 -16l18 -27q2 -6 8 -12l35 -51l2 -5l6 -8l13 -16q5 -5 11 -5t7 5l12 16l6 8l2 5l35 51q6 6 8 12l19 27q16 16 31 16q9 0 18 -6q9 -3 25 -16l16 -13h2q35 -22 35 -43
q0 -14 -23 -47l-16 -22l-18 -27q-89 -135 -129 -186l-5 -5q-10 -16 -26 -16q-15 0 -31 19l-2 2q-69 91 -131 186l-16 27l-17 22q-16 20 -22 39zM801 70v-13q0 -26 -8 -34q-9 -21 -35 -21h-6h-2h-23l-59 -2h-113h-47h-35l-53 2l-64 -2h-127h-28q-2 2 -11 2h-6h-4q-20 0 -24 2
q-33 9 -33 49q-2 31 -2 156v35q0 159 2 202q2 39 2 181l-2 104q-4 406 -4 465q0 164 2 211v68q0 33 12 45q11 14 47 14h39h45h78l92 2l76 -2h39h41h28h50h45h28q20 0 29 -12q12 -9 12 -33v-4q0 -15 -2 -19v-8v-22q3 -12 0 -25v-6q0 -25 -10 -35q-12 -12 -39 -12h-6
q-56 0 -72 -2h-73h-86h-84h-70h-25h-12q-14 0 -14 -15q-1 -21 -1 -52.5t0.5 -66t0.5 -44.5v-19q0 -60 2 -76v-114v-19q0 -14 14 -14h23q124 0 161 2h19h35h4q10 0 22 -4q16 -3 23 -27q4 -9 4 -37v-8v-10q0 -29 -2 -37q0 -12 -4 -20q-1 -13 -11.5 -21t-21.5 -8
q-29 -2 -127 -2h-39q-56 0 -72 -2h-16q-12 0 -12 -14v-17v-63q0 -195 2 -250q2 -39 2 -180q2 -6 2 -45q0 -5 5 -9t11 -4h4h31h51l50 -2l53 2h82q70 0 90 2h20h25h22h2q26 0 39 -8q17 -14 17 -35v-6v-45z" />
    <glyph glyph-name="ecaron" unicode="&#x11b;" horiz-adv-x="821" 
d="M242 1878l-2 8q0 7 3.5 14t8.5 11.5t10 8.5t10 6l4 3h3l16 13q17 14 24 16q9 6 19 6q15 0 31 -16l18 -27q2 -6 8 -12l35 -51l2 -5l6 -8l13 -16q5 -5 11 -5t7 5l12 16l6 8l2 5l35 51q6 6 8 12l19 27q16 16 31 16q9 0 18 -6q9 -3 25 -16l16 -13h2q35 -22 35 -43
q0 -14 -23 -47l-16 -22l-18 -27q-89 -135 -129 -186l-5 -5q-10 -16 -26 -16q-15 0 -31 19l-2 2q-69 91 -131 186l-16 27l-17 22q-16 20 -22 39zM801 70v-13q0 -26 -8 -34q-9 -21 -35 -21h-6h-2h-23l-59 -2h-113h-47h-35l-53 2l-64 -2h-127h-28q-2 2 -11 2h-6h-4q-20 0 -24 2
q-33 9 -33 49q-2 31 -2 156v35q0 159 2 202q2 39 2 181l-2 104q-4 406 -4 465q0 164 2 211v68q0 33 12 45q11 14 47 14h39h45h78l92 2l76 -2h39h41h28h50h45h28q20 0 29 -12q12 -9 12 -33v-4q0 -15 -2 -19v-8v-22q3 -12 0 -25v-6q0 -25 -10 -35q-12 -12 -39 -12h-6
q-56 0 -72 -2h-73h-86h-84h-70h-25h-12q-14 0 -14 -15q-1 -21 -1 -52.5t0.5 -66t0.5 -44.5v-19q0 -60 2 -76v-114v-19q0 -14 14 -14h23q124 0 161 2h19h35h4q10 0 22 -4q16 -3 23 -27q4 -9 4 -37v-8v-10q0 -29 -2 -37q0 -12 -4 -20q-1 -13 -11.5 -21t-21.5 -8
q-29 -2 -127 -2h-39q-56 0 -72 -2h-16q-12 0 -12 -14v-17v-63q0 -195 2 -250q2 -39 2 -180q2 -6 2 -45q0 -5 5 -9t11 -4h4h31h51l50 -2l53 2h82q70 0 90 2h20h25h22h2q26 0 39 -8q17 -14 17 -35v-6v-45z" />
    <glyph glyph-name="Gcircumflex" unicode="&#x11c;" horiz-adv-x="913" 
d="M315 1587l-24 19l-17 10l-2 2q-34 21 -34 43q0 15 22 47l16 23l19 26l63 94q42 61 66 93l4 2q13 18 29 18q13 0 28 -18l2 -2q40 -51 70 -97q40 -60 61 -90l17 -26l16 -23q22 -31 25 -41v-6q0 -21 -35 -43l-2 -2q-14 -7 -18 -10l-23 -19q-16 -4 -18 -4q-10 0 -18 4t-10 8
l-3 4l-19 27q-4 4 -8 12l-37 52l-2 4l-6 8l-12 16q-1 4 -6 4t-10 -4l-13 -16q-6 -6 -6 -8l-4 -4q-34 -51 -35 -52l-8 -12l-18 -27q-16 -16 -31 -16q-3 0 -19 4zM281 53q-74 51 -125 148q-105 205 -105 583v78q5 195 46.5 342t142.5 252q44 47 107.5 72.5t133.5 25.5
q49 0 105 -16q90 -27 153 -117q42 -56 64 -121q14 -35 20 -77l6 -27l5 -20l2 -15q0 -28 -25 -37q-12 -4 -29 -4h-6h-4h-39h-8h-12h-13q-32 3 -41 41l-2 10l-6 25l-18 68q-28 73 -72 100q-36 22 -78 22q-38 0 -76 -19.5t-63 -51.5q-61 -82 -85 -192t-32 -294l-2 -63
q0 -153 31 -322q34 -161 111 -241q53 -56 120 -56l31 3q35 6 67.5 34t49.5 66q35 71 41 149q4 136 4 140v24q-2 6 -2 35v4q0 14 -14 14h-25h-37h-29h-2h-28h-23h-39q-22 3 -26 7q-25 11 -21 45v2v18v10v27l-2 23q0 20 10 30q13 13 29 13q10 2 37 2h16h74h31h65h66h41h6
q28 0 43 -15q12 -9 12 -35v-63v-92v-17q0 -83 -4 -153q-10 -113 -41 -199q-41 -109 -141 -178q-85 -61 -184 -61q-110 0 -211 73z" />
    </font>
</defs>
</svg>
