<?xml version="1.0" standalone="no"?>
<!DOCTYPE svg PUBLIC "-//W3C//DTD SVG 1.1//EN" "http://www.w3.org/Graphics/SVG/1.1/DTD/svg11.dtd" >
<svg xmlns="http://www.w3.org/2000/svg" xmlns:xlink="http://www.w3.org/1999/xlink" version="1.1">
<metadata>
Created by FontForge 20170731 at Thu Aug 17 02:53:51 2023
 By Aleksey,,,
Copyright (c) 2013 by Jerak Durzan. All rights reserved.
</metadata>
<defs>
<font id="Corranado" horiz-adv-x="782" >
  <font-face 
    font-family="Corranado"
    font-weight="400"
    font-stretch="normal"
    units-per-em="2048"
    panose-1="2 0 5 6 0 0 0 2 0 4"
    ascent="1638"
    descent="-410"
    x-height="1356"
    cap-height="1663"
    bbox="-92 -483 2048 2284"
    underline-thickness="10"
    underline-position="-79"
    unicode-range="U+0020-2122"
  />
<missing-glyph horiz-adv-x="1024" 
d="M897 0h-768v2284h768v-2284zM256 2157v-2028h512v2028h-512z" />
    <glyph glyph-name=".notdef" horiz-adv-x="1024" 
d="M897 0h-768v2284h768v-2284zM256 2157v-2028h512v2028h-512z" />
    <glyph glyph-name=".null" horiz-adv-x="0" 
 />
    <glyph glyph-name="nonmarkingreturn" horiz-adv-x="682" 
 />
    <glyph glyph-name="space" unicode=" " horiz-adv-x="391" 
 />
    <glyph glyph-name="exclam" unicode="!" horiz-adv-x="403" 
d="M61 1663h283l-47 -1262h-188zM344 281v-281h-285v281h285z" />
    <glyph glyph-name="quotedbl" unicode="&#x22;" horiz-adv-x="643" 
d="M559 1436v-557h-164v557h164zM250 1436v-557h-164v557h164z" />
    <glyph glyph-name="numbersign" unicode="#" horiz-adv-x="1574" 
d="M1214 1024h291l-59 -172h-293l-90 -252h309l-61 -172h-307l-156 -434h-191l156 434h-252l-158 -434h-190l156 434h-299l61 172h297l90 252h-315l61 172h316l155 436h191l-154 -436h250l156 436h190zM874 598l91 254h-256l-91 -254h256z" />
    <glyph glyph-name="dollar" unicode="$" 
d="M719 666v-342q0 -172 -31 -236q-46 -94 -201 -94v-121h-188v119q-153 0 -203 96q-33 62 -33 236v362h285v-403q0 -70 45 -70t45 70v350q0 42 -12 61t-51 43l-168 92q-76 46 -107 101q-37 64 -37 174v235q0 176 33 238q47 92 203 92v117h188v-117q155 0 201 -94
q31 -60 31 -236v-249h-283v288q0 70 -45 70q-43 0 -43 -70v-254q0 -47 10.5 -64t53.5 -42q15 -9 52.5 -29t55.5 -30.5t48.5 -29t47.5 -32t35.5 -31.5t28.5 -35q39 -59 39 -165z" />
    <glyph glyph-name="percent" unicode="%" horiz-adv-x="1380" 
d="M549 1434v-428q0 -154 -43 -197t-197 -43q-153 0 -196 43t-43 197v428q0 155 41 196q44 41 198 41t197 -43q43 -40 43 -194zM872 1671h164l-528 -1679h-164zM1311 659v-428q0 -153 -43 -196t-197 -43t-197 43q-43 46 -43 196v428q0 156 41 197t199 41q154 0 197 -43
q43 -40 43 -195zM350 983v471q0 45 -43 45q-39 0 -39 -43v-475q0 -45 41 -45t41 47zM1112 209v473q0 45 -43 45q-39 0 -39 -47v-473q0 -45 41 -45t41 47z" />
    <glyph glyph-name="ampersand" unicode="&#x26;" horiz-adv-x="800" 
d="M801 1012v-234h-88v-778h-275q-232 0 -295 51q-80 62 -80 281v309q0 102 19 154q27 77 111 104q-82 22 -109 96q-21 49 -21 150v188q0 196 43 254q52 76 236 76h287v-217h-211q-43 0 -57.5 -14.5t-14.5 -55.5v-301q0 -49 23 -59q12 -4 67 -4v293h277v-293h88zM399 221h39
v559h-32q-60 0 -60 -63v-422q0 -74 53 -74z" />
    <glyph glyph-name="quotesingle" unicode="'" horiz-adv-x="333" 
d="M250 1436v-557h-164v557h164z" />
    <glyph glyph-name="parenleft" unicode="(" horiz-adv-x="434" 
d="M416 -66v-219h-101q-141 0 -196 70q-47 59 -47 207v1403q0 152 45 209q52 67 198 67h101v-219q-43 0 -57.5 -20t-14.5 -70v-1337q0 -51 13 -68t59 -23z" />
    <glyph glyph-name="parenright" unicode=")" horiz-adv-x="434" 
d="M362 1395v-1403q0 -150 -47 -209q-53 -68 -196 -68h-101v219q72 0 72 70v1387q0 61 -72 61v219h101q146 0 198 -67q45 -57 45 -209z" />
    <glyph glyph-name="asterisk" unicode="*" horiz-adv-x="720" 
d="M639 1518l49 -154l-201 -64l125 -167l-131 -99l-123 172l-120 -172l-132 94l127 170l-200 66l49 154l199 -66v211h161v-211z" />
    <glyph glyph-name="plus" unicode="+" horiz-adv-x="1705" 
d="M1452 694v-166h-514v-528h-170v528h-514v166h514v527h170v-527h514z" />
    <glyph glyph-name="comma" unicode="," horiz-adv-x="391" 
d="M313 293v-311q0 -133 -49 -197q-58 -70 -186 -70v135q67 0 88 46q12 27 12 104h-100v293h235z" />
    <glyph glyph-name="hyphen" unicode="-" horiz-adv-x="512" 
d="M455 793v-220h-400v220h400z" />
    <glyph glyph-name="hyphen" unicode="&#x2010;" horiz-adv-x="512" 
d="M455 793v-220h-400v220h400z" />
    <glyph glyph-name="period" unicode="." horiz-adv-x="391" 
d="M313 293v-293h-235v293h235z" />
    <glyph glyph-name="slash" unicode="/" horiz-adv-x="542" 
d="M375 1665h160l-385 -1855h-162z" />
    <glyph glyph-name="zero" unicode="0" 
d="M721 1339v-1015q0 -209 -59 -271q-58 -61 -267 -61q-213 0 -272 59q-60 60 -60 273v1015q0 215 58 273q59 59 270 59q212 0 271 -59t59 -273zM436 281v1101q0 68 -47 68q-43 0 -43 -68v-1101q0 -66 47 -66q43 0 43 66z" />
    <glyph glyph-name="one" unicode="1" horiz-adv-x="557" 
d="M442 1663v-1663h-284v1227h-144v221q85 7 138 66.5t61 148.5h229z" />
    <glyph glyph-name="two" unicode="2" 
d="M723 225v-225h-655v225l325 742q41 96 41 176v235q0 72 -45 72q-43 0 -43 -72v-288h-283v249q0 215 58 273q59 59 270 59q213 0 271 -61q61 -58 61 -271v-213q0 -114 -49 -227l-295 -674h344z" />
    <glyph glyph-name="three" unicode="3" 
d="M719 635v-311q0 -210 -60 -273q-59 -59 -266 -59q-210 0 -272 59q-60 63 -60 273v352h285v-391q0 -70 45 -70q43 0 43 70v424q0 71 -88 71h-37q-16 -2 -35 -2v240q12 0 45.5 -2t40.5 -2q74 0 74 86v278q0 72 -45 72q-43 0 -43 -72v-256h-285v217q0 213 60 273
q59 59 272 59q207 0 264 -63q62 -62 62 -269v-180q0 -105 -21 -158q-30 -77 -114 -104q89 -24 116 -100q19 -49 19 -162z" />
    <glyph glyph-name="four" unicode="4" 
d="M737 698v-219h-78v-479h-278v479h-356v219l215 965h419v-965h78zM281 698h108v670h-20z" />
    <glyph glyph-name="five" unicode="5" 
d="M723 930v-606q0 -209 -59 -271q-58 -61 -265 -61q-212 0 -274 59q-59 62 -59 273v374h284v-413q0 -70 45 -70q43 0 43 70v612q0 70 -43 70q-37 0 -43 -39q-2 -4 -2 -68h-284v803h641v-217h-357v-295q74 59 164 59q209 0 209 -280z" />
    <glyph glyph-name="six" unicode="6" 
d="M721 713v-389q0 -211 -57 -271q-58 -61 -267 -61q-212 0 -274 59q-60 63 -60 273v1015q0 212 62 271q61 61 272 61q207 0 265 -61q59 -62 59 -271v-249h-285v290q0 70 -45 70q-43 0 -43 -70v-436q59 62 156 62q217 0 217 -293zM436 281v415q0 66 -45 66q-43 0 -43 -66
v-415q0 -66 43 -66q45 0 45 66z" />
    <glyph glyph-name="seven" unicode="7" horiz-adv-x="702" 
d="M633 1663v-217l-258 -1446h-291l264 1446h-280v217h565z" />
    <glyph glyph-name="eight" unicode="8" 
d="M721 653v-329q0 -214 -62 -273q-59 -59 -272 -59q-206 0 -264 61q-60 66 -60 271v329q0 103 19 152q27 75 111 96q-130 24 -130 236v202q0 213 60 273q62 59 272 59q207 0 264 -63q62 -62 62 -269v-202q0 -209 -131 -236q82 -27 110 -96q21 -49 21 -152zM436 1094v288
q0 68 -45 68t-45 -68v-288q0 -66 45 -66t45 66zM436 283v434q0 65 -45 65t-45 -65v-434q0 -68 45 -68t45 68z" />
    <glyph glyph-name="nine" unicode="9" 
d="M719 1339v-1015q0 -211 -62 -273q-59 -59 -272 -59q-208 0 -266 61t-58 271v249h285v-288q0 -72 45 -72q43 0 43 72v434q-62 -62 -155 -62q-218 0 -218 293v389q0 213 58 271q58 61 268 61q213 0 272 -59q60 -60 60 -273zM434 967v415q0 68 -43 68q-45 0 -45 -68v-415
q0 -66 45 -66q43 0 43 66z" />
    <glyph glyph-name="colon" unicode=":" horiz-adv-x="413" 
d="M326 1276v-293h-238v293h238zM326 293v-293h-238v293h238z" />
    <glyph glyph-name="semicolon" unicode=";" horiz-adv-x="413" 
d="M326 1276v-293h-238v293h238zM326 293v-311q0 -267 -238 -267v135q67 0 88 46q12 27 12 104h-100v293h238z" />
    <glyph glyph-name="less" unicode="&#x3c;" horiz-adv-x="1705" 
d="M1442 229v-182l-1178 483v160l1178 486v-185l-934 -381z" />
    <glyph glyph-name="equal" unicode="=" horiz-adv-x="1705" 
d="M1452 901v-168h-1198v168h1198zM1452 487v-165h-1198v165h1198z" />
    <glyph glyph-name="greater" unicode="&#x3e;" horiz-adv-x="1705" 
d="M1442 690v-160l-1178 -483v182l934 381l-934 381v185z" />
    <glyph glyph-name="question" unicode="?" horiz-adv-x="772" 
d="M715 1364v-215q0 -110 -47 -231q-25 -67 -105 -218q-30 -56 -33 -145l2 -168v-2h-282v213q0 97 90 272q92 176 92 273v235q0 72 -47 72q-45 0 -45 -72v-291h-283v252q0 209 56 271q58 61 264 61q201 0 264 -51q74 -62 74 -256zM532 276v-276h-284v276h284z" />
    <glyph glyph-name="at" unicode="@" horiz-adv-x="2048" 
d="M1950 764q0 -253 -154 -445q-167 -206 -414 -206q-208 0 -208 166q-108 -164 -304 -164q-313 0 -313 336q0 218 125 380q136 177 346 177q171 0 248 -142l55 107h154l-148 -586q-8 -31 -8 -49q0 -37 28 -60.5t68 -23.5q102 0 199 100q85 88 125 195q37 93 37 213
q0 273 -207 430q-189 139 -469 139q-362 0 -600 -223q-248 -230 -248 -588q0 -324 225 -512q210 -174 543 -174q344 0 615 191l67 -99q-291 -227 -674 -227q-395 0 -657 209q-283 226 -283 614q0 420 301 690q293 261 717 261q346 0 578 -179q256 -194 256 -530zM1233 707
q-24 176 -184 176q-147 0 -234 -152q-74 -130 -74 -287q0 -204 174 -204q86 0 162 67q69 60 107 187z" />
    <glyph glyph-name="A" unicode="A" horiz-adv-x="784" 
d="M575 1663l168 -1663h-276l-21 354h-118l-21 -354h-274l164 1663h378zM338 575h96l-43 758h-8z" />
    <glyph glyph-name="B" unicode="B" horiz-adv-x="796" 
d="M729 641v-305q0 -210 -63 -273q-60 -63 -271 -63h-323v1663h350q177 0 242 -59t65 -236v-219q0 -198 -125 -250q81 -37 107 -104q18 -53 18 -154zM446 1087v289q0 70 -59 70h-31v-430h13q6 -2 12 -2q65 0 65 73zM446 291v411q0 72 -65 72h-12q-6 -2 -13 -2v-553h6
q2 -2 5 -2h16q63 0 63 74z" />
    <glyph glyph-name="C" unicode="C" horiz-adv-x="772" 
d="M721 705v-383q0 -215 -57 -275q-59 -59 -269 -59q-211 0 -272 61q-60 63 -60 273v1019q0 215 58 273q59 59 270 59q212 0 271 -59t59 -273v-245h-285v284q0 72 -47 72q-43 0 -43 -72v-1099q0 -70 47 -70q43 0 43 70v424h285z" />
    <glyph glyph-name="D" unicode="D" horiz-adv-x="792" 
d="M729 1325v-985q0 -211 -47 -270q-55 -70 -260 -70h-350v1663h348q204 0 260 -68q49 -58 49 -270zM444 299v1063q0 51 -12 67.5t-55 16.5h-21v-1229h25q43 0 55 21q8 13 8 61z" />
    <glyph glyph-name="E" unicode="E" horiz-adv-x="589" 
d="M526 219v-219h-454v1663h454v-217h-170v-424h170v-219h-170v-584h170z" />
    <glyph glyph-name="F" unicode="F" horiz-adv-x="581" 
d="M530 1022v-219h-170v-803h-284v1663h454v-217h-170v-424h170z" />
    <glyph glyph-name="G" unicode="G" horiz-adv-x="788" 
d="M725 862v-862h-119l-47 96q-83 -108 -244 -108q-141 0 -198 75q-54 69 -54 211v1065q0 213 60 273q61 61 274 61q211 0 269 -61q59 -59 59 -273v-245h-285v286q0 72 -47 72t-47 -72v-1099q0 -70 49 -70q45 0 45 70v362h-43v219h328z" />
    <glyph glyph-name="H" unicode="H" horiz-adv-x="800" 
d="M729 1663v-1663h-283v809h-92v-809h-282v1663h282v-635h92v635h283z" />
    <glyph glyph-name="I" unicode="I" horiz-adv-x="428" 
d="M356 1663v-1663h-284v1663h284z" />
    <glyph glyph-name="J" unicode="J" horiz-adv-x="743" 
d="M670 1663v-1344q0 -209 -58 -270t-264 -61q-201 0 -260 65q-51 57 -51 266v371h258v-409q0 -72 47 -72q43 0 43 72v1382h285z" />
    <glyph glyph-name="K" unicode="K" 
d="M580 928l182 -928h-285l-119 807h-10v-807h-276v1663h276v-664l10 2l103 662h280z" />
    <glyph glyph-name="L" unicode="L" horiz-adv-x="555" 
d="M526 219v-219h-454v1663h284v-1444h170z" />
    <glyph glyph-name="M" unicode="M" horiz-adv-x="1030" 
d="M958 1663v-1663h-253l10 983h-17l-108 -983h-150l-108 983h-17l11 -983h-254v1663h331l105 -797h14l105 797h331z" />
    <glyph glyph-name="N" unicode="N" horiz-adv-x="808" 
d="M735 1663v-1663h-252l-157 852h-13l6 -852h-247v1663h254l155 -829h13l-5 829h246z" />
    <glyph glyph-name="O" unicode="O" 
d="M721 1341v-1019q0 -215 -57 -275q-59 -59 -269 -59q-211 0 -272 61q-60 63 -60 273v1019q0 215 58 273q59 59 270 59q212 0 271 -59t59 -273zM436 276v1108q0 68 -47 68q-43 0 -43 -68v-1108q0 -65 47 -65q43 0 43 65z" />
    <glyph glyph-name="P" unicode="P" horiz-adv-x="780" 
d="M729 1325v-397q0 -235 -70 -293q-59 -47 -303 -47v-588h-284v1663h348q200 0 258 -70q51 -60 51 -268zM446 899v451q0 58 -8 71q-12 25 -61 25h-21v-639h25q45 0 57 24q8 13 8 68z" />
    <glyph glyph-name="Q" unicode="Q" 
d="M721 1341v-1017q0 -168 -31 -232q-47 -96 -198 -96l12 -8q117 -20 194 -11l-104 -178q-163 27 -315 195q-143 15 -187 104q-29 63 -29 226v1017q0 213 60 273q59 59 272 59q207 0 264 -63q62 -62 62 -269zM436 279v1107q0 66 -45 66t-45 -66v-1107q0 -66 45 -66t45 66z
" />
    <glyph glyph-name="R" unicode="R" horiz-adv-x="796" 
d="M729 565v-565h-283v616q0 76 -67 76h-10q-6 -2 -13 -2v-690h-284v1663h348q193 0 256 -72q53 -65 53 -266v-217q0 -115 -16 -168q-26 -78 -113 -119q129 -53 129 -256zM446 1022v328q0 60 -8 73q-13 23 -63 23h-19v-508h13q6 -2 12 -2q65 0 65 86z" />
    <glyph glyph-name="S" unicode="S" horiz-adv-x="780" 
d="M717 666v-347q0 -216 -58 -274q-57 -57 -272 -57q-207 0 -268 61q-60 63 -60 270v367h287v-405q0 -72 47 -72q41 0 41 72v352q0 44 -10.5 61.5t-52.5 42.5q-14 8 -47.5 26.5t-49.5 27.5t-44 25.5t-44 28t-35 26.5t-31.5 29.5t-21.5 29.5q-39 62 -39 174v237q0 211 60 271
q61 61 270 61t268 -59q60 -60 60 -273v-251h-283v292q0 70 -47 70q-41 0 -41 -70v-258q0 -42 12.5 -62t51.5 -44q15 -9 52.5 -29t55.5 -30.5t48.5 -29t47.5 -32t35.5 -31.5t28.5 -35q39 -59 39 -165z" />
    <glyph glyph-name="T" unicode="T" horiz-adv-x="600" 
d="M582 1663v-221h-140v-1442h-284v1442h-140v221h564z" />
    <glyph glyph-name="U" unicode="U" horiz-adv-x="788" 
d="M723 1663v-1344q0 -210 -59 -272q-59 -59 -267 -59q-210 0 -272 59q-59 62 -59 272v1344h284v-1382q0 -72 45 -72q43 0 43 72v1382h285z" />
    <glyph glyph-name="V" unicode="V" horiz-adv-x="718" 
d="M434 1663h268l-178 -1663h-327l-179 1663h275l61 -1126h11z" />
    <glyph glyph-name="W" unicode="W" horiz-adv-x="1071" 
d="M815 1663h268l-157 -1663h-293l-82 977h-14l-80 -977h-297l-176 1663h276l64 -979h14l76 979h248l88 -979h14z" />
    <glyph glyph-name="X" unicode="X" horiz-adv-x="763" 
d="M647 590l88 -590h-280l-76 741h-8l-72 -741h-262l84 590l26 147q17 87 17 148q0 66 -14 129q-6 33 -13 68.5t-9.5 48.5t-2.5 14l-80 518h281l71 -596h11l59 596h254l-78 -518l-25 -129q-14 -66 -14 -131q0 -77 14 -148l15.5 -77.5l10.5 -52.5t3 -17z" />
    <glyph glyph-name="Y" unicode="Y" horiz-adv-x="679" 
d="M414 1663h268l-188 -991v-672h-295v672l-203 991h276l74 -641z" />
    <glyph glyph-name="Z" unicode="Z" horiz-adv-x="618" 
d="M563 233v-233h-530v233l239 1205h-209v225h500v-225l-239 -1205h239z" />
    <glyph glyph-name="bracketleft" unicode="[" horiz-adv-x="448" 
d="M432 -57v-219h-360v1939h360v-219h-88v-1501h88z" />
    <glyph glyph-name="backslash" unicode="\" horiz-adv-x="542" 
d="M154 1665l387 -1855h-162l-385 1855h160z" />
    <glyph glyph-name="bracketright" unicode="]" horiz-adv-x="448" 
d="M377 1663v-1939h-359v219h86v1501h-86v219h359z" />
    <glyph glyph-name="asciicircum" unicode="^" horiz-adv-x="2048" 
d="M1133 1460l495 -561h-207l-397 397l-399 -397h-207l497 561h218z" />
    <glyph glyph-name="underscore" unicode="_" horiz-adv-x="1024" 
d="M1024 -311v-172h-1024v172h1024z" />
    <glyph glyph-name="grave" unicode="`" horiz-adv-x="1024" 
d="M524 1651l80 -217h-180l-125 217h225z" />
    <glyph glyph-name="a" unicode="a" horiz-adv-x="677" 
d="M621 1102v-1102h-246v55q-63 -63 -150 -63q-114 0 -151 104q-21 58 -21 201v231q0 78 25.5 123.5t91.5 83.5l205 119v252q0 68 -39 68t-39 -68v-207h-244v203q0 164 58 213t225 49q162 0 221 -47q64 -55 64 -215zM375 246v379q-43 -25 -53 -35q-25 -22 -25 -58v-286
q0 -66 41 -66q37 0 37 66z" />
    <glyph glyph-name="b" unicode="b" horiz-adv-x="694" 
d="M633 1047v-736q0 -138 -23 -209q-37 -110 -153 -110q-84 0 -146 65v-57h-243v1663h243v-365q72 66 140 66q119 0 159 -107q23 -67 23 -210zM389 258v838q0 63 -37 63q-41 0 -41 -61v-840q0 -61 39 -61t39 61z" />
    <glyph glyph-name="c" unicode="c" horiz-adv-x="671" 
d="M621 582v-330q0 -163 -64 -215q-54 -45 -225 -45q-163 0 -221 49q-58 52 -58 211v850q0 164 58 213t225 49q162 0 221 -47q64 -55 64 -215v-299h-246v303q0 68 -39 68t-39 -68v-856q0 -70 39 -70t39 70v332h246z" />
    <glyph glyph-name="d" unicode="d" horiz-adv-x="694" 
d="M627 1663v-1663h-244v57q-63 -63 -139 -63q-118 0 -158 108q-25 67 -25 209v736q0 143 25 210q40 107 160 107q71 0 137 -66v365h244zM383 258v840q0 61 -39 61t-39 -61v-840q0 -61 37 -61q41 0 41 61z" />
    <glyph glyph-name="e" unicode="e" horiz-adv-x="671" 
d="M621 502v-250q0 -163 -64 -215q-54 -45 -225 -45q-163 0 -221 49q-58 52 -58 211v850q0 164 58 213t225 49q162 0 221 -47q64 -55 64 -215v-465h-324v-387q0 -70 39 -70t39 70v252h246zM297 825h78v285q0 64 -37 64q-41 0 -41 -64v-285z" />
    <glyph glyph-name="f" unicode="f" horiz-adv-x="440" 
d="M436 1356v-189h-110v-1167h-246v1167h-64v189h64q0 175 29 231q44 84 202 84h125v-186q-83 0 -100 -17q-13 -16 -10 -112h110z" />
    <glyph glyph-name="g" unicode="g" horiz-adv-x="686" 
d="M618 1354v-1438q0 -138 -55 -184q-52 -49 -192 -49h-308v188q2 -1 82 -4q82 -3 134 0q73 3 83 16q13 13 13 174q-63 -63 -139 -63q-120 0 -160 106q-23 67 -23 211v736q0 143 25 210q40 107 160 107q71 0 137 -66v56h243zM375 260v838q0 61 -39 61t-39 -61v-838
q0 -61 37 -61q41 0 41 61z" />
    <glyph glyph-name="h" unicode="h" horiz-adv-x="700" 
d="M633 1059v-1059h-246v1096q0 65 -37 65q-39 0 -39 -65v-1096h-245v1663h245v-365q66 66 138 66q119 0 159 -100q25 -61 25 -205z" />
    <glyph glyph-name="i" unicode="i" horiz-adv-x="378" 
d="M311 1663v-195h-243v195h243zM311 1356v-1356h-243v1356h243z" />
    <glyph glyph-name="j" unicode="j" horiz-adv-x="378" 
d="M313 1663v-195h-245v195h245zM313 1356v-1397q0 -160 -41 -213q-45 -63 -200 -63h-150v186q21 0 37 -2h33q76 0 76 76v1413h245z" />
    <glyph glyph-name="k" unicode="k" horiz-adv-x="681" 
d="M506 760l160 -760h-250l-105 641h-14v-641h-229v1663h229v-803h14l95 496h231z" />
    <glyph glyph-name="l" unicode="l" horiz-adv-x="378" 
d="M311 1663v-1663h-243v1663h243z" />
    <glyph glyph-name="m" unicode="m" horiz-adv-x="1017" 
d="M946 1073v-1073h-239v1096q0 65 -39 65t-39 -65v-1096h-240v1096q0 65 -39 65t-39 -65v-1096h-239v1356h239v-66q62 74 154 74q77 0 143 -78q63 78 160 78q111 0 152 -96q26 -59 26 -195z" />
    <glyph glyph-name="n" unicode="n" horiz-adv-x="700" 
d="M633 1047v-1047h-244v1096q0 65 -39 65t-39 -65v-1096h-243v1354h243v-56q72 66 140 66q119 0 159 -107q23 -64 23 -210z" />
    <glyph glyph-name="o" unicode="o" horiz-adv-x="671" 
d="M621 1102v-850q0 -163 -64 -215q-54 -45 -225 -45q-163 0 -221 49q-58 52 -58 211v850q0 164 58 213t225 49q162 0 221 -47q64 -55 64 -215zM375 246v864q0 64 -37 64q-41 0 -41 -64v-864q0 -66 41 -66q37 0 37 66z" />
    <glyph glyph-name="p" unicode="p" horiz-adv-x="686" 
d="M633 1047v-736q0 -138 -23 -209q-37 -110 -153 -110q-84 0 -146 65v-374h-243v1671h243v-56q72 66 140 66q119 0 159 -107q23 -67 23 -210zM389 258v836q0 65 -37 65q-41 0 -41 -61v-840q0 -61 39 -61t39 61z" />
    <glyph glyph-name="q" unicode="q" horiz-adv-x="686" 
d="M618 1354v-1671h-243v374q-63 -63 -139 -63q-120 0 -160 106q-23 67 -23 211v736q0 143 25 210q40 107 160 107q71 0 137 -66v56h243zM375 258v840q0 61 -39 61t-39 -61v-840q0 -61 39 -61t39 61z" />
    <glyph glyph-name="r" unicode="r" horiz-adv-x="647" 
d="M621 1059v-254h-232v291q0 65 -39 65t-39 -65v-1096h-243v1354h243v-56q63 66 135 66q114 0 152 -102q23 -67 23 -203z" />
    <glyph glyph-name="s" unicode="s" horiz-adv-x="669" 
d="M618 510v-211q0 -192 -47 -248q-53 -59 -241 -59q-185 0 -234 61q-45 54 -45 246v199h246v-252q0 -66 37 -66q39 0 39 66v239q0 48 -17 68q-16 22 -176 106q-80 42 -108 99q-21 46 -21 147v176q0 173 62 232q57 51 235 51q176 0 227 -66q43 -55 43 -241v-156h-245v209
q0 66 -39 66q-37 0 -37 -66v-182q0 -61 84 -121l133 -76q67 -37 88 -92q16 -43 16 -129z" />
    <glyph glyph-name="t" unicode="t" horiz-adv-x="438" 
d="M418 184v-186h-101q-153 0 -198 63q-41 53 -41 213v893h-64v189h64v307h244v-307h96v-189h-96v-919q0 -49 26 -58q15 -6 70 -6z" />
    <glyph glyph-name="u" unicode="u" horiz-adv-x="700" 
d="M633 1356v-1356h-244v57q-57 -63 -139 -63q-120 0 -160 106q-22 61 -22 211v1045h243v-1096q0 -65 39 -65t39 65v1096h244z" />
    <glyph glyph-name="v" unicode="v" horiz-adv-x="626" 
d="M367 1356h237l-149 -1356h-283l-147 1356h237l47 -907h10z" />
    <glyph glyph-name="w" unicode="w" horiz-adv-x="956" 
d="M696 1356h238l-148 -1356h-239l-64 803h-14l-61 -803h-240l-150 1356h242l43 -801h14l54 801h213l51 -801h16z" />
    <glyph glyph-name="x" unicode="x" horiz-adv-x="681" 
d="M520 733l133 -733h-254l-57 555h-8l-58 -555h-253l133 733l-119 623h250l45 -484h8l51 484h250z" />
    <glyph glyph-name="y" unicode="y" horiz-adv-x="620" 
d="M369 1356h233l-158 -1403q-15 -148 -57 -203q-52 -67 -194 -67h-222v188h138q75 0 75 55q0 21 -2 27l-162 1403h234l51 -887h14z" />
    <glyph glyph-name="z" unicode="z" horiz-adv-x="593" 
d="M553 1356v-205l-266 -958h264v-193h-512v213l262 952h-227v191h479z" />
    <glyph glyph-name="braceleft" unicode="{" horiz-adv-x="1024" 
d="M874 -238v-176h-63q-196 0 -272 49q-103 65 -103 299v248q0 144 -53 203q-21 25 -58 38t-68.5 15.5t-78.5 3.5h-16v179q15 -3 43 -3q130 0 184 66q47 59 47 195v247q0 116 10 168q20 85 93 133q77 50 335 50v-179q-12 0 -22 2h-25q-112 0 -149 -46t-37 -169v-241
q0 -146 -33 -205q-45 -79 -170 -109q121 -27 168 -110q35 -65 35 -203v-240q0 -117 38 -168t130 -51q19 0 65 4z" />
    <glyph glyph-name="bar" unicode="|" horiz-adv-x="1024" 
d="M602 1565v-2048h-178v2048h178z" />
    <glyph glyph-name="braceright" unicode="}" horiz-adv-x="1024" 
d="M862 621v-179q-10 0 -20 2h-23q-132 0 -184 -67q-47 -59 -47 -195v-248q0 -113 -10 -165q-21 -90 -93 -134q-79 -49 -333 -49v176q10 -2 45 -2q119 0 157 56q29 44 29 161v240q0 139 37 203q47 83 168 110q-120 29 -168 111q-37 64 -37 203q0 24 2 63t2 101
q0 203 -43 249q-28 33 -90 39q-35 2 -102 2v179h45q213 0 292 -52q101 -64 101 -290q0 -60 -2 -109q-2 -47 -2 -106q0 -146 37 -213q51 -91 178 -91q3 0 61 5z" />
    <glyph glyph-name="asciitilde" unicode="~" horiz-adv-x="1705" 
d="M1530 784v-184q-203 -141 -434 -141q-50 0 -242 67q-195 68 -291 68q-159 0 -385 -160v187q201 143 387 143q112 0 301 -68q192 -65 285 -65q173 0 379 153z" />
    <glyph glyph-name="uni0080" horiz-adv-x="1851" 
d="M1034 1829q536 40 815 -258l-59 -160q-298 319 -756 260q-379 -120 -557 -497l1194 -21l-41 -119l-39 -41h-1153v-157h1112l-98 -160h-975q102 -317 537 -516q457 -79 776 258l-21 -240q-137 -119 -376 -178h-379q-236 58 -398 199q-241 200 -317 477h-260l61 160h179
v157h-259l60 160h219q237 577 735 676z" />
    <glyph glyph-name="uni0080" unicode="&#x20ac;" horiz-adv-x="1851" 
d="M1034 1829q536 40 815 -258l-59 -160q-298 319 -756 260q-379 -120 -557 -497l1194 -21l-41 -119l-39 -41h-1153v-157h1112l-98 -160h-975q102 -317 537 -516q457 -79 776 258l-21 -240q-137 -119 -376 -178h-379q-236 58 -398 199q-241 200 -317 477h-260l61 160h179
v157h-259l60 160h219q237 577 735 676z" />
    <glyph glyph-name="nbspace" unicode="&#xa0;" 
 />
    <glyph glyph-name="exclamdown" unicode="&#xa1;" horiz-adv-x="403" 
d="M344 1663v-279h-285v279h285zM297 1264l47 -1264h-283l48 1264h188z" />
    <glyph glyph-name="cent" unicode="&#xa2;" 
d="M696 653v-258q0 -169 -24 -227q-40 -100 -183 -100v-121h-192v121q-141 0 -184 100q-27 58 -27 227v709q0 168 27 227q43 101 184 101v116h192v-116q139 0 183 -103q24 -59 24 -225v-230h-262v289q0 70 -43 70q-41 0 -41 -70v-827q0 -72 43 -72q41 0 41 72v317h262z" />
    <glyph glyph-name="sterling" unicode="&#xa3;" 
d="M739 678v-338q0 -212 -49 -270q-58 -70 -260 -70h-348v786h-78v226h78v327q0 216 57 273q59 59 271 59q211 0 270 -59t59 -273v-219h-284v258q0 72 -45 72q-43 0 -43 -72v-366h282v-226h-280v-569h24q47 0 56 25q6 12 6 65v371h284z" />
    <glyph glyph-name="currency" unicode="&#xa4;" horiz-adv-x="1241" 
d="M965 637l204 -205l-94 -92l-203 205q-110 -82 -249 -82q-151 0 -252 82l-203 -205l-92 92l203 205q-80 109 -80 248t80 248l-203 204l92 93l203 -203q107 82 250 82q144 0 251 -82l203 203l94 -93l-204 -204q79 -104 79 -248q0 -138 -79 -248zM913 885q0 122 -86 205
q-83 86 -204 86q-119 0 -205 -86q-86 -83 -86 -205q0 -121 84 -205q87 -84 207 -84t204 84q86 83 86 205z" />
    <glyph glyph-name="yen" unicode="&#xa5;" horiz-adv-x="679" 
d="M414 1663h268l-152 -805h132v-186h-168v-672h-295v672h-166v186h127l-164 805h276l76 -657z" />
    <glyph glyph-name="brokenbar" unicode="&#xa6;" horiz-adv-x="1024" 
d="M602 1432v-758h-178v758h178zM602 408v-758h-178v758h178z" />
    <glyph glyph-name="section" unicode="&#xa7;" horiz-adv-x="739" 
d="M680 141q0 -203 -55 -264q-61 -67 -260 -67q-162 0 -230 51q-60 48 -69 151q-5 50 -5 244h265v-174q0 -70 45 -70q59 0 59 148q0 9 -0.5 22t-1 24.5t-1 21.5t-1.5 17v7q0 64 -64 98l-202 113q-103 59 -103 268q0 23 2 82t2 70q0 142 58 176q-60 48 -60 143q0 17 4 37v4
q-2 0 -2 2q0 191 9 244q14 100 81.5 141t229.5 41q159 0 223 -49q60 -45 72 -145q4 -46 4 -238h-254v160q0 69 -59 69q-54 0 -54 -69v-131q0 -69 70 -109l182 -100q74 -43 97 -101q18 -46 18 -141v-201q0 -123 -62 -161q66 -51 66 -191q0 -16 -2 -64t-2 -59zM426 590v201
q0 51 -31 79l-82 56v-197q0 -55 29 -84q4 -4 84 -55z" />
    <glyph glyph-name="dieresis" unicode="&#xa8;" horiz-adv-x="1024" 
d="M750 1645v-197h-201v197h201zM477 1645v-197h-201v197h201z" />
    <glyph glyph-name="copyright" unicode="&#xa9;" horiz-adv-x="1705" 
d="M1593 731q0 -307 -217 -524t-524 -217q-303 0 -522 219q-217 217 -217 522q0 301 219 520t520 219q311 0 526 -215t215 -524zM1485 731q0 267 -182 449t-449 182q-259 0 -446 -184q-185 -185 -185 -447q0 -257 187 -444t444 -187q259 0 444 185q187 187 187 446z
M1049 582h165q0 -140 -114 -222q-106 -77 -246 -77q-189 0 -297 129q-100 118 -100 313q0 193 102 319q109 136 299 136q136 0 236 -68q112 -75 112 -209h-166q-18 154 -190 154q-115 0 -170 -113q-41 -87 -41 -213q0 -133 45 -213q58 -104 176 -104q168 0 189 168z" />
    <glyph glyph-name="ordfeminine" unicode="&#xaa;" horiz-adv-x="507" 
d="M465 1487v-772h-184v39q-51 -45 -111 -45q-81 0 -111 67q-18 46 -18 139v170q0 97 86 144l154 84v176q0 47 -29 47t-29 -47v-146h-182v144q0 116 49 153q44 29 162 29t158 -27q55 -40 55 -155zM281 887v266q-58 -34 -58 -63v-203q0 -45 31 -45q27 0 27 45z" />
    <glyph glyph-name="guillemotleft" unicode="&#xab;" horiz-adv-x="624" 
d="M520 487l60 -383h-179l-59 383l-20 97q-11 64 -11 96t11 96l20 94l59 381h179l-60 -381l-20 -94q-11 -64 -11 -96t11 -96zM262 487l60 -383h-179l-59 383l-21 97q-10 58 -10 96t10 96l21 94l59 381h179l-60 -381l-20 -94q-11 -64 -11 -96t11 -96z" />
    <glyph glyph-name="logicalnot" unicode="&#xac;" horiz-adv-x="1705" 
d="M1452 862v-502h-166v336h-1032v166h1198z" />
    <glyph glyph-name="minus" unicode="&#xad;" horiz-adv-x="512" 
d="M455 793v-220h-400v220h400z" />
    <glyph glyph-name="minus" unicode="&#x2212;" horiz-adv-x="512" 
d="M455 793v-220h-400v220h400z" />
    <glyph glyph-name="registered" unicode="&#xae;" horiz-adv-x="1705" 
d="M1593 731q0 -307 -217 -524q-214 -217 -524 -217q-303 0 -522 219q-217 217 -217 522t217 522t522 217q309 0 524 -215q217 -214 217 -524zM1485 721q0 267 -182 455q-180 186 -449 186q-259 0 -446 -184q-185 -185 -185 -447q0 -251 185 -442q189 -189 436 -189
q264 0 452 179q189 183 189 442zM1036 705l185 -375h-199l-164 346h-129v-346h-178v829h319q351 0 351 -225q0 -182 -185 -229zM1038 913q0 134 -200 134h-109v-261h117q192 0 192 127z" />
    <glyph glyph-name="overscore" unicode="&#xaf;" horiz-adv-x="1024" 
d="M729 1634v-174h-440v174h440z" />
    <glyph glyph-name="overscore" unicode="&#x2c9;" horiz-adv-x="1024" 
d="M729 1634v-174h-440v174h440z" />
    <glyph glyph-name="degree" unicode="&#xb0;" horiz-adv-x="673" 
d="M633 1163q0 -125 -86 -211q-87 -84 -211 -84q-123 0 -209 86q-84 87 -84 209q0 124 84 211q86 86 211 86q126 0 209 -86q86 -86 86 -211zM522 1165q0 78 -53 131.5t-131 53.5q-75 0 -130.5 -55t-55.5 -130t55.5 -130.5t130.5 -55.5q79 0 131.5 53t52.5 133z" />
    <glyph glyph-name="plusminus" unicode="&#xb1;" horiz-adv-x="1705" 
d="M1452 872v-165h-514v-334h-170v334h-514v165h514v334h170v-334h514zM1452 182v-168h-1198v168h1198z" />
    <glyph glyph-name="twosuperior" unicode="&#xb2;" horiz-adv-x="516" 
d="M477 801v-135h-432v135l215 444q27 55 27 107v141q0 43 -31 43q-27 0 -27 -43v-174h-188v149q0 134 43 168q36 33 174 33q137 0 178 -35t41 -166v-127q0 -72 -33 -137l-194 -403h227z" />
    <glyph glyph-name="threesuperior" unicode="&#xb3;" horiz-adv-x="516" 
d="M475 1047v-187q0 -127 -43 -164q-40 -34 -172 -34q-126 0 -168 28q-51 39 -51 170v211h188v-235q0 -41 29 -41t29 41v256q0 37 -39 43l-24 -2h-44v143q74 0 74 -2q33 6 33 51v168q0 43 -31 43q-27 0 -27 -43v-154h-188v129q0 134 45 170q39 31 174 31q133 0 172 -33
q43 -40 43 -168v-106q0 -137 -90 -158q59 -21 76 -59q14 -25 14 -98z" />
    <glyph glyph-name="acute" unicode="&#xb4;" horiz-adv-x="1024" 
d="M500 1651h225l-125 -217h-182z" />
    <glyph glyph-name="mu" unicode="&#xb5;" horiz-adv-x="1208" 
d="M893 1081h225l-145 -739q-19 -100 -19 -141q0 -60 68 -60q11 0 35 4l-33 -159q-46 -17 -162 -17q-137 0 -137 140q-86 -142 -254 -142q-158 0 -235 109l-99 -506h-229l297 1511h229l-125 -635q-12 -62 -12 -116q0 -185 182 -185q145 0 221 125q49 82 84 256z" />
    <glyph glyph-name="mu" unicode="&#x3bc;" horiz-adv-x="1208" 
d="M893 1081h225l-145 -739q-19 -100 -19 -141q0 -60 68 -60q11 0 35 4l-33 -159q-46 -17 -162 -17q-137 0 -137 140q-86 -142 -254 -142q-158 0 -235 109l-99 -506h-229l297 1511h229l-125 -635q-12 -62 -12 -116q0 -185 182 -185q145 0 221 125q49 82 84 256z" />
    <glyph glyph-name="paragraph" unicode="&#xb6;" horiz-adv-x="1024" 
d="M969 1479v-99h-117v-1380h-129v1380h-168v-1380h-131v784q-157 0 -260 95q-109 95 -109 251q0 169 115 261q107 88 276 88h523z" />
    <glyph glyph-name="middot" unicode="&#xb7;" horiz-adv-x="391" 
d="M338 829q0 -55 -44 -97t-101 -42t-98.5 42t-41.5 102q0 57 43.5 99t100.5 42q60 0 100.5 -43t40.5 -103z" />
    <glyph glyph-name="middot" unicode="&#x2219;" horiz-adv-x="391" 
d="M338 829q0 -55 -44 -97t-101 -42t-98.5 42t-41.5 102q0 57 43.5 99t100.5 42q60 0 100.5 -43t40.5 -103z" />
    <glyph glyph-name="cedilla" unicode="&#xb8;" horiz-adv-x="1024" 
d="M664 -147q0 -156 -211 -156q-8 0 -44.5 3t-48.5 3v147q17 0 33 -2h35q90 0 90 64q0 40 -26 88h112q60 -85 60 -147z" />
    <glyph glyph-name="onesuperior" unicode="&#xb9;" horiz-adv-x="368" 
d="M293 1663v-997h-189v735h-94v133q116 12 131 129h152z" />
    <glyph glyph-name="ordmasculine" unicode="&#xba;" horiz-adv-x="503" 
d="M465 1487v-596q0 -117 -49 -154q-42 -28 -166 -28q-120 0 -160 32q-49 40 -49 150v596q0 116 49 153q44 29 162 29t162 -29q51 -36 51 -153zM281 885v606q0 45 -27 45q-31 0 -31 -45v-604q0 -45 31 -45q27 0 27 43z" />
    <glyph glyph-name="guillemotright" unicode="&#xbb;" horiz-adv-x="624" 
d="M569 682q0 -38 -10 -96l-20 -97l-60 -385h-178l59 385l21 97q10 58 10 96t-10 96l-21 94l-59 379h178l60 -379l20 -94q10 -58 10 -96zM311 682q0 -38 -10 -96l-20 -97l-60 -385h-178l59 385l21 97q10 58 10 96t-10 96l-21 94l-59 379h178l60 -379l20 -94q10 -58 10 -96z
" />
    <glyph glyph-name="onequarter" unicode="&#xbc;" horiz-adv-x="1128" 
d="M1100 391v-123h-49v-268h-177v268h-223v123l135 541h265v-541h49zM279 1663v-932h-179v686h-92v125q50 0 85.5 34.5t41.5 86.5h144zM684 1671h164l-545 -1679h-164zM811 391h70v375h-15z" />
    <glyph glyph-name="onehalf" unicode="&#xbd;" horiz-adv-x="1128" 
d="M1090 127v-127h-412v127l205 414q26 51 26 98v133q0 39 -28 39q-29 0 -29 -39v-162h-176v148q0 119 43 153q36 25 162 25t166 -29q43 -34 43 -157v-119q0 -60 -31 -127l-185 -377h216zM279 1663v-932h-179v686h-92v125q50 0 85.5 34.5t41.5 86.5h144zM684 1671h164
l-545 -1679h-164z" />
    <glyph glyph-name="threequarters" unicode="&#xbe;" horiz-adv-x="1269" 
d="M1243 391v-123h-49v-268h-176v268h-223v123l135 541h264v-541h49zM827 1671h164l-545 -1679h-163zM453 1087v-176q0 -118 -41 -153q-42 -31 -164 -31q-120 0 -164 29q-45 33 -45 155v199h178v-219q0 -39 29 -39q15 0 20 8l2 7q3 13 6 24v237q0 36 -38 39h-64v133h70
q32 3 32 48v155q0 39 -28 39q-11 0 -21 -10q-8 -8 -8 -172h-178v121q0 124 45 157q40 29 164 29t164 -29q41 -35 41 -157v-101q0 -126 -84 -147q57 -15 71 -53q13 -29 13 -93zM954 391h70v375h-14z" />
    <glyph glyph-name="questiondown" unicode="&#xbf;" horiz-adv-x="772" 
d="M522 1663v-277h-284v277h284zM715 575v-251q0 -210 -58 -271q-56 -59 -262 -59q-195 0 -262 55q-76 61 -76 250v217q0 137 56 252q32 70 94 190q30 59 33 160v162h282v-215q0 -96 -92 -272q-90 -175 -90 -273v-235q0 -70 45 -70t45 70v290h285z" />
    <glyph glyph-name="Agrave" unicode="&#xc0;" horiz-adv-x="784" 
d="M420 2107l80 -217h-181l-124 217h225zM575 1663l168 -1663h-276l-21 354h-118l-21 -354h-274l164 1663h378zM338 575h96l-43 758h-8z" />
    <glyph glyph-name="Aacute" unicode="&#xc1;" horiz-adv-x="784" 
d="M354 2091h226l-125 -217h-183zM575 1663l168 -1663h-276l-21 354h-118l-21 -354h-274l164 1663h378zM338 575h96l-43 758h-8z" />
    <glyph glyph-name="Acircumflex" unicode="&#xc2;" horiz-adv-x="784" 
d="M532 2132l119 -217h-184l-59 94l-60 -94h-184l119 217h249zM575 1663l168 -1663h-276l-21 354h-118l-21 -354h-274l164 1663h378zM338 575h96l-43 758h-8z" />
    <glyph glyph-name="Atilde" unicode="&#xc3;" horiz-adv-x="784" 
d="M684 2122v-60q0 -75 -29 -105t-104 -30q-23 0 -96 17q-69 16 -99 16q-57 0 -57 -49h-133v61q0 133 108 133q35 0 113 -16q82 -16 113 -16q51 0 51 49h133zM575 1663l168 -1663h-276l-21 354h-118l-21 -354h-274l164 1663h378zM338 575h96l-43 758h-8z" />
    <glyph glyph-name="Adieresis" unicode="&#xc4;" horiz-adv-x="784" 
d="M629 2118v-197h-201v197h201zM356 2118v-197h-200v197h200zM575 1663l168 -1663h-276l-21 354h-118l-21 -354h-274l164 1663h378zM338 575h96l-43 758h-8z" />
    <glyph glyph-name="Aring" unicode="&#xc5;" horiz-adv-x="784" 
d="M606 1913v-119q0 -102 -100 -102h-238q-100 0 -100 102v119q0 100 100 100h238q100 0 100 -100zM578 1632l165 -1632h-276l-21 354h-118l-21 -354h-274l162 1632h383zM485 1853q0 43 -24 43h-148q-8 0 -14 -6q-8 -11 -8 -37q0 -4 4 -36q6 -9 18 -9h148q24 0 24 45z
M338 575h96l-43 725h-8z" />
    <glyph glyph-name="AE" unicode="&#xc6;" horiz-adv-x="993" 
d="M930 219v-219h-447v354h-172l-43 -354h-276l254 1663h684v-217h-170v-424h170v-219h-170v-584h170zM350 575h139v871h-30z" />
    <glyph glyph-name="Ccedilla" unicode="&#xc7;" horiz-adv-x="772" 
d="M408 -147q0 -156 -211 -156q-8 0 -44.5 3t-48.5 3v147q17 0 33 -2h35q90 0 90 64q0 34 -24 86q-107 18 -142 90q-33 62 -33 234v1019q0 215 58 273q59 59 270 59q212 0 271 -59t59 -273v-245h-285v284q0 72 -47 72q-43 0 -43 -72v-1099q0 -70 47 -70q43 0 43 70v424h285
v-383q0 -215 -57 -275q-59 -59 -269 -59h-39q52 -73 52 -135z" />
    <glyph glyph-name="Egrave" unicode="&#xc8;" horiz-adv-x="589" 
d="M375 2144l80 -217h-181l-124 217h225zM526 219v-219h-454v1663h454v-217h-170v-424h170v-219h-170v-584h170z" />
    <glyph glyph-name="Eacute" unicode="&#xc9;" horiz-adv-x="589" 
d="M276 2152h226l-125 -217h-182zM526 219v-219h-454v1663h454v-217h-170v-424h170v-219h-170v-584h170z" />
    <glyph glyph-name="Ecircumflex" unicode="&#xca;" horiz-adv-x="589" 
d="M451 2107l118 -217h-184l-59 95l-60 -95h-184l119 217h250zM526 219v-219h-454v1663h454v-217h-170v-424h170v-219h-170v-584h170z" />
    <glyph glyph-name="Edieresis" unicode="&#xcb;" horiz-adv-x="589" 
d="M559 2085v-197h-201v197h201zM287 2085v-197h-201v197h201zM526 219v-219h-454v1663h454v-217h-170v-424h170v-219h-170v-584h170z" />
    <glyph glyph-name="Igrave" unicode="&#xcc;" horiz-adv-x="428" 
d="M264 2103l80 -217h-180l-125 217h225zM356 1663v-1663h-284v1663h284z" />
    <glyph glyph-name="Iacute" unicode="&#xcd;" horiz-adv-x="428" 
d="M207 2091h225l-125 -217h-182zM356 1663v-1663h-284v1663h284z" />
    <glyph glyph-name="Icircumflex" unicode="&#xce;" horiz-adv-x="428" 
d="M365 2099l118 -217h-184l-59 94l-60 -94h-184l119 217h250zM356 1663v-1663h-284v1663h284z" />
    <glyph glyph-name="Idieresis" unicode="&#xcf;" horiz-adv-x="428" 
d="M473 2101v-196h-201v196h201zM201 2101v-196h-201v196h201zM356 1663v-1663h-284v1663h284z" />
    <glyph glyph-name="Eth" unicode="&#xd0;" horiz-adv-x="813" 
d="M745 1325v-985q0 -210 -51 -270q-58 -70 -258 -70h-358v829h-53v179h53v655h356q201 0 260 -68q51 -57 51 -270zM461 307v1057q0 51 -13 67.5t-59 16.5h-22q-2 -2 -9 -2v-438h52v-179h-52v-612h9q4 -2 8 -2h14q48 0 64 23q8 13 8 69z" />
    <glyph glyph-name="Ntilde" unicode="&#xd1;" horiz-adv-x="808" 
d="M694 2120v-60q0 -75 -29 -105t-104 -30q-23 0 -96 17q-69 16 -98 16q-58 0 -58 -49h-133v61q0 133 109 133q34 0 112 -16q82 -16 113 -16q51 0 51 49h133zM735 1663v-1663h-252l-157 852h-13l6 -852h-247v1663h254l155 -829h13l-5 829h246z" />
    <glyph glyph-name="Ograve" unicode="&#xd2;" 
d="M465 2101l80 -217h-180l-125 217h225zM721 1341v-1019q0 -215 -57 -275q-59 -59 -269 -59q-211 0 -272 61q-60 63 -60 273v1019q0 215 58 273q59 59 270 59q212 0 271 -59t59 -273zM436 276v1108q0 68 -47 68q-43 0 -43 -68v-1108q0 -65 47 -65q43 0 43 65z" />
    <glyph glyph-name="Oacute" unicode="&#xd3;" 
d="M360 2105h226l-125 -217h-182zM721 1341v-1019q0 -215 -57 -275q-59 -59 -269 -59q-211 0 -272 61q-60 63 -60 273v1019q0 215 58 273q59 59 270 59q212 0 271 -59t59 -273zM436 276v1108q0 68 -47 68q-43 0 -43 -68v-1108q0 -65 47 -65q43 0 43 65z" />
    <glyph glyph-name="Ocircumflex" unicode="&#xd4;" 
d="M537 2118l118 -217h-184l-59 94l-60 -94h-184l119 217h250zM721 1341v-1019q0 -215 -57 -275q-59 -59 -269 -59q-211 0 -272 61q-60 63 -60 273v1019q0 215 58 273q59 59 270 59q212 0 271 -59t59 -273zM436 276v1108q0 68 -47 68q-43 0 -43 -68v-1108q0 -65 47 -65
q43 0 43 65z" />
    <glyph glyph-name="Otilde" unicode="&#xd5;" 
d="M678 2132v-59q0 -75 -30 -105.5t-103 -30.5q-23 0 -96 17q-69 16 -99 16q-57 0 -57 -49h-133v61q0 134 98 134q32 0 119 -17q85 -16 117 -16q51 0 51 49h133zM721 1341v-1019q0 -215 -57 -275q-59 -59 -269 -59q-211 0 -272 61q-60 63 -60 273v1019q0 215 58 273
q59 59 270 59q212 0 271 -59t59 -273zM436 276v1108q0 68 -47 68q-43 0 -43 -68v-1108q0 -65 47 -65q43 0 43 65z" />
    <glyph glyph-name="Odieresis" unicode="&#xd6;" 
d="M657 2120v-197h-200v197h200zM385 2120v-197h-201v197h201zM721 1341v-1019q0 -215 -57 -275q-59 -59 -269 -59q-211 0 -272 61q-60 63 -60 273v1019q0 215 58 273q59 59 270 59q212 0 271 -59t59 -273zM436 276v1108q0 68 -47 68q-43 0 -43 -68v-1108q0 -65 47 -65
q43 0 43 65z" />
    <glyph glyph-name="multiply" unicode="&#xd7;" horiz-adv-x="1705" 
d="M981 610l459 -458l-117 -119l-461 461l-459 -461l-116 119l458 458l-458 461l116 117l459 -459l461 459l117 -117z" />
    <glyph glyph-name="Oslash" unicode="&#xd8;" 
d="M721 1341v-1019q0 -199 -45 -259q-59 -77 -244 -77q-133 0 -217 20l-35 -115l-117 35l41 150q-41 53 -41 217v1048q0 201 50 263q54 69 249 69q94 0 183 -6l35 119l127 -37l-41 -139q55 -49 55 -269zM436 276v1110q0 68 -47 68q-43 0 -43 -68v-1110q0 -67 47 -67
q43 0 43 67z" />
    <glyph glyph-name="Ugrave" unicode="&#xd9;" horiz-adv-x="788" 
d="M432 2097l80 -217h-180l-125 217h225zM723 1663v-1344q0 -210 -59 -272q-59 -59 -267 -59q-210 0 -272 59q-59 62 -59 272v1344h284v-1382q0 -72 45 -72q43 0 43 72v1382h285z" />
    <glyph glyph-name="Uacute" unicode="&#xda;" horiz-adv-x="788" 
d="M385 2105h225l-125 -217h-182zM723 1663v-1344q0 -210 -59 -272q-59 -59 -267 -59q-210 0 -272 59q-59 62 -59 272v1344h284v-1382q0 -72 45 -72q43 0 43 72v1382h285z" />
    <glyph glyph-name="Ucircumflex" unicode="&#xdb;" horiz-adv-x="788" 
d="M561 2126l119 -217h-184l-60 94l-59 -94h-184l118 217h250zM723 1663v-1344q0 -210 -59 -272q-59 -59 -267 -59q-210 0 -272 59q-59 62 -59 272v1344h284v-1382q0 -72 45 -72q43 0 43 72v1382h285z" />
    <glyph glyph-name="Udieresis" unicode="&#xdc;" horiz-adv-x="788" 
d="M641 2130v-197h-201v197h201zM369 2130v-197h-201v197h201zM723 1663v-1344q0 -210 -59 -272q-59 -59 -267 -59q-210 0 -272 59q-59 62 -59 272v1344h284v-1382q0 -72 45 -72q43 0 43 72v1382h285z" />
    <glyph glyph-name="Yacute" unicode="&#xdd;" horiz-adv-x="679" 
d="M326 2079h225l-125 -217h-182zM414 1663h268l-188 -991v-672h-295v672l-203 991h276l74 -641z" />
    <glyph glyph-name="Thorn" unicode="&#xde;" horiz-adv-x="780" 
d="M729 1061v-363q0 -230 -72 -290q-59 -50 -301 -50v-358h-284v1663h284v-264q246 0 303 -45q70 -58 70 -293zM446 678v407q0 59 -8 72q-12 25 -61 25h-21v-607h25q47 0 59 31q6 15 6 72z" />
    <glyph glyph-name="germandbls" unicode="&#xdf;" horiz-adv-x="696" 
d="M637 649v-393q0 -168 -64 -217q-55 -43 -227 -43v203q31 4 39 17t8 52v477q0 37 -43 43l-4 232q47 6 47 61v365q0 37 -39 37q-43 0 -43 -74v-1413h-245v1415q0 153 55 205q55 55 207 55q151 0 217 -29q92 -47 92 -180v-323q0 -197 -127 -238q81 -27 108 -100
q19 -49 19 -152z" />
    <glyph glyph-name="agrave" unicode="&#xe0;" horiz-adv-x="677" 
d="M356 1675l80 -217h-180l-125 217h225zM621 1102v-1102h-246v55q-63 -63 -150 -63q-114 0 -151 104q-21 58 -21 201v231q0 78 25.5 123.5t91.5 83.5l205 119v252q0 68 -39 68t-39 -68v-207h-244v203q0 164 58 213t225 49q162 0 221 -47q64 -55 64 -215zM375 246v379
q-43 -25 -53 -35q-25 -22 -25 -58v-286q0 -66 41 -66q37 0 37 66z" />
    <glyph glyph-name="aacute" unicode="&#xe1;" horiz-adv-x="677" 
d="M283 1675h225l-125 -217h-182zM621 1102v-1102h-246v55q-63 -63 -150 -63q-114 0 -151 104q-21 58 -21 201v231q0 78 25.5 123.5t91.5 83.5l205 119v252q0 68 -39 68t-39 -68v-207h-244v203q0 164 58 213t225 49q162 0 221 -47q64 -55 64 -215zM375 246v379
q-43 -25 -53 -35q-25 -22 -25 -58v-286q0 -66 41 -66q37 0 37 66z" />
    <glyph glyph-name="acircumflex" unicode="&#xe2;" horiz-adv-x="677" 
d="M494 1651l118 -217h-184l-59 94l-60 -94h-184l119 217h250zM621 1102v-1102h-246v55q-63 -63 -150 -63q-114 0 -151 104q-21 58 -21 201v231q0 78 25.5 123.5t91.5 83.5l205 119v252q0 68 -39 68t-39 -68v-207h-244v203q0 164 58 213t225 49q162 0 221 -47
q64 -55 64 -215zM375 246v379q-43 -25 -53 -35q-25 -22 -25 -58v-286q0 -66 41 -66q37 0 37 66z" />
    <glyph glyph-name="atilde" unicode="&#xe3;" horiz-adv-x="677" 
d="M629 1659v-60q0 -75 -29 -105t-104 -30q-24 0 -97 17q-69 16 -98 16q-57 0 -57 -49h-133v61q0 133 100 133q40 0 125 -14q91 -15 100 -18h8q52 0 52 49h133zM621 1102v-1102h-246v55q-63 -63 -150 -63q-114 0 -151 104q-21 58 -21 201v231q0 78 25.5 123.5t91.5 83.5
l205 119v252q0 68 -39 68t-39 -68v-207h-244v203q0 164 58 213t225 49q162 0 221 -47q64 -55 64 -215zM375 246v379q-43 -25 -53 -35q-25 -22 -25 -58v-286q0 -66 41 -66q37 0 37 66z" />
    <glyph glyph-name="adieresis" unicode="&#xe4;" horiz-adv-x="677" 
d="M594 1645v-197h-201v197h201zM322 1645v-197h-201v197h201zM621 1102v-1102h-246v55q-63 -63 -150 -63q-114 0 -151 104q-21 58 -21 201v231q0 78 25.5 123.5t91.5 83.5l205 119v252q0 68 -39 68t-39 -68v-207h-244v203q0 164 58 213t225 49q162 0 221 -47
q64 -55 64 -215zM375 246v379q-43 -25 -53 -35q-25 -22 -25 -58v-286q0 -66 41 -66q37 0 37 66z" />
    <glyph glyph-name="aring" unicode="&#xe5;" horiz-adv-x="677" 
d="M555 1655v-119q0 -102 -100 -102h-238q-100 0 -100 102v119q0 100 73 100h265q57 0 78.5 -21.5t21.5 -78.5zM621 1102v-1102h-246v55q-63 -63 -150 -63q-114 0 -151 104q-21 58 -21 201v231q0 78 25.5 123.5t91.5 83.5l205 119v252q0 68 -39 68t-39 -68v-207h-244v203
q0 164 58 213t225 49q162 0 221 -47q64 -55 64 -215zM434 1595q0 45 -24 45h-146q-24 0 -24 -47q0 -43 24 -43h146q24 0 24 45zM375 246v379q-43 -25 -53 -35q-25 -22 -25 -58v-286q0 -66 41 -66q37 0 37 66z" />
    <glyph glyph-name="ae" unicode="&#xe6;" horiz-adv-x="993" 
d="M940 502v-250q0 -154 -57 -205q-56 -53 -209 -53q-81 0 -127 16q-62 21 -96 82q-73 -102 -193 -102q-137 0 -178 90q-27 59 -27 215v233q0 142 117 207l205 113v258q0 68 -39 68t-39 -68v-207h-244v203q0 158 56 211q54 51 217 51q109 0 172 -51q51 51 172 51
q159 0 215 -53q55 -52 55 -209v-465h-319v-387q0 -70 36 -70q39 0 39 70v252h244zM621 825h75v308q0 16 -12 28q-3 13 -25 13q-38 0 -38 -64v-285zM375 246v379q-43 -25 -53 -35q-25 -22 -25 -58v-286q0 -66 41 -66q37 0 37 66z" />
    <glyph glyph-name="ccedilla" unicode="&#xe7;" horiz-adv-x="671" 
d="M334 -117q0 -155 -211 -155q-8 0 -44 3t-48 3v147q16 0 32 -2h35q90 0 90 64q0 30 -14 65q-121 38 -121 244v850q0 164 58 213t225 49q162 0 221 -47q64 -55 64 -215v-299h-246v303q0 68 -39 68t-39 -68v-856q0 -70 39 -70t39 70v332h246v-330q0 -163 -64 -215
q-54 -45 -225 -45h-31q33 -50 33 -109z" />
    <glyph glyph-name="egrave" unicode="&#xe8;" horiz-adv-x="671" 
d="M311 1651l80 -230l-180 13l-125 217h225zM621 502v-250q0 -163 -64 -215q-54 -45 -225 -45q-163 0 -221 49q-58 52 -58 211v850q0 164 58 213t225 49q162 0 221 -47q64 -55 64 -215v-465h-324v-387q0 -70 39 -70t39 70v252h246zM297 825h78v285q0 64 -37 64
q-41 0 -41 -64v-285z" />
    <glyph glyph-name="eacute" unicode="&#xe9;" horiz-adv-x="671" 
d="M324 1663h225l-125 -217h-182zM621 502v-250q0 -163 -64 -215q-54 -45 -225 -45q-163 0 -221 49q-58 52 -58 211v850q0 164 58 213t225 49q162 0 221 -47q64 -55 64 -215v-465h-324v-387q0 -70 39 -70t39 70v252h246zM297 825h78v285q0 64 -37 64q-41 0 -41 -64v-285z
" />
    <glyph glyph-name="ecircumflex" unicode="&#xea;" horiz-adv-x="671" 
d="M473 1700l107 -217h-172l-60 94l-59 -94h-185l119 217h250zM621 502v-250q0 -163 -64 -215q-54 -45 -225 -45q-163 0 -221 49q-58 52 -58 211v850q0 164 58 213t225 49q162 0 221 -47q64 -55 64 -215v-465h-324v-387q0 -70 39 -70t39 70v252h246zM297 825h78v285
q0 64 -37 64q-41 0 -41 -64v-285z" />
    <glyph glyph-name="edieresis" unicode="&#xeb;" horiz-adv-x="671" 
d="M561 1645v-197h-201v197h201zM289 1645v-197h-201v197h201zM621 502v-250q0 -163 -64 -215q-54 -45 -225 -45q-163 0 -221 49q-58 52 -58 211v850q0 164 58 213t225 49q162 0 221 -47q64 -55 64 -215v-465h-324v-387q0 -70 39 -70t39 70v252h246zM297 825h78v285
q0 64 -37 64q-41 0 -41 -64v-285z" />
    <glyph glyph-name="igrave" unicode="&#xec;" horiz-adv-x="378" 
d="M258 1688l80 -218h-180l-125 218h225zM311 1356v-1356h-243v1356h243z" />
    <glyph glyph-name="iacute" unicode="&#xed;" horiz-adv-x="378" 
d="M184 1675h226l-125 -217h-183zM311 1356v-1356h-243v1356h243z" />
    <glyph glyph-name="icircumflex" unicode="&#xee;" horiz-adv-x="378" 
d="M285 1675l118 -217h-184l-59 94l-60 -94h-184l119 217h250zM311 1356v-1356h-243v1356h243z" />
    <glyph glyph-name="idieresis" unicode="&#xef;" horiz-adv-x="378" 
d="M422 1669v-196h-201v196h201zM150 1669v-196h-201v196h201zM311 1356v-1356h-243v1356h243z" />
    <glyph glyph-name="eth" unicode="&#xf0;" horiz-adv-x="671" 
d="M621 971v-727q0 -158 -66 -209q-55 -43 -223 -43q-164 0 -215 45q-64 52 -64 207v768q0 120 33 176q44 74 154 74q55 0 98 -19q-45 106 -76 156l-127 -35l-57 117l117 30l-89 156h246l49 -94l127 35l58 -119l-121 -33q156 -292 156 -485zM375 240v778q0 61 -37 61
q-41 0 -41 -61v-778q0 -62 41 -62q37 0 37 62z" />
    <glyph glyph-name="ntilde" unicode="&#xf1;" horiz-adv-x="700" 
d="M711 1745v-59q0 -75 -29 -105.5t-104 -30.5q-24 0 -97 17q-69 16 -98 16q-57 0 -57 -49h-133v61q0 134 100 134q33 0 125 -15q91 -15 100 -18h8q52 0 52 49h133zM633 1047v-1047h-244v1096q0 65 -39 65t-39 -65v-1096h-243v1354h243v-56q72 66 140 66q119 0 159 -107
q23 -64 23 -210z" />
    <glyph glyph-name="ograve" unicode="&#xf2;" horiz-adv-x="671" 
d="M446 1688l80 -218h-180l-125 218h225zM621 1102v-850q0 -163 -64 -215q-54 -45 -225 -45q-163 0 -221 49q-58 52 -58 211v850q0 164 58 213t225 49q162 0 221 -47q64 -55 64 -215zM375 246v864q0 64 -37 64q-41 0 -41 -64v-864q0 -66 41 -66q37 0 37 66z" />
    <glyph glyph-name="oacute" unicode="&#xf3;" horiz-adv-x="671" 
d="M250 1700h225l-125 -217h-182zM621 1102v-850q0 -163 -64 -215q-54 -45 -225 -45q-163 0 -221 49q-58 52 -58 211v850q0 164 58 213t225 49q162 0 221 -47q64 -55 64 -215zM375 246v864q0 64 -37 64q-41 0 -41 -64v-864q0 -66 41 -66q37 0 37 66z" />
    <glyph glyph-name="ocircumflex" unicode="&#xf4;" horiz-adv-x="671" 
d="M473 1700l119 -217h-184l-60 94l-59 -94h-185l119 217h250zM621 1102v-850q0 -163 -64 -215q-54 -45 -225 -45q-163 0 -221 49q-58 52 -58 211v850q0 164 58 213t225 49q162 0 221 -47q64 -55 64 -215zM375 246v864q0 64 -37 64q-41 0 -41 -64v-864q0 -66 41 -66
q37 0 37 66z" />
    <glyph glyph-name="otilde" unicode="&#xf5;" horiz-adv-x="671" 
d="M500 1671h133v-63q0 -72 -30.5 -101.5t-102.5 -29.5q-28 0 -97 16t-98 16q-57 0 -57 -49h-133v66q0 129 98 129q32 0 119 -17q85 -16 117 -16q51 0 51 49zM621 1102v-850q0 -163 -64 -215q-54 -45 -225 -45q-163 0 -221 49q-58 52 -58 211v850q0 164 58 213t225 49
q162 0 221 -47q64 -55 64 -215zM375 246v864q0 64 -37 64q-41 0 -41 -64v-864q0 -66 41 -66q37 0 37 66z" />
    <glyph glyph-name="odieresis" unicode="&#xf6;" horiz-adv-x="671" 
d="M586 1657v-197h-201v197h201zM313 1657v-197h-200v197h200zM621 1102v-850q0 -163 -64 -215q-54 -45 -225 -45q-163 0 -221 49q-58 52 -58 211v850q0 164 58 213t225 49q162 0 221 -47q64 -55 64 -215zM375 246v864q0 64 -37 64q-41 0 -41 -64v-864q0 -66 41 -66
q37 0 37 66z" />
    <glyph glyph-name="divide" unicode="&#xf7;" horiz-adv-x="1705" 
d="M991 989q0 -57 -40 -96t-97 -39t-97 39t-40 96t40 98t97 41t97 -41t40 -98zM1452 694v-166h-1198v166h1198zM991 229q0 -57 -40 -96t-97 -39t-97 39t-40 96t40 97.5t97 40.5q60 0 98.5 -39t38.5 -99z" />
    <glyph glyph-name="oslash" unicode="&#xf8;" horiz-adv-x="671" 
d="M524 1458l99 -31l-41 -137q39 -29 39 -176v-870q0 -136 -53 -193t-185 -57q-149 0 -201 14l-35 -110l-98 30l41 138q-37 46 -37 163v873q0 171 76 223q56 39 240 39q74 0 123 -14zM375 246v864q0 64 -37 64q-41 0 -41 -64v-864q0 -66 41 -66q37 0 37 66z" />
    <glyph glyph-name="ugrave" unicode="&#xf9;" horiz-adv-x="700" 
d="M451 1712l79 -217h-180l-125 217h226zM633 1356v-1356h-244v57q-57 -63 -139 -63q-120 0 -160 106q-22 61 -22 211v1045h243v-1096q0 -65 39 -65t39 65v1096h244z" />
    <glyph glyph-name="uacute" unicode="&#xfa;" horiz-adv-x="700" 
d="M328 1675h225l-125 -217h-182zM633 1356v-1356h-244v57q-57 -63 -139 -63q-120 0 -160 106q-22 61 -22 211v1045h243v-1096q0 -65 39 -65t39 65v1096h244z" />
    <glyph glyph-name="ucircumflex" unicode="&#xfb;" horiz-adv-x="700" 
d="M465 1700l119 -217h-185l-59 94l-59 -94h-185l119 217h250zM633 1356v-1356h-244v57q-57 -63 -139 -63q-120 0 -160 106q-22 61 -22 211v1045h243v-1096q0 -65 39 -65t39 65v1096h244z" />
    <glyph glyph-name="udieresis" unicode="&#xfc;" horiz-adv-x="700" 
d="M578 1632v-196h-201v196h201zM305 1632v-196h-201v196h201zM633 1356v-1356h-244v57q-57 -63 -139 -63q-120 0 -160 106q-22 61 -22 211v1045h243v-1096q0 -65 39 -65t39 65v1096h244z" />
    <glyph glyph-name="yacute" unicode="&#xfd;" horiz-adv-x="620" 
d="M285 1651h225l-125 -217h-182zM369 1356h233l-158 -1403q-15 -148 -57 -203q-52 -67 -194 -67h-222v188h138q75 0 75 55q0 21 -2 27l-162 1403h234l51 -887h14z" />
    <glyph glyph-name="thorn" unicode="&#xfe;" horiz-adv-x="686" 
d="M633 1047v-736q0 -138 -23 -209q-37 -110 -153 -110q-84 0 -146 65v-374h-243v1980h243v-365q72 66 140 66q119 0 159 -107q23 -67 23 -210zM389 258v836q0 65 -37 65q-41 0 -41 -61v-840q0 -61 39 -61t39 61z" />
    <glyph glyph-name="ydieresis" unicode="&#xff;" horiz-adv-x="620" 
d="M522 1645v-197h-200v197h200zM250 1645v-197h-201v197h201zM369 1356h233l-158 -1403q-15 -148 -57 -203q-52 -67 -194 -67h-222v188h138q75 0 75 55q0 21 -2 27l-162 1403h234l51 -887h14z" />
    <glyph glyph-name="OE" unicode="&#x152;" horiz-adv-x="952" 
d="M883 219v-219h-488q-217 0 -274 57q-58 58 -58 271v1007q0 221 58 273q58 55 278 55h484v-217h-170v-424h170v-219h-170v-584h170zM420 213h14v1235h-24q-40 0 -52 -14t-12 -56v-1095q0 -72 60 -72q8 0 14 2z" />
    <glyph glyph-name="oe" unicode="&#x153;" horiz-adv-x="993" 
d="M942 502v-250q0 -151 -53 -207q-53 -53 -203 -53q-131 0 -188 57q-63 -57 -168 -57q-161 0 -215 51q-62 53 -62 209v850q0 149 53 205q51 57 203 57q127 0 189 -59q59 59 174 59q153 0 211 -55q59 -53 59 -207v-465h-321v-387q0 -70 38 -70q37 0 37 70v252h246zM621 825
h75v308q0 16 -12 28q-3 13 -25 13q-38 0 -38 -64v-285zM375 246v864q0 64 -37 64q-41 0 -41 -64v-864q0 -66 41 -66q37 0 37 66z" />
    <glyph glyph-name="Scaron" unicode="&#x160;" horiz-adv-x="780" 
d="M397 2052h185l-119 -217h-250l-119 217h185l59 -94zM717 666v-347q0 -216 -58 -274q-57 -57 -272 -57q-207 0 -268 61q-60 63 -60 270v367h287v-405q0 -72 47 -72q41 0 41 72v352q0 44 -10.5 61.5t-52.5 42.5q-14 8 -47.5 26.5t-49.5 27.5t-44 25.5t-44 28t-35 26.5
t-31.5 29.5t-21.5 29.5q-39 62 -39 174v237q0 211 60 271q61 61 270 61t268 -59q60 -60 60 -273v-251h-283v292q0 70 -47 70q-41 0 -41 -70v-258q0 -42 12.5 -62t51.5 -44q15 -9 52.5 -29t55.5 -30.5t48.5 -29t47.5 -32t35.5 -31.5t28.5 -35q39 -59 39 -165z" />
    <glyph glyph-name="scaron" unicode="&#x161;" horiz-adv-x="669" 
d="M618 510v-211q0 -192 -47 -248q-53 -59 -241 -59q-185 0 -234 61q-45 54 -45 246v199h246v-252q0 -66 37 -66q39 0 39 66v239q0 48 -17 68q-16 22 -176 106q-80 42 -108 99q-21 46 -21 147v176q0 173 62 232q57 51 235 51q176 0 227 -66q43 -55 43 -241v-156h-245v209
q0 66 -39 66q-37 0 -37 -66v-182q0 -61 84 -121l133 -76q67 -37 88 -92q16 -43 16 -129zM393 1722h185l-119 -217h-250l-119 217h184l60 -94z" />
    <glyph glyph-name="Ydieresis" unicode="&#x178;" horiz-adv-x="679" 
d="M586 2118v-197h-201v197h201zM313 2118v-197h-200v197h200zM414 1663h268l-188 -991v-672h-295v672l-203 991h276l74 -641z" />
    <glyph glyph-name="florin" unicode="&#x192;" 
d="M688 1024v-217h-166v-744q0 -242 -100 -317q-84 -63 -336 -63v221q112 0 137 22t25 131v750h-158v217h158q0 62 -2 113t-2 114q0 200 55 291q73 129 272 129q15 0 117 -4v-219q-116 0 -141 -31t-25 -153v-240h166z" />
    <glyph glyph-name="circumflex" unicode="&#x2c6;" horiz-adv-x="1024" 
d="M637 1651l119 -217h-185l-59 94l-59 -94h-185l119 217h250z" />
    <glyph glyph-name="tilde" unicode="&#x2dc;" horiz-adv-x="1024" 
d="M772 1647v-60q0 -75 -29 -105t-104 -30q-27 0 -96 16q-73 17 -99 17q-57 0 -57 -49h-133v61q0 133 100 133q35 0 117 -16q90 -17 117 -17q51 0 51 50h133z" />
    <glyph glyph-name="endash" unicode="&#x2013;" horiz-adv-x="1024" 
d="M1024 772v-178h-1024v178h1024z" />
    <glyph glyph-name="emdash" unicode="&#x2014;" horiz-adv-x="2048" 
d="M2048 772v-178h-2048v178h2048z" />
    <glyph glyph-name="quoteleft" unicode="&#x2018;" horiz-adv-x="391" 
d="M313 1386v-292h-235v311q0 137 54 201.5t181 64.5v-135q-68 0 -88 -45q-12 -27 -12 -105h100z" />
    <glyph glyph-name="quoteright" unicode="&#x2019;" horiz-adv-x="391" 
d="M313 1663v-311q0 -133 -49 -197q-58 -70 -186 -70v138q71 9 88 47q12 24 12 102h-100v291h235z" />
    <glyph glyph-name="quotesinglbase" unicode="&#x201a;" horiz-adv-x="391" 
d="M313 293v-311q0 -133 -49 -197q-58 -70 -186 -70v135q67 0 88 46q12 27 12 104h-100v293h235z" />
    <glyph glyph-name="quotedblleft" unicode="&#x201c;" horiz-adv-x="724" 
d="M647 1386v-292h-235v311q0 137 54.5 201.5t180.5 64.5v-135q-68 0 -88 -45q-12 -27 -12 -105h100zM313 1386v-292h-235v311q0 137 54 201.5t181 64.5v-135q-68 0 -88 -45q-12 -27 -12 -105h100z" />
    <glyph glyph-name="quotedblright" unicode="&#x201d;" horiz-adv-x="724" 
d="M647 1663v-311q0 -267 -235 -267v138q71 6 88 45q12 21 12 104h-100v291h235zM313 1663v-311q0 -133 -49 -197q-58 -70 -186 -70v138q71 9 88 47q12 24 12 102h-100v291h235z" />
    <glyph glyph-name="quotedblbase" unicode="&#x201e;" horiz-adv-x="724" 
d="M647 293v-313q0 -265 -235 -265v135q67 0 88 46q12 27 12 104h-100v293h235zM313 293v-313q0 -136 -49 -197q-56 -68 -186 -68v135q67 0 88 46q12 27 12 104h-100v293h235z" />
    <glyph glyph-name="dagger" unicode="&#x2020;" horiz-adv-x="737" 
d="M709 1245v-219h-211v-1216h-260v1216h-207v219h207v418h260v-418h211z" />
    <glyph glyph-name="daggerdbl" unicode="&#x2021;" horiz-adv-x="737" 
d="M709 438v-219h-211v-409h-260v409h-209v219h209v596h-209v219h209v410h260v-410h211v-219h-211v-596h211z" />
    <glyph glyph-name="bullet" unicode="&#x2022;" horiz-adv-x="1208" 
d="M899 762q0 -125 -86 -211t-211 -86q-123 0 -209 86q-86 89 -86 211q0 123 86 209q89 86 211 86q126 0 209 -86q86 -83 86 -209z" />
    <glyph glyph-name="ellipsis" unicode="&#x2026;" horiz-adv-x="2048" 
d="M1720 293v-293h-235v293h235zM1171 293v-293h-235v293h235zM610 293v-293h-235v293h235z" />
    <glyph glyph-name="perthousand" unicode="&#x2030;" horiz-adv-x="1949" 
d="M1884 659v-428q0 -153 -43 -196t-196 -43q-154 0 -197 43t-43 196v428q0 155 43 195q43 43 197 43q153 0 196 -43q43 -40 43 -195zM549 1434v-428q0 -154 -43 -197t-197 -43q-153 0 -196 43t-43 197v428q0 149 43 192q45 45 196 45q154 0 197 -43q43 -40 43 -194z
M872 1671h164l-528 -1679h-164zM1311 659v-428q0 -153 -43 -196t-197 -43t-197 43q-43 46 -43 196v428q0 156 41 197t199 41q154 0 197 -43q43 -40 43 -195zM1686 207v473q0 47 -44 47q-38 0 -38 -49v-471q0 -45 41 -45t41 45zM350 983v471q0 45 -43 45q-39 0 -39 -43v-477
q0 -43 41 -43t41 47zM1112 205v477q0 45 -43 45q-39 0 -39 -49v-469q0 -47 43 -47q39 0 39 43z" />
    <glyph glyph-name="guilsinglleft" unicode="&#x2039;" horiz-adv-x="366" 
d="M262 487l60 -383h-179l-59 383l-21 97q-10 58 -10 96t10 96l21 94l59 381h179l-60 -381l-20 -94q-11 -64 -11 -96t11 -96z" />
    <glyph glyph-name="guilsinglright" unicode="&#x203a;" horiz-adv-x="366" 
d="M313 682q0 -38 -10 -96l-20 -97l-60 -385h-178l59 385l21 97q10 58 10 96t-10 96l-21 94l-59 379h178l60 -379l20 -94q10 -58 10 -96z" />
    <glyph glyph-name="trademark" unicode="&#x2122;" horiz-adv-x="1705" 
d="M1423 1460v-542h-114v428l-160 -428h-59l-166 428v-428h-115v542h170l141 -360l133 360h170zM692 1460v-94h-168v-448h-129v448h-170v94h467z" />
    <glyph glyph-name="NULL" horiz-adv-x="0" 
 />
    <glyph glyph-name="CR" horiz-adv-x="391" 
 />
    <glyph glyph-name="HT" horiz-adv-x="391" 
 />
    <glyph glyph-name="dotoperator" horiz-adv-x="391" 
d="M338 829q0 -55 -44 -97t-101 -42t-98.5 42t-41.5 102q0 57 43.5 99t100.5 42q60 0 100.5 -43t40.5 -103z" />
  </font>
</defs>
</svg>
