<?xml version="1.0" standalone="no"?>
<!DOCTYPE svg PUBLIC "-//W3C//DTD SVG 1.1//EN" "http://www.w3.org/Graphics/SVG/1.1/DTD/svg11.dtd" >
<svg xmlns="http://www.w3.org/2000/svg" xmlns:xlink="http://www.w3.org/1999/xlink" version="1.1">
<metadata>
Created by FontForge 20170731 at Sat Oct 10 10:38:36 2020
 By Aleksey,,,
Santet (c) dumadistyle2020. All Rights Reserved
</metadata>
<defs>
<font id="Santet" horiz-adv-x="1175" >
  <font-face 
    font-family="Santet"
    font-weight="400"
    font-stretch="normal"
    units-per-em="2048"
    panose-1="2 0 5 0 0 0 0 0 0 0"
    ascent="1638"
    descent="-410"
    x-height="1499"
    cap-height="1502"
    bbox="-230 -845 2157 1824"
    underline-thickness="150"
    underline-position="-442"
    unicode-range="U+001D-E051"
  />
<missing-glyph horiz-adv-x="904" 
d="M0 0v1434h824v-1434h-824zM50 50q177 80 358 80t366 -80v1334q-192 -59 -373 -59t-351 59v-1334zM319 334l57 58q11 10 20 10q10 0 22 -11l56 -60q9 -11 9 -20q0 -11 -10 -22l-56 -62q-14 -14 -21 -14q-11 0 -20 10l-61 71q-7 9 -7 18q0 10 11 22zM313 1191q53 30 112 30
q92 0 148 -47.5t56 -127.5q0 -49 -23 -98.5t-87 -129.5q-63 -80 -99 -132t-36 -99q0 -38 24 -133h-32q-35 97 -35 148q0 76 81.5 218t81.5 217q0 57 -33 90t-91 33q-8 0 -16 -1l32 -51q5 -9 5 -17v-4q-2 -11 -14 -20l-66 -50q-16 -10 -23 -10h-1q-10 2 -17 14l-47 81
q-4 7 -4 14q0 2 1 5q1 10 28.5 32.5t54.5 37.5z" />
    <glyph glyph-name=".notdef" horiz-adv-x="904" 
d="M0 0v1434h824v-1434h-824zM50 50q177 80 358 80t366 -80v1334q-192 -59 -373 -59t-351 59v-1334zM319 334l57 58q11 10 20 10q10 0 22 -11l56 -60q9 -11 9 -20q0 -11 -10 -22l-56 -62q-14 -14 -21 -14q-11 0 -20 10l-61 71q-7 9 -7 18q0 10 11 22zM313 1191q53 30 112 30
q92 0 148 -47.5t56 -127.5q0 -49 -23 -98.5t-87 -129.5q-63 -80 -99 -132t-36 -99q0 -38 24 -133h-32q-35 97 -35 148q0 76 81.5 218t81.5 217q0 57 -33 90t-91 33q-8 0 -16 -1l32 -51q5 -9 5 -17v-4q-2 -11 -14 -20l-66 -50q-16 -10 -23 -10h-1q-10 2 -17 14l-47 81
q-4 7 -4 14q0 2 1 5q1 10 28.5 32.5t54.5 37.5z" />
    <glyph glyph-name="uni0000" horiz-adv-x="0" 
 />
    <glyph glyph-name="uni0000" horiz-adv-x="0" 
 />
    <glyph glyph-name="nonmarkingreturn" horiz-adv-x="682" 
 />
    <glyph glyph-name="space" unicode=" " horiz-adv-x="695" 
 />
    <glyph glyph-name="space" unicode="&#xa0;" horiz-adv-x="695" 
 />
    <glyph glyph-name="exclam" unicode="!" horiz-adv-x="343" 
d="M67 375q-1 9 -3 17q-3 10 -4 23q-1 21 -5 41q-1 6 -3 12q-8 32 -9 66v43q1 12 1 25q0 50 -13 104q-3 8 -3.5 14t-0.5 12q0 7 -1 16t-5 17q-4 9 -5 18v29q0 8 -1 17q-1 4 -1 6q-1 3 -1 6v9v17q1 17 1 38v37t-1 19q0 2 -1 2l-1 1v2q0 1 1 3l2 2v1.5t0.5 1.5t0.5 3q0 9 3 32
q2 19 3 37q1 12 1 18v4q-5 16 -5 33q0 14 4 28v1q7 16 7 34v4q0 4 -1 11q-1 11 -3 25.5t-3.5 27t-3.5 16.5q-7 17 -9.5 26.5t-3.5 20t-1 27.5v3q0 3 -1 6q0 17 0.5 39.5t7.5 32.5q3 3 3 6.5v7.5v6q0 6 -0.5 8t-2.5 5q-1 1 -2 4q-4 8 -6 18q-2 6 -2 12q0 4 1 8q1 5 4 7.5
t7 4.5q1 0 1 0.5t1 0.5h1l1 1h1l57 -5q16 -1 47 -3q25 -2 48 -4t33 -3q4 -1 9 -3.5t9 -5.5q3 -2 5 -2q0 -1 1 -1h3v1h2q0 -3 0.5 -4.5t1 -2.5t0.5 -2q1 0 1.5 -1.5t0.5 -3.5q1 -6 0.5 -15t-0.5 -19q-1 -11 -1 -18v-151q-2 -46 -2 -98t3 -79q10 -74 10 -170
q0 -34 -3.5 -122.5t-18.5 -166.5q-13 -58 -18.5 -93t-7.5 -66.5t-2 -81.5q-1 -4 -1 -8q-3 0 -21 1t-41.5 3.5t-42 4t-22.5 2.5zM155 225q3 1 5 1q3 0 5.5 -1t4 -4l2.5 -5t1 -3q1 -1 5 -2.5t8 -3.5q6 -2 8 -3q21 -12 36 -26l3 -3q14 -11 22 -33q8 -20 8 -43v-10
q-2 -14 -5 -21t-6 -10.5t-6 -5.5q-2 -1 -4 -4q-6 -11 -11.5 -19t-13.5 -16q-28 -30 -83 -40q-6 -1 -13 -1q-45 0 -73 33q-21 25 -21 63q0 17 4 36q1 4 2 7q7 31 17.5 49t40.5 37q3 1 5 3q9 6 17.5 9.5t21.5 5.5q4 1 6.5 2t4.5 3q3 2 9 5z" />
    <glyph glyph-name="quotedbl" unicode="&#x22;" horiz-adv-x="562" 
d="M35 1617q10 24 33 24q1 0 15 -1t39.5 -15t37.5 -26q5 -6 9 -9q3 -3 6 -5.5t6 -6.5q22 -27 27.5 -42.5t5.5 -26.5q0 -9 5 -19q10 -25 10 -50q0 -27 -11 -54q-2 -3 -2 -5v-3t1 -3t2 -5q1 -6 1 -12q0 -14 -7.5 -34.5t-15.5 -33.5q-3 -7 -5.5 -10t-6.5 -5t-12 -4
q-13 -4 -23 -8q-11 -4 -23 -8q-5 -2 -10 -6t-10 -9q-8 -8 -14 -13q1 5 3 8q1 3 2 8q1 9 5 17q3 5 9 17t12.5 23.5t9.5 16.5q18 27 18 56v17.5t-17 24.5q-2 1 -4.5 0.5t-4.5 -1.5q-3 -1 -9 -1h-2q-5 0 -15 3q-5 1 -9 2q-7 2 -12 4.5t-8 8.5l-3 4.5t-2.5 2t-3.5 0.5q-2 1 -5 2
t-5 1h-3.5t-3.5 -1t-5 -2q-6 -1 -12 -1q-3 0 -9.5 0.5t-10.5 7.5l-2 6q-3 8 -5 15q-1 4 -1 7t1 6l2 62zM288 1635q10 24 33 24q2 0 15.5 -1t39 -15t37.5 -26q6 -6 10 -9q2 -3 5 -5.5t6 -6.5q22 -27 27.5 -42.5t5.5 -26.5q1 -9 5 -19q10 -25 10 -50q0 -27 -11 -54
q-2 -3 -2 -5t0.5 -3t0.5 -3q1 -2 3 -5q1 -4 1 -9q0 -15 -8 -36.5t-15 -34.5q-4 -7 -6.5 -10t-6 -5t-11.5 -4q-13 -4 -24 -8t-23 -8q-5 -2 -10 -6t-10 -9q-8 -8 -14 -13q1 5 3 8t2 8q2 9 5 17q3 5 9 17t12.5 23.5t9.5 16.5q18 27 18 56v17.5t-16 24.5q-3 1 -5 0.5t-4 -1.5
q-3 -1 -9 -1h-3q-5 0 -15 3q-5 1 -8 2q-7 1 -12.5 3.5t-8.5 9.5l-3 4.5t-2 2t-4 0.5q-2 1 -5 2t-5 1h-3.5t-3.5 -1q-1 -1 -4 -2q-7 -1 -13 -1q-3 0 -9.5 0.5t-10.5 7.5l-2 6q-3 7 -5 14q-1 4 -1 8q0 3 1 6l2 62z" />
    <glyph glyph-name="numbersign" unicode="#" horiz-adv-x="969" 
d="M282 1044q1 0 1 1l1 2q1 1 1 2v2q7 21 14 39q2 5 3 9q3 8 6.5 13.5t7.5 10.5q8 9 16 22t12 25q4 13 13 29.5t22 18.5q2 -1 8 -5.5t12.5 -10.5t11.5 -10l3 -3q5 -5 10 -8l9 -9q14 -12 23 -20q15 -11 17 -18q1 -1 1 -3q0 -6 -12 -18q-9 -9 -17 -20q-16 -22 -17 -56
q12 -4 25 -4q6 0 11 1h32h50h50t25 1q2 1 4 4.5t3 6.5t2 5q3 6 5 8.5t4 3.5q1 1 2 2.5t3 5t5 11.5q5 13 6.5 20.5t2.5 13.5q0 5 1.5 10.5t3.5 14.5q4 10 8.5 17t13.5 10l84 -49q5 -3 9 -5q10 -4 13 -10q1 -2 1 -4q0 -6 -5 -17q-4 -7 -8 -15q-9 -14 -14 -30h7q13 0 23 -2
q3 0 5 -1q1 0 2 -0.5t2.5 -0.5h4.5h20q17 1 32 1t28 -1l-2 -119q-7 -1 -14 -1h-8q-5 1 -10 1t-10 -1q-32 -3 -60 -3h-14q-11 1 -23 1q-11 0 -24 -1l-4 -8q-3 -3 -5 -7l-15 -32q-7 -17 -17 -45q-8 -23 -16 -42.5t-14 -27.5q-3 -4 -5.5 -11t-5.5 -14q-1 -5 -3 -8q0 -2 -2 -6
q-4 -9 -9 -22t-9 -24t-5 -15h35l16 1l15 -1q5 0 8 -0.5t5 -1.5q2 0 6 -1t21 -1h36q11 1 18 1q8 0 12 -1l-2 -119h-28q-6 0 -10 -0.5t-8 -0.5q-3 -1 -7 -1q-22 -2 -46 -2h-8q-6 0 -17 1h-35.5t-35 -0.5t-20.5 -2.5q-1 -1 -5.5 -13.5t-11.5 -32.5q-15 -40 -31 -82t-22 -55
q-2 -4 -4 -6q-1 -2 -2.5 -4t-2.5 -6l-21 -55q-2 -6 -5 -13q-5 -12 -8 -24q-4 1 -13 4.5t-19 7.5t-18 7l-6 3l-10 4q-24 10 -45 18q0 5 2.5 11t5.5 13q2 4 3 8q4 11 7 21q1 5 3 11q9 29 29 81q14 35 24.5 64.5t12.5 41.5l-192 -1q-4 -11 -7 -21t-7 -20q-2 -7 -3.5 -10.5
t-3 -5t-2.5 -3.5t-4 -7q-2 -2 -5.5 -12.5t-7.5 -23.5q-6 -18 -12 -34t-8 -19l-111 41l6 18q6 17 11 37q3 13 8 26q6 15 9 27q-5 2 -9 3q-5 3 -12 3q-14 0 -22.5 -1.5t-15.5 -3.5q-6 -2 -13 -3h-18q-5 1 -9 3.5t-4 7.5v2q0 3 0.5 8.5t1.5 9.5v5l4 30q1 7 2 15l2 16q1 17 4 31
q1 7 9 8h4q7 0 16 -2q11 -2 24 -2q16 0 35 3q5 1 9 2q6 2 12 3q7 1 13 2h10q2 4 4.5 12t4.5 15q1 4 2 6q6 20 10.5 29.5t7.5 13t5 4.5t3.5 3t2.5 6l56 159h-31q-8 1 -14 4q-4 2 -9 3q-19 0 -38 -5q-13 -3 -24 -4h-4q-8 0 -14 3q-4 3 -5 5v5q0 2 0.5 5t0.5 6v2q2 16 4 31
q1 12 3 23q1 14 2 25q2 23 6 29q3 3 10 3q6 0 15 -2q19 -3 32 -3q3 0 12 1t27 5q4 1 9 2q13 3 28 3q8 0 16 -1h14zM281 649h13q5 1 11 1q13 0 25 -4q3 0 24.5 -0.5t49.5 -0.5h50.5h28.5l97 260q-2 1 -4 1q-3 1 -6 3l-3 3q-1 0 -2.5 0.5t-3.5 0.5l-78 -1h-15h-34h-34.5
t-20.5 -1q-5 -12 -9 -26q-7 -21 -15 -40q-2 -5 -3.5 -7t-2.5 -3l-1.5 -1.5t-1.5 -2.5q-2 -4 -4 -11q-1 -3 -2 -5l-48 -132q0 -3 -2 -6q-3 -7 -5.5 -15t-3.5 -13z" />
    <glyph glyph-name="dollar" unicode="$" horiz-adv-x="900" 
d="M375 1631v6q7 -1 29 -7t46 -13q28 -8 39 -11q3 -1 5 -1.5t2.5 -2t1.5 -3.5q1 -1 1 -2q2 -6 2 -17v-14.5t-2 -31.5q-2 -25 -2 -44v-12l43 -10q15 -2 32.5 -9t30.5 -13q4 -3 10 -5q12 -6 24.5 -13t19.5 -15q2 -2 9 -6.5t14 -8l9 -4.5q3 8 7 16q4 9 7 18t4 20q1 10 4 19
l36 -1l1 -5l-1 -4q0 -5 2 -13q2 -5 3 -10l2 -8q3 -7 3.5 -11.5t0.5 -8v-8.5v-16q0 -18 -1 -35v-81q1 -12 1 -24q0 -5 1 -10q0 -5 1 -11q0 -11 3 -22q2 -11 2.5 -21t-4.5 -19l-2 -4l-4 -6t-2 -5q-1 -4 -1 -6v-3v-1.5t-0.5 -1l-2 -2l-3.5 -3.5h-18q-9 0 -17 2q-3 4 -8.5 20.5
t-10.5 33.5t-7 25q-5 17 -12.5 29t-17.5 24q-5 5 -9 12q-4 4 -7 8q-3 5 -5.5 7.5t-6 4l-10.5 4.5q-7 2 -15 6.5t-15 8.5q-2 1 -4 3q-4 2 -7 3q-15 9 -23.5 13.5t-18 6.5t-28.5 5q0 -18 1 -37q1 -15 1 -29q0 -36 -4 -71q-2 -20 -2 -41q0 -12 -1 -24q-2 -40 -2 -84
q0 -29 1 -60v-63q0 -17 -2 -33t-2 -32v-37q0 -17 1 -32q13 -7 26 -15l2 -2q97 -59 171 -142q21 -23 40 -50q4 -6 8 -13t9 -14q4 -4 7 -8q6 -7 12 -17q15 -25 29.5 -61.5t17.5 -70.5q1 -15 1 -30q0 -193 -156 -306q-1 -1 -4 -2.5l-7 -3.5q-6 -4 -11 -7t-6 -4q-1 -2 -1 -3
q-1 0 -1 -0.5t-1 -1l-3 -1.5q-1 0 -4 -1q-3 0 -8 -1t-14 -5q-5 -1 -9 -2q-6 -2 -11 -4.5t-11 -6.5q-6 -5 -15 -7.5t-18 -4.5q-6 -1 -10 -1h-10q-6 0 -12 -1h-10l1 -158h-30q-13 0 -32.5 0.5t-35.5 1t-19 1.5q-1 2 -1 19t-1 42q0 32 -0.5 59.5t-2.5 31.5v1h-1v1h-3
q-5 1 -14 2q-11 1 -22 3q-20 4 -39 8q-11 3 -17 4q-4 0 -8.5 1t-12.5 4q-10 3 -22 4q-10 0 -18 3v10q-8 3 -16 8q-4 2 -7 4q-3 1 -5 2q-16 6 -26 18q-2 2 -9 6.5t-14 8.5t-10 4q-10 -22 -13 -32t-4 -17q0 -8 -5 -24l-36 2v4l1 5q0 2 -0.5 5t-2.5 9q-7 18 -8 29v67q1 20 1 39
t-1 37q-1 12 -1 25q0 8 -1 13q0 5 -1 11q0 10 -0.5 14.5t-1.5 7.5t-2 8t-1 17q1 7 2.5 11.5t4.5 8.5q2 3 4 7t2 11q1 3 2 5t3 4h1q1 0 1 0.5t0.5 0.5h1.5h2q1 0 4 -1h20q4 0 6 -1.5t4 -9.5l12 -33q5 -17 8 -28q3 -14 8 -25t18 -29l26 -32q4 -5 6.5 -6.5t7.5 -3.5q2 0 5 -2
q6 -2 15.5 -7t19.5 -11q13 -7 22 -12q11 -6 16 -8l7.5 -3t5.5 -1q4 0 16 -2q5 -1 11.5 -2.5t11.5 -3.5q7 -2 10.5 -4t5.5 -9l29 -4q1 26 1 57t-1 84t-5 105q-2 34 -2 91v35q0 33 1 57q1 6 1.5 10t1.5 6t2 3t1.5 3t0.5 5v9.5v17.5q-7 4 -16.5 9t-17.5 8q-104 46 -182 124
q-53 54 -96.5 131.5t-58.5 169.5q-6 35 -6 69q0 57 17 111q26 82 72 132q48 55 117 85q8 4 23 9.5t30 10.5t23 6q8 2 14 2q4 0 10 1q19 2 39 3q18 1 30 2q0 5 -1 12.5t-2 14.5q-1 4 -1 8q-3 18 -4 36v13v20t1 25q1 1 1 2q0 3 1 6q1 2 1 2.5t0.5 1t1.5 0.5q1 1 2 1zM501 160
q5 1 14.5 7.5t19 13.5t13.5 9q75 68 75 137q0 19 -5 37q-25 89 -111 160l-3 3q-4 3 -7 6q-1 -12 -1 -26q0 -18 2 -39q1 -14 1 -25q2 -62 2 -128v-155zM376 867q1 21 1 42t-1 43v225q-1 19 -3 40l-2 18q-3 46 -3 94v28q-19 -2 -43 -10.5t-40 -16.5q-41 -19 -64 -46
q-44 -53 -44 -119q0 -24 6 -50q4 -12 13 -35.5t19.5 -46t18.5 -32.5q13 -16 27 -29q9 -11 17 -21q12 -16 34 -38q2 -1 11 -8t20.5 -15.5t21 -15t11.5 -7.5z" />
    <glyph glyph-name="percent" unicode="%" horiz-adv-x="1051" 
d="M168 875q-23 7 -45.5 22.5t-36.5 27.5q-2 2 -5 4q-8 7 -16 14.5t-13 14.5q-7 9 -17.5 26.5t-17.5 35.5q-5 13 -5 22q0 4 1 7v2q1 2 1 2.5v1.5t-1 3q0 1 -1 3l-8 40q-4 28 -4 55q0 87 41 163q4 6 12 17.5t16.5 23t13.5 18.5q17 21 48 38q29 16 54 16h6h4.5t2 0.5l1.5 1.5
q0 1 1.5 1.5t5 1t10.5 -0.5h3q5 -1 7.5 -1h4t4.5 1q2 1 7 3q13 5 29 6q17 0 18 -15q14 0 25.5 -1t23.5 -7q40 -15 64 -48q4 -6 8 -11q7 -9 15 -22q14 -24 29 -60q14 -33 14 -62v-4q0 -3 0.5 -8t1.5 -10q0 -5 1 -8q1 -13 1 -26q0 -51 -13 -99q-4 -18 -8 -27.5t-7 -16.5
q-4 -7 -8 -18q-1 -4 -2 -7t-2 -6.5t-3 -6.5q-32 -56 -82 -87q-13 -7 -24 -13q-8 -3 -12 -6l-1 -11h-37q-7 0 -13 -1q-10 -1 -21 -1q-18 0 -41 -2q-10 -1 -18 -1h-11zM239 1346q-3 -1 -5 -1q-11 -5 -24 -7q-3 -1 -4.5 -2t-3.5 -2q0 -2 -2 -4q-3 -3 -7 -5q-2 -2 -4 -3
q-3 -3 -6 -5l-4 -4q-2 -1 -4 -3q-5 -2 -11.5 -8t-12.5 -18q-13 -27 -19 -62q-2 -7 -3 -11t-2 -7q-2 -3 -3 -8.5t-1.5 -16t-0.5 -30.5q0 -39 8 -75q2 -9 6.5 -23.5t8.5 -22.5q1 -3 4 -6l4 -6q11 -19 24 -35.5t31 -23.5q3 -1 8 -3q6 -3 11.5 -5t6.5 -2h3q6 0 14 3
q10 4 19.5 9.5t13.5 9.5q10 9 14 16t8 16q2 8 7 18q2 7 6 17q4 12 9 23.5t9 15.5q3 2 4.5 4t2 5.5l1.5 10.5q1 4 1 11q4 27 4 55q0 20 -2 40q-5 49 -22 85q-5 12 -8.5 17.5t-7 8.5t-9.5 6q-5 3 -12 8q-4 2 -11 5l-8 4t-5 3l-2 2q-1 2 -4 4.5t-7.5 3t-12.5 -1.5zM115 32
l39 91q5 12 9 25l8 22q30 71 60 141l38 88q9 22 18 47q3 8 5 17q5 16 11 32l38 92q4 9 11 22.5t12 19.5q2 1 2.5 1.5l1.5 1.5q1 0 1.5 0.5t1 1.5t1.5 4l14 34q18 41 35 83l4 8q27 67 55 135q11 25 21 49q6 15 14 34q16 38 33.5 80.5t26.5 72.5t25 70.5t29 70.5q9 17 16 27
q6 7 9 14q1 4 3 9q9 18 15 38q5 26 14 51q8 24 19 46q5 10 11 20q2 3 3 4t2 2.5t3 2.5q2 2 2.5 3t0.5 2q1 1 1.5 2t1.5 2q4 -3 8 -7t8 -9l8 -8l45 -46q3 -3 5 -6q9 -10 18 -17l1 -6q0 -9 -5 -22t-10 -22q-4 -8 -9 -17l-12 -24q-20 -43 -34 -93q-6 -25 -13 -43t-15 -39
q-3 -5 -5 -12q-10 -23 -20 -44l-12 -20l-30 -65q-11 -27 -23 -54q-16 -39 -32 -80q-6 -13 -9 -19t-6 -11q-3 -4 -7 -12q-3 -6 -6 -14q-2 -5 -3 -8l-2 -4l-8 -18q-13 -33 -45 -108q-27 -63 -49.5 -117.5t-26.5 -65.5q-3 -13 -19 -52t-36 -85t-34 -80q-9 -20 -13 -29
q-1 -3 -2 -5q-8 -21 -17 -40q-7 -15 -14 -26q-5 -9 -8 -15q-7 -15 -13 -30q-13 -29 -25 -58l-39 -88q-5 1 -11 4t-11 6q-3 2 -5 3q-9 4 -25 12q-18 8 -34 16t-20 12zM667 57q-23 7 -45 22t-36 28q-3 3 -7 6q-8 6 -15.5 13t-11.5 13q-8 10 -18 27t-17 35q-5 13 -5 23q0 4 1 7
v2q1 1 1 2v2t-1 3q0 1 -1 3l-8 40q-4 28 -4 55q0 87 41 163q4 6 12 17.5l16 23t13 17.5q18 21 49 39q28 16 54 16h9h2t1.5 0.5t1.5 0.5q0 1 1.5 2t4.5 1q2 1 5 1t6 -1q1 0 2 -1h11h2t3 1q3 1 8 3q13 5 28 5h2q16 0 16 -14q15 0 26 -1.5t24 -6.5q39 -15 63 -49q5 -5 8 -10
q8 -9 15 -22q15 -24 30 -60q14 -34 14 -62v-4q0 -3 0.5 -8.5t0.5 -10.5q1 -4 1 -7q1 -15 1 -31q0 -49 -12 -95q-5 -18 -8.5 -27t-6.5 -16q-4 -7 -8 -19q-2 -4 -3 -7q0 -3 -1.5 -6l-3.5 -7q-31 -55 -81 -86q-13 -8 -24 -13q-8 -3 -13 -6q-1 -6 -22 -10.5t-49 -5.5
q-11 -1 -21 -1q-14 0 -31.5 3t-19.5 13zM738 528l-4 -2q-11 -4 -24 -6q-4 -1 -5.5 -2t-2.5 -3q-1 -1 -2 -3q-3 -3 -7 -5q-2 -2 -4 -3q-3 -2 -5 -4l-5 -5q-2 -1 -5 -3q-4 -2 -10.5 -8t-12.5 -19q-14 -27 -20 -61q-1 -7 -2 -11t-2 -7q-2 -4 -3 -9t-1.5 -15.5t-0.5 -31.5
q0 -38 8 -74q2 -9 6.5 -24t7.5 -22q2 -3 5 -7q2 -3 4 -5v-1q11 -18 24 -34.5t31 -24.5h1q3 -1 8.5 -3.5t10.5 -4t6 -2.5h2q7 0 15 4q10 4 19 9.5t14 9.5q10 9 14 16t7 16q3 7 7 18q3 6 7 16q4 13 9 24.5t9 14.5q3 2 4 4.5t2 6t2 10.5q0 4 1 10q4 25 4 51q0 22 -3 45
q-5 49 -21 85q-5 12 -8.5 17.5t-7 8.5t-9.5 6q-5 3 -12 7q-4 3 -11 6q-5 2 -8.5 4t-4.5 3l-2 2q-1 2 -4 4t-6.5 2.5t-5.5 0.5q-4 0 -9 -1z" />
    <glyph glyph-name="ampersand" unicode="&#x26;" horiz-adv-x="1056" 
d="M245 838q-4 4 -13 10q-21 12 -64 60q-10 13 -20 28q-9 15 -12 22t-5 13q-1 6 -5 16q-26 63 -33 134q-2 22 -2 44q0 48 12 93q34 120 128 191q3 2 7 5l8 4q2 2 2.5 3t0.5 3q0 1 1 2l2.5 2.5t5.5 1.5q6 1 10 2q7 1 12.5 2.5t15.5 5.5q8 4 11 8q4 4 12 8t27 8q4 1 16 1
q8 0 16.5 0.5t14.5 1.5h4q11 2 26 4q11 1 19 1h7q2 0 3.5 -0.5t1.5 -1.5q1 0 2 -0.5t3 -0.5q2 -1 5.5 -1h7.5h10q23 -1 45 -5q8 -1 19.5 -4t21.5 -5q14 -4 18 -5h4q4 -1 7 -1.5t9 -2.5q11 -4 30.5 -13t38 -20t25.5 -20q2 -2 8 -6t12 -7.5t9 -5.5q17 35 18 55q2 12 6 21
l35 -1q1 -21 7 -35q4 -12 5 -25v-10q-1 -6 -1 -13v-102q0 -18 1 -44t4 -39q4 -13 4 -22q0 -4 -2 -11t-7 -15q-3 -5 -5 -10v-5q0 -3 -1 -6q-1 0 -2 -1.5t-2 -2.5t-2 -1l-35 1q-6 12 -11.5 30t-9.5 33q-1 2 -1 3q-2 6 -3 11q-4 15 -8.5 24t-16.5 25l-6 8q-15 24 -38 35
q-12 5 -28 16q-9 5 -17 9.5t-12 5.5q-10 0 -19 -1q-11 0 -23 1q-20 3 -41 3q-27 0 -51 -3q-15 -2 -32 -2q-24 -1 -51.5 -10t-40.5 -29q-4 -9 -7 -17q-2 -7 -5 -14l-4 -6q-2 -4 -4 -9q-1 -5 -1 -10v-5q1 -3 1 -6q-1 -11 -4 -19t-4 -17v-10q1 -2 1 -5q0 -2 -1 -6q-1 -9 -1 -19
v-10q0 -16 2 -31q6 -54 34 -97q2 -4 4 -6t3.5 -3t2.5 -2q2 0 5.5 -2t8.5 -6q2 -2 4 -3l2 -2t2 -2.5t2 -5.5q8 -16 23.5 -23t32.5 -10l16 -4q30 -7 61 -7q44 0 88 15q8 3 17 5q5 1 9 3q3 1 7 2q2 -2 5.5 -14t8 -28t8.5 -29.5t4 -16.5q-5 -3 -11 -7q-4 -2 -7 -4
q-13 -7 -21 -11l-16 -8q-8 -3 -21 -9q-31 -15 -58 -34q-8 -4 -15 -9q-26 -15 -53 -30q-57 -31 -107 -69q-2 -2 -5 -4q-14 -11 -25 -23q-15 -19 -27 -39q-4 -6 -8 -13q-4 -6 -9 -12q-9 -10 -14 -21q-3 -9 -5 -16q-3 -13 -11 -27q-1 -1 -2 -3q-5 -9 -8.5 -17t-4.5 -21
q-2 -7 -5 -18q-4 -14 -7 -29q-3 -18 -3 -36q0 -8 1 -17q5 -51 26 -90q5 -11 9 -16.5t7 -9t7 -6.5q5 -4 17 -16l14 -14q2 -3 5 -9q3 -4 6 -9q17 -24 44 -41q14 -8 38 -19.5t40 -17.5l8 -4q6 -3 11 -4q3 -1 7 -1h6t14 1l22 2q15 0 30 3q23 6 41 19q9 5 17 10q3 1 5 1.5t3 0.5
t2 0.5t3 2l6 4.5q31 25 55 60q9 13 13 20t5.5 11t2.5 8q2 6 7 20q1 2 3 5q3 7 5 15q-7 2 -15 5.5t-14 6.5l-9 6q-5 3 -9.5 5.5t-6.5 3.5q-5 1 -21.5 1.5t-34 0t-23.5 -1.5q-2 -1 -2.5 -2.5t-1.5 -2.5q0 -2 -1.5 -4t-5.5 -5q-1 -1 -4 -3q-5 -4 -13.5 -10.5t-15.5 -12
t-10 -5.5q-2 0 -10.5 3t-16.5 6q-6 3 -9 4l-6 2q-3 2 -6.5 3t-5.5 1q-2 1 -5 1q-2 0 -8 -1t-10 -1q1 2 1.5 2.5l1.5 1.5l4 6q2 4 8 9.5t12.5 10.5t10.5 7q7 4 25.5 18.5t37.5 28.5q15 13 22 18q6 5 9.5 8t6 4.5t3.5 3t2 2.5l2 2q0 1 1 2q3 2 5 3q3 2 4 4q1 1 1 4v3q3 2 5 3
t2.5 2t1.5 2t3 4q6 6 14 11q6 4 13 9l2 2q6 4 11 10q1 1 2.5 2t2.5 2l2.5 2.5t3.5 4.5q3 6 4.5 8.5t3 4.5t3.5 4t4 5q4 5 9 8q2 2 7 2q2 0 6 -1l58 68q8 9 12 14l6 7.5t2.5 4t0.5 3.5q0 1 1 5t6 13q1 4 2.5 5.5l2.5 2.5l2 2q2 1 5 3q4 3 5.5 8t1.5 11v4q0 11 4 16q3 4 7 4
q5 0 11 -4q3 -2 10 -6t15.5 -9t15 -8.5t8.5 -3.5h5q2 1 5 1t8 -4q1 -2 3 -4q11 -11 24 -19l2 -1q2 -1 2.5 -1.5t1 -1.5t1.5 -2q4 -6 15.5 -16.5t22.5 -18.5l7 -7q1 -1 3 -2q3 -2 5 -5q2 -2 2 -4t-2 -4q-3 -4 -8 -7q-3 -2 -5 -4q-8 -7 -10 -12t-2 -10q-1 -5 -4 -12
q-3 -6 -11 -14t-13 -12q-2 -2 -10 -6q-6 -2 -12.5 -5.5t-10.5 -6.5q-9 -7 -19 -14q-4 -4 -9 -7q0 -5 -0.5 -12t-1.5 -14q-1 -5 -2 -8q-1 -9 -1 -18t-1 -18q-3 -33 -12 -64q-3 -10 -10 -35.5t-14.5 -50t-10.5 -31.5q-6 -13 -13 -26t-15 -22q-3 -3 -5 -4.5t-4 -2.5
q-2 0 -3.5 -1.5l-3.5 -3.5q-32 -49 -77 -85q-3 -2 -6 -5q-7 -5 -15 -11q-43 -31 -101 -50q-20 -7 -33 -12q-19 -7 -38 -11q-13 -3 -33 -3q-10 0 -22 1q-7 0 -18 -2q-8 -1 -16 -1q-52 0 -100 14q-50 16 -100.5 48.5t-86.5 67.5q-19 19 -35 40q-17 21 -31 45q-13 23 -18 35
t-8 26q-3 9 -6 21q-20 63 -20 131q0 19 2 38q11 124 85 218q50 64 113 115z" />
    <glyph glyph-name="quotesingle" unicode="'" horiz-adv-x="309" 
d="M36 1635q10 24 33 24q1 0 15 -1t39.5 -15t36.5 -26q6 -6 10 -9l12 -12q22 -27 27.5 -42.5t5.5 -26.5q0 -9 4 -19q10 -25 10 -50q0 -27 -11 -54q-1 -3 -1 -5v-3q0 -1 1 -3t2 -5q1 -4 1 -9q0 -15 -8 -36.5t-15 -34.5q-3 -7 -5.5 -10t-6.5 -5t-12 -4q-13 -4 -24 -8
q-10 -4 -23 -8q-9 -4 -19 -15q-8 -8 -15 -13q1 5 3 8t3 8q1 9 5 17q2 5 8.5 17t12.5 23.5t9 16.5q19 27 19 56q0 2 -0.5 18t-16.5 24q-3 1 -5 0.5t-4 -1.5q-3 -1 -9 -1h-3q-5 0 -15 3l-8 2q-7 1 -12 3.5t-9 9.5q-1 3 -2.5 4.5t-2.5 2t-3 0.5q-2 1 -5 2q-4 1 -5.5 1h-3
t-3.5 -1t-5 -2q-6 -1 -12 -1q-4 0 -10 0.5t-10 7.5q-1 3 -3 6q-3 7 -5 14q-1 3 -1 6q0 4 2 8l1 62z" />
    <glyph glyph-name="parenleft" unicode="(" horiz-adv-x="665" 
d="M570 -14h-13q-20 0 -39 -2q-14 -1 -29 -2q-11 0 -22 -1q-29 -2 -59 -2q-76 5 -130 38q-38 24 -70 57q-30 32 -55 71l-8 12q-12 19 -24 39q-33 57 -61.5 131.5t-40.5 146.5l-2 20q0 9 -1 19q-6 37 -9 75q-7 72 -7 143q0 89 11 177q13 93 46 199.5t79 179.5q64 105 166 171
q25 15 56.5 28.5t66.5 16.5q7 1 15 1q36 3 74 3t71 -11l-3 -91q-13 -2 -26 -5q-14 -4 -29 -6q-48 -4 -72.5 -14t-65.5 -42q-67 -52 -108 -150q-12 -33 -17 -67l-8 -38q-3 -9 -5 -18q-5 -17 -8 -34q-2 -17 -3 -35q0 -13 -1 -25q-2 -18 -5 -36q-2 -10 -4 -21q-4 -29 -4 -60
q0 -16 -2 -34q-2 -13 -2 -25q-3 -43 -3 -87q0 -108 18 -216q0 -3 1 -6q4 -22 10 -50.5t15 -47.5q7 -13 12 -30l6 -16q3 -6 4 -10q3 -7 5 -11.5t3.5 -10t3.5 -16.5q13 -52 38 -92q9 -14 15.5 -22.5t13.5 -16.5q6 -7 13 -16q5 -6 9 -11q3 -4 5 -7q35 -43 76 -56.5t95 -18.5
l10 -2q1 -4 0.5 -18t-1.5 -29q0 -13 -1 -19z" />
    <glyph glyph-name="parenright" unicode=")" horiz-adv-x="680" 
d="M54 1496q15 3 37 5t38 3q15 0 29 1q25 2 51 2q86 -6 148 -62q2 -2 4 -3l7 -7q3 -3 6 -5q2 -3 5 -6q23 -24 38.5 -44.5t34.5 -51.5q17 -30 44.5 -84t39.5 -82q7 -19 11 -39q4 -13 8 -27q9 -28 14 -42q4 -12 7 -22t5.5 -26t5.5 -44l4 -38q1 -8 3 -15q2 -11 3 -21
q3 -51 3 -102q0 -31 -1 -62q-7 -188 -58 -362q-3 -9 -4 -19q-1 -8 -3 -15q-5 -20 -15 -48.5t-19 -44.5q-11 -19 -32.5 -50t-35.5 -49q-44 -61 -102 -108l-12 -8t-13 -8q-56 -32 -133 -36q-26 0 -51 1q-15 1 -30 1l-21 1l-21 -1q-4 0 -9 -1h-30l-10 64l12 2q7 1 16 4
q8 2 16 5l32 8q15 3 28 7q57 22 96 67q3 3 6 7q4 5 9 10q47 53 77 118q45 114 61 233q2 13 5 27q1 8 3 14t3 12q11 73 15 147q1 28 1 59q0 32 -2 83.5t-6 108.5q-8 117 -41 220l-8 24q-11 37 -27 71q-30 70 -91 104q-8 3 -15 6q-4 2 -7 3q-19 9 -33.5 12t-32.5 5q-6 1 -13 2
q-29 5 -59 5v6q0 4 0.5 14t2.5 26.5t3.5 29t2.5 15.5z" />
    <glyph glyph-name="asterisk" unicode="*" horiz-adv-x="629" 
d="M207 1439q0 3 -3 10q-3 10 -5 23v4q0 10 5 18q3 4 3 8q0 1 -0.5 4t-3.5 8q-2 2 -3 5q-2 5 -2 9q0 9 13 10q22 0 47 -3q8 -1 15 -1q5 -1 13 -1q13 0 27 -1.5t20 -4.5q0 -7 -2 -14q-2 -5 -2 -11v-4q0 -5 2 -11q2 -2 3 -4q1 -3 2.5 -5.5t1.5 -6.5v-12.5t-1 -7t-2 -4.5
q-1 -3 -2 -6.5t-1.5 -11t-0.5 -20.5q-1 -6 -1 -10v-6.5t-0.5 -3.5t-0.5 -1.5t-1 -0.5q0 -1 -0.5 -2t-0.5 -3v-50l55 26q2 1 3 2l2 2q0 1 1 1.5t2 1.5q2 2 11 6.5t20.5 10.5t20.5 10t11 5h6q1 0 3 0.5t5 2.5q3 1 8 4q7 3 13.5 6t10.5 4l50 -105q-4 -3 -9 -5t-8 -4
q-2 -1 -3 -3q-1 -1 -4 -3q-6 -4 -14 -8l-16 -8q-7 -3 -12 -5q-10 -5 -15 -8t-7 -5l-4 -4l-3 -3t-6 -4.5t-11 -5.5q-6 -4 -10 -4t-9 4l-41 -20q2 -5 6 -9l4 -4q2 -2 2.5 -3l1 -2t0.5 -2q1 -1 2 -6q1 -2 5.5 -7.5t8.5 -10.5q3 -3 4 -5l29 -34l3 -4.5t2 -2t2 -0.5l4 -2
q3 -3 13.5 -15.5t21 -25.5t11.5 -17q1 -3 2 -4.5t1.5 -2.5t1.5 -2l3 -3q2 -3 5 -7q8 -8 13 -16q-3 -3 -7.5 -6.5t-9.5 -7.5q-4 -3 -6 -5l-57 -46q-3 -2 -5 -4q-3 -2 -6 -5q-4 4 -7 8l-4 4q-2 3 -5 5q-4 2 -7 6q-10 12 -21 24q-2 3 -4 5q-4 6 -9 11.5t-9 8.5q-10 6 -20 16
q-9 8 -9 18v4q0 2 -1.5 4.5t-3.5 4.5l-3 3q-10 13 -21 25q-8 10 -17 21l-4 4q-1 2 -3 4q-4 5 -9 11t-9 10q-3 -3 -7 -8l-8 -10q-3 -4 -5 -6q-2 -3 -3.5 -4.5t-2.5 -2t-2 -0.5q-1 -1 -2 -1t-2 -2q-4 -3 -7 -8q-2 -2 -3 -4l-12 -14q-4 -6 -8 -10q-1 -2 -3 -3q-2 -3 -6 -7.5
t-7 -8.5t-4 -6t-1 -4l-1.5 -3t-1.5 -2.5l-3 -4.5q-3 -4 -12 -15t-17.5 -21t-10.5 -12q-2 -1 -2.5 -1.5t-1.5 -0.5t-1.5 -0.5t-2.5 -1.5q-2 -3 -9 -11q-4 -6 -8.5 -11t-6.5 -7l-23 19q-12 9 -23 18l-6 6q-8 6 -16 13l-22 19q2 3 5 6q4 5 7 9q11 22 28 39q2 3 4 5
q9 10 12 15.5t4 8.5q1 4 4 9.5t11 15.5q3 4 7 5q2 1 5 1h4l41 51l2 2q3 3 6.5 7.5t4.5 8.5q-13 7 -28 15q-6 4 -12 7q-5 3 -8 4.5t-4.5 2t-2.5 1.5h-3q-2 0 -4 1l-61 34q-1 1 -1 2l-6 6q-2 1 -7 4q-7 3 -13.5 7t-9.5 6q3 5 10.5 19t16.5 30q11 18 16 27q2 4 5 8q5 9 9 17
q6 -1 10 -4l8 -4q21 -7 41 -20q14 -9 25 -13q5 -1 9 -2q5 0 11 -3q5 -2 12.5 -6t10.5 -8q1 -1 1.5 -2.5t0.5 -3.5v-1q1 -3 5 -5.5t8.5 -4.5t7.5 -3q1 16 1 32q0 17 -1 35v32z" />
    <glyph glyph-name="plus" unicode="+" horiz-adv-x="739" 
d="M267 805q1 6 1 16v20q-1 8 -1 12v12q1 8 1 16t-0.5 21t-2.5 21q-2 13 -3.5 20t-1.5 12.5v13.5v27v7t1 5.5t2 4.5t2 5.5t1 11.5v8t-0.5 5t-1.5 5q-1 1 -1 3q-3 8 -5 20q-1 3 -1 7q0 7 4 13q3 4 7 4.5t8 -0.5h3q23 -3 53 -6q18 -2 33 -3q6 -1 11 -1q11 0 15 -3q4 -2 4 -11
v-3q-1 -8 -2 -14q-2 -13 -2 -30q1 -11 2 -16.5t3 -9.5q2 -5 3 -11t1.5 -17t-0.5 -32q0 -6 -2 -11q-1 -4 -1 -8q-1 -6 -1 -11q-1 -6 -1 -12q-1 -6 -1 -20v-29q0 -27 -1 -45h13h11t10.5 0.5t7.5 1.5q3 0 8 1t15 1l103 1q9 0 13 -1t7 -2q2 0 4.5 -0.5t6.5 -0.5h18q13 1 25 1
q13 0 24 -1l-1 -120h-34l-8 -2q-4 0 -8 -1q-21 -1 -44 -1h-44q-17 0 -34 -1q-7 -1 -11 -1.5t-7 -1.5q-6 -1 -15.5 -2t-31.5 -2q-10 0 -16.5 1t-14.5 4v-37q0 -5 0.5 -7t0.5 -4q1 -2 2 -5q1 -6 1 -24t0.5 -40t0.5 -41v-24q0 -9 -0.5 -14t-1 -7.5t-0.5 -3.5q-1 -2 -1.5 -3.5
t-0.5 -4.5v-36q1 -10 1 -20q0 -9 -1 -18l-120 1v22q0 9 -1 16q-2 15 -2.5 38t-0.5 48v20q0 29 -2 45q-5 27 -5 54q0 17 2 35q1 4 2 6t2 3q1 0 1.5 1t0.5 3h-89q-13 0 -23 -4q-7 -2 -16 -3t-21 -1h-22q-7 0 -10 1t-4 3q-1 1 -3.5 1.5t-7 1t-14.5 0.5q-5 0 -12 -3
q-9 -4 -23 -6q-7 0 -12 1t-8 5l-3 3v3v2.5t1 3.5v3l8 81q1 8 2 14q0 16 5 20q2 2 7 2q6 0 17 -3q10 -2 20 -2q20 0 38 7q13 4 27 4q5 0 11 -1h11q7 0 14 -2l40 -5h66z" />
    <glyph glyph-name="comma" unicode="," horiz-adv-x="309" 
d="M35 202q10 24 33 24q1 0 15 -1t39.5 -15t37.5 -26l9 -9q3 -3 6 -5.5t6 -6.5q22 -27 27.5 -42.5t5.5 -26.5q0 -9 5 -19q10 -24 10 -49q0 -27 -12 -55q-1 -3 -1 -5v-3t1 -3q1 -1 2 -5q1 -6 1 -12q0 -14 -7.5 -34.5t-15.5 -33.5q-3 -7 -5.5 -10t-6.5 -5t-12 -4
q-13 -4 -24 -8q-10 -4 -22 -8q-5 -2 -10 -6t-10 -9q-8 -8 -15 -13q2 5 3 8q2 3 3 8q1 9 5 17q3 5 9 17t12.5 23.5t9.5 16.5q18 27 18 56v17.5t-16 24.5q-3 1 -5 0.5t-5 -0.5q-3 -2 -8 -2h-3q-5 0 -15 3q-5 1 -9 2q-7 2 -12 4.5t-8 8.5l-3 4.5t-2.5 2t-3.5 1.5q-2 0 -5 1
t-5 1h-3.5t-3.5 -1t-5 -1q-7 -2 -14 -2q-2 0 -8 0.5t-10 7.5l-2 6q-3 7 -5 14q-1 4 -1 8q0 3 1 6l2 63z" />
    <glyph glyph-name="hyphen" unicode="-" horiz-adv-x="521" 
d="M258 681l-138 -2q-5 0 -8 -0.5t-6 -2.5l-8 -2q-10 -2 -21 -2h-5q-7 0 -10 0.5t-4.5 1t-2.5 1.5t-2 1.5t-2 1.5q-4 1 -8 1q-2 0 -6 -1t-9 -4l-12 -4h-3q-4 0 -8 1q-4 3 -5 8v13q1 6 1 11q0 8 1 15q2 22 4 49q0 16 1 30q1 9 5 10h3q3 0 8 -1q8 -2 18 -2h7q6 0 9 1t6 3
q3 1 6 3q5 2 11 2h12h3q7 -1 18 -3q10 -3 18 -4h51l1 -1q1 -1 2 -1.5t4 -0.5h8h83q6 0 12 1q5 2 13 2h26l18 1q9 0 21.5 -0.5t16.5 -1.5q5 -2 9 -2.5t10 -0.5q3 1 7 1h27q1 -4 1 -20.5v-37t-0.5 -38.5t-0.5 -24q-4 -1 -9 -1h-5l-6 1l-5 -1q-19 -4 -38 -4q-8 0 -16 1h-22
q-10 0 -20 -2q-5 -1 -9 -2q-7 -2 -15 -3h-20q-2 0 -5 0.5t-5 1.5t-2.5 1.5l-1.5 1.5z" />
    <glyph glyph-name="hyphen" unicode="&#xad;" horiz-adv-x="521" 
d="M258 681l-138 -2q-5 0 -8 -0.5t-6 -2.5l-8 -2q-10 -2 -21 -2h-5q-7 0 -10 0.5t-4.5 1t-2.5 1.5t-2 1.5t-2 1.5q-4 1 -8 1q-2 0 -6 -1t-9 -4l-12 -4h-3q-4 0 -8 1q-4 3 -5 8v13q1 6 1 11q0 8 1 15q2 22 4 49q0 16 1 30q1 9 5 10h3q3 0 8 -1q8 -2 18 -2h7q6 0 9 1t6 3
q3 1 6 3q5 2 11 2h12h3q7 -1 18 -3q10 -3 18 -4h51l1 -1q1 -1 2 -1.5t4 -0.5h8h83q6 0 12 1q5 2 13 2h26l18 1q9 0 21.5 -0.5t16.5 -1.5q5 -2 9 -2.5t10 -0.5q3 1 7 1h27q1 -4 1 -20.5v-37t-0.5 -38.5t-0.5 -24q-4 -1 -9 -1h-5l-6 1l-5 -1q-19 -4 -38 -4q-8 0 -16 1h-22
q-10 0 -20 -2q-5 -1 -9 -2q-7 -2 -15 -3h-20q-2 0 -5 0.5t-5 1.5t-2.5 1.5l-1.5 1.5z" />
    <glyph glyph-name="period" unicode="." horiz-adv-x="318" 
d="M130 266q3 1 5 1q3 0 5.5 -1t4 -4t2.5 -6q0 -1 1 -1q0 -1 3 -2.5t7 -2.5t7 -2.5t4 -2.5h1q10 -5 18 -12q2 -2 4 -3q25 -17 38 -47q8 -20 8 -40q0 -19 -7 -38q-2 -5 -4 -7.5t-3 -3t-2 -1.5q-2 0 -3 -1t-2 -3q-32 -63 -109 -75q-8 -1 -15 -1q-20 0 -40.5 9t-32.5 25
q-20 27 -20 61q0 18 5 38l2 6q1 3 2 5q1 6 2 10q1 6 2.5 11t6.5 15q11 22 38 41t52 23q4 0 6 1t3 2q1 2 3.5 3.5t7.5 2.5z" />
    <glyph glyph-name="slash" unicode="/" horiz-adv-x="792" 
d="M0 39q0 2 2.5 8.5t6 14t6.5 14.5l4 8q5 12 10 23l10 23q5 12 10 26l8 22q25 60 51 119q23 54 47 110q1 4 3 8q8 19 15 39q7 25 16 49q5 13 17 42.5t24.5 57t19.5 36.5q3 2 4 2l2 2t2 4l54 127q19 46 39 94l76 184q5 13 11 26l8 20l2 6q4 9 7 17l5 15q9 28 17 51t21 55
q3 8 6 15q6 16 13 31q9 18 17 29q5 7 8 12q2 6 5 12q8 18 13 35q6 27 14 52q2 7 9 23.5t15 32t14 20.5q2 2 3 2.5t1 1.5t1 2q0 2 1 4q3 -1 6 -4.5t7 -7.5q3 -4 5 -6l52 -53l19 -19q2 -2 3.5 -4t1.5 -5q-4 -32 -21 -58q-2 -3 -3 -5q-10 -19 -22.5 -48.5t-18.5 -49.5
q-2 -10 -5 -20q-4 -18 -10 -35l-12 -30t-16 -39.5t-13 -28.5q-11 -21 -24 -46.5t-22 -46.5q-3 -8 -6 -15l-14 -34q-3 -7 -8 -20q-10 -27 -23.5 -57.5t-21.5 -43.5q-3 -3 -5.5 -9t-4.5 -12q-1 -1 -1 -3q-35 -85 -72 -172q-16 -36 -31 -72l-26 -62q-1 -2 -3 -9t-5 -15.5
t-5 -14.5q-28 -69 -58 -137q-12 -29 -25 -58q-3 -8 -8 -19q-8 -21 -17.5 -42.5t-17.5 -34.5q-1 -2 -2 -3q-2 -2 -3 -3.5t-2 -4.5l-68 -157q-1 -3 -3 -6q-5 -10 -7 -19l-55 27l-26 13q-10 4 -17 8t-10 6z" />
    <glyph glyph-name="zero" unicode="0" horiz-adv-x="1027" 
d="M347 27q-4 2 -9 3q-9 3 -20 7q-90 39 -145 117l-12 18q-10 13 -19 26q-78 118 -113 259q-4 18 -5 26.5t-2 14.5q0 4 -0.5 9.5t-2.5 14.5q-13 80 -17 175q-2 37 -2 71q0 55 5 104q15 130 56 253q35 113 105 204q13 17 34.5 41.5t39.5 38.5l12 10q13 11 31 23q11 6 25 14.5
t24 12.5q36 17 60 23q20 4 52 4h32q19 0 39 1q15 1 29 1q13 0 25 -1q17 -1 33 -3q64 -13 104 -47q22 -17 40 -36q4 -6 9 -11q11 -13 24 -30q14 -20 29.5 -46t25.5 -48q11 -22 22 -45q14 -27 26 -55q11 -26 15.5 -41.5t7.5 -28.5q3 -17 12 -45q12 -38 16 -61t5 -48
q2 -20 5 -51q1 -5 1 -10q2 -10 2 -23q1 -21 1 -41q0 -89 -11 -178q-15 -136 -53 -256l-2 -4q-2 -6 -4 -12.5t-3 -14.5q-4 -23 -17.5 -58t-25.5 -53l-10 -14q-18 -26 -38 -52q-26 -34 -62.5 -72.5t-73.5 -59.5q-40 -22 -85 -30q-12 -2 -44.5 -4.5t-71.5 -2.5h-25q-23 0 -47 2
t-27 9zM491 1387q-27 -5 -41.5 -10.5t-37.5 -21.5q-34 -23 -62 -51q-23 -24 -47 -63.5t-36 -79.5q-7 -27 -12 -54q-3 -20 -8 -40q-1 -6 -3 -13q-5 -15 -6 -33q-1 -11 -1 -23q0 -17 -2 -32l-4 -30q-7 -36 -7 -72v-10q0 -16 -2 -33v-10q-3 -34 -3 -71q0 -29 2 -60
q4 -70 12 -127q7 -47 18 -91q1 -4 3 -9q2 -10 4.5 -19t4.5 -14q2 -4 4 -7q3 -5 6 -11q6 -15 12 -29q6 -15 13 -29l12 -42q9 -27 25.5 -55t35.5 -47q10 -11 19 -22q3 -4 7 -8q11 -14 27 -28t34 -21q4 -2 7 -2h2h3.5t4.5 2q1 1 2 1q76 50 126 128q20 29 31.5 54.5t22.5 61.5
q15 44 24 88l8 40q5 28 12 54q1 5 2 9l2 6t2 7v2q2 11 4 23q12 76 15 156v36q0 89 -4 176q-5 100 -30 188q-15 58 -41.5 118t-77.5 91q-13 8 -36 17.5t-40 9.5h-6z" />
    <glyph glyph-name="one" unicode="1" horiz-adv-x="616" 
d="M225 1464q1 15 9 25q7 9 15 17q4 4 7 5l3 1l2 -1q3 0 5.5 1t5.5 5q3 3 4.5 5.5t1.5 4v3.5q0 1 0.5 4t1.5 8q4 14 13 14q5 0 12 -4l87 -80q3 -2 10 -8q7 -7 14 -13.5t10 -8.5h4q0 -1 1 -1q0 -1 2 -3h1l3 -4.5t1 -2.5q1 -1 1.5 -2t2.5 -3q2 -1 2.5 -1.5t0.5 -1t1 -0.5
q0 -1 0.5 -1.5t1.5 -2.5q3 -3 4 -6q1 -2 3 -4q0 -1 1 -2q1 -2 1.5 -4t-2.5 -5t-9.5 -6t-11.5 -6q-5 -30 -5 -60q0 -16 1 -31q2 -16 6 -31q1 -4 2 -9q4 -22 4 -54q0 -6 -0.5 -30.5t-6.5 -48.5q-1 -7 -3.5 -25t-4.5 -36.5t-2 -25.5q-1 -26 -2 -54q0 -47 -2 -89q-1 -9 -1.5 -14
t-1.5 -7.5t-2 -4.5q-1 -1 -1.5 -2t-0.5 -3v-12l-10 -310v-6.5v-4t0.5 -2t0.5 -1.5t0.5 -2.5t1.5 -5.5q1 -14 1 -29v-15q0 -43 -2 -86q-2 -52 -2 -103v-28q0 -34 -8 -62q-1 -3 -1.5 -15.5t-0.5 -28.5t-1 -30v-20v-7.5t1 -3.5l3 -3l3 -3q7 -7 13.5 -10t14.5 -5t22 -7
q17 -6 38 -9q4 -1 9 -1q15 0 27 -4.5t12 -22.5q0 -2 -1.5 -4t-3.5 -4q-3 -4 -4 -7h-11q-8 0 -18 -2q-13 -3 -26 -5q-6 -1 -9 -2q-4 -1 -8 -1.5t-11 -0.5h-56q-52 1 -99 1q-4 -1 -10 -1q-25 0 -59 -1t-49 -5q-10 -2 -21 -2h-14t-21 4q-4 1 -7 3q-8 4 -16 6q-2 1 -4 1t-4 -1
q-3 0 -5.5 0.5t-5.5 2.5q-1 1 -1 2h-2v4q0 4 0.5 11.5t1 13.5t1.5 7q3 3 9 4q2 1 4 1l16 4l91 21q1 10 1 17t-0.5 14.5t-1.5 14.5q-2 9 -2 22v72q0 8 1 21q1 45 3 105v36q0 33 -1 51l-2 14q-4 25 -4 51v7q0 32 1 64q1 17 4 34q1 8 3 12.5t3.5 6t3.5 2.5l1.5 1.5t0.5 1.5
l12 467q0 22 -4 44q-4 19 -5 38v23q0 35 2 70q1 22 9 38q3 7 3.5 17.5t0.5 19.5v7q-8 -1 -20 -4q-7 -2 -12 -3q-2 -1 -4 -1q-3 0 -5 -1t-4 -5t-3.5 -6t-5.5 -5q-21 -16 -47 -30q-5 -3 -8 -5q-6 -4 -10 -6h-10q-8 2 -16 5q-6 2 -13 4q-3 1 -11 3q-6 2 -11.5 3.5t-7.5 1.5h-5
q-6 0 -13 -1q-9 -2 -16 -2q1 1 2.5 2t2.5 2t2 1q2 1 3 2t2 3q0 1 2.5 4t10.5 7l31 19q9 5 14 7q3 1 7.5 3.5t12.5 6.5q27 17 58 41.5t54 46.5q6 5 9 9t4 6.5t2 3.5q0 1 0.5 2t2 2t5.5 3z" />
    <glyph glyph-name="two" unicode="2" horiz-adv-x="939" 
d="M57 -6q-14 0 -25 -1q-8 -1 -13 -2.5t-8 -3.5q-2 -1 -4.5 -1.5t-6.5 -0.5v4q0 5 2.5 10.5t5.5 9.5q4 6 5 20t5 26t17 13q8 1 13 7q4 3 8 5q13 6 21 13q13 11 36 30t43.5 36t25.5 24q21 28 35 51t28 48q7 13 15 28q13 23 26 43q41 61 80 125l16 28q4 8 9 15q25 47 35 83
q9 27 24 62q11 24 16 51v1q7 26 18 48q12 25 18 54q4 18 12 38q2 7 4 13q38 106 45 228v14q0 26 -3 52q0 8 -1.5 14.5t-5.5 13.5q-5 12 -10 25q-4 12 -10 23q-3 9 -5 16q-1 5 -3 10q-18 48 -64 72l-45 24q-11 5 -19 9q-14 8 -23.5 11.5t-19.5 3.5q-11 0 -30 -3h-9q-1 1 -2 1
h-3q-5 0 -22.5 -4t-35 -9t-23.5 -8q-1 -2 -3 -3q-2 -3 -7 -5q-3 -1 -6 -3q-2 -1 -5 -2q-4 -2 -8 -3l-16 -8q-5 -2 -10 -5l-12 -6q-4 -2 -6.5 -2.5t-4.5 -0.5t-5.5 -1t-9.5 -4q-3 -1 -4 -2l-2 -2t-2 -3l-1 -2q0 -1 -1 -2q-3 -4 -4 -9l2 -2l2 -2t2 -4q3 -11 5 -23q1 -4 2 -7
q1 -8 2 -14q2 -7 2 -11v-2q0 -2 -1.5 -4.5t-5.5 -6.5l-26 -25q-2 -2 -4 -3q-2 -2 -3.5 -4t-3.5 -7q-1 -1 -1 -2l-2 -6t-2.5 -5.5t-2.5 -3.5q0 2 -1 4q0 2 -1 4l-5 5q-2 5 -3 11q0 2 -1 5q0 2 -1 5q-2 5 -3 11v10q0 4 -1 8q-7 35 -16 71q-3 12 -6 25q-3 11 -4 18
q-1 8 -3 12.5t-10 12.5q-4 4 -7 12.5t-3 14.5q0 3 1.5 5t3.5 3l3 3q0 4 -0.5 6.5t-2 3.5l-4.5 3l-6 4t-5 5q-1 2 -1 4t2.5 5t8 4.5t10.5 2.5l116 20q4 1 6 2t4 3l2 2q6 4 11.5 7t12.5 6h2q9 4 14 5l5 1q2 0 4 -1l4 -2q1 -1 3 -2q3 2 16.5 5.5t27 6.5t20.5 4q30 6 63 9
q3 1 6 1h4q15 2 30 6q8 2 15.5 2.5t16.5 0.5h4q6 0 9 -1t8 -2h20q3 1 5 2t5 1l3 1l4 -1q4 0 5 -1.5t2 -2.5q0 -1 1 -2t3 -2l10 -2q3 -1 7 -1q24 -6 46 -15q42 -17 75 -43q22 -17 42 -37q49 -49 80 -119q40 -93 42 -195l1 -10l-1 -9l-2 -10q-1 -3 -1 -6l-2 -20q0 -9 -1 -18
q-7 -69 -22 -136q-20 -92 -43.5 -149.5t-65.5 -137.5q-25 -47 -53 -93q-2 -4 -5 -8l-4 -8q-13 -22 -26 -40q-7 -9 -14 -19q-19 -25 -38 -49q-7 -8 -13 -17l-5 -5q-17 -22 -35 -44q-9 -11 -18 -21l-18 -22l-63 -75q-16 -18 -34 -34q-8 -7 -16 -15l-12 -10q-4 -5 -9 -9l-6 -6
l-8 -8t-5 -6q9 -2 16.5 -3t16.5 -2h5q10 -1 21 -1h35l16 1l14 -1q3 0 4.5 -0.5t3.5 -1.5q1 0 3.5 -0.5t6.5 -0.5h152h6.5t4.5 1q3 1 7 1q13 2 33.5 2h40.5q20 -1 33 -1q4 0 8 1h15q4 0 6 -1q4 0 5.5 0.5t4.5 4.5q8 9 16 17q14 13 25 28q3 6 7.5 17t8.5 25q10 31 20 51
q7 1 15 1h9q7 0 13 1q1 -2 2 -3q2 -1 3 -3q1 -3 1 -4v-6q1 -2 3 -5q5 -6 9 -17q2 -4 2 -9q0 -7 -4 -17q-5 -18 -5 -67v-91q0 -16 1 -26q-1 -11 -5 -21q-7 -10 -7 -30h-37q-3 11 -4 18q-1 6 -2 9t-5 3q-2 1 -6 1q-3 0 -8 -1q-3 -1 -6 -1l-10 -2h-52h-55t-36 -2q-26 -5 -53 -5
h-15q-8 0 -16 1.5t-11 6.5h-123q-54 -1 -108 -1q-14 0 -27 -3q-12 -3 -24 -4t-29 -1t-26 4l-7.5 3t-4.5 1h-5q-3 -1 -9 -1q-10 0 -18 -4q-7 -2 -15 -4h-17q-8 2 -10 7q-1 3 -1 7v4h-42z" />
    <glyph glyph-name="three" unicode="3" horiz-adv-x="933" 
d="M77 54l-18 -2q-14 -2 -27 -2q-1 -1 -2 -1q-8 0 -15.5 0.5t-11.5 4.5q-3 2 -3 7q0 3 1 6q5 14 11 28q2 4 3 9q8 18 11 39q6 29 8 59l4 32q0 4 1 8q3 19 4 37q-1 15 -4 25q-2 7 -2 12v2q0 3 2 4t4 1t5.5 -1t8 -3.5t6.5 -4.5q5 -4 8 -9q4 -5 8 -9l8 -6q7 -4 11 -10
q7 -12 9 -20q1 -4 1 -8t-1 -8v-4q0 -8 3 -14l4 -8q2 -3 3.5 -6.5t3.5 -9.5l2 -6q2 -10 6 -20q5 -9 9 -15q2 -4 3 -5q10 -4 19 -8t18 -7q19 -7 40 -11q11 -1 20 -1h8q9 0 19 -1q5 0 12 -1q9 -1 19 -1h15q18 5 37 11q19 7 40 12q38 10 72 27q52 24 82 68q3 5 7 11q6 10 12 19
q3 4 6 7q8 9 14 23q2 7 4 13q3 12 9 24q1 3 3 5q13 23 18 49q1 6 4 14q1 2 1 5q14 45 14 93q0 12 -2 47.5t-32 87.5q-1 3 -2.5 4.5t-2 2.5t-2.5 2q-1 1 -4 3q-9 8 -17 16l-9 9q-7 7 -12 15q-6 11 -19.5 24t-49.5 29q-7 4 -16 7q-10 3 -19 8q-4 1 -8 3q-13 8 -26 12
q-2 1 -16 3q-16 2 -35.5 4.5t-34.5 6.5q-41 11 -87 12q-1 0 -1 1h-1q-1 0 -1 1v3l-13 1l-7 65q22 1 47 9q14 4 26 7q27 5 53 13q27 7 55 13q5 1 12 2t14.5 2t11.5 3q28 15 56 32q66 48 86 137q2 7 3 11q2 2 3 5q5 17 5 36q0 7 -1.5 25t-7.5 38q-4 15 -10.5 33t-13.5 32
q-6 12 -18 27t-21 22q-3 1 -5 2q-2 2 -4 3t-5 4t-5 4.5t-6 3.5l-2 1q-8 5 -14 8t-16 6q-15 5 -30 9q-3 0 -5 1q-5 1 -7 2l-4 2q-2 2 -5 3q-9 3 -29.5 4.5t-41.5 2.5q-10 1 -18 1t-13 -1q-11 0 -16.5 -0.5t-8 -1t-3.5 -1.5q-2 0 -4 -1t-6 -2q-10 -1 -19 -3q-9 -1 -19 -3
q-18 -3 -36 -8q-7 -2 -14 -5q-11 -4 -20 -5q-3 -1 -4 -1h-2.5t-2.5 -2l-17 -17q-1 -1 -2 -3l-3 -3l-15 -17q1 -3 2 -4q1 0 1.5 -1l1.5 -3q1 -5 1 -12v-13v-10q1 -7 1 -11v-6q0 -5 -1 -8.5t-11 -9.5l-28 -20q-3 -1 -4 -2q-2 -1 -3 -2t-1.5 -2l-1.5 -3q-1 -1 -2 -4l-2 -2
q-1 -3 -3 -6.5t-4 -5.5l-2 9l-4 8l-2 33q0 4 1 8q1 3 1 7q0 14 -1.5 41t-3.5 48q0 5 -1 8v8q0 7 -0.5 13.5t-2.5 10.5q-2 3 -4 5q-3 3 -4.5 7t-2.5 12v6v6.5t1.5 4t4.5 3.5l4 2v3q0 4 -0.5 5.5t-1 2.5t-1.5 2q-2 1 -4 4q-8 8 -8 12q0 2 3 5t17 4t29 1h10h11t10 1
q29 13 64 21q8 3 17 4q9 2 18 5q16 4 23 7q5 2 10.5 3.5t13.5 2.5t23 2l9 1q5 0 12 -1t14 -7q5 1 9 3q4 1 7 2h4q23 5 47 7h13q93 0 175 -42q8 -4 17 -9q22 -11 45 -23.5t35 -25.5q3 -3 6 -5q1 -2 4 -5q9 -10 18 -17q5 -5 12 -11q19 -21 32 -52q5 -11 11 -21q1 -3 2 -4l2 -4
t2 -5q13 -38 18 -78q3 -25 3 -49q0 -78 -30 -151q-6 -14 -12 -27l-14 -25l-2 -6q-1 -4 -3 -7q-15 -28 -35 -50q-3 -3 -5 -7q-4 -5 -10 -9q-2 -2 -4 -3q-4 -3 -7 -6q2 -2 7.5 -5.5t12.5 -7.5q11 -7 16 -11q2 -1 3 -2q17 -11 31 -24l7 -7q4 -3 9 -8q53 -53 83 -124l6 -18
t3 -11q1 -6 4 -18q17 -68 17 -135q0 -65 -16 -129q-5 -24 -13 -46q-42 -103 -118 -180q-4 -3 -8 -7q-3 -4 -7 -8q-23 -21 -49 -40q-13 -10 -37.5 -24t-38.5 -18q-13 -4 -26 -9q-9 -4 -18 -7q-2 0 -4 -1q-32 -11 -65 -19q-5 -1 -10 -1h-4q-6 0 -12 -1q-26 -4 -53 -7
q-28 -2 -58 -2q-10 1 -21 2l-18 1l-17 -1h-6q-18 0 -47.5 6t-48.5 11q-17 5 -27 8.5t-15.5 6t-8 4.5t-3.5 3l-2.5 2.5t-5.5 3.5q-2 1 -5 2q-8 3 -14 8z" />
    <glyph glyph-name="four" unicode="4" horiz-adv-x="1027" 
d="M602 1512l18 22q4 3 8.5 7t9.5 6l9 1q2 -4 8 -12t12 -15q4 -5 7 -8q2 -4 4 -6l3 -4.5t3.5 -2l7.5 -1.5l28 -3.5t39 -5t23 -3.5q3 -1 6 -4.5t4 -8.5q1 -6 1 -12q0 -12 -3 -25q-2 -10 -3 -20v-3q-1 -13 -1 -26v-16q0 -22 2 -36t5 -24q4 -11 7 -34q2 -27 2 -55v-15
q0 -22 -1.5 -31.5t-2.5 -15.5q-1 -4 -2 -9t-2 -12v-16q-1 -9 -1 -18q-3 -39 -3 -78q0 -20 1 -39v-64q-1 -21 -5 -29q-1 -4 -1 -8v-337q0 -4 2 -9q0 -2 0.5 -3t1.5 -1.5t2 -1.5q1 0 2 -1q11 -5 15 -8l6 -3h2h2t4 1q2 1 4 1q5 2 11 2l6 1l7 -1h22q6 1 10 1t7.5 -1t6.5 -4.5
t8 -10.5q4 -7 10 -17q2 -2 3 -4q3 -4 6 -8.5t5 -5.5t5 -3q4 -3 8.5 -5.5t5.5 -4.5h-9v-1h-1v-1q-4 -2 -14 -3h-10h-13t-12 1t-12 1t-26 -1t-40 -1q-13 -1 -19 -1l1 -109v-34q0 -24 0.5 -46.5t-0.5 -36.5q-2 -20 -4 -29q-2 -4 -2 -6q0 -44 1 -88v-35q6 -3 14 -5q5 -2 10 -3
q18 -7 29 -9t20 -3q12 -1 29 -5q1 -3 1 -8q0 -4 -0.5 -12.5t-1.5 -15.5h-9q-8 -1 -23.5 -4t-23.5 -5q-15 -3 -32 -3h-9q-7 1 -13 1h-140q-11 0 -20 -1q-7 0 -14 -1q-8 -1 -16 -1q-9 -1 -15 -3q-7 -2 -13 -2h-15h-10.5t-7 1.5t-9.5 3.5q-4 2 -11 5q-7 2 -13 2q-7 1 -11 3
q-2 1 -3 3t-1 4q1 12 1 19q0 6 0.5 9t1.5 4t4 2h1l108 28q1 10 0.5 23.5t-1.5 22.5q-3 20 -4 40v4q-1 32 -1 71v84q0 74 -5 128q-29 -1 -44 -4q-11 -3 -26 -4q-3 0 -8 -1q-16 -1 -33 -1q-18 0 -26 7q-4 1 -12 1t-26 -1t-43.5 -2t-35.5 -2l-86 -4q-16 0 -32 -1q-9 0 -14.5 -1
t-13.5 -3q-13 -3 -26 -4q-23 -2 -36 -2q-12 0 -18 1t-8 2t-4 1.5t-4 0.5h-6q-6 0 -12 -1t-14 -3q-4 -1 -8 -3q-8 -2 -19 -4h-6q-8 0 -15 2l-1.5 1.5t-1 0.5t-1.5 1q0 1 -1 1l-1 2h-1v1q-1 0 -1 1q0 2 2 22.5t4 44.5t4 39q0 5 1 8q1 10 9 11q4 1 8 1t8 -1q2 0 5 -1
q6 15 14 29q9 16 17 34q13 30 29 58l2 4q16 28 30 54q19 34 37 67q1 2 2 3q8 14 14 29q4 7 7 15q4 9 8 17q15 32 32 61q11 17 17 25.5t10 11.5t6 4l4 4l39 66q34 58 67 113q36 61 73 123q7 13 11 19.5t6 11t4 10.5q3 7 10 22q23 46 53 87q8 10 17 16q4 3 7 7q2 1 4 3.5
t4 5.5q2 2 3 4t2 3q2 2 2.5 3t0.5 2.5v5.5v3q1 11 4 20q2 4 3.5 5.5t3.5 2.5q1 1 1.5 2t1.5 4zM180 570q3 -3 9 -3.5t10 -0.5h65q14 1 29 1q5 1 9 1q7 0 13 -2q4 -1 9 -1h9h7q12 0 25 1q11 1 23 1q47 1 95 3q8 1 13 2q3 1 8 2q10 1 28 2t34 1h10q2 10 2 23q0 12 1.5 23
t8.5 18q0 1 0.5 1t1.5 1v1l1 1l-2 408v39q0 32 -3 59q-4 21 -7 43l-2 28q0 10 -1 20l-26 -40q-9 -13 -16 -26q-5 -8 -9 -16q-3 -4 -7 -11q-11 -19 -24 -40t-22 -30q-4 -4 -10.5 -15t-11.5 -21q-2 -3 -3 -5l-99 -168q-3 -5 -6 -9q-3 -6 -7 -12l-10 -23q-9 -18 -23 -43
t-25 -43q-5 -9 -15 -28q-15 -28 -32 -58.5t-26 -40.5q-2 -2 -7 -11t-10 -19t-7 -13z" />
    <glyph glyph-name="five" unicode="5" horiz-adv-x="921" 
d="M136 18h-7q-4 1 -9 1t-13 -2q-9 -2 -23 -9q-14 -6 -28 -11q-9 -3 -16 -3q-3 0 -6 1q-7 3 -8 8v16q2 18 4 28q1 12 2 25q1 6 1 15q0 10 -1 22q-2 34 -6 67q-3 22 -5 43v2q-1 26 -7 51q-3 11 -8 21l-1 1q-3 5 -4 10q-1 2 -1 5t2 6h4q5 0 12.5 -2t11.5 -5t8 -7q4 -5 10 -9
l10 -5q7 -3 12 -8.5t13 -21.5q4 -10 4 -17q0 -6 2 -11q3 -8 10 -15l4 -6q6 -9 10 -18q3 -8 8 -16l6 -9q13 -3 23 -8q8 -4 20.5 -8t35.5 -7q13 -2 23 -2t23 3q9 1 23.5 1.5t23.5 0.5h3h6.5t5 0.5t6.5 1.5h1l57 16q73 24 130 70q27 22 40 40.5t24 41.5q8 15 18 34q14 27 15 49
q2 14 6 30q1 1 1 3q6 18 8 38q0 7 -1 13v36q-2 45 -17 83q-32 74 -88 110q-6 5 -15.5 10.5t-17.5 7.5q-5 1 -21 6t-32.5 10.5t-20.5 8.5q-55 25 -119 30h-2q-11 1 -30 2t-38 1h-11q-10 0 -16 -1v-13l-117 2l-1 1v20q0 7 -1 13q-3 26 -3 54q0 14 1 28v21q0 19 -1 34l-2 12
q-2 9 -3 18v35q0 10 1.5 15t3 6.5l2.5 2.5q0 1 0.5 1.5t1.5 0.5q1 103 1 206q0 13 -3 24q-3 10 -4 21v24.5t1 13.5t2 9q1 3 2 8.5t2 16.5q-1 7 -4 13q-1 4 -2 6q-3 13 -3 20t2.5 10t5.5 4q2 1 3 3q1 7 1 25q1 16 2.5 31t5.5 18q1 1 3 1q4 0 11 -3q11 -4 26 -4q10 0 15 2t9 5
q6 4 17 7q7 2 19 2q8 0 18 -1q6 0 9.5 -1t7.5 -2q1 -1 2 -1l41 -6h70q14 0 20 -1t9 -3q2 -1 5 -1.5t8 -0.5h167h6t3.5 0.5l4.5 1.5q2 0 4 1q8 2 29 3t45.5 1h43.5h20q5 0 10.5 -0.5t9.5 -3.5q2 -1 3 -2h1q0 -1 0.5 -1h1.5h3h59l-1 -67h3q6 0 8.5 -4.5t2.5 -11.5l1 -7
q0 -4 -0.5 -10.5t-0.5 -13.5q-2 -32 -2 -61l-3 -92q0 -2 -1 -7l-2 -10t-3 -7h-2q-5 0 -12.5 4t-13.5 9q-3 2 -5 3q-4 4 -9 6l-6 4q-28 21 -46 52q0 1 -1 2q-1 2 -2.5 5.5t-3 5.5t-2.5 3q-27 0 -53 -1q-11 0 -19 -1.5t-17 -3.5l-8 -2q-14 -4 -36 -4t-37 3q-7 1 -9.5 3.5
t-4.5 8.5l-227 -2h-12q-5 1 -11 1q-15 0 -32 -5q-2 -1 -4 -1q-4 -2 -6 -2.5t-2.5 -2l-1.5 -4.5q0 -3 -2 -13l-5 -37l-1 -64q0 -8 -2 -12q-1 -3 -1 -6q-1 -8 -1.5 -30.5t-0.5 -45.5v-71q0 -3 1 -5l1.5 -10.5t0.5 -8v-12.5v-3q14 2 27 4q20 3 39 5h4q20 2 40 2q13 0 27 -1
t27 -2q54 -2 106 -11q136 -26 225 -104q2 -1 3 -2q9 -7 16 -15q6 -8 11 -14q2 -4 5 -7q43 -48 72 -110q24 -52 37 -117q7 -37 7 -74q0 -28 -4 -57q-25 -148 -112 -253q-6 -7 -11 -13q-3 -3 -6 -7q-25 -29 -56 -53q-108 -83 -255 -112q-64 -13 -132 -14q-34 0 -67 6
q-10 2 -21 4q-5 1 -10 1q-1 1 -4 1q-6 1 -14.5 2.5t-12.5 3.5z" />
    <glyph glyph-name="six" unicode="6" horiz-adv-x="954" 
d="M384 4q-101 9 -172.5 67t-112.5 137q-26 53 -48.5 120t-33.5 123q-4 15 -8.5 44t-7.5 58q-1 12 -1 21q0 14 2 23q1 5 1 12.5v15.5q0 6 1 11q1 56 8 113q9 71 25 138q17 65 54.5 143.5t74.5 135.5q16 25 34 47q109 131 268 220q72 37 142 50q20 5 42 11q16 4 32 9l12 4
q10 4 18 6l23 -90q-21 -10 -39 -20q-14 -7 -29 -13q-7 -3 -13 -5q-20 -9 -40 -19q-16 -9 -30 -19q-3 -2 -7 -4q-19 -13 -56.5 -42.5t-59.5 -49.5q-71 -62 -121 -145q-15 -26 -24 -58q-5 -14 -10 -27q-4 -9 -8 -17q-6 -12 -10 -24l-9 -50q5 2 17 8q14 8 29 14q37 15 85 23
q43 7 79 7h9q35 -2 56 -5.5t51 -11.5q4 -1 9 -3q27 -7 51 -17q12 -5 22 -12q27 -16 44 -35q10 -9 21 -19q29 -25 42.5 -46t26.5 -52q3 -7 6 -13q2 -6 6 -12q3 -6 5 -11q3 -6 5 -13t4 -13q25 -96 25 -192q0 -89 -21 -177v-16q-2 -18 -9 -44.5t-15 -42.5q-21 -38 -47.5 -79.5
t-54.5 -73.5q-14 -17 -31 -32q-32 -28 -80 -47q-47 -19 -102 -19h-6q-15 0 -29 1q-16 1 -33 1q-14 0 -29 -1q-16 -1 -32 -1zM419 821q-55 -5 -99 -20q-10 -3 -21 -5q-4 -1 -15 -4q-8 -2 -17.5 -4t-16.5 -4t-9 -3q-1 -2 -3 -13.5t-4.5 -24.5t-3.5 -20v-2q-10 -64 -10 -131
q0 -34 2 -67q1 -4 1 -8.5t1 -7.5l2 -8q2 -2 3 -5q5 -20 9 -44q2 -8 3 -15q1 -9 1 -21v-13q3 -31 11 -60q7 -28 17 -53q6 -14 13 -27l10 -22q16 -37 41 -67.5t62 -45.5q21 -7 42 -12q3 -1 5 -1h3t3 1q2 0 4 1q37 9 55.5 20t36.5 33q20 23 44.5 62.5t34.5 71.5q9 28 14 57
q4 20 7 46.5t4 47.5v8q0 14 2 27l2 6q1 3 1 8q0 3 1 7v14q0 16 -1 31q-2 61 -22 119q-4 9 -6 18q-6 17 -13 34q-23 51 -71 73q-5 3 -10 5q-18 10 -43 15q-24 4 -50 4q-10 0 -20 -1z" />
    <glyph glyph-name="seven" unicode="7" horiz-adv-x="811" 
d="M305 1494l238 2h14q12 0 23 3q1 1 2 1q15 5 30 7q3 0 7 1q9 1 17 1h12.5t15.5 -8q3 -3 5.5 -3.5t5.5 -0.5q2 1 6 1q7 0 15 6q6 5 13 7q3 1 6 1q4 0 9 -2q3 -2 5 -6t2 -7q1 -1 1 -4t-0.5 -11t-1.5 -21.5t-1.5 -25t-0.5 -14.5l-4 -77q0 -1 1 -1.5t1 -1.5q1 0 2 -2l-2 -8
q-3 -7 -4 -17v-4q0 -5 -1 -10t-2.5 -6.5t-3.5 -1.5q-1 0 -2 -1t-2 -3q-18 -39 -29 -80q-7 -26 -16 -52q-13 -32 -27 -64l-12 -24q-18 -40 -35 -81q-13 -34 -17 -58q-4 -18 -10 -38q-3 -8 -6 -15q-7 -12 -10 -30q-5 -27 -9.5 -39t-9.5 -21q-3 -6 -7 -16t-9 -27q-1 -5 -3 -9
q-1 -1 -1 -2q-5 -11 -14 -30q-15 -32 -30.5 -67.5t-20.5 -51.5q-3 -12 -7 -24t-7 -22q-13 -50 -24 -99q-23 -101 -36 -208q-1 -3 -1 -7q-2 -11 -2 -21q0 -4 1 -9l2 -10q1 -4 2 -7q2 -14 2 -28t-2 -29v-3q0 -7 -2.5 -11.5t-6.5 -9.5q-2 -2 -2.5 -4t-0.5 -5v-3q0 -7 0.5 -11
t1 -7t2.5 -6q2 -4 5 -14q2 -6 2.5 -13.5t-1.5 -13.5q-3 -8 -9 -10h-1l-2 -2h-2q-3 0 -14.5 1t-26.5 2.5t-28 3.5q-13 1 -17 2l-82 9q-4 0 -7 0.5t-5 0.5t-3 0.5t-1.5 0.5t-0.5 1h-1v1h-1q-1 0 -2 0.5t-4 0.5l-2 -6l-64 13q4 22 4 42q1 5 1 9q0 13 2 26l2 24q2 50 8 100
q10 69 31 133q3 9 7 18q4 11 7 22q5 17 15 53q13 48 27.5 98t24.5 67q1 2 2 3q1 0 1.5 1.5t1.5 3.5l71 172q12 31 27 57q4 8 9 16q18 35 37 70l38 70q2 5 5 11q2 4 4 7q7 13 19 29q8 11 13 20q18 28 35 55q25 38 49 78q5 8 9 16q10 17 21 34q1 2 3 5q3 3 5 6t3 5q-8 2 -15 3
q-7 0 -13 1q-13 3 -30 3t-35 -1h-29q-7 0 -10.5 1t-5.5 2q-1 1 -3.5 2t-6.5 1h-175q-4 0 -5.5 -0.5t-2.5 -1.5q-1 0 -2 -0.5l-3 -1.5q-10 -1 -43 -2h-34h-41t-36 1q3 -19 3 -40v-13q1 -5 1 -10q0 -4 -0.5 -8t-3.5 -7.5t-10 -8.5q-3 -3 -7 -6q-5 -4 -10 -9t-10 -9
q-3 -2 -4.5 -3.5t-2.5 -3t-2 -3.5t-2 -5t-2 -5q-3 -6 -5 -12q-2 3 -2 8v3l-2 2q-4 8 -4 18v13q-1 11 -1 17t1 10v10q0 20 -2 39q-1 6 -1 13v5q0 5 -0.5 7t-1.5 3t-1 2v5v24.5t-1 34t-2 21.5l-5 10q-3 3 -5 7t-2 12q-1 3 -1 6v6v6t2 5.5t7 7.5h1q0 6 -0.5 9t-1.5 5t-4 5t-6 7
t-3 10q1 8 11.5 10t24.5 2h7q10 0 18 2q10 1 33.5 1.5t48.5 0.5h38q14 1 26 5q7 2 15 4q14 2 35 2t35 -4q4 -1 6.5 -3t3.5 -5q1 0 1 -0.5t1 -0.5v-1h1v-1z" />
    <glyph glyph-name="eight" unicode="8" horiz-adv-x="925" 
d="M197 810q0 1 -3 3.5t-7 5.5l-9 9q-4 5 -9 10q-11 12 -21 23.5t-21 29.5q-15 23 -28 49q-5 12 -7.5 19t-3 10.5t-0.5 6.5q-1 1 -1 3t-1 5l-4 14q-12 44 -18 102q-3 29 -3 56q0 26 3 50q7 42 23.5 87.5t36.5 80.5q15 24 31 45q3 4 10.5 11.5t15.5 14.5t13 11q39 34 97 55
q35 10 98 15q40 3 70 3q18 0 32 -1q45 -4 83.5 -25.5t67.5 -50.5q11 -11 21 -23q7 -9 15 -17q13 -14 27.5 -31t22.5 -34q3 -6 5 -13l6 -14q5 -9 10 -16q10 -14 15 -34q3 -13 5 -25q3 -20 8 -39q3 -12 3.5 -35t0.5 -38q-2 -123 -54 -232q-2 -6 -3 -11q-1 -6 -6 -18t-21 -36
q-12 -16 -27 -26q-8 -6 -12 -10q1 -2 3.5 -3.5t4.5 -3.5q3 -2 5 -4l2 -2q10 -8 16 -14l16 -16q5 -4 9 -9q1 -1 2 -3l22 -23q5 -6 9 -11q10 -10 22 -25q10 -14 14.5 -22.5t7.5 -15.5q3 -9 9 -20q3 -5 6 -9q6 -9 11 -19q11 -24 15 -55q2 -9 3 -16q2 -8 3 -13q3 -11 5 -25
q2 -20 2 -41q0 -47 -9.5 -108.5t-34.5 -119.5l-22 -46q-4 -15 -8 -23.5t-13 -22.5q-8 -12 -12.5 -18t-8 -10t-11.5 -9q-4 -4 -11 -10q-62 -51 -141 -83q-34 -11 -94 -11q-9 0 -51 1t-115 15.5t-111 40.5q-3 3 -7 6q-22 16 -44 33q-34 28 -65.5 69t-50.5 84q-2 7 -3.5 10.5
t-2 6t-0.5 4.5t-1 5t-2 9q-6 18 -10 35q-17 67 -17 140v22q5 80 34 146q12 31 33 66.5t43 59.5l11 11q23 21 50 40zM412 734q-24 -6 -45 -15q-1 0 -3 -1q-35 -13 -63.5 -30.5t-49.5 -49.5q-10 -18 -14 -40q0 -4 -1 -9q-3 -8 -6 -15q-1 -4 -3 -9q-2 -7 -2 -13q0 -4 1 -8v-8
q0 -14 -3 -25q-4 -10 -4 -22q0 -4 1 -9q0 -11 -1 -24v-21q0 -78 31 -148q1 -1 1 -2q3 -5 4 -7.5t2.5 -4l3.5 -3.5q1 -1 3 -2q6 -6 12 -14q1 -2 3 -3q2 -3 3 -5q2 -2 3.5 -4t2.5 -4.5l3 -7.5q9 -22 26 -39t35 -28q17 -7 30 -13q33 -15 45 -17.5t17 -2.5q13 0 25 6q18 9 51 34
q12 9 27 19q16 15 27 38q23 48 31 84q4 18 7 22q1 2 2 3q0 1 0.5 1t0.5 0.5t0.5 2t0.5 3.5q0 1 1 2q9 39 9 80v8q-1 17 -2 33l-2 28q-2 56 -22 106l-22 44q-35 68 -112 81q-14 2 -27 5q-2 0 -5 1q-6 2 -10.5 3t-6.5 1q-3 0 -5 -1zM419 1400q-20 -6 -36 -15h-1q-6 -3 -12 -5
q-11 -5 -23 -12q-14 -8 -28 -22.5t-20 -31.5q-3 -11 -5 -22q-1 -11 -4 -21q-1 -3 -2 -5q-3 -7 -3 -16v-12q1 -7 1 -13q0 -9 -3 -18q-3 -8 -3 -17q0 -5 1 -10q1 -3 1 -9q0 -5 -1 -12q-1 -8 -1 -18q0 -21 3 -48q3 -41 24 -93q2 -5 3.5 -8t2.5 -4l1.5 -1.5l1.5 -1.5l2 -1l4 -4
t7 -9q6 -7 8 -11l3 -6t1 -4q0 -1 1 -4.5t4 -9.5q10 -18 22 -29q4 -3 7.5 -5.5t7.5 -5.5q8 -6 14 -13l6 -6l23 -17q3 -2 6 -2q1 0 3 1q5 2 11 7q5 4 11 9q6 4 17 13.5t21.5 19.5t15.5 16q9 14 17 35t12 39q1 5 2 11q3 18 8 31q0 2 1 3l2 2v1q1 2 1.5 5t1.5 8q6 35 6 70
q0 25 -3 51q-1 11 -1 22q0 13 -2 27q-5 43 -23 80q-5 11 -8 19q-4 11 -10 20.5t-21 24.5q-12 11 -33 18q-3 0 -7 1q-9 3 -19.5 5.5t-15.5 2.5z" />
    <glyph glyph-name="nine" unicode="9" horiz-adv-x="913" 
d="M537 551q-1 -1 -11 -4t-22.5 -7t-22.5 -6q-32 -6 -63 -6q-64 0 -125 24q-53 21 -95 51q-48 28 -78 66q-9 13 -14 19.5t-13 15.5q-2 3 -5 6l-3 3q-8 9 -14.5 18t-11.5 22q-7 16 -13 31q-6 18 -13 35q-1 3 -2 5q-3 6 -4.5 9.5t-2.5 7.5l-3 12q0 3 -1 7q-20 84 -20 172
q0 47 6 95v4q4 30 10 59q1 10 1 18q1 7 2 15q4 30 14 58q4 12 9 20q2 2 3 5q14 23 28 45q40 67 98 119q70 53 163 53h3q13 0 25 -1q13 -2 26 -2q8 0 17 1q19 1 35 1q17 0 39.5 -2t56.5 -12q23 -7 49.5 -21t45.5 -29q2 -2 5 -4q8 -6 15 -12q68 -65 104 -151q9 -23 18 -47
q1 -3 2 -5q41 -109 55 -235q2 -15 3 -35q1 -9 1 -18t-1 -17q-1 -4 -1 -7q-1 -4 -2 -9q-3 -122 -29 -243q-1 -3 -2 -7q-5 -27 -12 -50q-53 -157 -145 -291q-25 -34 -48 -57q-9 -10 -20 -22q-69 -74 -158 -132q-41 -29 -91 -53q-65 -29 -123 -40q-34 -8 -72 -20q-5 -1 -11 -4
q-10 -3 -16 -5q-1 2 -4.5 15t-7.5 29.5t-7 30t-4 15.5l19 10q13 6 21 10l16 8t22 10q20 8 40 18q37 20 85 58t79 66q57 52 106 125q12 17 21 37q9 19 17 42q0 2 1 4q6 19 14 38q2 3 4 8q9 16 12 33zM572 683q4 10 9.5 33.5t10 47.5t6.5 36q15 86 15 173q0 31 -2 62l-8 29
q-1 6 -3 19l-4 26t-2 17q0 95 -42 175l-9 18q-7 16 -15 29q-24 48 -71 72q-12 6 -26 10l-6 2q-6 1 -11.5 1.5t-13.5 -1.5q-29 -7 -51 -21q-23 -15 -38 -35q-13 -17 -20.5 -27.5t-13 -20t-13.5 -24.5q-4 -7 -8 -16q-19 -38 -25 -88.5t-7 -95.5v-16q-1 -6 -2 -10q-1 -2 -2 -5
v-36q2 -66 18 -126q1 -5 3 -11q2 -8 5 -17q8 -42 27 -81q17 -35 44 -62q4 -4 8 -9t10 -10q36 -34 100 -44q9 -1 22 -1q19 0 45 2q44 3 70 5z" />
    <glyph glyph-name="colon" unicode=":" horiz-adv-x="332" 
d="M130 318q3 1 5 1q3 0 5.5 -1.5t4 -4.5l2.5 -5v-2q1 -1 4.5 -2.5t7.5 -2.5q3 -1 6 -2.5t4 -1.5q10 -6 19 -13q2 -1 4 -3q25 -17 38 -46q8 -20 8 -41q0 -19 -7 -38q-2 -5 -4 -7l-3 -3l-2 -2q-2 0 -3 -1t-2 -3q-32 -63 -109 -75q-8 -1 -15 -1q-20 0 -40.5 9.5t-32.5 25.5
q-20 26 -20 61q0 17 5 37l4 12q1 6 2 10q1 5 2.5 10.5t6.5 14.5q11 22 38 41t52 23q4 0 6 1t3 3q1 1 3.5 2.5t7.5 3.5zM143 976q3 1 6 1q2 0 4.5 -1.5t4.5 -4.5t2 -5l1 -2q1 -1 4 -2t7 -3l6 -2t5 -2q10 -6 18 -12q3 -2 5 -4q24 -16 38 -46q8 -20 8 -40q0 -19 -7 -38
q-2 -5 -4 -7.5t-3.5 -3.5t-2.5 -1q-1 -1 -2 -1.5t-3 -3.5q-32 -63 -108 -75q-8 -1 -15 -1q-20 0 -40.5 9.5t-32.5 25.5q-20 26 -20 61q0 17 5 37q0 3 1 6q2 3 2 6q2 6 2 10q1 5 3 10.5t6 14.5q12 22 38.5 41t51.5 23q5 0 6.5 1t3.5 3q1 1 3 2.5t7 3.5z" />
    <glyph glyph-name="semicolon" unicode=";" horiz-adv-x="320" 
d="M36 295q10 24 34 24q1 0 14 -1t39 -15.5t37 -25.5l10 -10q2 -2 5 -4.5t6 -7.5q22 -26 28 -42t6 -26t4 -20q10 -25 10 -50q0 -27 -11 -54q-1 -3 -1 -4v-6q2 -2 3 -6t1 -9q0 -14 -8 -36t-15 -35q-4 -6 -6 -9.5t-6 -5t-12 -3.5q-13 -5 -24 -9t-23 -8q-9 -4 -19 -15
q-8 -8 -15 -12q1 5 3 7q2 4 3 8q1 9 4 17l9 18t12.5 23.5t9.5 15.5q19 29 18.5 60t-16.5 39h-5t-4 -1q-3 -1 -9 -1h-3q-6 0 -15 2q-4 2 -8 2q-7 2 -12.5 4.5t-8.5 8.5l-3 4.5t-2 2t-4 1.5q-1 0 -4 1l-6 1.5t-3 0t-3 -0.5q-2 -1 -5 -2q-7 -2 -14 -2q-2 0 -8.5 0.5t-9.5 8.5
q-1 3 -3 5q-3 8 -5 15q-1 4 -1 7t1 6l2 63zM132 976q3 1 5 1q3 0 5.5 -1.5t4 -4.5l2.5 -5v-2q1 -1 4 -2t7 -3l6 -2t5 -2q0 -1 1 -1q10 -5 18 -11l4 -4q25 -17 38 -46q8 -20 8 -40q0 -19 -7 -38q-2 -5 -4 -7.5t-3.5 -3.5t-2.5 -1q-1 -1 -2 -1.5t-2 -3.5q-33 -63 -109 -75
q-8 -1 -15 -1q-20 0 -40.5 9.5t-32.5 25.5q-20 26 -20 61q0 17 5 37l2 6q1 3 1 6q2 6 3 10q1 5 2.5 10.5t5.5 14.5q12 22 38.5 41t52.5 23q4 0 6 1t3 3q1 1 3.5 2.5t7.5 3.5z" />
    <glyph glyph-name="semicolon" unicode="&#x37e;" horiz-adv-x="320" 
d="M36 295q10 24 34 24q1 0 14 -1t39 -15.5t37 -25.5l10 -10q2 -2 5 -4.5t6 -7.5q22 -26 28 -42t6 -26t4 -20q10 -25 10 -50q0 -27 -11 -54q-1 -3 -1 -4v-6q2 -2 3 -6t1 -9q0 -14 -8 -36t-15 -35q-4 -6 -6 -9.5t-6 -5t-12 -3.5q-13 -5 -24 -9t-23 -8q-9 -4 -19 -15
q-8 -8 -15 -12q1 5 3 7q2 4 3 8q1 9 4 17l9 18t12.5 23.5t9.5 15.5q19 29 18.5 60t-16.5 39h-5t-4 -1q-3 -1 -9 -1h-3q-6 0 -15 2q-4 2 -8 2q-7 2 -12.5 4.5t-8.5 8.5l-3 4.5t-2 2t-4 1.5q-1 0 -4 1l-6 1.5t-3 0t-3 -0.5q-2 -1 -5 -2q-7 -2 -14 -2q-2 0 -8.5 0.5t-9.5 8.5
q-1 3 -3 5q-3 8 -5 15q-1 4 -1 7t1 6l2 63zM132 976q3 1 5 1q3 0 5.5 -1.5t4 -4.5l2.5 -5v-2q1 -1 4 -2t7 -3l6 -2t5 -2q0 -1 1 -1q10 -5 18 -11l4 -4q25 -17 38 -46q8 -20 8 -40q0 -19 -7 -38q-2 -5 -4 -7.5t-3.5 -3.5t-2.5 -1q-1 -1 -2 -1.5t-2 -3.5q-33 -63 -109 -75
q-8 -1 -15 -1q-20 0 -40.5 9.5t-32.5 25.5q-20 26 -20 61q0 17 5 37l2 6q1 3 1 6q2 6 3 10q1 5 2.5 10.5t5.5 14.5q12 22 38.5 41t52.5 23q4 0 6 1t3 3q1 1 3.5 2.5t7.5 3.5z" />
    <glyph glyph-name="less" unicode="&#x3c;" horiz-adv-x="606" 
d="M285 479l-128 89q-2 1 -4 3q-5 3 -9 5l-7.5 3t-3.5 1q-3 0 -6 1t-9.5 4.5t-18.5 10.5q-9 6 -12 10t-4 7q-1 2 -2 3t-4 2l-2 1l-1 -1q-1 0 -2 -1t-3 -1h-5q-2 0 -3 0.5t-2 1.5l-1 1v1q-2 2 -2 3t-0.5 1.5t-2 1.5t-4.5 1q-8 2 -14.5 7t-6.5 15q1 3 3 6q2 2 3 4.5t1 4.5
l-31 59q0 1 -1 2q-2 3 -3 7v3q0 2 1 5t6 6t11 6q5 3 9 5q14 10 20 17t9 14q4 7 12 14q11 10 24 20q5 3 9 4q3 1 6 3t7 4q2 2 6 4q11 7 19 14q3 2 6 5q12 9 24 19q0 1 1 2q6 5 11 8q2 1 3 1l1 1l1 -1q1 0 1.5 0.5t2.5 1.5t5 4l72 58q8 7 15 13q5 3 10 7q2 2 3.5 4t2.5 3
q2 2 4 5q5 5 21.5 18.5t34 28t27.5 22.5l7.5 6t3.5 2.5t3 0.5l6 3q3 1 10 7t16 14q9 7 17 13.5t11 8.5q2 -2 4 -4.5t3 -5.5q1 -2 2 -3l2 -4q3 -4 6 -9q3 -4 10.5 -16t16 -26t15 -25t7.5 -13q-14 -10 -29 -26l-12 -12q-14 -12 -28 -23q-7 -6 -15 -12q-4 -4 -10 -8
q-9 -7 -18 -14.5t-14 -13.5q-22 -29 -51 -47q-4 -2 -6.5 -2h-3.5h-5l-65 -53q-21 -18 -43 -36q-1 0 -5 -4q-6 -5 -14 -11.5t-15 -12t-8 -7.5q3 -3 8 -6q2 -1 4 -3q2 -1 3 -2.5t2 -2.5l4 -4l19 -18q11 -8 22 -15t22 -15q4 -3 5.5 -5t1.5 -3q1 -1 2 -3l75 -54q5 -3 10 -7
q6 -5 13 -9q2 -1 5 -3q4 -1 7 -3q9 -5 22 -14t24 -17q5 -4 9 -7t10 -6q7 -5 13 -9q3 -3 5 -4.5t2.5 -2.5t1.5 -2q0 -1 1 -2l3 -3t6 -4l3 -3q9 -6 19 -12l3 -3q5 -3 10 -6.5t8 -6.5q-1 -2 -6 -11.5t-11 -21t-10 -18.5q-2 -2 -2 -4l-8 -14q-4 -6 -7 -13q-2 -2 -4 -6
q-3 -6 -6.5 -12t-4.5 -9q-3 1 -7 3.5t-9 5.5q-5 4 -8 6q-4 2 -7 3t-6 3q-26 16 -49 33q-15 11 -32 21q-6 5 -14 7q-6 2 -11 5q-11 6 -23 15q-7 5 -11.5 10t-4.5 13z" />
    <glyph glyph-name="equal" unicode="=" horiz-adv-x="521" 
d="M258 850l-138 -1q-5 0 -8.5 -1t-6.5 -2q-3 -2 -8 -3q-9 -2 -20 -2h-5q-7 0 -10.5 0.5t-5 1.5t-1.5 2l-4 2q-4 2 -7 2t-7 -1.5t-10 -3.5q-5 -3 -11 -5h-3q-3 0 -8 2q-4 2 -5 7v14q0 5 1 10q0 8 1 16q2 21 3 48q1 16 2 30q1 9 5 10h3q3 0 8 -1q7 -2 17 -2h8q6 0 9 1.5
t6 2.5q3 2 6 3q4 2 11 2l6 1l6 -1h3q7 0 18 -3q10 -3 17 -4l42 1q4 0 6 -0.5t3 -1t2 -0.5q1 -1 2 -1.5t3.5 -0.5h8.5h82q7 0 12 1q6 2 13 2q9 1 27 1t35 -0.5t21 -1.5q5 -2 9 -2h44q0 -4 0.5 -20t0 -37t-0.5 -38.5t-1 -24.5q-5 -1 -13 -1l-6 1l-5 -1q-19 -4 -39 -4
q-7 0 -15 1h-22q-11 0 -20 -1q-5 -1 -10 -3q-6 -2 -14 -3h-21q-2 1 -5 1.5t-5 1.5q-1 0 -1.5 0.5l-1.5 1.5v1zM258 425l-138 -1q-5 0 -8.5 -1t-5.5 -2q-4 -2 -9 -3q-6 -1 -13 -1h-7q-3 0 -5 -1q-7 0 -10.5 0.5t-4.5 1.5l-2 2q-1 0 -2 1t-2 1q-4 2 -7 2t-7 -1t-10 -4
q-5 -3 -11 -4q-2 -1 -4 -1q-3 0 -7 2t-5 7v14q0 5 1 10q0 8 1 16q2 21 3 48q1 16 2 31q1 8 5 9q2 1 4 1q3 0 7 -2q7 -2 17 -2h8q6 1 9 2t6 3l6 2q4 2 10.5 2.5t12.5 0.5h3q7 -1 18 -4q10 -2 17 -3h42q4 0 6 -0.5t3 -0.5t2 -1q1 0 2 -0.5t3.5 -1t8.5 -0.5h82q8 0 12 2
q6 1 13 2h27t35 -0.5t21 -1.5q5 -2 9 -2h10h34q0 -4 0.5 -20t0 -37t-0.5 -38.5t-1 -23.5q-3 -1 -8 -1h-5q-6 0 -11 -1q-21 -3 -42 -3h-40q-7 0 -14 -1l-10 -2q-6 -2 -14 -3h-21q-2 0 -5 0.5t-5 1.5q-1 0 -1.5 1t-1.5 2z" />
    <glyph glyph-name="greater" unicode="&#x3e;" horiz-adv-x="606" 
d="M241 479q0 -8 -4.5 -13t-11.5 -10q-12 -9 -23 -15q-5 -3 -11 -5q-8 -2 -14 -7q-17 -10 -32 -21q-23 -17 -49 -33q-3 -2 -6 -3t-7 -3q-3 -2 -8 -6q-5 -3 -9 -5.5t-7 -3.5q-1 3 -5 10t-7 12q-2 3 -3 5l-6 12q-4 8 -9 15q-1 3 -5.5 11t-10 18t-9.5 17t-4 9q3 3 8 6.5t10 6.5
l3 3q10 6 20 13l2 2q4 2 6 4l3 3t1 2q1 1 1.5 2t2.5 2.5t5 4.5q6 4 13 9l10 6q4 3 10 8q12 8 24 16.5t21 13.5q3 2 7 3q3 2 5 3q7 4 14 9q4 4 8 7l76 54q1 2 1 3q1 1 2.5 3t5.5 5q11 8 22 15t22 15l19 18q3 2 4 4q1 1 2 2.5t3 2.5q2 2 4 3q5 3 8 6q-1 2 -8 7.5t-15 12
t-14 11.5q-4 4 -5 4q-22 18 -43 36l-65 53h-5h-3.5t-6.5 2q-29 18 -51 47q-5 6 -14 13.5t-18 14.5q-6 4 -10 8q-7 6 -15 12q-14 11 -28 23l-12 12q-15 16 -29 26q1 2 7.5 13t15 25t16 26t10.5 16q3 6 7 12l1 1q1 1 2 3q2 3 3.5 5.5t3.5 4.5q3 -2 11 -8.5t17 -14.5t16 -13.5
t10 -6.5l6 -3q2 0 3 -0.5t3.5 -2.5l7.5 -6q3 -2 7 -6q12 -9 28 -22.5t30 -25t18 -15.5q2 -3 4 -5q1 -1 2.5 -3t3.5 -4q5 -4 10 -7q7 -6 15 -13l72 -58q3 -3 5 -4t2.5 -1.5t1.5 -0.5l1 1l1 -1q1 0 3 -1q6 -4 11 -8q1 -1 1 -2q12 -10 24 -19q3 -3 6 -5q8 -7 19 -14q4 -2 6 -4
q4 -2 7 -4t6 -3q4 -1 9 -4q12 -9 23 -18q0 -1 1 -2q8 -7 11 -14q4 -6 10 -13.5t20 -17.5q4 -2 9 -5q6 -3 11 -6t6 -6t1 -5v-3q-1 -3 -3 -7q-1 -1 -1 -2l-31 -59q0 -2 1 -4.5t3 -4.5q2 -3 3 -6q0 -10 -6.5 -15t-14.5 -7q-3 0 -4.5 -1t-2 -1.5t-0.5 -1.5t-2 -3q0 -1 -1 -1.5
l-2 -1l-3 -1.5h-5q-2 0 -3 1t-2 1.5t-2 0.5l-1 -1q-3 -1 -4 -2t-2 -3q-1 -3 -4 -7t-12 -10q-12 -7 -18.5 -10.5t-9.5 -4.5t-6 -1q-1 0 -3.5 -1l-7.5 -3q-4 -2 -9 -5q-2 -2 -4 -3z" />
    <glyph glyph-name="question" unicode="?" horiz-adv-x="770" 
d="M17 1418l-4 2q-6 4 -11 8q-2 3 -2 5q0 3 2 5q3 3 15 6t28 6t30 5q13 2 19 3q6 2 13.5 6t12.5 7v1l10.5 7t12.5 6q11 5 18.5 7t11 2t5.5 -0.5t3 -1.5t2 -1.5t4 -0.5l6 2l8 2q36 7 56 9h12q13 0 24 -1h53q68 0 123 -21q115 -43 169 -131q21 -32 37 -81q15 -47 15 -87v-5
q0 -5 -1 -8q0 -4 -1 -10v-18q-10 -147 -69 -269q-4 -8 -9 -17q-3 -4 -5 -8q-15 -26 -36.5 -56t-41.5 -52q-9 -11 -18 -20l-5 -5q-6 -7 -14 -14q-18 -17 -41 -35l-34 -24q-51 -29 -86 -80q-20 -42 -22 -92q-1 -16 -3 -33q-5 -33 -8 -67q-1 -23 -1 -46v-27l-93 2q-2 11 -5 23
t-5 25t-3 25q-2 13 -3 26l-6 32q-7 33 -9 67q-1 11 -1 21q0 45 12 84t37 77q31 48 71 85q4 5 8 9q14 14 27 30q9 12 15 22q4 7 8 13q4 4 7 9q10 10 17 25l4 12q5 14 13 28q2 4 5 8q9 13 16 28q3 6 4 12l4 10q1 4 3 8l6 12q9 19 16 41q16 42 24 91q4 23 4 46q0 29 -7 58
q-2 7 -3 9.5t-2 4t-2 2.5t-4 3q-4 5 -9 11q-1 3 -3 5q-3 3 -4 4.5t-2 1.5q-1 1 -1.5 2l-1.5 3l-3 6q-12 22 -37 35.5t-51 20.5q-21 7 -41 16q-31 14 -64 23h-1q-7 2 -11.5 2.5t-11.5 -1.5q-1 -1 -3 -1q-5 -1 -10 -3t-8 -5q-6 -4 -14 -7q-3 -1 -5 -3q-5 -2 -11 -4l-28 -14
q-4 -2 -6.5 -3.5t-3.5 -3.5t-3 -5q0 -1 -1 -3q-2 -2 -3 -5q-4 -7 -7 -14q1 -2 2 -3l1 -1q1 0 1.5 -0.5t1 -1.5t1 -3.5t1.5 -6.5q2 -10 4 -18v-3q2 -9 3 -14q2 -8 2 -11q0 -4 -1.5 -6.5t-5.5 -6.5l-26 -24q-2 -3 -4 -4t-3.5 -3t-3.5 -7q0 -1 -1 -3q-1 -4 -2.5 -7.5t-3.5 -6.5
q-1 1 -1 2v2t-0.5 2t-2.5 2l-3 4q-1 2 -2.5 8t-3 13t-2.5 9q-1 6 -1 11l1 3l-1 4l-28 125q-1 4 -3 6.5t-5 4.5l-4.5 4.5t-3.5 7.5q-4 9 -4 16t7 11v1.5v1t-1 0.5v4h-1v1h1v3zM257 208q4 1 7 1t5 -2t4 -6q1 -3 2 -5q1 0 3.5 -1t5.5 -3q4 -1 7.5 -2.5t5.5 -2.5q11 -6 18 -11.5
t16 -14.5q33 -32 33 -77v-10q-2 -14 -5 -21.5t-6 -10.5l-5 -5q-3 -1 -5 -4q-32 -62 -107 -74q-8 -1 -15 -1q-20 0 -40 9.5t-32 24.5q-20 26 -20 60q0 18 5 37q1 2 2 5t2 7l2 10q1 5 2.5 10.5t5.5 14.5q12 20 28 32l18 13q4 2 7 4q5 3 12 7q11 5 24 7q4 0 6.5 1.5t4.5 2.5
q1 2 3.5 3t5.5 2z" />
    <glyph glyph-name="at" unicode="@" horiz-adv-x="1500" 
d="M970 18q-39 -4 -76 -12l-6 -2q-35 -6 -70 -11q-6 -1 -13 -2q-75 -12 -141 -12q-64 0 -148.5 16t-203.5 98q-86 57 -150 137q-53 64 -91 146q-9 19 -12 28.5t-5 16.5q-2 9 -8 26q-12 36 -21 74q-25 106 -25 217q0 65 9 131q14 80 40 150q48 138 134 248q39 49 95.5 95
t114.5 76q37 19 67 30.5t69 23.5q33 10 101.5 18t137.5 12q30 1 54 1q32 0 53 -2q82 -10 150 -42q53 -24 93.5 -47.5t83.5 -61.5l25 -23q6 -7 12 -13q5 -6 11 -12q23 -24 42 -53q5 -7 10 -15t8 -15l15 -32q67 -127 90 -290q6 -40 6 -83t-8.5 -113.5t-30.5 -146.5
q-31 -105 -97 -189q-34 -42 -73.5 -71t-99.5 -42q-16 -3 -34 -3q-4 0 -18.5 0.5t-33.5 5.5q-56 16 -84 32.5t-62 59.5l-27 33q-2 2 -4 3l-2 2l-1.5 1.5t-0.5 1.5h-1h1v1h1q0 1 -0.5 1.5t-0.5 1.5l-22 38q-9 15 -16 32q-4 9 -5.5 15t-2.5 12q0 4 -1 10q-8 -8 -15 -17
q-5 -8 -11 -14q-18 -20 -38 -35q-3 -3 -7 -6q-62 -48 -127 -48q-52 0 -106 31q-23 14 -47 39.5t-34 51.5q-4 12 -10 25q-4 7 -7 14q-34 87 -35 192q1 105 45 183q48 85 127 120q37 16 77 16q45 0 95 -20q67 -31 120 -79q3 -2 6 -5q5 -4 9 -7q3 3 7 12t7 16q2 3 3 6
q11 24 27 42q19 23 30 53l93 -33q0 -14 -1 -23t-2 -16q-2 -11 -2 -31q-1 -30 -3 -48.5t-5 -32.5q-5 -21 -8 -55q-1 -10 -1 -17q0 -8 1 -16t5 -20q2 -6 3 -12q2 -9 2 -18t2 -16q2 -5 4 -9q5 -8 6 -20q1 -3 1 -6t-1 -6q0 -5 0.5 -10t2.5 -12q3 -8 4 -32q2 -27 6.5 -61.5
t16.5 -66.5q1 -4 6 -10q5 -5 9 -13q4 -6 4 -12q0 -3 -1 -6q0 -8 1 -16q2 -7 5 -14t4 -15v-1q1 -4 2 -6.5t3 -5.5q5 -5 11 -5q1 0 5 1t14 10q2 2 4 3q20 17 35 40q41 60 49 138q1 18 1 37q0 18 2 35q0 7 1 12q1 15 1 26q0 12 -3 30q-5 31 -5 59v13q-1 22 -5 41q-3 12 -5 24
q-17 153 -101 276q-8 11 -16 21q-4 4 -6 6.5t-3 3.5t-3 2t-8 5l-41 35q-9 7 -14 14q-2 2 -5 6q-8 9 -19 17q-127 125 -258 125q-26 0 -118.5 -18t-217.5 -198q-28 -39 -48 -88q-2 -5 -4 -9q-5 -12 -11 -24q-7 -14 -13 -29q-6 -14 -9 -28t-6 -31q-5 -28 -13 -53
q-10 -32 -14 -69q-1 -7 -1 -14q-1 -10 -2 -21q-6 -42 -6 -85v-22q2 -131 50 -250q11 -27 24 -50q7 -15 13 -24t17 -20l18 -20q8 -11 18 -21q9 -10 14.5 -16.5t11.5 -15.5q3 -4 7 -9q34 -45 79 -73.5t97 -51.5l10 -4q53 -24 104.5 -42.5t112.5 -26.5q29 -3 57 -3q14 0 28 1
h21q20 0 41 -1q1 -4 3 -18.5t3.5 -30t1.5 -21.5zM712 635q10 7 31.5 33t37.5 62q6 17 7 29t1 21v15q-14 19 -25 33q-23 35 -40 44.5t-36 9.5t-46 -7q-3 -1 -10 -4.5t-12.5 -7.5t-7.5 -6q-1 -2 -2 -3.5t-1 -2.5l-1 -1l1 -1q-1 -1 -1 -2t-1 -2q-2 -3 -5 -7q-2 -2 -3 -4
q-2 -4 -2 -11v-4q0 -8 -2 -15q-2 -6 -4.5 -17.5t-2.5 -16.5q-1 -8 -2 -17q-6 -37 -6 -65t6 -48q17 -34 51 -34q30 0 75 29z" />
    <glyph glyph-name="A" unicode="A" horiz-adv-x="1367" 
d="M0 32l2 30q5 3 23 8t40 11q20 5 35 9.5t18 6.5q4 3 8.5 17.5t8.5 30.5t6 21q6 26 18 64t24 75q9 27 16 47l6 20q12 36 22 72q4 18 6 29q4 15 7.5 29t11.5 39q1 1 1 3q5 16 12.5 38.5t15.5 35.5q1 2 2 3.5t2 2.5q2 1 3 2l118 369q3 10 7 21q13 36 21 73q10 49 25 95
q2 6 3 12q6 18 11 35q8 19 15 28q4 7 6 12q1 3 2 7q8 20 11 41q4 39 17 74q1 3 1 5q0 8 -7 15q-5 5 -12 11q-11 9 -19 19q-6 -1 -9 -1h-3h-4t-8 1q-7 0 -11 1q-7 0 -10 1t-5 4t-5 9l-6 12q-2 5 -4 7.5t-3 4t-3 2.5q-1 0 -3 1.5t-5 4.5q8 0 13 1h6.5t9 -0.5t14.5 -2.5
q12 -3 33 -4t34 -1q4 0 6 1h5t3.5 1t5.5 3q7 5 13 5q5 0 9 -2q4 -1 7 -1t7 3q8 7 13 7q4 0 9 -3q4 -3 12 -5h14q4 0 8 -1q0 -1 1 -1h1q1 -1 3 -1.5t5 -0.5h25q3 0 4.5 0.5t2.5 1t2 0.5l2 1q1 0 3.5 0.5t7 0.5h11.5h7l4 1q2 0 5 -0.5t7 -2.5q6 -2 13 -2h11l6 -9q2 -2 4 -5.5
t3.5 -10t3.5 -19.5l2 -10q3 -20 9 -42q8 -28 15 -45.5t22 -41.5q14 -24 27.5 -67.5t17.5 -74.5q2 -17 6 -31q3 -9 5 -20q9 -42 22 -81q3 -8 5 -16q2 -5 4 -13q7 -21 15 -46.5t10 -36.5q1 -7 1 -12v-4q0 -4 1 -9q24 -75 47 -153q17 -56 34 -111l8 -24q3 -12 7 -23
q3 -11 5 -16.5t3 -8t3 -4.5q1 -1 2.5 -4.5l4.5 -10.5q10 -28 23.5 -71t25.5 -83q6 -21 11 -37q3 -9 7 -22q9 -26 17.5 -54.5t8.5 -44.5q0 -8 5.5 -26.5t10.5 -34.5q3 -8 5 -13l21 -71l2 -6q1 -5 3 -8.5t7 -5.5q12 -3 22 -7q12 -5 25 -9q15 -3 32 -5q12 -2 23 -4v-37h-10
q-8 0 -16 -2q-11 -2 -18 -4q-10 -3 -16.5 -4t-14.5 -1h-58q-24 1 -50 1t-69 -1t-69 -7q-9 -2 -19 -2q-3 0 -12.5 0.5t-18.5 5.5l-6 2q-7 4 -14 6q-6 1 -10 1q-6 0 -8.5 1.5t-2.5 6.5t1 17v16q4 2 17 5.5t30 8t31 8.5q12 3 17 4q-4 16 -10 28q-3 6 -6 13q-8 21 -15 44
q-3 10 -11 38q-12 39 -28 89.5t-29 90t-17 43.5q-8 1 -20 1q-5 0 -18.5 -0.5t-25.5 -2.5q-31 -5 -63 -5h-2q-7 0 -14.5 1t-12.5 4q-3 2 -5 3t-4.5 1h-6.5q-5 0 -15 -1h-34q-16 -1 -32 -1h-16q-22 0 -53.5 -1t-58.5 -2t-35 -3q-36 -11 -74 -11q-9 0 -18 1l-22 -70
q-6 -16 -11 -32l-8 -26q-11 -42 -27 -74q-3 -6 -6.5 -16.5t-6.5 -21.5q-3 -8 -4 -13q-1 -2 -2 -5q-2 -6 -4 -11v-3q0 -3 1 -6q9 -15 15.5 -20t15.5 -8q3 -1 7 -2l4 -2q10 -4 21 -8q10 -3 28 -5q9 -2 17.5 -3.5t11.5 -3.5l-1 -36h-7q-8 0 -17 -2q-3 -1 -7 -1q-6 -2 -13 -4
q-7 -1 -11 -2t-6 -2q-2 0 -3 -0.5t-3 -0.5h-5h-19q-19 1 -38 1l-33 1l-32 -1h-18q-20 0 -41.5 -1.5t-37.5 -5.5q-7 -2 -17 -2q-3 0 -11 0.5t-18 4.5q-5 3 -8.5 4.5t-5.5 2.5l-3 1.5t-1.5 0.5h-1.5q-1 -1 -3 -1t-6 1q-2 0 -3 0.5t-1 1.5h-1q0 1 -1 1.5t-4 1.5v7zM390 537h11
q7 1 14 1t13 -2q5 -1 10 -1q18 -1 36 -1h44q14 1 27 1q5 0 8.5 -0.5t6.5 -1.5t9 -1l135 1q13 1 26 1q6 0 9.5 0.5t6.5 0.5q4 1 9 2q13 1 26 1h9q9 0 18 1q-1 5 -3 12q-5 17 -5 32q0 4 1 6.5t2 3.5t1 2l1 1l-1 2q0 3 -1 6q-30 94 -60 192q-12 39 -24 77l-64 206q-2 5 -10 22
q-7 13 -13.5 27.5t-10.5 24.5q-3 8 -6 17q-3 12 -8 24l-1 -2v-1l-1 -1v-1q-1 -5 -2 -11q-1 -10 -6 -29q-6 -21 -13 -41q-6 -21 -13 -41q-4 -9 -8 -17q-5 -10 -9 -22q-7 -19 -13 -37q-8 -21 -16 -43q-2 -7 -6 -22q-6 -17 -13 -39t-12.5 -39.5t-8.5 -23.5l-3 -6q-2 -2 -3 -4.5
t-3 -6.5q-2 -9 -5 -17q-1 -2 -1 -5q-4 -9 -13 -37q-11 -35 -26 -81t-27 -83.5t-14 -46.5z" />
    <glyph glyph-name="B" unicode="B" horiz-adv-x="1075" 
d="M0 1471q2 5 4 6t5 1q4 0 10 1t18 7q13 6 26 6q2 0 10 -0.5t19 -3.5q6 -1 11 -2h11q20 -2 38 -2q3 0 4 1h6q3 0 6 -1q2 0 5 -1h87q22 1 38 1q17 0 23 -1t16 -3l14 -4t11 -2q8 0 23 3q12 2 21 3h12q101 0 188 -50q4 -2 7 -4q29 -16 56 -33q14 -8 23 -16t17 -20
q12 -13 20 -19t16 -16t19 -35q7 -13 11 -21q5 -11 9.5 -21.5t9.5 -28.5q12 -52 12 -103q0 -99 -46 -191q-8 -15 -12 -24q-2 -6 -4 -10q-9 -16 -16 -26t-16 -20q-4 -5 -10 -12q2 -1 11.5 -3.5t20.5 -5.5q7 -2 12.5 -3.5t8.5 -2.5q43 -16 69 -30.5t60 -42.5q19 -16 34 -35
l4 -4q2 -2 4 -5l21 -29q9 -17 16 -36q2 -5 4 -11q28 -75 28 -149q0 -68 -24 -136q-24 -64 -73.5 -124.5t-106.5 -100.5q-4 -3 -7 -5q-16 -11 -33 -22q-51 -31 -121.5 -51.5t-134.5 -29.5q-47 -6 -80 -8q-9 -1 -19 -1q-26 0 -59 4h-6t-4 -1t-6.5 -1.5t-14.5 -0.5q-33 1 -65 1
q-66 0 -132 -3q-11 -1 -22 -3q-12 -3 -24 -3q-7 0 -15 1q-7 3 -13 6q-5 3 -10 5q-7 2 -12 2h-2h-3t-4 2l-2 2h-1v2q-1 0 -1 1l1 32q2 2 13 6t25 7.5t25 6.5q8 2 11 2q9 3 17 5q14 3 24.5 7.5t25.5 15.5q0 7 -1 17q-1 7 -2 13v40q0 43 1 95q1 41 1 76q0 58 -3 97q-4 30 -5 66
v67q0 9 2 23t5 22q2 3 3 4l2 2l3 3l4 436q0 7 1 16v16q0 15 -1 28q-1 11 -3 22q-3 17 -5 33q-1 12 -1 37v26v31.5t1 28.5q2 9 3.5 13t2.5 7q2 2 3 5t1.5 9t0.5 17v15q0 9 -1 16q-1 5 -2 7.5t-3 4.5t-4 3t-4 3q-1 1 -2 1q-9 7 -17 11t-23 8q-21 6 -43 12q-3 0 -7 1l-9 3
q-11 2 -22.5 5.5t-16.5 6.5zM336 121q8 0 39 7t63.5 15.5t43.5 11.5q70 19 127 51q31 17 51 39q6 8 16 19q7 9 13.5 17.5t11.5 12.5q9 8 13.5 16.5t7.5 16.5q4 12 11 25q3 4 6 9q6 8 12 19q4 9 6 19q2 7 4 15q13 35 13 68q0 41 -19 79q-4 8 -8.5 13.5t-9.5 11.5q-6 7 -9 9
t-8 4q-4 1 -11 5q-1 1 -2 1q-13 7 -27 14q-4 2 -11 7q-7 6 -16 12q-63 31 -145 35q-29 3 -57 7q-51 9 -106 10q-1 -13 -1.5 -41.5t-0.5 -57.5v-71q1 -8 2 -14q0 -5 1 -11.5t1 -17.5q0 -28 -0.5 -89.5t-1.5 -120.5t-3 -78l-1.5 -7.5t-1.5 -4.5q0 -1 -0.5 -3t-1 -5.5
t-0.5 -10.5q-1 -19 -1 -37zM347 826q20 2 56.5 17t73 33.5t54.5 32.5q34 28 57 77q6 14 9 24t5 19t6 21q1 3 2 5l1.5 3t1.5 4q4 19 4 40q0 38 -13 81q-20 67 -60 104q-10 9 -18 16q-10 11 -22 20t-37 20q-24 10 -52 15q-2 1 -4 1q-8 1 -19.5 2.5t-22 3t-13.5 1.5v-27
q0 -24 1 -37q3 -20 6 -32q2 -7 3.5 -15t2.5 -20q0 -35 -1 -71q-1 -19 -4 -35q-3 -13 -4 -29q-1 -13 -2 -25q-2 -21 -3 -42v-32q-1 -19 -1 -39v-72q-1 -10 -2 -15t-2 -8q-2 -3 -2.5 -7t-0.5 -12v-22z" />
    <glyph glyph-name="C" unicode="C" horiz-adv-x="1001" 
d="M333 1427q-1 3 -1 6q0 5 3.5 7t11.5 3q8 0 19.5 3t25.5 13q9 7 25 12q13 4 24 4h12q20 0 48 4q17 2 30 3h8.5t4 -0.5t2.5 -1.5q1 0 2 -0.5t4 -1.5q2 0 9.5 -0.5t15.5 -0.5h20q9 -1 16 -1q8 0 15 1q6 0 13 1q1 -3 2 -4v-3q0 -1 1 -1t3 -1h4l29 -8q5 -1 11 -2q6 0 19 -3.5
t38 -15.5q4 -2 9 -5q13 -5 28 -13t21 -15q2 -3 9 -7.5t13.5 -8.5t10.5 -5q4 9 10 18q4 8 7 15t5 16q3 13 8 22l35 -5l1 -5l-1 -4v-6t1 -8l2 -10l2 -12q1 -5 1 -10q0 -3 -0.5 -9.5t-1.5 -15.5q-1 -7 -2 -12q-1 -15 -3 -27q-2 -23 -3 -42v-14q0 -16 1 -37q1 -6 3.5 -15.5
t5.5 -15.5q1 -2 2 -3l1.5 -1.5t1.5 -2.5q1 -4 3 -10.5t2 -10.5q1 -3 1 -6q0 -6 -3 -12q-1 -2 -1 -3q-1 -7 -1 -11v-4l1 -4l-1 -3q-2 -4 -5.5 -5.5t-8.5 -1.5q-2 -1 -3 -1q-3 -1 -7 -1q-8 -3 -14 -3q-4 4 -9.5 12.5t-9.5 16.5q-3 4 -5 7q0 1 -1 2q-11 16 -21 36q-7 15 -16 28
l-10 12q-12 14 -24 30q-3 5 -5 8q-2 4 -3.5 5.5t-2.5 2t-4 1.5l-8 4l-49 27l-15 7.5t-8.5 3t-9.5 1.5q-5 1 -13 2q-3 0 -8 1.5t-10 2.5q-3 1 -5 2q-7 2 -11 4.5t-6 8.5q-35 6 -70 6q-20 0 -40 -2q-10 -1 -15 -3t-13 -6h-1q-22 -12 -48 -29t-45 -33q-41 -34 -74 -81
q-22 -34 -32.5 -62.5t-20.5 -66.5q-1 -4 -2 -9q-5 -18 -8 -29q-4 -13 -7 -26.5t-4 -40.5q-2 -24 -7 -45q-3 -11 -5 -22q-4 -26 -4 -43q0 -12 -1 -28q-5 -50 -5 -99q0 -127 35 -249q4 -15 9 -30q1 -2 2 -3q1 -3 1.5 -5t2.5 -5q12 -18 21 -39q6 -12 13 -24q5 -10 8 -21
q2 -4 3 -7q5 -14 11 -27q14 -27 30 -48q17 -21 29 -33.5t25 -24.5q10 -8 22 -20q19 -18 42 -35q2 -2 4 -2.5t5 -1.5q2 0 5 -2q4 -1 5 -3q2 -1 3.5 -1.5l4.5 -1.5q2 -1 3 -1q7 -3 13 -4t15 -2q5 -1 12 -1q8 -1 14.5 -1.5t9.5 -1.5q7 -2 20 -2q5 0 18.5 1t34.5 5t28 8q3 1 5 2
q2 2 8 5q3 1 6 3q4 1 7 2q3 2 6 3q11 4 21 9q6 3 12 7q14 9 27 13q3 1 5 1q1 0 2 0.5l2 1l3 1.5q1 0 2 1q2 1 7 4q8 4 17 9.5t12 8.5q19 23 25 52q2 7 4 15v1q2 6 6 18.5t8.5 24t6.5 12.5l34 1h1v-1q3 -3 4 -5t1 -4t1 -7t5 -10q4 -7 7 -17q1 -4 1 -9q0 -9 -3 -20
q-2 -4 -3 -12.5t-1.5 -17.5t-0.5 -13q0 -17 -1 -33v-95q1 -18 1 -36q0 -13 -5 -25q-6 -12 -6 -34q-7 -1 -19 -1h-7q-7 0 -10 1q-3 6 -6 21q-2 14 -5 24q-3 5 -5 10l-4 10q-1 3 -3 7q-2 8 -5 13q-3 -1 -11.5 -6t-18.5 -11q-14 -8 -21 -11q-9 -5 -19 -9l-8 -4q-7 -4 -11 -6.5
t-6 -4.5q-3 -2 -6.5 -4t-10 -4.5t-19.5 -6.5q-8 -3 -16 -4h-4q-6 0 -12 3q-1 1 -3 1h-3t-6 -1q-2 -1 -3 -1q-43 -7 -85 -7q-39 0 -78 6l-12 1.5t-6.5 0.5h-5.5h-14q-5 0 -14.5 1.5t-19.5 4.5t-14 5q-3 2 -5 5t-5 4q-6 3 -11 3.5t-10 -0.5h-12q-10 0 -14.5 3.5t-6.5 13.5
q-2 2 -5 3t-6 3q-36 19 -69 43q-9 6 -17 14q-5 5 -9 8l-18.5 18.5t-20.5 21.5q-5 7 -11 13l-18 22q-4 6 -9 11q-2 3 -5 7q-80 104 -119 232v2q-4 11 -7.5 24.5t-4.5 24.5l-4 28q-19 100 -20 203v18q0 53 5 105q6 55 20 108q26 101 66 188q9 20 21 43t24 40q39 56 88 103
q25 23 52 44q9 6 19 13l12 8q9 5 16.5 10t9.5 6z" />
    <glyph glyph-name="D" unicode="D" horiz-adv-x="1108" 
d="M0 1478h1l1 1q3 2 5 3t3.5 1h2.5h5t10 3l8 4l10.5 4.5t7.5 1.5h11h13q6 0 12 -2q7 -2 15 -3h6q5 0 9 -1h4q5 -1 10 -1h22q2 1 4 1q1 0 4 -1q12 -1 33 -1h92q14 1 21 1q19 -1 35 -7q13 -4 25 -5q23 0 45 2q24 1 48 1h4q115 0 210 -54q77 -43 128 -99t97 -123
q39 -52 63 -115q5 -15 8.5 -24t7.5 -17t10 -22q11 -29 16 -52t8 -46q2 -21 7 -49q1 -4 2 -7q1 -6 2 -13l2 -63q0 -236 -97 -438q-4 -9 -7 -18q-2 -8 -6 -15q-8 -19 -22 -43.5t-26 -40.5q-7 -9 -25 -27t-37 -36t-28 -26l-25 -20q-1 -1 -2 -3q-10 -8 -22 -17q-51 -39 -110 -68
q-29 -14 -68.5 -23.5t-72.5 -13.5q-45 -5 -90 -5q-19 0 -39 1q-12 0 -20 -3q-7 -3 -18 -3l-97 1h-39q-20 -1 -39 -1l-34 -2q-8 -1 -14 -3q-7 -2 -16 -2h-8h-11.5t-8.5 1.5t-13 5.5q-1 1 -3 2q-6 2 -9.5 3t-5.5 1h-3h-2q-2 0 -4 1.5l-6 4.5l2 35q25 9 62 18q30 7 49 13
q7 3 12 5.5t9 5.5l8 6q0 8 -1 20q-1 8 -2 14v80q0 39 1 81q1 39 1 78q0 41 -4 72q-3 29 -4 64v7q0 24 0.5 53t5.5 44q2 6 4 8.5t3 2.5l1.5 1.5t0.5 1.5l2 235q1 8 1 23q0 36 1 90t1 99q0 46 -1 56q-2 10 -3 17q-3 21 -4.5 37t-1.5 46v19q-1 10 -1 19q0 32 11 60q3 10 3 20
v16q0 8 -1 18t-5 14q-14 12 -27 18t-31 11l-69 18q-1 0 -2 1q-3 0 -7.5 1.5t-8 2.5t-4.5 3zM337 95q23 3 52.5 14.5t48.5 21.5q37 18 84.5 49.5t78.5 61.5q4 4 8 7q5 4 10 9q9 10 15 16q7 7 14 15t19 24q55 78 89 185q3 10 6 21q4 15 9 31l3 6t2 3q0 1 1 3t2 4.5t2 8.5
q18 74 21 121.5t3 79.5q0 38 -3 81q-5 75 -19.5 141t-49.5 132q-4 9 -9 18q-6 14 -14 27q-13 22 -28 41q-43 58 -109 97q-30 16 -74 29.5t-81 21.5q-12 2 -30.5 4.5t-30.5 2.5q-2 -19 -2 -34q0 -9 1 -17q2 -19 7 -38q2 -11 4 -24q3 -16 3 -32v-13q0 -18 -0.5 -39.5
t-3.5 -35.5q-3 -17 -4 -27t-2 -19q-1 -10 -3 -28q-1 -16 -1.5 -48t-0.5 -65v-50q-1 -11 -2 -18.5t-4 -16.5q-1 -3 -1.5 -21.5t-1 -42.5t-0.5 -41v-41q-1 -31 -1.5 -76.5t-1 -83t-0.5 -42.5q1 -3 1 -5q2 -6 3 -13q1 -23 1 -46v-36q-1 -26 -1 -51q-2 -57 -2 -113v-5
q1 -8 1 -18t-1 -21q-1 -21 -6 -33q-1 -5 -1.5 -17.5t-0.5 -28v-26.5v-10z" />
    <glyph glyph-name="E" unicode="E" horiz-adv-x="948" 
d="M0 1485q4 4 6.5 4.5t5.5 0.5t9 1q11 4 16 7q4 2 9.5 3.5t18.5 1.5q9 0 14.5 -0.5t9.5 -1.5q5 -1 11 -1.5t16 -1.5q6 0 12 -1q7 -1 14 -1t14 1q5 0 18 -1q10 -1 19 -1h65q23 1 46 1h3q7 0 11.5 -0.5t11.5 -2.5q9 -2 23 -5t24 -3h7v-1q1 -1 2 -1.5t3 -0.5h32q10 1 19 1
t17 -1q4 0 5.5 -0.5t2.5 -0.5q1 -1 2.5 -1.5t5 -0.5h9.5h26q17 -1 37 -1t35 0.5t19 0.5q26 5 54 5q9 0 18 -1q18 -1 35 -1q3 1 6 1h22q7 -1 12 -2q5 -2 12 -2h12q12 -1 24 -1q13 0 18 1l2 6q1 6 3 11h1q4 0 11.5 -0.5t14 -0.5t9.5 -1v-8q0 -2 0.5 -4.5t1.5 -6.5l4 -12
q0 -1 1 -3q1 -4 2 -6t1 -4v-7v-21q-2 -30 -2 -65t5 -51q2 -6 2 -13v-8.5t-4 -13.5q-1 -2 -3 -4q-3 -4 -5 -8t-2 -8q-1 -4 -2 -6t-6 -2h-4l-29 1q-4 6 -10 23t-11 33q-3 10 -5 15q-3 9 -8 15t-12 10q0 1 -1 2q-6 4 -9 7q-4 4 -6.5 5.5t-6 1.5h-11.5q-10 0 -21 1h-38.5
t-34.5 -3q-12 -3 -21.5 -3.5t-22.5 -0.5h-13q-6 0 -12 0.5t-8.5 2.5t-3.5 3l-1.5 1.5t-1.5 0.5h-104h-35.5t-37.5 -0.5t-22 -1.5v-9q0 -31 6 -59q5 -18 6 -32t1 -35v-13l1 -15q0 -8 -0.5 -20t-2.5 -24l-2 -10q-3 -11 -4 -21q-1 -7 -1 -14q0 -11 -1 -21q-3 -23 -4 -57.5
t-1 -70.5v-52q0 -8 -0.5 -12t-1 -6t-1.5 -4l-3 -9q0 -1 -0.5 -11.5t-0.5 -23.5v-23.5v-12.5q5 0 22 -0.5t34 -0.5t22 1q2 0 3 1q3 1 7 2q5 0 21.5 0.5t32.5 0.5t21 -1q4 -1 6 -2q1 -1 3 -1h24q5 6 10.5 23t10.5 36q5 18 9.5 32t7.5 16q4 2 9 2h11h10q4 0 7.5 -1t4.5 -8
q0 -7 2 -11t5 -8q2 -4 4 -8.5t2 -11.5v-3q0 -6 -0.5 -11t-1.5 -10q-2 -4 -3 -13.5l-2 -19t-1 -14.5l1 -13l-1 -13v-114q1 -8 1 -15q0 -6 -1 -15t-8 -27q-1 -5 -1.5 -8.5t-0.5 -6.5v-8l-37 -1q-3 10 -4 20q-1 6 -2 13q-4 13 -9 24q-4 8 -7 17q-4 11 -7.5 15.5t-12.5 9.5
q-3 2 -7 5q-1 1 -2 1q-2 2 -3.5 2.5t-3.5 0.5h-5h-25l-16 1l-15 -1q-9 -1 -14 -3q-7 -3 -18 -3h-9h-8.5t-6 1t-3.5 3q-1 2 -3 4l-55 -1q0 -7 -0.5 -29.5t-1 -49.5t-0.5 -48v-26q0 -3 1 -5q1 -4 2 -9q1 -15 1 -30v-43q0 -40 -1 -80q-1 -42 -1 -83v-19q1 -8 1 -16
q0 -25 -5 -49q-1 -6 -2 -10q-1 -2 -2 -5.5t-1 -10.5t1 -20q16 -5 38.5 -5.5t41.5 -0.5h6h15.5t7.5 -0.5t3 -1.5q1 0 2 -0.5t4 -0.5q6 -1 17.5 -1h22.5q10 1 16 1h15q19 -1 41 -1t33 3q12 2 43 2q30 0 55 -1h17l4 4q1 2 3 4l22 21l8 8q12 9 19 23q2 4 5 13.5t6 21.5
q5 19 9.5 34t7.5 18q2 1 8.5 1.5t13.5 1t10 0.5h4v-1l1 -1q2 -2 3 -4t1 -5q0 -4 4 -11q2 -3 3 -6q3 -3 5 -8q3 -6 3 -15v-8.5t-3 -14.5q-2 -7 -2 -18v-42q0 -35 3 -70q1 -9 1 -17q0 -7 -1 -14.5t-6 -23.5q-1 -2 -1 -4q-1 -4 -1 -8v-3q0 -5 -1 -9q-7 -1 -18 -1.5t-18 -0.5
l-4 13q-7 0 -14 -2q-6 -1 -13 -1q-26 -1 -53 -1h-37q-17 0 -29 -3q-12 -2 -26 -3h-17q-23 0 -37 2t-20 5q-2 1 -4 1q-3 1 -26.5 0.5t-55 -0.5t-59.5 -1h-45q-15 -1 -29 -6q-9 -2 -17 -4h-55q-8 0 -17 1h-68t-60 -3q-7 -1 -14 -1h-5q-7 0 -15 -2q-13 -3 -27 -3h-7
q-11 2 -20 7q-3 2 -7 3q-7 3 -14 3q-6 0 -9 2l-4 5v12q0 13 2 22q1 2 7 4t13.5 4t12.5 3q3 0 3 1q7 2 14 3q12 3 24 7q9 2 16 4q15 4 26 8.5t24 14.5q0 7 -1 17q-2 8 -2 15v104q1 22 1 48q2 33 2 64q0 47 -4 90q-5 31 -5 65v26q-1 11 -1 21q0 27 4 53q2 8 4 13t8 9
q1 26 1 52v72q1 35 1 70q0 28 1 55v27q0 33 1 82.5t1 90v49.5q-2 13 -4 27q-3 14 -4 27q-2 23 -2 44v49q0 16 1 30q2 14 7 25q1 2 2 3q1 2 1.5 4t0.5 5q0 5 0.5 14.5t0 18.5t-0.5 13q-2 6 -3 8.5t-2 4t-4 3.5l-4 2l-1 1q-10 7 -18.5 11.5t-23.5 8.5l-86 23q-2 1 -4 1
q-1 1 -2 1q-6 2 -7 7v31z" />
    <glyph glyph-name="F" unicode="F" horiz-adv-x="968" 
d="M0 1479v4h2l1 1q2 3 5 3.5t6 0.5h5q5 1 12 5q9 5 24 8q6 2 12 2q10 0 21 -4q6 -2 18.5 -3t25.5 -1.5t21 -0.5h2t2 1h2.5t4.5 -1q17 -1 43 -1h41t54 1q26 -1 43 -7q14 -4 28 -5h2l5 1l3 -1l1 -1q5 -1 20.5 -1h30.5h20q3 0 5 -0.5t4 -1.5q2 0 5 -1t10 -1h31h44h41t23 1
q2 0 4 0.5t3 0.5q2 0 3.5 0.5t4.5 1t9 0.5l25 1l24 -1h42l10 1l10 -1q8 0 13 -2q4 -2 11 -2h30q13 0 25 1l5 16l35 -1q1 -5 1 -8v-4.5t1 -6.5q1 0 1 -1q3 -7 5.5 -16t2.5 -15l-2 -59v-40q0 -9 1 -19.5t3 -18.5q3 -8 3 -18t-4 -17l-4 -4q-2 -4 -5 -8q-1 -3 -1 -6
q0 -2 -0.5 -3.5t-1.5 -3.5q-1 0 -1 -1h-1v-1q-1 0 -6.5 -0.5t-11.5 -0.5q-7 0 -12.5 0.5t-7.5 1.5q-4 6 -9.5 22.5t-10.5 32.5q-3 10 -5 16q-4 10 -11 17t-15 13q-4 3 -8 7q-1 0 -2 1t-2.5 1.5t-4.5 0.5l-4 1l-4 -1h-4q-9 0 -21 1h-15q-31 0 -57 -3q-12 -3 -22 -3.5
t-22 -0.5h-12h-9t-12 3q-2 1 -2.5 1.5l-1.5 1.5q0 1 -2 2l-37 1l-39 -1q-18 0 -35 -1q-6 0 -19 1h-35t-34.5 -0.5t-20.5 -1.5q-1 -8 -1 -17q0 -8 2 -22t5 -29q4 -18 5.5 -32t1.5 -34v-18q0 -27 -2 -53q-1 -8 -3 -15t-3 -16q-1 -8 -1 -17q-1 -9 -2 -17q-4 -55 -4 -112v-69
q-1 -11 -2 -16.5t-4 -14.5q-1 -2 -1 -11.5t-0.5 -22t-0.5 -23.5v-15h78q4 1 6 2t5 1.5t10 0.5h52h8t4.5 -0.5t2.5 -1.5q1 0 2.5 -0.5l4.5 -1.5h6.5h10.5t7 1q9 16 13 36l6 18q0 2 2 7q2 8 5.5 18t6.5 18t5 10q2 1 9 1.5t14.5 0.5h10.5q4 -1 5.5 -5t1.5 -8v-4q1 -3 4 -8
q5 -7 9 -19q1 -4 1 -8q0 -9 -4 -21q-1 -4 -2 -12.5t-1.5 -18t-0.5 -13.5q0 -12 -1 -24v-122q1 -6 1 -11q0 -4 -0.5 -9.5t-2.5 -13.5t-7 -21q-1 -4 -1 -7v-5q0 -4 -1 -9h-36q-2 9 -4 19q-1 6 -2 13q-3 12 -8 22q-2 3 -3 5q-3 8 -5 13q-2 7 -4.5 11.5t-7.5 9t-15 10.5l-1 1
q-2 1 -3.5 2t-4 1h-6.5h-23l-17 1l-16 -1q-7 -1 -13 -3q-7 -3 -18 -3q-2 0 -4 -1q-8 0 -15 1t-10 8l-55 -1q-1 -5 -1 -16v-21v-10l-2 -96q0 -5 0.5 -8t1.5 -6t1 -8q2 -22 2 -58v-45t-2 -80v-31q-1 -16 -1 -32v-21q0 -21 -1 -42q-1 -7 -2 -11t-3 -10q-1 -3 -1.5 -14t-0.5 -24
v-23v-21q0 -5 2 -10t14 -11q5 -3 13 -4q3 -1 7 -2l8 -2t9 -3h1q31 -10 51 -11q15 -1 30 -5l-1 -36h-12q-9 0 -18 -2q-11 -3 -27 -6t-28 -3h-47q-56 1 -111 1h-3q-13 0 -37.5 -1t-47.5 -2t-33 -3q-22 -4 -35 -4q-3 0 -10.5 1t-17.5 6q-7 3 -18 6q-3 1 -6 1h-9l-3 1.5t-2 1.5
l-4 2v5v8.5t0.5 13t1.5 9.5l4 2q1 1 2 1h2l61 15q13 3 27 6q22 4 43 10q1 5 1 10q0 8 -2 16q0 3 -1 7q-1 17 -1 53v62t2 97v49q0 27 -2 52q-7 46 -7 92q0 38 5 77q1 10 3 14.5t8 8.5l1 10l-1 10v12l5 464q-1 9 -3 17q-4 26 -5.5 45.5t-1.5 53.5v16q-1 7 -1 15q0 29 10 55
q2 7 3 11t1 9v13v13.5t-1 11.5q-1 6 -2 8.5t-2.5 4t-4.5 2.5q-2 1 -4 3q-10 8 -18.5 12.5t-23.5 8.5l-74 20q-6 1 -13 3q-1 1 -2 1q-3 0 -5 1t-3 3q-1 1 -1.5 7.5t-1 13.5t-0.5 10z" />
    <glyph glyph-name="G" unicode="G" horiz-adv-x="1117" 
d="M336 1434v7q0 3 0.5 5t6.5 4q5 1 10 1t11 1q20 5 32 15q7 6 14.5 8.5t18.5 5.5q8 2 17 2h5q9 0 25.5 1.5t30.5 2.5q5 1 9 1q3 1 6 1q7 1 15 1h5q4 0 8 -1q3 0 4 -1q0 -1 1.5 -1h3.5q9 -1 19 -1q13 0 26 -1q8 -1 14 -1q7 0 13 1q8 1 16 1l2 -8l43 -10h5q2 0 4.5 -0.5
t6.5 -1.5q39 -12 74 -32q4 -2 7 -4q8 -4 15 -8q4 -2 6 -4t4 -5t8.5 -7t13.5 -7.5t10 -5.5l6 10q2 4 3 7q5 8 9 17l5 15q2 7 3.5 13.5t4.5 9.5q1 0 6 -1q6 0 12.5 -1t11 -2t5.5 -1l1 -4l-1 -5v-4q0 -5 1 -10l2 -10l2 -12q1 -3 1 -8t-1 -16.5t-4 -31.5q-5 -41 -5 -76v-22
q1 -7 1 -14q1 -3 2 -8l2 -10q1 -2 1 -4q1 -5 2.5 -7t2.5 -4q2 -2 4 -6q1 -3 2.5 -9.5t2.5 -10.5t1 -7q0 -7 -3 -12q0 -2 -1 -3q-1 -6 -1 -10v-6l1 -3l-1 -3q-1 -4 -5 -5.5t-8 -2.5q-2 0 -4 -1h-2q-5 -1 -10.5 -2.5t-8.5 -1.5q-11 13 -25 36t-22 39q-5 11 -10.5 19.5
t-13.5 17.5q-13 16 -26 34q-1 1 -2 3l-6 8t-5 6q-24 10 -46 23l-14 8q-9 5 -14.5 7.5t-9.5 3.5t-10 1q-5 1 -12 2t-17.5 4t-17.5 6q-2 2 -3 3.5t-2 3.5q0 1 -1 2q-23 5 -64 6h-11q-33 0 -52 -5q-22 -9 -54 -30t-51 -37l-18 -16q-54 -49 -87 -118q-14 -34 -22 -69
q-4 -19 -9 -37l-4 -12q-4 -10 -6.5 -20t-3.5 -23q-1 -9 -1 -17q-1 -21 -6 -45q-1 -6 -2 -11q-5 -23 -7 -48q-1 -6 -1 -14l1 -9l-1 -10q-6 -53 -6 -106q0 -29 2 -59q7 -123 44 -230q2 -4 11 -20q10 -17 20.5 -37.5t15.5 -33.5q29 -87 98 -142q6 -5 11 -11q4 -3 7 -6l17 -16
q13 -12 21 -17.5t13 -7t10 -1.5q4 -1 10 -2t15 -6q15 -6 33.5 -8t35.5 -2q25 -1 36 -5q3 -1 6.5 -1h6.5h3q34 1 62 5t61 9q0 8 -1 16v10q-1 9 -1 22l1 14q0 7 -0.5 17.5t-2.5 19.5q-2 6 -5 12q-1 4 -2 7q-4 9 -4 23v9q0 8 1 14q2 6 4.5 8.5t8.5 3.5q1 12 1 25t-1 26
q-1 12 -1 23v11q-1 30 -1 61v7l1 8q0 4 -0.5 10t-2.5 11q-1 1 -1 2q-3 6 -5 11.5t-4 13.5v36q2 7 7 12l3 3t1 2.5v4.5v4q-9 3 -19 5q-4 1 -9 2q-14 3 -26 8h-1q-3 1 -8 2q-11 3 -24 7t-19 8l-1 35l1 1l1 2h1v1l1.5 1.5t1.5 0.5h2l9 1.5t4.5 1t2.5 1.5l5 2.5t8 4.5q6 3 14 3
h10q6 0 9 -1t6 -1q3 -1 7 -2l50 -4h52q26 -1 53 -1q39 0 79 2q10 0 22 -3t22 -7q5 -1 9 -1h4q5 0 10 -1q0 -5 0.5 -12t0.5 -14t-1 -10q-10 -4 -24 -6q-9 -1 -16 -3q-11 -3 -20 -7q-7 -3 -15 -6v-9q0 -8 1.5 -14t5.5 -13q2 -4 5 -9q3 -8 4 -24v-6q0 -12 -3 -19q-2 -4 -3 -6.5
t-1 -4t-1 -2.5v-3t-1 -5q-3 -10 -3 -23v-25v-6q1 -1 1 -2q0 -6 -1 -12q0 -3 -1 -4l-2 -2l-1 -1q-1 -1 -1 -2v-108q0 -6 0.5 -9t1 -4.5t0.5 -3.5q1 -1 2 -2.5t1.5 -5.5t1 -11.5t0.5 -19.5v-16q0 -14 1 -27v-7q1 -6 1 -12v-4v-4.5t0.5 -3.5t2.5 -5v-1l4 -10q5 -11 9 -21
q1 -2 3 -5q3 -7 5.5 -13.5t4.5 -11.5q-4 -1 -10 -4l-12 -6l-8 -4q-11 -8 -24 -13q-3 -1 -5 -2q-29 -14 -62 -26l-12 -4q-10 -3 -21 -7q-5 -3 -12 -6q-8 -5 -17 -8q-7 -3 -17 -5.5t-17 -3.5q-13 -2 -19 -2h-6q-2 0 -4.5 0.5t-3.5 1.5q-2 2 -4 2q-9 -1 -17 -2q-5 -1 -10 -1
q-39 -6 -80 -6q-55 0 -109 6h-6q-7 1 -13 1h-7q-8 -1 -16 -1q-30 0 -60 10q-7 2 -10 6q-2 1 -4 2.5t-4 2.5h-1l-9 1.5t-6 0.5t-9 -1t-11 -1q-8 0 -14 2q-6 3 -7 6.5t-1 7.5v5q-18 6 -42 21t-39 27q-10 7 -18 14q-15 12 -24.5 22t-21.5 24q-1 1 -2 3q-62 68 -108 150
q-21 39 -42 91t-28 97q-1 4 -1 7v8q-2 6 -3 13q-20 101 -21 205v18q0 54 5 107q8 72 33 154.5t54 144.5q9 22 21 43q57 101 146 176q26 22 57 40q3 2 7 4q7 4 13 7z" />
    <glyph glyph-name="H" unicode="H" horiz-adv-x="1151" 
d="M665 1485l3 4q1 0 1 1q1 0 1.5 0.5t1 0.5t1.5 1h8h2t3.5 0.5t7 2.5t12.5 5q10 5 24 5h7q11 0 19 -2q11 -3 24 -4q7 0 13 -1q7 0 13 -1h27q14 0 28 -1q39 0 78 1h60q6 0 16.5 -2.5t19.5 -4.5q6 -2 10 -2q9 -2 17 -2h8l1 -36q-12 -3 -26 -4q-14 -2 -27 -5l-47 -16
q-6 -33 -6 -69v-12q0 -17 2 -29t5 -24q2 -10 4 -23q3 -16 3 -36.5v-39.5q-1 -5 -1 -10q0 -20 -4 -40q-1 -7 -3 -22.5t-3.5 -31t-1.5 -24.5q-1 -16 -1 -32v-20q-1 -39 -1 -78q0 -21 -2 -42q0 -4 -1 -6.5t-2 -4.5t-2 -6v-21q-1 -16 -1 -32q0 -27 -1 -54l-3 -216v-14t0.5 -7.5
t0.5 -4.5q1 -2 1.5 -5t0.5 -10q2 -30 2 -61v-25q-1 -62 -2 -122q0 -26 -1 -51q0 -21 -1 -42q-1 -11 -3 -17q-2 -4 -2.5 -9t-0.5 -12t-1 -21v-65q6 -4 15 -6q4 -1 9 -3q11 -5 24 -9q12 -3 27 -5q18 -2 29 -5l-2 -36h-4q-10 0 -21 -2q-1 0 -2 -1q-10 -2 -22.5 -5.5t-19.5 -3.5
q-33 0 -68 1q-24 1 -47 1q-34 0 -67 -2q-3 0 -7 -1h-5q-3 -1 -7 -1h-6q-7 0 -11 -1t-6 -1q-2 -1 -5 -1.5t-9 -1t-16 -0.5q-16 0 -24 7q-7 3 -17 6h-12l-2 2h-1q0 1 -1 1l-3 3l2 34q0 2 2.5 2.5t4.5 1.5h2l55 15q5 2 9 3h2l8 3q3 1 3 8t-0.5 15t-1.5 12q-3 28 -3 72
q0 35 2 79q2 46 2 84q0 48 -3 84l-2 14q-4 25 -4 52q0 14 -1 28v13q0 32 4 64q1 7 4 14q1 3 2 4.5t3 2.5l3 3v45q-9 1 -16 1q-8 0 -16.5 -1t-17.5 -2q-10 -2 -26 -4q-9 -1 -20 -1h-20h-2q-9 0 -18 1.5t-12 7.5h-112q-22 -1 -44 -1h-77q-12 0 -19 -1l-14 -2q-7 -2 -18 -3h-7
q-5 0 -8 -1t-4 -5v-15q0 -10 -1 -29q-1 -30 -1 -61t2 -40q3 -13 3 -49q1 -18 1 -38t-1 -52t-2 -63q0 -15 -1 -23v-32l1 -22l-1 -22q-1 -12 -2 -19.5t-2 -11.5t-2 -8.5t-1 -11.5v-1q0 -11 -0.5 -31t-0.5 -38v-24q3 -2 10.5 -5t16 -5.5t12.5 -3.5q8 -2 18 -3l16 -2t12 -3v-36
q-11 0 -16 -0.5t-7.5 -1t-5.5 -1.5q-4 -1 -17 -4q-4 0 -8 -1q-7 -3 -15 -3h-75q-27 1 -54 1t-54 -1q-4 -1 -7 -1q-3 -1 -6 -1q-5 0 -9 -1q-6 0 -12 -0.5t-13 -2.5q-9 -3 -18 -3q-7 0 -17.5 2.5t-20.5 7.5q-6 3 -10 4q-6 1 -9 1h-2.5t-3 1t-4.5 4l1 34q5 4 22.5 9t38.5 10
q15 3 26.5 6t16.5 6q1 7 1 13q0 10 -2 20q-2 16 -2 39v66q0 20 1 53q1 44 1 89v21q0 30 -2 47q-6 39 -7 85v15q0 39 4 71q1 8 3.5 13.5t8.5 10.5q1 16 1 35v17l1 154q0 25 1 51q1 78 1 156q0 18 1 35v43q0 7 -2 16q-1 3 -1 6q-7 53 -7 107q0 21 1 43q0 11 1.5 16.5t4.5 11.5
q2 5 4 13q1 3 1.5 14t0.5 22t-1 14l-4 14q-3 13 -6 28q-6 3 -17.5 6t-25.5 6q-16 3 -29 6.5t-18 7.5l-1 34q0 1 0.5 1.5t1.5 0.5q0 1 1 1q3 2 5.5 2.5t5.5 0.5t7 1q7 2 14 5q3 2 6 3q4 2 7 3t6.5 1h8.5h12q8 0 15 -2q5 -1 15 -2.5t19.5 -2t15.5 -0.5q14 -1 29 -1h107
q29 1 57 1q8 -1 15 -3l8 -2q11 -2 19 -4q2 0 4 -1q5 -1 10 -1h5q5 0 11 -1l1 -36q-13 -3 -27 -4q-13 -2 -25 -4q-11 -3 -22 -8q-12 -5 -24 -7q-1 -8 -3 -15q-2 -10 -3 -22q-1 -16 -1 -31q0 -41 9 -80q6 -24 6 -57t-3 -60q-1 -11 -3 -21q-2 -6 -3 -14q-1 -10 -1 -22
q-1 -8 -2 -17q-4 -42 -4 -86v-66q0 -24 -2 -45q-1 -6 -3 -10l-2 -6q0 -5 -0.5 -17.5t-0.5 -25.5t1 -18q9 1 15 1t12 -1t11 -2q3 -1 7 -1.5t10 -0.5q5 0 11 -1q7 -1 14 -1h23h36.5t26.5 -1q3 -1 4 -2h2t2.5 -0.5t4.5 -0.5h160q4 0 6.5 0.5t5.5 0.5q13 3 34 3l22 1l20 -1h22
q1 5 1 13.5v17.5v9q0 16 1 63q0 43 0.5 92.5t1 87.5t-0.5 45q-1 2 -1 4q-7 35 -8 70v83q0 19 6 35q2 6 3 8.5t2 4.5q1 1 1 1.5v1.5v3v23v14.5t-3 16.5q-1 2 -2 7t-2 10.5t-2 9.5t-2 5q-3 3 -16 6t-30 7q-25 6 -37 10q-2 1 -3 1h-1q0 1 -1 2z" />
    <glyph glyph-name="I" unicode="I" horiz-adv-x="487" 
d="M0 1475v8q2 0 3 1l1 1q0 1 1 1.5t3 0.5q3 1 6 1h7q4 1 10 4q12 7 33 10h11q8 -1 16 -3q24 -6 79 -6h137q17 0 25.5 -0.5t16 -1.5t20.5 -5q4 -1 11 -3q8 -1 17 -1h9l1 -36q-11 -4 -25 -5q-20 -1 -52 -12l-23 -9q-5 -15 -6 -39q-1 -15 -1 -28v-13q0 -17 2 -29.5t5 -24.5
q2 -10 4 -22q3 -17 3 -38.5v-40.5q-1 -4 -1 -7q-1 -22 -4 -41q-3 -18 -5 -38q0 -10 -2 -21q-1 -9 -1 -17q-1 -14 -1.5 -40t-0.5 -52v-52q0 -14 -1 -22.5t-5 -23.5q-1 -4 -2 -46.5t-1.5 -99.5t-1.5 -107q-1 -54 -1 -70v-16t0.5 -7.5t0.5 -3.5q1 -2 1.5 -5l1.5 -9
q1 -19 0.5 -85t-1.5 -132t-2 -85q-1 -8 -2 -12.5t-2 -6.5q-1 -3 -1.5 -6.5t-0.5 -12.5q-1 -7 -1 -18q-1 -19 -1 -39t1 -29q3 -2 12.5 -6t19.5 -7.5t15 -4.5q11 -3 26 -5q10 -1 18 -2.5t12 -3.5q1 -6 1 -14q0 -7 -1 -15v-6q-6 -1 -10 -1q-7 0 -14 -1q-11 -3 -18 -5
q-9 -2 -14.5 -3.5t-13 -1.5h-21.5h-31q-44 1 -98.5 0.5t-77.5 -6.5q-10 -3 -19 -3q-7 0 -17 2.5t-19 7.5q-6 2 -10 4l-4 1l-3 -1q-2 0 -5 1q-2 0 -3 0.5t-2 1.5q-1 0 -2 1t-2 1v8l1 28q7 4 23.5 8.5t34.5 8.5q19 5 28 8q0 22 -2 44q-1 20 -1 40v27q0 29 1 69q1 50 1 96
t-2 69v5q-7 53 -7 106q0 28 2 57q2 11 3 17.5t2.5 9.5t2.5 4t2 1t1.5 1t1 3t1 5.5t0.5 10.5l1 110q0 93 2 186q1 82 1 163q0 26 -4 49q-3 14 -4 30q-1 11 -1 38v26v33.5t3 30.5q2 8 4 13q2 4 3.5 9t1.5 14v17q0 13 -2 26q-4 16 -8 34v2q-16 5 -32 9q-6 1 -13 3q-10 3 -19 5
q-1 1 -3 1l-8 2q-1 0 -2 1q-10 3 -12 6q-1 2 -1 4q0 3 1 5v5q0 5 -1 12z" />
    <glyph glyph-name="J" unicode="J" horiz-adv-x="532" 
d="M20 1474q2 5 5.5 6t8.5 1h6q4 1 11 4q10 5 25 9q6 1 12 1q11 0 23 -3q15 -4 40 -5t48 -1h128q14 0 19 1h6t4 -0.5l6 -1.5t16 -3q9 -2 17 -4q2 -1 5 -1q6 -1 12 -1q8 0 14 -2v-35q-13 -4 -29 -5q-12 -1 -23 -4q-14 -3 -26 -8q-9 -3 -19 -6v-1q-1 -1 -1 -2q-4 -15 -6 -42
t-2 -41q0 -23 4 -45q1 -8 4 -17q2 -10 4 -21q4 -24 4 -66t-4 -68l-6 -88l3 -139l1 -12q0 -17 -5 -33q-2 -5 -2 -14.5v-18.5v-73q0 -109 -5 -216q0 -6 -1 -12q-1 -18 -2 -34q1 -5 2 -11q0 -6 1 -12q0 -53 -12 -137t-22 -136q-7 -37 -12.5 -53t-9.5 -23q-4 -6 -6 -14l-16 -53
q2 -3 3.5 -4t3.5 -2t4 -4q1 0 1 -1t1 -1q0 -1 0.5 -1.5l1.5 -1.5t2 -1v-1q1 0 1.5 -0.5l1.5 -1.5q-2 -10 -11.5 -20.5t-16.5 -17.5l-5 -5q-4 -3 -6.5 -6.5t-4.5 -10.5q-1 -3 -2 -7q-1 -5 -3 -10t-4 -9l-18 5q-17 -20 -49 -31q-23 -7 -34 -7q-7 -1 -14 -2.5t-16 -6.5
q-23 -14 -45 -26q-16 -9 -31 -18q-15 -8 -20 -10q-3 -1 -4 -2t-2 -2.5t-2 -4.5q-2 -2 -4 -7q-4 -6 -15.5 -18t-24.5 -24t-19 -19q-4 -2 -6 -5q-8 -7 -15 -12t-17 -5h-19q-15 1 -29.5 0.5t-24.5 -4.5h-1q-13 -6 -27 -11q2 3 3 4t3 2l3 3q2 1 2.5 2.5t1.5 3.5t4 6.5t13 12.5
q11 9 21 19q7 6 13 12q5 4 10 7t10 7q43 39 80 83q31 34 60 71q9 14 14.5 22t8 12.5t2.5 7v4.5v4v5.5t4 14.5q3 8 5.5 13t4.5 7l3 3t2 1t2 0.5t2 2t2.5 5.5t2.5 10q2 10 2 17v12q2 8 5 13q2 3 2.5 4.5t1.5 3.5q0 1 1 3q25 92 39 189q4 25 5.5 39t1.5 22q0 9 -1 20
q0 13 -1 43q1 13 2 38t3 49.5t4 36.5q1 9 3 13.5t3.5 6.5t2.5 2q1 1 2 2.5t1.5 4t0.5 7.5l1 80q1 46 1 92q0 117 -4 238q0 30 -1 59q-2 41 -6 66q-4 21 -6 53q-2 25 -2 63t6 60q2 6 3 8q1 3 1.5 5t1 5t0.5 9v15q1 9 1 17q-1 4 -3 16t-4.5 24t-3.5 15q-1 0 -1 1h-2q0 1 -1 1
h-1l-1 1l-78 20q-5 2 -6 9v27z" />
    <glyph glyph-name="K" unicode="K" horiz-adv-x="1153" 
d="M1073 12q-5 0 -7 0.5t-3.5 0t-2.5 -0.5q-2 -1 -5 -2l-45 -1q-5 1 -9 1q-4 1 -11 1q-22 0 -35 -0.5t-23 -1.5q-10 0 -23.5 -0.5t-35.5 -0.5q-6 -1 -10.5 -2.5t-7.5 -3.5q-5 -3 -13 -5q-5 -1 -15 -1h-10q-5 0 -7 1.5t-3 3.5q-1 3 -4 4q-1 1 -4 1h-4q-4 0 -7 -2t-5 -4
q-3 -3 -7 -5q-3 -2 -7 -2h-2q-4 0 -5 1.5t-2 3.5t-2 3q-5 -2 -9 -6q-6 -5 -11 -7q-15 17 -29 36q-4 5 -9 10q-8 6 -22 22q-24 31 -47 61q-18 23 -37 47q-6 7 -10 13q-8 10 -15.5 18.5t-20.5 19.5q-9 8 -14.5 13t-9.5 9.5t-9 10.5q-4 6 -13 17q-15 18 -21 28.5t-7 15.5v9l1 2
q0 1 -0.5 2.5t-2.5 3.5l-181 231q-1 1 -1 2h-1v1h-2v-22.5t0.5 -11t0.5 -6.5q1 -2 1.5 -6t1.5 -13q1 -31 0.5 -79t-1.5 -86v-17q-1 -20 -1 -40v-21q0 -31 -2 -60q-1 -7 -3 -11q-2 -6 -2 -14q-1 -7 -1 -19q-1 -21 -1 -44q0 -22 1 -30l48 -17q11 -3 26 -5q19 -2 29 -6v-36
q-30 0 -49 -7q-11 -4 -19 -4h-27q-19 0 -37 1h-83q-21 -1 -44.5 -2t-39.5 -5q-10 -3 -19 -3q-7 0 -17.5 3t-19.5 7q-6 3 -9 4q-4 1 -6 1t-3 -1h-2t-3 1.5l-6 4.5l1 36l86 24q0 18 -2 35q-2 16 -2 34v72q0 20 1 52q1 44 1.5 90t-2.5 71v5q-5 29 -6 61v7q0 24 0.5 59.5
t6.5 52.5l3 4.5t2 2.5q1 0 3 3l5 412v28q1 11 1 21q0 26 -4 52q-7 52 -7 106q0 21 1 43q0 11 2 17.5t4 12.5q2 5 5 11q1 4 1 14.5v21t-1 15.5q0 2 -1.5 9t-3.5 15.5t-3 13.5q-2 5 -3 5l-9 3q-2 1 -5 2q-11 2 -27 6t-29.5 8t-15.5 5q-2 8 -2 18v18q5 4 7.5 5t5.5 1h2h4t7 2
q4 2 8 3q9 5 19 7q7 1 15 1q14 0 28 -4q27 -5 92 -5t113 1h21q24 0 40 -5q15 -6 43 -6l1 -36q-12 -3 -26 -5q-14 -1 -27 -4l-24 -8q-11 -4 -23 -8q-7 -44 -7 -73q0 -6 1 -24t7 -38q5 -21 6 -48l1 -35l-1 -35q-1 -17 -4 -32q-3 -13 -4 -27q-1 -13 -2 -25q-3 -20 -3 -39
q0 -11 -1 -21v-46q0 -9 -1 -19v-18q0 -17 1 -32l20 23q8 9 14.5 15t11.5 10q6 4 12 10l22 22q3 4 7 8q16 16 35 38q21 25 35 40q4 3 7 5q2 2 4.5 3.5t5.5 5.5t7 9l6 6q2 3 4 5q2 1 3 3l2 2q2 3 5 6l83 94q7 9 15 17l12 14q4 4 7 10q4 8 19 25l83 94q6 7 13 15q9 9 14 17
q-7 5 -37 13l-60 16q-25 6 -36 9v36q4 4 6.5 5t5.5 1h7q4 0 8 2l8 4l4 2q10 4 24 5h7q10 0 18 -2q18 -4 44.5 -5.5t49.5 -1.5h12q12 0 24 1h15q9 -1 14 -1l84 1q9 0 16 -2q3 -1 8 -2q7 -2 13 -3q8 -2 15.5 -3t20.5 -1q1 -6 1 -13v-14v-7q0 -2 -1 -2.5t-2.5 -1l-4.5 -1.5h-4
q-15 -2 -22 -3q-8 -1 -13 -2t-12.5 -3.5t-21.5 -7.5q-5 -2 -10 -3q-9 -3 -16 -6q1 -2 2 -3l2 -2t2 -3q-5 -8 -18 -19q-10 -10 -16 -18q-11 -15 -21 -25q-6 -6 -12 -14q-7 -8 -14 -15q-1 -2 -3 -4q-9 -9 -17 -19q-12 -15 -25 -28q-23 -23 -41 -50q-9 -13 -24.5 -33.5
t-32 -38.5t-29.5 -22q-3 -1 -4 -2l-3 -3q-1 -1 -3 -4q-2 -2 -4 -5q-2 -2 -4 -5l-34 -38q-9 -12 -19 -22l-14 -16q-17 -20 -34 -39l-4 -4q-6 -8 -13 -15q-15 -19 -38 -43q-22 -24 -37 -43l-22 -33q-5 -7 -10 -12q-3 -3 -6 -8q-8 -9 -17 -19q-2 -1 -3 -3l-6 -6q-1 -2 -3 -4
q-3 -3 -6 -7q3 -4 8 -9q2 -2 3 -4l6 -8q2 -2 5 -6q10 -12 17 -30q3 -6 10 -18t15 -23.5t12 -17.5q2 -2 6 -7q8 -11 20.5 -27t23 -29.5t13.5 -17.5q1 -3 2 -4.5t1 -2.5v-2v-1q0 -2 1.5 -4t4.5 -6.5t9 -11.5l84 -108q4 -6 15.5 -21t22.5 -29t15 -17q18 -13 30 -31q3 -4 5 -7
q17 -21 33 -43q25 -33 52 -65q10 -12 20 -28q2 -3 3 -5.5t2 -4.5q0 -2 2 -6q1 -2 4 -4l6 -4l3 -3q27 -20 47 -51q4 -7 6 -11q1 -2 2.5 -3.5t3.5 -3t6 -3.5q2 -1 5 -3q13 -7 20.5 -12t12 -8.5t6 -6t1.5 -3.5v-2v-1.5t1 -0.5t4 1q7 0 43 1h5q6 0 9 -0.5t5.5 -4l7.5 -10.5
q2 -1 3 -3q6 -7 11 -11q6 -3 12 -10q4 -5 8.5 -9.5t11.5 -7.5q5 -3 6 -5l2 -4v-2z" />
    <glyph glyph-name="L" unicode="L" horiz-adv-x="917" 
d="M0 1481v24h98q14 -5 56 -7t86.5 -2h64.5h42q33 0 66 1q28 0 51 -7q9 -2 19 -4q9 -1 17 -1h10l1 -36h-2q-7 -3 -15 -3q-1 0 -3 -1q-9 -1 -15 -1q-11 -1 -20 -3t-26 -6q-2 -1 -5 -2q-15 -5 -31 -8q-9 -2 -18 -7.5t-13 -10.5q-2 -6 -3 -24v-65q2 -19 7 -35q5 -21 6 -48v-21
q1 -11 1 -22q0 -26 -4 -48q-3 -18 -6 -43t-4 -43q-1 -16 -1 -53q0 -41 -0.5 -80.5t-4.5 -50.5q-3 -10 -3.5 -32.5t-0.5 -42.5v-15q-1 -38 -1 -75v-19q-1 -47 -2 -93l-1 -71q0 -4 0.5 -7t1.5 -6t1 -7q2 -18 2 -47v-36t-1 -66q-1 -23 -1 -39v-26q0 -30 -0.5 -63t-3.5 -49
q-1 -5 -2 -7t-1.5 -4.5t-0.5 -9.5v-24q40 -7 66 -7q9 0 16 1q8 1 14 1q7 0 11 -1q3 -1 4 -1t2 -1q1 0 2 -0.5t4 -0.5h8q12 0 34 -1h61.5t42.5 2q11 3 31 3h39q12 -1 20 -1l14 15q10 9 17 16q12 10 17.5 17t9 16t8.5 28q2 5 4 12q0 2 1 4q1 6 3.5 14.5t5 16t4.5 9.5l35 3
l7 -7v-1q0 -1 -1 -2v-1q0 -1 0.5 -3t2 -5t5.5 -8q5 -9 6.5 -15t1.5 -18q0 -4 -0.5 -6.5t-1.5 -4.5t-2 -5q-1 -6 -1 -12v-7q-1 -10 -1 -20v-21q0 -38 4 -78v-9q0 -8 -1 -15t-3 -14q-2 -6 -3.5 -14t-1.5 -20l-36 -2l-4 13q-6 0 -16 -1q-7 -1 -12 -1q-18 -1 -43 -1l-22 1
q-10 0 -25.5 -0.5t-27.5 -2.5q-8 -2 -26 -4q-11 -1 -22 -1q-6 0 -16.5 0.5t-14.5 8.5q-51 0 -102 -1h-67h-13.5t-13 -1.5t-21.5 -3.5q-5 -1 -9 -3q-5 -1 -10.5 -2t-13.5 -1q-31 1 -75.5 1.5t-73.5 -0.5q-8 -1 -19 -1q-14 0 -28.5 -1t-23.5 -3q-8 -3 -16 -3h-18q-14 1 -22 7
q-8 5 -21 6q-4 0 -5.5 0.5t-2.5 1t-2 0.5q0 1 -1 1.5l-3 1.5v7l2 30q36 10 74 20q9 3 17 5q15 4 27 8.5t24 15.5q0 7 -2 16q-1 8 -1 15q-1 34 -1 71q0 36 1 75q2 50 2 96v14q0 26 -3 52q-4 30 -6 67v24q0 24 1 44v6q0 14 3 29.5t12 19.5q0 70 1 141q1 33 1 65q0 38 1 76
q0 66 1 132v23q1 14 1 27q0 26 -3 50q-5 37 -8 98v18q0 49 9 77q4 8 4.5 18.5t0.5 21.5q-1 5 -1 9q0 9 -4 22q-2 6 -3 11l-2 8v2h-1q-2 1 -10.5 3t-20 4t-22.5 4l-20 4q-2 1 -4 1q-9 2 -23 5t-27 6.5t-18 5.5z" />
    <glyph glyph-name="M" unicode="M" horiz-adv-x="1721" 
d="M764 -203h-11q-10 26 -13 58q-3 17 -6 32l-12 56q-7 30 -14 62t-12.5 55.5t-6.5 27.5q-3 6 -7 10q-3 3 -6.5 8.5t-5.5 17.5q-1 4 -2 6q-1 3 -1 5v5t1 7l1 4q0 2 -1 5.5t-3 7.5q-1 3 -1 5q-1 5 -2.5 7t-3.5 4q-1 1 -2 2.5t-2 4.5t-1 5v2.5t1 2.5t1 2v3t-1 5q-17 40 -27 87
q-2 9 -5 18q-5 23 -11 46q-15 66 -33 128q-7 19 -14 35q-9 21 -16 45q-2 8 -6 18q-6 23 -12.5 48.5t-6.5 44.5l1.5 6t1 3t1.5 2l1 1v2.5t-0.5 5t-2 9t-3.5 14t-6 20.5q-5 21 -11 42q-6 22 -12 45q-14 50 -27 100q-21 79 -43 158q-1 4 -3 9q-5 19 -12.5 42t-13.5 30
q-24 -109 -40 -221q-1 -8 -2 -17q-3 -32 -12 -57q-2 -9 -11 -65.5t-19 -126t-16 -115.5q-4 -25 -5 -34q-1 -11 -2 -23q0 -10 -1 -19q-7 -66 -18 -133q-7 -48 -14 -97q0 -6 -1 -11q-3 -34 -11 -64l-7 -36q-1 -9 -1 -13v-3q0 -3 1 -5.5t4 -6.5l3 -6q8 -13 13 -19.5t11 -9.5
t17 -7q4 -1 8 -3q34 -12 50 -13q11 -1 20 -4q1 -4 1 -11q0 -8 -0.5 -15t-1.5 -9q-4 -2 -11 -2q-6 0 -11 -1q-2 -1 -4 -1l-16 -4q-8 -2 -13 -3l-6 -1.5t-4.5 -0.5h-7.5h-14q-18 0 -37 1h-79q-16 0 -32 -1q-5 0 -11 -1q-5 -1 -11 -1q-10 -1 -19 -3q-12 -3 -23 -3h-3
q-11 0 -22 5q-5 3 -8.5 4.5t-5.5 2.5t-3 1h-2h-3t-6 1q-2 0 -3 1l-2 2t-3 2v14v12.5t4 10.5l1 1h1q1 1 2 1l71 21q5 1 9 2q2 1 4 1q8 2 11 3.5t4 5.5t1 11q0 10 2 31q2 23 5 45q6 41 12 85q16 98 23 184q1 20 4.5 56t8.5 70.5t12 51.5l4 8l1.5 1.5t1 2t1 5t1 9t2.5 14.5
l20 136q18 130 39 260q0 5 1 11q8 39 9 79q1 49 7 95q0 4 1 8q2 20 5.5 41t9.5 37q3 10 5 14q1 2 1.5 3.5t1 4t1.5 6.5t2 11l12 64q1 5 2 11l2 10v10q-1 6 -1 12t4 10l6 8q54 5 109 9q37 3 72 6h9q14 0 18.5 -6t4.5 -26q0 -12 2 -31q4 -33 10.5 -49.5t14.5 -29.5
q7 -11 15 -28q5 -13 9 -27q2 -5 3 -10q7 -21 12 -38t8 -41l18 -80q8 -27 15 -55q3 -12 6 -23q2 -8 5 -18q5 -16 9.5 -33t5.5 -28v-8q-1 -2 -1 -5q0 -2 2 -7l15 -59q4 -14 8 -27l34 -130l25 -97q1 -4 2 -6.5t2 -4.5l3 -6q12 -30 26.5 -88t23.5 -96l2 -8h1v-1l1 -1q9 33 15 69
q3 16 11 52t17.5 70t17.5 45q2 3 4 4q1 0 1.5 1t0.5 2.5t1 5.5l1 1q24 93 49 185l28 100l20 72q13 46 26 94q3 12 4 26q1 6 1 11q5 33 13 70.5t18 68.5q6 15 14 28q6 11 9 22q2 5 3 9q1 3 2 5q5 12 9 27q4 16 10 33l4 10q3 6 5 11.5t2 10.5v8v7t1.5 5t3.5 4q3 2 7 7
q10 1 20 1t20 -1q11 0 22 -1l123 -1q20 0 24 -7q2 -5 2 -13q0 -5 -1 -12q-1 -11 -1 -27q0 -8 0.5 -26.5t15.5 -57.5q17 -49 24 -102q2 -14 2.5 -22t0.5 -14q0 -8 1 -22q0 -8 2 -16q1 -6 1 -12q1 -7 2 -15q0 -7 1 -13q2 -19 9 -65q7 -41 12 -78.5t5 -49.5q-1 -5 -1 -7t-1 -4
v-2v-2.5t0.5 -4t0.5 -7.5q1 -1 1 -2l45 -330q1 -5 2 -9t2 -7t3 -8q3 -13 5 -26q5 -27 8 -54q7 -45 12 -89q1 -11 3 -23q2 -17 5 -38q10 -57 11 -102q-1 -7 -1 -10q-1 -3 -1 -6t1 -10q1 -4 2 -14q1 -12 2.5 -27t3.5 -27.5t3 -15.5q1 -2 3.5 -5.5t5.5 -7t4 -5.5q6 -8 15 -17.5
t18 -12.5q14 -4 25 -8l22 -8q14 -3 30 -5q13 -1 25 -4v-36q-7 -1 -12 -1h-5q-5 0 -11 -1q-17 -5 -27 -7t-19.5 -2.5t-27.5 -0.5h-3q-20 0 -41 1h-91q-19 -1 -38 -1q-10 0 -26 -1.5t-25 -3.5q-13 -4 -23 -4q-7 0 -17.5 2.5t-19.5 7.5q-6 3 -11 4q-4 1 -7 1h-6t-5 2l-1 1
q0 1 -1 1l-1 1v1h-1l1 34q25 19 52 23q16 3 27 9q-3 11 -5 27q-2 20 -7 40q-5 19 -11 61t-12 91q-8 78 -16 125q-6 26 -13 51q-2 6 -3 12q-4 13 -9.5 47t-8.5 68q-1 11 -1 20q0 17 3 24q1 2 2 3t2 1q0 1 0.5 1t0.5 1t-0.5 3t-0.5 5q-2 11 -3 22q-1 6 -2 13l-30 207
q-1 6 -2 18q-5 34 -13 90.5t-17 104.5t-15 58q-5 -23 -12 -41q-4 -12 -8 -25q-5 -16 -10 -30q-6 -17 -11 -36q-3 -10 -9 -32q-9 -34 -19.5 -70.5t-14.5 -47.5l-3 -6l-2 -4t-2 -5l-83 -306q-3 -11 -4 -22q-1 -7 -3 -15q-14 -63 -32 -125l-12 -46q-5 -18 -9 -37
q-10 -42 -23 -82q-1 -1 -1.5 -3t-2.5 -5l-2 -4t-1 -3v-8q0 -3 -0.5 -9t-4.5 -19q-2 -7 -4 -15l-6 -18q-2 -7 -4 -12q-4 -8 -7 -20q-2 -5 -3 -10q-3 -13 -6 -25l-16 4q-3 -4 -6 -7l-6 -6q-1 -2 -3 -3q-3 -3 -4.5 -5t-2.5 -8l-20 -86q0 -2 -1 -5q-1 -4 -1 -8v-3q0 -2 1 -5
l2 -4q2 -3 3 -5.5t3 -8.5q1 -5 2 -9q3 -17 7 -35q1 -3 2 -8q2 -9 4 -19v-5q0 -6 -2 -11q-5 -8 -12 -16l-10 -14q-4 -5 -7 -9q-4 -4 -6.5 -9t-4.5 -17z" />
    <glyph glyph-name="N" unicode="N" horiz-adv-x="1247" 
d="M0 1485q3 3 5 4.5t3 1.5h3h3.5t5.5 1q4 1 10 3q10 5 24 9q6 1 13 1q9 0 19 -2q16 -5 39.5 -6t44.5 -1h124q12 0 17 1h6.5t4.5 -0.5t7 -1.5q4 -1 14 -3l12 -3t6 -1q2 -1 4 -1.5t5.5 -0.5t11.5 -1h7v-2q0 -5 0.5 -8l1 -6t1.5 -8q1 -2 2 -5q3 -7 4 -15q12 -63 47 -111
q15 -19 21.5 -30t16.5 -30l2 -6l2 -4q18 -33 30 -69q3 -12 6 -21t8 -19q5 -12 9 -24q3 -8 5 -15q9 -22 30 -66q17 -38 32 -72.5t16 -46.5l1.5 -7.5t1 -4.5t1.5 -5q1 -1 2 -4l4 -8l4 -10q36 -81 71 -163q28 -66 57 -132q3 -8 6 -12.5t5 -8.5q4 -5 8 -14q23 -45 42 -93
q4 -8 7 -16l47 -111q3 -7 6 -13q6 -12 10 -24l1.5 1.5t0.5 1.5v6l1 61v7q0 32 -1 64q-4 46 -4 92q0 24 1 47v2q1 16 3 31q1 3 2 5t2 3l2 4q1 2 1 5.5v7.5v4l2 212l2 143v6v65.5t-3 66.5q-1 16 -2 43v28v34t3 34q1 6 2 11q3 8 3 19q0 5 1 11q0 14 -1 25q-1 9 -2 17l-2 14
l-2 18q0 7 -1 15q-5 7 -29.5 14.5t-52.5 14.5q-20 4 -35 8.5t-19 7.5l-2 34q1 1 1 2q1 0 1.5 0.5t0.5 1.5q3 2 5.5 2.5t5.5 0.5h6q6 2 14 5q9 5 22 8q6 1 12 1q8 0 18 -2q28 -7 78 -7h130h24.5t15 -1.5t17.5 -4.5q6 -1 14 -3t15 -2h9l1 -36q-5 -2 -13 -3.5t-17 -2.5
q-6 0 -10 -1q-18 -3 -33 -10q-10 -4 -21 -7q-4 -1 -6 -2t-4 -2.5t-4 -3.5q-5 -5 -6.5 -9.5t-1.5 -11.5q0 -6 -1 -16q-3 -35 -3 -71v-18q1 -21 4 -40q3 -21 3 -45q0 -8 1 -15v-15q0 -31 -3 -60q-3 -18 -4.5 -42.5t-2.5 -43.5l-1 -138q-1 -12 -3 -22q-2 -9 -2 -19
q0 -11 -1 -58t-2 -105t-1 -102v-53q3 -41 3 -84q0 -34 -2 -69q-1 -37 -1 -73v-38q0 -27 -2 -51q-1 -2 -1 -3l-1.5 -13.5t-0.5 -8.5v-12q-1 -3 -1 -8v-44q0 -1 1 -1v-1q1 0 1 -0.5t0.5 -0.5t1.5 -1q7 -10 15 -23q8 -14 18 -26q3 -4 7 -7t10 -5q10 -3 19 -7q11 -4 24 -8
q10 -2 23 -4q15 -1 27 -5q0 -4 0.5 -11t0 -14t-1.5 -11h-9q-7 0 -15 -2q-10 -3 -21 -5l-8 -2q-7 -2 -14 -3q-38 0 -78 1h-34q-34 0 -69 -1q-5 0 -11 -1t-13 -1q-11 -1 -21 -3q-11 -3 -23 -3h-3q-11 0 -23 6q-7 4 -11.5 5.5t-7 1.5h-3.5q-2 0 -3.5 0.5t-4.5 0.5
q-2 1 -2.5 1.5l-1.5 1.5l-1 1q-1 0 -2 1v16q0 4 1 9v8v3.5t-1 3.5t-2 6l-4 10q-3 8 -6 15t-6 12t-5 9q-7 10 -14 25l-79 184q-2 6 -5 12q-13 32 -27 61q-10 18 -20 35q-10 16 -18 32q-18 35 -33 73q-12 27 -16.5 42t-4.5 22q0 6 1 9q1 2 1 3.5v3.5q-1 2 -3.5 7.5t-5.5 12.5
t-5 12q-2 3 -2 5l-49 110q-23 53 -46 105q-40 93 -83 186q-8 18 -17 36q-7 14 -22 35q-11 15 -19 28q-3 5 -7 12q-3 7 -6 13t-6 9q-1 -11 -1 -21v-18q-1 -9 -3 -18q-1 -9 -2 -19l-4 -76v-65q0 -49 -5 -90q-1 -6 -1 -13.5v-15.5v-51q-1 -17 -1 -33q0 -23 -1 -46q0 -38 -1 -75
q0 -41 -1 -83q0 -11 1 -21l2 -18v-44q0 -44 -1 -88q-1 -33 -2 -67v-20q0 -29 -1 -59q-1 -9 -3 -18q-1 -7 -1 -15v-23q-1 -10 -1 -20v-40v-6t1 -3.5t2 -3.5l2 -2q9 -14 15 -20.5t12 -9.5t18 -7q5 -2 13 -5q20 -7 38 -8q14 -2 29 -6l-1 -36h-10q-7 0 -15 -2q-10 -3 -21 -5
q-2 0 -3 -1q-9 -2 -14 -2.5t-8.5 -1t-9.5 -0.5q-5 1 -13 1h-41l-31 1l-31 -1h-18q-17 0 -34 -1q-6 0 -12 -1q-5 -1 -12 -1q-11 -1 -21 -3q-11 -3 -23 -3h-3q-10 0 -22 5l-10 5t-6 2.5t-3 0.5h-2h-3t-6 1q-2 0 -2.5 0.5t-0.5 1.5h-1l-1.5 1.5t-2.5 1.5v16v10t2 10q2 2 14 5.5
t25.5 7t21.5 5.5q4 1 5 1q4 2 9 3q15 3 30.5 8t22.5 12q1 14 1 27t-1 26q-1 16 -1 32v84q1 29 1 58q1 37 1 75v37q0 20 -2 39q-2 21 -2 43v38q0 22 1 45q1 13 2 20t2 10.5t2 5.5t1.5 4t1 5.5t0.5 9.5l5 443q0 21 -3 43q-2 19 -2 38v85q1 26 4 39q3 11 4 28v6q0 16 -4 45
q-2 12 -3 24q0 7 -1 14q-8 8 -22 12.5t-28 8.5q-8 1 -15 3l-20 6l-16 4q-10 3 -16 4q-10 2 -14 4t-5 6t-1 13v19z" />
    <glyph glyph-name="O" unicode="O" 
d="M576 1498q18 1 34 1q66 0 115 -14.5t102 -58.5q13 -9 22 -19l20 -20q7 -6 12 -13q4 -5 8 -9q43 -52 76 -114q2 -4 5 -8q5 -9 11 -19q25 -41 45 -87q8 -20 13 -40q3 -11 7 -22q5 -15 11 -29q6 -15 11 -30q11 -39 14 -81q3 -30 9 -59q2 -13 3 -31t1 -35v-39q0 -26 -1 -53
q-8 -180 -62 -345q-7 -20 -10 -34q-3 -13 -9 -30q-18 -49 -36 -76.5t-49 -63.5l-8 -10q-14 -17 -39 -44t-41 -39q-10 -8 -17 -13q-10 -9 -29 -22q-49 -33 -118 -45q-39 -6 -76 -6q-14 0 -28 1q-25 1 -52 1h-6h-13h-23t-25 0.5t-13 1.5q-1 0 -1 1h-1v1h-1q-1 0 -2.5 0.5
t-3.5 1l-6 1.5q-2 0 -4 1q-7 1 -13 3q-45 12 -85 36q-26 15 -48 33q-4 4 -8 7q-18 15 -35 32q-101 108 -160 247q-10 23 -23.5 60t-15.5 63q-2 21 -8 45q-3 13 -5 24q-20 118 -20 238q0 32 1 64q4 48 15.5 104.5t24.5 101.5q41 157 135 271l40 42q20 20 43 39q32 25 77 48.5
t86 32.5q23 5 39 5l16 1l14 -1h13q14 0 31 1l11 1l12 -1q9 0 18 1zM556 1388q-29 -3 -50 -8.5t-45 -17.5q-118 -59 -179 -186q-18 -43 -26 -94q-4 -18 -8 -34q-2 -8 -4 -15q-4 -15 -5 -27.5t-1 -28.5q-1 -29 -6 -56q-5 -26 -6 -54v-14q1 -9 1 -16q-3 -42 -3 -83
q0 -164 51 -322q1 -1 1 -3q2 -4 4 -9.5t3 -9.5q3 -5 6 -9l6 -10q6 -11 12 -23q4 -9 9 -17q2 -5 3 -8q3 -6 4.5 -8.5t2.5 -4.5l2 -4q1 -4 6 -17q9 -25 24 -51t32 -45l5 -5q12 -14 25 -26l48 -44q6 -6 16.5 -13.5t18.5 -12.5q18 -12 40 -20q9 -3 12.5 -3h4.5q5 0 9 2q6 2 16 7
q1 1 3 2q39 20 72 50l4 4q15 12 27 25l8 10q11 10 21 23l2 2q12 15 25 32q25 36 42 79q35 89 53 190q3 12 6 23q4 12 7 25q4 26 7 53q9 71 9 142q0 45 -4 91q-2 21 -3 41q-1 36 -5 72q-13 105 -48 195q-6 13 -10 25q-10 26 -20.5 47.5t-29.5 49.5q-12 16 -28.5 33.5
t-32.5 28.5q-23 15 -64 31t-67 16h-3z" />
    <glyph glyph-name="P" unicode="P" horiz-adv-x="940" 
d="M1 1484q2 4 5.5 5.5t8.5 1.5q6 0 12 2l8 4q9 5 19 7h18.5t16.5 -3q5 -1 19 -2.5t28 -2t19 -0.5q3 1 4 1h8q2 0 5 -1q15 -1 34 -1t43 1h50t33 -2q12 -4 29 -4q7 0 14 1q10 1 21 1q18 0 47 -2.5t81 -18.5q42 -14 64 -24.5t42 -22.5q16 -9 42 -23q27 -14 44.5 -28.5
t35.5 -35.5l14 -14q10 -8 22 -22q6 -8 16.5 -27t20 -39t12.5 -28q23 -71 23 -145q0 -53 -12 -108q-16 -71 -51 -130q-3 -6 -6 -13q-2 -6 -5 -11q-11 -21 -28.5 -43.5t-35.5 -37.5q-49 -39 -112.5 -73t-127.5 -48q-38 -6 -68 -6q-13 0 -24 1q-19 2 -43 2q-1 -23 -1 -45v-14
t0.5 -7.5t0.5 -4v-3.5q1 -1 1.5 -4l1.5 -9q1 -25 1 -52v-48q-2 -82 -3 -164v-11q0 -16 -2 -32q-1 -6 -1.5 -9.5t-2.5 -8.5v-1q-1 -3 -1.5 -12t-0.5 -20v-21v-12q0 -5 0.5 -7.5t1.5 -3.5t2 -3q2 -1 3 -2l4 -4q8 -8 15.5 -13.5t22.5 -8.5q16 -4 27 -8q9 -3 19.5 -5.5
t25.5 -4.5h7q17 -2 31 -5q1 -9 1 -16q0 -6 -0.5 -12t-3 -7.5t-7.5 -1.5q-3 1 -8 1q-10 -1 -22 -4q-21 -6 -56 -8q-24 1 -48 1q-47 1 -95 1q-27 -1 -71 -2t-69 -3q-7 0 -13 -2q-7 -2 -19 -2h-17q-9 0 -16 1q-8 3 -14 6q-6 2 -13 4q-6 2 -11 2t-9.5 1t-7.5 6l2 34
q10 5 36.5 10.5t54.5 10.5q18 4 32 7t19 4q0 11 -2 34q-1 19 -2 34q0 43 2 107q1 52 1 100t-3 75q-6 47 -6 95q0 21 1 43q1 17 2.5 27t3 15.5t3.5 7.5l3 3q1 0 1.5 0.5l1.5 1.5l4 436q0 9 1 20v15q0 14 -1 26q-3 21 -5 34q-3 17 -4 34v48q0 10 -1 20q-1 7 -1 14q0 27 10 52
q3 6 3.5 10.5t0.5 9.5v24q0 8 -1 15q-2 7 -4 10t-6 5q-1 2 -3 3q-11 8 -19.5 12.5t-23.5 7.5q-9 3 -30.5 8.5t-41.5 11t-26 7.5zM349 700q21 5 45 16q8 3 15 6q57 22 108 54q76 45 115 129q14 32 21 59q2 8 5 16q1 5 3 8q1 2 3 7q5 29 5 56q0 18 -2 34q-6 41 -22 85
q-29 75 -85 117q-8 7 -15 13q-11 10 -23 18.5t-35 19.5q-26 13 -61.5 23.5t-65.5 11.5q-2 -10 -2 -23q0 -8 1 -18q2 -24 6 -41q1 -3 2 -7q4 -14 5 -29q1 -17 1 -35v-10q0 -23 -1.5 -41.5t-5.5 -40.5l-7 -82q0 -44 -1 -87v-23q1 -8 1 -17q0 -24 -7 -44q-1 -4 -1.5 -28
t-1 -55.5t-0.5 -57.5v-34z" />
    <glyph glyph-name="Q" unicode="Q" horiz-adv-x="1179" 
d="M1330 -130q-4 -2 -8 -2h-3q-5 0 -9 -1q-1 0 -2 -0.5t-1 -1.5q-1 0 -2 -0.5l-3 -1.5q-3 -1 -8 -1q-14 -2 -29 -3h-13q-32 -2 -65 -2h-22q-81 1 -154 22q-63 20 -105.5 45t-63.5 42q-14 10 -19 12l-12 4q-3 0 -5 1q-3 1 -5 2q-13 3 -23 7.5t-16 13.5l-3 4.5t-2 2t-4 0.5
q-1 1 -4 2q-7 2 -13 2h-5t-12 -3q-2 -1 -6 -2q-45 -13 -121 -15q-28 -1 -53 -1q-41 0 -73 3q-6 1 -11.5 1h-11.5h-3.5h-2t-0.5 1h-1v1q-1 0 -2 0.5t-2.5 1l-4.5 1.5q-29 5 -50.5 14t-46.5 21q-41 22 -76 56t-64 70q-106 130 -151 291q-3 10 -4 16t-1 10q0 5 -2 12
q-32 148 -32 284q0 4 1 76t47 222q21 68 49 127q17 37 45 77t55 68q45 48 106 87t129 52q50 9 110 9q40 0 117 -7t148 -56q10 -8 24.5 -20t22.5 -21q38 -40 58 -68.5t43 -70.5l10 -16q3 -5 6 -11q31 -48 54 -106q5 -16 9 -31q5 -18 12 -36q15 -38 20.5 -61.5t8.5 -54.5
q1 -13 3 -29q1 -11 3 -21q2 -9 3 -18q2 -13 2 -27q1 -7 1 -13q1 -29 1 -57q0 -57 -5 -114q-14 -156 -61 -292q-6 -16 -8 -26q-1 -7 -4 -16.5t-9 -25.5q-5 -14 -12.5 -31t-15.5 -29q-6 -9 -23 -30.5t-33.5 -42t-22.5 -25.5q2 -5 6 -10l4 -6q2 -4 4 -9t4 -8q4 -7 14 -15
q8 -6 11 -11q-3 -5 -7 -9q-2 -1 -3 -3q-2 -2 -2.5 -3t-0.5 -2q0 -2 1 -5v-3q2 -5 2 -9q1 -4 2 -6.5t2.5 -5t5.5 -7.5q20 -23 38.5 -41t43.5 -35q15 -10 22.5 -14t11.5 -4.5t8 -0.5h4q5 0 14 -1q34 -6 71 -8h50q5 0 10 -0.5t12 -4.5t13 -9q5 -3 11 -7l10 -6q7 -4 14 -9l6 -4
q3 -2 7 -4zM647 148q-4 4 -19 8.5t-31.5 8t-23.5 3.5t-13 -2q-4 -1 -7 -2h-28h-6t-4 1l-6 3q-5 3 -10 3q-2 0 -5 -1q-7 -2 -15 -5q-7 -3 -11 -4t-5 -1q-6 0 -11 4q-3 3 -3 6v5v10q1 11 1 22q1 8 1 23q1 20 2.5 39.5t4.5 26.5h6q6 0 13 -1q10 -2 22 -2q11 2 18 5q8 4 16 5h12
q11 0 18 -1q10 -2 17 -4q5 -2 10 -3q6 -2 12 -3l6 -2q8 -2 21 -5q14 -3 27 -6.5t20 -7.5l3 -3h1l2 -2l23 -9l10 -5l12 -6t9 -4q23 27 43.5 76t29.5 81q13 45 23 92q1 4 1 7q4 20 9 40q1 5 3 9l2 6t1 8q18 106 18 211q0 69 -8 138q-6 81 -21 144t-45 135q-34 88 -92 137
q-22 17 -55 32.5t-63 22.5q-10 3 -20 3h-4q-10 0 -23 -2q-2 0 -4 -1q-38 -5 -64.5 -19t-55.5 -34q-87 -59 -131 -157q-17 -41 -25 -90q-3 -17 -7 -32q-9 -28 -11 -65q-1 -35 -6 -65q-3 -18 -5 -38v-31q0 -13 -1 -26q-2 -33 -2 -65q0 -151 42 -296q2 -5 3 -9q4 -16 8.5 -27
t13.5 -25q4 -7 12 -23l16 -32t10 -22q18 -54 50 -94q13 -17 21 -25t17 -16l18 -18q2 -1 4 -3q12 -13 26 -24q30 -28 70 -45q11 -4 15 -5t7 -1q2 0 4 1q5 1 14 5l4 2q40 20 69 46z" />
    <glyph glyph-name="R" unicode="R" horiz-adv-x="1124" 
d="M3 1491q2 4 4 5q1 1 2 1t3 -1h4q11 1 20 7q8 4 17 6q3 0 10 0.5t13.5 0t9.5 -0.5l10 -2l8 -2t10 -1q7 0 15 -1t17 -1h10l10 1l10 -1q10 -1 25 -1h24t45 1h43t25 -1l8 -2q4 -1 8.5 -1.5t10.5 -0.5q29 3 57 3q89 0 174 -29q37 -12 62 -24q13 -7 31 -14q48 -19 84 -46
q8 -8 17 -15q8 -9 17 -16q24 -18 35.5 -31.5t24.5 -39.5l23 -41q20 -47 27 -102q3 -25 3 -49q0 -127 -69 -232q-4 -6 -6 -12q-3 -4 -6 -9q-20 -35 -49 -64q-22 -22 -61 -45.5t-67 -37.5q-3 -1 -10 -5q-7 -2 -14 -5.5l-13 -6.5t-7 -4q3 -5 6.5 -7.5t6.5 -4.5q5 -3 10 -8
t13 -18q10 -16 12.5 -24.5t2.5 -13.5q1 -3 1.5 -6t2.5 -8q1 -2 1 -3q1 -3 2.5 -5t2.5 -6q4 -12 11.5 -27.5t16.5 -28.5l2 -4q5 -10 7.5 -15.5t3.5 -9t1.5 -5t0.5 -3.5v-1v-2t1 -4.5t5 -9.5l38 -71l4 -8q5 -10 12.5 -23.5t13.5 -25t8 -13.5q6 -5 9.5 -9.5t6.5 -10.5
q15 -26 30 -54l21 -40q7 -11 9.5 -17.5t3.5 -10t1 -6.5t1 -7t5 -11q6 -13 13 -24q6 -11 12 -23q8 -16 20 -19q6 -1 12 -1t13 1t16 1t12.5 -2.5t6.5 -7.5q2 -2 3 -4q7 -9 14 -16q1 -2 3 -3q2 -3 3 -6q6 -8 14 -13q2 -1 6 -7t7 -12.5t4 -8.5q-6 0 -8 -0.5t-4 -1.5q-1 0 -3 -1
t-5 -1q-4 -1 -13.5 -1h-18.5h-14q-6 0 -10 1q-5 1 -11 1h-31q-31 -1 -63 -1q-15 -1 -31 -1q-7 0 -11 -0.5t-6 -1.5t-4 -3q-1 -1 -5 -2.5t-10.5 -2.5t-20.5 -2q-4 0 -6.5 0.5t-3.5 1t-3 2.5l-3 3l-25 -11l-4 4q-6 -2 -9 -2q-4 0 -6.5 3t-2.5 12t1 18v14t-1 9q-24 35 -44 76
l-9 18q-1 1 -1 3q-8 16 -18 31q-6 9 -13 15q-6 6 -12 13l-8 12l-2 4l-4 6q-7 12 -12 25q-2 5 -2 10q0 8 5 14q-1 4 -9 18t-17.5 31.5t-16.5 30.5q-6 10 -8 13l-17 32l-33 62q-4 7 -7 13q-4 8 -9 15t-13 15q-9 8 -16.5 17.5t-13.5 23.5q-2 3 -3 6l-6 10t-4 9v11q1 2 1 5t-2 8
t-5 10t-4 7q-6 4 -11 8q-10 5 -18 16l-26 1q-1 -4 -1 -17.5v-29.5v-30v-16q0 -12 2 -23q1 -10 2 -21v-47q0 -44 -1 -88q-1 -33 -1 -67v-33q0 -23 -1 -46q0 -2 -1 -4q0 -9 -2 -18q-1 -5 -2 -8q-1 -2 -1.5 -4.5t-0.5 -6.5v-19q0 -14 -1 -28v-4v-10t2 -8q16 -18 27.5 -24
t28.5 -9q10 -2 25 -7q28 -7 51 -9q17 -2 32 -5l-2 -36q-16 0 -26 -1.5t-21 -3.5q-6 -2 -16 -3q-15 -3 -25.5 -3.5t-23.5 -0.5h-15q-28 0 -56 1h-82q-12 0 -39.5 -0.5t-54.5 -1.5t-40 -3q-14 -3 -32 -4h-6q-13 0 -25 3q-8 3 -14 5q-5 2 -11 3.5t-16 2.5q-3 0 -4.5 0.5t-2.5 1
t-1 1.5q-1 0 -1.5 0.5t-3.5 0.5v7q1 8 1 17t2 13l1 1h2q1 1 2 1t2 1l65 14q14 3 30 6q24 4 44 9q0 9 -0.5 15t-1.5 13v5q-2 20 -2 57q0 13 0.5 49.5t1.5 90.5q1 34 1 52l1 14q0 27 -4 54q-1 7 -2 13q-4 26 -4 53v72q1 17 3 33q2 9 4 14t9 10q1 3 1.5 42t1 88.5t0.5 85.5v33
q1 63 1 126q0 11 1 37v53q1 13 1 22q0 8 -1 12q-1 13 -4 27q-2 13 -5 27q-1 12 -1.5 37.5t-0.5 51.5q0 25 2 36q3 13 8 25q2 5 3 8t1 5.5v6.5v15v13t-1 10q-1 6 -2 9t-2.5 4.5t-4.5 3.5l-4 2q-1 1 -2 1q-9 7 -18 12t-23 8q-1 1 -2 1q-12 3 -34 8t-42.5 10.5t-24.5 8.5
q-3 10 -3 23l1 7l-1 5l1 1v1h1v-1h1zM361 738q10 2 36 11t52 19.5t37 15.5q29 13 57 28t52 33q73 56 106 146q2 6 3 12q4 11 8 20v2l1 1q1 1 2 3l5 27q1 13 1 25q0 61 -26 113q-29 62 -74 94q-47 39 -106 63q-65 26 -143 29v-24q0 -29 5 -56q2 -4 2 -8q4 -14 5.5 -21.5
t1.5 -15.5v-23v-35q0 -27 -4 -53q-2 -8 -3.5 -23l-3 -30t-3.5 -23q-1 -24 -1 -72q0 -37 -0.5 -70.5t-3.5 -42.5q-1 -4 -2 -6q-1 -1 -1 -2.5t-0.5 -3.5t-0.5 -6z" />
    <glyph glyph-name="S" unicode="S" horiz-adv-x="914" 
d="M353 125q20 -5 46 -6h46q9 1 22.5 6.5t26.5 12t19 10.5q73 42 105 105q16 30 16 64q0 37 -19 80q-17 34 -38 59q-16 18 -26 28.5t-20 19.5q-11 10 -27 25l-1.5 3t-1.5 1q0 2 -2 3q-6 7 -21.5 18.5t-31.5 21.5l-24 15q-37 22 -74 39q-27 13 -54 27q-31 18 -59 38
q-31 22 -53.5 43t-47.5 50q-11 13 -21 27q-49 66 -80 146t-33 177q0 57 20 116.5t52 102.5q16 21 33 39q29 30 69 52q49 27 104 42q17 5 42 7t44 2h1q6 1 13 1q7 1 14 1q9 0 17 -2q3 -1 12 -1.5t19 -0.5q11 0 16 -1q21 -2 42 -6q20 -3 39 -8q6 -2 9.5 -2.5t6.5 -1.5
q4 0 9 -1t14 -5q19 -6 42 -17t40 -22l6 -4.5t3 -3.5l4 -4q1 -1 5.5 -3.5t10 -5.5t9.5 -5.5t5 -2.5q4 7 8 16.5t6 17.5q2 5 3 14q1 8 2.5 15t4.5 10q2 1 9.5 1t15 -0.5t10.5 -0.5q1 -5 1 -11t2 -11q3 -8 6 -19t3 -20q0 -14 -1 -29v-105q0 -19 0.5 -40.5t4.5 -35.5
q4 -12 4 -21q0 -4 -2 -11t-6 -14q-4 -6 -5 -11q-2 -4 -2 -7q0 -2 -0.5 -4t-3.5 -5l-2 -1h-14q-11 0 -22 2q-8 22 -15 44q-8 26 -11 37q-3 10 -5 16t-7 13t-16 21q-5 6 -10 13q-4 5 -6 9q-5 5 -7.5 8t-6 5t-10.5 4q-1 1 -3 2q-18 7 -35 18q-11 7 -22 13q-10 5 -20 9
q-9 3 -15 3q-5 0 -11 1q-16 4 -24 7t-10.5 5.5l-3.5 3.5q0 1 -0.5 2t-2.5 1q-11 3 -32 3h-22t-34 -2q-54 -7 -104 -31t-79 -66q-30 -44 -30 -101q0 -24 5 -49q8 -28 19 -51q3 -8 7 -17l2 -4q11 -33 31 -55q20 -21 38 -44q3 -3 6 -7q19 -26 48 -45q9 -6 17 -13q5 -3 10 -7
q41 -29 87 -51q93 -46 171 -108q5 -5 10 -9q8 -7 15 -13q8 -7 15 -13q4 -5 9 -9q8 -7 14 -14l10 -10q5 -5 11 -12t11 -13q4 -5 9 -11q6 -7 12 -15l28 -42q5 -6 8 -11q4 -4 8.5 -10.5t11.5 -19.5q39 -67 40 -146q0 -47 -7 -86q-30 -145 -147 -227l-29 -17q-3 -1 -3.5 -2.5
t-0.5 -2.5q-1 -1 -1.5 -2t-2.5 -1.5l-6 -1.5q-2 0 -4 -1q-4 0 -6.5 -0.5t-7.5 -2.5q-4 -2 -9 -3q-15 -4 -25 -11q-9 -7 -24 -11q-13 -4 -25 -4h-4q-7 0 -13 -1h-8q-19 -1 -38 -3q-13 -2 -27 -3h-7h-4.5t-2.5 1q-2 1 -6 2h-14q-5 0 -8 1q-28 1 -51 4.5t-50 10.5q-2 0 -5 1
l-4 2q-6 1 -9 1t-7.5 1t-12.5 3q-13 4 -26 5l-14 2l-1 10q-1 1 -2 1q-13 6 -29 14.5t-24 17.5q-3 3 -9.5 7.5t-13.5 8t-11 4.5q-2 -9 -7 -19q-4 -8 -6 -15q-3 -9 -4 -18q-1 -11 -4 -21h-37v5q0 5 -0.5 8.5t-1.5 8.5q-4 9 -6.5 19.5t-2.5 20.5v48l1 35l-1 36v48q-1 6 -1 11
q-1 5 -1 11t-1 11l-2 10q-4 10 -4 19q0 5 3 14t7 16q3 5 4 8q1 4 1 6t1 4t4 5v1h6t12 -0.5t13 -0.5h6q12 -28 21 -64q4 -15 8 -27q8 -23 22 -37l14 -18q6 -8 12 -15q4 -5 6.5 -6.5t6.5 -2.5q3 -1 7 -2q19 -9 37 -20l20 -12q9 -5 14.5 -7t9 -3t7.5 -1q5 0 15 -2q5 -1 11.5 -3
t11.5 -3q7 -2 10 -4.5t6 -8.5z" />
    <glyph glyph-name="T" unicode="T" horiz-adv-x="1090" 
d="M7 1551l37 3q2 -6 4 -14q3 -11 8 -21l18 -29q14 0 31 -2q15 -3 32 -3q19 0 42 4q29 6 55 6q23 0 44 -5q26 -3 56 -4q8 -1 14 -1h54q18 0 34 -4q3 -1 10.5 -1h17h17.5h9q9 0 37 -1q24 0 53 -0.5t51 -0.5h27q19 3 52 3t66 -1q27 -1 45 -1h7l12 1q17 0 33 -5q4 -1 15.5 -1
h23h16.5l4 10q2 5 4 9q1 3 3 6q2 5 5 11q3 9 5 21q2 13 6 20q5 2 12 2q8 0 16 -1q5 -1 8 -1q1 -4 1 -8v-2v-3t1 -5q1 -2 1 -3l4 -12q1 -4 2 -6q2 -5 2 -10q1 -9 1 -22t-1 -31v-36v-43.5t5 -42.5q3 -8 3 -18v-4q0 -7 -3 -13l-4 -8q-2 -2 -3 -4q-3 -6 -3 -9v-2q-1 -3 -2 -5.5
t-4.5 -3.5t-12.5 -1q-8 0 -23 1q-4 7 -9 20.5t-10 28.5q-8 28 -15 42q-9 0 -22 -1q-9 -1 -16 -1l-115 2h-25t-13 -0.5t-13 -1.5t-22 -2q-17 -2 -34 -2q-11 0 -22 1h-18q-2 -13 -2 -32v-23.5t4 -33.5q1 -7 3 -13q3 -13 5 -26q2 -16 1.5 -45.5t-1.5 -46.5q-1 -14 -4 -25
q-1 -7 -3 -15q-1 -10 -1 -22q-1 -11 -2 -21q-2 -16 -2.5 -42.5t-0.5 -55.5q0 -28 -0.5 -51t-2.5 -35q-1 -5 -2 -8q-1 -2 -1.5 -4t-0.5 -7l-4 -207v-28q-1 -32 -1 -64v-25q0 -4 1 -9l2 -10q2 -18 1.5 -56.5t-1.5 -82.5q-1 -39 -1 -67v-25q0 -24 -1 -48q-2 -24 -6 -33
q-1 -4 -1 -6v-26q0 -11 -1 -22v-4q0 -6 0.5 -9t4 -7t11.5 -11q10 -12 30 -17q15 -3 28 -8l8 -2q31 -9 52 -10q15 -1 26 -5l-1 -36q-12 -1 -18.5 -1.5t-11.5 -1t-12 -2.5q-7 -1 -18 -3q-4 -1 -7 -2q-5 -1 -10 -1.5t-13 -0.5l-167 1q-14 0 -28 -1h-39q-9 0 -17 -1
q-7 -1 -15 -1q-16 0 -30 -2l-1 -1q-9 -1 -14.5 -2t-15.5 -1q-13 0 -20 1t-10.5 2t-7.5 3q-2 2 -6 3.5t-11 3.5l-5 1l-4 -1q-3 0 -7 1q-2 0 -4 1t-3.5 2.5t-2.5 3.5q0 2 0.5 10t0.5 15t1 8q3 3 11.5 5.5t16.5 3.5q4 1 6 2q15 3 30 7q3 0 5 1q6 1 19 4q11 2 22.5 4.5t20.5 4.5
t10 3q0 17 -1 34q-2 14 -2 30q0 38 1 97q1 53 1 101t-2 72q-1 1 -1 3q-5 29 -5 61v68q1 16 3 32q2 8 3.5 12t3.5 5.5t3 2.5q1 0 1.5 0.5t0.5 1.5q2 125 3 250q0 69 1 137v17q1 21 1 44q0 24 -1 34q-9 43 -9 89v36q0 11 0.5 26.5t5.5 29.5l2 6q2 4 3 6.5t2 4.5v14t-0.5 20
t-0.5 13l-1 1l-4 18q-35 0 -66 1h-45q-18 0 -34 -3q-9 -2 -19 -3h-58q-12 0 -18 1t-9 2q-3 2 -8.5 3t-17.5 1q-4 0 -12 -0.5t-15 -2t-10 -5.5q-9 -14 -14 -34q-3 -11 -7 -19q-1 -5 -3 -9q-3 -6 -5 -13q-1 -3 -3 -6q-1 -2 -1 -4q-1 -1 -1 -2l-2 -4t-3 -3l-5 -1q-6 -1 -14 -1
q-7 0 -13.5 1t-7.5 4t-1 4v2v2q0 1 -1.5 3.5t-4.5 6.5l-1 1q-2 4 -4 7t-2 8q0 11 3 26q3 14 3 30v31q-2 37 -7 74q-1 7 -2 13q0 5 -1 10q-2 15 -2 25t5 26q2 5 2 8v5v9z" />
    <glyph glyph-name="U" unicode="U" horiz-adv-x="1222" 
d="M0 1488q2 0 3 0.5t2 1.5q0 1 1.5 1.5t4.5 0.5q3 1 6 1h9q11 4 19 7q10 5 23 7q4 1 8 1q13 0 32 -5q10 -2 32.5 -3.5t47 -2t39.5 -0.5h52q44 0 88 1h32q12 0 27 -3t28 -6h2q9 -2 17 -2h6q4 0 8 -1l2 -37q-15 -3 -30 -4q-10 -1 -20 -3q-19 -3 -36 -9q-4 -1 -8 -3
q-12 -3 -19 -5q-12 -3 -17 -5.5t-6.5 -6.5t-2.5 -14q-1 -3 -1 -8q-3 -20 -3 -41q0 -20 3 -40q2 -11 4 -17t4 -11t4 -11.5t3 -20t1 -37.5q0 -15 -1 -24.5t-3 -17.5q-2 -12 -4 -35q0 -6 -1 -13l-2 -12v-78q1 -17 1 -34q0 -18 -2 -29q0 -3 -0.5 -5t-1.5 -4t-1.5 -5t-0.5 -10
q0 -38 1 -76q0 -87 4 -174q1 -7 3 -12q1 -5 3 -10q2 -18 3 -37q1 -8 2 -15q1 -21 3 -41q3 -32 6 -63q2 -14 4 -27q2 -11 3 -23q12 -94 44 -183q6 -13 12 -23q5 -6 9 -14l8 -14q7 -12 12 -22q2 -5 4 -9q6 -16 14 -30q11 -17 26 -28.5t40 -18.5q12 -4 22.5 -6.5t24.5 -3.5
q8 -1 16 -1q51 0 98 25.5t78 64.5q24 30 44 69q11 22 22.5 61t21.5 79l14 49t10 28q3 5 4 7l1.5 1.5t0.5 2t1 4.5q0 2 1 5q1 11 3 22v3q15 101 21 206q5 94 5 189v89q-1 20 -4 39q-1 6 -1 12q-2 15 -4 48t-3 66q-1 22 -1 37v13q1 11 3 21q2 11 2 23v8q-1 45 -8 90q0 4 -1 5
l-3 3q-1 0 -2 1q-11 7 -18 13q-11 9 -22 14.5t-34 11.5q-2 0 -4 1q-11 3 -29 7.5t-34 9.5t-21 7l-2 37l1 1q3 2 5 3t3 1h2q2 0 9 1t15 6q9 4 21 7q5 1 11 1q9 0 19 -2q28 -7 79 -8h94q19 1 33 1h20h5t4.5 -0.5t6.5 -1.5t14 -3t19 -4q2 0 3 -1q5 -1 11 -1h6q4 0 9 -1v-37
q-12 -3 -26 -4q-12 -2 -23 -4q-14 -4 -25 -9l-18 -6q1 -1 3 -2q1 -1 2 -1.5t2 -2t2 -4.5q1 -6 1 -12v-6q-1 -22 -2 -37q-1 -17 -1 -34v-44q2 -36 8 -69v-3q5 -29 6 -76q1 -19 1 -36q0 -24 -2 -42q-3 -23 -3 -49q0 -15 -1 -29q-1 -44 -1 -89v-27q0 -41 -2 -81q-1 -10 -3 -17
q-2 -8 -2 -19q-5 -112 -22 -221q-11 -69 -27 -135q-5 -20 -9 -35q-5 -22 -11 -42t-17 -48q-45 -112 -131 -191q-31 -31 -73 -48q-15 -5 -30 -11q-61 -24 -134 -28q-14 -2 -26 -4q-20 -4 -46 -4q-102 6 -169 75l-2 2q-19 18 -37 39q-36 46 -63 98l-14 28t-11 29l-21 -4
q-6 47 -21 90q-11 33 -18 79t-11 82l-2 22q-3 28 -6.5 53t-11.5 55q-3 12 -5 35.5t-2 47.5t4 37q1 3 2.5 5t3.5 4q1 1 3 2q-1 44 -2 87q-2 44 -2 87v39q-1 32 -1 71.5t-0.5 71t-1.5 38.5q-2 9 -4 20l-4 16q-4 25 -4 51v11q-1 11 -1 22v7q0 17 7 30v1q2 4 2.5 5.5t1 4.5
t-0.5 7v4q0 10 -0.5 15.5t-1 8.5t-2.5 8q-2 6 -6 21q-4 19 -4 27q-1 5 -2 7.5t-4.5 3.5t-10.5 2q-6 2 -16 4l-77 18h-3l-9 3t-3.5 3.5t-0.5 8.5q0 5 -1 14v13z" />
    <glyph glyph-name="V" unicode="V" horiz-adv-x="1322" 
d="M987 1515q17 -8 57 -9h79q27 1 44 1h16q8 -1 16 -4q12 -6 42 -8q1 -7 1 -18q0 -12 -1 -19q-3 -2 -10 -3t-15 -3q-15 -2 -25 -5q-4 -1 -13 -4.5t-17.5 -7.5t-11.5 -7q-22 -28 -27 -66l-6 -24q-21 -73 -44 -145q-7 -22 -14 -45q-2 -7 -4 -15q-13 -40 -23 -81
q-7 -36 -20.5 -85.5t-28.5 -81.5q-2 -5 -3.5 -7.5t-2.5 -3.5l-2 -2q-1 0 -2 -1.5t-2 -4.5q-10 -30 -19 -60q-5 -18 -10 -35l-100 -330q-2 -7 -5 -14q-5 -17 -9 -34q-15 -76 -38 -147q-7 -22 -15 -35q-5 -9 -10 -21.5t-10 -32.5q-3 -18 -4 -30q-1 -9 -3 -20t-7 -28
q-2 -4 -3 -7q-2 -4 -2 -8v-3q0 -3 1 -7q5 -11 5 -25q0 -6 -0.5 -8.5t-1 -4t-1.5 -2.5t-2 -2.5t-1 -4.5v-1q-7 -2 -33 -6t-58 -8.5t-56 -8.5q-17 -3 -25 -4q-3 0 -7 -1q-6 -1 -12.5 -2t-9.5 -1q-5 0 -9.5 4.5t-6.5 11.5q-4 16 -6 32q-2 12 -4 23q-11 47 -21 70t-19 36
q-10 15 -18 37q-8 21 -17 50.5t-12 51.5q-2 13 -2.5 19.5t-1.5 9.5t-2 7q0 2 -1.5 7t-3.5 14q-17 76 -42 152q-1 1 -1 3q-2 5 -4 11q-7 20 -11 41v9v3.5t-0.5 5t-2.5 10.5l-84 280q-3 10 -5 18q-5 22 -16 44q-6 11 -13.5 34t-13.5 42q-2 6 -3 11q-16 51 -31 102
q-6 22 -13 44q-10 29 -18 58q-3 13 -6 25l-2 14q0 9 -2 16q-6 22 -12 43q-2 4 -3 9q-5 15 -10 31q-11 36 -21 71l15 4q-6 2 -18 5.5t-28 6.5q-19 5 -37 9.5t-27 8.5v8q-1 8 -1 17v12l3 1.5t1 1.5q1 0 1.5 0.5t2.5 1t5 0.5q7 0 12 2t11 4q3 2 6 3l6 2q5 2 8 3h29q23 -8 90 -9
h124q26 1 40 1q17 0 38 -7q11 -3 18 -4q5 -1 11 -1h10l2 -37q-15 -4 -30 -5q-16 -2 -31 -6q-10 -3 -18 -6q-10 -4 -23 -7q-4 -1 -6 -2t-3 -2t-4 -2q3 -15 13 -38q7 -15 12 -31q2 -5 3 -10q10 -30 19 -60q4 -12 9 -30q13 -46 30 -101t28 -81q31 -65 50 -137q5 -19 8 -39
q1 -3 1 -5q0 -3 -0.5 -5.5t-1 -4.5t-1.5 -3t-1 -2v-2v-5t3 -10l130 -428q2 -5 3 -11q8 -30 21 -58q8 -15 15 -31q2 -5 5 -13q3 -7 5 -12.5t4 -8.5q2 7 4 15q6 22 13.5 47.5t14.5 43.5l6 14q4 9 8 19q13 38 23.5 69.5t21.5 69.5l6 22q8 25 16 49q3 8 6 14q4 7 8 18l86 283
q2 4 3 8q5 15 7 29q4 20 16.5 61.5t21.5 71.5q2 6 4 11q3 11 10 34q11 39 24.5 82t21.5 58q2 4 7.5 19.5t11 35t10 35t4.5 16.5q-6 4 -18 7.5t-26 7.5q-15 4 -29 8.5t-22 8.5l-2 36l3 3q1 1 2.5 2t4.5 1q6 1 9.5 1.5t5 1.5t3.5 2t4.5 2.5t7.5 3.5l6 3h26z" />
    <glyph glyph-name="W" unicode="W" horiz-adv-x="2124" 
d="M2044 1458q-11 -4 -21 -5q-8 -1 -20 -3.5t-32 -11.5q-2 -1 -5 -2q-9 -3 -15 -8q-22 -28 -29 -71q-2 -9 -4 -19q-19 -69 -41 -138q-9 -26 -17 -52q-1 -6 -3 -11q-14 -42 -24 -86q-7 -35 -20.5 -84.5t-28.5 -82.5q-1 -2 -2.5 -4.5t-2.5 -4.5l-3 -3q-1 0 -2 -1.5t-2 -4.5
l-29 -95l-6 -20q-25 -84 -51 -169q-15 -47 -29 -95q-5 -16 -10 -31q-2 -8 -5 -16q-1 -4 -2 -7q-7 -20 -11 -42q-9 -51 -24 -99q-4 -14 -7 -24q-5 -17 -10 -30.5t-17 -34.5q-2 -4 -5 -13.5t-6 -19.5t-4 -14q-2 -15 -4 -27q-1 -11 -3 -23t-8 -28q-1 -4 -2 -7q-2 -4 -2 -8v-3
q0 -3 1 -7q3 -7 5 -18q1 -4 1 -8q0 -6 -2 -11l-1 -2l-1 -1v-1q-1 0 -1 -0.5t-0.5 -1l-1.5 -1.5v-2q0 -1 -1 -1q-36 -6 -73 -12q-61 -10 -121 -20h-4q-8 0 -13 5q-2 3 -4.5 10.5t-4 16t-1.5 13.5q-4 28 -13.5 59t-22.5 55q-18 28 -25 47t-16 52q-1 4 -2 9q-3 11 -4.5 20.5
t-2.5 21.5q-2 12 -7.5 36.5t-12 49.5t-10.5 36q-2 8 -7 24q-8 26 -16.5 54t-9.5 38v8q1 2 1 3q0 2 -0.5 4l-1.5 6q-24 76 -47 156q-3 10 -6 19l-40 134q-1 4 -2 6.5t-2 4.5q-2 3 -4 7q-8 17 -17 46t-16 54q-2 7 -4 13q-1 4 -3 10q-2 8 -4.5 16.5t-4.5 12.5q-1 -2 -3.5 -13
t-5.5 -25q-2 -9 -3.5 -17t-2.5 -11q-2 -9 -5 -18q-10 -39 -23 -76l-6 -12l-3 -6t-2 -3q-1 0 -2 -1l-3 -3q-1 -2 -4 -13t-7 -23.5t-6 -21.5q-1 -4 -2 -6l-112 -378q-5 -18 -8 -39q-3 -15 -6 -29q-5 -24 -17 -64t-23 -60q-16 -31 -21 -75q-4 -31 -12 -56l-2 -4q-1 -2 -1 -5
q0 -2 1 -6v-1q3 -8 5 -16q1 -6 1 -13t-3 -12l-4 -8q-11 -3 -36.5 -6.5t-50.5 -7.5q-17 -2 -27 -4q-28 -4 -57 -9q-3 0 -9 -1q-5 -1 -10.5 -2t-9.5 -1h-3l-1 1q-5 3 -7.5 5.5t-4.5 8.5q-5 17 -7 33q-1 11 -4 23q-10 52 -34 98q-11 19 -16.5 30t-9 21t-8.5 27q-2 7 -5 15l-2 6
q-8 24 -11 47q-1 6 -2 11q0 9 -2 18l-20 81l-4 16q-13 43 -26 85l-4 12q-7 20 -11 40q-1 5 -1 7t1 4v3t-1 5.5t-2 10.5l-69 229q-7 21 -13 43q-8 29 -18 58l-11 23q-5 12 -8 24q-7 21 -13 41q-2 5 -3 10q-16 51 -31 102q-7 23 -14 47q-14 40 -23 81q-2 7 -2 14q0 9 -2 16
l-31 102q-1 6 -4 13q-3 10 -6 20.5t-5 19.5l14 3q-9 3 -24 7t-31 8l-28 7q-3 1 -7 2l-6 2h-3q-6 1 -10 4l-2 35v1l4 4q3 2 7 2h6q3 0 5 0.5t7 2.5q4 2 7 3q3 2 6 3t7 2q5 2 8 3h29q12 -6 50 -8q25 -1 53 -1h112q25 1 39 1q17 0 38 -7q10 -3 17 -4q6 -1 12 -1h10q1 -4 1 -11
l1 -8q0 -4 -0.5 -9.5t-1.5 -7.5q-2 -2 -12.5 -4t-22.5 -3q-8 -2 -15 -3t-10 -2q-10 -3 -18 -6q-10 -4 -23 -8q-3 0 -5 -1l-4 -2q-1 -1 -3 -2q1 -7 5 -18t9 -23q6 -15 11 -27q20 -63 39 -128q12 -43 25 -85q2 -6 4 -11q8 -31 20 -58q17 -37 34.5 -85.5t23.5 -88.5q1 -8 1 -12
t-1 -6t-2 -3t-1 -3v-2v-3.5t2 -8.5q27 -85 53 -171l34 -114q4 -12 11 -36q14 -47 31 -101.5t25 -73.5l23 -48l2 -6q2 -6 4 -10q2 4 6.5 18.5t8.5 29.5q3 12 5 17q4 16 11 32q8 19 18 47t16 48q3 12 8 28q8 28 17 57.5t15 46.5q1 4 2.5 6t2.5 5q1 1 2 3q3 6 4 13q1 2 1 4
l80 265q1 4 3 9q4 13 6 25q4 20 12.5 49.5t16.5 57.5q5 16 9 28l29 99q2 8 3 13t1 10v14v1l-4 82v11q0 8 -1 15t-5 12q-9 9 -9 27v7q3 2 5 3t5 4v9q-14 11 -14 17q0 9 29 9h83q29 2 66 2t53 -5v-2q0 -6 -4.5 -12.5t-8.5 -11.5l-3 -3q-1 -1 -1 -2q-3 -3 -4 -6v-2q0 -2 1 -6
l16 -54q4 -10 8 -19q3 -6 6 -14q24 -68 47 -150q10 -34 19 -65q0 -1 1 -3q9 -34 23 -66q14 -30 28 -68t21 -71q3 -13 4 -20.5t0.5 -11.5t-1 -6t-1.5 -3q-1 0 -1 -1v-2v-4t2 -9l136 -449l30 -63l20 72q5 17 11 34q3 8 7 15q4 9 7 18q4 9 7 19q9 24 17 49q11 36 22 71
q4 13 7 25q7 24 15 46q3 9 6 15q4 7 7 17q1 3 3 8q6 21 21 68.5t31.5 102t28.5 95t13 47.5q4 19 15.5 58.5t21.5 70.5l5 15q3 10 9 31q11 38 25 82.5t22 60.5q6 11 9 26q2 5 3 9l4 12q3 11 7 23q1 5 3 11q5 14 8 26q-4 1 -18.5 5.5t-32 10t-31 10t-14.5 6.5l-2 34
q2 4 5.5 5.5t8.5 1.5q5 1 10 3l21 11h27q18 -8 57 -9h80q26 1 44 1h15l12 -3t14 -4q1 0 1 -1q7 -1 10.5 -2t8 -1.5t11.5 -0.5l2 -16v-21z" />
    <glyph glyph-name="X" unicode="X" horiz-adv-x="1443" 
d="M6 1480q3 1 4 2q0 1 1.5 2t3.5 1q3 1 5 1.5t3 0.5l1 -1h1.5t2 0.5t4 1.5t6.5 3l10 5q10 5 25 6q8 1 14 1q7 0 13 -1q5 -2 17 -2.5t24 -0.5h17q14 1 29 2q14 0 28 1l140 9q8 0 19.5 -1.5t22.5 -3.5q6 -1 11 -2h14q7 0 12 -1l3 -35q-3 -1 -9.5 -2.5t-16.5 -3.5
q-23 -4 -42 -11q-4 -1 -8 -3q-6 -3 -12 -5q7 -14 18 -25q2 -3 5 -7l18 -24q2 -4 5 -7q43 -65 84 -132q2 -4 5 -9q18 -29 40.5 -64t39.5 -57q7 -9 14 -16q17 -20 33 -45q5 -7 17 -28.5t26 -46.5q13 -23 23 -40.5t11 -18.5q13 19 26 37q11 15 23 32q3 5 5 10q2 3 4 7
q22 36 46 70q8 10 15 21q18 26 37 52q24 34 47 68l10 16q25 39 53 74q2 2 5.5 8t7.5 13l7 10.5t4 6.5q4 5 15.5 21.5l23 33t13.5 20.5q-3 4 -7 6.5t-8 3.5t-7 3l-10 4q-6 4 -14 7q-13 5 -28 7q-14 2 -26 6l3 37q5 0 8 -1h6q5 0 12 1q9 2 22 4.5t22 2.5q29 -2 59 -4
q56 -5 111 -6q6 0 12 1h13q5 0 8.5 0.5t6.5 1.5q3 0 7 1q8 1 14 1q9 0 17 -2.5t15 -7.5t15 -7h5q4 0 7 -1q2 -1 3.5 -3t2.5 -4q0 -3 -0.5 -10.5t-1.5 -14.5t-2 -10q-24 -7 -56 -12q-36 -6 -60 -15q-12 -6 -18 -12t-11 -14q-3 -4 -6 -9q-12 -17 -25 -42q-8 -16 -14 -26
q-21 -33 -43 -64q-7 -10 -15 -21l-116 -168q-17 -25 -32 -52q-11 -18 -22 -35q-28 -43 -57 -85l-6 -8q-15 -25 -36 -39q-3 -1 -7.5 -7.5t-9 -13.5t-5.5 -10q4 -8 10 -17q4 -5 6 -9l115 -180q15 -23 30 -47q17 -28 36 -56l12 -20l8 -12q2 -3 5 -7q1 -3 2.5 -4.5t2.5 -3.5
q2 -1 4 -4q9 -11 19 -22q28 -32 50 -68l4 -6l10 -16q23 -30 35 -65q1 -3 2 -7q1 -6 2 -10q2 -5 8.5 -14.5t11.5 -17.5q3 -4 5 -7q6 -9 19 -21q23 -20 48 -59q2 -3 4 -7q1 -3 3 -7q1 -2 5 -6l8.5 -8.5t7.5 -6.5q6 -5 10.5 -7t10.5 -3q4 -1 9 -2q10 -3 19 -6q6 -2 13 -4
q18 -5 37 -6q19 -2 35 -6v-25.5t-2 -9.5q-2 -1 -5 -1h-8q-6 0 -17 -2q-13 -4 -28.5 -6.5t-28.5 -3.5q-27 1 -53 1l-56 1l-55 -1h-12q-26 -1 -53 -1h-1h-7.5t-6.5 -2h-18q-12 0 -27 -2q-21 -4 -34 -4q-4 0 -12.5 1t-19.5 6q-7 3 -18 6q-5 1 -8 1h-3q-3 0 -6 1t-8 5v8v11.5
t1 10t2 5.5l1 1q6 3 19.5 6t28.5 6q16 3 29 6t17 5q-2 6 -11 20.5t-18.5 28t-13.5 19.5q-12 15 -25 27q-14 14 -28 31q-13 19 -33 50t-30 53q-11 26 -24 49q-6 11 -12 24q-8 14 -20.5 33.5t-24.5 38.5q-11 17 -19 30q-5 8 -13 19q-12 17 -23 36t-15 33q-1 5 -5.5 12.5
t-9.5 14.5q-3 4 -5 8l-8 12q-1 1 -1 2q-1 0 -1 1h-1q-23 -34 -48 -69q-12 -17 -24 -35q-6 -8 -11 -16q-7 -9 -13 -18q-16 -25 -34 -50q-33 -43 -59 -89q-42 -73 -88 -136q-2 -2 -3 -5q-15 -19 -27 -31q-9 -8 -14 -15q-4 -5 -7 -10q-15 -20 -27 -44q-3 -5 -6 -11
q-4 -7 -7.5 -14.5t-6.5 -13.5h3q11 -3 32.5 -9t41.5 -11.5t27 -9.5l1 -35l-3 -3q-1 -1 -2 -1.5t-2 -1.5h-12q-6 -2 -13 -6l-4 -2q-12 -6 -22 -6h-8t-17 3q-9 3 -19 3q-8 1 -14 1q-4 1 -9 1q-31 2 -62 2q-21 0 -43 -1h-45h-22.5t-13.5 1.5t-15 4.5q-6 1 -15 4q-7 1 -14 1h-8
v36q4 2 11.5 3t14.5 2q4 1 7 1q21 4 39 12q3 1 6 3l6 2q6 1 9 3q9 5 17.5 17.5t16.5 24.5q5 9 8 14q2 3 2.5 5t0.5 3v2.5t1 4.5q3 5 8.5 12t9.5 11q5 6 8.5 10.5t8.5 10.5q34 43 62 96l2 4q12 24 27 46q7 10 15 23q26 40 51 69l18 22q4 5 7 10q5 6 9 12q32 43 62 87q2 2 4 5
q11 15 22 32q26 40 51 72l5 5q3 2 5 5l48 69q-1 4 -16 27.5t-34 54t-35 55.5q-15 23 -18 29l-3.5 3.5t-2.5 3.5q-1 1 -3 2q-12 13 -21 28q-41 61 -80 124q-25 41 -51 81q-5 7 -10 15q-12 17 -23.5 36t-15.5 33q-3 7 -5 11t-5 9q-1 1 -2 3q-9 14 -30 47q-19 31 -37.5 59.5
t-22.5 37.5q2 2 6 4t6 5l-7 5q-4 1 -8 3q-19 6 -39 8q-10 2 -19 3q-5 1 -17 3q-11 2 -24 4.5t-23 5t-13 3.5z" />
    <glyph glyph-name="Y" unicode="Y" horiz-adv-x="1385" 
d="M0 1482q2 1 3 3q1 1 2.5 1.5t3.5 1.5q4 1 6 1h2.5h1.5h2q1 0 3 1l5 2.5t8 3.5l4 2q7 4 11 5t12 1q6 1 13 1h5q5 0 9 -1q10 -2 27 -2h28q18 1 37 1q9 1 18 1q38 2 76 5q29 2 59 4q7 0 11 -0.5t7 -0.5l8 -2q15 -2 20 -3q4 0 7 -0.5t8.5 -0.5h17.5v-1h1v-2l1 -5q0 -5 1 -9
l1 -10l-1 -9q-5 -2 -13.5 -4t-18.5 -4q-7 -1 -12 -2q-16 -4 -28 -9q-6 -3 -12 -5l46 -81q4 -6 7 -13q18 -34 39 -66q6 -8 13 -16q8 -8 16 -18l23 -39l1 -1q5 -9 10 -22q3 -8 3 -15q0 -5 -1 -9q-1 -2 -1 -4q0 -1 2 -3q0 -1 1 -3l17 -29q45 -80 91 -160l22 -40q12 -20 23 -40
q4 -6 11 -12q2 -2 4 -5q14 -15 20 -24t9 -15q4 -7 10 -15q4 4 13 16.5t17.5 25.5t11.5 18q5 9 15 25q13 24 28 49t21 32q4 5 13.5 19.5t19 32t15.5 28.5q2 4 4 6q4 8 14 25q11 18 24 40.5t23 40.5t13 25q6 14 25 47.5t36 61.5q8 14 13 22t10 18q13 26 28 46l2 2q11 12 11 17
q0 1 -0.5 4t-18.5 11q-21 10 -32 13.5t-28 7.5q-7 2 -17 4l3 36l5 1l4 -1q6 0 12 1q11 2 17 4q8 2 13 2.5t13 0.5q7 0 21 -1q10 -1 19 -1q62 -6 126 -6h18q8 0 13 2q3 1 7 2q6 1 11 1q9 0 17 -3t14 -7q7 -5 15 -7q4 -1 6 -1h2h1.5t0.5 -0.5t1 -0.5l5 -5v-9q-1 -8 -1.5 -16
t-2.5 -11q-4 -2 -16.5 -5t-28.5 -6.5t-29 -6.5q-11 -3 -17 -4h-2q-5 -1 -10 -3t-8 -6q-9 -16 -17 -33q-5 -11 -11 -22q-21 -38 -43 -74q-20 -34 -39 -69q-7 -13 -12 -27l-6 -12q-6 -14 -13 -26q-3 -5 -6 -11q-10 -19 -21 -36q-5 -7 -8.5 -10.5t-5.5 -5t-4 -1.5l-1.5 -1.5
t-2.5 -1.5q-2 -3 -16 -27.5l-34 -59.5t-39 -68q-28 -49 -39 -68l-10 -18q-16 -26 -31 -53q-5 -10 -10 -24q-3 -9 -6 -16q-8 -16 -16 -30q-2 -3 -4 -7q-8 -14 -13 -22t-7 -13t-2.5 -11t-0.5 -18q1 -9 1 -25v-449q0 -2 1 -2l1 -1q1 -1 1.5 -2t1 -2.5t0.5 -4.5l1 -35
q0 -4 -1 -5.5t-2 -1.5q-2 -1 -3 -3v-8v-2t1 -2.5t4 -4.5q5 -5 8 -7t5 -3.5t7 -2.5q3 -1 8 -2q8 -3 15 -6q16 -6 34 -10q4 0 9 -1l16 -2t13 -3l-1 -36h-9q-4 0 -8 -0.5t-10 -1.5q-9 -3 -18 -5q-2 0 -4 -1q-5 -1 -8 -1q-3 -2 -7 -2.5t-10 -0.5q-21 1 -43 1q-47 2 -94 2h-57
q-7 0 -13 -1t-13 -1q-13 0 -25 -2q-16 -4 -27 -4q-4 0 -11.5 1.5t-16.5 5.5q-6 4 -14 6q-4 1 -6 1h-3h-3.5t-3.5 1.5t-5 4.5l2 35q4 3 25.5 9t44 11.5t30.5 6.5q0 1 -1 1h-3t-2 1v5q0 2 -0.5 4t-2.5 4q-3 6 -3 13v30q-1 3 -2 5t-3 4q-2 1 -3.5 3.5t-2.5 8.5v5q0 4 2 7t9 4
l3 1q-1 75 -1 150v246q0 4 1 7q0 4 -0.5 7t-3.5 8q-5 10 -8 22q-3 9 -7 17q-11 24 -20 34.5t-17 16.5q-10 7 -21 23q-4 7 -9 15q-9 15 -13 23t-5 12t-2 6q0 3 -0.5 6.5t-3.5 9.5q-2 4 -4 9l-4 8q-1 4 -3 8q-2 6 -4 11l-38 68q-8 13 -11.5 21t-4.5 11.5t-1 6.5q0 1 -0.5 3
t-1.5 5q-24 41 -47 82q-16 30 -33 60q-2 4 -6 11q-6 11 -12.5 23t-11.5 16q-10 10 -22 30t-21 39q-4 7 -7 12q-5 8 -14 24q-12 22 -25 45t-16 34q-2 4 -2 7v4q-1 3 -6.5 13t-12 21.5t-11.5 19.5q-2 4 -3 5l-2 4q-3 5 -6.5 11t-6 11.5t-3.5 7.5l10 6q-2 2 -6 3l-8 2h-2
q-5 1 -24 5q-17 3 -38 6.5t-36.5 7t-17.5 5.5q-1 2 -2 9t-1.5 14.5t-0.5 11.5z" />
    <glyph glyph-name="Z" unicode="Z" horiz-adv-x="1111" 
d="M177 1518l37 3q1 -4 3 -9q2 -7 4 -12l22 -2q13 -2 26 -2t25 2q5 1 9 3q5 1 10.5 2.5t13.5 1.5h7q11 1 16 1t9 -0.5t11 -2.5q4 -1 11 -2q4 0 9 -1h9q23 -2 45 -2h15q9 1 19 1q12 0 18 -2t16 -2h24q23 -1 52 -1t52 0.5t29 1.5q11 3 29.5 3h35.5h54q17 0 34 -1l-2 4
q-2 3 -4 7v10q4 3 10 3q1 0 6 -1t11 -3q1 -1 2 -1l82 -29q12 -4 26 -9q21 -6 42.5 -14t35.5 -18q0 -5 -4 -9t-8 -7h-2q-6 -5 -11 -9q-12 -9 -27 -16q-3 -1 -8 -3q-4 -2 -7.5 -3.5t-5.5 -2.5l9 -5q-2 -7 -8 -19t-13 -24q-5 -10 -9 -17q-2 -6 -4 -13q-2 -4 -3 -8
q-9 -24 -34.5 -75t-50.5 -100q-21 -39 -31 -60q-20 -40 -35 -83q-12 -33 -36 -82.5t-42 -73.5q-6 -5 -11 -7q-2 -1 -3.5 -2t-2.5 -2l-10 -20q-10 -19 -19 -38l-156 -312q-5 -11 -12 -24q-13 -24 -26 -50.5t-19 -45.5q-11 -35 -21 -57.5t-24 -51.5q-3 -7 -7 -14l-4 -8
q-7 -16 -16 -30q-8 -12 -17 -20q-7 -6 -10 -10q7 -1 12 -1q9 0 18 -2t17 -2q5 -1 10 -1q15 -1 33 -1h36q15 0 24 -1q2 0 3 -0.5t2 -1.5q1 0 2.5 -0.5t5.5 -0.5h140q16 0 30 2q14 1 29 2h93q9 0 17 -1q6 0 13 -1q8 11 20 22q21 17 31 39q3 7 8 24q6 18 12.5 36.5t9.5 22.5
q2 1 9.5 1.5t14.5 0.5q8 0 11 -1l2 -1q1 0 1 -1q2 -1 2.5 -3t0.5 -5q1 -2 1.5 -5.5t3.5 -7.5q6 -9 8 -17q1 -4 1 -9t-1 -11q0 -4 -2 -8t-3 -10q-3 -37 -3 -75q0 -18 1 -37v-35l1 -9q0 -4 -0.5 -10t-3.5 -15l-2 -6q-3 -9 -4 -15t-2 -18h-36q-4 9 -5 20l-2 10h-19
q-10 0 -19 -1q-21 -3 -48 -3q-13 0 -28 1q-16 1 -30 1q-22 0 -40 -2q-7 -1 -13 -3q-10 -2 -20 -2q-5 0 -9 -1q-8 -1 -16 -1q-15 0 -30 3q-4 1 -5.5 2t-2.5 2t-2 1.5l-3 1.5h-28h-60t-69 -1q-47 0 -68 -1q-13 0 -23 -3q-7 -1 -15 -3q-16 -1 -33 -1h-11q-9 0 -13.5 1t-7.5 2
q-4 2 -8 2l-9 -2q-1 0 -2 1q-3 2 -5.5 2.5t-6.5 -0.5t-7 -2q-4 -2 -8 -3q-9 -3 -18 -3q-7 0 -15 2q-7 2 -20 3t-26 1q-16 1 -25 2q-18 2 -37 2q-18 1 -34 3q-11 1 -21 1q-25 1 -47 8q0 5 2 8.5t5 6.5q0 1 1 2l4 4q15 18 29 30.5t37 23.5q6 2 11 4q7 3 12 5.5t9 8.5
q-5 7 -5 14q0 2 1.5 8t8.5 14q1 3 3 6q5 8 11 15q7 9 13 20q19 34 26 53.5t10 34.5q3 16 12 41q7 15 19 39.5t21 39.5q6 11 11 18t12 17l44 74l24 48t34 67t22 42q4 5 7 8q4 3 7 8q9 17 17 34q6 12 13 24l119 237l4 8q10 15 14 32q4 14 13 33.5t18 36.5q3 7 6 12l60 117
q7 14 15 32q12 26 25.5 52t27.5 41q3 2 6 8t5.5 11.5t3.5 9.5q-15 0 -33 -3q-22 -4 -50 -4h-12q-8 0 -15 2q-2 1 -3.5 1.5t-2.5 1.5t-1 2h-1v1q-1 0 -3 1q-40 0 -80 -1h-100h-34t-28 -3q-25 -5 -47 -5h-29q-7 -14 -17 -26q-15 -15 -23 -38q-2 -8 -7.5 -23.5t-11.5 -30
t-9 -19.5q-5 -1 -12 -1h-12q-8 0 -12 0.5t-4.5 2t-0.5 4.5t-3 9q-2 4 -4 7q-3 3 -5 6.5t-2 9.5v4q0 5 0.5 9t1.5 8q3 7 4 21q1 7 1 13q0 5 -1 9v22q-3 44 -9 87q0 2 -1 5q-1 9 -2 19v7q0 6 1 10q6 18 6 34v5z" />
    <glyph glyph-name="bracketleft" unicode="[" horiz-adv-x="572" 
d="M80 1537q8 0 16 -2q6 -2 14 -2h2q7 0 15 4q12 6 22.5 6.5t24.5 -3.5q11 -3 24 -3h23q7 1 12 1q6 0 9 -1q1 -1 2 -1l1 -1q1 0 1.5 -0.5t2 -0.5h4.5q8 0 22.5 0.5t28.5 0.5q19 1 32 2q4 0 7 0.5t5 1.5q2 0 4 1t6 1q8 1 25.5 2t34.5 1q16 0 21 -1q3 -1 4 -1q0 -1 1 -1h2.5
h4.5q5 0 12 1h16q4 1 7 1t5 -1l1 -127q-5 -1 -10 -1h-5q-4 0 -8 -1q-26 -5 -54 -5q-23 0 -37 -3q-4 -1 -7 -2q-5 -2 -12 -4q-7 -1 -18 -1h-5q-7 0 -12 2l-6 6l-59 -2q-2 -8 -2 -24t1.5 -32t2.5 -24q2 -8 4 -15q3 -14 5 -26.5t2 -30.5v-29q0 -28 -3 -54q-2 -7 -3 -14
q-3 -10 -5 -22v-9q-1 -15 -3 -30q-4 -32 -4 -78v-19q0 -37 -1 -67t-6 -43q-2 -5 -2.5 -14t-0.5 -18v-9l-6 -295q-1 -8 -1 -13t0.5 -7.5t0.5 -4t1 -2.5q0 -1 0.5 -3t1.5 -8q1 -17 1 -43v-44t-1 -80q-2 -52 -2 -83v-6q0 -17 -0.5 -39t-4.5 -36q-1 -4 -2 -6q0 -1 -0.5 -2.5
t-1 -3.5t-0.5 -6l-1 -62q19 0 41 1q10 1 18 1h7q6 0 10.5 0.5t10.5 2.5q13 3 26 3h1q5 0 12 1q13 1 27 1q7 1 12 1t8 -1q3 0 4.5 -0.5t2.5 -1.5q1 0 2.5 -0.5t4.5 -0.5q7 0 17 1q8 1 14 1t11 -1l2 -127q-6 -1 -12 -1q-5 0 -11 -1q-15 -3 -26.5 -4t-23.5 -1h-20
q-14 -1 -20 -2.5l-10 -2.5q-2 -1 -5 -2t-7 -2q-5 0 -12 -0.5t-12 -0.5q-4 0 -6.5 0.5t-4 1.5t-2.5 3t-3 3q-40 -2 -80 -3h-17q-12 -1 -25 -1h-8q-4 0 -7 -0.5t-4 -0.5h-2t-2 -1q-1 0 -3.5 -1.5t-7.5 -2.5q-4 -1 -12 -2t-16 -1q-7 0 -11 1q-2 1 -4 3q-3 1 -6 2.5t-7.5 1
t-12.5 -4.5q-10 -6 -16 -6q-2 0 -5.5 2t-3.5 11v19q1 9 1 16h-13q-7 0 -13 2q0 11 1 26v20q0 19 -1 34q-4 38 -4 89q0 50 2 98q1 29 1 53v14l1 34l-1 32q-2 16 -4 31q-4 21 -5 41v27q0 27 1 54q1 21 2.5 33t3.5 18.5t4.5 9l3.5 3.5q1 0 2 0.5t1 1.5q4 160 6 320l2 155
q1 9 1 16t-0.5 16t-3.5 25q-4 25 -6 52q-1 12 -1 35q0 24 1 47t3 34q2 8 4 12l3 6t2 5t1.5 8.5t1.5 17.5q0 17 -1 25.5t-4 20.5l-2 6q-7 25 -7 53q0 14 4 27q2 6 7 9l6 7h1v1l40 -5v5q1 3 1.5 5.5t2.5 6.5z" />
    <glyph glyph-name="backslash" unicode="\" horiz-adv-x="792" 
d="M712 50q-3 -2 -10.5 -6t-16.5 -8q-16 -8 -26 -14l-55 -28q-3 9 -7 19q-2 3 -3 7l-69 163q-1 3 -2 5t-2 3l-2 4q-9 14 -18.5 37t-18.5 45q-3 10 -7 17q-11 29 -23 57q-31 73 -59 146q-3 6 -5 14t-4 14q-3 10 -4 13l-26 64q-14 34 -29 69q-38 93 -74 185l-2 4q-2 6 -4.5 12
t-4.5 9q-9 13 -22 45t-23 59q-5 14 -8 22l-4 8q-8 21 -17 42q-9 22 -21.5 49t-23.5 48q-5 9 -13.5 29.5t-16.5 41t-12 31.5q-5 18 -10 37q-2 10 -5 20q-6 21 -18.5 52t-22.5 50q-1 3 -2 5q-17 28 -21 61q0 3 1 5t3 4l2 2l2 1q8 9 16 17l52 55q2 2 5 6t6.5 7.5t5.5 4.5
q1 -2 1 -3q1 -1 1.5 -2t1.5 -2l3 -3q6 -5 13.5 -21t14.5 -33t10 -25q8 -26 14 -53q4 -18 13 -38q3 -6 5 -12q2 -5 8 -12q8 -11 16 -30q8 -17 14 -34l6 -14q13 -34 21 -57.5t17 -52.5l4 -16q3 -9 7 -18q1 -3 3 -6q4 -12 9 -23q5 -12 10 -25q37 -94 75 -189l40 -100l53 -132
q1 -3 2 -4t3 -1l3 -3q7 -9 20 -38t25 -59t16 -44q9 -25 17 -51q6 -21 15 -42q2 -4 3 -7q23 -57 46 -113q27 -62 52 -126q4 -10 8 -22q4 -14 9 -27q9 -20 17 -40q2 -4 3 -8q1 -3 4 -9q5 -11 10 -22.5t6 -15.5z" />
    <glyph glyph-name="bracketright" unicode="]" horiz-adv-x="585" 
d="M445 1545q2 -3 2.5 -5.5t1.5 -5.5v-5l40 8h1v-1l6 -6q4 -3 6 -9q3 -10 3 -20v-6q-1 -28 -9 -53q-1 -4 -2 -6q-3 -13 -4.5 -21.5t-2.5 -25.5q0 -12 0.5 -18t1 -8.5t2.5 -3.5q1 -2 2.5 -6t3.5 -13q2 -10 2 -33t-1.5 -46.5t-2.5 -35.5q-3 -27 -9 -53q-3 -16 -4 -28t-1 -29
q-2 -85 -4 -171q-5 -151 -7 -303q0 -1 0.5 -1.5t1.5 -0.5q2 -1 4 -3t4 -8.5t3 -18.5t1 -33q0 -38 -3 -76v-4q-2 -21 -6 -42q-3 -16 -5 -31q-3 -31 -4 -63v-17q-1 -24 -1 -54q0 -48 -2 -98t-8 -88q-3 -24 -3 -56v-25q-8 -3 -19 -3h-8q0 -7 1 -16q0 -10 -0.5 -19t-4.5 -11.5
t-7 -2.5q-6 0 -15 4q-8 4 -14 4h-2q-6 -2 -9 -5q-2 -2 -4 -3q-4 -1 -10 -1.5t-10 -0.5h-7q-8 0 -12 1q-6 1 -8.5 1.5t-3.5 1.5l-1 1h-2h-3.5t-7.5 -1h-9q-12 -1 -25 -2q-8 0 -17 -1q-40 -2 -80 -3l-3 -3q-1 -2 -2.5 -3.5t-4 -2t-6.5 -1.5h-24q-5 0 -7.5 0.5t-4.5 1.5
q-4 1 -10 2t-20 1q-11 -1 -19 -2q-13 -1 -24 -1q-12 0 -27 2q-5 1 -11 1h-11l7 126q10 2 25 2q10 0 17 1q3 0 4.5 0.5t2.5 1.5q1 0 2.5 1t3.5 1q7 1 20 1.5t26 1.5h15q5 1 10 1q8 0 15 -2q6 -1 11 -1h10q3 0 8 1h17q22 0 41 3l2 61v6t-0.5 3.5t-0.5 2.5q-1 2 -2 6
q-3 14 -3 35q0 22 1 39q0 3 1 6q1 32 2 84q0 49 1.5 95t4.5 71q1 6 1.5 8.5t1.5 3.5q0 1 0.5 2t0.5 3.5t0.5 7.5t0.5 14l6 295v8q1 9 1 18t-2 14q-4 10 -4 33v9q0 30 1 67q2 35 2 63q0 18 -1 33q-2 15 -2 29q0 5 -1 11q0 11 -3 21l-2 14q-2 19 -2 40q0 14 1 29q1 7 1 14
q1 18 3 30.5t6 26.5q2 7 5 16q2 8 4 24t2 26.5v15.5q0 9 -1 14l-59 -3l-6 -6q-6 -4 -17 -4h-18q-7 1 -12 2q-3 1 -7 2q-7 1 -16 1t-21 -1t-24 -1q-15 0 -30 2h-23l7 127q4 1 11.5 1t15.5 1h12h4.5t2.5 0.5t2 0.5q1 1 4 2q4 2 20.5 3t34.5 1.5t26 0.5q3 0 5.5 -0.5t4.5 -1.5
q2 0 4.5 -0.5t7.5 -0.5q12 1 30 1q15 1 29.5 1.5t23.5 1.5q3 1 4.5 1t2.5 1q1 0 1.5 0.5t2.5 1.5q7 2 21 2q11 0 24 1.5t23 5.5q14 5 24.5 5.5t22.5 -4.5q8 -3 14 -3h3q8 1 14 3q6 3 13 3h3z" />
    <glyph glyph-name="asciicircum" unicode="^" horiz-adv-x="759" 
d="M679 959q-4 -2 -17 -11t-30 -21q-16 -12 -29.5 -21t-18.5 -11q-2 2 -5.5 7.5t-7.5 10.5q-1 3 -3 4q-4 7 -8 11t-9 10q-16 23 -31 47l-8 12q-11 18 -24 34q-6 7 -12 12q-3 4 -7 7q-5 6 -10 14l-6 8q-7 10 -10 16.5t-3 10.5v5v4t-2 5q-18 28 -39 60q-16 23 -30 44l-8 12
q-11 19 -23 34q-8 -8 -16.5 -21t-13.5 -24l-21 -38q-1 -2 -2 -3l-1.5 -1.5t-1.5 -0.5l-1.5 -1.5t-2 -2.5t-3 -5t-4.5 -8t-7 -11l-40 -73q-5 -7 -6 -10q-1 -2 -2 -3t-1.5 -3l-1.5 -6q-1 -1 -1 -4q-2 -5 -5 -11t-6 -11q-1 -2 -2 -3l-14 -26q-6 -11 -13 -23q-6 -11 -8 -16
q-1 -3 -2.5 -5t-4 -5t-8.5 -9l-33 -61q-3 1 -15.5 7t-25 12.5t-17.5 8.5q-7 3 -13 6l-16 8q-1 1 -2 1l-14 7t-13 6q3 9 8 17q4 7 7 14q15 39 37 75q15 26 20 41q1 1 1 2q8 29 27 56q4 5 6 6.5t4 1.5q1 0 2.5 1t3.5 3l67 122q3 7 7 14t8 15q3 6 4.5 11t2.5 9q1 6 4.5 15.5
t11.5 26.5q0 2 1 4q3 6 6 10q3 3 7 5q3 2 5 5l1 3q0 2 -1 3.5t-3 3.5t-3 5v7q1 5 3 7t5 4q4 1 7 5q3 5 4 9q1 3 2.5 6t5.5 5t6 2h3t5 -2q1 -1 3 -1h4q1 0 6.5 3t12.5 7t13 8q6 3 9 5q1 1 4 2q6 4 13.5 8.5t14.5 7.5q6 3 9 3h1q6 -3 11 -17q4 -11 11 -22.5t18 -20.5
q19 -14 27 -27t14 -27q6 -17 18 -38q11 -16 20 -30l9 -13.5t4 -7.5t2 -5q0 -1 1 -3.5t3.5 -7t7.5 -11.5l12 -18q10 -16 22 -35t22.5 -34t14.5 -18q9 -10 16 -21q3 -3 5 -7l50 -76q2 -3 3 -5.5t1 -4.5q1 -4 3 -8q1 -2 5 -8.5t8.5 -12.5t5.5 -8v-44z" />
    <glyph glyph-name="underscore" unicode="_" horiz-adv-x="675" 
d="M349 -13l-187 -2q-6 0 -10.5 -1t-8.5 -3q-5 -1 -11 -3q-14 -2 -28 -2h-7q-9 0 -13.5 0.5t-6.5 1.5t-3 2t-2 1.5l-3 1.5q-5 2 -10 2q-3 0 -8.5 -1.5t-13.5 -4.5q-7 -3 -15 -5q-3 -1 -6 -1q-5 0 -9 2q-6 3 -7 9v16q1 6 1 12q1 10 2 19q3 25 4 55q2 21 3 39q1 10 6 12h3
q5 0 12 -2q10 -2 24 -2h10q8 0 12 1.5t9 3.5q3 1 7 3q6 2 14.5 2.5t16.5 0.5h4q10 -1 25 -4q14 -3 23 -4h56q6 0 9 -0.5t4.5 -1t2.5 -0.5q1 -1 2.5 -1.5t5 -1t10.5 -0.5h112q9 1 16 2q7 2 17 3h36.5t47 -0.5t28.5 -1.5q6 -2 12 -2.5t13 -0.5h46q1 -4 1 -23q1 -10 1 -21
t-0.5 -29.5t-1 -39.5t-0.5 -29q-5 -1 -12 -1h-6l-8 1l-7 -1q-27 -4 -54 -4h-57q-10 0 -19 -1q-7 -2 -13 -3q-9 -3 -19 -4h-28q-3 0 -7 1t-6 2l-3 1.5t-2 1.5v1z" />
    <glyph glyph-name="grave" unicode="`" horiz-adv-x="302" 
d="M59 1770q15 9 28 16q11 7 14 7h1q2 -2 3 -4t1 -4q1 -5 4 -9t11 -8q4 -2 6.5 -5t4.5 -6q2 -2 2.5 -4t1.5 -4q0 -3 2 -8t8 -13q2 -2 4 -5q2 -2 3.5 -4t2.5 -3q1 -2 1 -3v-1q0 -1 0.5 -2l1.5 -3l25 -29q2 -3 4 -5q3 -4 6 -7q2 -2 4 -3q1 0 3 -1q3 -3 5 -6l5 -5
q7 -8 14.5 -17.5t9.5 -13.5q2 -7 10 -16q5 -4 8 -9q-4 -5 -11 -10q-4 -3 -7 -5l-4 -4q-2 -1 -5 -4l-45 -36l-4 4q-2 4 -6 6q-6 5 -10 10q-7 9 -15 17q-2 3 -4 5q-4 5 -6.5 7t-4.5 3t-4.5 3l-7.5 6q-2 2 -5 5.5t-3 6.5q-1 2 -1 4q0 1 1 1v1.5v1t-1 2t-3 3.5q-8 8 -16 18
q-1 2 -3 4q-2 3 -8 10t-12 14.5t-11 13.5t-6 7q-7 4 -9.5 7t-3.5 6q-1 1 -2.5 3t-19.5 27q30 35 43 38z" />
    <glyph glyph-name="a" unicode="a" horiz-adv-x="1367" 
d="M0 32l2 30q5 3 23 8t40 11q20 5 35 9.5t18 6.5q4 3 8.5 17.5t8.5 30.5t6 21q6 26 18 64t24 75q9 27 16 47l6 20q12 36 22 72q4 18 6 29q4 15 7.5 29t11.5 39q1 1 1 3q5 16 12.5 38.5t15.5 35.5q1 2 2 3.5t2 2.5q2 1 3 2l118 369q3 10 7 21q13 36 21 73q10 49 25 95
q2 6 3 12q6 18 11 35q8 19 15 28q4 7 6 12q1 3 2 7q8 20 11 41q4 39 17 74q1 3 1 5q0 8 -7 15q-5 5 -12 11q-11 9 -19 19q-6 -1 -9 -1h-3h-4t-8 1q-7 0 -11 1q-7 0 -10 1t-5 4t-5 9l-6 12q-2 5 -4 7.5t-3 4t-3 2.5q-1 0 -3 1.5t-5 4.5q8 0 13 1h6.5t9 -0.5t14.5 -2.5
q12 -3 33 -4t34 -1q4 0 6 1h5t3.5 1t5.5 3q7 5 13 5q5 0 9 -2q4 -1 7 -1t7 3q8 7 13 7q4 0 9 -3q4 -3 12 -5h14q4 0 8 -1q0 -1 1 -1h1q1 -1 3 -1.5t5 -0.5h25q3 0 4.5 0.5t2.5 1t2 0.5l2 1q1 0 3.5 0.5t7 0.5h11.5h7l4 1q2 0 5 -0.5t7 -2.5q6 -2 13 -2h11l6 -9q2 -2 4 -5.5
t3.5 -10t3.5 -19.5l2 -10q3 -20 9 -42q8 -28 15 -45.5t22 -41.5q14 -24 27.5 -67.5t17.5 -74.5q2 -17 6 -31q3 -9 5 -20q9 -42 22 -81q3 -8 5 -16q2 -5 4 -13q7 -21 15 -46.5t10 -36.5q1 -7 1 -12v-4q0 -4 1 -9q24 -75 47 -153q17 -56 34 -111l8 -24q3 -12 7 -23
q3 -11 5 -16.5t3 -8t3 -4.5q1 -1 2.5 -4.5l4.5 -10.5q10 -28 23.5 -71t25.5 -83q6 -21 11 -37q3 -9 7 -22q9 -26 17.5 -54.5t8.5 -44.5q0 -8 5.5 -26.5t10.5 -34.5q3 -8 5 -13l21 -71l2 -6q1 -5 3 -8.5t7 -5.5q12 -3 22 -7q12 -5 25 -9q15 -3 32 -5q12 -2 23 -4v-37h-10
q-8 0 -16 -2q-11 -2 -18 -4q-10 -3 -16.5 -4t-14.5 -1h-58q-24 1 -50 1t-69 -1t-69 -7q-9 -2 -19 -2q-3 0 -12.5 0.5t-18.5 5.5l-6 2q-7 4 -14 6q-6 1 -10 1q-6 0 -8.5 1.5t-2.5 6.5t1 17v16q4 2 17 5.5t30 8t31 8.5q12 3 17 4q-4 16 -10 28q-3 6 -6 13q-8 21 -15 44
q-3 10 -11 38q-12 39 -28 89.5t-29 90t-17 43.5q-8 1 -20 1q-5 0 -18.5 -0.5t-25.5 -2.5q-31 -5 -63 -5h-2q-7 0 -14.5 1t-12.5 4q-3 2 -5 3t-4.5 1h-6.5q-5 0 -15 -1h-34q-16 -1 -32 -1h-16q-22 0 -53.5 -1t-58.5 -2t-35 -3q-36 -11 -74 -11q-9 0 -18 1l-22 -70
q-6 -16 -11 -32l-8 -26q-11 -42 -27 -74q-3 -6 -6.5 -16.5t-6.5 -21.5q-3 -8 -4 -13q-1 -2 -2 -5q-2 -6 -4 -11v-3q0 -3 1 -6q9 -15 15.5 -20t15.5 -8q3 -1 7 -2l4 -2q10 -4 21 -8q10 -3 28 -5q9 -2 17.5 -3.5t11.5 -3.5l-1 -36h-7q-8 0 -17 -2q-3 -1 -7 -1q-6 -2 -13 -4
q-7 -1 -11 -2t-6 -2q-2 0 -3 -0.5t-3 -0.5h-5h-19q-19 1 -38 1l-33 1l-32 -1h-18q-20 0 -41.5 -1.5t-37.5 -5.5q-7 -2 -17 -2q-3 0 -11 0.5t-18 4.5q-5 3 -8.5 4.5t-5.5 2.5l-3 1.5t-1.5 0.5h-1.5q-1 -1 -3 -1t-6 1q-2 0 -3 0.5t-1 1.5h-1q0 1 -1 1.5t-4 1.5v7zM390 537h11
q7 1 14 1t13 -2q5 -1 10 -1q18 -1 36 -1h44q14 1 27 1q5 0 8.5 -0.5t6.5 -1.5t9 -1l135 1q13 1 26 1q6 0 9.5 0.5t6.5 0.5q4 1 9 2q13 1 26 1h9q9 0 18 1q-1 5 -3 12q-5 17 -5 32q0 4 1 6.5t2 3.5t1 2l1 1l-1 2q0 3 -1 6q-30 94 -60 192q-12 39 -24 77l-64 206q-2 5 -10 22
q-7 13 -13.5 27.5t-10.5 24.5q-3 8 -6 17q-3 12 -8 24l-1 -2v-1l-1 -1v-1q-1 -5 -2 -11q-1 -10 -6 -29q-6 -21 -13 -41q-6 -21 -13 -41q-4 -9 -8 -17q-5 -10 -9 -22q-7 -19 -13 -37q-8 -21 -16 -43q-2 -7 -6 -22q-6 -17 -13 -39t-12.5 -39.5t-8.5 -23.5l-3 -6q-2 -2 -3 -4.5
t-3 -6.5q-2 -9 -5 -17q-1 -2 -1 -5q-4 -9 -13 -37q-11 -35 -26 -81t-27 -83.5t-14 -46.5z" />
    <glyph glyph-name="b" unicode="b" horiz-adv-x="1075" 
d="M0 1471q2 5 4 6t5 1q4 0 10 1t18 7q13 6 26 6q2 0 10 -0.5t19 -3.5q6 -1 11 -2h11q20 -2 38 -2q3 0 4 1h6q3 0 6 -1q2 0 5 -1h87q22 1 38 1q17 0 23 -1t16 -3l14 -4t11 -2q8 0 23 3q12 2 21 3h12q101 0 188 -50q4 -2 7 -4q29 -16 56 -33q14 -8 23 -16t17 -20
q12 -13 20 -19t16 -16t19 -35q7 -13 11 -21q5 -11 9.5 -21.5t9.5 -28.5q12 -52 12 -103q0 -99 -46 -191q-8 -15 -12 -24q-2 -6 -4 -10q-9 -16 -16 -26t-16 -20q-4 -5 -10 -12q2 -1 11.5 -3.5t20.5 -5.5q7 -2 12.5 -3.5t8.5 -2.5q43 -16 69 -30.5t60 -42.5q19 -16 34 -35
l4 -4q2 -2 4 -5l21 -29q9 -17 16 -36q2 -5 4 -11q28 -75 28 -149q0 -68 -24 -136q-24 -64 -73.5 -124.5t-106.5 -100.5q-4 -3 -7 -5q-16 -11 -33 -22q-51 -31 -121.5 -51.5t-134.5 -29.5q-47 -6 -80 -8q-9 -1 -19 -1q-26 0 -59 4h-6t-4 -1t-6.5 -1.5t-14.5 -0.5q-33 1 -65 1
q-66 0 -132 -3q-11 -1 -22 -3q-12 -3 -24 -3q-7 0 -15 1q-7 3 -13 6q-5 3 -10 5q-7 2 -12 2h-2h-3t-4 2l-2 2h-1v2q-1 0 -1 1l1 32q2 2 13 6t25 7.5t25 6.5q8 2 11 2q9 3 17 5q14 3 24.5 7.5t25.5 15.5q0 7 -1 17q-1 7 -2 13v40q0 43 1 95q1 41 1 76q0 58 -3 97q-4 30 -5 66
v67q0 9 2 23t5 22q2 3 3 4l2 2l3 3l4 436q0 7 1 16v16q0 15 -1 28q-1 11 -3 22q-3 17 -5 33q-1 12 -1 37v26v31.5t1 28.5q2 9 3.5 13t2.5 7q2 2 3 5t1.5 9t0.5 17v15q0 9 -1 16q-1 5 -2 7.5t-3 4.5t-4 3t-4 3q-1 1 -2 1q-9 7 -17 11t-23 8q-21 6 -43 12q-3 0 -7 1l-9 3
q-11 2 -22.5 5.5t-16.5 6.5zM336 121q8 0 39 7t63.5 15.5t43.5 11.5q70 19 127 51q31 17 51 39q6 8 16 19q7 9 13.5 17.5t11.5 12.5q9 8 13.5 16.5t7.5 16.5q4 12 11 25q3 4 6 9q6 8 12 19q4 9 6 19q2 7 4 15q13 35 13 68q0 41 -19 79q-4 8 -8.5 13.5t-9.5 11.5q-6 7 -9 9
t-8 4q-4 1 -11 5q-1 1 -2 1q-13 7 -27 14q-4 2 -11 7q-7 6 -16 12q-63 31 -145 35q-29 3 -57 7q-51 9 -106 10q-1 -13 -1.5 -41.5t-0.5 -57.5v-71q1 -8 2 -14q0 -5 1 -11.5t1 -17.5q0 -28 -0.5 -89.5t-1.5 -120.5t-3 -78l-1.5 -7.5t-1.5 -4.5q0 -1 -0.5 -3t-1 -5.5
t-0.5 -10.5q-1 -19 -1 -37zM347 826q20 2 56.5 17t73 33.5t54.5 32.5q34 28 57 77q6 14 9 24t5 19t6 21q1 3 2 5l1.5 3t1.5 4q4 19 4 40q0 38 -13 81q-20 67 -60 104q-10 9 -18 16q-10 11 -22 20t-37 20q-24 10 -52 15q-2 1 -4 1q-8 1 -19.5 2.5t-22 3t-13.5 1.5v-27
q0 -24 1 -37q3 -20 6 -32q2 -7 3.5 -15t2.5 -20q0 -35 -1 -71q-1 -19 -4 -35q-3 -13 -4 -29q-1 -13 -2 -25q-2 -21 -3 -42v-32q-1 -19 -1 -39v-72q-1 -10 -2 -15t-2 -8q-2 -3 -2.5 -7t-0.5 -12v-22z" />
    <glyph glyph-name="c" unicode="c" horiz-adv-x="1001" 
d="M333 1427q-1 3 -1 6q0 5 3.5 7t11.5 3q8 0 19.5 3t25.5 13q9 7 25 12q13 4 24 4h12q20 0 48 4q17 2 30 3h8.5t4 -0.5t2.5 -1.5q1 0 2 -0.5t4 -1.5q2 0 9.5 -0.5t15.5 -0.5h20q9 -1 16 -1q8 0 15 1q6 0 13 1q1 -3 2 -4v-3q0 -1 1 -1t3 -1h4l29 -8q5 -1 11 -2q6 0 19 -3.5
t38 -15.5q4 -2 9 -5q13 -5 28 -13t21 -15q2 -3 9 -7.5t13.5 -8.5t10.5 -5q4 9 10 18q4 8 7 15t5 16q3 13 8 22l35 -5l1 -5l-1 -4v-6t1 -8l2 -10l2 -12q1 -5 1 -10q0 -3 -0.5 -9.5t-1.5 -15.5q-1 -7 -2 -12q-1 -15 -3 -27q-2 -23 -3 -42v-14q0 -16 1 -37q1 -6 3.5 -15.5
t5.5 -15.5q1 -2 2 -3l1.5 -1.5t1.5 -2.5q1 -4 3 -10.5t2 -10.5q1 -3 1 -6q0 -6 -3 -12q-1 -2 -1 -3q-1 -7 -1 -11v-4l1 -4l-1 -3q-2 -4 -5.5 -5.5t-8.5 -1.5q-2 -1 -3 -1q-3 -1 -7 -1q-8 -3 -14 -3q-4 4 -9.5 12.5t-9.5 16.5q-3 4 -5 7q0 1 -1 2q-11 16 -21 36q-7 15 -16 28
l-10 12q-12 14 -24 30q-3 5 -5 8q-2 4 -3.5 5.5t-2.5 2t-4 1.5l-8 4l-49 27l-15 7.5t-8.5 3t-9.5 1.5q-5 1 -13 2q-3 0 -8 1.5t-10 2.5q-3 1 -5 2q-7 2 -11 4.5t-6 8.5q-35 6 -70 6q-20 0 -40 -2q-10 -1 -15 -3t-13 -6h-1q-22 -12 -48 -29t-45 -33q-41 -34 -74 -81
q-22 -34 -32.5 -62.5t-20.5 -66.5q-1 -4 -2 -9q-5 -18 -8 -29q-4 -13 -7 -26.5t-4 -40.5q-2 -24 -7 -45q-3 -11 -5 -22q-4 -26 -4 -43q0 -12 -1 -28q-5 -50 -5 -99q0 -127 35 -249q4 -15 9 -30q1 -2 2 -3q1 -3 1.5 -5t2.5 -5q12 -18 21 -39q6 -12 13 -24q5 -10 8 -21
q2 -4 3 -7q5 -14 11 -27q14 -27 30 -48q17 -21 29 -33.5t25 -24.5q10 -8 22 -20q19 -18 42 -35q2 -2 4 -2.5t5 -1.5q2 0 5 -2q4 -1 5 -3q2 -1 3.5 -1.5l4.5 -1.5q2 -1 3 -1q7 -3 13 -4t15 -2q5 -1 12 -1q8 -1 14.5 -1.5t9.5 -1.5q7 -2 20 -2q5 0 18.5 1t34.5 5t28 8q3 1 5 2
q2 2 8 5q3 1 6 3q4 1 7 2q3 2 6 3q11 4 21 9q6 3 12 7q14 9 27 13q3 1 5 1q1 0 2 0.5l2 1l3 1.5q1 0 2 1q2 1 7 4q8 4 17 9.5t12 8.5q19 23 25 52q2 7 4 15v1q2 6 6 18.5t8.5 24t6.5 12.5l34 1h1v-1q3 -3 4 -5t1 -4t1 -7t5 -10q4 -7 7 -17q1 -4 1 -9q0 -9 -3 -20
q-2 -4 -3 -12.5t-1.5 -17.5t-0.5 -13q0 -17 -1 -33v-95q1 -18 1 -36q0 -13 -5 -25q-6 -12 -6 -34q-7 -1 -19 -1h-7q-7 0 -10 1q-3 6 -6 21q-2 14 -5 24q-3 5 -5 10l-4 10q-1 3 -3 7q-2 8 -5 13q-3 -1 -11.5 -6t-18.5 -11q-14 -8 -21 -11q-9 -5 -19 -9l-8 -4q-7 -4 -11 -6.5
t-6 -4.5q-3 -2 -6.5 -4t-10 -4.5t-19.5 -6.5q-8 -3 -16 -4h-4q-6 0 -12 3q-1 1 -3 1h-3t-6 -1q-2 -1 -3 -1q-43 -7 -85 -7q-39 0 -78 6l-12 1.5t-6.5 0.5h-5.5h-14q-5 0 -14.5 1.5t-19.5 4.5t-14 5q-3 2 -5 5t-5 4q-6 3 -11 3.5t-10 -0.5h-12q-10 0 -14.5 3.5t-6.5 13.5
q-2 2 -5 3t-6 3q-36 19 -69 43q-9 6 -17 14q-5 5 -9 8l-18.5 18.5t-20.5 21.5q-5 7 -11 13l-18 22q-4 6 -9 11q-2 3 -5 7q-80 104 -119 232v2q-4 11 -7.5 24.5t-4.5 24.5l-4 28q-19 100 -20 203v18q0 53 5 105q6 55 20 108q26 101 66 188q9 20 21 43t24 40q39 56 88 103
q25 23 52 44q9 6 19 13l12 8q9 5 16.5 10t9.5 6z" />
    <glyph glyph-name="d" unicode="d" horiz-adv-x="1108" 
d="M0 1478h1l1 1q3 2 5 3t3.5 1h2.5h5t10 3l8 4l10.5 4.5t7.5 1.5h11h13q6 0 12 -2q7 -2 15 -3h6q5 0 9 -1h4q5 -1 10 -1h22q2 1 4 1q1 0 4 -1q12 -1 33 -1h92q14 1 21 1q19 -1 35 -7q13 -4 25 -5q23 0 45 2q24 1 48 1h4q115 0 210 -54q77 -43 128 -99t97 -123
q39 -52 63 -115q5 -15 8.5 -24t7.5 -17t10 -22q11 -29 16 -52t8 -46q2 -21 7 -49q1 -4 2 -7q1 -6 2 -13l2 -63q0 -236 -97 -438q-4 -9 -7 -18q-2 -8 -6 -15q-8 -19 -22 -43.5t-26 -40.5q-7 -9 -25 -27t-37 -36t-28 -26l-25 -20q-1 -1 -2 -3q-10 -8 -22 -17q-51 -39 -110 -68
q-29 -14 -68.5 -23.5t-72.5 -13.5q-45 -5 -90 -5q-19 0 -39 1q-12 0 -20 -3q-7 -3 -18 -3l-97 1h-39q-20 -1 -39 -1l-34 -2q-8 -1 -14 -3q-7 -2 -16 -2h-8h-11.5t-8.5 1.5t-13 5.5q-1 1 -3 2q-6 2 -9.5 3t-5.5 1h-3h-2q-2 0 -4 1.5l-6 4.5l2 35q25 9 62 18q30 7 49 13
q7 3 12 5.5t9 5.5l8 6q0 8 -1 20q-1 8 -2 14v80q0 39 1 81q1 39 1 78q0 41 -4 72q-3 29 -4 64v7q0 24 0.5 53t5.5 44q2 6 4 8.5t3 2.5l1.5 1.5t0.5 1.5l2 235q1 8 1 23q0 36 1 90t1 99q0 46 -1 56q-2 10 -3 17q-3 21 -4.5 37t-1.5 46v19q-1 10 -1 19q0 32 11 60q3 10 3 20
v16q0 8 -1 18t-5 14q-14 12 -27 18t-31 11l-69 18q-1 0 -2 1q-3 0 -7.5 1.5t-8 2.5t-4.5 3zM337 95q23 3 52.5 14.5t48.5 21.5q37 18 84.5 49.5t78.5 61.5q4 4 8 7q5 4 10 9q9 10 15 16q7 7 14 15t19 24q55 78 89 185q3 10 6 21q4 15 9 31l3 6t2 3q0 1 1 3t2 4.5t2 8.5
q18 74 21 121.5t3 79.5q0 38 -3 81q-5 75 -19.5 141t-49.5 132q-4 9 -9 18q-6 14 -14 27q-13 22 -28 41q-43 58 -109 97q-30 16 -74 29.5t-81 21.5q-12 2 -30.5 4.5t-30.5 2.5q-2 -19 -2 -34q0 -9 1 -17q2 -19 7 -38q2 -11 4 -24q3 -16 3 -32v-13q0 -18 -0.5 -39.5
t-3.5 -35.5q-3 -17 -4 -27t-2 -19q-1 -10 -3 -28q-1 -16 -1.5 -48t-0.5 -65v-50q-1 -11 -2 -18.5t-4 -16.5q-1 -3 -1.5 -21.5t-1 -42.5t-0.5 -41v-41q-1 -31 -1.5 -76.5t-1 -83t-0.5 -42.5q1 -3 1 -5q2 -6 3 -13q1 -23 1 -46v-36q-1 -26 -1 -51q-2 -57 -2 -113v-5
q1 -8 1 -18t-1 -21q-1 -21 -6 -33q-1 -5 -1.5 -17.5t-0.5 -28v-26.5v-10z" />
    <glyph glyph-name="e" unicode="e" horiz-adv-x="948" 
d="M0 1485q4 4 6.5 4.5t5.5 0.5t9 1q11 4 16 7q4 2 9.5 3.5t18.5 1.5q9 0 14.5 -0.5t9.5 -1.5q5 -1 11 -1.5t16 -1.5q6 0 12 -1q7 -1 14 -1t14 1q5 0 18 -1q10 -1 19 -1h65q23 1 46 1h3q7 0 11.5 -0.5t11.5 -2.5q9 -2 23 -5t24 -3h7v-1q1 -1 2 -1.5t3 -0.5h32q10 1 19 1
t17 -1q4 0 5.5 -0.5t2.5 -0.5q1 -1 2.5 -1.5t5 -0.5h9.5h26q17 -1 37 -1t35 0.5t19 0.5q26 5 54 5q9 0 18 -1q18 -1 35 -1q3 1 6 1h22q7 -1 12 -2q5 -2 12 -2h12q12 -1 24 -1q13 0 18 1l2 6q1 6 3 11h1q4 0 11.5 -0.5t14 -0.5t9.5 -1v-8q0 -2 0.5 -4.5t1.5 -6.5l4 -12
q0 -1 1 -3q1 -4 2 -6t1 -4v-7v-21q-2 -30 -2 -65t5 -51q2 -6 2 -13v-8.5t-4 -13.5q-1 -2 -3 -4q-3 -4 -5 -8t-2 -8q-1 -4 -2 -6t-6 -2h-4l-29 1q-4 6 -10 23t-11 33q-3 10 -5 15q-3 9 -8 15t-12 10q0 1 -1 2q-6 4 -9 7q-4 4 -6.5 5.5t-6 1.5h-11.5q-10 0 -21 1h-38.5
t-34.5 -3q-12 -3 -21.5 -3.5t-22.5 -0.5h-13q-6 0 -12 0.5t-8.5 2.5t-3.5 3l-1.5 1.5t-1.5 0.5h-104h-35.5t-37.5 -0.5t-22 -1.5v-9q0 -31 6 -59q5 -18 6 -32t1 -35v-13l1 -15q0 -8 -0.5 -20t-2.5 -24l-2 -10q-3 -11 -4 -21q-1 -7 -1 -14q0 -11 -1 -21q-3 -23 -4 -57.5
t-1 -70.5v-52q0 -8 -0.5 -12t-1 -6t-1.5 -4l-3 -9q0 -1 -0.5 -11.5t-0.5 -23.5v-23.5v-12.5q5 0 22 -0.5t34 -0.5t22 1q2 0 3 1q3 1 7 2q5 0 21.5 0.5t32.5 0.5t21 -1q4 -1 6 -2q1 -1 3 -1h24q5 6 10.5 23t10.5 36q5 18 9.5 32t7.5 16q4 2 9 2h11h10q4 0 7.5 -1t4.5 -8
q0 -7 2 -11t5 -8q2 -4 4 -8.5t2 -11.5v-3q0 -6 -0.5 -11t-1.5 -10q-2 -4 -3 -13.5l-2 -19t-1 -14.5l1 -13l-1 -13v-114q1 -8 1 -15q0 -6 -1 -15t-8 -27q-1 -5 -1.5 -8.5t-0.5 -6.5v-8l-37 -1q-3 10 -4 20q-1 6 -2 13q-4 13 -9 24q-4 8 -7 17q-4 11 -7.5 15.5t-12.5 9.5
q-3 2 -7 5q-1 1 -2 1q-2 2 -3.5 2.5t-3.5 0.5h-5h-25l-16 1l-15 -1q-9 -1 -14 -3q-7 -3 -18 -3h-9h-8.5t-6 1t-3.5 3q-1 2 -3 4l-55 -1q0 -7 -0.5 -29.5t-1 -49.5t-0.5 -48v-26q0 -3 1 -5q1 -4 2 -9q1 -15 1 -30v-43q0 -40 -1 -80q-1 -42 -1 -83v-19q1 -8 1 -16
q0 -25 -5 -49q-1 -6 -2 -10q-1 -2 -2 -5.5t-1 -10.5t1 -20q16 -5 38.5 -5.5t41.5 -0.5h6h15.5t7.5 -0.5t3 -1.5q1 0 2 -0.5t4 -0.5q6 -1 17.5 -1h22.5q10 1 16 1h15q19 -1 41 -1t33 3q12 2 43 2q30 0 55 -1h17l4 4q1 2 3 4l22 21l8 8q12 9 19 23q2 4 5 13.5t6 21.5
q5 19 9.5 34t7.5 18q2 1 8.5 1.5t13.5 1t10 0.5h4v-1l1 -1q2 -2 3 -4t1 -5q0 -4 4 -11q2 -3 3 -6q3 -3 5 -8q3 -6 3 -15v-8.5t-3 -14.5q-2 -7 -2 -18v-42q0 -35 3 -70q1 -9 1 -17q0 -7 -1 -14.5t-6 -23.5q-1 -2 -1 -4q-1 -4 -1 -8v-3q0 -5 -1 -9q-7 -1 -18 -1.5t-18 -0.5
l-4 13q-7 0 -14 -2q-6 -1 -13 -1q-26 -1 -53 -1h-37q-17 0 -29 -3q-12 -2 -26 -3h-17q-23 0 -37 2t-20 5q-2 1 -4 1q-3 1 -26.5 0.5t-55 -0.5t-59.5 -1h-45q-15 -1 -29 -6q-9 -2 -17 -4h-55q-8 0 -17 1h-68t-60 -3q-7 -1 -14 -1h-5q-7 0 -15 -2q-13 -3 -27 -3h-7
q-11 2 -20 7q-3 2 -7 3q-7 3 -14 3q-6 0 -9 2l-4 5v12q0 13 2 22q1 2 7 4t13.5 4t12.5 3q3 0 3 1q7 2 14 3q12 3 24 7q9 2 16 4q15 4 26 8.5t24 14.5q0 7 -1 17q-2 8 -2 15v104q1 22 1 48q2 33 2 64q0 47 -4 90q-5 31 -5 65v26q-1 11 -1 21q0 27 4 53q2 8 4 13t8 9
q1 26 1 52v72q1 35 1 70q0 28 1 55v27q0 33 1 82.5t1 90v49.5q-2 13 -4 27q-3 14 -4 27q-2 23 -2 44v49q0 16 1 30q2 14 7 25q1 2 2 3q1 2 1.5 4t0.5 5q0 5 0.5 14.5t0 18.5t-0.5 13q-2 6 -3 8.5t-2 4t-4 3.5l-4 2l-1 1q-10 7 -18.5 11.5t-23.5 8.5l-86 23q-2 1 -4 1
q-1 1 -2 1q-6 2 -7 7v31z" />
    <glyph glyph-name="f" unicode="f" horiz-adv-x="968" 
d="M0 1479v4h2l1 1q2 3 5 3.5t6 0.5h5q5 1 12 5q9 5 24 8q6 2 12 2q10 0 21 -4q6 -2 18.5 -3t25.5 -1.5t21 -0.5h2t2 1h2.5t4.5 -1q17 -1 43 -1h41t54 1q26 -1 43 -7q14 -4 28 -5h2l5 1l3 -1l1 -1q5 -1 20.5 -1h30.5h20q3 0 5 -0.5t4 -1.5q2 0 5 -1t10 -1h31h44h41t23 1
q2 0 4 0.5t3 0.5q2 0 3.5 0.5t4.5 1t9 0.5l25 1l24 -1h42l10 1l10 -1q8 0 13 -2q4 -2 11 -2h30q13 0 25 1l5 16l35 -1q1 -5 1 -8v-4.5t1 -6.5q1 0 1 -1q3 -7 5.5 -16t2.5 -15l-2 -59v-40q0 -9 1 -19.5t3 -18.5q3 -8 3 -18t-4 -17l-4 -4q-2 -4 -5 -8q-1 -3 -1 -6
q0 -2 -0.5 -3.5t-1.5 -3.5q-1 0 -1 -1h-1v-1q-1 0 -6.5 -0.5t-11.5 -0.5q-7 0 -12.5 0.5t-7.5 1.5q-4 6 -9.5 22.5t-10.5 32.5q-3 10 -5 16q-4 10 -11 17t-15 13q-4 3 -8 7q-1 0 -2 1t-2.5 1.5t-4.5 0.5l-4 1l-4 -1h-4q-9 0 -21 1h-15q-31 0 -57 -3q-12 -3 -22 -3.5
t-22 -0.5h-12h-9t-12 3q-2 1 -2.5 1.5l-1.5 1.5q0 1 -2 2l-37 1l-39 -1q-18 0 -35 -1q-6 0 -19 1h-35t-34.5 -0.5t-20.5 -1.5q-1 -8 -1 -17q0 -8 2 -22t5 -29q4 -18 5.5 -32t1.5 -34v-18q0 -27 -2 -53q-1 -8 -3 -15t-3 -16q-1 -8 -1 -17q-1 -9 -2 -17q-4 -55 -4 -112v-69
q-1 -11 -2 -16.5t-4 -14.5q-1 -2 -1 -11.5t-0.5 -22t-0.5 -23.5v-15h78q4 1 6 2t5 1.5t10 0.5h52h8t4.5 -0.5t2.5 -1.5q1 0 2.5 -0.5l4.5 -1.5h6.5h10.5t7 1q9 16 13 36l6 18q0 2 2 7q2 8 5.5 18t6.5 18t5 10q2 1 9 1.5t14.5 0.5h10.5q4 -1 5.5 -5t1.5 -8v-4q1 -3 4 -8
q5 -7 9 -19q1 -4 1 -8q0 -9 -4 -21q-1 -4 -2 -12.5t-1.5 -18t-0.5 -13.5q0 -12 -1 -24v-122q1 -6 1 -11q0 -4 -0.5 -9.5t-2.5 -13.5t-7 -21q-1 -4 -1 -7v-5q0 -4 -1 -9h-36q-2 9 -4 19q-1 6 -2 13q-3 12 -8 22q-2 3 -3 5q-3 8 -5 13q-2 7 -4.5 11.5t-7.5 9t-15 10.5l-1 1
q-2 1 -3.5 2t-4 1h-6.5h-23l-17 1l-16 -1q-7 -1 -13 -3q-7 -3 -18 -3q-2 0 -4 -1q-8 0 -15 1t-10 8l-55 -1q-1 -5 -1 -16v-21v-10l-2 -96q0 -5 0.5 -8t1.5 -6t1 -8q2 -22 2 -58v-45t-2 -80v-31q-1 -16 -1 -32v-21q0 -21 -1 -42q-1 -7 -2 -11t-3 -10q-1 -3 -1.5 -14t-0.5 -24
v-23v-21q0 -5 2 -10t14 -11q5 -3 13 -4q3 -1 7 -2l8 -2t9 -3h1q31 -10 51 -11q15 -1 30 -5l-1 -36h-12q-9 0 -18 -2q-11 -3 -27 -6t-28 -3h-47q-56 1 -111 1h-3q-13 0 -37.5 -1t-47.5 -2t-33 -3q-22 -4 -35 -4q-3 0 -10.5 1t-17.5 6q-7 3 -18 6q-3 1 -6 1h-9l-3 1.5t-2 1.5
l-4 2v5v8.5t0.5 13t1.5 9.5l4 2q1 1 2 1h2l61 15q13 3 27 6q22 4 43 10q1 5 1 10q0 8 -2 16q0 3 -1 7q-1 17 -1 53v62t2 97v49q0 27 -2 52q-7 46 -7 92q0 38 5 77q1 10 3 14.5t8 8.5l1 10l-1 10v12l5 464q-1 9 -3 17q-4 26 -5.5 45.5t-1.5 53.5v16q-1 7 -1 15q0 29 10 55
q2 7 3 11t1 9v13v13.5t-1 11.5q-1 6 -2 8.5t-2.5 4t-4.5 2.5q-2 1 -4 3q-10 8 -18.5 12.5t-23.5 8.5l-74 20q-6 1 -13 3q-1 1 -2 1q-3 0 -5 1t-3 3q-1 1 -1.5 7.5t-1 13.5t-0.5 10z" />
    <glyph glyph-name="g" unicode="g" horiz-adv-x="1117" 
d="M336 1434v7q0 3 0.5 5t6.5 4q5 1 10 1t11 1q20 5 32 15q7 6 14.5 8.5t18.5 5.5q8 2 17 2h5q9 0 25.5 1.5t30.5 2.5q5 1 9 1q3 1 6 1q7 1 15 1h5q4 0 8 -1q3 0 4 -1q0 -1 1.5 -1h3.5q9 -1 19 -1q13 0 26 -1q8 -1 14 -1q7 0 13 1q8 1 16 1l2 -8l43 -10h5q2 0 4.5 -0.5
t6.5 -1.5q39 -12 74 -32q4 -2 7 -4q8 -4 15 -8q4 -2 6 -4t4 -5t8.5 -7t13.5 -7.5t10 -5.5l6 10q2 4 3 7q5 8 9 17l5 15q2 7 3.5 13.5t4.5 9.5q1 0 6 -1q6 0 12.5 -1t11 -2t5.5 -1l1 -4l-1 -5v-4q0 -5 1 -10l2 -10l2 -12q1 -3 1 -8t-1 -16.5t-4 -31.5q-5 -41 -5 -76v-22
q1 -7 1 -14q1 -3 2 -8l2 -10q1 -2 1 -4q1 -5 2.5 -7t2.5 -4q2 -2 4 -6q1 -3 2.5 -9.5t2.5 -10.5t1 -7q0 -7 -3 -12q0 -2 -1 -3q-1 -6 -1 -10v-6l1 -3l-1 -3q-1 -4 -5 -5.5t-8 -2.5q-2 0 -4 -1h-2q-5 -1 -10.5 -2.5t-8.5 -1.5q-11 13 -25 36t-22 39q-5 11 -10.5 19.5
t-13.5 17.5q-13 16 -26 34q-1 1 -2 3l-6 8t-5 6q-24 10 -46 23l-14 8q-9 5 -14.5 7.5t-9.5 3.5t-10 1q-5 1 -12 2t-17.5 4t-17.5 6q-2 2 -3 3.5t-2 3.5q0 1 -1 2q-23 5 -64 6h-11q-33 0 -52 -5q-22 -9 -54 -30t-51 -37l-18 -16q-54 -49 -87 -118q-14 -34 -22 -69
q-4 -19 -9 -37l-4 -12q-4 -10 -6.5 -20t-3.5 -23q-1 -9 -1 -17q-1 -21 -6 -45q-1 -6 -2 -11q-5 -23 -7 -48q-1 -6 -1 -14l1 -9l-1 -10q-6 -53 -6 -106q0 -29 2 -59q7 -123 44 -230q2 -4 11 -20q10 -17 20.5 -37.5t15.5 -33.5q29 -87 98 -142q6 -5 11 -11q4 -3 7 -6l17 -16
q13 -12 21 -17.5t13 -7t10 -1.5q4 -1 10 -2t15 -6q15 -6 33.5 -8t35.5 -2q25 -1 36 -5q3 -1 6.5 -1h6.5h3q34 1 62 5t61 9q0 8 -1 16v10q-1 9 -1 22l1 14q0 7 -0.5 17.5t-2.5 19.5q-2 6 -5 12q-1 4 -2 7q-4 9 -4 23v9q0 8 1 14q2 6 4.5 8.5t8.5 3.5q1 12 1 25t-1 26
q-1 12 -1 23v11q-1 30 -1 61v7l1 8q0 4 -0.5 10t-2.5 11q-1 1 -1 2q-3 6 -5 11.5t-4 13.5v36q2 7 7 12l3 3t1 2.5v4.5v4q-9 3 -19 5q-4 1 -9 2q-14 3 -26 8h-1q-3 1 -8 2q-11 3 -24 7t-19 8l-1 35l1 1l1 2h1v1l1.5 1.5t1.5 0.5h2l9 1.5t4.5 1t2.5 1.5l5 2.5t8 4.5q6 3 14 3
h10q6 0 9 -1t6 -1q3 -1 7 -2l50 -4h52q26 -1 53 -1q39 0 79 2q10 0 22 -3t22 -7q5 -1 9 -1h4q5 0 10 -1q0 -5 0.5 -12t0.5 -14t-1 -10q-10 -4 -24 -6q-9 -1 -16 -3q-11 -3 -20 -7q-7 -3 -15 -6v-9q0 -8 1.5 -14t5.5 -13q2 -4 5 -9q3 -8 4 -24v-6q0 -12 -3 -19q-2 -4 -3 -6.5
t-1 -4t-1 -2.5v-3t-1 -5q-3 -10 -3 -23v-25v-6q1 -1 1 -2q0 -6 -1 -12q0 -3 -1 -4l-2 -2l-1 -1q-1 -1 -1 -2v-108q0 -6 0.5 -9t1 -4.5t0.5 -3.5q1 -1 2 -2.5t1.5 -5.5t1 -11.5t0.5 -19.5v-16q0 -14 1 -27v-7q1 -6 1 -12v-4v-4.5t0.5 -3.5t2.5 -5v-1l4 -10q5 -11 9 -21
q1 -2 3 -5q3 -7 5.5 -13.5t4.5 -11.5q-4 -1 -10 -4l-12 -6l-8 -4q-11 -8 -24 -13q-3 -1 -5 -2q-29 -14 -62 -26l-12 -4q-10 -3 -21 -7q-5 -3 -12 -6q-8 -5 -17 -8q-7 -3 -17 -5.5t-17 -3.5q-13 -2 -19 -2h-6q-2 0 -4.5 0.5t-3.5 1.5q-2 2 -4 2q-9 -1 -17 -2q-5 -1 -10 -1
q-39 -6 -80 -6q-55 0 -109 6h-6q-7 1 -13 1h-7q-8 -1 -16 -1q-30 0 -60 10q-7 2 -10 6q-2 1 -4 2.5t-4 2.5h-1l-9 1.5t-6 0.5t-9 -1t-11 -1q-8 0 -14 2q-6 3 -7 6.5t-1 7.5v5q-18 6 -42 21t-39 27q-10 7 -18 14q-15 12 -24.5 22t-21.5 24q-1 1 -2 3q-62 68 -108 150
q-21 39 -42 91t-28 97q-1 4 -1 7v8q-2 6 -3 13q-20 101 -21 205v18q0 54 5 107q8 72 33 154.5t54 144.5q9 22 21 43q57 101 146 176q26 22 57 40q3 2 7 4q7 4 13 7z" />
    <glyph glyph-name="h" unicode="h" horiz-adv-x="1151" 
d="M665 1485l3 4q1 0 1 1q1 0 1.5 0.5t1 0.5t1.5 1h8h2t3.5 0.5t7 2.5t12.5 5q10 5 24 5h7q11 0 19 -2q11 -3 24 -4q7 0 13 -1q7 0 13 -1h27q14 0 28 -1q39 0 78 1h60q6 0 16.5 -2.5t19.5 -4.5q6 -2 10 -2q9 -2 17 -2h8l1 -36q-12 -3 -26 -4q-14 -2 -27 -5l-47 -16
q-6 -33 -6 -69v-12q0 -17 2 -29t5 -24q2 -10 4 -23q3 -16 3 -36.5v-39.5q-1 -5 -1 -10q0 -20 -4 -40q-1 -7 -3 -22.5t-3.5 -31t-1.5 -24.5q-1 -16 -1 -32v-20q-1 -39 -1 -78q0 -21 -2 -42q0 -4 -1 -6.5t-2 -4.5t-2 -6v-21q-1 -16 -1 -32q0 -27 -1 -54l-3 -216v-14t0.5 -7.5
t0.5 -4.5q1 -2 1.5 -5t0.5 -10q2 -30 2 -61v-25q-1 -62 -2 -122q0 -26 -1 -51q0 -21 -1 -42q-1 -11 -3 -17q-2 -4 -2.5 -9t-0.5 -12t-1 -21v-65q6 -4 15 -6q4 -1 9 -3q11 -5 24 -9q12 -3 27 -5q18 -2 29 -5l-2 -36h-4q-10 0 -21 -2q-1 0 -2 -1q-10 -2 -22.5 -5.5t-19.5 -3.5
q-33 0 -68 1q-24 1 -47 1q-34 0 -67 -2q-3 0 -7 -1h-5q-3 -1 -7 -1h-6q-7 0 -11 -1t-6 -1q-2 -1 -5 -1.5t-9 -1t-16 -0.5q-16 0 -24 7q-7 3 -17 6h-12l-2 2h-1q0 1 -1 1l-3 3l2 34q0 2 2.5 2.5t4.5 1.5h2l55 15q5 2 9 3h2l8 3q3 1 3 8t-0.5 15t-1.5 12q-3 28 -3 72
q0 35 2 79q2 46 2 84q0 48 -3 84l-2 14q-4 25 -4 52q0 14 -1 28v13q0 32 4 64q1 7 4 14q1 3 2 4.5t3 2.5l3 3v45q-9 1 -16 1q-8 0 -16.5 -1t-17.5 -2q-10 -2 -26 -4q-9 -1 -20 -1h-20h-2q-9 0 -18 1.5t-12 7.5h-112q-22 -1 -44 -1h-77q-12 0 -19 -1l-14 -2q-7 -2 -18 -3h-7
q-5 0 -8 -1t-4 -5v-15q0 -10 -1 -29q-1 -30 -1 -61t2 -40q3 -13 3 -49q1 -18 1 -38t-1 -52t-2 -63q0 -15 -1 -23v-32l1 -22l-1 -22q-1 -12 -2 -19.5t-2 -11.5t-2 -8.5t-1 -11.5v-1q0 -11 -0.5 -31t-0.5 -38v-24q3 -2 10.5 -5t16 -5.5t12.5 -3.5q8 -2 18 -3l16 -2t12 -3v-36
q-11 0 -16 -0.5t-7.5 -1t-5.5 -1.5q-4 -1 -17 -4q-4 0 -8 -1q-7 -3 -15 -3h-75q-27 1 -54 1t-54 -1q-4 -1 -7 -1q-3 -1 -6 -1q-5 0 -9 -1q-6 0 -12 -0.5t-13 -2.5q-9 -3 -18 -3q-7 0 -17.5 2.5t-20.5 7.5q-6 3 -10 4q-6 1 -9 1h-2.5t-3 1t-4.5 4l1 34q5 4 22.5 9t38.5 10
q15 3 26.5 6t16.5 6q1 7 1 13q0 10 -2 20q-2 16 -2 39v66q0 20 1 53q1 44 1 89v21q0 30 -2 47q-6 39 -7 85v15q0 39 4 71q1 8 3.5 13.5t8.5 10.5q1 16 1 35v17l1 154q0 25 1 51q1 78 1 156q0 18 1 35v43q0 7 -2 16q-1 3 -1 6q-7 53 -7 107q0 21 1 43q0 11 1.5 16.5t4.5 11.5
q2 5 4 13q1 3 1.5 14t0.5 22t-1 14l-4 14q-3 13 -6 28q-6 3 -17.5 6t-25.5 6q-16 3 -29 6.5t-18 7.5l-1 34q0 1 0.5 1.5t1.5 0.5q0 1 1 1q3 2 5.5 2.5t5.5 0.5t7 1q7 2 14 5q3 2 6 3q4 2 7 3t6.5 1h8.5h12q8 0 15 -2q5 -1 15 -2.5t19.5 -2t15.5 -0.5q14 -1 29 -1h107
q29 1 57 1q8 -1 15 -3l8 -2q11 -2 19 -4q2 0 4 -1q5 -1 10 -1h5q5 0 11 -1l1 -36q-13 -3 -27 -4q-13 -2 -25 -4q-11 -3 -22 -8q-12 -5 -24 -7q-1 -8 -3 -15q-2 -10 -3 -22q-1 -16 -1 -31q0 -41 9 -80q6 -24 6 -57t-3 -60q-1 -11 -3 -21q-2 -6 -3 -14q-1 -10 -1 -22
q-1 -8 -2 -17q-4 -42 -4 -86v-66q0 -24 -2 -45q-1 -6 -3 -10l-2 -6q0 -5 -0.5 -17.5t-0.5 -25.5t1 -18q9 1 15 1t12 -1t11 -2q3 -1 7 -1.5t10 -0.5q5 0 11 -1q7 -1 14 -1h23h36.5t26.5 -1q3 -1 4 -2h2t2.5 -0.5t4.5 -0.5h160q4 0 6.5 0.5t5.5 0.5q13 3 34 3l22 1l20 -1h22
q1 5 1 13.5v17.5v9q0 16 1 63q0 43 0.5 92.5t1 87.5t-0.5 45q-1 2 -1 4q-7 35 -8 70v83q0 19 6 35q2 6 3 8.5t2 4.5q1 1 1 1.5v1.5v3v23v14.5t-3 16.5q-1 2 -2 7t-2 10.5t-2 9.5t-2 5q-3 3 -16 6t-30 7q-25 6 -37 10q-2 1 -3 1h-1q0 1 -1 2z" />
    <glyph glyph-name="i" unicode="i" horiz-adv-x="487" 
d="M0 1475v8q2 0 3 1l1 1q0 1 1 1.5t3 0.5q3 1 6 1h7q4 1 10 4q12 7 33 10h11q8 -1 16 -3q24 -6 79 -6h137q17 0 25.5 -0.5t16 -1.5t20.5 -5q4 -1 11 -3q8 -1 17 -1h9l1 -36q-11 -4 -25 -5q-20 -1 -52 -12l-23 -9q-5 -15 -6 -39q-1 -15 -1 -28v-13q0 -17 2 -29.5t5 -24.5
q2 -10 4 -22q3 -17 3 -38.5v-40.5q-1 -4 -1 -7q-1 -22 -4 -41q-3 -18 -5 -38q0 -10 -2 -21q-1 -9 -1 -17q-1 -14 -1.5 -40t-0.5 -52v-52q0 -14 -1 -22.5t-5 -23.5q-1 -4 -2 -46.5t-1.5 -99.5t-1.5 -107q-1 -54 -1 -70v-16t0.5 -7.5t0.5 -3.5q1 -2 1.5 -5l1.5 -9
q1 -19 0.5 -85t-1.5 -132t-2 -85q-1 -8 -2 -12.5t-2 -6.5q-1 -3 -1.5 -6.5t-0.5 -12.5q-1 -7 -1 -18q-1 -19 -1 -39t1 -29q3 -2 12.5 -6t19.5 -7.5t15 -4.5q11 -3 26 -5q10 -1 18 -2.5t12 -3.5q1 -6 1 -14q0 -7 -1 -15v-6q-6 -1 -10 -1q-7 0 -14 -1q-11 -3 -18 -5
q-9 -2 -14.5 -3.5t-13 -1.5h-21.5h-31q-44 1 -98.5 0.5t-77.5 -6.5q-10 -3 -19 -3q-7 0 -17 2.5t-19 7.5q-6 2 -10 4l-4 1l-3 -1q-2 0 -5 1q-2 0 -3 0.5t-2 1.5q-1 0 -2 1t-2 1v8l1 28q7 4 23.5 8.5t34.5 8.5q19 5 28 8q0 22 -2 44q-1 20 -1 40v27q0 29 1 69q1 50 1 96
t-2 69v5q-7 53 -7 106q0 28 2 57q2 11 3 17.5t2.5 9.5t2.5 4t2 1t1.5 1t1 3t1 5.5t0.5 10.5l1 110q0 93 2 186q1 82 1 163q0 26 -4 49q-3 14 -4 30q-1 11 -1 38v26v33.5t3 30.5q2 8 4 13q2 4 3.5 9t1.5 14v17q0 13 -2 26q-4 16 -8 34v2q-16 5 -32 9q-6 1 -13 3q-10 3 -19 5
q-1 1 -3 1l-8 2q-1 0 -2 1q-10 3 -12 6q-1 2 -1 4q0 3 1 5v5q0 5 -1 12z" />
    <glyph glyph-name="j" unicode="j" horiz-adv-x="532" 
d="M20 1474q2 5 5.5 6t8.5 1h6q4 1 11 4q10 5 25 9q6 1 12 1q11 0 23 -3q15 -4 40 -5t48 -1h128q14 0 19 1h6t4 -0.5l6 -1.5t16 -3q9 -2 17 -4q2 -1 5 -1q6 -1 12 -1q8 0 14 -2v-35q-13 -4 -29 -5q-12 -1 -23 -4q-14 -3 -26 -8q-9 -3 -19 -6v-1q-1 -1 -1 -2q-4 -15 -6 -42
t-2 -41q0 -23 4 -45q1 -8 4 -17q2 -10 4 -21q4 -24 4 -66t-4 -68l-6 -88l3 -139l1 -12q0 -17 -5 -33q-2 -5 -2 -14.5v-18.5v-73q0 -109 -5 -216q0 -6 -1 -12q-1 -18 -2 -34q1 -5 2 -11q0 -6 1 -12q0 -53 -12 -137t-22 -136q-7 -37 -12.5 -53t-9.5 -23q-4 -6 -6 -14l-16 -53
q2 -3 3.5 -4t3.5 -2t4 -4q1 0 1 -1t1 -1q0 -1 0.5 -1.5l1.5 -1.5t2 -1v-1q1 0 1.5 -0.5l1.5 -1.5q-2 -10 -11.5 -20.5t-16.5 -17.5l-5 -5q-4 -3 -6.5 -6.5t-4.5 -10.5q-1 -3 -2 -7q-1 -5 -3 -10t-4 -9l-18 5q-17 -20 -49 -31q-23 -7 -34 -7q-7 -1 -14 -2.5t-16 -6.5
q-23 -14 -45 -26q-16 -9 -31 -18q-15 -8 -20 -10q-3 -1 -4 -2t-2 -2.5t-2 -4.5q-2 -2 -4 -7q-4 -6 -15.5 -18t-24.5 -24t-19 -19q-4 -2 -6 -5q-8 -7 -15 -12t-17 -5h-19q-15 1 -29.5 0.5t-24.5 -4.5h-1q-13 -6 -27 -11q2 3 3 4t3 2l3 3q2 1 2.5 2.5t1.5 3.5t4 6.5t13 12.5
q11 9 21 19q7 6 13 12q5 4 10 7t10 7q43 39 80 83q31 34 60 71q9 14 14.5 22t8 12.5t2.5 7v4.5v4v5.5t4 14.5q3 8 5.5 13t4.5 7l3 3t2 1t2 0.5t2 2t2.5 5.5t2.5 10q2 10 2 17v12q2 8 5 13q2 3 2.5 4.5t1.5 3.5q0 1 1 3q25 92 39 189q4 25 5.5 39t1.5 22q0 9 -1 20
q0 13 -1 43q1 13 2 38t3 49.5t4 36.5q1 9 3 13.5t3.5 6.5t2.5 2q1 1 2 2.5t1.5 4t0.5 7.5l1 80q1 46 1 92q0 117 -4 238q0 30 -1 59q-2 41 -6 66q-4 21 -6 53q-2 25 -2 63t6 60q2 6 3 8q1 3 1.5 5t1 5t0.5 9v15q1 9 1 17q-1 4 -3 16t-4.5 24t-3.5 15q-1 0 -1 1h-2q0 1 -1 1
h-1l-1 1l-78 20q-5 2 -6 9v27z" />
    <glyph glyph-name="k" unicode="k" horiz-adv-x="1153" 
d="M1073 12q-5 0 -7 0.5t-3.5 0t-2.5 -0.5q-2 -1 -5 -2l-45 -1q-5 1 -9 1q-4 1 -11 1q-22 0 -35 -0.5t-23 -1.5q-10 0 -23.5 -0.5t-35.5 -0.5q-6 -1 -10.5 -2.5t-7.5 -3.5q-5 -3 -13 -5q-5 -1 -15 -1h-10q-5 0 -7 1.5t-3 3.5q-1 3 -4 4q-1 1 -4 1h-4q-4 0 -7 -2t-5 -4
q-3 -3 -7 -5q-3 -2 -7 -2h-2q-4 0 -5 1.5t-2 3.5t-2 3q-5 -2 -9 -6q-6 -5 -11 -7q-15 17 -29 36q-4 5 -9 10q-8 6 -22 22q-24 31 -47 61q-18 23 -37 47q-6 7 -10 13q-8 10 -15.5 18.5t-20.5 19.5q-9 8 -14.5 13t-9.5 9.5t-9 10.5q-4 6 -13 17q-15 18 -21 28.5t-7 15.5v9l1 2
q0 1 -0.5 2.5t-2.5 3.5l-181 231q-1 1 -1 2h-1v1h-2v-22.5t0.5 -11t0.5 -6.5q1 -2 1.5 -6t1.5 -13q1 -31 0.5 -79t-1.5 -86v-17q-1 -20 -1 -40v-21q0 -31 -2 -60q-1 -7 -3 -11q-2 -6 -2 -14q-1 -7 -1 -19q-1 -21 -1 -44q0 -22 1 -30l48 -17q11 -3 26 -5q19 -2 29 -6v-36
q-30 0 -49 -7q-11 -4 -19 -4h-27q-19 0 -37 1h-83q-21 -1 -44.5 -2t-39.5 -5q-10 -3 -19 -3q-7 0 -17.5 3t-19.5 7q-6 3 -9 4q-4 1 -6 1t-3 -1h-2t-3 1.5l-6 4.5l1 36l86 24q0 18 -2 35q-2 16 -2 34v72q0 20 1 52q1 44 1.5 90t-2.5 71v5q-5 29 -6 61v7q0 24 0.5 59.5
t6.5 52.5l3 4.5t2 2.5q1 0 3 3l5 412v28q1 11 1 21q0 26 -4 52q-7 52 -7 106q0 21 1 43q0 11 2 17.5t4 12.5q2 5 5 11q1 4 1 14.5v21t-1 15.5q0 2 -1.5 9t-3.5 15.5t-3 13.5q-2 5 -3 5l-9 3q-2 1 -5 2q-11 2 -27 6t-29.5 8t-15.5 5q-2 8 -2 18v18q5 4 7.5 5t5.5 1h2h4t7 2
q4 2 8 3q9 5 19 7q7 1 15 1q14 0 28 -4q27 -5 92 -5t113 1h21q24 0 40 -5q15 -6 43 -6l1 -36q-12 -3 -26 -5q-14 -1 -27 -4l-24 -8q-11 -4 -23 -8q-7 -44 -7 -73q0 -6 1 -24t7 -38q5 -21 6 -48l1 -35l-1 -35q-1 -17 -4 -32q-3 -13 -4 -27q-1 -13 -2 -25q-3 -20 -3 -39
q0 -11 -1 -21v-46q0 -9 -1 -19v-18q0 -17 1 -32l20 23q8 9 14.5 15t11.5 10q6 4 12 10l22 22q3 4 7 8q16 16 35 38q21 25 35 40q4 3 7 5q2 2 4.5 3.5t5.5 5.5t7 9l6 6q2 3 4 5q2 1 3 3l2 2q2 3 5 6l83 94q7 9 15 17l12 14q4 4 7 10q4 8 19 25l83 94q6 7 13 15q9 9 14 17
q-7 5 -37 13l-60 16q-25 6 -36 9v36q4 4 6.5 5t5.5 1h7q4 0 8 2l8 4l4 2q10 4 24 5h7q10 0 18 -2q18 -4 44.5 -5.5t49.5 -1.5h12q12 0 24 1h15q9 -1 14 -1l84 1q9 0 16 -2q3 -1 8 -2q7 -2 13 -3q8 -2 15.5 -3t20.5 -1q1 -6 1 -13v-14v-7q0 -2 -1 -2.5t-2.5 -1l-4.5 -1.5h-4
q-15 -2 -22 -3q-8 -1 -13 -2t-12.5 -3.5t-21.5 -7.5q-5 -2 -10 -3q-9 -3 -16 -6q1 -2 2 -3l2 -2t2 -3q-5 -8 -18 -19q-10 -10 -16 -18q-11 -15 -21 -25q-6 -6 -12 -14q-7 -8 -14 -15q-1 -2 -3 -4q-9 -9 -17 -19q-12 -15 -25 -28q-23 -23 -41 -50q-9 -13 -24.5 -33.5
t-32 -38.5t-29.5 -22q-3 -1 -4 -2l-3 -3q-1 -1 -3 -4q-2 -2 -4 -5q-2 -2 -4 -5l-34 -38q-9 -12 -19 -22l-14 -16q-17 -20 -34 -39l-4 -4q-6 -8 -13 -15q-15 -19 -38 -43q-22 -24 -37 -43l-22 -33q-5 -7 -10 -12q-3 -3 -6 -8q-8 -9 -17 -19q-2 -1 -3 -3l-6 -6q-1 -2 -3 -4
q-3 -3 -6 -7q3 -4 8 -9q2 -2 3 -4l6 -8q2 -2 5 -6q10 -12 17 -30q3 -6 10 -18t15 -23.5t12 -17.5q2 -2 6 -7q8 -11 20.5 -27t23 -29.5t13.5 -17.5q1 -3 2 -4.5t1 -2.5v-2v-1q0 -2 1.5 -4t4.5 -6.5t9 -11.5l84 -108q4 -6 15.5 -21t22.5 -29t15 -17q18 -13 30 -31q3 -4 5 -7
q17 -21 33 -43q25 -33 52 -65q10 -12 20 -28q2 -3 3 -5.5t2 -4.5q0 -2 2 -6q1 -2 4 -4l6 -4l3 -3q27 -20 47 -51q4 -7 6 -11q1 -2 2.5 -3.5t3.5 -3t6 -3.5q2 -1 5 -3q13 -7 20.5 -12t12 -8.5t6 -6t1.5 -3.5v-2v-1.5t1 -0.5t4 1q7 0 43 1h5q6 0 9 -0.5t5.5 -4l7.5 -10.5
q2 -1 3 -3q6 -7 11 -11q6 -3 12 -10q4 -5 8.5 -9.5t11.5 -7.5q5 -3 6 -5l2 -4v-2z" />
    <glyph glyph-name="l" unicode="l" horiz-adv-x="917" 
d="M0 1481v24h98q14 -5 56 -7t86.5 -2h64.5h42q33 0 66 1q28 0 51 -7q9 -2 19 -4q9 -1 17 -1h10l1 -36h-2q-7 -3 -15 -3q-1 0 -3 -1q-9 -1 -15 -1q-11 -1 -20 -3t-26 -6q-2 -1 -5 -2q-15 -5 -31 -8q-9 -2 -18 -7.5t-13 -10.5q-2 -6 -3 -24v-65q2 -19 7 -35q5 -21 6 -48v-21
q1 -11 1 -22q0 -26 -4 -48q-3 -18 -6 -43t-4 -43q-1 -16 -1 -53q0 -41 -0.5 -80.5t-4.5 -50.5q-3 -10 -3.5 -32.5t-0.5 -42.5v-15q-1 -38 -1 -75v-19q-1 -47 -2 -93l-1 -71q0 -4 0.5 -7t1.5 -6t1 -7q2 -18 2 -47v-36t-1 -66q-1 -23 -1 -39v-26q0 -30 -0.5 -63t-3.5 -49
q-1 -5 -2 -7t-1.5 -4.5t-0.5 -9.5v-24q40 -7 66 -7q9 0 16 1q8 1 14 1q7 0 11 -1q3 -1 4 -1t2 -1q1 0 2 -0.5t4 -0.5h8q12 0 34 -1h61.5t42.5 2q11 3 31 3h39q12 -1 20 -1l14 15q10 9 17 16q12 10 17.5 17t9 16t8.5 28q2 5 4 12q0 2 1 4q1 6 3.5 14.5t5 16t4.5 9.5l35 3
l7 -7v-1q0 -1 -1 -2v-1q0 -1 0.5 -3t2 -5t5.5 -8q5 -9 6.5 -15t1.5 -18q0 -4 -0.5 -6.5t-1.5 -4.5t-2 -5q-1 -6 -1 -12v-7q-1 -10 -1 -20v-21q0 -38 4 -78v-9q0 -8 -1 -15t-3 -14q-2 -6 -3.5 -14t-1.5 -20l-36 -2l-4 13q-6 0 -16 -1q-7 -1 -12 -1q-18 -1 -43 -1l-22 1
q-10 0 -25.5 -0.5t-27.5 -2.5q-8 -2 -26 -4q-11 -1 -22 -1q-6 0 -16.5 0.5t-14.5 8.5q-51 0 -102 -1h-67h-13.5t-13 -1.5t-21.5 -3.5q-5 -1 -9 -3q-5 -1 -10.5 -2t-13.5 -1q-31 1 -75.5 1.5t-73.5 -0.5q-8 -1 -19 -1q-14 0 -28.5 -1t-23.5 -3q-8 -3 -16 -3h-18q-14 1 -22 7
q-8 5 -21 6q-4 0 -5.5 0.5t-2.5 1t-2 0.5q0 1 -1 1.5l-3 1.5v7l2 30q36 10 74 20q9 3 17 5q15 4 27 8.5t24 15.5q0 7 -2 16q-1 8 -1 15q-1 34 -1 71q0 36 1 75q2 50 2 96v14q0 26 -3 52q-4 30 -6 67v24q0 24 1 44v6q0 14 3 29.5t12 19.5q0 70 1 141q1 33 1 65q0 38 1 76
q0 66 1 132v23q1 14 1 27q0 26 -3 50q-5 37 -8 98v18q0 49 9 77q4 8 4.5 18.5t0.5 21.5q-1 5 -1 9q0 9 -4 22q-2 6 -3 11l-2 8v2h-1q-2 1 -10.5 3t-20 4t-22.5 4l-20 4q-2 1 -4 1q-9 2 -23 5t-27 6.5t-18 5.5z" />
    <glyph glyph-name="m" unicode="m" horiz-adv-x="1721" 
d="M764 -203h-11q-10 26 -13 58q-3 17 -6 32l-12 56q-7 30 -14 62t-12.5 55.5t-6.5 27.5q-3 6 -7 10q-3 3 -6.5 8.5t-5.5 17.5q-1 4 -2 6q-1 3 -1 5v5t1 7l1 4q0 2 -1 5.5t-3 7.5q-1 3 -1 5q-1 5 -2.5 7t-3.5 4q-1 1 -2 2.5t-2 4.5t-1 5v2.5t1 2.5t1 2v3t-1 5q-17 40 -27 87
q-2 9 -5 18q-5 23 -11 46q-15 66 -33 128q-7 19 -14 35q-9 21 -16 45q-2 8 -6 18q-6 23 -12.5 48.5t-6.5 44.5l1.5 6t1 3t1.5 2l1 1v2.5t-0.5 5t-2 9t-3.5 14t-6 20.5q-5 21 -11 42q-6 22 -12 45q-14 50 -27 100q-21 79 -43 158q-1 4 -3 9q-5 19 -12.5 42t-13.5 30
q-24 -109 -40 -221q-1 -8 -2 -17q-3 -32 -12 -57q-2 -9 -11 -65.5t-19 -126t-16 -115.5q-4 -25 -5 -34q-1 -11 -2 -23q0 -10 -1 -19q-7 -66 -18 -133q-7 -48 -14 -97q0 -6 -1 -11q-3 -34 -11 -64l-7 -36q-1 -9 -1 -13v-3q0 -3 1 -5.5t4 -6.5l3 -6q8 -13 13 -19.5t11 -9.5
t17 -7q4 -1 8 -3q34 -12 50 -13q11 -1 20 -4q1 -4 1 -11q0 -8 -0.5 -15t-1.5 -9q-4 -2 -11 -2q-6 0 -11 -1q-2 -1 -4 -1l-16 -4q-8 -2 -13 -3l-6 -1.5t-4.5 -0.5h-7.5h-14q-18 0 -37 1h-79q-16 0 -32 -1q-5 0 -11 -1q-5 -1 -11 -1q-10 -1 -19 -3q-12 -3 -23 -3h-3
q-11 0 -22 5q-5 3 -8.5 4.5t-5.5 2.5t-3 1h-2h-3t-6 1q-2 0 -3 1l-2 2t-3 2v14v12.5t4 10.5l1 1h1q1 1 2 1l71 21q5 1 9 2q2 1 4 1q8 2 11 3.5t4 5.5t1 11q0 10 2 31q2 23 5 45q6 41 12 85q16 98 23 184q1 20 4.5 56t8.5 70.5t12 51.5l4 8l1.5 1.5t1 2t1 5t1 9t2.5 14.5
l20 136q18 130 39 260q0 5 1 11q8 39 9 79q1 49 7 95q0 4 1 8q2 20 5.5 41t9.5 37q3 10 5 14q1 2 1.5 3.5t1 4t1.5 6.5t2 11l12 64q1 5 2 11l2 10v10q-1 6 -1 12t4 10l6 8q54 5 109 9q37 3 72 6h9q14 0 18.5 -6t4.5 -26q0 -12 2 -31q4 -33 10.5 -49.5t14.5 -29.5
q7 -11 15 -28q5 -13 9 -27q2 -5 3 -10q7 -21 12 -38t8 -41l18 -80q8 -27 15 -55q3 -12 6 -23q2 -8 5 -18q5 -16 9.5 -33t5.5 -28v-8q-1 -2 -1 -5q0 -2 2 -7l15 -59q4 -14 8 -27l34 -130l25 -97q1 -4 2 -6.5t2 -4.5l3 -6q12 -30 26.5 -88t23.5 -96l2 -8h1v-1l1 -1q9 33 15 69
q3 16 11 52t17.5 70t17.5 45q2 3 4 4q1 0 1.5 1t0.5 2.5t1 5.5l1 1q24 93 49 185l28 100l20 72q13 46 26 94q3 12 4 26q1 6 1 11q5 33 13 70.5t18 68.5q6 15 14 28q6 11 9 22q2 5 3 9q1 3 2 5q5 12 9 27q4 16 10 33l4 10q3 6 5 11.5t2 10.5v8v7t1.5 5t3.5 4q3 2 7 7
q10 1 20 1t20 -1q11 0 22 -1l123 -1q20 0 24 -7q2 -5 2 -13q0 -5 -1 -12q-1 -11 -1 -27q0 -8 0.5 -26.5t15.5 -57.5q17 -49 24 -102q2 -14 2.5 -22t0.5 -14q0 -8 1 -22q0 -8 2 -16q1 -6 1 -12q1 -7 2 -15q0 -7 1 -13q2 -19 9 -65q7 -41 12 -78.5t5 -49.5q-1 -5 -1 -7t-1 -4
v-2v-2.5t0.5 -4t0.5 -7.5q1 -1 1 -2l45 -330q1 -5 2 -9t2 -7t3 -8q3 -13 5 -26q5 -27 8 -54q7 -45 12 -89q1 -11 3 -23q2 -17 5 -38q10 -57 11 -102q-1 -7 -1 -10q-1 -3 -1 -6t1 -10q1 -4 2 -14q1 -12 2.5 -27t3.5 -27.5t3 -15.5q1 -2 3.5 -5.5t5.5 -7t4 -5.5q6 -8 15 -17.5
t18 -12.5q14 -4 25 -8l22 -8q14 -3 30 -5q13 -1 25 -4v-36q-7 -1 -12 -1h-5q-5 0 -11 -1q-17 -5 -27 -7t-19.5 -2.5t-27.5 -0.5h-3q-20 0 -41 1h-91q-19 -1 -38 -1q-10 0 -26 -1.5t-25 -3.5q-13 -4 -23 -4q-7 0 -17.5 2.5t-19.5 7.5q-6 3 -11 4q-4 1 -7 1h-6t-5 2l-1 1
q0 1 -1 1l-1 1v1h-1l1 34q25 19 52 23q16 3 27 9q-3 11 -5 27q-2 20 -7 40q-5 19 -11 61t-12 91q-8 78 -16 125q-6 26 -13 51q-2 6 -3 12q-4 13 -9.5 47t-8.5 68q-1 11 -1 20q0 17 3 24q1 2 2 3t2 1q0 1 0.5 1t0.5 1t-0.5 3t-0.5 5q-2 11 -3 22q-1 6 -2 13l-30 207
q-1 6 -2 18q-5 34 -13 90.5t-17 104.5t-15 58q-5 -23 -12 -41q-4 -12 -8 -25q-5 -16 -10 -30q-6 -17 -11 -36q-3 -10 -9 -32q-9 -34 -19.5 -70.5t-14.5 -47.5l-3 -6l-2 -4t-2 -5l-83 -306q-3 -11 -4 -22q-1 -7 -3 -15q-14 -63 -32 -125l-12 -46q-5 -18 -9 -37
q-10 -42 -23 -82q-1 -1 -1.5 -3t-2.5 -5l-2 -4t-1 -3v-8q0 -3 -0.5 -9t-4.5 -19q-2 -7 -4 -15l-6 -18q-2 -7 -4 -12q-4 -8 -7 -20q-2 -5 -3 -10q-3 -13 -6 -25l-16 4q-3 -4 -6 -7l-6 -6q-1 -2 -3 -3q-3 -3 -4.5 -5t-2.5 -8l-20 -86q0 -2 -1 -5q-1 -4 -1 -8v-3q0 -2 1 -5
l2 -4q2 -3 3 -5.5t3 -8.5q1 -5 2 -9q3 -17 7 -35q1 -3 2 -8q2 -9 4 -19v-5q0 -6 -2 -11q-5 -8 -12 -16l-10 -14q-4 -5 -7 -9q-4 -4 -6.5 -9t-4.5 -17z" />
    <glyph glyph-name="n" unicode="n" horiz-adv-x="1247" 
d="M0 1485q3 3 5 4.5t3 1.5h3h3.5t5.5 1q4 1 10 3q10 5 24 9q6 1 13 1q9 0 19 -2q16 -5 39.5 -6t44.5 -1h124q12 0 17 1h6.5t4.5 -0.5t7 -1.5q4 -1 14 -3l12 -3t6 -1q2 -1 4 -1.5t5.5 -0.5t11.5 -1h7v-2q0 -5 0.5 -8l1 -6t1.5 -8q1 -2 2 -5q3 -7 4 -15q12 -63 47 -111
q15 -19 21.5 -30t16.5 -30l2 -6l2 -4q18 -33 30 -69q3 -12 6 -21t8 -19q5 -12 9 -24q3 -8 5 -15q9 -22 30 -66q17 -38 32 -72.5t16 -46.5l1.5 -7.5t1 -4.5t1.5 -5q1 -1 2 -4l4 -8l4 -10q36 -81 71 -163q28 -66 57 -132q3 -8 6 -12.5t5 -8.5q4 -5 8 -14q23 -45 42 -93
q4 -8 7 -16l47 -111q3 -7 6 -13q6 -12 10 -24l1.5 1.5t0.5 1.5v6l1 61v7q0 32 -1 64q-4 46 -4 92q0 24 1 47v2q1 16 3 31q1 3 2 5t2 3l2 4q1 2 1 5.5v7.5v4l2 212l2 143v6v65.5t-3 66.5q-1 16 -2 43v28v34t3 34q1 6 2 11q3 8 3 19q0 5 1 11q0 14 -1 25q-1 9 -2 17l-2 14
l-2 18q0 7 -1 15q-5 7 -29.5 14.5t-52.5 14.5q-20 4 -35 8.5t-19 7.5l-2 34q1 1 1 2q1 0 1.5 0.5t0.5 1.5q3 2 5.5 2.5t5.5 0.5h6q6 2 14 5q9 5 22 8q6 1 12 1q8 0 18 -2q28 -7 78 -7h130h24.5t15 -1.5t17.5 -4.5q6 -1 14 -3t15 -2h9l1 -36q-5 -2 -13 -3.5t-17 -2.5
q-6 0 -10 -1q-18 -3 -33 -10q-10 -4 -21 -7q-4 -1 -6 -2t-4 -2.5t-4 -3.5q-5 -5 -6.5 -9.5t-1.5 -11.5q0 -6 -1 -16q-3 -35 -3 -71v-18q1 -21 4 -40q3 -21 3 -45q0 -8 1 -15v-15q0 -31 -3 -60q-3 -18 -4.5 -42.5t-2.5 -43.5l-1 -138q-1 -12 -3 -22q-2 -9 -2 -19
q0 -11 -1 -58t-2 -105t-1 -102v-53q3 -41 3 -84q0 -34 -2 -69q-1 -37 -1 -73v-38q0 -27 -2 -51q-1 -2 -1 -3l-1.5 -13.5t-0.5 -8.5v-12q-1 -3 -1 -8v-44q0 -1 1 -1v-1q1 0 1 -0.5t0.5 -0.5t1.5 -1q7 -10 15 -23q8 -14 18 -26q3 -4 7 -7t10 -5q10 -3 19 -7q11 -4 24 -8
q10 -2 23 -4q15 -1 27 -5q0 -4 0.5 -11t0 -14t-1.5 -11h-9q-7 0 -15 -2q-10 -3 -21 -5l-8 -2q-7 -2 -14 -3q-38 0 -78 1h-34q-34 0 -69 -1q-5 0 -11 -1t-13 -1q-11 -1 -21 -3q-11 -3 -23 -3h-3q-11 0 -23 6q-7 4 -11.5 5.5t-7 1.5h-3.5q-2 0 -3.5 0.5t-4.5 0.5
q-2 1 -2.5 1.5l-1.5 1.5l-1 1q-1 0 -2 1v16q0 4 1 9v8v3.5t-1 3.5t-2 6l-4 10q-3 8 -6 15t-6 12t-5 9q-7 10 -14 25l-79 184q-2 6 -5 12q-13 32 -27 61q-10 18 -20 35q-10 16 -18 32q-18 35 -33 73q-12 27 -16.5 42t-4.5 22q0 6 1 9q1 2 1 3.5v3.5q-1 2 -3.5 7.5t-5.5 12.5
t-5 12q-2 3 -2 5l-49 110q-23 53 -46 105q-40 93 -83 186q-8 18 -17 36q-7 14 -22 35q-11 15 -19 28q-3 5 -7 12q-3 7 -6 13t-6 9q-1 -11 -1 -21v-18q-1 -9 -3 -18q-1 -9 -2 -19l-4 -76v-65q0 -49 -5 -90q-1 -6 -1 -13.5v-15.5v-51q-1 -17 -1 -33q0 -23 -1 -46q0 -38 -1 -75
q0 -41 -1 -83q0 -11 1 -21l2 -18v-44q0 -44 -1 -88q-1 -33 -2 -67v-20q0 -29 -1 -59q-1 -9 -3 -18q-1 -7 -1 -15v-23q-1 -10 -1 -20v-40v-6t1 -3.5t2 -3.5l2 -2q9 -14 15 -20.5t12 -9.5t18 -7q5 -2 13 -5q20 -7 38 -8q14 -2 29 -6l-1 -36h-10q-7 0 -15 -2q-10 -3 -21 -5
q-2 0 -3 -1q-9 -2 -14 -2.5t-8.5 -1t-9.5 -0.5q-5 1 -13 1h-41l-31 1l-31 -1h-18q-17 0 -34 -1q-6 0 -12 -1q-5 -1 -12 -1q-11 -1 -21 -3q-11 -3 -23 -3h-3q-10 0 -22 5l-10 5t-6 2.5t-3 0.5h-2h-3t-6 1q-2 0 -2.5 0.5t-0.5 1.5h-1l-1.5 1.5t-2.5 1.5v16v10t2 10q2 2 14 5.5
t25.5 7t21.5 5.5q4 1 5 1q4 2 9 3q15 3 30.5 8t22.5 12q1 14 1 27t-1 26q-1 16 -1 32v84q1 29 1 58q1 37 1 75v37q0 20 -2 39q-2 21 -2 43v38q0 22 1 45q1 13 2 20t2 10.5t2 5.5t1.5 4t1 5.5t0.5 9.5l5 443q0 21 -3 43q-2 19 -2 38v85q1 26 4 39q3 11 4 28v6q0 16 -4 45
q-2 12 -3 24q0 7 -1 14q-8 8 -22 12.5t-28 8.5q-8 1 -15 3l-20 6l-16 4q-10 3 -16 4q-10 2 -14 4t-5 6t-1 13v19z" />
    <glyph glyph-name="o" unicode="o" 
d="M576 1498q18 1 34 1q66 0 115 -14.5t102 -58.5q13 -9 22 -19l20 -20q7 -6 12 -13q4 -5 8 -9q43 -52 76 -114q2 -4 5 -8q5 -9 11 -19q25 -41 45 -87q8 -20 13 -40q3 -11 7 -22q5 -15 11 -29q6 -15 11 -30q11 -39 14 -81q3 -30 9 -59q2 -13 3 -31t1 -35v-39q0 -26 -1 -53
q-8 -180 -62 -345q-7 -20 -10 -34q-3 -13 -9 -30q-18 -49 -36 -76.5t-49 -63.5l-8 -10q-14 -17 -39 -44t-41 -39q-10 -8 -17 -13q-10 -9 -29 -22q-49 -33 -118 -45q-39 -6 -76 -6q-14 0 -28 1q-25 1 -52 1h-6h-13h-23t-25 0.5t-13 1.5q-1 0 -1 1h-1v1h-1q-1 0 -2.5 0.5
t-3.5 1l-6 1.5q-2 0 -4 1q-7 1 -13 3q-45 12 -85 36q-26 15 -48 33q-4 4 -8 7q-18 15 -35 32q-101 108 -160 247q-10 23 -23.5 60t-15.5 63q-2 21 -8 45q-3 13 -5 24q-20 118 -20 238q0 32 1 64q4 48 15.5 104.5t24.5 101.5q41 157 135 271l40 42q20 20 43 39q32 25 77 48.5
t86 32.5q23 5 39 5l16 1l14 -1h13q14 0 31 1l11 1l12 -1q9 0 18 1zM556 1388q-29 -3 -50 -8.5t-45 -17.5q-118 -59 -179 -186q-18 -43 -26 -94q-4 -18 -8 -34q-2 -8 -4 -15q-4 -15 -5 -27.5t-1 -28.5q-1 -29 -6 -56q-5 -26 -6 -54v-14q1 -9 1 -16q-3 -42 -3 -83
q0 -164 51 -322q1 -1 1 -3q2 -4 4 -9.5t3 -9.5q3 -5 6 -9l6 -10q6 -11 12 -23q4 -9 9 -17q2 -5 3 -8q3 -6 4.5 -8.5t2.5 -4.5l2 -4q1 -4 6 -17q9 -25 24 -51t32 -45l5 -5q12 -14 25 -26l48 -44q6 -6 16.5 -13.5t18.5 -12.5q18 -12 40 -20q9 -3 12.5 -3h4.5q5 0 9 2q6 2 16 7
q1 1 3 2q39 20 72 50l4 4q15 12 27 25l8 10q11 10 21 23l2 2q12 15 25 32q25 36 42 79q35 89 53 190q3 12 6 23q4 12 7 25q4 26 7 53q9 71 9 142q0 45 -4 91q-2 21 -3 41q-1 36 -5 72q-13 105 -48 195q-6 13 -10 25q-10 26 -20.5 47.5t-29.5 49.5q-12 16 -28.5 33.5
t-32.5 28.5q-23 15 -64 31t-67 16h-3z" />
    <glyph glyph-name="p" unicode="p" horiz-adv-x="940" 
d="M1 1484q2 4 5.5 5.5t8.5 1.5q6 0 12 2l8 4q9 5 19 7h18.5t16.5 -3q5 -1 19 -2.5t28 -2t19 -0.5q3 1 4 1h8q2 0 5 -1q15 -1 34 -1t43 1h50t33 -2q12 -4 29 -4q7 0 14 1q10 1 21 1q18 0 47 -2.5t81 -18.5q42 -14 64 -24.5t42 -22.5q16 -9 42 -23q27 -14 44.5 -28.5
t35.5 -35.5l14 -14q10 -8 22 -22q6 -8 16.5 -27t20 -39t12.5 -28q23 -71 23 -145q0 -53 -12 -108q-16 -71 -51 -130q-3 -6 -6 -13q-2 -6 -5 -11q-11 -21 -28.5 -43.5t-35.5 -37.5q-49 -39 -112.5 -73t-127.5 -48q-38 -6 -68 -6q-13 0 -24 1q-19 2 -43 2q-1 -23 -1 -45v-14
t0.5 -7.5t0.5 -4v-3.5q1 -1 1.5 -4l1.5 -9q1 -25 1 -52v-48q-2 -82 -3 -164v-11q0 -16 -2 -32q-1 -6 -1.5 -9.5t-2.5 -8.5v-1q-1 -3 -1.5 -12t-0.5 -20v-21v-12q0 -5 0.5 -7.5t1.5 -3.5t2 -3q2 -1 3 -2l4 -4q8 -8 15.5 -13.5t22.5 -8.5q16 -4 27 -8q9 -3 19.5 -5.5
t25.5 -4.5h7q17 -2 31 -5q1 -9 1 -16q0 -6 -0.5 -12t-3 -7.5t-7.5 -1.5q-3 1 -8 1q-10 -1 -22 -4q-21 -6 -56 -8q-24 1 -48 1q-47 1 -95 1q-27 -1 -71 -2t-69 -3q-7 0 -13 -2q-7 -2 -19 -2h-17q-9 0 -16 1q-8 3 -14 6q-6 2 -13 4q-6 2 -11 2t-9.5 1t-7.5 6l2 34
q10 5 36.5 10.5t54.5 10.5q18 4 32 7t19 4q0 11 -2 34q-1 19 -2 34q0 43 2 107q1 52 1 100t-3 75q-6 47 -6 95q0 21 1 43q1 17 2.5 27t3 15.5t3.5 7.5l3 3q1 0 1.5 0.5l1.5 1.5l4 436q0 9 1 20v15q0 14 -1 26q-3 21 -5 34q-3 17 -4 34v48q0 10 -1 20q-1 7 -1 14q0 27 10 52
q3 6 3.5 10.5t0.5 9.5v24q0 8 -1 15q-2 7 -4 10t-6 5q-1 2 -3 3q-11 8 -19.5 12.5t-23.5 7.5q-9 3 -30.5 8.5t-41.5 11t-26 7.5zM349 700q21 5 45 16q8 3 15 6q57 22 108 54q76 45 115 129q14 32 21 59q2 8 5 16q1 5 3 8q1 2 3 7q5 29 5 56q0 18 -2 34q-6 41 -22 85
q-29 75 -85 117q-8 7 -15 13q-11 10 -23 18.5t-35 19.5q-26 13 -61.5 23.5t-65.5 11.5q-2 -10 -2 -23q0 -8 1 -18q2 -24 6 -41q1 -3 2 -7q4 -14 5 -29q1 -17 1 -35v-10q0 -23 -1.5 -41.5t-5.5 -40.5l-7 -82q0 -44 -1 -87v-23q1 -8 1 -17q0 -24 -7 -44q-1 -4 -1.5 -28
t-1 -55.5t-0.5 -57.5v-34z" />
    <glyph glyph-name="q" unicode="q" horiz-adv-x="1179" 
d="M1330 -130q-4 -2 -8 -2h-3q-5 0 -9 -1q-1 0 -2 -0.5t-1 -1.5q-1 0 -2 -0.5l-3 -1.5q-3 -1 -8 -1q-14 -2 -29 -3h-13q-32 -2 -65 -2h-22q-81 1 -154 22q-63 20 -105.5 45t-63.5 42q-14 10 -19 12l-12 4q-3 0 -5 1q-3 1 -5 2q-13 3 -23 7.5t-16 13.5l-3 4.5t-2 2t-4 0.5
q-1 1 -4 2q-7 2 -13 2h-5t-12 -3q-2 -1 -6 -2q-45 -13 -121 -15q-28 -1 -53 -1q-41 0 -73 3q-6 1 -11.5 1h-11.5h-3.5h-2t-0.5 1h-1v1q-1 0 -2 0.5t-2.5 1l-4.5 1.5q-29 5 -50.5 14t-46.5 21q-41 22 -76 56t-64 70q-106 130 -151 291q-3 10 -4 16t-1 10q0 5 -2 12
q-32 148 -32 284q0 4 1 76t47 222q21 68 49 127q17 37 45 77t55 68q45 48 106 87t129 52q50 9 110 9q40 0 117 -7t148 -56q10 -8 24.5 -20t22.5 -21q38 -40 58 -68.5t43 -70.5l10 -16q3 -5 6 -11q31 -48 54 -106q5 -16 9 -31q5 -18 12 -36q15 -38 20.5 -61.5t8.5 -54.5
q1 -13 3 -29q1 -11 3 -21q2 -9 3 -18q2 -13 2 -27q1 -7 1 -13q1 -29 1 -57q0 -57 -5 -114q-14 -156 -61 -292q-6 -16 -8 -26q-1 -7 -4 -16.5t-9 -25.5q-5 -14 -12.5 -31t-15.5 -29q-6 -9 -23 -30.5t-33.5 -42t-22.5 -25.5q2 -5 6 -10l4 -6q2 -4 4 -9t4 -8q4 -7 14 -15
q8 -6 11 -11q-3 -5 -7 -9q-2 -1 -3 -3q-2 -2 -2.5 -3t-0.5 -2q0 -2 1 -5v-3q2 -5 2 -9q1 -4 2 -6.5t2.5 -5t5.5 -7.5q20 -23 38.5 -41t43.5 -35q15 -10 22.5 -14t11.5 -4.5t8 -0.5h4q5 0 14 -1q34 -6 71 -8h50q5 0 10 -0.5t12 -4.5t13 -9q5 -3 11 -7l10 -6q7 -4 14 -9l6 -4
q3 -2 7 -4zM647 148q-4 4 -19 8.5t-31.5 8t-23.5 3.5t-13 -2q-4 -1 -7 -2h-28h-6t-4 1l-6 3q-5 3 -10 3q-2 0 -5 -1q-7 -2 -15 -5q-7 -3 -11 -4t-5 -1q-6 0 -11 4q-3 3 -3 6v5v10q1 11 1 22q1 8 1 23q1 20 2.5 39.5t4.5 26.5h6q6 0 13 -1q10 -2 22 -2q11 2 18 5q8 4 16 5h12
q11 0 18 -1q10 -2 17 -4q5 -2 10 -3q6 -2 12 -3l6 -2q8 -2 21 -5q14 -3 27 -6.5t20 -7.5l3 -3h1l2 -2l23 -9l10 -5l12 -6t9 -4q23 27 43.5 76t29.5 81q13 45 23 92q1 4 1 7q4 20 9 40q1 5 3 9l2 6t1 8q18 106 18 211q0 69 -8 138q-6 81 -21 144t-45 135q-34 88 -92 137
q-22 17 -55 32.5t-63 22.5q-10 3 -20 3h-4q-10 0 -23 -2q-2 0 -4 -1q-38 -5 -64.5 -19t-55.5 -34q-87 -59 -131 -157q-17 -41 -25 -90q-3 -17 -7 -32q-9 -28 -11 -65q-1 -35 -6 -65q-3 -18 -5 -38v-31q0 -13 -1 -26q-2 -33 -2 -65q0 -151 42 -296q2 -5 3 -9q4 -16 8.5 -27
t13.5 -25q4 -7 12 -23l16 -32t10 -22q18 -54 50 -94q13 -17 21 -25t17 -16l18 -18q2 -1 4 -3q12 -13 26 -24q30 -28 70 -45q11 -4 15 -5t7 -1q2 0 4 1q5 1 14 5l4 2q40 20 69 46z" />
    <glyph glyph-name="r" unicode="r" horiz-adv-x="1124" 
d="M3 1491q2 4 4 5q1 1 2 1t3 -1h4q11 1 20 7q8 4 17 6q3 0 10 0.5t13.5 0t9.5 -0.5l10 -2l8 -2t10 -1q7 0 15 -1t17 -1h10l10 1l10 -1q10 -1 25 -1h24t45 1h43t25 -1l8 -2q4 -1 8.5 -1.5t10.5 -0.5q29 3 57 3q89 0 174 -29q37 -12 62 -24q13 -7 31 -14q48 -19 84 -46
q8 -8 17 -15q8 -9 17 -16q24 -18 35.5 -31.5t24.5 -39.5l23 -41q20 -47 27 -102q3 -25 3 -49q0 -127 -69 -232q-4 -6 -6 -12q-3 -4 -6 -9q-20 -35 -49 -64q-22 -22 -61 -45.5t-67 -37.5q-3 -1 -10 -5q-7 -2 -14 -5.5l-13 -6.5t-7 -4q3 -5 6.5 -7.5t6.5 -4.5q5 -3 10 -8
t13 -18q10 -16 12.5 -24.5t2.5 -13.5q1 -3 1.5 -6t2.5 -8q1 -2 1 -3q1 -3 2.5 -5t2.5 -6q4 -12 11.5 -27.5t16.5 -28.5l2 -4q5 -10 7.5 -15.5t3.5 -9t1.5 -5t0.5 -3.5v-1v-2t1 -4.5t5 -9.5l38 -71l4 -8q5 -10 12.5 -23.5t13.5 -25t8 -13.5q6 -5 9.5 -9.5t6.5 -10.5
q15 -26 30 -54l21 -40q7 -11 9.5 -17.5t3.5 -10t1 -6.5t1 -7t5 -11q6 -13 13 -24q6 -11 12 -23q8 -16 20 -19q6 -1 12 -1t13 1t16 1t12.5 -2.5t6.5 -7.5q2 -2 3 -4q7 -9 14 -16q1 -2 3 -3q2 -3 3 -6q6 -8 14 -13q2 -1 6 -7t7 -12.5t4 -8.5q-6 0 -8 -0.5t-4 -1.5q-1 0 -3 -1
t-5 -1q-4 -1 -13.5 -1h-18.5h-14q-6 0 -10 1q-5 1 -11 1h-31q-31 -1 -63 -1q-15 -1 -31 -1q-7 0 -11 -0.5t-6 -1.5t-4 -3q-1 -1 -5 -2.5t-10.5 -2.5t-20.5 -2q-4 0 -6.5 0.5t-3.5 1t-3 2.5l-3 3l-25 -11l-4 4q-6 -2 -9 -2q-4 0 -6.5 3t-2.5 12t1 18v14t-1 9q-24 35 -44 76
l-9 18q-1 1 -1 3q-8 16 -18 31q-6 9 -13 15q-6 6 -12 13l-8 12l-2 4l-4 6q-7 12 -12 25q-2 5 -2 10q0 8 5 14q-1 4 -9 18t-17.5 31.5t-16.5 30.5q-6 10 -8 13l-17 32l-33 62q-4 7 -7 13q-4 8 -9 15t-13 15q-9 8 -16.5 17.5t-13.5 23.5q-2 3 -3 6l-6 10t-4 9v11q1 2 1 5t-2 8
t-5 10t-4 7q-6 4 -11 8q-10 5 -18 16l-26 1q-1 -4 -1 -17.5v-29.5v-30v-16q0 -12 2 -23q1 -10 2 -21v-47q0 -44 -1 -88q-1 -33 -1 -67v-33q0 -23 -1 -46q0 -2 -1 -4q0 -9 -2 -18q-1 -5 -2 -8q-1 -2 -1.5 -4.5t-0.5 -6.5v-19q0 -14 -1 -28v-4v-10t2 -8q16 -18 27.5 -24
t28.5 -9q10 -2 25 -7q28 -7 51 -9q17 -2 32 -5l-2 -36q-16 0 -26 -1.5t-21 -3.5q-6 -2 -16 -3q-15 -3 -25.5 -3.5t-23.5 -0.5h-15q-28 0 -56 1h-82q-12 0 -39.5 -0.5t-54.5 -1.5t-40 -3q-14 -3 -32 -4h-6q-13 0 -25 3q-8 3 -14 5q-5 2 -11 3.5t-16 2.5q-3 0 -4.5 0.5t-2.5 1
t-1 1.5q-1 0 -1.5 0.5t-3.5 0.5v7q1 8 1 17t2 13l1 1h2q1 1 2 1t2 1l65 14q14 3 30 6q24 4 44 9q0 9 -0.5 15t-1.5 13v5q-2 20 -2 57q0 13 0.5 49.5t1.5 90.5q1 34 1 52l1 14q0 27 -4 54q-1 7 -2 13q-4 26 -4 53v72q1 17 3 33q2 9 4 14t9 10q1 3 1.5 42t1 88.5t0.5 85.5v33
q1 63 1 126q0 11 1 37v53q1 13 1 22q0 8 -1 12q-1 13 -4 27q-2 13 -5 27q-1 12 -1.5 37.5t-0.5 51.5q0 25 2 36q3 13 8 25q2 5 3 8t1 5.5v6.5v15v13t-1 10q-1 6 -2 9t-2.5 4.5t-4.5 3.5l-4 2q-1 1 -2 1q-9 7 -18 12t-23 8q-1 1 -2 1q-12 3 -34 8t-42.5 10.5t-24.5 8.5
q-3 10 -3 23l1 7l-1 5l1 1v1h1v-1h1zM361 738q10 2 36 11t52 19.5t37 15.5q29 13 57 28t52 33q73 56 106 146q2 6 3 12q4 11 8 20v2l1 1q1 1 2 3l5 27q1 13 1 25q0 61 -26 113q-29 62 -74 94q-47 39 -106 63q-65 26 -143 29v-24q0 -29 5 -56q2 -4 2 -8q4 -14 5.5 -21.5
t1.5 -15.5v-23v-35q0 -27 -4 -53q-2 -8 -3.5 -23l-3 -30t-3.5 -23q-1 -24 -1 -72q0 -37 -0.5 -70.5t-3.5 -42.5q-1 -4 -2 -6q-1 -1 -1 -2.5t-0.5 -3.5t-0.5 -6z" />
    <glyph glyph-name="s" unicode="s" horiz-adv-x="914" 
d="M353 125q20 -5 46 -6h46q9 1 22.5 6.5t26.5 12t19 10.5q73 42 105 105q16 30 16 64q0 37 -19 80q-17 34 -38 59q-16 18 -26 28.5t-20 19.5q-11 10 -27 25l-1.5 3t-1.5 1q0 2 -2 3q-6 7 -21.5 18.5t-31.5 21.5l-24 15q-37 22 -74 39q-27 13 -54 27q-31 18 -59 38
q-31 22 -53.5 43t-47.5 50q-11 13 -21 27q-49 66 -80 146t-33 177q0 57 20 116.5t52 102.5q16 21 33 39q29 30 69 52q49 27 104 42q17 5 42 7t44 2h1q6 1 13 1q7 1 14 1q9 0 17 -2q3 -1 12 -1.5t19 -0.5q11 0 16 -1q21 -2 42 -6q20 -3 39 -8q6 -2 9.5 -2.5t6.5 -1.5
q4 0 9 -1t14 -5q19 -6 42 -17t40 -22l6 -4.5t3 -3.5l4 -4q1 -1 5.5 -3.5t10 -5.5t9.5 -5.5t5 -2.5q4 7 8 16.5t6 17.5q2 5 3 14q1 8 2.5 15t4.5 10q2 1 9.5 1t15 -0.5t10.5 -0.5q1 -5 1 -11t2 -11q3 -8 6 -19t3 -20q0 -14 -1 -29v-105q0 -19 0.5 -40.5t4.5 -35.5
q4 -12 4 -21q0 -4 -2 -11t-6 -14q-4 -6 -5 -11q-2 -4 -2 -7q0 -2 -0.5 -4t-3.5 -5l-2 -1h-14q-11 0 -22 2q-8 22 -15 44q-8 26 -11 37q-3 10 -5 16t-7 13t-16 21q-5 6 -10 13q-4 5 -6 9q-5 5 -7.5 8t-6 5t-10.5 4q-1 1 -3 2q-18 7 -35 18q-11 7 -22 13q-10 5 -20 9
q-9 3 -15 3q-5 0 -11 1q-16 4 -24 7t-10.5 5.5l-3.5 3.5q0 1 -0.5 2t-2.5 1q-11 3 -32 3h-22t-34 -2q-54 -7 -104 -31t-79 -66q-30 -44 -30 -101q0 -24 5 -49q8 -28 19 -51q3 -8 7 -17l2 -4q11 -33 31 -55q20 -21 38 -44q3 -3 6 -7q19 -26 48 -45q9 -6 17 -13q5 -3 10 -7
q41 -29 87 -51q93 -46 171 -108q5 -5 10 -9q8 -7 15 -13q8 -7 15 -13q4 -5 9 -9q8 -7 14 -14l10 -10q5 -5 11 -12t11 -13q4 -5 9 -11q6 -7 12 -15l28 -42q5 -6 8 -11q4 -4 8.5 -10.5t11.5 -19.5q39 -67 40 -146q0 -47 -7 -86q-30 -145 -147 -227l-29 -17q-3 -1 -3.5 -2.5
t-0.5 -2.5q-1 -1 -1.5 -2t-2.5 -1.5l-6 -1.5q-2 0 -4 -1q-4 0 -6.5 -0.5t-7.5 -2.5q-4 -2 -9 -3q-15 -4 -25 -11q-9 -7 -24 -11q-13 -4 -25 -4h-4q-7 0 -13 -1h-8q-19 -1 -38 -3q-13 -2 -27 -3h-7h-4.5t-2.5 1q-2 1 -6 2h-14q-5 0 -8 1q-28 1 -51 4.5t-50 10.5q-2 0 -5 1
l-4 2q-6 1 -9 1t-7.5 1t-12.5 3q-13 4 -26 5l-14 2l-1 10q-1 1 -2 1q-13 6 -29 14.5t-24 17.5q-3 3 -9.5 7.5t-13.5 8t-11 4.5q-2 -9 -7 -19q-4 -8 -6 -15q-3 -9 -4 -18q-1 -11 -4 -21h-37v5q0 5 -0.5 8.5t-1.5 8.5q-4 9 -6.5 19.5t-2.5 20.5v48l1 35l-1 36v48q-1 6 -1 11
q-1 5 -1 11t-1 11l-2 10q-4 10 -4 19q0 5 3 14t7 16q3 5 4 8q1 4 1 6t1 4t4 5v1h6t12 -0.5t13 -0.5h6q12 -28 21 -64q4 -15 8 -27q8 -23 22 -37l14 -18q6 -8 12 -15q4 -5 6.5 -6.5t6.5 -2.5q3 -1 7 -2q19 -9 37 -20l20 -12q9 -5 14.5 -7t9 -3t7.5 -1q5 0 15 -2q5 -1 11.5 -3
t11.5 -3q7 -2 10 -4.5t6 -8.5z" />
    <glyph glyph-name="t" unicode="t" horiz-adv-x="1090" 
d="M7 1551l37 3q2 -6 4 -14q3 -11 8 -21l18 -29q14 0 31 -2q15 -3 32 -3q19 0 42 4q29 6 55 6q23 0 44 -5q26 -3 56 -4q8 -1 14 -1h54q18 0 34 -4q3 -1 10.5 -1h17h17.5h9q9 0 37 -1q24 0 53 -0.5t51 -0.5h27q19 3 52 3t66 -1q27 -1 45 -1h7l12 1q17 0 33 -5q4 -1 15.5 -1
h23h16.5l4 10q2 5 4 9q1 3 3 6q2 5 5 11q3 9 5 21q2 13 6 20q5 2 12 2q8 0 16 -1q5 -1 8 -1q1 -4 1 -8v-2v-3t1 -5q1 -2 1 -3l4 -12q1 -4 2 -6q2 -5 2 -10q1 -9 1 -22t-1 -31v-36v-43.5t5 -42.5q3 -8 3 -18v-4q0 -7 -3 -13l-4 -8q-2 -2 -3 -4q-3 -6 -3 -9v-2q-1 -3 -2 -5.5
t-4.5 -3.5t-12.5 -1q-8 0 -23 1q-4 7 -9 20.5t-10 28.5q-8 28 -15 42q-9 0 -22 -1q-9 -1 -16 -1l-115 2h-25t-13 -0.5t-13 -1.5t-22 -2q-17 -2 -34 -2q-11 0 -22 1h-18q-2 -13 -2 -32v-23.5t4 -33.5q1 -7 3 -13q3 -13 5 -26q2 -16 1.5 -45.5t-1.5 -46.5q-1 -14 -4 -25
q-1 -7 -3 -15q-1 -10 -1 -22q-1 -11 -2 -21q-2 -16 -2.5 -42.5t-0.5 -55.5q0 -28 -0.5 -51t-2.5 -35q-1 -5 -2 -8q-1 -2 -1.5 -4t-0.5 -7l-4 -207v-28q-1 -32 -1 -64v-25q0 -4 1 -9l2 -10q2 -18 1.5 -56.5t-1.5 -82.5q-1 -39 -1 -67v-25q0 -24 -1 -48q-2 -24 -6 -33
q-1 -4 -1 -6v-26q0 -11 -1 -22v-4q0 -6 0.5 -9t4 -7t11.5 -11q10 -12 30 -17q15 -3 28 -8l8 -2q31 -9 52 -10q15 -1 26 -5l-1 -36q-12 -1 -18.5 -1.5t-11.5 -1t-12 -2.5q-7 -1 -18 -3q-4 -1 -7 -2q-5 -1 -10 -1.5t-13 -0.5l-167 1q-14 0 -28 -1h-39q-9 0 -17 -1
q-7 -1 -15 -1q-16 0 -30 -2l-1 -1q-9 -1 -14.5 -2t-15.5 -1q-13 0 -20 1t-10.5 2t-7.5 3q-2 2 -6 3.5t-11 3.5l-5 1l-4 -1q-3 0 -7 1q-2 0 -4 1t-3.5 2.5t-2.5 3.5q0 2 0.5 10t0.5 15t1 8q3 3 11.5 5.5t16.5 3.5q4 1 6 2q15 3 30 7q3 0 5 1q6 1 19 4q11 2 22.5 4.5t20.5 4.5
t10 3q0 17 -1 34q-2 14 -2 30q0 38 1 97q1 53 1 101t-2 72q-1 1 -1 3q-5 29 -5 61v68q1 16 3 32q2 8 3.5 12t3.5 5.5t3 2.5q1 0 1.5 0.5t0.5 1.5q2 125 3 250q0 69 1 137v17q1 21 1 44q0 24 -1 34q-9 43 -9 89v36q0 11 0.5 26.5t5.5 29.5l2 6q2 4 3 6.5t2 4.5v14t-0.5 20
t-0.5 13l-1 1l-4 18q-35 0 -66 1h-45q-18 0 -34 -3q-9 -2 -19 -3h-58q-12 0 -18 1t-9 2q-3 2 -8.5 3t-17.5 1q-4 0 -12 -0.5t-15 -2t-10 -5.5q-9 -14 -14 -34q-3 -11 -7 -19q-1 -5 -3 -9q-3 -6 -5 -13q-1 -3 -3 -6q-1 -2 -1 -4q-1 -1 -1 -2l-2 -4t-3 -3l-5 -1q-6 -1 -14 -1
q-7 0 -13.5 1t-7.5 4t-1 4v2v2q0 1 -1.5 3.5t-4.5 6.5l-1 1q-2 4 -4 7t-2 8q0 11 3 26q3 14 3 30v31q-2 37 -7 74q-1 7 -2 13q0 5 -1 10q-2 15 -2 25t5 26q2 5 2 8v5v9z" />
    <glyph glyph-name="u" unicode="u" horiz-adv-x="1222" 
d="M0 1488q2 0 3 0.5t2 1.5q0 1 1.5 1.5t4.5 0.5q3 1 6 1h9q11 4 19 7q10 5 23 7q4 1 8 1q13 0 32 -5q10 -2 32.5 -3.5t47 -2t39.5 -0.5h52q44 0 88 1h32q12 0 27 -3t28 -6h2q9 -2 17 -2h6q4 0 8 -1l2 -37q-15 -3 -30 -4q-10 -1 -20 -3q-19 -3 -36 -9q-4 -1 -8 -3
q-12 -3 -19 -5q-12 -3 -17 -5.5t-6.5 -6.5t-2.5 -14q-1 -3 -1 -8q-3 -20 -3 -41q0 -20 3 -40q2 -11 4 -17t4 -11t4 -11.5t3 -20t1 -37.5q0 -15 -1 -24.5t-3 -17.5q-2 -12 -4 -35q0 -6 -1 -13l-2 -12v-78q1 -17 1 -34q0 -18 -2 -29q0 -3 -0.5 -5t-1.5 -4t-1.5 -5t-0.5 -10
q0 -38 1 -76q0 -87 4 -174q1 -7 3 -12q1 -5 3 -10q2 -18 3 -37q1 -8 2 -15q1 -21 3 -41q3 -32 6 -63q2 -14 4 -27q2 -11 3 -23q12 -94 44 -183q6 -13 12 -23q5 -6 9 -14l8 -14q7 -12 12 -22q2 -5 4 -9q6 -16 14 -30q11 -17 26 -28.5t40 -18.5q12 -4 22.5 -6.5t24.5 -3.5
q8 -1 16 -1q51 0 98 25.5t78 64.5q24 30 44 69q11 22 22.5 61t21.5 79l14 49t10 28q3 5 4 7l1.5 1.5t0.5 2t1 4.5q0 2 1 5q1 11 3 22v3q15 101 21 206q5 94 5 189v89q-1 20 -4 39q-1 6 -1 12q-2 15 -4 48t-3 66q-1 22 -1 37v13q1 11 3 21q2 11 2 23v8q-1 45 -8 90q0 4 -1 5
l-3 3q-1 0 -2 1q-11 7 -18 13q-11 9 -22 14.5t-34 11.5q-2 0 -4 1q-11 3 -29 7.5t-34 9.5t-21 7l-2 37l1 1q3 2 5 3t3 1h2q2 0 9 1t15 6q9 4 21 7q5 1 11 1q9 0 19 -2q28 -7 79 -8h94q19 1 33 1h20h5t4.5 -0.5t6.5 -1.5t14 -3t19 -4q2 0 3 -1q5 -1 11 -1h6q4 0 9 -1v-37
q-12 -3 -26 -4q-12 -2 -23 -4q-14 -4 -25 -9l-18 -6q1 -1 3 -2q1 -1 2 -1.5t2 -2t2 -4.5q1 -6 1 -12v-6q-1 -22 -2 -37q-1 -17 -1 -34v-44q2 -36 8 -69v-3q5 -29 6 -76q1 -19 1 -36q0 -24 -2 -42q-3 -23 -3 -49q0 -15 -1 -29q-1 -44 -1 -89v-27q0 -41 -2 -81q-1 -10 -3 -17
q-2 -8 -2 -19q-5 -112 -22 -221q-11 -69 -27 -135q-5 -20 -9 -35q-5 -22 -11 -42t-17 -48q-45 -112 -131 -191q-31 -31 -73 -48q-15 -5 -30 -11q-61 -24 -134 -28q-14 -2 -26 -4q-20 -4 -46 -4q-102 6 -169 75l-2 2q-19 18 -37 39q-36 46 -63 98l-14 28t-11 29l-21 -4
q-6 47 -21 90q-11 33 -18 79t-11 82l-2 22q-3 28 -6.5 53t-11.5 55q-3 12 -5 35.5t-2 47.5t4 37q1 3 2.5 5t3.5 4q1 1 3 2q-1 44 -2 87q-2 44 -2 87v39q-1 32 -1 71.5t-0.5 71t-1.5 38.5q-2 9 -4 20l-4 16q-4 25 -4 51v11q-1 11 -1 22v7q0 17 7 30v1q2 4 2.5 5.5t1 4.5
t-0.5 7v4q0 10 -0.5 15.5t-1 8.5t-2.5 8q-2 6 -6 21q-4 19 -4 27q-1 5 -2 7.5t-4.5 3.5t-10.5 2q-6 2 -16 4l-77 18h-3l-9 3t-3.5 3.5t-0.5 8.5q0 5 -1 14v13z" />
    <glyph glyph-name="v" unicode="v" horiz-adv-x="1322" 
d="M987 1515q17 -8 57 -9h79q27 1 44 1h16q8 -1 16 -4q12 -6 42 -8q1 -7 1 -18q0 -12 -1 -19q-3 -2 -10 -3t-15 -3q-15 -2 -25 -5q-4 -1 -13 -4.5t-17.5 -7.5t-11.5 -7q-22 -28 -27 -66l-6 -24q-21 -73 -44 -145q-7 -22 -14 -45q-2 -7 -4 -15q-13 -40 -23 -81
q-7 -36 -20.5 -85.5t-28.5 -81.5q-2 -5 -3.5 -7.5t-2.5 -3.5l-2 -2q-1 0 -2 -1.5t-2 -4.5q-10 -30 -19 -60q-5 -18 -10 -35l-100 -330q-2 -7 -5 -14q-5 -17 -9 -34q-15 -76 -38 -147q-7 -22 -15 -35q-5 -9 -10 -21.5t-10 -32.5q-3 -18 -4 -30q-1 -9 -3 -20t-7 -28
q-2 -4 -3 -7q-2 -4 -2 -8v-3q0 -3 1 -7q5 -11 5 -25q0 -6 -0.5 -8.5t-1 -4t-1.5 -2.5t-2 -2.5t-1 -4.5v-1q-7 -2 -33 -6t-58 -8.5t-56 -8.5q-17 -3 -25 -4q-3 0 -7 -1q-6 -1 -12.5 -2t-9.5 -1q-5 0 -9.5 4.5t-6.5 11.5q-4 16 -6 32q-2 12 -4 23q-11 47 -21 70t-19 36
q-10 15 -18 37q-8 21 -17 50.5t-12 51.5q-2 13 -2.5 19.5t-1.5 9.5t-2 7q0 2 -1.5 7t-3.5 14q-17 76 -42 152q-1 1 -1 3q-2 5 -4 11q-7 20 -11 41v9v3.5t-0.5 5t-2.5 10.5l-84 280q-3 10 -5 18q-5 22 -16 44q-6 11 -13.5 34t-13.5 42q-2 6 -3 11q-16 51 -31 102
q-6 22 -13 44q-10 29 -18 58q-3 13 -6 25l-2 14q0 9 -2 16q-6 22 -12 43q-2 4 -3 9q-5 15 -10 31q-11 36 -21 71l15 4q-6 2 -18 5.5t-28 6.5q-19 5 -37 9.5t-27 8.5v8q-1 8 -1 17v12l3 1.5t1 1.5q1 0 1.5 0.5t2.5 1t5 0.5q7 0 12 2t11 4q3 2 6 3l6 2q5 2 8 3h29q23 -8 90 -9
h124q26 1 40 1q17 0 38 -7q11 -3 18 -4q5 -1 11 -1h10l2 -37q-15 -4 -30 -5q-16 -2 -31 -6q-10 -3 -18 -6q-10 -4 -23 -7q-4 -1 -6 -2t-3 -2t-4 -2q3 -15 13 -38q7 -15 12 -31q2 -5 3 -10q10 -30 19 -60q4 -12 9 -30q13 -46 30 -101t28 -81q31 -65 50 -137q5 -19 8 -39
q1 -3 1 -5q0 -3 -0.5 -5.5t-1 -4.5t-1.5 -3t-1 -2v-2v-5t3 -10l130 -428q2 -5 3 -11q8 -30 21 -58q8 -15 15 -31q2 -5 5 -13q3 -7 5 -12.5t4 -8.5q2 7 4 15q6 22 13.5 47.5t14.5 43.5l6 14q4 9 8 19q13 38 23.5 69.5t21.5 69.5l6 22q8 25 16 49q3 8 6 14q4 7 8 18l86 283
q2 4 3 8q5 15 7 29q4 20 16.5 61.5t21.5 71.5q2 6 4 11q3 11 10 34q11 39 24.5 82t21.5 58q2 4 7.5 19.5t11 35t10 35t4.5 16.5q-6 4 -18 7.5t-26 7.5q-15 4 -29 8.5t-22 8.5l-2 36l3 3q1 1 2.5 2t4.5 1q6 1 9.5 1.5t5 1.5t3.5 2t4.5 2.5t7.5 3.5l6 3h26z" />
    <glyph glyph-name="w" unicode="w" horiz-adv-x="2124" 
d="M2044 1458q-11 -4 -21 -5q-8 -1 -20 -3.5t-32 -11.5q-2 -1 -5 -2q-9 -3 -15 -8q-22 -28 -29 -71q-2 -9 -4 -19q-19 -69 -41 -138q-9 -26 -17 -52q-1 -6 -3 -11q-14 -42 -24 -86q-7 -35 -20.5 -84.5t-28.5 -82.5q-1 -2 -2.5 -4.5t-2.5 -4.5l-3 -3q-1 0 -2 -1.5t-2 -4.5
l-29 -95l-6 -20q-25 -84 -51 -169q-15 -47 -29 -95q-5 -16 -10 -31q-2 -8 -5 -16q-1 -4 -2 -7q-7 -20 -11 -42q-9 -51 -24 -99q-4 -14 -7 -24q-5 -17 -10 -30.5t-17 -34.5q-2 -4 -5 -13.5t-6 -19.5t-4 -14q-2 -15 -4 -27q-1 -11 -3 -23t-8 -28q-1 -4 -2 -7q-2 -4 -2 -8v-3
q0 -3 1 -7q3 -7 5 -18q1 -4 1 -8q0 -6 -2 -11l-1 -2l-1 -1v-1q-1 0 -1 -0.5t-0.5 -1l-1.5 -1.5v-2q0 -1 -1 -1q-36 -6 -73 -12q-61 -10 -121 -20h-4q-8 0 -13 5q-2 3 -4.5 10.5t-4 16t-1.5 13.5q-4 28 -13.5 59t-22.5 55q-18 28 -25 47t-16 52q-1 4 -2 9q-3 11 -4.5 20.5
t-2.5 21.5q-2 12 -7.5 36.5t-12 49.5t-10.5 36q-2 8 -7 24q-8 26 -16.5 54t-9.5 38v8q1 2 1 3q0 2 -0.5 4l-1.5 6q-24 76 -47 156q-3 10 -6 19l-40 134q-1 4 -2 6.5t-2 4.5q-2 3 -4 7q-8 17 -17 46t-16 54q-2 7 -4 13q-1 4 -3 10q-2 8 -4.5 16.5t-4.5 12.5q-1 -2 -3.5 -13
t-5.5 -25q-2 -9 -3.5 -17t-2.5 -11q-2 -9 -5 -18q-10 -39 -23 -76l-6 -12l-3 -6t-2 -3q-1 0 -2 -1l-3 -3q-1 -2 -4 -13t-7 -23.5t-6 -21.5q-1 -4 -2 -6l-112 -378q-5 -18 -8 -39q-3 -15 -6 -29q-5 -24 -17 -64t-23 -60q-16 -31 -21 -75q-4 -31 -12 -56l-2 -4q-1 -2 -1 -5
q0 -2 1 -6v-1q3 -8 5 -16q1 -6 1 -13t-3 -12l-4 -8q-11 -3 -36.5 -6.5t-50.5 -7.5q-17 -2 -27 -4q-28 -4 -57 -9q-3 0 -9 -1q-5 -1 -10.5 -2t-9.5 -1h-3l-1 1q-5 3 -7.5 5.5t-4.5 8.5q-5 17 -7 33q-1 11 -4 23q-10 52 -34 98q-11 19 -16.5 30t-9 21t-8.5 27q-2 7 -5 15l-2 6
q-8 24 -11 47q-1 6 -2 11q0 9 -2 18l-20 81l-4 16q-13 43 -26 85l-4 12q-7 20 -11 40q-1 5 -1 7t1 4v3t-1 5.5t-2 10.5l-69 229q-7 21 -13 43q-8 29 -18 58l-11 23q-5 12 -8 24q-7 21 -13 41q-2 5 -3 10q-16 51 -31 102q-7 23 -14 47q-14 40 -23 81q-2 7 -2 14q0 9 -2 16
l-31 102q-1 6 -4 13q-3 10 -6 20.5t-5 19.5l14 3q-9 3 -24 7t-31 8l-28 7q-3 1 -7 2l-6 2h-3q-6 1 -10 4l-2 35v1l4 4q3 2 7 2h6q3 0 5 0.5t7 2.5q4 2 7 3q3 2 6 3t7 2q5 2 8 3h29q12 -6 50 -8q25 -1 53 -1h112q25 1 39 1q17 0 38 -7q10 -3 17 -4q6 -1 12 -1h10q1 -4 1 -11
l1 -8q0 -4 -0.5 -9.5t-1.5 -7.5q-2 -2 -12.5 -4t-22.5 -3q-8 -2 -15 -3t-10 -2q-10 -3 -18 -6q-10 -4 -23 -8q-3 0 -5 -1l-4 -2q-1 -1 -3 -2q1 -7 5 -18t9 -23q6 -15 11 -27q20 -63 39 -128q12 -43 25 -85q2 -6 4 -11q8 -31 20 -58q17 -37 34.5 -85.5t23.5 -88.5q1 -8 1 -12
t-1 -6t-2 -3t-1 -3v-2v-3.5t2 -8.5q27 -85 53 -171l34 -114q4 -12 11 -36q14 -47 31 -101.5t25 -73.5l23 -48l2 -6q2 -6 4 -10q2 4 6.5 18.5t8.5 29.5q3 12 5 17q4 16 11 32q8 19 18 47t16 48q3 12 8 28q8 28 17 57.5t15 46.5q1 4 2.5 6t2.5 5q1 1 2 3q3 6 4 13q1 2 1 4
l80 265q1 4 3 9q4 13 6 25q4 20 12.5 49.5t16.5 57.5q5 16 9 28l29 99q2 8 3 13t1 10v14v1l-4 82v11q0 8 -1 15t-5 12q-9 9 -9 27v7q3 2 5 3t5 4v9q-14 11 -14 17q0 9 29 9h83q29 2 66 2t53 -5v-2q0 -6 -4.5 -12.5t-8.5 -11.5l-3 -3q-1 -1 -1 -2q-3 -3 -4 -6v-2q0 -2 1 -6
l16 -54q4 -10 8 -19q3 -6 6 -14q24 -68 47 -150q10 -34 19 -65q0 -1 1 -3q9 -34 23 -66q14 -30 28 -68t21 -71q3 -13 4 -20.5t0.5 -11.5t-1 -6t-1.5 -3q-1 0 -1 -1v-2v-4t2 -9l136 -449l30 -63l20 72q5 17 11 34q3 8 7 15q4 9 7 18q4 9 7 19q9 24 17 49q11 36 22 71
q4 13 7 25q7 24 15 46q3 9 6 15q4 7 7 17q1 3 3 8q6 21 21 68.5t31.5 102t28.5 95t13 47.5q4 19 15.5 58.5t21.5 70.5l5 15q3 10 9 31q11 38 25 82.5t22 60.5q6 11 9 26q2 5 3 9l4 12q3 11 7 23q1 5 3 11q5 14 8 26q-4 1 -18.5 5.5t-32 10t-31 10t-14.5 6.5l-2 34
q2 4 5.5 5.5t8.5 1.5q5 1 10 3l21 11h27q18 -8 57 -9h80q26 1 44 1h15l12 -3t14 -4q1 0 1 -1q7 -1 10.5 -2t8 -1.5t11.5 -0.5l2 -16v-21z" />
    <glyph glyph-name="x" unicode="x" horiz-adv-x="1443" 
d="M6 1480q3 1 4 2q0 1 1.5 2t3.5 1q3 1 5 1.5t3 0.5l1 -1h1.5t2 0.5t4 1.5t6.5 3l10 5q10 5 25 6q8 1 14 1q7 0 13 -1q5 -2 17 -2.5t24 -0.5h17q14 1 29 2q14 0 28 1l140 9q8 0 19.5 -1.5t22.5 -3.5q6 -1 11 -2h14q7 0 12 -1l3 -35q-3 -1 -9.5 -2.5t-16.5 -3.5
q-23 -4 -42 -11q-4 -1 -8 -3q-6 -3 -12 -5q7 -14 18 -25q2 -3 5 -7l18 -24q2 -4 5 -7q43 -65 84 -132q2 -4 5 -9q18 -29 40.5 -64t39.5 -57q7 -9 14 -16q17 -20 33 -45q5 -7 17 -28.5t26 -46.5q13 -23 23 -40.5t11 -18.5q13 19 26 37q11 15 23 32q3 5 5 10q2 3 4 7
q22 36 46 70q8 10 15 21q18 26 37 52q24 34 47 68l10 16q25 39 53 74q2 2 5.5 8t7.5 13l7 10.5t4 6.5q4 5 15.5 21.5l23 33t13.5 20.5q-3 4 -7 6.5t-8 3.5t-7 3l-10 4q-6 4 -14 7q-13 5 -28 7q-14 2 -26 6l3 37q5 0 8 -1h6q5 0 12 1q9 2 22 4.5t22 2.5q29 -2 59 -4
q56 -5 111 -6q6 0 12 1h13q5 0 8.5 0.5t6.5 1.5q3 0 7 1q8 1 14 1q9 0 17 -2.5t15 -7.5t15 -7h5q4 0 7 -1q2 -1 3.5 -3t2.5 -4q0 -3 -0.5 -10.5t-1.5 -14.5t-2 -10q-24 -7 -56 -12q-36 -6 -60 -15q-12 -6 -18 -12t-11 -14q-3 -4 -6 -9q-12 -17 -25 -42q-8 -16 -14 -26
q-21 -33 -43 -64q-7 -10 -15 -21l-116 -168q-17 -25 -32 -52q-11 -18 -22 -35q-28 -43 -57 -85l-6 -8q-15 -25 -36 -39q-3 -1 -7.5 -7.5t-9 -13.5t-5.5 -10q4 -8 10 -17q4 -5 6 -9l115 -180q15 -23 30 -47q17 -28 36 -56l12 -20l8 -12q2 -3 5 -7q1 -3 2.5 -4.5t2.5 -3.5
q2 -1 4 -4q9 -11 19 -22q28 -32 50 -68l4 -6l10 -16q23 -30 35 -65q1 -3 2 -7q1 -6 2 -10q2 -5 8.5 -14.5t11.5 -17.5q3 -4 5 -7q6 -9 19 -21q23 -20 48 -59q2 -3 4 -7q1 -3 3 -7q1 -2 5 -6l8.5 -8.5t7.5 -6.5q6 -5 10.5 -7t10.5 -3q4 -1 9 -2q10 -3 19 -6q6 -2 13 -4
q18 -5 37 -6q19 -2 35 -6v-25.5t-2 -9.5q-2 -1 -5 -1h-8q-6 0 -17 -2q-13 -4 -28.5 -6.5t-28.5 -3.5q-27 1 -53 1l-56 1l-55 -1h-12q-26 -1 -53 -1h-1h-7.5t-6.5 -2h-18q-12 0 -27 -2q-21 -4 -34 -4q-4 0 -12.5 1t-19.5 6q-7 3 -18 6q-5 1 -8 1h-3q-3 0 -6 1t-8 5v8v11.5
t1 10t2 5.5l1 1q6 3 19.5 6t28.5 6q16 3 29 6t17 5q-2 6 -11 20.5t-18.5 28t-13.5 19.5q-12 15 -25 27q-14 14 -28 31q-13 19 -33 50t-30 53q-11 26 -24 49q-6 11 -12 24q-8 14 -20.5 33.5t-24.5 38.5q-11 17 -19 30q-5 8 -13 19q-12 17 -23 36t-15 33q-1 5 -5.5 12.5
t-9.5 14.5q-3 4 -5 8l-8 12q-1 1 -1 2q-1 0 -1 1h-1q-23 -34 -48 -69q-12 -17 -24 -35q-6 -8 -11 -16q-7 -9 -13 -18q-16 -25 -34 -50q-33 -43 -59 -89q-42 -73 -88 -136q-2 -2 -3 -5q-15 -19 -27 -31q-9 -8 -14 -15q-4 -5 -7 -10q-15 -20 -27 -44q-3 -5 -6 -11
q-4 -7 -7.5 -14.5t-6.5 -13.5h3q11 -3 32.5 -9t41.5 -11.5t27 -9.5l1 -35l-3 -3q-1 -1 -2 -1.5t-2 -1.5h-12q-6 -2 -13 -6l-4 -2q-12 -6 -22 -6h-8t-17 3q-9 3 -19 3q-8 1 -14 1q-4 1 -9 1q-31 2 -62 2q-21 0 -43 -1h-45h-22.5t-13.5 1.5t-15 4.5q-6 1 -15 4q-7 1 -14 1h-8
v36q4 2 11.5 3t14.5 2q4 1 7 1q21 4 39 12q3 1 6 3l6 2q6 1 9 3q9 5 17.5 17.5t16.5 24.5q5 9 8 14q2 3 2.5 5t0.5 3v2.5t1 4.5q3 5 8.5 12t9.5 11q5 6 8.5 10.5t8.5 10.5q34 43 62 96l2 4q12 24 27 46q7 10 15 23q26 40 51 69l18 22q4 5 7 10q5 6 9 12q32 43 62 87q2 2 4 5
q11 15 22 32q26 40 51 72l5 5q3 2 5 5l48 69q-1 4 -16 27.5t-34 54t-35 55.5q-15 23 -18 29l-3.5 3.5t-2.5 3.5q-1 1 -3 2q-12 13 -21 28q-41 61 -80 124q-25 41 -51 81q-5 7 -10 15q-12 17 -23.5 36t-15.5 33q-3 7 -5 11t-5 9q-1 1 -2 3q-9 14 -30 47q-19 31 -37.5 59.5
t-22.5 37.5q2 2 6 4t6 5l-7 5q-4 1 -8 3q-19 6 -39 8q-10 2 -19 3q-5 1 -17 3q-11 2 -24 4.5t-23 5t-13 3.5z" />
    <glyph glyph-name="y" unicode="y" horiz-adv-x="1385" 
d="M0 1482q2 1 3 3q1 1 2.5 1.5t3.5 1.5q4 1 6 1h2.5h1.5h2q1 0 3 1l5 2.5t8 3.5l4 2q7 4 11 5t12 1q6 1 13 1h5q5 0 9 -1q10 -2 27 -2h28q18 1 37 1q9 1 18 1q38 2 76 5q29 2 59 4q7 0 11 -0.5t7 -0.5l8 -2q15 -2 20 -3q4 0 7 -0.5t8.5 -0.5h17.5v-1h1v-2l1 -5q0 -5 1 -9
l1 -10l-1 -9q-5 -2 -13.5 -4t-18.5 -4q-7 -1 -12 -2q-16 -4 -28 -9q-6 -3 -12 -5l46 -81q4 -6 7 -13q18 -34 39 -66q6 -8 13 -16q8 -8 16 -18l23 -39l1 -1q5 -9 10 -22q3 -8 3 -15q0 -5 -1 -9q-1 -2 -1 -4q0 -1 2 -3q0 -1 1 -3l17 -29q45 -80 91 -160l22 -40q12 -20 23 -40
q4 -6 11 -12q2 -2 4 -5q14 -15 20 -24t9 -15q4 -7 10 -15q4 4 13 16.5t17.5 25.5t11.5 18q5 9 15 25q13 24 28 49t21 32q4 5 13.5 19.5t19 32t15.5 28.5q2 4 4 6q4 8 14 25q11 18 24 40.5t23 40.5t13 25q6 14 25 47.5t36 61.5q8 14 13 22t10 18q13 26 28 46l2 2q11 12 11 17
q0 1 -0.5 4t-18.5 11q-21 10 -32 13.5t-28 7.5q-7 2 -17 4l3 36l5 1l4 -1q6 0 12 1q11 2 17 4q8 2 13 2.5t13 0.5q7 0 21 -1q10 -1 19 -1q62 -6 126 -6h18q8 0 13 2q3 1 7 2q6 1 11 1q9 0 17 -3t14 -7q7 -5 15 -7q4 -1 6 -1h2h1.5t0.5 -0.5t1 -0.5l5 -5v-9q-1 -8 -1.5 -16
t-2.5 -11q-4 -2 -16.5 -5t-28.5 -6.5t-29 -6.5q-11 -3 -17 -4h-2q-5 -1 -10 -3t-8 -6q-9 -16 -17 -33q-5 -11 -11 -22q-21 -38 -43 -74q-20 -34 -39 -69q-7 -13 -12 -27l-6 -12q-6 -14 -13 -26q-3 -5 -6 -11q-10 -19 -21 -36q-5 -7 -8.5 -10.5t-5.5 -5t-4 -1.5l-1.5 -1.5
t-2.5 -1.5q-2 -3 -16 -27.5l-34 -59.5t-39 -68q-28 -49 -39 -68l-10 -18q-16 -26 -31 -53q-5 -10 -10 -24q-3 -9 -6 -16q-8 -16 -16 -30q-2 -3 -4 -7q-8 -14 -13 -22t-7 -13t-2.5 -11t-0.5 -18q1 -9 1 -25v-449q0 -2 1 -2l1 -1q1 -1 1.5 -2t1 -2.5t0.5 -4.5l1 -35
q0 -4 -1 -5.5t-2 -1.5q-2 -1 -3 -3v-8v-2t1 -2.5t4 -4.5q5 -5 8 -7t5 -3.5t7 -2.5q3 -1 8 -2q8 -3 15 -6q16 -6 34 -10q4 0 9 -1l16 -2t13 -3l-1 -36h-9q-4 0 -8 -0.5t-10 -1.5q-9 -3 -18 -5q-2 0 -4 -1q-5 -1 -8 -1q-3 -2 -7 -2.5t-10 -0.5q-21 1 -43 1q-47 2 -94 2h-57
q-7 0 -13 -1t-13 -1q-13 0 -25 -2q-16 -4 -27 -4q-4 0 -11.5 1.5t-16.5 5.5q-6 4 -14 6q-4 1 -6 1h-3h-3.5t-3.5 1.5t-5 4.5l2 35q4 3 25.5 9t44 11.5t30.5 6.5q0 1 -1 1h-3t-2 1v5q0 2 -0.5 4t-2.5 4q-3 6 -3 13v30q-1 3 -2 5t-3 4q-2 1 -3.5 3.5t-2.5 8.5v5q0 4 2 7t9 4
l3 1q-1 75 -1 150v246q0 4 1 7q0 4 -0.5 7t-3.5 8q-5 10 -8 22q-3 9 -7 17q-11 24 -20 34.5t-17 16.5q-10 7 -21 23q-4 7 -9 15q-9 15 -13 23t-5 12t-2 6q0 3 -0.5 6.5t-3.5 9.5q-2 4 -4 9l-4 8q-1 4 -3 8q-2 6 -4 11l-38 68q-8 13 -11.5 21t-4.5 11.5t-1 6.5q0 1 -0.5 3
t-1.5 5q-24 41 -47 82q-16 30 -33 60q-2 4 -6 11q-6 11 -12.5 23t-11.5 16q-10 10 -22 30t-21 39q-4 7 -7 12q-5 8 -14 24q-12 22 -25 45t-16 34q-2 4 -2 7v4q-1 3 -6.5 13t-12 21.5t-11.5 19.5q-2 4 -3 5l-2 4q-3 5 -6.5 11t-6 11.5t-3.5 7.5l10 6q-2 2 -6 3l-8 2h-2
q-5 1 -24 5q-17 3 -38 6.5t-36.5 7t-17.5 5.5q-1 2 -2 9t-1.5 14.5t-0.5 11.5z" />
    <glyph glyph-name="z" unicode="z" horiz-adv-x="1111" 
d="M177 1518l37 3q1 -4 3 -9q2 -7 4 -12l22 -2q13 -2 26 -2t25 2q5 1 9 3q5 1 10.5 2.5t13.5 1.5h7q11 1 16 1t9 -0.5t11 -2.5q4 -1 11 -2q4 0 9 -1h9q23 -2 45 -2h15q9 1 19 1q12 0 18 -2t16 -2h24q23 -1 52 -1t52 0.5t29 1.5q11 3 29.5 3h35.5h54q17 0 34 -1l-2 4
q-2 3 -4 7v10q4 3 10 3q1 0 6 -1t11 -3q1 -1 2 -1l82 -29q12 -4 26 -9q21 -6 42.5 -14t35.5 -18q0 -5 -4 -9t-8 -7h-2q-6 -5 -11 -9q-12 -9 -27 -16q-3 -1 -8 -3q-4 -2 -7.5 -3.5t-5.5 -2.5l9 -5q-2 -7 -8 -19t-13 -24q-5 -10 -9 -17q-2 -6 -4 -13q-2 -4 -3 -8
q-9 -24 -34.5 -75t-50.5 -100q-21 -39 -31 -60q-20 -40 -35 -83q-12 -33 -36 -82.5t-42 -73.5q-6 -5 -11 -7q-2 -1 -3.5 -2t-2.5 -2l-10 -20q-10 -19 -19 -38l-156 -312q-5 -11 -12 -24q-13 -24 -26 -50.5t-19 -45.5q-11 -35 -21 -57.5t-24 -51.5q-3 -7 -7 -14l-4 -8
q-7 -16 -16 -30q-8 -12 -17 -20q-7 -6 -10 -10q7 -1 12 -1q9 0 18 -2t17 -2q5 -1 10 -1q15 -1 33 -1h36q15 0 24 -1q2 0 3 -0.5t2 -1.5q1 0 2.5 -0.5t5.5 -0.5h140q16 0 30 2q14 1 29 2h93q9 0 17 -1q6 0 13 -1q8 11 20 22q21 17 31 39q3 7 8 24q6 18 12.5 36.5t9.5 22.5
q2 1 9.5 1.5t14.5 0.5q8 0 11 -1l2 -1q1 0 1 -1q2 -1 2.5 -3t0.5 -5q1 -2 1.5 -5.5t3.5 -7.5q6 -9 8 -17q1 -4 1 -9t-1 -11q0 -4 -2 -8t-3 -10q-3 -37 -3 -75q0 -18 1 -37v-35l1 -9q0 -4 -0.5 -10t-3.5 -15l-2 -6q-3 -9 -4 -15t-2 -18h-36q-4 9 -5 20l-2 10h-19
q-10 0 -19 -1q-21 -3 -48 -3q-13 0 -28 1q-16 1 -30 1q-22 0 -40 -2q-7 -1 -13 -3q-10 -2 -20 -2q-5 0 -9 -1q-8 -1 -16 -1q-15 0 -30 3q-4 1 -5.5 2t-2.5 2t-2 1.5l-3 1.5h-28h-60t-69 -1q-47 0 -68 -1q-13 0 -23 -3q-7 -1 -15 -3q-16 -1 -33 -1h-11q-9 0 -13.5 1t-7.5 2
q-4 2 -8 2l-9 -2q-1 0 -2 1q-3 2 -5.5 2.5t-6.5 -0.5t-7 -2q-4 -2 -8 -3q-9 -3 -18 -3q-7 0 -15 2q-7 2 -20 3t-26 1q-16 1 -25 2q-18 2 -37 2q-18 1 -34 3q-11 1 -21 1q-25 1 -47 8q0 5 2 8.5t5 6.5q0 1 1 2l4 4q15 18 29 30.5t37 23.5q6 2 11 4q7 3 12 5.5t9 8.5
q-5 7 -5 14q0 2 1.5 8t8.5 14q1 3 3 6q5 8 11 15q7 9 13 20q19 34 26 53.5t10 34.5q3 16 12 41q7 15 19 39.5t21 39.5q6 11 11 18t12 17l44 74l24 48t34 67t22 42q4 5 7 8q4 3 7 8q9 17 17 34q6 12 13 24l119 237l4 8q10 15 14 32q4 14 13 33.5t18 36.5q3 7 6 12l60 117
q7 14 15 32q12 26 25.5 52t27.5 41q3 2 6 8t5.5 11.5t3.5 9.5q-15 0 -33 -3q-22 -4 -50 -4h-12q-8 0 -15 2q-2 1 -3.5 1.5t-2.5 1.5t-1 2h-1v1q-1 0 -3 1q-40 0 -80 -1h-100h-34t-28 -3q-25 -5 -47 -5h-29q-7 -14 -17 -26q-15 -15 -23 -38q-2 -8 -7.5 -23.5t-11.5 -30
t-9 -19.5q-5 -1 -12 -1h-12q-8 0 -12 0.5t-4.5 2t-0.5 4.5t-3 9q-2 4 -4 7q-3 3 -5 6.5t-2 9.5v4q0 5 0.5 9t1.5 8q3 7 4 21q1 7 1 13q0 5 -1 9v22q-3 44 -9 87q0 2 -1 5q-1 9 -2 19v7q0 6 1 10q6 18 6 34v5z" />
    <glyph glyph-name="braceleft" unicode="{" horiz-adv-x="598" 
d="M40 682q-3 4 -7 8q-18 17 -29 37q-4 8 -4 15q0 12 10 23q3 2 5.5 5t4.5 5q10 10 22 20q9 8 16 17q2 2 5 4q1 2 2 3q10 9 17 20q7 13 8 28q0 3 1 5q1 12 3 23q0 7 1 14q1 9 1 17q0 33 -9 70q-7 33 -8 61v6t1 3v10q0 10 -1 19v5q-1 18 -1 36q0 6 -1 12q-1 20 -1 37
q0 18 1.5 40t12.5 64q20 81 68 141q3 4 5 7l3.5 3.5l2 2t2.5 1.5q2 2 8 7q77 64 186 64h15q14 0 27.5 -1t33.5 -7q43 -9 60 -9h3q6 0 10 -1v-91q-9 -2 -16 -5q-4 -1 -9 -3q-8 -2 -18 -3q-6 0 -11 -1l-52 -14q-15 -5 -31 -10q-10 -2 -19 -5q-26 -8 -42 -24q-9 -8 -11 -15
q-1 -5 -1 -9v-9q0 -8 -3 -18q-2 -8 -2 -12t1 -8q1 -3 3 -7v-5q0 -8 -2 -16q-1 -4 -1 -8q-1 -5 -1 -9t1 -7q1 -6 1 -14q-2 -15 -2 -31l-1 -43l1 -44v-77q0 -9 2 -15t2 -14q1 -14 1 -22t-1.5 -14t-4.5 -15q-1 -3 -3 -6q-2 -8 -5 -17q-13 -44 -32.5 -85.5t-55.5 -66.5
q-11 -7 -16.5 -10t-11.5 -5q-5 -2 -15 -7q42 -23 65 -63q14 -27 21 -47t12 -49q3 -13 6 -25q4 -14 6 -28q2 -9 5 -22q4 -23 8.5 -47.5t4.5 -40.5v-3.5t-1 -3.5v-7q2 -52 8 -104l4 -28q1 -13 2 -24q0 -26 11 -60l4 -12q3 -5 5 -11q13 -34 47 -49q19 -8 41 -12q5 -1 9 -3
q15 -3 29 -9q9 -4 19 -7q25 -9 53 -11v-4q0 -5 -1 -17t-3.5 -30t-3.5 -31q-1 -7 -2 -10q-8 -1 -15 -3q-10 -2 -21 -3h-10q-15 0 -29 -2q-3 -1 -6 -1q-32 -7 -68 -7q-33 3 -66.5 15.5t-55.5 27.5q-31 20 -55 44l-3 3q-2 2 -5 4q-3 3 -6 5l-12 12q-4 5 -8 9q-11 11 -16 19
t-9 18q-2 6 -6 14q-5 8 -10 14q-3 5 -7 11q-12 22 -13 40q-2 11 -5 24q-2 6 -3 8.5t-2 3.5q0 1 -0.5 2t-0.5 2.5t-0.5 5.5t-1.5 11q-7 70 -7 141v27q1 7 1 14t-0.5 18.5t-2.5 17.5q-3 6 -4 15t-1 17v8q0 6 2 13q7 16 7 55v19q0 4 0.5 9.5t1.5 11t2 7.5v1q1 0 1 1v6
q-1 5 -8 15.5t-15 21t-11 13.5z" />
    <glyph glyph-name="bar" unicode="|" horiz-adv-x="316" 
d="M21 1499q24 -6 79 -6h137v-73q-5 -15 -6 -39q-1 -15 -1 -28v-13q0 -17 2 -29.5t5 -24.5q2 -10 4 -22q3 -17 3 -38.5v-40.5q-1 -4 -1 -7q-1 -22 -4 -41q-3 -18 -5 -38q0 -10 -2 -21q-1 -9 -1 -17q-1 -14 -1.5 -40t-0.5 -52v-52q0 -14 -1 -22.5t-5 -23.5q-1 -4 -2 -46.5
t-1.5 -99.5t-1.5 -107q-1 -54 -1 -70v-16t0.5 -7.5t0.5 -3.5q1 -2 1.5 -5l1.5 -9q1 -19 0.5 -85t-1.5 -132t-2 -85q-1 -8 -2 -12.5t-2 -6.5q-1 -3 -1.5 -6.5t-0.5 -12.5q-1 -7 -1 -18v-3q0 -18 12 -47q-12 -8 -12 -17v-1q3 -2 12 -76h-31q-44 1 -98.5 0.5t-77.5 -6.5h-1
q-8 0 -8 29q0 3 0.5 24t9.5 24q0 22 -2 44q-1 20 -1 40v27q0 29 1 69q1 50 1 96t-2 69v5q-7 53 -7 106q0 28 2 57q2 11 3 17.5t2.5 9.5t2.5 4t2 1t1.5 1t1 3t1 5.5t0.5 10.5l1 110q0 93 2 186q1 82 1 163q0 26 -4 49q-3 14 -4 30q-1 11 -1 38v26v33.5t3 30.5q2 8 4 13
q2 4 3.5 9t1.5 14v17q0 13 -2 26q-4 16 -8 34v2z" />
    <glyph glyph-name="braceright" unicode="}" horiz-adv-x="598" 
d="M478 682q-3 -3 -11 -13.5t-15 -21t-8 -15.5v-6q0 -1 1 -1v-1q1 -2 2 -7.5t1.5 -11t0.5 -9.5v-19q0 -39 7 -55q2 -7 2 -13v-8q0 -8 -1 -17t-4 -15q-2 -6 -2 -21v-56q0 -71 -7 -141q-1 -7 -1.5 -11t-0.5 -5.5t-0.5 -2.5t-0.5 -2q-1 -1 -2 -3.5t-3 -8.5q-3 -13 -5 -24
q-1 -18 -13 -40q-4 -6 -7 -11q-5 -6 -10 -14q-4 -8 -6 -14q-4 -10 -9 -18t-16 -19q-4 -4 -8 -9l-12 -12q-3 -2 -6 -5q-3 -2 -5 -4l-3 -3q-24 -24 -55 -44q-22 -15 -55.5 -27.5t-66.5 -15.5q-36 0 -68 7q-3 0 -6 1q-14 2 -29 2h-10q-11 1 -21 3q-7 2 -15 3q-1 3 -2 10
q-1 13 -3.5 31t-3.5 30t-1 17v4q28 2 53 11q10 3 19 7q14 6 29 9q4 2 9 3q22 4 41 12q34 15 47 49q2 6 5 11l4 12q11 34 11 60q1 11 2 24l4 28q6 52 8 104v7q-1 2 -1 3.5v3.5q0 16 4.5 40.5t8.5 47.5q3 13 5 22q2 14 6 28q3 12 6 25q5 29 12 49t21 47q23 40 65 63
q-10 5 -15 7q-6 2 -11.5 5t-16.5 10q-36 25 -55.5 66.5t-32.5 85.5q-3 9 -5 17q-2 3 -3 6q-3 9 -4.5 15t-1.5 14t1 22q0 8 2 14t2 15v77l1 44l-1 43q0 16 -2 31q0 8 1 14q1 3 1 7t-1 9q0 4 -1 8q-2 8 -2 16v5q2 4 3 7q1 4 1 8t-2 12q-3 10 -3 18v9q0 4 -1 9q-2 7 -11 15
q-16 16 -42 24q-9 3 -19 5q-16 5 -31 10l-52 14q-5 1 -11 1q-10 1 -18 3q-5 2 -9 3q-7 3 -16 5v91q4 1 10 1h3q17 0 60 9q20 6 33.5 7t27.5 1h15q109 0 186 -64q6 -5 8 -7q2 -1 2.5 -1.5l2 -2l3.5 -3.5q2 -3 5 -7q48 -60 68 -141q11 -42 12.5 -64t1.5 -40q0 -17 -1 -37
q-1 -6 -1 -12q0 -18 -1 -36v-5q-1 -9 -1 -19v-10q1 -1 1 -3v-6q-1 -28 -8 -61q-9 -37 -9 -70q0 -8 1 -17q1 -7 1 -14q2 -11 3 -23q1 -2 1 -5q1 -15 8 -28q7 -11 17 -20q1 -1 2 -3q3 -2 5 -4q7 -9 16 -17q12 -10 22 -20q2 -2 4.5 -5t5.5 -5q10 -11 10 -23q0 -7 -4 -15
q-11 -20 -29 -37q-4 -4 -7 -8z" />
    <glyph glyph-name="asciitilde" unicode="~" horiz-adv-x="659" 
d="M161 797q7 0 15.5 2.5t14.5 5.5q8 3 11 4q2 2 4 2.5t5 1t8 1.5q2 0 9 3t16 7.5t16.5 8t10.5 4.5q25 12 54 21q15 5 29 8l12 2q2 0 4 1q5 0 8 1q2 2 7 3q8 1 17 1q8 0 21.5 -1.5t28.5 -5.5q28 -8 50 -24q14 -8 20.5 -13.5t9.5 -9t4 -6.5q1 -2 2 -3.5t3 -3.5q6 -5 11 -10
q4 -4 8 -7q1 -1 3 -2q2 -3 6 -6t7 -6t3 -5l-80 -86q-2 2 -3.5 3t-3.5 3l-2 2l-6 6t-3 2.5l-3 1.5t-7 4q-8 6 -17 14q-14 14 -28 22q-8 3 -11 3q-4 0 -7 -2q-3 -1 -8 -2q-11 -2 -18 -3h-5h-6t-4.5 0.5t-2.5 1.5t-2.5 1t-4.5 -0.5t-8 -2.5q-36 -14 -65 -29q-36 -19 -73 -31
q-26 -8 -60 -8q-13 0 -26 1q-52 6 -82 48q-4 5 -5 8v5q0 2 -1 4.5t-4 6.5l-1 1l-3 4.5t-2 2t-1.5 1l-1.5 1.5q-1 0 -3 1l-6 3q-7 5 -12 12q-3 4 -3 8t2 8q2 2 15 10t29.5 18.5t30.5 18.5q13 8 17 11q1 0 3 2q4 3 9 5h2q4 0 7 -4l4 -8q4 -8 9.5 -17.5t11.5 -13.5q1 0 3 -1
t4 -1q4 -1 7 -2t4 -2l1.5 -1.5t0.5 -1.5v-1.5t1 -0.5z" />
    </font>
</defs>
</svg>
