<?xml version="1.0" standalone="no"?>
<!DOCTYPE svg PUBLIC "-//W3C//DTD SVG 1.1//EN" "http://www.w3.org/Graphics/SVG/1.1/DTD/svg11.dtd" >
<svg xmlns="http://www.w3.org/2000/svg" xmlns:xlink="http://www.w3.org/1999/xlink" version="1.1">
<metadata>
Created by FontForge 20170731 at Sun Sep  5 11:54:40 2021
 By Aleksey,,,
Copyright 2017 Adobe Systems Incorporated. All rights reserved.
</metadata>
<defs>
<font id="AscardiSans" horiz-adv-x="1705" >
  <font-face 
    font-family="Ascardi Sans"
    font-weight="400"
    font-stretch="normal"
    units-per-em="2048"
    panose-1="0 0 0 0 0 0 0 0 0 0"
    ascent="1536"
    descent="-512"
    x-height="1079"
    cap-height="1079"
    bbox="-1038 -657 5085 1651"
    underline-thickness="102"
    underline-position="-307"
    unicode-range="U+000D-FB02"
  />
<missing-glyph horiz-adv-x="811" 
 />
    <glyph glyph-name=".notdef" horiz-adv-x="811" 
 />
    <glyph glyph-name=".null" horiz-adv-x="0" 
 />
    <glyph glyph-name="nonmarkingreturn" horiz-adv-x="682" 
 />
    <glyph glyph-name="NULL" horiz-adv-x="0" 
 />
    <glyph glyph-name="NULL" horiz-adv-x="0" 
 />
    <glyph glyph-name="CR" unicode="&#xd;" horiz-adv-x="811" 
 />
    <glyph glyph-name="space" unicode=" " horiz-adv-x="512" 
 />
    <glyph glyph-name="exclam" unicode="!" horiz-adv-x="1021" 
d="M1001 1174v-9q-21 -26 -32 -75l-117 -488v-57q0 -39 10 -72q5 -23 13.5 -43.5t15 -30t10.5 -10.5h-782q3 0 10.5 9.5t16 30t14.5 44.5q10 33 10 72v57l-117 488q-10 48 -33 75v9h981zM782 295q27 -3 44.5 -15t25 -34.5t10 -44.5t2.5 -56t-2.5 -55.5t-10 -44t-25 -34.5
t-44.5 -15h-542q-27 3 -44.5 15t-25 34.5t-10 44t-2.5 55.5t2.5 56t10 44.5t25 34.5t44.5 15h542z" />
    <glyph glyph-name="quotedbl" unicode="&#x22;" 
 />
    <glyph glyph-name="numbersign" unicode="#" horiz-adv-x="1355" 
d="M1165 1079l-86 -233h256l-35 -92l-34 -95h-254l-90 -243h252l-35 -94l-35 -93h-250l-84 -233h-186l84 233h-207l-84 -233h-187l84 233h-254l35 93l35 94h252l90 243h-250l35 95l35 92h248l86 233h186l-86 -233h207l86 233h186zM618 659l-90 -243h207l90 243h-207z" />
    <glyph glyph-name="dollar" unicode="$" 
d="M1292 616q142 -52 211.5 -146.5t69.5 -213.5q0 -110 -85 -183t-196 -73h-217v-98h-198v98h-201v-98h-199v98h-500q1 27 12.5 47.5t26.5 29.5t30 14.5t26 6.5h10h395v285l-41 14l-35 15l-141 51q-143 52 -213 146t-70 214q0 110 85.5 183t197.5 73h217v99h199v-99h201v99
h198v-99h395q4 0 11 -0.5t24.5 -6t31 -14.5t24.5 -29.5t12 -47.5h-498v-285l41 -16l35 -12zM877 981h-54q-148 0 -167 -60q-12 -38 31 -75q19 -16 42 -25l141 -51l7 -2v213zM676 98h53q149 0 167 60q11 38 -33 75q-18 15 -40 23l-141 51l-6 2v-211z" />
    <glyph glyph-name="percent" unicode="%" horiz-adv-x="1523" 
d="M1368 489q36 -3 62 -17.5t40 -35t21.5 -54t9.5 -63t2 -73.5q0 -57 -4 -93t-16.5 -73t-41 -56.5t-73.5 -23.5h-625q-36 3 -61.5 18t-39.5 35t-21.5 54.5t-9 63.5t-1.5 75q0 83 11 137l-601 -383v133l713 457h-579q-36 3 -61.5 18t-39.5 35t-21.5 54t-9.5 63t-2 74
q0 37 1.5 62.5t5.5 55.5t13 49.5t23.5 37.5t37.5 28t53 12h626q45 -4 73 -23t40.5 -56.5t16 -72.5t3.5 -93q0 -87 -10 -136l598 381v-133l-713 -457h580zM1057 45q26 0 43.5 11t26.5 26t13.5 45.5t5.5 53.5t1 65v46.5t-2 41t-5 38.5t-9.5 30t-16 24.5t-24 13.5t-33.5 6
q-21 0 -37 -6t-25 -21t-15 -28.5t-8 -40.5t-2.5 -44.5t-0.5 -52.5v-7q0 -37 0.5 -55t2.5 -46.5t8 -42.5t15 -29.5t25 -21.5t37 -6zM467 633q21 0 37 6.5t25.5 21.5t15.5 30t8.5 42t3 46.5t0.5 54.5q0 37 -0.5 55t-3 46.5t-8 42t-15 29t-25.5 21.5t-38 6t-37.5 -6
t-24.5 -20.5t-15 -28t-8 -40.5t-2.5 -44.5t-0.5 -53.5v-7q0 -36 0.5 -54t2.5 -46.5t8 -42.5t15 -29.5t25 -22t37 -6.5z" />
    <glyph glyph-name="ampersand" unicode="&#x26;" horiz-adv-x="1890" 
d="M1747 2h115q-3 -177 -97 -258q-97 -72 -211 -78v-2h-415v2q-6 -2 -15 -2q-155 0 -301 121q-68 -27 -155 -70q-127 -51 -226 -51q-129 0 -235 70q-80 59 -126 147.5t-46 196.5q0 72 21.5 134t60 107t82 77t96.5 57l-8 12q-105 172 -105 297q0 147 92 233q102 86 263 86
h403q152 0 238 -67q86 -76 86 -185q0 -100 -53.5 -176.5t-163.5 -142.5l184 -244q30 23 41 47q4 4 9 11t15.5 26t14 35t-5 32t-33.5 23h334q-20 -15 -39 -32.5t-30 -30t-29 -33.5t-27 -31l-30 -40t-31.5 -41.5t-27 -34t-30.5 -36.5t-29 -30l70 -94q88 -112 131 -141
q53 -43 92 -43q106 0 121 149zM600 -135q37 19 107 47l-9 4l-309 403q-79 -30 -133.5 -89t-54.5 -154q0 -145 100 -205q53 -39 132.5 -40.5t166.5 34.5zM950 961q-38 0 -80 -25q-36 -29 -36 -82q0 -86 106 -211q85 63 107 86q36 40 36 82q0 77 -43 109q-30 41 -90 41z" />
    <glyph glyph-name="quotesingle" unicode="'" horiz-adv-x="356" 
d="M221 1087v-2q32 -3 41.5 -26t9.5 -68q0 -27 -2 -39q0 -6 -2 -8q-3 -19 -12 -31q-6 -10 -16 -16q-4 -4 -7 -4q-1 -1 -13.5 -12t-18.5 -19q-17 -31 -17 -65v-35q0 -4 -0.5 -10.5t-6 -23.5t-14.5 -30t-29.5 -24t-47.5 -12v329q0 30 2 46.5t14 31t35 16.5v2h84z" />
    <glyph glyph-name="parenleft" unicode="(" horiz-adv-x="866" 
d="M551 870v-659q0 -52 1 -88.5t6 -81t13 -74.5t23 -60.5t36 -48t52 -29t70 -11.5h90q4 0 10.5 -0.5t23.5 -6t30.5 -15t25 -30t12.5 -47.5h-629v2q-55 5 -98 21.5t-73.5 40t-53 59.5t-35.5 73.5t-21 89t-11 98.5t-3 108v659q1 86 6.5 148.5t24 126.5t49.5 105.5t85.5 71
t129.5 36.5v2h633q-1 -27 -12 -47.5t-26 -29.5t-29.5 -14.5t-24.5 -6.5h-10h-94q-40 -1 -71 -12.5t-52 -29.5t-36 -48.5t-23 -60t-12.5 -74t-5.5 -80t-1 -87.5z" />
    <glyph glyph-name="parenright" unicode=")" horiz-adv-x="866" 
d="M313 207v659q0 52 -1 88.5t-5.5 81.5t-12.5 75t-23 61t-35.5 49t-51 29.5t-69.5 11.5h-92q-4 0 -10.5 0.5t-24 6t-30.5 14.5t-24 29.5t-12 47.5h629v-2q64 -6 112 -26t79.5 -55.5t52 -75.5t31 -98t15 -111t5.5 -126v-659q-1 -72 -5.5 -125t-15.5 -110t-31.5 -97
t-52 -74.5t-79.5 -54t-111 -25.5v-2h-633q1 27 12 47.5t25.5 30t28.5 15t24 6.5h10h97q39 0 70 11.5t51.5 29t35 48t22.5 59.5t12.5 73.5t5.5 79.5t1 88z" />
    <glyph glyph-name="asterisk" unicode="*" horiz-adv-x="628" 
d="M20 844h168l-116 117l34 32l35 35l115 -115v166h98v-168l119 119l70 -69l-117 -117h164v-99h-166l119 -118l-33 -35l-35 -35l-121 121v-168h-98v162l-115 -115l-69 70l116 118h-168v99z" />
    <glyph glyph-name="plus" unicode="+" horiz-adv-x="1126" 
d="M20 631h449v448h188v-448h447v-187h-447v-448h-188v448h-449v187z" />
    <glyph glyph-name="comma" unicode="," horiz-adv-x="372" 
d="M41 82l311 129q-20 -18 -30 -57q-9 -36 -23.5 -72.5t-46 -85t-74 -90.5t-110.5 -83.5t-152 -68.5q6 8 15.5 22.5t33 56.5t41 81t29 86.5t6.5 81.5z" />
    <glyph glyph-name="hyphen" unicode="-" horiz-adv-x="1124" 
d="M20 631h1084v-187h-1084v187z" />
    <glyph glyph-name="period" unicode="." horiz-adv-x="333" 
d="M231 297q27 -3 44.5 -15t25 -34.5t10 -44.5t2.5 -56t-2.5 -55.5t-10 -44t-25 -34.5t-44.5 -15h-129q-27 3 -44.5 15t-25 34.5t-10 44t-2.5 55.5t2.5 56t10 44.5t25 34.5t44.5 15h129z" />
    <glyph glyph-name="slash" unicode="/" horiz-adv-x="645" 
d="M553 1362h186l-532 -1647h-187z" />
    <glyph glyph-name="zero" unicode="0" horiz-adv-x="1746" 
d="M1407 1077q49 -4 89.5 -16t71 -29t54.5 -43t40.5 -53t28.5 -65t18.5 -72t10.5 -81t5 -86.5t1 -92.5t-1 -92t-5 -86t-10.5 -81t-18.5 -72t-28.5 -65t-40.5 -53t-54.5 -43t-71 -29t-89.5 -16v-2h-1067v2q-49 4 -89.5 16t-71.5 29t-55 43t-40.5 53t-28.5 65t-18.5 72
t-10.5 81t-5 86t-1 92q0 70 2 118.5t9.5 107t20.5 98t36.5 80.5t57 66.5t82.5 44t112 23.5v2h1067v-2zM872 98q44 0 78.5 12.5t57 31.5t38.5 54t24.5 66.5t13 83.5t5.5 91t1 102q0 80 -1 120t-7 102t-20 93t-37 65t-61.5 48t-91.5 14q-51 0 -88 -12.5t-59 -45t-35 -60.5
t-18.5 -87t-6.5 -95.5t-1 -113.5v-28v-3q0 -80 1 -119t6.5 -101t18.5 -92t35.5 -64.5t59 -48t87.5 -13.5z" />
    <glyph glyph-name="one" unicode="1" horiz-adv-x="1196" 
d="M1135 115q5 -32 13.5 -59.5t15 -40.5t10.5 -15h-889q3 1 10.5 14.5t16 41t14.5 59.5q4 19 8 57v473l-314 -106q0 5 0.5 14.5t6.5 34.5t15.5 46t30.5 43t50 32q45 17 98 35.5t83 27.5l30 10l840 295q-4 -4 -10.5 -16.5t-15 -39.5t-13.5 -58l-7 -39q-4 -36 -4 -62v-645
q0 -45 11 -102zM1176 1079l-2 -2z" />
    <glyph glyph-name="two" unicode="2" horiz-adv-x="1316" 
d="M1169 98q4 0 10.5 -0.5t24 -6t31 -14.5t25 -29.5t12.5 -47.5h-1252v256q0 120 47.5 214t143.5 146l94 52l25 14l71 37l95 51l96 51q23 13 36.5 39t13 53t-29.5 47.5t-84 20.5h-508q1 27 12 47.5t25.5 29.5t29 14.5t24.5 5.5l10 1h985q75 0 132.5 -73t57.5 -183
q0 -120 -47.5 -214t-142.5 -146l-96 -51l-25 -15l-70 -37l-96 -51l-94 -53q-22 -11 -36.5 -34t-14.5 -48v-76h495z" />
    <glyph glyph-name="three" unicode="3" horiz-adv-x="1540" 
d="M1225 588q122 0 208.5 -86t86.5 -207q0 -123 -86.5 -209t-208.5 -86h-1202q1 27 12 47.5t26 29.5t29.5 14.5t24.5 6.5h10h541q82 0 139 57.5t57 139.5t-57 138t-139 56h-152v99h102q82 0 139.5 57t57.5 139t-57.5 139.5t-139.5 57.5h-596q1 27 11.5 47.5t25 29.5
t29.5 14.5t25 5.5l10 1h1079q101 0 173.5 -72t72.5 -173q0 -99 -69.5 -171t-166.5 -75h15z" />
    <glyph glyph-name="four" unicode="4" horiz-adv-x="1619" 
d="M1452 197h147q0 -4 -0.5 -10.5t-6 -24t-14.5 -30.5t-29.5 -23.5t-47.5 -10.5h-39q6 -27 13.5 -50.5t14 -35t9.5 -12.5h-891q3 1 9.5 12.5t14.5 35t15 50.5h-618v99h-9q4 1 18 11.5t40 33t51 49.5q6 6 13 14t15 18t13 15l428 600l27 47q1 4 6 15.5t6 17.5q-19 58 -29 61
h891q-3 -1 -10 -14t-16 -41t-15 -61q-6 -48 -6 -56v-710zM295 291q-13 -26 -20.5 -48.5t-8.5 -33.5t0 -12h393v618l-270 -379l-45 -63q-35 -47 -49 -82z" />
    <glyph glyph-name="five" unicode="5" horiz-adv-x="1617" 
d="M1341 686q109 0 182.5 -93t73.5 -249q0 -29 -4.5 -62t-14.5 -73t-30 -76t-46.5 -66.5t-68.5 -48.5t-92 -18h-1321q0 27 10 47.5t24.5 30t29.5 15t25 6.5l10 1h649q70 0 120 73t50 171t-50 171t-120 73h-748q3 1 10.5 15t16 42t14.5 60q5 22 9 57v145q-3 33 -9 56
q-5 32 -14.5 59.5t-16 41t-10.5 15.5h1416q4 0 10.5 -0.5t23.5 -6t30.5 -14.5t25 -29.5t12.5 -47.5h-823l-4 -18q-9 -43 -9 -101v-57q0 -57 9 -100l4 -19h626z" />
    <glyph glyph-name="six" unicode="6" horiz-adv-x="1468" 
d="M1233 782q42 -3 75 -16t55.5 -31.5t38.5 -48.5t25 -58.5t13.5 -71t6 -77.5t1.5 -86q0 -60 -2 -100t-9 -87.5t-21.5 -79t-37.5 -60t-59.5 -44.5t-85.5 -20v-2h-1000v2q-58 5 -98.5 29t-62.5 56t-34 86t-15 101t-3 119v490q0 73 61.5 134.5t135.5 61.5h1178
q0 -4 -0.5 -10.5t-6 -23.5t-15 -30t-30 -23.5t-47.5 -10.5h-589q-27 0 -47.5 -10t-30 -24.5t-15 -29t-6.5 -24.5v-10v-99h625v-2zM750 72q32 0 55 8.5t36.5 31.5t22 41t11.5 60.5t3.5 65.5t0.5 80v34v58.5t-1.5 53.5t-4 51t-7.5 43.5t-12.5 39.5t-18.5 30.5t-25 24.5
t-33.5 13.5t-43.5 5.5h-125v-224h2q-2 -16 -2 -55v-41v-58.5t1.5 -54t4 -51.5t7.5 -43.5t12 -39.5t17.5 -30.5t24.5 -24.5t33 -13.5t42 -5.5z" />
    <glyph glyph-name="seven" unicode="7" horiz-adv-x="1470" 
d="M1448 1079q-5 -2 -18.5 -15.5t-37.5 -41t-46 -59.5q-40 -58 -62 -101l-41 -78l-260 -489l-41 -78q-33 -64 -45 -102q-11 -32 -17 -60t-5 -39t2 -16h-857q4 1 17.5 14.5t38 41t47.5 59.5l37 57l389 735q4 8 22 56l7 18h-558q1 27 11.5 47.5t25 29.5t29.5 14.5t25 5.5l10 1
h1327z" />
    <glyph glyph-name="eight" unicode="8" horiz-adv-x="1732" 
d="M1419 588q121 0 207 -86t86 -207q0 -123 -85.5 -209t-207.5 -86h-1104q-123 0 -209 86t-86 209q0 122 86 207.5t209 85.5h15q-99 3 -167.5 74.5t-68.5 171.5q0 102 72 173.5t174 71.5h1055q101 0 172 -72t71 -173q0 -100 -68 -171.5t-165 -74.5h14zM913 98
q82 0 139.5 57.5t57.5 139.5q0 81 -57.5 137.5t-139.5 56.5h-108q-82 0 -139.5 -56.5t-57.5 -137.5q0 -82 57.5 -139.5t139.5 -57.5h108zM854 981q-82 0 -139.5 -57.5t-57.5 -139.5t57.5 -139t139.5 -57h10q82 0 139.5 57t57.5 139t-57.5 139.5t-139.5 57.5h-10z" />
    <glyph glyph-name="nine" unicode="9" horiz-adv-x="1468" 
d="M1233 1077q49 -4 85.5 -20t59.5 -44.5t37.5 -60t21.5 -79t9 -87.5t2 -100v-489q0 -73 -62 -135t-135 -62h-1177q0 4 0.5 10.5t6 23.5t14.5 30t29.5 23.5t47.5 10.5h588q27 0 47.5 10t29.5 25t14.5 29.5t6.5 24.5v10v98h-625q-58 5 -98.5 29t-62.5 56t-34 86t-15 101
t-3 119t3 119t15 101t34 86t62.5 56t98.5 29v2h1000v-2zM733 367h125v319v58.5t-1.5 53.5t-4 51.5t-7 43.5t-11.5 40t-17.5 30.5t-24 24.5t-32 14t-41.5 6q-32 0 -55.5 -8.5t-37.5 -32t-22 -41.5t-11.5 -61t-4 -66.5t-0.5 -79.5v-33v-58.5t1.5 -53t4 -51t7.5 -43.5t12 -39.5
t18 -30t25.5 -24.5t33.5 -13.5t43 -5.5z" />
    <glyph glyph-name="colon" unicode=":" horiz-adv-x="456" 
d="M293 299q27 -3 44.5 -15t25 -34.5t10 -44t2.5 -55.5t-2.5 -56t-10 -44.5t-25 -34.5t-44.5 -15h-129q-27 3 -44.5 15t-25 34.5t-10 44.5t-2.5 56t2.5 55.5t10 44t25 34.5t44.5 15h129zM293 815q27 -3 44.5 -15t25 -34.5t10 -44t2.5 -55.5t-2.5 -56t-10 -44.5t-25 -34.5
t-44.5 -15h-129q-27 3 -44.5 15t-25 34.5t-10 44.5t-2.5 56t2.5 55.5t10 44t25 34.5t44.5 15h129z" />
    <glyph glyph-name="semicolon" unicode=";" horiz-adv-x="477" 
d="M74 82q8 -55 -23.5 -137t-66.5 -137l-35 -54q84 27 152 68.5t110 83.5t73.5 90.5t46 85t23.5 72.5q4 17 12 31.5t14 20.5l5 5zM299 815q27 -3 44.5 -15t25 -34.5t10 -44t2.5 -55.5t-2.5 -56t-10 -44.5t-25 -34.5t-44.5 -15h-129q-27 3 -44.5 15t-25 34.5t-10 44.5
t-2.5 56t2.5 55.5t10 44t25 34.5t44.5 15h129z" />
    <glyph glyph-name="less" unicode="&#x3c;" horiz-adv-x="622" 
d="M602 1079l-395 -540l395 -539h-186l-396 539l396 540h186z" />
    <glyph glyph-name="equal" unicode="=" horiz-adv-x="1124" 
d="M20 432h1084v-186h-1084v186zM20 834h1084v-187h-1084v187z" />
    <glyph glyph-name="greater" unicode="&#x3e;" horiz-adv-x="622" 
d="M207 1079l395 -540l-395 -539h-187l396 539l-396 540h187z" />
    <glyph glyph-name="question" unicode="?" horiz-adv-x="1464" 
d="M1235 1178q83 0 146 -73t63 -183q0 -28 -3.5 -51t-8 -39.5t-17.5 -32t-20.5 -24.5t-30.5 -22t-34.5 -19t-44.5 -21.5t-50 -24.5l-102 -51l-27 -12l-180 -90q-1 -3 -105 -52q-72 -37 -94 -88h-702q8 106 59 190t147 132l103 51l26 12l181 90l104 52q20 10 35 29t18.5 40.5
t-4.5 41.5t-39 33t-80 13h-555q1 27 9 47.5t19 30t22 15t18 6.5h8h1139zM643 301q27 -3 44.5 -15t25 -34.5t10 -44t2.5 -55.5t-2.5 -56t-10 -44.5t-25 -34t-44.5 -13.5v-2h-541v2q-23 2 -38.5 11t-24 21t-13 32.5t-5.5 38t-1 45.5t1 45t5.5 38t13 33t24 21.5t38.5 11.5h541z
" />
    <glyph glyph-name="at" unicode="@" horiz-adv-x="2004" 
d="M1972 774q13 -91 13 -233v-64q-3 -72 -9 -133q0 -17 -4 -45q-21 -133 -84.5 -208.5t-197.5 -88.5v-2h-1375v2q-58 5 -103 23.5t-76 44t-53 66.5t-34 81t-18.5 98.5t-8.5 107t-2 118.5q0 69 2 117.5t8.5 106.5t18.5 97.5t34 80.5t53 66.5t76 44t103 23.5v2h1649
q-1 -41 -22.5 -63.5t-49.5 -30.5l-30 -4h-1518l-20 -2q-69 -6 -113 -35q-34 -27 -55 -76q-24 -56 -30.5 -134t-6.5 -193q0 -116 6.5 -194.5t30.5 -133.5q21 -52 55 -76q42 -31 113 -37l22 -2h1313l22 2q68 6 113 37q34 24 55 76q18 44 23 86l6 45q6 46 6 96q2 33 2 101
q0 53 -4 151q-1 21 -18.5 30t-55.5 9h-170v-332q0 -14 2 -22q0 -15 2 -21q8 -30 11 -37l8 -14h-385q4 6 8 14l10 37q4 28 4 43v332h-213q-1 0 -8 2t-12 4q-8 4 -14 13q-7 10 -7 24h928zM823 305q9 5 11 10v23q-3 15 -13 45l-4 8h-278q-12 -29 -15 -49v-25q2 -9 8 -12h-344
q6 3 17 14l18 35q16 28 29 66v2l127 352h620v-29q0 -5 5 -30q0 -11 8 -39l98 -268q12 -37 25 -60l18 -29q8 -11 14 -14h-344zM555 434h248l-94 256q-7 17 -13 23q-2 6 -8 12t-10 6q-5 0 -8 -6q-4 -2 -11 -12q-5 -5 -12 -23z" />
    <glyph glyph-name="A" unicode="A" horiz-adv-x="2299" 
d="M829 197q-19 -50 -27.5 -88.5t-9 -57.5t4.5 -31.5t9 -15.5t9 -4h-792q3 0 8.5 3.5t19 19.5t29 41.5t38.5 76.5t48 119q0 1 1 3t1 3l295 813h1429q-2 -12 -3.5 -33t5.5 -80t27 -112l223 -618q21 -58 41.5 -103.5t34.5 -69t27 -39t19.5 -19.5t10.5 -5h-788q7 0 14.5 8
t4.5 52.5t-29 117.5l-6 19h-644zM866 295h570l-213 590q-17 41 -35 65t-28 28l-9 3q-4 0 -10.5 -3.5t-25.5 -27.5t-36 -65z" />
    <glyph glyph-name="B" unicode="B" horiz-adv-x="1959" 
d="M1645 588q122 0 208 -86t86 -207q0 -123 -86 -209t-208 -86h-1625q3 1 10.5 14.5t16 41t14.5 59.5q11 57 11 102v645q0 48 -11 101q-5 32 -14.5 59.5t-16 41t-10.5 15.5h1600q101 0 173.5 -72t72.5 -173q0 -99 -69.5 -171t-166.5 -75h15zM1153 98q82 0 139.5 57.5
t57.5 139.5t-57.5 139.5t-139.5 57.5h-297v-394h297zM856 981v-393h248q82 0 139 57t57 139t-57 139.5t-139 57.5h-248z" />
    <glyph glyph-name="C" unicode="C" horiz-adv-x="1806" 
d="M1006 981q-30 0 -54.5 -5.5t-43.5 -18.5t-34 -26t-25.5 -37.5t-18.5 -42.5t-12.5 -51.5t-7 -54.5t-4 -61.5t-1.5 -62.5v-67v-13q0 -197 15 -273q30 -141 135 -165q23 -5 51 -5h680q4 0 10.5 -0.5t23.5 -6t30 -14.5t24 -29.5t12 -47.5h-1471v2q-58 5 -103 23.5t-76 44
t-53 66.5t-34 81t-18.5 98.5t-8.5 107t-2 118.5q0 69 2 117.5t8.5 106.5t18.5 97.5t34 80.5t53 66.5t76 44t103 23.5v2h1471q-1 -27 -11.5 -47.5t-25 -29.5t-29 -14.5t-24.5 -5.5l-10 -1h-680z" />
    <glyph glyph-name="D" unicode="D" horiz-adv-x="2156" 
d="M1620 1079q206 -19 347.5 -174t141.5 -366q0 -210 -141.5 -365t-347.5 -174h-1622q3 1 9.5 14t15.5 41t14 60q10 52 10 102v645q0 53 -10 101q-5 32 -14.5 60t-15.5 40.5t-9 15.5h1622zM1030 98q169 15 285.5 142.5t116.5 298.5q0 173 -116.5 300t-285.5 142h-199v-883
h199z" />
    <glyph glyph-name="E" unicode="E" horiz-adv-x="1767" 
d="M1739 0h-1716q26 43 38 115q11 57 11 102v645q0 46 -11 103q-5 32 -14 59.5t-16.5 40.5t-10.5 14h1727q-1 -27 -12 -47.5t-26 -29.5t-29.5 -14.5t-24.5 -5.5l-10 -1h-789v-393h492q8 0 20 -1.5t38.5 -13t39.5 -32.5q-13 -22 -37.5 -34t-42.5 -13l-18 -2h-492v-394h782
q4 0 10.5 -0.5t24 -6t30.5 -14.5t24 -29.5t12 -47.5z" />
    <glyph glyph-name="F" unicode="F" horiz-adv-x="1759" 
d="M1739 1079q-1 -27 -11.5 -47.5t-25 -29.5t-29.5 -14.5t-25 -5.5l-10 -1h-782v-393h492q8 0 20 -1.5t38.5 -13t39.5 -32.5q-13 -22 -37.5 -34t-42.5 -13l-18 -2h-492v-275q0 -50 10 -102q5 -32 13.5 -59.5t15 -40.5t10.5 -15h-885q3 1 10.5 14.5t16 41t14.5 59.5
q11 57 11 102v645q0 46 -11 103q-5 31 -14.5 58t-16 40.5t-10.5 15.5h1719z" />
    <glyph glyph-name="G" unicode="G" horiz-adv-x="2002" 
d="M2826 -586h121v-71h-971q-71 30 -135 71q-37 22 -61 39h-2v2q-30 20 -58 43t-57 54.5t-48.5 52t-50 63.5t-43.5 59.5t-46 69.5t-40 64t-43.5 72.5t-39.5 66.5h-1057q-58 5 -103 23.5t-76 44.5t-53 67t-34 81t-18.5 99t-8.5 107.5t-2 118.5q0 69 2 117.5t8.5 107t18.5 98
t34 81t53 67t76 44t103 23.5h1667q0 -27 -10 -47.5t-24.5 -29.5t-29 -14.5t-24.5 -5.5l-10 -1h-883q-44 0 -76 -12t-53 -37.5t-34 -55t-19.5 -75.5t-8.5 -86.5t-2 -100.5q3 0 7 4h974q97 -12 97 -98h-199q68 -45 131.5 -113t114 -142.5t100.5 -158.5t98.5 -165.5
t101.5 -159.5t115.5 -144t134 -116t164 -78.5t199.5 -28.5zM981 98h309q-49 79 -94 138.5t-102 118.5t-123 100.5t-140 64.5h-43q0 -61 1 -98.5t5 -87.5t11.5 -80t21.5 -63.5t34.5 -51t50.5 -29.5t69 -12z" />
    <glyph glyph-name="H" unicode="H" horiz-adv-x="2007" 
d="M1946 115q5 -32 13.5 -59.5t15 -40.5t10.5 -15h-885q3 1 10.5 14.5t16 41t14.5 59.5q10 52 10 102v275h-295v-275q0 -50 10 -102q5 -32 13.5 -59.5t15 -40.5t10.5 -15h-885q3 1 10.5 14.5t16 41t14.5 59.5q11 57 11 102v645q0 46 -11 103q-5 31 -14.5 58t-16 40.5
t-10.5 15.5h885q-3 -1 -9.5 -14t-15.5 -40.5t-14 -59.5q-10 -52 -10 -103v-274h295v274q0 51 -10 103q-5 31 -14.5 58t-16 40.5t-10.5 15.5h885q-3 -1 -9.5 -14t-15.5 -40.5t-14 -59.5q-11 -57 -11 -103v-645q0 -45 11 -102z" />
    <glyph glyph-name="I" unicode="I" horiz-adv-x="931" 
d="M870 115q5 -33 14.5 -61t17 -41t9.5 -13h-891q3 1 10.5 14.5t16 41t14.5 59.5q6 27 9 57v735q-3 32 -9 58q-5 31 -14.5 58t-16 40.5t-10.5 15.5h889q-3 -1 -9.5 -14t-15.5 -40.5t-14 -59.5q-8 -41 -8 -103v-645q0 -61 8 -102z" />
    <glyph glyph-name="J" unicode="J" horiz-adv-x="1366" 
d="M457 1079h886q-3 -1 -10 -14t-15.5 -40.5t-14.5 -59.5q-11 -57 -11 -103v-274q2 -17 0 -17v-182q0 -174 -133 -291q-112 -98 -258 -98h-881q0 4 0.5 10.5t6 23.5t15 30t30 23.5t47.5 10.5h98q109 0 191.5 71.5t99.5 178.5v514q0 51 -10 103q-5 31 -14.5 58t-16 40.5
t-10.5 15.5z" />
    <glyph glyph-name="K" unicode="K" horiz-adv-x="1912" 
d="M2836 -586h132v-71h-1041q-71 27 -145 71l-66 39q-2 0 -2 2q-97 62 -185.5 159t-158.5 200t-139 206.5t-154.5 203.5t-175.5 165v-172q0 -52 10 -100q5 -32 15 -60t17 -41.5t11 -15.5h-954q4 1 12 14.5t17.5 41.5t15.5 61q4 15 8 57v731q-4 43 -8 58q-6 32 -15.5 59.5
t-17.5 41t-12 15.5h954q-3 -1 -10.5 -14t-17 -41t-15.5 -61q-10 -48 -10 -101v-233q170 85 170 352v98h891q-22 -3 -34 -27.5t-14 -47.5l-1 -23l-4 -6q0 -27 -2 -39v-4q0 -2 -2 -4q0 -13 -2 -17v-4l-5 -18v-2q-4 -12 -4 -17l-2 -4q-4 -12 -4 -16l-2 -2l-6 -17v-2
q-4 -6 -8 -18q-93 -188 -371 -274q88 -36 166.5 -98.5t139 -136t119 -158.5t113 -169.5t113 -167t127.5 -153.5t148.5 -124.5t183.5 -84.5t225 -31z" />
    <glyph glyph-name="L" unicode="L" horiz-adv-x="1564" 
d="M1444 98q4 0 10.5 -0.5t23.5 -6t30 -14.5t24 -29.5t12 -47.5h-1524q3 1 10.5 14.5t16 41t14.5 59.5q6 27 9 57v735q-3 32 -9 58q-5 31 -14.5 58t-16 40.5t-10.5 15.5h889q-3 -1 -9.5 -14t-15.5 -40.5t-14 -59.5q-8 -41 -8 -103v-645q0 -61 8 -102q0 -5 4 -17h570z" />
    <glyph glyph-name="M" unicode="M" horiz-adv-x="2308" 
d="M1010 0h-359q0 4 0.5 14t-6.5 39.5t-20 61.5q-20 52 -50 100l-45 80l-286 489l-21 37v-649q0 -3 6 -57q6 -32 15 -59.5t16 -41t10 -14.5h-250q4 2 11.5 15.5t16 40t15.5 59.5q9 70 9 100v647q0 36 -9 101q-5 32 -14 59.5t-15.5 41t-10.5 15.5h888q-1 -5 -1 -16t7.5 -39.5
t20.5 -60.5l27 -56l188 -323l186 323q24 48 27 56q13 33 19.5 62t6.5 41l1 13h893q-4 -2 -10.5 -15.5t-16 -41t-14.5 -59.5l-7 -56v-735q0 -12 3.5 -33t3.5 -24q6 -33 15.5 -61t17 -41t10.5 -13h-893q4 2 10.5 15t16 40.5t14.5 59.5q10 52 10 100v616l-29 -47l-190 -327
l-94 -162l-48 -80q-36 -67 -49 -100q-13 -32 -20.5 -60.5t-7 -39.5t1.5 -15z" />
    <glyph glyph-name="N" unicode="N" horiz-adv-x="1734" 
d="M1714 0h-885q2 2 -1 16t-14.5 41.5t-29.5 59.5q-27 49 -65 100l-57 78l-365 491l-59 80q-7 7 -15 19v-713q0 -7 6 -55q6 -33 15 -61t16 -41.5t10 -14.5h-250q4 2 10.5 15.5t16 41.5t14.5 60q11 53 11 100v649q0 48 -11 101q-5 32 -14 59.5t-16.5 40.5t-10.5 14h887
q-2 -2 1.5 -15.5t15 -40t28.5 -58.5q14 -25 37 -58l527 -712v669q0 36 -9 101q-9 45 -22.5 76.5t-20.5 37.5h250q-4 -2 -10.5 -15.5t-16 -40.5t-14.5 -58l-6 -58v-737l6 -55q6 -33 15.5 -61t16 -41.5t9.5 -14.5z" />
    <glyph glyph-name="O" unicode="O" horiz-adv-x="2002" 
d="M1688 1079q58 -5 103 -23.5t76 -44t52.5 -67t33.5 -81t19 -98t8.5 -106.5t1.5 -118t-1.5 -118.5t-8.5 -107.5t-19 -98.5t-33.5 -81t-52.5 -67.5t-76 -44.5t-103 -23.5h-1373q-58 5 -103 23.5t-76 44.5t-53 67t-34 81t-18.5 99t-8.5 107.5t-2 118.5q0 69 2 117.5t8.5 107
t18.5 98t34 81t53 67t76 44t103 23.5h1373zM1001 98q41 0 72 12.5t52 31.5t36 53.5t23 67t12 84t5 91.5t1 103q0 80 -1 119t-6.5 101.5t-18 93t-34 65t-57 48t-84.5 13.5q-47 0 -81 -13t-54.5 -45t-32.5 -60.5t-17 -88t-6 -96t-1 -113.5v-24q0 -205 15 -280
q27 -132 122 -157q25 -6 55 -6z" />
    <glyph glyph-name="P" unicode="P" horiz-adv-x="1857" 
d="M1542 1079q123 0 209 -86t86 -209q0 -122 -86 -207t-209 -85h-686v-275q0 -50 10 -102q5 -32 13.5 -59.5t15 -40.5t10.5 -15h-885q3 1 10.5 14.5t16 41t14.5 59.5q11 57 11 102v645q0 46 -11 103q-5 31 -14.5 58t-16 40.5t-10.5 15.5h1522zM1151 588q82 0 139.5 57
t57.5 139t-57.5 139.5t-139.5 57.5h-295v-393h295z" />
    <glyph glyph-name="Q" unicode="Q" horiz-adv-x="2002" 
d="M2134 -61q2 2 6 5.5t16 9.5t24 8.5t29 -2.5t32 -19l-54 -56l-430 -432l-2 -2q-71 -26 -104 -33l-52 -12h-2q-77 -13 -167 -5.5t-172.5 30t-174 43.5t-172.5 35.5t-166.5 5.5t-156.5 -47q-51 -30 -82 -46q-25 -16 -47 -6q-21 9 4 33l547 551h-695q-58 5 -103 23.5t-76 44
t-53 66.5t-34 81t-18.5 98.5t-8.5 107t-2 118.5t2 119t8.5 107.5t18.5 98.5t34 81t53 66.5t76 44t103 23.5h1373q58 -5 103 -23.5t76 -44t52.5 -66.5t33.5 -81t19 -98.5t8.5 -107t1.5 -119.5q0 -70 -1.5 -118.5t-8.5 -107t-19 -98t-33.5 -81t-52.5 -67t-76 -44t-103 -23.5
h-572l-57 -59l-51 -52q65 12 138 10t142.5 -18t144.5 -33t145.5 -34.5t144.5 -22t141 3.5t135.5 42.5t128.5 94.5zM999 98q41 0 72 12.5t52 31.5t35.5 54t22 66.5t11.5 84t5 91.5t1 103q0 81 -1 120.5t-6 102t-18 93t-34 65t-56 48t-84 13.5q-47 0 -81 -13t-54.5 -45.5
t-32.5 -61t-17 -88t-6 -96t-1 -114.5v-24q0 -205 15 -280q27 -132 122 -157q25 -6 55 -6z" />
    <glyph glyph-name="R" unicode="R" horiz-adv-x="1908" 
d="M2877 -594v-63h-979l-133 63q-31 33 -67 45q-73 51 -140.5 126t-120.5 155t-105 168t-104 173.5t-107 162.5t-124 144t-145 109v-487h-848q10 3 22 36.5t21 84.5q10 35 10 100v649q0 80 -10 113q-9 43 -21.5 74.5t-21.5 34.5h1540q124 0 211.5 -87t87.5 -210
q0 -105 -65 -183.5t-166 -103.5q66 -49 128 -119t111.5 -145t99.5 -159.5t98 -164.5t101 -157t115.5 -141.5t133.5 -113.5t162 -76.5t196 -27.5h120zM1149 598q82 0 140.5 58t58.5 141t-58.5 139.5t-140.5 56.5h-297v-395h297z" />
    <glyph glyph-name="S" unicode="S" horiz-adv-x="1953" 
d="M1858 981q-127 -9 -239.5 -52.5t-200.5 -112.5t-166.5 -157t-147 -191t-132 -208.5t-131 -215.5t-135 -207.5t-153 -188t-176.5 -152.5v-2q-2 0 -2 -2l-84 -53q-75 -46 -187 -96h-1142v71h166q115 0 219 26t186 67t161 108.5t137.5 133t123.5 159.5t110.5 170t106.5 180
q68 118 104.5 178t106 163t120.5 158t130.5 126.5t155 107.5t174.5 62t208 26h783q0 -4 -0.5 -10t-6 -22t-14.5 -28.5t-28.5 -24t-46.5 -13.5z" />
    <glyph glyph-name="T" unicode="T" horiz-adv-x="1996" 
d="M1391 295l2 -78q0 -40 8 -102q6 -32 15 -59.5t16 -41t10 -14.5h-887q4 2 10.5 15.5t16 41.5t14.5 60q10 48 10 100v764h-487q-4 0 -10.5 0.5t-23 6t-29.5 14.5t-24 29.5t-12 47.5h1956q-1 -27 -11 -47.5t-24 -29.5t-27 -14.5t-22 -5.5l-10 -1h-491v-686z" />
    <glyph glyph-name="U" unicode="U" horiz-adv-x="2105" 
d="M2034 862v-323q0 -69 -2 -117.5t-8.5 -107t-18.5 -98.5t-34 -81t-53 -67t-76 -44.5t-103 -23.5h-1372q-58 5 -103 23.5t-76 44.5t-53 67t-34 81t-18.5 98.5t-8.5 107t-2 117.5v323q0 46 -11 103q-5 32 -14 59.5t-16.5 40.5t-10.5 14h836v-796q15 -82 59.5 -128t137.5 -55
q93 9 137 54.5t59 128.5v796h834q-4 -2 -10.5 -15.5t-16 -40.5t-14.5 -58q-8 -62 -8 -103z" />
    <glyph glyph-name="V" unicode="V" horiz-adv-x="2299" 
d="M2277 1079q-4 -1 -9.5 -4.5t-19.5 -19.5t-29 -41t-38 -76t-47 -119q0 -1 -1 -3t-1 -3l-297 -813h-1427q2 12 3.5 33t-5 80t-25.5 112l-225 619q-79 213 -133 235h788q-2 -1 -4 -14t-0.5 -40.5t6.5 -59.5q5 -37 25 -103l26 -78l215 -589q17 -41 33.5 -64.5t24 -28
t12.5 -4.5q30 0 72 97l213 589l26 78q19 62 27 103q4 31 4 58t-2 40.5t-4 15.5h792z" />
    <glyph glyph-name="W" unicode="W" horiz-adv-x="2691" 
d="M2687 1079q-9 -6 -17.5 -15t-14.5 -16.5t-13.5 -21.5t-10.5 -20l-11 -22t-9 -19q-20 -54 -31 -101l-16 -80l-104 -489l-19 -78q-9 -54 -12 -100q-4 -83 16 -117h-899q2 6 2 18v21q-2 36 -10 63t-29 68q-2 2 -2 4l-176 340l-205 -340q-30 -53 -38.5 -85t-8.5 -89h-891
q23 27 23 117q0 35 -2 55q-79 471 -121 735q-4 18 -16 58q-1 3 -9.5 22t-12.5 27t-12.5 23t-17.5 25t-20 17h895q-14 -26 -25 -114q-1 -22 0 -33.5t3.5 -34t3.5 -33.5q8 -51 14 -80l129 -536l10 14q369 614 412 688q19 33 30 65t12 48l1 16h454q-2 -9 -2 -19.5t1 -19
t4 -20.5t5 -18.5l6 -19.5t5 -17q20 -57 45 -101l41 -80q121 -234 235 -489q1 -5 15 -37q16 78 75.5 324.5t81.5 382.5q6 25 -1.5 60.5t-26.5 53.5h264z" />
    <glyph glyph-name="X" unicode="X" horiz-adv-x="1804" 
d="M1536 217q18 -20 100 -102q36 -32 70 -59.5t53 -41t23 -14.5h-787q2 0 -3 13t-21 41t-39 61q-8 15 -31 41q-28 -39 -29 -41q-24 -33 -40 -61t-20.5 -41t-2.5 -13h-789q5 1 24 14.5t53 41t69 59.5q67 63 100 102l72 78l221 246l-221 243l-72 78q-37 44 -100 103
q-34 31 -68 58t-53 40.5t-25 15.5h789q-2 0 2.5 -12.5t20.5 -40.5t40 -61q1 -2 29 -41q23 26 31 41q23 33 39 61t21 40.5t3 12.5h787q-6 -2 -25 -15.5t-52.5 -40.5t-68.5 -58q-74 -74 -100 -103l-70 -78l-221 -243l221 -246z" />
    <glyph glyph-name="Y" unicode="Y" horiz-adv-x="2004" 
d="M2247 1079q-21 -2 -52 -26t-52 -47l-21 -23l-86 -102q-95 -113 -229 -302t-218 -315t-88 -135q-63 -109 -110 -184t-111.5 -164.5t-133.5 -160t-145 -124.5v-2q-2 0 -2 -2l-79 -53q-72 -46 -181 -96h-1104v71h160q117 0 216.5 25.5t174 68.5t144.5 110t122.5 138.5
t112.5 166.5t109.5 181.5t120 195.5t137.5 198h-420l-403 485q-51 62 -119 96h850q-3 -2 -7 -5t-13.5 -12.5t-14 -20t-3 -26.5t14.5 -32l256 -315l193 223l75 92q19 29 14 50.5t-21 33.5l-15 12h928z" />
    <glyph glyph-name="Z" unicode="Z" horiz-adv-x="1806" 
d="M244 172l547 735q18 26 36 58l9 16h-717q-4 0 -10.5 0.5t-23 6t-29.5 14.5t-24 29.5t-12 47.5h1741q-59 -42 -127 -114q-51 -58 -84 -103l-483 -645q-52 -76 -66 -102q-2 -2 -5.5 -8.5t-4.5 -8.5h695q4 0 10.5 -0.5t23.5 -6t30 -14.5t24 -29.5t12 -47.5h-1720q4 1 21 14
t47.5 41t60.5 60q7 9 24 28t25 29z" />
    <glyph glyph-name="bracketleft" unicode="[" horiz-adv-x="866" 
d="M20 -279v1637h295v2h633q-1 -27 -12 -47.5t-26 -29.5t-29.5 -14.5t-24.5 -6.5h-10h-293v-295q-2 -31 -2 -97v-659q0 -61 2 -90v-303h289q4 0 10.5 -0.5t23.5 -6t30.5 -15t25 -30t12.5 -47.5h-629v2h-295z" />
    <glyph glyph-name="backslash" unicode="\" horiz-adv-x="1693" 
d="M92 1360l533 -1647h-187l-532 1647h186z" />
    <glyph glyph-name="bracketright" unicode="]" horiz-adv-x="866" 
d="M846 1358v-1637h-295v-2h-633q1 27 12 47.5t25.5 30t28.5 15t24 6.5h10h295v1444h-290q-4 0 -10.5 0.5t-24 6t-30.5 14.5t-24 29.5t-12 47.5h629v-2h295z" />
    <glyph glyph-name="asciicircum" unicode="^" horiz-adv-x="1081" 
d="M2 1255l541 396l538 -396v-186l-538 395l-541 -395v186z" />
    <glyph glyph-name="underscore" unicode="_" horiz-adv-x="1124" 
d="M20 2h1084v-186h-1084v186z" />
    <glyph glyph-name="grave" unicode="`" horiz-adv-x="919" 
d="M49 1473h592q-1 0 0 -4t4.5 -11.5t9.5 -15.5q7 -14 19 -29l16 -20l103 -136l16 -20l22 -27q26 -32 33 -32h-590q1 0 0 3.5t-4.5 11.5t-9.5 17q-6 12 -18 27l-17 20l-102 136l-17 20l-22 29z" />
    <glyph glyph-name="a" unicode="a" horiz-adv-x="2058" 
d="M1946 260q10 -64 22 -113.5t22 -76t20 -43.5t16 -21.5t10 -5.5h-793q3 1 8.5 14.5t11 41t7.5 59.5q0 20 -4 82h-367q-8 -31 -8 -82q-1 -32 2 -59.5t6.5 -40.5t5.5 -15h-885q4 1 13.5 14.5t25 41t27.5 59.5q3 14 16 57l150 735l4 56q1 32 -2.5 59.5t-8 41t-7.5 15.5h1577
l131 -813v-6zM918 295h337l-96 590q-21 96 -51 96q-9 0 -23 -12q-15 -12 -29 -44.5t-21 -58.5l-7 -26l-12 -56z" />
    <glyph glyph-name="b" unicode="b" horiz-adv-x="1959" 
d="M1645 588q122 0 208 -86t86 -207q0 -123 -86 -209t-208 -86h-1625q3 1 10.5 14.5t16 41t14.5 59.5q11 57 11 102v645q0 48 -11 101q-5 32 -14.5 59.5t-16 41t-10.5 15.5h1600q101 0 173.5 -72t72.5 -173q0 -99 -69.5 -171t-166.5 -75h15zM1153 98q82 0 139.5 57.5
t57.5 139.5t-57.5 139.5t-139.5 57.5h-297v-394h297zM856 981v-393h248q82 0 139 57t57 139t-57 139.5t-139 57.5h-248z" />
    <glyph glyph-name="c" unicode="c" horiz-adv-x="1806" 
d="M1006 981q-30 0 -54.5 -5.5t-43.5 -18.5t-34 -26t-25.5 -37.5t-18.5 -42.5t-12.5 -51.5t-7 -54.5t-4 -61.5t-1.5 -62.5v-67v-13q0 -197 15 -273q30 -141 135 -165q23 -5 51 -5h680q4 0 10.5 -0.5t23.5 -6t30 -14.5t24 -29.5t12 -47.5h-1471q-58 5 -103 23.5t-76 44.5
t-53 67t-34 81t-18.5 99t-8.5 107.5t-2 118.5q0 69 2 117.5t8.5 107t18.5 98t34 81t53 67t76 44t103 23.5h1471q-1 -27 -11.5 -47.5t-25 -29.5t-29 -14.5t-24.5 -5.5l-10 -1h-680z" />
    <glyph glyph-name="d" unicode="d" horiz-adv-x="2156" 
d="M1645 1079q135 -12 247.5 -86.5t178 -194t65.5 -257.5q0 -211 -142 -366.5t-349 -174.5h-1625q3 1 10.5 14.5t16 41t14.5 59.5q11 57 11 102v645q0 46 -11 103q-5 31 -14.5 58t-16 40.5t-10.5 15.5h1625zM1057 98q168 15 284.5 143t116.5 300q0 171 -116.5 298
t-284.5 142h-201v-883h201z" />
    <glyph glyph-name="e" unicode="e" horiz-adv-x="1767" 
d="M1739 0h-1716q26 43 38 115q11 57 11 102v645q0 46 -11 103q-5 32 -14 59.5t-16.5 40.5t-10.5 14h1727q-1 -27 -12 -47.5t-26 -29.5t-29.5 -14.5t-24.5 -5.5l-10 -1h-789v-393h492q8 0 20 -1.5t38.5 -13t39.5 -32.5q-13 -22 -37.5 -34t-42.5 -13l-18 -2h-492v-394h782
q4 0 10.5 -0.5t24 -6t30.5 -14.5t24 -29.5t12 -47.5z" />
    <glyph glyph-name="f" unicode="f" horiz-adv-x="1759" 
d="M1739 1079q-1 -27 -11.5 -47.5t-25 -29.5t-29.5 -14.5t-25 -5.5l-10 -1h-782v-393h492q8 0 20 -1.5t38.5 -13t39.5 -32.5q-13 -22 -37.5 -34t-42.5 -13l-18 -2h-492v-275q0 -50 10 -102q5 -32 13.5 -59.5t15 -40.5t10.5 -15h-885q3 1 10.5 14.5t16 41t14.5 59.5
q11 57 11 102v645q0 46 -11 103q-5 31 -14.5 58t-16 40.5t-10.5 15.5h1719z" />
    <glyph glyph-name="g" unicode="g" horiz-adv-x="2050" 
d="M1982 588v-402q0 -19 9 -71q5 -32 13.5 -59.5t15 -40.5t10.5 -15h-1715q-58 5 -103 23.5t-76 44.5t-53 67t-34 81t-18.5 99t-8.5 107.5t-2 118.5q0 69 2 117.5t8.5 107t18.5 98t34 81t53 67t76 44t103 23.5h1667q0 -27 -10 -47.5t-24.5 -29.5t-29 -14.5t-24.5 -5.5
l-10 -1h-883q-47 0 -81 -13t-54.5 -45t-32.5 -60.5t-17 -88t-6 -96t-1 -113.5v-24q0 -205 15 -280q27 -132 122 -157q25 -6 55 -6h193v394h-94q-8 0 -20.5 1.5t-39 13t-39.5 32.5q13 22 37.5 34t43.5 13l18 2h882z" />
    <glyph glyph-name="h" unicode="h" horiz-adv-x="2007" 
d="M1946 115q5 -32 13.5 -59.5t15 -40.5t10.5 -15h-885q3 1 10.5 14.5t16 41t14.5 59.5q10 52 10 102v275h-295v-275q0 -50 10 -102q5 -32 13.5 -59.5t15 -40.5t10.5 -15h-885q3 1 10.5 14.5t16 41t14.5 59.5q11 57 11 102v645q0 46 -11 103q-5 31 -14.5 58t-16 40.5
t-10.5 15.5h885q-3 -1 -9.5 -14t-15.5 -40.5t-14 -59.5q-10 -52 -10 -103v-274h295v274q0 51 -10 103q-5 31 -14.5 58t-16 40.5t-10.5 15.5h885q-3 -1 -9.5 -14t-15.5 -40.5t-14 -59.5q-11 -57 -11 -103v-645q0 -45 11 -102z" />
    <glyph glyph-name="i" unicode="i" horiz-adv-x="931" 
d="M870 115q5 -33 14.5 -61t17 -41t9.5 -13h-891q3 1 10.5 14.5t16 41t14.5 59.5q6 27 9 57v735q-3 32 -9 58q-5 31 -14.5 58t-16 40.5t-10.5 15.5h889q-3 -1 -9.5 -14t-15.5 -40.5t-14 -59.5q-8 -41 -8 -103v-645q0 -61 8 -102z" />
    <glyph glyph-name="j" unicode="j" horiz-adv-x="1366" 
d="M457 1079h886q-3 -1 -10 -14t-15.5 -40.5t-14.5 -59.5q-11 -57 -11 -103v-274q2 -17 0 -17v-182q0 -174 -133 -291q-112 -98 -258 -98h-881q0 4 0.5 10.5t6 23.5t15 30t30 23.5t47.5 10.5h98q109 0 191.5 71.5t99.5 178.5v514q0 51 -10 103q-5 31 -14.5 58t-16 40.5
t-10.5 15.5z" />
    <glyph glyph-name="k" unicode="k" horiz-adv-x="1912" 
d="M1843 98q0 -4 0.5 -10.5t2.5 -22.5t6.5 -29t13.5 -24t22 -12h-831v98q0 294 -195 367v-248q0 -61 8 -102q5 -32 13.5 -59.5t15 -40.5t10.5 -15h-889q3 1 10.5 14.5t16 41t14.5 59.5q6 27 9 57v735q-3 32 -9 58q-5 31 -14.5 58t-16 40.5t-10.5 15.5h889q-3 -1 -9.5 -14
t-15.5 -40.5t-14 -59.5q-8 -41 -8 -103v-248q195 73 195 367v98h831q-20 -3 -31 -27.5t-13 -47.5l-1 -23l-4 -4q-1 -87 -32.5 -160.5t-87 -125.5t-118.5 -88.5t-139 -63.5q75 -25 139 -62t119.5 -89.5t87 -126.5t31.5 -161z" />
    <glyph glyph-name="l" unicode="l" horiz-adv-x="1564" 
d="M1444 98q4 0 10.5 -0.5t23.5 -6t30 -14.5t24 -29.5t12 -47.5h-1524q3 1 10.5 14.5t16 41t14.5 59.5q6 27 9 57v735q-3 32 -9 58q-5 31 -14.5 58t-16 40.5t-10.5 15.5h889q-3 -1 -9.5 -14t-15.5 -40.5t-14 -59.5q-8 -41 -8 -103v-645q0 -61 8 -102q0 -5 4 -17h570z" />
    <glyph glyph-name="m" unicode="m" horiz-adv-x="2308" 
d="M1010 0h-359q0 4 0.5 14t-6.5 39.5t-20 61.5q-20 52 -50 100l-45 80l-286 489l-21 37v-649q0 -3 6 -57q6 -32 15 -59.5t16 -41t10 -14.5h-250q4 2 11.5 15.5t16 40t15.5 59.5q9 70 9 100v647q0 36 -9 101q-5 32 -14 59.5t-15.5 41t-10.5 15.5h888q-1 -5 -1 -16t7.5 -39.5
t20.5 -60.5l27 -56l188 -323l186 323q24 48 27 56q13 33 19.5 62t6.5 41l1 13h893q-4 -2 -10.5 -15.5t-16 -41t-14.5 -59.5l-7 -56v-735q0 -12 3.5 -33t3.5 -24q6 -33 15.5 -61t17 -41t10.5 -13h-893q4 2 10.5 15t16 40.5t14.5 59.5q10 52 10 100v616l-29 -47l-190 -327
l-94 -162l-48 -80q-36 -67 -49 -100q-13 -32 -20.5 -60.5t-7 -39.5t1.5 -15z" />
    <glyph glyph-name="n" unicode="n" horiz-adv-x="1734" 
d="M1714 0h-885q2 2 -1 16t-14.5 41.5t-29.5 59.5q-27 49 -65 100l-57 78l-365 491l-59 80q-7 7 -15 19v-713q0 -7 6 -55q6 -33 15 -61t16 -41.5t10 -14.5h-250q4 2 10.5 15.5t16 41.5t14.5 60q11 53 11 100v649q0 48 -11 101q-5 32 -14 59.5t-16.5 40.5t-10.5 14h887
q-2 -2 1.5 -15.5t15 -40t28.5 -58.5q14 -25 37 -58l527 -712v669q0 36 -9 101q-9 45 -22.5 76.5t-20.5 37.5h250q-4 -2 -10.5 -15.5t-16 -40.5t-14.5 -58l-6 -58v-737l6 -55q6 -33 15.5 -61t16 -41.5t9.5 -14.5z" />
    <glyph glyph-name="o" unicode="o" horiz-adv-x="2002" 
d="M1688 1079q58 -5 103 -23.5t76 -44t52.5 -67t33.5 -81t19 -98t8.5 -106.5t1.5 -118t-1.5 -118.5t-8.5 -107.5t-19 -98.5t-33.5 -81t-52.5 -67.5t-76 -44.5t-103 -23.5h-1373q-58 5 -103 23.5t-76 44.5t-53 67t-34 81t-18.5 99t-8.5 107.5t-2 118.5q0 69 2 117.5t8.5 107
t18.5 98t34 81t53 67t76 44t103 23.5h1373zM1001 98q41 0 72 12.5t52 31.5t36 53.5t23 67t12 84t5 91.5t1 103q0 80 -1 119t-6.5 101.5t-18 93t-34 65t-57 48t-84.5 13.5q-47 0 -81 -13t-54.5 -45t-32.5 -60.5t-17 -88t-6 -96t-1 -113.5v-24q0 -205 15 -280
q27 -132 122 -157q25 -6 55 -6z" />
    <glyph glyph-name="p" unicode="p" horiz-adv-x="1857" 
d="M1542 1079q123 0 209 -86t86 -209q0 -122 -86 -207t-209 -85h-686v-275q0 -50 10 -102q5 -32 13.5 -59.5t15 -40.5t10.5 -15h-885q3 1 10.5 14.5t16 41t14.5 59.5q11 57 11 102v645q0 46 -11 103q-5 31 -14.5 58t-16 40.5t-10.5 15.5h1522zM1151 588q82 0 139.5 57
t57.5 139t-57.5 139.5t-139.5 57.5h-295v-393h295z" />
    <glyph glyph-name="q" unicode="q" horiz-adv-x="2002" 
d="M2134 -61q2 2 6 5.5t16 9.5t24 8.5t29 -2.5t32 -19l-54 -56l-430 -432l-2 -2q-71 -26 -104 -33l-52 -12h-2q-77 -13 -167 -5.5t-172.5 30t-174 43.5t-172.5 35.5t-166.5 5.5t-156.5 -47q-51 -30 -82 -46q-25 -16 -47 -6q-21 9 4 33l547 551h-695q-58 5 -103 23.5t-76 44
t-53 66.5t-34 81t-18.5 98.5t-8.5 107t-2 118.5t2 119t8.5 107.5t18.5 98.5t34 81t53 66.5t76 44t103 23.5h1373q58 -5 103 -23.5t76 -44t52.5 -66.5t33.5 -81t19 -98.5t8.5 -107t1.5 -119.5q0 -70 -1.5 -118.5t-8.5 -107t-19 -98t-33.5 -81t-52.5 -67t-76 -44t-103 -23.5
h-572l-57 -59l-51 -52q65 12 138 10t142.5 -18t144.5 -33t145.5 -34.5t144.5 -22t141 3.5t135.5 42.5t128.5 94.5zM999 98q41 0 72 12.5t52 31.5t35.5 54t22 66.5t11.5 84t5 91.5t1 103q0 81 -1 120.5t-6 102t-18 93t-34 65t-56 48t-84 13.5q-47 0 -81 -13t-54.5 -45.5
t-32.5 -61t-17 -88t-6 -96t-1 -114.5v-24q0 -205 15 -280q27 -132 122 -157q25 -6 55 -6z" />
    <glyph glyph-name="r" unicode="r" horiz-adv-x="1908" 
d="M1847 115q5 -32 13.5 -59.5t15 -40.5t10.5 -15h-637v295q0 82 -57 139.5t-139 57.5h-197v-492h-836q3 1 10.5 14.5t16 41t14.5 59.5q11 57 11 102v645q0 46 -11 103q-5 31 -14.5 58t-16 40.5t-10.5 15.5h1522q123 0 209 -86t86 -209q0 -76 -35 -140.5t-96 -104.5
q61 -39 96 -103.5t35 -140.5v-78q0 -50 10 -102zM1053 588q82 0 139 57t57 139t-57 139.5t-139 57.5h-197v-393h197z" />
    <glyph glyph-name="s" unicode="s" horiz-adv-x="1611" 
d="M1313 616q141 -52 209.5 -145.5t68.5 -214.5q0 -110 -84 -183t-194 -73h-1293q1 27 12 47.5t25.5 29.5t29 14.5t24.5 6.5h10h639q144 0 164 59q12 38 -30 74q-18 17 -42 25l-139 53l-138 51l-104 37l-35 15l-139 51q-140 52 -208.5 146t-68.5 214q0 110 84 183t193 73
h1192q4 0 10.5 -0.5t23.5 -6t30.5 -14.5t25 -29.5t12.5 -47.5h-739q-144 0 -164 -59q-12 -38 30 -74q18 -17 42 -25l137 -53l139 -51l105 -37l35 -14z" />
    <glyph glyph-name="t" unicode="t" horiz-adv-x="1996" 
d="M1391 295l2 -78q0 -40 8 -102q6 -32 15 -59.5t16 -41t10 -14.5h-887q4 2 10.5 15.5t16 41.5t14.5 60q10 48 10 100v764h-487q-4 0 -10.5 0.5t-23 6t-29.5 14.5t-24 29.5t-12 47.5h1956q-1 -27 -11 -47.5t-24 -29.5t-27 -14.5t-22 -5.5l-10 -1h-491v-686z" />
    <glyph glyph-name="u" unicode="u" horiz-adv-x="2105" 
d="M2034 862v-323q0 -69 -2 -117.5t-8.5 -107t-18.5 -98.5t-34 -81t-53 -67t-76 -44.5t-103 -23.5h-1372q-58 5 -103 23.5t-76 44.5t-53 67t-34 81t-18.5 98.5t-8.5 107t-2 117.5v323q0 46 -11 103q-5 32 -14 59.5t-16.5 40.5t-10.5 14h836v-796q15 -82 59.5 -128t137.5 -55
q93 9 137 54.5t59 128.5v796h834q-4 -2 -10.5 -15.5t-16 -40.5t-14.5 -58q-8 -62 -8 -103z" />
    <glyph glyph-name="v" unicode="v" horiz-adv-x="2056" 
d="M2034 1079q-4 -1 -9 -4.5t-16 -19.5t-22.5 -41t-27 -76t-30.5 -119q2 -2 -2 -6l-176 -813h-1579q3 1 8.5 14.5t10.5 41t6 59.5q0 37 -2 57l-99 735l-16 58q-17 46 -35 78t-25 36h885q-3 -1 -8 -14t-9.5 -40.5t-6.5 -59.5q6 -88 8 -103l10 -78l70 -489l12 -78
q2 -15 7.5 -40.5t6.5 -33.5q32 -45 52 -45q33 0 59 97l129 589l16 78q11 72 9 103q1 31 -2.5 58t-8 40.5t-8.5 15.5h793z" />
    <glyph glyph-name="w" unicode="w" horiz-adv-x="2686" 
d="M2687 1079q-9 -6 -17.5 -15t-14.5 -16.5t-13.5 -21.5t-10.5 -20l-11 -22t-9 -19q-20 -54 -31 -101l-16 -80l-104 -489l-19 -78q-9 -54 -12 -100q-4 -83 16 -117h-899q2 6 2 18v21q-2 36 -10 63t-29 68q-2 2 -2 4l-176 340l-205 -340q-30 -53 -38.5 -85t-8.5 -89h-891
q23 27 23 117q0 35 -2 55q-79 471 -121 735q-4 18 -16 58q-1 3 -9.5 22t-12.5 27t-12.5 23t-17.5 25t-20 17h895q-14 -26 -25 -114q-1 -22 0 -33.5t3.5 -34t3.5 -33.5q8 -51 14 -80l129 -536l10 14q369 614 412 688q19 33 30 65t12 48l1 16h454q-2 -9 -2 -19.5t1 -19
t4 -20.5t5 -18.5l6 -19.5t5 -17q20 -57 45 -101l41 -80q121 -234 235 -489q1 -5 15 -37q16 78 75.5 324.5t81.5 382.5q6 25 -1.5 60.5t-26.5 53.5h264z" />
    <glyph glyph-name="x" unicode="x" horiz-adv-x="1804" 
d="M1536 217q18 -20 100 -102q36 -32 70 -59.5t53 -41t23 -14.5h-787q2 0 -3 13t-21 41t-39 61q-8 15 -31 41q-28 -39 -29 -41q-24 -33 -40 -61t-20.5 -41t-2.5 -13h-789q5 1 24 14.5t53 41t69 59.5q67 63 100 102l72 78l221 246l-221 243l-72 78q-37 44 -100 103
q-34 31 -68 58t-53 40.5t-25 15.5h789q-2 0 2.5 -12.5t20.5 -40.5t40 -61q1 -2 29 -41q23 26 31 41q23 33 39 61t21 40.5t3 12.5h787q-6 -2 -25 -15.5t-52.5 -40.5t-68.5 -58q-74 -74 -100 -103l-70 -78l-221 -243l221 -246z" />
    <glyph glyph-name="y" unicode="y" horiz-adv-x="1898" 
d="M963 1079q-3 -2 -7 -5t-13.5 -12.5t-14 -20.5t-3 -27t14.5 -33l78 -92l272 -318l336 410q19 30 14 51.5t-20 33.5l-16 13h272l-7 -3q-7 -3 -18.5 -10t-25.5 -17t-32.5 -28t-35.5 -40l-409 -489v-275q0 -40 8 -102q6 -32 15.5 -59.5t17 -41t10.5 -14.5h-887q3 1 10.5 14.5
t16 41t14.5 59.5q8 54 8 86v252q-7 45 -33 79l-231 277l-145 172q-9 10 -23 25.5t-48 42.5t-56 30h938z" />
    <glyph glyph-name="z" unicode="z" horiz-adv-x="1806" 
d="M244 172l547 735q18 26 36 58l9 16h-717q-4 0 -10.5 0.5t-23 6t-29.5 14.5t-24 29.5t-12 47.5h1741q-59 -42 -127 -114q-51 -58 -84 -103l-483 -645q-52 -76 -66 -102q-2 -2 -5.5 -8.5t-4.5 -8.5h695q4 0 10.5 -0.5t23.5 -6t30 -14.5t24 -29.5t12 -47.5h-1720q4 1 21 14
t47.5 41t60.5 60q7 9 24 28t25 29z" />
    <glyph glyph-name="braceleft" unicode="{" horiz-adv-x="903" 
d="M883 -182q4 0 10.5 -0.5t23.5 -6t30.5 -15t25 -30t12.5 -47.5h-471q-67 0 -118.5 42.5t-83.5 111t-57.5 150.5t-45.5 164.5t-40.5 151t-50 111t-67.5 42.5h-31v96h31q38 0 67.5 42.5t50 110.5t40.5 150.5t45.5 165t57.5 150.5t83.5 110.5t118.5 42.5h471
q-1 -27 -12 -47.5t-26 -29.5t-29.5 -14.5t-24.5 -6.5h-10l-39 2h-56q-66 -6 -114 -46t-73.5 -96t-46 -129t-31.5 -140t-29.5 -134.5t-40.5 -106.5v-2l-15 -22q-14 -25 -32 -43l-5 -6l5 -7q15 -12 32 -40l15 -25v-2q22 -39 40.5 -106.5t29.5 -134t31.5 -139.5t46 -129
t73.5 -95t114 -45h56z" />
    <glyph glyph-name="bar" unicode="|" horiz-adv-x="350" 
d="M268 1360v-1647h-186v1647h186z" />
    <glyph glyph-name="braceright" unicode="}" horiz-adv-x="903" 
d="M20 1262q-4 0 -10.5 0.5t-23.5 6t-30.5 14.5t-25 29.5t-12.5 47.5h471q67 0 118.5 -42.5t83.5 -110.5t57.5 -150.5t45.5 -165t40.5 -150.5t50 -110.5t67.5 -42.5h31v-96h-31q-38 0 -67.5 -42.5t-50 -111t-40.5 -150.5t-45.5 -164.5t-57.5 -151t-83.5 -111t-118.5 -42.5
h-471q1 27 12 47.5t26 30t29.5 15t24.5 6.5h10l41 -2h54q78 7 130.5 59t79 131.5t43.5 161t37 167t46 130.5v2l14 25q12 19 33 40l4 7l-4 6q-27 33 -33 43l-14 22v2q-26 45 -46 131t-37 167.5t-43.5 161t-79 132t-130.5 60.5h-54z" />
    <glyph glyph-name="asciitilde" unicode="~" horiz-adv-x="1171" 
d="M111 420q-10 -8 -21 -8t-16 4l-6 4l127 127l20 22l25 23q46 47 104 64.5t116.5 11t120.5 -22.5t125 -32t122.5 -22t119.5 13t109 68l12 14l23 23l16 -17l-250 -250q-26 -10 -63 -20l-29 -6h-2q-57 -10 -131 1.5t-139.5 29t-133 30t-132.5 0.5t-117 -57z" />
    <glyph glyph-name="exclamdown" unicode="&#xa1;" 
d="M1001 -4h-981v8q22 27 33 76l117 487v58q0 38 -10 71q-8 32 -21 55.5t-20 28.5h782q-3 -1 -9.5 -10.5t-15.5 -30t-14 -43.5q-10 -33 -10 -71v-58l117 -487q11 -51 32 -76v-8zM782 874h-542q-27 3 -44.5 15t-25 34.5t-10 44.5t-2.5 56t2.5 56t10 44.5t25 34.5t44.5 15h542
q27 -3 44.5 -15t25 -34.5t10 -44.5t2.5 -56t-2.5 -56t-10 -44.5t-25 -34.5t-44.5 -15z" />
    <glyph glyph-name="cent" unicode="&#xa2;" horiz-adv-x="1519" 
d="M1128 1085v-96h371q-1 -36 -22 -56.5t-41 -22.5l-21 -3h-287v-735h287q3 0 8.5 -0.5t20 -5t25.5 -12t20 -24.5t10 -40h-371v-100h-153v100h-574v2q-56 5 -98 23t-68.5 51t-42.5 68.5t-24 91t-10 101t-2 114.5q0 58 1.5 97.5t7 88.5t15.5 81.5t28 67t43.5 55.5t63.5 36.5
t86 19.5v2h574v96h153zM850 907q-28 0 -50.5 -7.5t-39 -17t-29.5 -30t-21 -35.5t-13.5 -46.5t-8.5 -49.5t-4.5 -58t-1.5 -58.5v-63.5q0 -173 15 -237q27 -118 125 -130q14 -2 28 -2h125v735h-125z" />
    <glyph glyph-name="sterling" unicode="&#xa3;" horiz-adv-x="1196" 
d="M1085 338l31 -31q-42 -73 -119 -151t-161 -127l-2 -2q-29 -13 -60 -21l-29 -6h-2q-72 -11 -161 8q-30 6 -74.5 17.5t-77.5 19.5t-71.5 14.5t-75 6t-68.5 -8.5q-39 -13 -55 -22v2l-31 31v514h-37q-4 0 -10 0.5t-21.5 6t-28 14.5t-23 29.5t-11.5 47.5h133q3 69 11 122.5
t25 104t44 84.5t69 57t99 29h469q80 0 139 -41l29 -24q6 -6 26 -31q19 -27 29 -49q26 -63 37 -146v-13.5t-5 -25t-13 -33t-27.5 -25.5t-46.5 -13q-3 176 -49 244l-4 4l-7 8q0 1 -1 2t-1 2q-5 3 -8 8l-10 8l-4 4q-2 1 -3.5 2t-2.5 2t-2 1l-19 10q-2 0 -5.5 1t-4.5 1t-3 1
t-3 1q-2 0 -5 1t-5 1q-10 2 -31 2h-117q-2 0 -2 -2h-12q-2 -2 -6 -2h-2q-2 -2 -4 -2h-3q-2 -2 -4 -2h-2q-2 0 -2 -2h-2q-1 0 -2 -1t-2 -1h-2q-2 -2 -4 -2l-6 -4q-1 0 -2 -1.5t-2 -1.5l-2 -2q-2 0 -2 -2h-2l-2 -2l-2 -2l-3 -2q-2 0 -2 -2q-1 0 -2 -1t-2 -1q0 -2 -2 -2
q0 -2 -2 -2q0 -2 -2 -2q0 -2 -2 -2v-2q-1 0 -2 -1t-2 -1v-2l-2 -2l-2 -2q0 -1 -1 -2t-1 -2l-4 -7l-2 -2v-2l-2 -2q0 -1 -1 -2t-1 -2v-2l-2 -2l-2 -2q0 -4 -3 -4v-2q0 -1 -1 -3t-1 -3l-2 -2v-4q-2 0 -2 -2v-2q-2 -2 -2 -5q0 -2 -2 -2v-4q0 -2 -2 -2v-4q0 -2 -2 -4v-2
q0 -4 -2 -6v-2q0 -4 -2 -4v-6q0 -1 -1 -2.5t-1 -2.5v-6l-2 -4v-4q0 -4 -2 -6v-8q0 -2 -2 -2v-13q-2 -2 -2 -4v-10q0 -1 -1 -3t-1 -3v-18l-2 -2v-25q-2 -2 -2 -10v-33h223q-1 -27 -11.5 -47.5t-25 -29.5t-29 -14.5t-24.5 -6.5h-10h-125v-312q4 0 8 -2h2q4 0 6 -2h8l2 -2h6
l2 -2h5l4 -2h4l4 -2h6q2 0 2 -2h6q2 0 2 -2h8q2 -2 9 -2q0 -2 2 -2h6l2 -2h6l2 -2h6l2 -2h4l4 -2h5q4 0 4 -2h8l4 -2h4q1 0 3 -1t3 -1h2q1 0 3 -1.5t3 -1.5h2q5 0 9 -2h8l2 -2h8q1 0 3 -1t3 -1h6q4 0 4 -2h13q2 0 4 -2h16q4 0 6 -2h45q1 0 4 1t5 1h16q0 2 4 2h6q2 0 4 2h6
q1 0 2.5 1t2.5 1h2q4 0 6 2h2q4 0 6 2q3 0 6 3h2q1 0 3 1t3 1h2q2 2 4 2t2 2h5q2 2 4 2q2 2 4 2h2q0 2 4 2l2 2q1 0 2 1t2 1q2 0 2 2q1 0 3 1t3 1h2q4 4 6 4q0 2 2 2q3 2 5 2l2 2l4 4h2l4 4q2 0 4 2l2 3q2 2 4 2q0 1 1 2t1 2q1 0 2 1t2 1q2 2 4 2q0 2 2 4q1 0 2 1t2 1l2 2z
M1114 1081v-4h-43z" />
    <glyph glyph-name="yen" unicode="&#xa5;" 
d="M1853 1079q-22 -3 -53.5 -27.5t-52.5 -47.5l-21 -23l-143 -170l-231 -279q-29 -32 -35 -79v-60h254v-98h-254v-98h254v-99h-242q5 -27 13.5 -50t14.5 -34t9 -12h-885q3 1 9.5 12t15 34t14.5 50h-225v99h237v98h-237v98h237v99l-409 489q-11 13 -22 25t-20.5 21
t-19.5 16.5t-17.5 12.5t-15.5 9.5t-12 6.5t-9 4l-5 3h274q-3 -2 -7.5 -4.5t-13.5 -12.5t-14 -20.5t-2.5 -27t15.5 -33.5l334 -410l274 318l76 92q20 31 15.5 52.5t-19.5 33.5l-16 12h935z" />
    <glyph glyph-name="brokenbar" unicode="&#xa6;" horiz-adv-x="348" 
d="M268 346v-633h-186v633h186zM268 1364v-633h-186v633h186z" />
    <glyph glyph-name="section" unicode="&#xa7;" horiz-adv-x="1529" 
d="M1319 764q96 -35 143 -100t47 -148q0 -74 -57.5 -124t-132.5 -50h-297q72 -72 72 -176q0 -74 -58 -124t-133 -50h-883q1 30 18.5 47t34.5 19l17 1h436q103 0 112 44q6 29 -28 52q-10 7 -22 11l-94 35l-95 37l-71 26l-23 8l-96 35q-95 36 -142 100.5t-47 147.5
q0 74 57 124t132 50h299q-72 69 -72 176q0 74 57 124t132 50h815q3 0 7.5 -0.5t16 -4t20.5 -9.5t16 -20t7 -33h-503q-106 0 -113 -45q-5 -30 32 -54q9 -6 19 -10l92 -35l96 -34l72 -27l23 -8zM903 414q4 -4 10 -4h29q104 0 112 44q6 29 -29 52q-10 6 -21 10l-95 35l-94 37
l-72 26l-22 9l-96 34q-6 0 -11 5h-26q-106 0 -113 -45q-5 -30 32 -54q9 -6 19 -10l92 -35l97 -35l71 -26l23 -8z" />
    <glyph glyph-name="dieresis" unicode="&#xa8;" horiz-adv-x="1394" 
d="M563 1362q56 -3 72 -26t16 -68t-16 -68t-72 -26h-409q-56 3 -72 26t-16 68t16 68t72 26h409zM1245 1362q56 -3 72 -26t16 -68t-16 -68t-72 -26h-409q-56 3 -72 26t-16 68t16 68t72 26h409z" />
    <glyph glyph-name="copyright" unicode="&#xa9;" 
d="M461 739h-363q-64 6 -84 60q-12 31 -12 110q0 82 12 113q20 51 84 57h363q64 -6 84 -57q12 -31 12 -113q0 -79 -12 -110q-20 -54 -84 -60zM100 762h359q47 4 61.5 37t14.5 110q0 78 -14.5 111t-61.5 37h-359q-47 -4 -61 -37t-14 -111q0 -77 14 -110t61 -37zM289 1004
q-15 -1 -24.5 -8t-13 -23t-4.5 -28t-1 -36q0 -23 1 -35t4.5 -27.5t13 -22.5t24.5 -7h141q23 0 23 -20h-310q-21 2 -34 11t-18.5 26t-7 32.5t-1.5 42.5t1.5 42.5t7 33.5t18.5 27t34 10v2h310q0 -9 -6 -14t-11 -6h-6h-141z" />
    <glyph glyph-name="guillemotleft" unicode="&#xab;" horiz-adv-x="1021" 
d="M410 539l395 540h186l-395 -540l395 -539h-186zM20 539l396 540h186l-395 -540l395 -539h-186z" />
    <glyph glyph-name="logicalnot" unicode="&#xac;" horiz-adv-x="1120" 
d="M915 279v286h-895v187h1084v-187h-2v-286h-187z" />
    <glyph glyph-name="registered" unicode="&#xae;" horiz-adv-x="581" 
d="M461 737h-363q-61 6 -82 58q-14 31 -14 112q0 80 14 111q21 53 82 59h363q61 -6 82 -59q14 -31 14 -111q0 -81 -14 -112q-21 -52 -82 -58zM100 760h359q45 4 60.5 37.5t15.5 109.5q0 75 -15.5 108.5t-60.5 37.5h-359q-45 -4 -60 -37.5t-15 -108.5q0 -77 15 -110t60 -37z
M473 793h-133v63q0 17 -12 29t-31 12h-41v-104h-174q6 10 8 24q0 3 1 11t1 12v135q0 4 -1 10.5t-1 9.5l-8 25h319q25 0 43.5 -18.5t18.5 -43.5q0 -35 -29 -51q29 -19 29 -51v-16q0 -17 2 -23zM297 918q19 0 31 11.5t12 28.5t-12 29t-31 12h-41v-81h41z" />
    <glyph glyph-name="degree" unicode="&#xb0;" horiz-adv-x="802" 
d="M649 1079q36 -3 58.5 -18.5t32.5 -45.5t13 -58t3 -74t-3 -74t-13 -57.5t-32.5 -45t-58.5 -18.5h-499q-36 3 -58.5 18.5t-32.5 45t-13 57.5t-3 74t3 74t13 58t32.5 45.5t58.5 18.5h499zM399 723q25 0 40.5 11.5t22 37t8 48t1.5 63.5q0 29 -0.5 43.5t-2 37.5t-6.5 34
t-12.5 23.5t-20 17.5t-30.5 5q-17 0 -29 -4.5t-19.5 -16.5t-12 -22t-6 -31.5t-2 -34.5t-0.5 -42v-10q0 -30 0.5 -43t2 -36.5t6 -34t11.5 -23.5t19.5 -18t29.5 -5z" />
    <glyph glyph-name="plusminus" unicode="&#xb1;" horiz-adv-x="1126" 
d="M20 713h449v366h188v-366h447v-187h-447v-340h447v-186h-447v-4h-188v4h-449v186h449v340h-449v187z" />
    <glyph glyph-name="twosuperior" unicode="&#xb2;" horiz-adv-x="425" 
d="M362 768q3 0 8.5 -1t14.5 -9t10 -23h-395v82q0 80 59 113l31 16l8 4l23 13l26 16l33 16q11 5 15.5 17.5t-4 23.5t-31.5 11h-160q0 14 8 21.5t16 7.5l7 1h313q22 0 40.5 -23.5t18.5 -56.5q0 -83 -59 -116l-33 -17l-8 -2l-20 -12l-62 -33q-14 -11 -14 -26v-23h155z" />
    <glyph glyph-name="threesuperior" unicode="&#xb3;" horiz-adv-x="507" 
d="M383 924q37 0 65.5 -28t28.5 -65q0 -39 -28.5 -66.5t-65.5 -27.5h-383q1 14 9.5 21.5t16.5 8.5l9 1h170q25 0 43 18.5t18 44.5q0 25 -18 43.5t-43 18.5h-49v31h32q28 0 46 17.5t18 43.5t-18 44t-46 18h-188q0 15 8 23t16 8l9 1h342q32 0 55 -23.5t23 -54.5t-21.5 -53
t-50.5 -24h2z" />
    <glyph glyph-name="acute" unicode="&#xb4;" horiz-adv-x="925" 
d="M862 1473l-33 -31l-24 -29l-17 -20l-102 -136l-16 -20q-15 -18 -19 -27q-6 -9 -9.5 -17t-4.5 -11.5t0 -3.5h-598q6 0 35 32q14 14 22 27l17 20l104 136l16 20q12 15 19 29q6 8 9.5 15.5t4.5 11.5t0 4h596z" />
    <glyph glyph-name="mu" unicode="&#xb5;" horiz-adv-x="2107" 
d="M2087 1079q-3 -1 -10 -14t-16 -40.5t-15 -59.5q-8 -62 -8 -103v-323q0 -69 -2 -117.5t-8.5 -107t-18.5 -98t-34 -80.5t-53 -67t-76 -44.5t-103 -24.5v-2h-885v-221l-6 -33q-5 -32 -14.5 -60t-16 -41.5t-10.5 -15.5h-791q3 1 10.5 14.5t16.5 41.5t14 61q11 53 11 100v1018
q0 46 -11 103q-5 31 -14.5 58t-16 40.5t-10.5 15.5h838v-798q13 -81 58.5 -127.5t138.5 -55.5q93 9 138 55.5t58 127.5v798h836z" />
    <glyph glyph-name="periodcentered" unicode="&#xb7;" horiz-adv-x="342" 
d="M231 784q27 -3 44.5 -15t25 -34.5t10 -44t2.5 -55.5t-2.5 -56t-10 -44.5t-25 -34.5t-44.5 -15h-129q-27 3 -44.5 15t-25 34.5t-10 44.5t-2.5 56t2.5 55.5t10 44t25 34.5t44.5 15h129z" />
    <glyph glyph-name="cedilla" unicode="&#xb8;" horiz-adv-x="864" 
d="M80 -74q-3 3 77.5 4t162.5 0t83 -4l123 -45l45 -18l17 -6l59 -23q123 -44 123 -158q0 -49 -37 -80.5t-86 -31.5h-567q0 19 11 30t21 12l11 1h280q72 0 74 31q1 21 -26 35q-3 2 -7 3l-61 23l-59 22l-48 19l-14 4l-61 23q-29 11 -53.5 38t-36.5 51.5t-21 46.5t-10 23z" />
    <glyph glyph-name="onesuperior" unicode="&#xb9;" horiz-adv-x="419" 
d="M354 770q6 -30 13 -37h-285q1 0 3.5 4t5 13t3.5 20q4 6 4 18v152l-100 -35q0 44 33 56l67 22l269 94q-10 -5 -13 -35q0 -3 -1 -6.5t-1 -5.5v-227q0 -25 2 -33zM369 1079q-2 0 -2 -2z" />
    <glyph glyph-name="guillemotright" unicode="&#xbb;" horiz-adv-x="1007" 
d="M207 1079l395 -540l-395 -539h-187l396 539l-396 540h187zM596 1079l395 -540l-395 -539h-186l395 539l-395 540h186z" />
    <glyph glyph-name="onequarter" unicode="&#xbc;" horiz-adv-x="1529" 
d="M788 489l-167 -106l-601 -383v133l498 320h-344q2 0 6 7.5t9 23.5t8 36q1 2 6 33v274l-183 -61q0 3 0.5 8t4 19.5t9 26.5t17.5 25t29 19l123 43l485 172q-12 -12 -20 -67l-4 -23q-2 -10 -2 -37v-372q0 -25 2 -35l69 45l170 108l598 381v-133l-500 -319h441
q-11 -5 -23 -68q-4 -20 -4 -33v-413h86q0 -2 -0.5 -6t-3.5 -14t-8.5 -17.5t-17 -14t-27.5 -6.5h-23q9 -51 21 -57h-518q11 5 22 57h-360v58h-4q11 0 63 55l25 27l248 350l16 26q0 2 2 7.5t2 7.5zM725 113h229v360l-157 -221l-27 -37q-25 -37 -29 -47q-7 -16 -11.5 -30
t-4.5 -18.5v-6.5z" />
    <glyph glyph-name="onehalf" unicode="&#xbd;" 
d="M788 489l-167 -106l-601 -383v133l498 320h-344q2 0 6 7.5t9 23.5t8 36q1 2 6 33v274l-183 -61q0 3 0.5 8t4 19.5t9 26.5t17.5 25t29 19l123 43l485 172q-12 -12 -20 -67l-4 -23q-2 -10 -2 -37v-372q0 -25 2 -35l69 45l170 108l598 381v-133l-495 -317h387q43 0 76.5 -43
t33.5 -107q0 -149 -110 -211l-56 -28l-14 -9l-41 -22l-57 -29l-54 -30q-12 -6 -21 -20.5t-9 -29.5v-43h289q2 0 6 -0.5t14 -3.5t17.5 -8.5t14 -17t7.5 -27.5h-727v150q0 150 110 208l54 31l14 8l43 21l55 31l56 28q19 11 27.5 33t-7 41.5t-57.5 19.5h-142z" />
    <glyph glyph-name="threequarters" unicode="&#xbe;" horiz-adv-x="1523" 
d="M723 793q53 0 96 -30.5t62 -78.5l22 14l598 381v-133l-500 -319h441q-11 -5 -23 -68q-4 -20 -4 -33v-413h86q0 -2 -0.5 -6t-3.5 -14t-8.5 -17.5t-17 -14t-27.5 -6.5h-23q9 -51 21 -57h-518q11 5 22 57h-360v58h-4q11 0 63 55l25 27l248 350l16 26q0 2 2 7.5t2 7.5
l-150 -97l-167 -106l-601 -383v133l496 318h-493q1 25 15.5 39.5t29.5 15.5l14 2h315q46 0 79.5 34t33.5 81t-33.5 79.5t-79.5 32.5h-90v58h62q46 0 79 33.5t33 80.5t-33 81t-79 34h-349q1 25 16 39.5t30 16.5l14 1h629q59 0 100 -41.5t41 -101.5q0 -56 -38 -97.5t-93 -45.5
h4zM725 113h229v360l-157 -221l-27 -37q-25 -37 -29 -47q-7 -16 -11.5 -30t-4.5 -18.5v-6.5z" />
    <glyph glyph-name="questiondown" unicode="&#xbf;" horiz-adv-x="1433" 
d="M213 0q-83 0 -146 73t-63 183q0 28 3.5 51t8 39.5t17 31.5t21 24t30.5 22t34.5 19.5t44.5 21.5t50 24l102 52l27 12l180 90q1 2 105 51q72 37 94 88h702q-8 -106 -59 -189.5t-147 -131.5l-103 -51l-27 -13l-180 -90l-104 -51q-16 -8 -29.5 -23t-21 -32.5t-5 -36t14.5 -33
t40 -24t70 -9.5h555q-1 -27 -8.5 -47.5t-18.5 -29.5t-22 -14.5t-18 -6.5h-8h-1139zM805 877q-27 3 -44.5 15t-25 34.5t-10 44t-2.5 55.5t2.5 56t10 44.5t25 34t44.5 13.5v2h541v-2q23 -2 38.5 -11t24 -20.5t12.5 -33t5 -38t1 -45.5t-1 -45.5t-5 -37.5t-12.5 -33t-24 -21.5
t-38.5 -11.5h-541z" />
    <glyph glyph-name="Agrave" unicode="&#xc0;" horiz-adv-x="2299" 
d="M2193 119q51 -111 84 -119h-792q7 0 14.5 9t4 57.5t-33.5 130.5h-641q-19 -50 -27.5 -88.5t-9 -57.5t4.5 -31.5t9 -15.5t9 -4h-792q2 0 5 1.5t10.5 8.5t16.5 19t22.5 35.5t28.5 54.5q34 76 50 117l225 618q19 54 26 110t4 86l-3 29h1484q-2 -12 -3.5 -32.5t5 -79.5
t25.5 -113l225 -618q21 -56 49 -117zM864 295h572l-215 590q-16 38 -33 61.5t-25.5 29t-13.5 5.5q-4 0 -12 -5.5t-25 -29t-33 -61.5zM741 1473h592q-1 0 0 -4t5 -11.5t10 -15.5q9 -17 18 -29l16 -20l103 -136l16 -20l23 -27q26 -32 32 -32h-589q1 0 -0.5 3.5t-5 11
t-9.5 17.5q-6 12 -18 27l-16 20l-103 136l-16 20l-23 29z" />
    <glyph glyph-name="Aacute" unicode="&#xc1;" horiz-adv-x="2299" 
d="M2193 119q51 -111 84 -119h-792q7 0 14.5 9t4 57.5t-33.5 130.5h-641q-19 -50 -27.5 -88.5t-9 -57.5t4.5 -31.5t9 -15.5t9 -4h-792q2 0 5 1.5t10.5 8.5t16.5 19t22.5 35.5t28.5 54.5q34 76 50 117l225 618q19 54 26 110t4 86l-3 29h1484q-2 -12 -3.5 -32.5t5 -79.5
t25.5 -113l225 -618q21 -56 49 -117zM864 295h572l-215 590q-16 38 -33 61.5t-25.5 29t-13.5 5.5q-4 0 -12 -5.5t-25 -29t-33 -61.5zM1561 1473l-33 -31l-25 -29l-16 -20l-103 -136l-16 -20q-12 -15 -18 -27q-6 -10 -9.5 -17.5t-5 -11t-0.5 -3.5h-598q6 0 35 32q17 17 23 27
l16 20l104 136l17 20q9 12 18 29q6 8 10 15.5t5 11.5t0 4h596z" />
    <glyph glyph-name="Acircumflex" unicode="&#xc2;" horiz-adv-x="2301" 
d="M2193 119q53 -111 86 -119h-794q7 0 14.5 9t4 57.5t-33.5 130.5h-641q-19 -50 -27.5 -88.5t-9 -57.5t4.5 -31.5t9 -15.5t9 -4h-792q5 0 13.5 6.5t29 35.5t43.5 77q14 32 47 117l225 618q19 54 26 110t4 86l-3 29h1484q-2 -12 -3 -32.5t6 -79.5t26 -113l223 -618
q21 -56 49 -117zM1802 1210q14 -25 21 -32h-576q1 1 0.5 4t-2.5 11t-6 17l-12 27l-10 23l-68 133v2l-2 -2l-66 -133l-10 -23l-12 -27q-4 -9 -6 -17t-2.5 -11t0.5 -4h-559q3 0 22 32q1 1 6.5 11t7.5 16l11 23l65 133l12 20l11 29l10 31h1040q3 -13 11 -31q4 -15 12 -29
l10 -20l66 -133l12 -23q2 -6 7.5 -16t6.5 -11zM866 295h570l-215 590q-16 38 -33 61.5t-25 29t-12 5.5q-5 0 -13.5 -5.5t-25 -29t-31.5 -61.5z" />
    <glyph glyph-name="Atilde" unicode="&#xc3;" horiz-adv-x="2301" 
d="M2193 119q53 -111 86 -119h-794q7 0 14.5 9t4 57.5t-33.5 130.5h-641q-19 -50 -27.5 -88.5t-9 -57.5t4.5 -31.5t9 -15.5t9 -4h-792q5 0 13.5 6.5t29 35.5t43.5 77q14 32 47 117l225 618q19 54 26 110t4 86l-3 29h1484q-2 -12 -3 -32.5t6 -79.5t26 -113l223 -618
q21 -56 49 -117zM866 295h570l-215 590q-16 38 -33 61.5t-25 29t-12 5.5q-5 0 -13.5 -5.5t-25 -29t-31.5 -61.5zM1612 1491l30 -31l-280 -278l-2 -2q-19 -10 -25 -11l-16 -6q-2 0 -14 -4h-5l-4 -2h-6q-12 -4 -18 -4h-2q-37 -6 -72 -6l-45 4l-31 6q-18 3 -149 35l-31 8
q-97 19 -147 17h-15q-49 -6 -94 -29v2l-31 31l191 190l82 21q2 0 7 1t7 1q20 4 33 4h16q17 0 49 -4l66 -11q19 -4 78 -18.5t90 -20.5q48 -10 84 -10h33h16l33 6q2 0 7 1t7 1l16 7q33 10 62 30q21 13 45 37z" />
    <glyph glyph-name="Adieresis" unicode="&#xc4;" horiz-adv-x="2301" 
d="M2193 119q53 -111 86 -119h-794q7 0 14.5 9t4 57.5t-33.5 130.5h-641q-19 -50 -27.5 -88.5t-9 -57.5t4.5 -31.5t9 -15.5t9 -4h-792q5 0 13.5 6.5t29 35.5t43.5 77q14 32 47 117l225 618q19 54 26 110t4 86l-3 29h1484q-2 -12 -3 -32.5t6 -79.5t26 -113l223 -618
q21 -56 49 -117zM866 295h570l-215 590q-16 38 -33 61.5t-25 29t-12 5.5q-5 0 -13.5 -5.5t-25 -29t-31.5 -61.5zM1004 1362q56 -3 72 -26t16 -68t-16 -68t-72 -26h-410q-56 3 -72 26t-16 68t16 68t72 26h410zM1696 1362q56 -3 72 -26t16 -68t-16 -68t-72 -26h-410
q-56 3 -72 26t-16 68t16 68t72 26h410z" />
    <glyph glyph-name="Aring" unicode="&#xc5;" horiz-adv-x="2299" 
d="M1417 1470q39 -4 64 -20.5t36 -48t14 -61.5t3 -78q0 -70 -8.5 -114t-36.5 -69h403q-2 -12 -3.5 -33t5 -80t25.5 -112l225 -618q18 -53 47 -117q53 -111 86 -119h-792q7 0 14.5 9t4 57.5t-33.5 130.5h-641q-19 -50 -27.5 -88.5t-9 -57.5t4.5 -31.5t9 -15.5t9 -4h-792
q5 0 13.5 6.5t29 35.5t43.5 77q14 32 47 117l225 618q19 53 26 109t4 86l-3 30h401q-27 25 -35 69t-8 114q0 48 3.5 78.5t14 61.5t35 47.5t62.5 20.5v3h536v-3zM864 295h570l-213 590q-35 84 -72 96q-38 -19 -70 -96zM1149 1087q19 0 32.5 5.5t21.5 19t13.5 26.5t7.5 36.5
t2.5 40.5t0.5 47q0 31 -0.5 46t-2.5 39.5t-7 36.5t-13 25.5t-22 19t-33 5.5q-22 0 -36.5 -9t-22 -20.5t-11 -36.5t-4 -41.5t-0.5 -51.5v-13q0 -38 0.5 -56.5t4 -45.5t11 -40t22 -23t36.5 -10z" />
    <glyph glyph-name="AE" unicode="&#xc6;" horiz-adv-x="2678" 
d="M2550 98q4 0 10.5 -0.5t23.5 -6t30 -14.5t24 -29.5t12 -47.5h-1499q27 43 41 115q8 62 8 102v272h-264l-72 -194l-35 -98q-19 -50 -27.5 -88.5t-9 -57.5t4.5 -31.5t9 -15.5t9 -4h-792q6 0 19 12t48.5 76t75.5 172q0 4 2 6l295 813h2195q-1 -27 -12 -47.5t-26 -29.5
t-29.5 -14.5t-24.5 -5.5l-10 -1h-789v-393h492q8 0 20 -1.5t38.5 -13.5t39.5 -34q-13 -21 -37.5 -33.5t-42.5 -14.5l-18 -2h-492v-391h783zM971 586h229v190q0 58 -2.5 98.5t-7.5 61.5t-11.5 33t-14 12.5t-15.5 -0.5q-4 -1 -10.5 -4.5t-25 -27.5t-34.5 -64z" />
    <glyph glyph-name="Ccedilla" unicode="&#xc7;" horiz-adv-x="1806" 
d="M1006 981q-30 0 -54.5 -5.5t-43.5 -18.5t-34 -26t-25.5 -37.5t-18.5 -42.5t-12.5 -51.5t-7 -54.5t-4 -61.5t-1.5 -62.5v-67v-13q0 -197 15 -273q30 -141 135 -165q23 -5 51 -5h680q4 0 10.5 -0.5t23.5 -6t30 -14.5t24 -29.5t12 -47.5h-545v-4h-326q-71 0 -72 -32
q-1 -22 26 -36q2 -1 5 -2l123 -45l45 -18l17 -6l59 -23q123 -44 123 -158q0 -49 -37 -80.5t-86 -31.5h-567q0 19 10.5 30t21.5 12l11 1h280q72 0 74 31q1 21 -26 35q-3 2 -7 3l-61 23l-59 22l-47 19l-15 4l-61 23q-121 48 -121 159q0 45 29 74h-265v2q-58 5 -103 23.5
t-76 44t-53 66.5t-34 81t-18.5 98.5t-8.5 107t-2 118.5q0 69 2 117.5t8.5 106.5t18.5 97.5t34 80.5t53 66.5t76 44t103 23.5v2h1471q-1 -27 -11.5 -47.5t-25 -29.5t-29 -14.5t-24.5 -5.5l-10 -1h-680z" />
    <glyph glyph-name="Egrave" unicode="&#xc8;" horiz-adv-x="1767" 
d="M1741 0h-1718l2 2l12 29q16 37 24 84v4l5 16v8q6 35 6 74v647q0 48 -11 101q-2 10 -14 59l-6 14q-7 22 -16 35l-2 4l-3 2h1727q0 -20 -6 -32q-5 -16 -6 -17q0 -2 -2 -4l-9 -12q-16 -17 -41 -27h-2q-2 -1 -5.5 -2t-4.5 -2h-6q-6 -2 -12 -2h-6h-791v-391h492q6 0 14 -2
q7 0 31 -8q4 0 6 -2l14 -7q8 -4 12 -8l7 -4l10 -12l4 -6l-4 -9l-10 -12l-11 -6q-9 -9 -22 -12q-2 -2 -6 -2l-19 -6q-4 0 -11 -1t-9 -1h-6h-492v-394h782h7q4 0 8 -2q6 0 10 -2q4 0 6 -2q6 0 14 -4l13 -6l2 -2q30 -22 37 -47l6 -27v-6zM481 1470l-2 3h592q-1 -1 -0.5 -3.5
t3 -9.5t7.5 -14l4 -4q3 -10 13 -23l6 -6l16 -20l103 -136l16 -20l12 -16l6 -7q0 -1 2 -2q1 -1 1.5 -1t1.5 -1l16 -18l14 -14h2h-589q-1 2 -3 10l-4 8l-6 10q-2 2 -2 4q-6 12 -18 27l-17 20l-102 136l-16 20l-7 6l-6 8l-10 13v2l-16 16z" />
    <glyph glyph-name="Eacute" unicode="&#xc9;" horiz-adv-x="1767" 
d="M23 0h1718q-1 27 -12 47.5t-26 29.5t-30 14.5t-25 6.5h-10h-782v394h492q8 0 20.5 1.5t39 13.5t38.5 34q-12 21 -36.5 33t-43.5 14l-18 2h-492v391h791q4 0 10.5 0.5t23.5 6t30 14.5t24 29.5t12 47.5h-1727q3 -1 10.5 -14t16.5 -40.5t14 -59.5q11 -53 11 -101v-647
q0 -45 -11 -102q-5 -32 -14.5 -60.5t-16.5 -41.5zM1298 1473l-32 -31q-14 -14 -23 -29l-16 -20l-105 -136l-16 -20q-15 -18 -19 -27q-6 -9 -9.5 -17t-4.5 -11.5t0 -3.5h-598q6 0 35 32l25 27l16 20l102 136l17 20q9 12 18 29q6 8 9.5 15.5t4.5 11.5t0 4h596z" />
    <glyph glyph-name="Ecircumflex" unicode="&#xca;" horiz-adv-x="1767" 
d="M1741 0h-1718q26 43 38 115q11 57 11 102v647q0 48 -11 101q-5 32 -14 59.5t-16.5 40.5t-10.5 14h1727q-1 -27 -11.5 -47.5t-25 -29.5t-29 -14.5t-24.5 -5.5l-10 -1h-791v-391h492q8 0 20.5 -1.5t39 -14t38.5 -33.5q-12 -22 -36.5 -34t-43.5 -13l-18 -2h-492v-394h782
q4 0 10.5 -0.5t24 -6t31 -14.5t25 -29.5t12.5 -47.5zM1561 1174h-586q2 0 -8 32l-15 27l-10 22l-70 138l13 20l14 29q21 31 23 31h491q2 -13 10 -31q3 -13 13 -29l10 -22l67 -136l11 -22l16 -27q16 -32 21 -32zM205 1174q3 0 22 32l17 27l10 22l68 136l10 22l12 29l10 31
h471q6 0 23 -31q3 -4 8.5 -14.5t7.5 -14.5l8 -20v-2l-65 -136l-12 -22l-13 -27q-4 -9 -6 -17t-2.5 -11t0.5 -4h-569z" />
    <glyph glyph-name="Edieresis" unicode="&#xcb;" horiz-adv-x="1806" 
d="M23 0h1718q-1 27 -12 47.5t-26 29.5t-30 14.5t-25 6.5h-10h-782v394h492q8 0 20.5 1.5t39 13.5t38.5 34q-12 21 -36.5 33t-43.5 14l-18 2h-492v391h791q4 0 10.5 0.5t23.5 6t30 14.5t24 29.5t12 47.5h-1727q3 -1 10.5 -14t16.5 -40.5t14 -59.5q11 -53 11 -101v-647
q0 -45 -11 -102q-5 -32 -14.5 -60.5t-16.5 -41.5zM1784 1473l-33 -31l-25 -29l-16 -20l-104 -136l-17 -22q-12 -15 -18 -27q-6 -10 -9.5 -17.5t-5 -11t-0.5 -3.5h-604q6 0 35 32l25 27l16 22l105 136l16 20q9 12 18 29l17 31h600zM20 1473q17 -13 35 -31l23 -29l16 -20
l105 -136l16 -22q3 -4 9.5 -13.5t8.5 -13.5q6 -10 9.5 -17.5t5 -11t0.5 -3.5h596q-7 0 -33 32q-17 17 -23 27l-16 22l-104 136l-17 20q-9 12 -18 29q-6 8 -10 15.5t-5 11.5t0 4h-598z" />
    <glyph glyph-name="Igrave" unicode="&#xcc;" 
d="M852 115q5 -32 14.5 -59.5t16 -40.5t10.5 -15h-891q3 1 10.5 14.5t16 41t14.5 59.5q4 19 8 57v735q-4 40 -8 58q-5 31 -14.5 58t-16 40.5t-10.5 15.5h891q-3 -1 -10 -14t-16 -40.5t-15 -59.5q-8 -58 -8 -101v-647q0 -40 8 -102zM39 1473h592q2 -13 14 -31l19 -29l16 -20
l102 -136l17 -20l24 -27q7 -9 15.5 -17t13.5 -11l4 -4h-592q1 0 0 3.5t-4.5 11.5t-9.5 17q-4 9 -19 27l-16 20l-102 136l-17 20q-3 3 -10 13.5t-12 15.5z" />
    <glyph glyph-name="Iacute" unicode="&#xcd;" 
d="M850 115q5 -32 14.5 -59.5t16 -40.5t10.5 -15h-891q3 1 10.5 14.5t16 41t14.5 59.5q4 19 8 57v735q-4 40 -8 58q-5 31 -14.5 58t-16 40.5t-10.5 15.5h891q-3 -1 -10 -14t-16 -40.5t-15 -59.5q-8 -58 -8 -101v-647q0 -40 8 -102zM856 1473l-33 -31l-22 -29l-17 -20
l-104 -136l-16 -20q-15 -18 -19 -27q-6 -9 -9.5 -17t-4.5 -11.5t0 -3.5h-596q15 12 33 32l24 27l17 20l102 136l16 20l21 29l14 31h594z" />
    <glyph glyph-name="Icircumflex" unicode="&#xce;" 
d="M858 115q5 -32 13.5 -59.5t15 -40.5t10.5 -15h-889q3 1 10.5 14.5t16 41t14.5 59.5q4 19 8 57v735q-4 40 -8 58q-5 31 -14.5 58t-16 40.5t-10.5 15.5h889q-3 -1 -9.5 -14t-15.5 -40.5t-14 -59.5q-8 -39 -8 -101v-647q0 -61 8 -102zM1130 1174h-585q1 1 0.5 4t-2.5 11
t-6 17l-13 27l-12 22l-70 138l13 20l14 29l23 31h491q2 -13 10 -31q3 -13 13 -29l10 -22l67 -136l11 -22l16 -27q16 -32 20 -32zM-223 1174q10 12 20 32l17 27l10 22l67 136l11 22l12 29l10 31h473q11 -13 21 -31q3 -4 8.5 -14.5t7.5 -14.5l8 -20v-2l-65 -136l-12 -22
l-13 -27q-10 -32 -8 -32h-567z" />
    <glyph glyph-name="Idieresis" unicode="&#xcf;" horiz-adv-x="925" 
d="M858 115q5 -32 14.5 -59.5t16 -40.5t10.5 -15h-891q4 1 11.5 14.5t16 40.5t15.5 60l6 57v735l-6 58q-10 46 -23 78t-20 36h891q-3 -1 -10 -14t-16 -40.5t-15 -59.5q-8 -58 -8 -101v-647q0 -40 8 -102zM999 1362q56 -3 72 -26t16 -68t-16 -68t-72 -26h-409q-56 3 -72 26
t-16 68t16 68t72 26h409zM317 1362q56 -3 72.5 -26t16.5 -68t-16.5 -68t-72.5 -26h-409q-56 3 -72 26t-16 68t16 68t72 26h409z" />
    <glyph glyph-name="Eth" unicode="&#xd0;" horiz-adv-x="2220" 
d="M20 631h117v231q0 53 -10 101q-5 32 -14.5 59.5t-16 41t-10.5 15.5h1624q207 -19 348.5 -174t141.5 -366q0 -210 -142 -365t-348 -174h-1624q3 1 10.5 14.5t16 41t14.5 59.5q10 52 10 102v227h-117v187zM1120 98q169 15 285.5 142.5t116.5 298.5q0 173 -116.5 300
t-285.5 142h-198v-350h182v-187h-182v-346h198z" />
    <glyph glyph-name="Ntilde" unicode="&#xd1;" 
d="M623 115q13 -32 20.5 -60t7 -39t-1.5 -16h920h-2h2q-3 1 -10 14.5t-16 41t-15 59.5l-6 57v735l6 56q5 32 14.5 59.5t16 41t10.5 15.5h-250q4 -1 11.5 -14.5t16 -40.5t15.5 -61q8 -58 8 -101v-618l-397 663q-24 48 -27 56q-14 32 -22 60.5t-7.5 39.5t1.5 16h-918
q4 -1 10.5 -14t16 -41t14.5 -61q10 -48 10 -101v-645q0 -50 -10 -102q-5 -32 -14.5 -59.5t-16 -40.5t-10.5 -15h250q-2 0 -9.5 13t-17 41t-14.5 61q-4 19 -8 57v659l28 -47l295 -489l47 -78q36 -62 52 -102zM1264 1491l30 -31l-280 -278l-2 -2q-19 -10 -25 -11l-10 -4
q-4 0 -6 -2q-3 0 -15 -4h-4l-4 -2h-6q-1 0 -2 -1t-2 -1q-2 0 -7 -1t-7 -1h-2q-38 -6 -72 -6q-3 0 -8 1t-8 1q-5 0 -14.5 1t-14.5 1q-37 5 -135 31l-76 18q-3 0 -7.5 1t-6.5 1q-38 8 -60 10q-35 5 -45 5h-29q-4 0 -13.5 -1.5t-14.5 -1.5q-4 -2 -12 -2l-41 -12l-27 -12v2
l-31 31l191 190l82 21l47 6q42 0 65 -4q26 -3 49 -9q3 0 9 -1t8 -1q19 -4 78 -18.5t90 -20.5l18 -4q20 -4 33 -4q45 -4 65 -2q23 0 33 2l17 4q10 1 47 15l14 6l16 8q39 28 45 33l15 14z" />
    <glyph glyph-name="Ograve" unicode="&#xd2;" horiz-adv-x="2004" 
d="M1688 1079q58 -5 103 -23.5t76 -44t52.5 -67t33.5 -81t19 -98t8.5 -106.5t1.5 -118t-1.5 -118.5t-8.5 -107.5t-19 -98.5t-33.5 -81t-52.5 -67.5t-76 -44.5t-103 -23.5h-1373q-58 5 -103 23.5t-76 44.5t-53 67t-34 81t-18.5 99t-8.5 107.5t-2 118.5q0 69 2 117.5t8.5 107
t18.5 98t34 81t53 67t76 44t103 23.5h1373zM1001 98q41 0 72 12.5t52 31.5t36 53.5t23 67t12 84t5 91.5t1 103q0 80 -1 119t-6.5 101.5t-18 93t-34 65t-57 48t-84.5 13.5q-47 0 -81 -13t-54.5 -45t-32.5 -60.5t-17 -88t-6 -96t-1 -113.5v-24q0 -205 15 -280
q27 -132 122 -157q25 -6 55 -6zM594 1473h592q-1 0 0 -4t4.5 -11.5t9.5 -15.5q7 -14 19 -29l16 -20l102 -136l17 -20l22 -27q26 -32 33 -32h-590q1 0 0 3.5t-4.5 11.5t-9.5 17q-4 9 -19 27l-16 20l-102 136l-17 20l-22 29z" />
    <glyph glyph-name="Oacute" unicode="&#xd3;" horiz-adv-x="2004" 
d="M1673 1079q58 -5 103 -23.5t76 -44t53 -67t34 -81t18.5 -98t8.5 -107t2 -117.5q0 -70 -2 -118.5t-8.5 -107.5t-18.5 -99t-34 -81t-53 -67t-76 -44.5t-103 -23.5h-1372q-58 5 -103 23.5t-76 44.5t-53 67t-34 81t-18.5 99t-8.5 107.5t-2 118.5q0 69 2 117.5t8.5 107
t18.5 98t34 81t53 67t76 44t103 23.5h1372zM987 98q41 0 72 12.5t52 31.5t36 53.5t23 67t12 84t5 91.5t1 103q0 80 -1 119t-6.5 101.5t-18 93t-34 65t-57 48t-84.5 13.5q-47 0 -81 -13t-54.5 -45t-32.5 -60.5t-17 -88t-6 -96t-1 -113.5v-24q0 -205 15 -280q27 -132 122 -157
q25 -6 55 -6zM1413 1473q-15 -13 -33 -31l-24 -29l-17 -20l-102 -136l-16 -20q-15 -18 -19 -27l-16 -32h-596q6 0 35 32l22 27l17 20l104 136l16 20q12 15 19 29q6 8 9.5 15.5t4.5 11.5t0 4h596z" />
    <glyph glyph-name="Ocircumflex" unicode="&#xd4;" horiz-adv-x="2004" 
d="M1673 1079q58 -5 103 -23.5t76 -44t53 -67t34 -81t18.5 -98t8.5 -107t2 -117.5q0 -70 -2 -118.5t-8.5 -107.5t-18.5 -99t-34 -81t-53 -67t-76 -44.5t-103 -23.5h-1372q-58 5 -103 23.5t-76 44.5t-53 67t-34 81t-18.5 99t-8.5 107.5t-2 118.5q0 69 2 117.5t8.5 107
t18.5 98t34 81t53 67t76 44t103 23.5h1372zM1657 1210q15 -27 20 -32h-575q1 1 0.5 4t-2.5 11t-6 17l-13 27l-10 23l-67 133v2l-3 -2l-65 -133l-10 -23l-13 -27q-4 -9 -6 -17t-2.5 -11t0.5 -4h-559q4 0 23 32q1 1 6.5 11t7.5 16l10 23l66 133l12 20l10 29l11 31h1040
q2 -13 10 -31q4 -15 12 -29l11 -20l65 -133l12 -23q2 -6 8 -15t7 -12zM987 98q41 0 72 12.5t52 31.5t36 53.5t23 67t12 84t5 91.5t1 103q0 80 -1 119t-6.5 101.5t-18 93t-34 65t-57 48t-84.5 13.5q-47 0 -81 -13t-54.5 -45t-32.5 -60.5t-17 -88t-6 -96t-1 -113.5v-24
q0 -205 15 -280q27 -132 122 -157q25 -6 55 -6z" />
    <glyph glyph-name="Otilde" unicode="&#xd5;" horiz-adv-x="2004" 
d="M1673 1079q58 -5 103 -23.5t76 -44t53 -67t34 -81t18.5 -98t8.5 -107t2 -117.5q0 -70 -2 -118.5t-8.5 -107.5t-18.5 -99t-34 -81t-53 -67t-76 -44.5t-103 -23.5h-1372q-58 5 -103 23.5t-76 44.5t-53 67t-34 81t-18.5 99t-8.5 107.5t-2 118.5q0 69 2 117.5t8.5 107
t18.5 98t34 81t53 67t76 44t103 23.5h1372zM987 98q41 0 72 12.5t52 31.5t36 53.5t23 67t12 84t5 91.5t1 103q0 80 -1 119t-6.5 101.5t-18 93t-34 65t-57 48t-84.5 13.5q-47 0 -81 -13t-54.5 -45t-32.5 -60.5t-17 -88t-6 -96t-1 -113.5v-24q0 -205 15 -280q27 -132 122 -157
q25 -6 55 -6zM1530 1491l31 -31l-281 -278l-2 -2q-19 -10 -25 -11l-10 -4q-4 0 -12 -4q-6 0 -8 -2h-4l-5 -2q-6 0 -10 -2q-2 0 -7 -1t-7 -1h-2q-20 -4 -29 -4q-14 -2 -43 -2q-3 0 -8 1t-8 1q-49 4 -164 33l-45 10l-31 8q-38 9 -74 12q-35 5 -45 5h-28h-15q-49 -6 -94 -29v2
l-31 31l191 190l82 21q51 8 112 2q11 0 17 -2l33 -7q8 -1 84 -18q14 -5 34 -8l50 -13q81 -14 133 -12q22 0 32 2l17 4q2 0 7 1t7 1l17 7q14 3 47 20q39 28 45 33l14 14z" />
    <glyph glyph-name="Odieresis" unicode="&#xd6;" horiz-adv-x="2004" 
d="M1673 1079q58 -5 103 -23.5t76 -44t53 -67t34 -81t18.5 -98t8.5 -107t2 -117.5q0 -70 -2 -118.5t-8.5 -107.5t-18.5 -99t-34 -81t-53 -67t-76 -44.5t-103 -23.5h-1372q-58 5 -103 23.5t-76 44.5t-53 67t-34 81t-18.5 99t-8.5 107.5t-2 118.5q0 69 2 117.5t8.5 107
t18.5 98t34 81t53 67t76 44t103 23.5h1372zM987 98q41 0 72 12.5t52 31.5t36 53.5t23 67t12 84t5 91.5t1 103q0 80 -1 119t-6.5 101.5t-18 93t-34 65t-57 48t-84.5 13.5q-47 0 -81 -13t-54.5 -45t-32.5 -60.5t-17 -88t-6 -96t-1 -113.5v-24q0 -205 15 -280q27 -132 122 -157
q25 -6 55 -6zM840 1362q56 -3 72 -26t16 -68t-16 -68t-72 -26h-410q-56 3 -72 26t-16 68t16 68t72 26h410zM1532 1362q56 -3 72 -26t16 -68t-16 -68t-72 -26h-410q-56 3 -72 26t-16 68t16 68t72 26h410z" />
    <glyph glyph-name="multiply" unicode="&#xd7;" horiz-adv-x="980" 
d="M104 913l68 66l315 -317l318 317l67 -66l66 -67l-317 -318l317 -315l-68 -68l-65 -63l-316 315l-317 -317l-133 133l317 317l-317 318z" />
    <glyph glyph-name="Oslash" unicode="&#xd8;" horiz-adv-x="2004" 
d="M1690 1079q103 -9 168 -61l127 61v-133l-52 -24q52 -113 52 -381q0 -69 -2 -118.5t-8.5 -107.5t-19 -98.5t-34.5 -81.5t-52.5 -67t-75.5 -44.5t-103 -23.5h-1375q-108 9 -170 59l-125 -59v133l52 25q-32 67 -42 157.5t-10 225.5q0 69 2 117.5t8.5 107t18.5 98t34 81
t53 67t76 44t103 23.5h1375zM809 541v-29l391 188q-7 138 -49.5 209.5t-149.5 71.5q-47 0 -81 -13t-54.5 -45t-32.5 -60.5t-17 -88t-6 -96t-1 -113.5v-24zM1001 98q41 0 72.5 12.5t52.5 31.5t36 54t22.5 66.5t11.5 84t5 91.5t1 103v28l-391 -188q3 -68 12 -115t29.5 -87.5
t57 -60.5t91.5 -20z" />
    <glyph glyph-name="Ugrave" unicode="&#xd9;" horiz-adv-x="2080" 
d="M2034 862v-323q0 -69 -2 -117.5t-8.5 -107t-18.5 -98.5t-34 -81t-53 -67t-76 -44.5t-103 -23.5h-1372q-58 5 -103 23.5t-76 44.5t-53 67t-34 81t-18.5 98.5t-8.5 107t-2 117.5v323q0 46 -11 103q-5 32 -14 59.5t-16.5 40.5t-10.5 14h836v-796q15 -82 59.5 -128t137.5 -55
q93 9 137 54.5t59 128.5v796h834q-4 -2 -10.5 -15.5t-16 -40.5t-14.5 -58q-8 -62 -8 -103zM645 1473h592q-1 0 0 -4t4.5 -11.5t9.5 -15.5q7 -14 19 -29l16 -20l103 -136l16 -20l22 -27q26 -32 33 -32h-590q1 0 0 3.5t-4.5 11.5t-9.5 17q-6 12 -18 27l-17 20l-102 136l-17 20
l-22 29z" />
    <glyph glyph-name="Uacute" unicode="&#xda;" horiz-adv-x="2084" 
d="M2034 539v323q0 41 8 103q5 31 14.5 58t16 40.5t10.5 15.5h-834v-796q-15 -83 -59 -128.5t-137 -54.5q-93 9 -137.5 55t-59.5 128v796h-836q3 -1 10.5 -14t16.5 -40.5t14 -59.5q11 -57 11 -103v-323q0 -69 2 -117.5t8.5 -107t18.5 -98.5t34 -81t53 -67t76 -44.5
t103 -23.5h1372q58 5 103 23.5t76 44.5t53 67t34 81t18.5 98.5t8.5 107t2 117.5zM1460 1473l-33 -31l-22 -29l-16 -20l-103 -136l-18 -20l-19 -27q-6 -9 -9.5 -17t-4.5 -11.5t0 -3.5h-596q17 12 33 32l24 27l17 20l102 136l16 20l21 29q5 8 8.5 16t4.5 12l1 3h594z" />
    <glyph glyph-name="Ucircumflex" unicode="&#xdb;" horiz-adv-x="2084" 
d="M2034 862v-323q0 -69 -2 -117.5t-8.5 -107t-18.5 -98.5t-34 -81t-53 -67t-76 -44.5t-103 -23.5h-1372q-58 5 -103 23.5t-76 44.5t-53 67t-34 81t-18.5 98.5t-8.5 107t-2 117.5v323q0 46 -11 103q-5 32 -14 59.5t-16.5 40.5t-10.5 14h836v-796q15 -82 59.5 -128t137.5 -55
q93 9 137 54.5t59 128.5v796h834q-4 -2 -10.5 -15.5t-16 -40.5t-14.5 -58q-8 -62 -8 -103zM1710 1174h-586q-2 12 -10 32l-12 27l-10 22l-70 138l10 20l15 29l22 31h492q2 -13 10 -31l12 -29l10 -22l68 -136l12 -22q2 -6 8 -15t7 -12zM354 1174q11 12 23 32q1 2 6.5 11.5
t7.5 15.5l10 22l68 136l10 22q10 16 13 29l10 31h473q10 -13 22 -31l15 -29l10 -20l-68 -138l-10 -22q-9 -15 -12 -27l-10 -32h-568z" />
    <glyph glyph-name="Udieresis" unicode="&#xdc;" horiz-adv-x="2105" 
d="M2034 539v323q0 41 8 103q5 31 14.5 58t16 40.5t10.5 15.5h-834v-796q-15 -83 -59 -128.5t-137 -54.5q-93 9 -137.5 55t-59.5 128v796h-836q3 -1 10.5 -14t16.5 -40.5t14 -59.5q11 -57 11 -103v-323q0 -69 2 -117.5t8.5 -107t18.5 -98.5t34 -81t53 -67t76 -44.5
t103 -23.5h1372q58 5 103 23.5t76 44.5t53 67t34 81t18.5 98.5t8.5 107t2 117.5zM1862 1362q56 -3 72 -26t16 -68t-16 -68t-72 -26h-410q-56 3 -72 26t-16 68t16 68t72 26h410zM635 1362q56 -3 72 -26t16 -68t-16 -68t-72 -26h-410q-56 3 -72 26t-16 68t16 68t72 26h410z
" />
    <glyph glyph-name="Yacute" unicode="&#xdd;" 
d="M2247 1079q-21 -2 -52 -26t-52 -47l-21 -23l-86 -102q-95 -113 -229 -302t-218 -315t-88 -135q-63 -109 -110 -184t-111.5 -164.5t-133.5 -160t-145 -124.5v-2q-2 0 -2 -2l-79 -53q-72 -46 -181 -96h-1104v71h160q117 0 216.5 25.5t174 68.5t144.5 110t122.5 138.5
t112.5 166.5t109.5 181.5t120 195.5t137.5 198h-420l-403 485q-51 62 -119 96h850q-3 -2 -7 -5t-13.5 -12.5t-14 -20t-3 -26.5t14.5 -32l256 -315l193 223l75 92l78 96h828zM1757 1473l-33 -31l-22 -29l-16 -20l-166 -215h-584q17 12 35 32l22 27l17 20l102 136l16 20l21 29
q5 8 8.5 15.5t4.5 11.5l1 4h594z" />
    <glyph glyph-name="Thorn" unicode="&#xde;" horiz-adv-x="1945" 
d="M1630 834q122 0 208.5 -87t86.5 -208t-86.5 -207t-208.5 -86h-770v-31q0 -38 8 -100q6 -33 15.5 -61t17 -41t10.5 -13h-2h-49h-29h-69h-103h-391h-100h-68h-30h-50v0q2 0 9.5 13t17 41t14.5 61q6 27 9 57v733q-3 32 -9 58q-5 33 -14.5 61t-16.5 40.5t-10 12.5v0h50h36h62
h100h391h103h61h37h49h2q-3 0 -10.5 -13t-17 -40.5t-15.5 -60.5q-8 -58 -8 -101v-28h277h493zM1137 342q82 0 139 57.5t57 139.5t-57 139t-139 57h-277v-393h277z" />
    <glyph glyph-name="germandbls" unicode="&#xdf;" horiz-adv-x="2097" 
d="M1782 731q64 -7 113.5 -26.5t92.5 -57t66 -102.5t23 -154v-98q0 -123 -71.5 -198.5t-174.5 -90.5q-28 -4 -43 -4h-787q1 27 11.5 47.5t25 29.5t29.5 14.5t25 6.5h10h487q45 0 77.5 5.5t60.5 19t42.5 40.5t14.5 66q0 30 -20 52.5t-49 34t-57.5 18.5t-48.5 8l-20 2h-196
q-101 0 -149.5 24t-71 94.5t-23.5 215.5v78q-1 47 -5 82.5t-8.5 59.5t-16 39.5t-20 24t-27 12.5t-30.5 4.5t-38 0.5h-5q-27 0 -39.5 -0.5t-32 -5t-28 -14t-19.5 -27t-15 -44t-7 -65.5t-2 -92v-516q0 -38 8 -100q5 -32 14.5 -59.5t16 -40.5t10.5 -15h-882q3 1 10 14.5
t15.5 41t14.5 59.5q11 57 11 100v274q-2 17 0 19v180q0 173 131 291q112 98 260 98h780q52 0 89.5 -12t58 -29.5t32 -48t14.5 -58.5t3 -69q0 -79 30.5 -102t116.5 -23h99q32 0 94 -4z" />
    <glyph glyph-name="agrave" unicode="&#xe0;" horiz-adv-x="2058" 
d="M1946 260q10 -64 22 -113.5t22 -76t20 -43.5t16 -21.5t10 -5.5h-793q3 1 8.5 14.5t11 41t7.5 59.5q0 20 -4 82h-367q-8 -31 -8 -82q-1 -32 2 -59.5t6.5 -40.5t5.5 -15h-885q4 1 13.5 14.5t25 41t27.5 59.5q3 14 16 57l150 735l4 56q1 32 -2.5 59.5t-8 41t-7.5 15.5h1577
l131 -813v-6zM371 1473h592q-1 0 0 -4t4.5 -11.5t9.5 -15.5q9 -17 18 -29l17 -20l102 -136l16 -20l23 -27q26 -32 33 -32h-590q1 0 0 3.5t-4.5 11.5t-9.5 17q-4 9 -19 27l-16 20l-103 136l-16 20l-22 29zM918 295h337l-96 590q-21 96 -51 96q-9 0 -23 -12q-15 -12 -29 -44.5
t-21 -58.5l-7 -26l-12 -56z" />
    <glyph glyph-name="aacute" unicode="&#xe1;" horiz-adv-x="2058" 
d="M1946 260q10 -64 22 -113.5t22 -76t20 -43.5t16 -21.5t10 -5.5h-793q3 1 8.5 14.5t11 41t7.5 59.5q0 20 -4 82h-367q-8 -31 -8 -82q-1 -32 2 -59.5t6.5 -40.5t5.5 -15h-885q4 1 13.5 14.5t25 41t27.5 59.5q3 14 16 57l150 735l4 56q1 32 -2.5 59.5t-8 41t-7.5 15.5h1577
l131 -813v-6zM1292 1473l-32 -31l-25 -29l-16 -20l-103 -136l-16 -20q-15 -18 -19 -27q-6 -9 -9.5 -17t-4.5 -11.5t0 -3.5h-598q6 0 35 32q14 14 22 27l17 20l104 136l17 20q9 12 18 29q6 8 9.5 15.5t4.5 11.5t0 4h596zM918 295h337l-96 590q-21 96 -51 96q-9 0 -23 -12
q-15 -12 -29 -44.5t-21 -58.5l-7 -26l-12 -56z" />
    <glyph glyph-name="acircumflex" unicode="&#xe2;" horiz-adv-x="2058" 
d="M1946 260q10 -64 22 -113.5t22 -76t20 -43.5t16 -21.5t10 -5.5h-793q3 1 8.5 14.5t11 41t7.5 59.5q0 20 -4 82h-367q-8 -31 -8 -82q-1 -32 2 -59.5t6.5 -40.5t5.5 -15h-885q4 1 13.5 14.5t25 41t27.5 59.5q3 14 16 57l150 735l4 56q1 32 -2.5 59.5t-8 41t-7.5 15.5h1577
l131 -813v-6zM1434 1210q15 -27 20 -32h-575q1 0 0.5 3.5t-3 11t-6.5 17.5l-12 27l-10 23l-68 133v2l-2 -2l-65 -133l-11 -23l-12 -27q-4 -9 -6 -17t-2.5 -11t0.5 -4h-559q3 0 22 32q1 3 7 12t8 15l10 23l66 133l12 20l10 29l10 31h1041q2 -13 10 -31q4 -15 12 -29l10 -20
l66 -133l12 -23q2 -6 8 -15t7 -12zM918 295h337l-96 590q-21 96 -51 96q-9 0 -23 -12q-15 -12 -29 -44.5t-21 -58.5l-7 -26l-12 -56z" />
    <glyph glyph-name="atilde" unicode="&#xe3;" horiz-adv-x="2058" 
d="M1946 260q10 -64 22 -113.5t22 -76t20 -43.5t16 -21.5t10 -5.5h-793q3 1 8.5 14.5t11 41t7.5 59.5q0 20 -4 82h-367q-8 -31 -8 -82q-1 -32 2 -59.5t6.5 -40.5t5.5 -15h-885q4 1 13.5 14.5t25 41t27.5 59.5q3 14 16 57l150 735l4 56q1 32 -2.5 59.5t-8 41t-7.5 15.5h1577
l131 -813v-6zM1305 1491l30 -31l-280 -278l-2 -2l-35 -15q-4 0 -12 -4q-7 0 -9 -2h-4l-4 -2h-6q-1 0 -2 -1t-2 -1q-2 0 -7 -1t-7 -1h-2q-37 -6 -72 -6q-3 0 -8.5 1t-8.5 1q-15 0 -43 4l-16 4q-57 11 -59 12q-16 3 -46 11.5t-44 11.5q-156 42 -248 12l-39 -16v2l-31 31
l191 190l82 21q30 6 63 6q32 0 66 -6l32 -7q24 -3 52 -10q8 -3 32 -8q12 -4 17 -4q12 -4 18 -4l49 -13l35 -6q20 -4 33 -4q49 -6 98 0l31 6q45 11 92 48q25 20 31 26zM918 295h337l-96 590q-21 96 -51 96q-9 0 -23 -12q-15 -12 -29 -44.5t-21 -58.5l-7 -26l-12 -56z" />
    <glyph glyph-name="adieresis" unicode="&#xe4;" horiz-adv-x="2058" 
d="M1946 260q10 -64 22 -113.5t22 -76t20 -43.5t16 -21.5t10 -5.5h-793q3 1 8.5 14.5t11 41t7.5 59.5q0 20 -4 82h-367q-8 -31 -8 -82q-1 -32 2 -59.5t6.5 -40.5t5.5 -15h-885q4 1 13.5 14.5t25 41t27.5 59.5q3 14 16 57l150 735l4 56q1 32 -2.5 59.5t-8 41t-7.5 15.5h1577
l131 -813v-6zM918 295h337l-96 590q-21 96 -51 96q-9 0 -23 -12q-15 -12 -29 -44.5t-21 -58.5l-7 -26l-12 -56zM956 1362q56 -3 72 -26t16 -68t-16 -68t-72 -26h-409q-56 3 -72 26t-16 68t16 68t72 26h409zM1649 1362q56 -3 72 -26t16 -68t-16 -68t-72 -26h-410
q-56 3 -72 26t-16 68t16 68t72 26h410z" />
    <glyph glyph-name="aring" unicode="&#xe5;" horiz-adv-x="2058" 
d="M1946 260q10 -64 22 -113.5t22 -76t20 -43.5t16 -21.5t10 -5.5h-793q3 1 8.5 14.5t11 41t7.5 59.5q0 20 -4 82h-367q-8 -31 -8 -82q-1 -32 2 -59.5t6.5 -40.5t5.5 -15h-885q4 1 13.5 14.5t25 41t27.5 59.5q3 14 16 57l150 735l4 56q1 32 -2.5 59.5t-8 41t-7.5 15.5h514
q-27 25 -35 69t-8 114q0 48 3 78t14 61.5t35 48t62 20.5v3h537v-3q39 -4 64 -20.5t36 -48t14 -61.5t3 -78q0 -70 -8.5 -114t-36.5 -69h383l131 -813v-6zM918 295h337l-96 590q-21 96 -51 96q-9 0 -23 -12q-15 -12 -29 -44.5t-21 -58.5l-7 -26l-12 -56zM1018 1262
q0 -54 11 -94t28 -57.5t36.5 -17.5t36.5 18t28 57.5t11 93.5q0 32 -0.5 46t-2 39.5t-6.5 37t-13.5 25t-22 19t-32.5 5.5q-22 0 -36.5 -9t-22 -20.5t-11 -36.5t-4 -41.5t-0.5 -51.5v-13z" />
    <glyph glyph-name="ae" unicode="&#xe6;" horiz-adv-x="2678" 
d="M2550 98q4 0 10.5 -0.5t23.5 -6t30 -14.5t24 -29.5t12 -47.5h-1499q27 43 41 115q8 62 8 102v272h-264l-72 -194l-35 -98q-19 -50 -27.5 -88.5t-9 -57.5t4.5 -31.5t9 -15.5t9 -4h-792q6 0 19 12t48.5 76t75.5 172q0 4 2 6l295 813h2195q-1 -27 -12 -47.5t-26 -29.5
t-29.5 -14.5t-24.5 -5.5l-10 -1h-789v-393h492q8 0 20 -1.5t38.5 -13.5t39.5 -34q-13 -21 -37.5 -33.5t-42.5 -14.5l-18 -2h-492v-391h783zM971 586h229v190q0 58 -2.5 98.5t-7.5 61.5t-11.5 33t-14 12.5t-15.5 -0.5q-4 -1 -10.5 -4.5t-25 -27.5t-34.5 -64z" />
    <glyph glyph-name="ccedilla" unicode="&#xe7;" horiz-adv-x="1806" 
d="M1006 981q-30 0 -54.5 -5.5t-43.5 -18.5t-34 -26t-25.5 -37.5t-18.5 -42.5t-12.5 -51.5t-7 -54.5t-4 -61.5t-1.5 -62.5v-67v-13q0 -197 15 -273q30 -141 135 -165q23 -5 51 -5h680q4 0 10.5 -0.5t23.5 -6t30 -14.5t24 -29.5t12 -47.5h-545v-4h-326q-71 0 -72 -32
q-1 -22 26 -36q2 -1 5 -2l123 -45l45 -18l17 -6l59 -23q123 -44 123 -158q0 -49 -37 -80.5t-86 -31.5h-567q0 19 10.5 30t21.5 12l11 1h280q72 0 74 31q1 21 -26 35q-3 2 -7 3l-61 23l-59 22l-47 19l-15 4l-61 23q-121 48 -121 159q0 45 29 74h-265v2q-58 5 -103 23.5
t-76 44t-53 66.5t-34 81t-18.5 98.5t-8.5 107t-2 118.5q0 69 2 117.5t8.5 106.5t18.5 97.5t34 80.5t53 66.5t76 44t103 23.5v2h1471q-1 -27 -11.5 -47.5t-25 -29.5t-29 -14.5t-24.5 -5.5l-10 -1h-680z" />
    <glyph glyph-name="egrave" unicode="&#xe8;" horiz-adv-x="1767" 
d="M1741 0h-1718q26 43 38 115q11 57 11 102v647q0 48 -11 101q-5 32 -14 59.5t-16.5 40.5t-10.5 14h1727q-1 -27 -11.5 -47.5t-25 -29.5t-29 -14.5t-24.5 -5.5l-10 -1h-791v-391h492q8 0 20.5 -1.5t39 -14t38.5 -33.5q-12 -22 -36.5 -34t-43.5 -13l-18 -2h-492v-394h782
q4 0 10.5 -0.5t24 -6t31 -14.5t25 -29.5t12.5 -47.5zM479 1473h592q-1 0 0 -4t4.5 -11.5t9.5 -15.5q7 -14 19 -29l16 -20l103 -136l16 -20l23 -27q26 -32 32 -32h-589q1 0 -0.5 3.5t-5 11t-9.5 17.5q-6 12 -18 27l-17 20l-102 136l-16 20l-23 29z" />
    <glyph glyph-name="eacute" unicode="&#xe9;" horiz-adv-x="1767" 
d="M23 0h1718q-1 27 -12 47.5t-26 29.5t-30 14.5t-25 6.5h-10h-782v394h492q8 0 20.5 1.5t39 13.5t38.5 34q-12 21 -36.5 33t-43.5 14l-18 2h-492v391h791q4 0 10.5 0.5t23.5 6t30 14.5t24 29.5t12 47.5h-1727q3 -1 10.5 -14t16.5 -40.5t14 -59.5q11 -53 11 -101v-647
q0 -45 -11 -102q-5 -32 -14.5 -60.5t-16.5 -41.5zM1298 1473l-32 -31q-14 -14 -23 -29l-16 -20l-105 -136l-16 -20q-15 -18 -19 -27q-6 -9 -9.5 -17t-4.5 -11.5t0 -3.5h-598q6 0 35 32l25 27l16 20l102 136l17 20q9 12 18 29q6 8 9.5 15.5t4.5 11.5t0 4h596z" />
    <glyph glyph-name="ecircumflex" unicode="&#xea;" horiz-adv-x="1767" 
d="M1741 0h-1718q26 43 38 115q11 57 11 102v647q0 48 -11 101q-5 32 -14 59.5t-16.5 40.5t-10.5 14h1727q-1 -27 -11.5 -47.5t-25 -29.5t-29 -14.5t-24.5 -5.5l-10 -1h-791v-391h492q8 0 20.5 -1.5t39 -14t38.5 -33.5q-12 -22 -36.5 -34t-43.5 -13l-18 -2h-492v-394h782
q4 0 10.5 -0.5t24 -6t31 -14.5t25 -29.5t12.5 -47.5zM1561 1174h-586q2 0 -8 32l-15 27l-10 22l-70 138l13 20l14 29q21 31 23 31h491q2 -13 10 -31q3 -13 13 -29l10 -22l67 -136l11 -22l16 -27q16 -32 21 -32zM205 1174q3 0 22 32l17 27l10 22l68 136l10 22l12 29l10 31
h471q6 0 23 -31q3 -4 8.5 -14.5t7.5 -14.5l8 -20v-2l-65 -136l-12 -22l-13 -27q-4 -9 -6 -17t-2.5 -11t0.5 -4h-569z" />
    <glyph glyph-name="edieresis" unicode="&#xeb;" horiz-adv-x="1806" 
d="M23 0h1718q-1 27 -12 47.5t-26 29.5t-30 14.5t-25 6.5h-10h-782v394h492q8 0 20.5 1.5t39 13.5t38.5 34q-12 21 -36.5 33t-43.5 14l-18 2h-492v391h791q4 0 10.5 0.5t23.5 6t30 14.5t24 29.5t12 47.5h-1727q3 -1 10.5 -14t16.5 -40.5t14 -59.5q11 -53 11 -101v-647
q0 -45 -11 -102q-5 -32 -14.5 -60.5t-16.5 -41.5zM1784 1473l-33 -31l-25 -29l-16 -20l-104 -136l-17 -22q-12 -15 -18 -27q-6 -10 -9.5 -17.5t-5 -11t-0.5 -3.5h-604q6 0 35 32l25 27l16 22l105 136l16 20q9 12 18 29l17 31h600zM20 1473q17 -13 35 -31l23 -29l16 -20
l105 -136l16 -22q3 -4 9.5 -13.5t8.5 -13.5q6 -10 9.5 -17.5t5 -11t0.5 -3.5h596q-7 0 -33 32q-17 17 -23 27l-16 22l-104 136l-17 20q-9 12 -18 29q-6 8 -10 15.5t-5 11.5t0 4h-598z" />
    <glyph glyph-name="igrave" unicode="&#xec;" horiz-adv-x="933" 
d="M870 115q5 -32 14.5 -59.5t16 -40.5t10.5 -15h-891q3 1 10.5 14.5t16 41t14.5 59.5q6 27 9 57v735q-3 32 -9 58q-5 31 -14.5 58t-16 40.5t-10.5 15.5h891q-3 -1 -10 -14t-16 -40.5t-15 -59.5q-8 -58 -8 -101v-647q0 -40 8 -102zM57 1473h592q3 -13 15 -31l18 -29l16 -20
l103 -136l16 -20l25 -27q7 -9 15 -17t13 -11l4 -4h-591q1 0 -0.5 3.5t-5 11t-9.5 17.5q-6 12 -18 27l-17 20l-102 136l-16 20q-3 3 -7.5 9.5t-8 11t-7.5 8.5z" />
    <glyph glyph-name="iacute" unicode="&#xed;" horiz-adv-x="933" 
d="M870 115q5 -32 14.5 -59.5t16 -40.5t10.5 -15h-891q3 1 10.5 14.5t16 41t14.5 59.5q6 27 9 57v735q-3 32 -9 58q-5 31 -14.5 58t-16 40.5t-10.5 15.5h891q-3 -1 -10 -14t-16 -40.5t-15 -59.5q-8 -58 -8 -101v-647q0 -40 8 -102zM877 1473l-33 -31l-23 -29l-16 -20
l-105 -136l-16 -20q-12 -15 -18 -27q-6 -10 -9.5 -17.5t-5 -11t-0.5 -3.5h-596q15 12 33 32l25 27l16 20l102 136l17 20l20 29l15 31h594z" />
    <glyph glyph-name="icircumflex" unicode="&#xee;" horiz-adv-x="1396" 
d="M1102 115q5 -32 13.5 -59.5t15 -40.5t10.5 -15h-889q3 1 10.5 14.5t16 41t14.5 59.5q4 19 8 57v735q-4 40 -8 58q-5 31 -14.5 58t-16 40.5t-10.5 15.5h889q-3 -1 -9.5 -14t-15.5 -40.5t-14 -59.5q-8 -39 -8 -101v-647q0 -61 8 -102zM1374 1174h-586q1 1 0.5 4t-2.5 11
t-6 17l-12 27l-12 22l-70 138l12 20l15 29l22 31h492q2 -13 10 -31q4 -15 12 -29l11 -22l67 -136l10 -22l17 -27q16 -32 20 -32zM20 1174q11 12 21 32l16 27l11 22l67 136l10 22l13 29l10 31h473q11 -13 21 -31q3 -4 8.5 -14.5t7.5 -14.5l8 -20v-2l-65 -136l-13 -22l-12 -27
q-10 -32 -8 -32h-568z" />
    <glyph glyph-name="idieresis" unicode="&#xef;" horiz-adv-x="1308" 
d="M1059 115q5 -32 14.5 -59.5t16 -40.5t10.5 -15h-891q4 1 11.5 14.5t16 40.5t15.5 60l6 57v735l-6 58q-10 46 -23 78t-20 36h891q-3 -1 -10 -14t-16 -40.5t-15 -59.5q-8 -58 -8 -101v-647q0 -40 8 -102zM1200 1362q56 -3 72 -26t16 -68t-16 -68t-72 -26h-409
q-56 3 -72.5 26t-16.5 68t16.5 68t72.5 26h409zM518 1362q56 -3 72 -26t16 -68t-16 -68t-72 -26h-409q-56 3 -72.5 26t-16.5 68t16.5 68t72.5 26h409z" />
    <glyph glyph-name="eth" unicode="&#xf0;" horiz-adv-x="2228" 
d="M20 631h117v231q0 53 -10 101q-5 32 -14.5 59.5t-16 41t-10.5 15.5h1624q207 -19 348.5 -174t141.5 -366q0 -210 -142 -365t-348 -174h-1624q3 1 10.5 14.5t16 41t14.5 59.5q10 52 10 102v227h-117v187zM1120 98q169 15 285.5 142.5t116.5 298.5q0 173 -116.5 300
t-285.5 142h-198v-350h182v-187h-182v-346h198z" />
    <glyph glyph-name="ntilde" unicode="&#xf1;" horiz-adv-x="1765" 
d="M829 0h885q-3 1 -9.5 14.5t-16 41.5t-15.5 61l-6 55v737l6 58q5 31 14.5 58t16 40.5t10.5 15.5h-250q7 -6 20.5 -37.5t22.5 -76.5q9 -65 9 -101v-669l-527 712q-23 33 -37 58q-17 32 -28.5 58.5t-15 40t-1.5 15.5h-887q3 -1 10.5 -14t16.5 -40.5t14 -59.5q11 -53 11 -101
v-649q0 -47 -11 -100q-5 -32 -14.5 -60t-16 -41.5t-10.5 -15.5h250q-3 1 -10 14.5t-16 41.5t-15 61q-6 48 -6 55v713q8 -12 15 -19l59 -80l365 -491l57 -78q38 -51 65 -100q18 -32 29.5 -59.5t14.5 -41.5t1 -16zM1442 1464l57 -4l-280 -278l-2 -2l-17 -9l-18 -6q-4 0 -6 -2
q-3 0 -15 -4h-4l-4 -2q-6 0 -10 -2q-2 0 -7.5 -1t-7.5 -1h-2q-20 -4 -28 -4q-3 0 -8 -1t-7 -1q-23 0 -73 4q-31 4 -66.5 12.5t-78 19.5t-66.5 17q-3 0 -8 1t-7 1q-153 32 -241 -14v2l-31 31l190 190l82 21q2 0 7.5 1t7.5 1q20 4 32 4q43 0 66 -4q10 0 16 -2q6 -1 84 -17
q13 -3 60 -14.5t73 -16.5l19 -4q35 -6 65 -6h33q23 0 33 2l16 4q2 0 7.5 1t7.5 1l16 7l16 6l15 6q2 1 13.5 7t17.5 11q21 13 45 37z" />
    <glyph glyph-name="ograve" unicode="&#xf2;" horiz-adv-x="2002" 
d="M1688 1079q58 -5 103 -23.5t76 -44t52.5 -67t33.5 -81t19 -98t8.5 -106.5t1.5 -118t-1.5 -118.5t-8.5 -107.5t-19 -98.5t-33.5 -81t-52.5 -67.5t-76 -44.5t-103 -23.5h-1373q-58 5 -103 23.5t-76 44.5t-53 67t-34 81t-18.5 99t-8.5 107.5t-2 118.5q0 69 2 117.5t8.5 107
t18.5 98t34 81t53 67t76 44t103 23.5h1373zM1001 98q41 0 72 12.5t52 31.5t36 53.5t23 67t12 84t5 91.5t1 103q0 80 -1 119t-6.5 101.5t-18 93t-34 65t-57 48t-84.5 13.5q-47 0 -81 -13t-54.5 -45t-32.5 -60.5t-17 -88t-6 -96t-1 -113.5v-24q0 -205 15 -280
q27 -132 122 -157q25 -6 55 -6zM588 1473h592q-1 0 0 -4t4.5 -11.5t9.5 -15.5q9 -17 18 -29l17 -20l102 -136l17 -20l22 -27q26 -32 33 -32h-590q1 0 0 3.5t-4.5 11.5t-9.5 17q-4 9 -19 27l-16 20l-102 136l-17 20l-22 29z" />
    <glyph glyph-name="oacute" unicode="&#xf3;" horiz-adv-x="2002" 
d="M1688 1079q58 -5 103 -23.5t76 -44t52.5 -67t33.5 -81t19 -98t8.5 -106.5t1.5 -118t-1.5 -118.5t-8.5 -107.5t-19 -98.5t-33.5 -81t-52.5 -67.5t-76 -44.5t-103 -23.5h-1373q-58 5 -103 23.5t-76 44.5t-53 67t-34 81t-18.5 99t-8.5 107.5t-2 118.5q0 69 2 117.5t8.5 107
t18.5 98t34 81t53 67t76 44t103 23.5h1373zM1001 98q41 0 72 12.5t52 31.5t36 53.5t23 67t12 84t5 91.5t1 103q0 80 -1 119t-6.5 101.5t-18 93t-34 65t-57 48t-84.5 13.5q-47 0 -81 -13t-54.5 -45t-32.5 -60.5t-17 -88t-6 -96t-1 -113.5v-24q0 -205 15 -280
q27 -132 122 -157q25 -6 55 -6zM1407 1473q-15 -13 -33 -31l-24 -29l-17 -20l-102 -136l-17 -20q-12 -15 -18 -27l-16 -32h-596q5 0 34 32l23 27l16 20l105 136l16 20q12 15 19 29q6 8 9.5 15.5t4.5 11.5t0 4h596z" />
    <glyph glyph-name="ocircumflex" unicode="&#xf4;" horiz-adv-x="2002" 
d="M1688 1079q58 -5 103 -23.5t76 -44t52.5 -67t33.5 -81t19 -98t8.5 -106.5t1.5 -118t-1.5 -118.5t-8.5 -107.5t-19 -98.5t-33.5 -81t-52.5 -67.5t-76 -44.5t-103 -23.5h-1373q-58 5 -103 23.5t-76 44.5t-53 67t-34 81t-18.5 99t-8.5 107.5t-2 118.5q0 69 2 117.5t8.5 107
t18.5 98t34 81t53 67t76 44t103 23.5h1373zM1651 1210q15 -27 20 -32h-575q1 0 0.5 3.5t-3 11t-6.5 17.5l-12 27l-10 23l-68 133v2l-2 -2l-65 -133l-10 -23l-13 -27q-4 -9 -6 -17t-2.5 -11t0.5 -4h-559q3 0 22 32q1 3 7 12t8 15l10 23l66 133l12 20l10 29l10 31h1041
q2 -13 10 -31q4 -15 12 -29l11 -20l65 -133l12 -23q2 -6 8 -15t7 -12zM1001 98q41 0 72 12.5t52 31.5t36 53.5t23 67t12 84t5 91.5t1 103q0 80 -1 119t-6.5 101.5t-18 93t-34 65t-57 48t-84.5 13.5q-47 0 -81 -13t-54.5 -45t-32.5 -60.5t-17 -88t-6 -96t-1 -113.5v-24
q0 -205 15 -280q27 -132 122 -157q25 -6 55 -6z" />
    <glyph glyph-name="otilde" unicode="&#xf5;" horiz-adv-x="2002" 
d="M1688 1079q58 -5 103 -23.5t76 -44t52.5 -67t33.5 -81t19 -98t8.5 -106.5t1.5 -118t-1.5 -118.5t-8.5 -107.5t-19 -98.5t-33.5 -81t-52.5 -67.5t-76 -44.5t-103 -23.5h-1373q-58 5 -103 23.5t-76 44.5t-53 67t-34 81t-18.5 99t-8.5 107.5t-2 118.5q0 69 2 117.5t8.5 107
t18.5 98t34 81t53 67t76 44t103 23.5h1373zM1001 98q41 0 72 12.5t52 31.5t36 53.5t23 67t12 84t5 91.5t1 103q0 80 -1 119t-6.5 101.5t-18 93t-34 65t-57 48t-84.5 13.5q-47 0 -81 -13t-54.5 -45t-32.5 -60.5t-17 -88t-6 -96t-1 -113.5v-24q0 -205 15 -280
q27 -132 122 -157q25 -6 55 -6zM1524 1491l30 -31l-280 -278l-2 -2l-6 -4q-6 0 -11 -5q-2 0 -4.5 -1t-3.5 -1l-22 -8q-2 0 -6.5 -1t-6.5 -1l-4 -2l-24 -4h-2q-38 -6 -72 -6l-59 6l-17 4q-18 3 -149 35q-70 16 -105 20q-35 5 -45 5h-28h-15q-49 -6 -94 -29v2l-31 31l191 190
l82 21l47 6h16q27 0 98 -13q3 0 9 -1t8 -1l35 -8q8 -3 32 -8q12 -4 17 -4q12 -4 18 -4l49 -13q3 0 9 -1t8 -1q13 -3 51 -8q10 -2 33 -2q21 -2 65 2l17 4q2 0 7 1t7 1q6 2 47 19q2 1 13.5 7t17.5 11q9 5 31 23l14 14z" />
    <glyph glyph-name="odieresis" unicode="&#xf6;" horiz-adv-x="2002" 
d="M1688 1079q58 -5 103 -23.5t76 -44t52.5 -67t33.5 -81t19 -98t8.5 -106.5t1.5 -118t-1.5 -118.5t-8.5 -107.5t-19 -98.5t-33.5 -81t-52.5 -67.5t-76 -44.5t-103 -23.5h-1373q-58 5 -103 23.5t-76 44.5t-53 67t-34 81t-18.5 99t-8.5 107.5t-2 118.5q0 69 2 117.5t8.5 107
t18.5 98t34 81t53 67t76 44t103 23.5h1373zM1001 98q41 0 72 12.5t52 31.5t36 53.5t23 67t12 84t5 91.5t1 103q0 80 -1 119t-6.5 101.5t-18 93t-34 65t-57 48t-84.5 13.5q-47 0 -81 -13t-54.5 -45t-32.5 -60.5t-17 -88t-6 -96t-1 -113.5v-24q0 -205 15 -280
q27 -132 122 -157q25 -6 55 -6zM854 1362q56 -3 72 -26t16 -68t-16 -68t-72 -26h-410q-56 3 -72 26t-16 68t16 68t72 26h410zM1546 1362q56 -3 72 -26t16 -68t-16 -68t-72 -26h-409q-56 3 -72 26t-16 68t16 68t72 26h409z" />
    <glyph glyph-name="divide" unicode="&#xf7;" horiz-adv-x="770" 
d="M20 631h730v-187h-730v187zM416 918q32 -3 41.5 -26.5t9.5 -68.5t-9.5 -68t-41.5 -26h-84q-32 3 -41.5 26t-9.5 68t9.5 68.5t41.5 26.5v2h84v-2zM414 358q32 -3 41.5 -26t9.5 -68t-9.5 -68t-41.5 -26h-84q-32 3 -41.5 26t-9.5 68t9.5 68t41.5 26v2h84v-2z" />
    <glyph glyph-name="oslash" unicode="&#xf8;" horiz-adv-x="2004" 
d="M1690 1079q103 -9 168 -61l127 61v-133l-52 -24q52 -113 52 -381q0 -69 -2 -118.5t-8.5 -107.5t-19 -98.5t-34.5 -81.5t-52.5 -67t-75.5 -44.5t-103 -23.5h-1375q-108 9 -170 59l-125 -59v133l52 25q-32 67 -42 157.5t-10 225.5q0 69 2 117.5t8.5 107t18.5 98t34 81
t53 67t76 44t103 23.5h1375zM809 541v-29l391 188q-7 138 -49.5 209.5t-149.5 71.5q-47 0 -81 -13t-54.5 -45t-32.5 -60.5t-17 -88t-6 -96t-1 -113.5v-24zM1001 98q41 0 72.5 12.5t52.5 31.5t36 54t22.5 66.5t11.5 84t5 91.5t1 103v28l-391 -188q3 -68 12 -115t29.5 -87.5
t57 -60.5t91.5 -20z" />
    <glyph glyph-name="ugrave" unicode="&#xf9;" horiz-adv-x="2105" 
d="M2034 862v-323q0 -69 -2 -117.5t-8.5 -107t-18.5 -98.5t-34 -81t-53 -67t-76 -44.5t-103 -23.5h-1372q-58 5 -103 23.5t-76 44.5t-53 67t-34 81t-18.5 98.5t-8.5 107t-2 117.5v323q0 46 -11 103q-5 32 -14 59.5t-16.5 40.5t-10.5 14h836v-796q15 -82 59.5 -128t137.5 -55
q93 9 137 54.5t59 128.5v796h834q-4 -2 -10.5 -15.5t-16 -40.5t-14.5 -58q-8 -62 -8 -103zM645 1473h592q-1 0 0 -4t4.5 -11.5t9.5 -15.5q7 -14 19 -29l16 -20l103 -136l16 -20l22 -27q26 -32 33 -32h-590q1 0 0 3.5t-4.5 11.5t-9.5 17q-6 12 -18 27l-17 20l-102 136l-17 20
l-22 29z" />
    <glyph glyph-name="uacute" unicode="&#xfa;" horiz-adv-x="2105" 
d="M2034 539v323q0 41 8 103q5 31 14.5 58t16 40.5t10.5 15.5h-834v-796q-15 -83 -59 -128.5t-137 -54.5q-93 9 -137.5 55t-59.5 128v796h-836q3 -1 10.5 -14t16.5 -40.5t14 -59.5q11 -57 11 -103v-323q0 -69 2 -117.5t8.5 -107t18.5 -98.5t34 -81t53 -67t76 -44.5
t103 -23.5h1372q58 5 103 23.5t76 44.5t53 67t34 81t18.5 98.5t8.5 107t2 117.5zM1460 1473l-33 -31l-22 -29l-16 -20l-103 -136l-18 -20l-19 -27q-6 -9 -9.5 -17t-4.5 -11.5t0 -3.5h-596q17 12 33 32l24 27l17 20l102 136l16 20l21 29q5 8 8.5 16t4.5 12l1 3h594z" />
    <glyph glyph-name="ucircumflex" unicode="&#xfb;" horiz-adv-x="2105" 
d="M2034 862v-323q0 -69 -2 -117.5t-8.5 -107t-18.5 -98.5t-34 -81t-53 -67t-76 -44.5t-103 -23.5h-1372q-58 5 -103 23.5t-76 44.5t-53 67t-34 81t-18.5 98.5t-8.5 107t-2 117.5v323q0 46 -11 103q-5 32 -14 59.5t-16.5 40.5t-10.5 14h836v-796q15 -82 59.5 -128t137.5 -55
q93 9 137 54.5t59 128.5v796h834q-4 -2 -10.5 -15.5t-16 -40.5t-14.5 -58q-8 -62 -8 -103zM1710 1174h-586q-2 12 -10 32l-12 27l-10 22l-70 138l10 20l15 29l22 31h492q2 -13 10 -31l12 -29l10 -22l68 -136l12 -22q2 -6 8 -15t7 -12zM354 1174q11 12 23 32q1 2 6.5 11.5
t7.5 15.5l10 22l68 136l10 22q10 16 13 29l10 31h473q10 -13 22 -31l15 -29l10 -20l-68 -138l-10 -22q-9 -15 -12 -27l-10 -32h-568z" />
    <glyph glyph-name="udieresis" unicode="&#xfc;" horiz-adv-x="2105" 
d="M2034 539v323q0 41 8 103q5 31 14.5 58t16 40.5t10.5 15.5h-834v-796q-15 -83 -59 -128.5t-137 -54.5q-93 9 -137.5 55t-59.5 128v796h-836q3 -1 10.5 -14t16.5 -40.5t14 -59.5q11 -57 11 -103v-323q0 -69 2 -117.5t8.5 -107t18.5 -98.5t34 -81t53 -67t76 -44.5
t103 -23.5h1372q58 5 103 23.5t76 44.5t53 67t34 81t18.5 98.5t8.5 107t2 117.5zM1862 1362q56 -3 72 -26t16 -68t-16 -68t-72 -26h-410q-56 3 -72 26t-16 68t16 68t72 26h410zM635 1362q56 -3 72 -26t16 -68t-16 -68t-72 -26h-410q-56 3 -72 26t-16 68t16 68t72 26h410z
" />
    <glyph glyph-name="yacute" unicode="&#xfd;" horiz-adv-x="1900" 
d="M1876 1079q-22 -3 -53.5 -27.5t-52.5 -47.5l-21 -23l-145 -170l-232 -279q-26 -33 -33 -79l-2 -254q3 -52 11 -84q6 -32 14.5 -59.5t16 -41t10.5 -14.5h-887q3 1 10 14t16.5 41t14.5 60q8 39 8 100v274l-410 492q-11 13 -22 25t-20.5 21t-19.5 16.5t-17.5 12.5t-15.5 9.5
t-12 6.5t-9 4l-5 3h275q-3 -2 -7 -4.5t-13.5 -12.5t-14 -20.5t-3 -27t14.5 -33.5l336 -410l275 318l75 92q20 31 15.5 52.5t-19.5 33.5l-16 12h938zM1360 1473l-33 -31l-22 -29l-17 -20l-102 -136l-17 -20l-20 -27l-14 -32h-596q16 12 34 32l23 27l16 20l103 136l16 20
l21 29q5 8 8.5 16t4.5 12l1 3h594z" />
    <glyph glyph-name="thorn" unicode="&#xfe;" horiz-adv-x="1945" 
d="M1630 834q122 0 208.5 -87t86.5 -208t-86.5 -207t-208.5 -86h-770v-31q0 -38 8 -100q6 -33 15.5 -61t17 -41t10.5 -13h-2h-49h-29h-69h-103h-391h-100h-68h-30h-50v0q2 0 9.5 13t17 41t14.5 61q6 27 9 57v733q-3 32 -9 58q-5 33 -14.5 61t-16.5 40.5t-10 12.5v0h50h36h62
h100h391h103h61h37h49h2q-3 0 -10.5 -13t-17 -40.5t-15.5 -60.5q-8 -58 -8 -101v-28h277h493zM1137 342q82 0 139 57.5t57 139.5t-57 139t-139 57h-277v-393h277z" />
    <glyph glyph-name="ydieresis" unicode="&#xff;" horiz-adv-x="1726" 
d="M1876 1079q-22 -3 -53.5 -27.5t-52.5 -47.5l-21 -23l-145 -170l-232 -279q-26 -33 -33 -79l-2 -254q3 -52 11 -84q6 -32 14.5 -59.5t16 -41t10.5 -14.5h-887q3 1 10 14t16.5 41t14.5 60q8 39 8 100v274l-410 492q-11 13 -22 25t-20.5 21t-19.5 16.5t-17.5 12.5t-15.5 9.5
t-12 6.5t-9 4l-5 3h275q-3 -2 -7 -4.5t-13.5 -12.5t-14 -20.5t-3 -27t14.5 -33.5l336 -410l275 318l75 92q20 31 15.5 52.5t-19.5 33.5l-16 12h938zM1575 1362q56 -3 72 -26t16 -68t-16 -68t-72 -26h-410q-56 3 -72 26t-16 68t16 68t72 26h410zM778 1362q56 -3 72 -26
t16 -68t-16 -68t-72 -26h-409q-56 3 -72 26t-16 68t16 68t72 26h409z" />
    <glyph glyph-name="Ccaron" unicode="&#x10c;" horiz-adv-x="1806" 
d="M997 981q-49 0 -84.5 -14.5t-56.5 -48.5t-34 -64.5t-18 -90t-6 -96t-1 -110.5v-16q0 -196 15 -270q28 -143 132 -167q24 -6 53 -6h680q4 0 10.5 -0.5t24 -6t30.5 -14.5t24 -29.5t12 -47.5h-1471v2q-58 5 -103 23.5t-76 44t-53 66.5t-34 81t-18.5 98.5t-8.5 107t-2 118.5
q0 69 2 117.5t8.5 106.5t18.5 97.5t34 80.5t53 66.5t76 44t103 23.5v2h1471q-1 -27 -11.5 -47.5t-25 -29.5t-29.5 -14.5t-25 -5.5l-10 -1h-680zM299 1442l-23 31h586q0 -11 10 -31l13 -29l12 -22l68 -136l-11 -22q-2 -6 -7.5 -15.5t-6.5 -11.5l-22 -32h-492q-2 12 -10 32
q-2 9 -13 27l-10 22l-67 136l-11 22zM1632 1473q-10 -13 -20 -31q-4 -5 -10 -16t-7 -13l-10 -22l-67 -136l-11 -22q-9 -15 -12 -27l-10 -32h-473q-11 12 -23 32q-1 2 -6.5 11.5t-7.5 15.5l-10 22l67 136l10 22q10 16 13 29l10 31h567z" />
    <glyph glyph-name="ccaron" unicode="&#x10d;" horiz-adv-x="1806" 
d="M1006 981q-30 0 -54.5 -5.5t-43.5 -18.5t-34 -26t-25.5 -37.5t-18.5 -42.5t-12.5 -51.5t-7 -54.5t-4 -61.5t-1.5 -62.5v-67v-13q0 -197 15 -273q30 -141 135 -165q23 -5 51 -5h680q4 0 10.5 -0.5t23.5 -6t30 -14.5t24 -29.5t12 -47.5h-1471v2q-58 5 -103 23.5t-76 44
t-53 66.5t-34 81t-18.5 98.5t-8.5 107t-2 118.5q0 69 2 117.5t8.5 106.5t18.5 97.5t34 80.5t53 66.5t76 44t103 23.5v2h1471q-1 -27 -11.5 -47.5t-25 -29.5t-29 -14.5t-24.5 -5.5l-10 -1h-680zM311 1442l-22 31h585q0 -9 11 -31l12 -29l12 -22l68 -136l-10 -22q-2 -6 -8 -15
t-7 -12l-22 -32h-492q-2 12 -10 32q-3 12 -12 27l-10 22l-68 136l-10 22zM1645 1473q-11 -13 -21 -31q-3 -4 -8.5 -14.5t-7.5 -14.5l-11 -22l-67 -136l-10 -22q-11 -18 -13 -27l-10 -32h-473q-11 12 -23 32q-1 2 -6.5 11.5t-7.5 15.5l-10 22l67 136l11 22q8 14 12 29l10 31
h568z" />
    <glyph glyph-name="dotlessi" unicode="&#x131;" horiz-adv-x="577" 
d="M330 891h-287v186h287v2h186v-1083h-186v895z" />
    <glyph glyph-name="Lslash" unicode="&#x141;" horiz-adv-x="1712" 
d="M1591 98q4 0 10.5 -0.5t24 -6t30.5 -14.5t24 -29.5t12 -47.5h-1524q3 1 10.5 14.5t16 41t14.5 59.5q4 19 8 57v115l-197 -58v133l197 58v487q-4 40 -8 58q-5 31 -14.5 58t-16 40.5t-10.5 15.5h889q-3 -1 -9.5 -14t-15.5 -40.5t-14 -59.5q-8 -39 -8 -101v-215l682 199
v-135l-682 -197v-299q0 -61 8 -102q0 -5 4 -17h569z" />
    <glyph glyph-name="lslash" unicode="&#x142;" horiz-adv-x="1712" 
d="M1591 98q4 0 10.5 -0.5t24 -6t30.5 -14.5t24 -29.5t12 -47.5h-1524q3 1 10.5 14.5t16 41t14.5 59.5q4 19 8 57v115l-197 -58v133l197 58v487q-4 40 -8 58q-5 31 -14.5 58t-16 40.5t-10.5 15.5h889q-3 -1 -9.5 -14t-15.5 -40.5t-14 -59.5q-8 -39 -8 -101v-215l682 199
v-135l-682 -197v-299q0 -61 8 -102q0 -5 4 -17h569z" />
    <glyph glyph-name="OE" unicode="&#x152;" horiz-adv-x="2650" 
d="M2535 98q4 0 10.5 -0.5t24 -6t31 -15t25 -30t12.5 -48.5h-2343v4q-58 5 -103 23.5t-76 44t-53 66.5t-34 81t-18.5 98.5t-8.5 107t-2 118.5q0 69 2 117.5t8.5 106.5t18.5 98t34 81t53 66.5t76 44t103 24.5v2h729q-1 0 -2 1t-2 1h1624q-1 -27 -12 -47.5t-26 -29.5
t-29.5 -14.5t-24.5 -5.5l-10 -1h-791v-395h492q8 0 20.5 -1.5t39 -13.5t38.5 -34q-12 -22 -36.5 -34t-42.5 -13l-19 -2h-492v-394h784zM874 96q56 0 94.5 21.5t59.5 64t30.5 92.5t12.5 121v305q-3 54 -9 94t-19.5 77t-35 60.5t-55 37.5t-78.5 14q-47 0 -81.5 -13
t-55.5 -45.5t-33 -61t-17 -88t-6 -96.5t-1 -114v-24q0 -204 15 -280q27 -134 124 -159q25 -6 55 -6z" />
    <glyph glyph-name="oe" unicode="&#x153;" horiz-adv-x="2684" 
d="M2556 98q4 0 10.5 -0.5t23.5 -6t30.5 -15t25 -30t12.5 -48.5h-2343v4q-58 5 -103 23.5t-76 44t-53 66.5t-34 81t-18.5 98.5t-8.5 107t-2 118.5q0 69 2 117.5t8.5 106.5t18.5 98t34 81t53 66.5t76 44t103 24.5v2h729q-1 0 -2 1t-2 1h1624q-1 -27 -12 -47.5t-26 -29.5
t-29.5 -14.5t-24.5 -5.5l-10 -1h-790v-395h491q8 0 20.5 -1.5t39 -13.5t38.5 -34q-12 -22 -36.5 -34t-42.5 -13l-19 -2h-491v-394h784zM895 96q56 0 94.5 21.5t59.5 64t30.5 92.5t12.5 121v305q-3 54 -9 94t-19.5 77t-35 60.5t-55 37.5t-78.5 14q-48 0 -82.5 -13t-55 -45.5
t-33 -61.5t-17.5 -89t-6 -97.5t-1 -114.5v-21v-81t2 -73.5t5.5 -71t10 -60.5t16 -55t24.5 -42.5t34 -34.5t45 -19t58 -8z" />
    <glyph glyph-name="Scaron" unicode="&#x160;" 
d="M1858 981q-127 -9 -239.5 -52.5t-200.5 -112.5t-166.5 -157t-147 -191t-132 -208.5t-131 -215.5t-135 -207.5t-153 -188t-176.5 -152.5v-2q-2 0 -2 -2l-84 -53q-75 -46 -187 -96h-1142v71h166q115 0 219 26t186 67t161 108.5t137.5 133t123.5 159.5t110.5 170t106.5 180
q68 118 104.5 178t106 163t120.5 158t130.5 126.5t155 107.5t174.5 62t208 26h783q0 -4 -0.5 -10t-6 -22t-14.5 -28.5t-28.5 -24t-46.5 -13.5zM784 1442l-22 31h586q0 -11 10 -31l12 -29l12 -22l68 -136l-10 -22q-2 -6 -8 -15t-7 -12l-22 -32h-492q-2 12 -10 32
q-3 12 -12 27l-10 22l-68 136l-10 22zM2118 1473q-11 -13 -21 -31q-3 -4 -8.5 -14.5t-7.5 -14.5l-10 -22l-68 -136l-10 -22q-11 -18 -13 -27l-10 -32h-473q-10 12 -22 32q-1 3 -7 12t-8 15l-10 22l68 136l10 22q8 14 12 29l10 31h568z" />
    <glyph glyph-name="scaron" unicode="&#x161;" 
d="M1292 616q141 -52 210 -146t69 -214q0 -110 -84.5 -183t-194.5 -73h-1292q1 27 12 47.5t25.5 29.5t28.5 14.5t24 6.5h10h639q143 0 163 59q12 38 -29 74q-18 17 -42 25l-139 51l-137 53l-104 37l-35 15l-140 51q-140 52 -208 146t-68 214q0 110 83 183t193 73h1192
q4 0 10.5 -0.5t24 -6t30.5 -14.5t24 -29.5t12 -47.5h-738q-145 0 -164 -60q-12 -38 30 -75q19 -16 42 -25l138 -51l139 -51l104 -39l35 -12zM129 1442l-23 31h586q0 -11 10 -31l13 -29l12 -22l68 -136l-11 -22q-2 -6 -7.5 -15.5t-6.5 -11.5l-22 -32h-492q-2 12 -10 32
q-2 9 -13 27l-10 22l-67 136l-11 22zM1462 1473q-10 -13 -20 -31q-4 -5 -10 -16t-7 -13l-10 -22l-67 -136l-11 -22q-9 -15 -12 -27l-10 -32h-473q-11 12 -23 32q-1 2 -6.5 11.5t-7.5 15.5l-10 22l67 136l10 22q10 16 13 29l10 31h567z" />
    <glyph glyph-name="Ydieresis" unicode="&#x178;" 
d="M2247 1079q-21 -2 -52 -26t-52 -47l-21 -23l-86 -102q-95 -113 -229 -302t-218 -315t-88 -135q-63 -109 -110 -184t-111.5 -164.5t-133.5 -160t-145 -124.5v-2q-2 0 -2 -2l-79 -53q-72 -46 -181 -96h-1104v71h160q117 0 216.5 25.5t174 68.5t144.5 110t122.5 138.5
t112.5 166.5t109.5 181.5t120 195.5t137.5 198h-420l-403 485q-51 62 -119 96h850q-3 -2 -7 -5t-13.5 -12.5t-14 -20t-3 -26.5t14.5 -32l256 -315l193 223l75 92l78 96h828zM2025 1362q56 -3 72.5 -26t16.5 -68t-16.5 -68t-72.5 -26h-409q-56 3 -72 26t-16 68t16 68t72 26
h409zM635 1362q56 -3 72 -26t16 -68t-16 -68t-72 -26h-410q-56 3 -72 26t-16 68t16 68t72 26h410z" />
    <glyph glyph-name="Zcaron" unicode="&#x17d;" 
d="M244 172l547 735q18 26 36 58l9 16h-717q-4 0 -10.5 0.5t-23 6t-29.5 14.5t-24 29.5t-12 47.5h1741q-59 -42 -127 -114q-51 -58 -84 -103l-483 -645q-52 -76 -66 -102q-2 -2 -5.5 -8.5t-4.5 -8.5h695q4 0 10.5 -0.5t23.5 -6t30 -14.5t24 -29.5t12 -47.5h-1720q4 1 21 14
t47.5 41t60.5 60q7 9 24 28t25 29zM315 1442l-22 31h586q0 -11 10 -31l12 -29l12 -22l68 -136l-10 -22q-2 -6 -8 -15t-7 -12l-22 -32h-492q-2 12 -10 32q-3 12 -12 27l-10 22l-68 136l-10 22zM1649 1473q-11 -13 -21 -31q-3 -4 -8.5 -14.5t-7.5 -14.5l-10 -22l-68 -136
l-10 -22q-11 -18 -13 -27l-10 -32h-473q-10 12 -22 32q-1 3 -7 12t-8 15l-10 22l68 136l10 22q8 14 12 29l10 31h568z" />
    <glyph glyph-name="zcaron" unicode="&#x17e;" 
d="M244 172l547 735q18 26 36 58l9 16h-717q-4 0 -10.5 0.5t-23 6t-29.5 14.5t-24 29.5t-12 47.5h1741q-59 -42 -127 -114q-51 -58 -84 -103l-483 -645q-52 -76 -66 -102q-2 -2 -5.5 -8.5t-4.5 -8.5h695q4 0 10.5 -0.5t23.5 -6t30 -14.5t24 -29.5t12 -47.5h-1720q4 1 21 14
t47.5 41t60.5 60q7 9 24 28t25 29zM315 1442l-22 31h586q0 -11 10 -31l12 -29l12 -22l68 -136l-10 -22q-2 -6 -8 -15t-7 -12l-22 -32h-492q-2 12 -10 32q-3 12 -12 27l-10 22l-68 136l-10 22zM1649 1473q-11 -13 -21 -31q-3 -4 -8.5 -14.5t-7.5 -14.5l-10 -22l-68 -136
l-10 -22q-11 -18 -13 -27l-10 -32h-473q-10 12 -22 32q-1 3 -7 12t-8 15l-10 22l68 136l10 22q8 14 12 29l10 31h568z" />
    <glyph glyph-name="circumflex" unicode="&#x2c6;" horiz-adv-x="1421" 
d="M1352 1210q15 -27 20 -32h-575q1 0 0.5 3.5t-3 11t-6.5 17.5l-12 27l-10 23l-68 133v2l-2 -2l-65 -133l-10 -23l-13 -27q-4 -9 -6 -17t-2.5 -11t0.5 -4h-559q3 0 22 32q1 3 7 12t8 15l10 23l66 133l12 20l10 29l10 31h1041q2 -13 10 -31q4 -15 12 -29l11 -20l65 -133
l12 -23q2 -6 8 -15t7 -12z" />
    <glyph glyph-name="caron" unicode="&#x2c7;" horiz-adv-x="1449" 
d="M70 1442l-23 31h586q0 -11 10 -31l12 -29l13 -22l67 -136l-10 -22q-2 -6 -7.5 -15.5t-6.5 -11.5l-23 -32h-491q-3 12 -11 32q-3 12 -12 27l-10 22l-68 136l-10 22zM1403 1473q-11 -13 -21 -31q-3 -4 -8.5 -14.5t-7.5 -14.5l-10 -22l-68 -136l-10 -22q-9 -15 -12 -27
l-11 -32h-473q-10 12 -22 32q-1 3 -7 12t-8 15l-10 22l68 136l10 22q8 14 12 29l11 31h567z" />
    <glyph glyph-name="breve" unicode="&#x2d8;" horiz-adv-x="5087" 
d="M3899 1022h631q45 -7 76 -23q33 -17 61 -45q30 -38 41 -65q15 -37 15 -78t-15 -78q-14 -34 -41 -65q-33 -33 -61 -45q-39 -20 -76 -23h-631l7 12q5 9 8 33l4 19v294l-4 19q-3 24 -8 33zM1391 158v-2q14 -42 24 -58q5 -13 17 -30q6 -13 12 -13h-307q1 0 4 13q0 18 -2 32
q-3 17 -9 31h-143v-16l4 -15q4 -25 8 -32l7 -13h-347q5 5 7 13q2 2 10 32q0 1 1 5t1 6v309q0 2 -1 5t-1 5q-9 30 -10 33l-7 12h615l115 -317h2zM2824 678h-250q-12 -30 -12 -45q-3 -16 0 -23q0 -6 8 -10h-311q6 3 14 14l19 29l24 59v3l115 317h557v-27q0 -18 2 -28
q5 -26 8 -33l88 -242q8 -23 23 -53q6 -12 16 -27q9 -9 15 -12h-310q7 3 9 10v21l-13 39zM598 678h-252l-12 -45q-3 -16 0 -23q2 -7 8 -10h-311q9 5 14 14q7 7 18 29q16 27 25 59v3l117 317h555v-27q0 -8 4 -28q0 -13 8 -33l86 -242q8 -23 23 -53l16 -27q10 -10 14 -12h-309
q6 3 8 10q3 6 0 21q0 12 -10 39zM3881 600h-248v115q0 36 -22 55q-23 23 -54 23h-77v-193h-326q2 0 8 12q8 31 8 33l4 19v294l-4 19q0 2 -8 33l-8 12h594q22 0 45 -10q20 -10 35 -25q18 -18 26 -37q9 -27 9 -43q0 -31 -15 -55q-13 -26 -37 -41q24 -15 37 -41q15 -24 15 -55
v-29q0 -14 2 -22q0 -13 2 -19q0 -2 8 -33q3 -12 6 -12zM1470 100q3 6 3 19q2 6 2 20v252q0 9 -5 39q0 2 -8 33l-6 10l-2 2h358v-12q4 -18 11 -33q4 -8 4 -10l6 -12l156 -261v265l-4 18q-3 21 -9 33l-8 12h98q-4 -4 -6 -12q-7 -15 -10 -33q-2 -6 -2 -22v-297q0 -2 1 -6t1 -5
q3 -22 10 -32l6 -13h-358v13q-1 2 -2 7.5t-3 12t-5 12.5l-21 39l-18 31l-115 190l-10 17v-266q2 -4 2 -11q8 -30 10 -32q3 -13 4 -13h-96q2 0 8 13q6 18 8 32zM1513 782q27 -42 27 -82q0 -21 -10 -41q-8 -17 -25 -30q-15 -15 -35 -21q-16 -8 -38 -8h-504q0 17 6 23l14 12
q8 4 19 4h247q37 0 50 8q12 5 16 19q2 7 -6 20q-5 5 -23 14l-53 21l-55 20l-39 15l-14 6l-56 18q-53 20 -82 60q-24 37 -24 82q0 25 8 41q8 17 25 30q21 17 34 21q24 8 39 8h465q17 -4 19 -6q6 -2 14 -10q5 -7 8 -23h-289q-36 0 -49 -8q-13 -10 -16 -19q0 -12 8 -20
q12 -12 20 -14l56 -21l53 -20l41 -15l14 -6l54 -18q56 -21 81 -60zM2669 238q26 -44 26 -84q0 -19 -10 -39q-11 -22 -25 -33q-17 -14 -34 -21q-18 -6 -39 -6h-504q0 15 6 21q6 9 14 12q8 4 19 4h250q27 0 47 8q16 10 16 19q2 8 -6 20q-12 12 -23 15l-53 22l-55 19l-39 14
l-14 6l-56 21q-56 21 -82 57q-24 37 -24 82q0 25 8 41t25 33q10 8 34 20q18 6 39 6h465q9 0 21 -4l5 -4q5 -4 7 -8q4 -4 8 -23h-289q-36 0 -49 -8q-14 -7 -14 -16q-3 -12 6 -21q7 -10 23 -16l106 -41l41 -15l14 -4l54 -20q60 -23 82 -57zM616 238q27 -41 27 -84
q0 -23 -8 -39q-11 -22 -25 -33q-12 -9 -35 -21q-21 -6 -40 -6h-504q4 17 8 21q6 9 12 12q12 4 19 4h249q30 0 50 8q13 10 16 19q0 12 -8 20q-13 13 -21 15l-55 22l-53 19l-41 14l-14 6l-54 21q-60 23 -82 57q-26 41 -26 82q0 21 10 41q8 16 25 33q13 11 32 20q21 6 41 6h465
q7 0 19 -4q1 -1 6.5 -5t7.5 -7q6 -6 6 -23h-287q-36 0 -49 -8q-16 -6 -16 -16q-2 -9 6 -21q6 -8 22 -16l54 -21l55 -20l39 -15l14 -4l54 -20q58 -21 81 -57zM1892 969q-16 -16 -22 -39q-8 -32 -8 -56v-126q4 -40 8 -56q10 -28 24 -39q14 -14 45 -14h265q10 0 18 -4l14 -12
q7 -7 7 -23h-572q-39 3 -63 23q-21 13 -35 45q-11 24 -14 65q-5 63 -5 78t5 78q3 38 14 65q13 28 35 45q20 17 63 23h572q0 -16 -7 -23q-3 -5 -14 -12q-8 -4 -18 -4h-265q-33 0 -47 -14zM5069 645q9 -30 10 -33l6 -12h-346l6 12q1 3 10 33v10q3 6 3 13v286q0 7 -3 13v10
q-9 30 -10 33l-6 12h346l-6 -12q-1 -3 -10 -33q-2 -10 -2 -41v-250q0 -31 2 -41zM4223 639h80q32 3 59 18q29 11 51 37q21 25 33 54q12 30 12 63t-12 63q-9 21 -33 54q-22 26 -51 37q-27 15 -59 18h-80v-344zM4506 311h213q16 -4 24 -8q14 -7 21 -14q5 -5 14 -23q4 -8 4 -26
q0 -19 -4 -27q-6 -12 -14 -20q-13 -13 -21 -17q-12 -6 -24 -6h-213q2 0 2 4q4 4 4 10v6q2 2 2 9v84q0 4 -2 6v6q0 4 -4 12q0 4 -2 4zM4778 489h180q17 -4 21 -8q9 -6 12 -14q4 -12 4 -23q2 -8 2 -26q0 -17 -2 -25q0 -10 -4 -22t-12 -17q-6 -6 -21 -6h-180q-11 0 -20 6
l-13 17q-4 12 -4 22v51q0 11 4 23l13 14q7 5 20 8zM2589 715h221l-82 231l-12 21l-9 10l-8 6l-8 -6l-8 -10l-12 -21zM360 715h224l-84 231l-11 21l-10 10l-8 6l-6 -6l-10 -10l-11 -21zM4233 205v-2q4 -15 8 -19l7 -10q0 -4 4 -4h-105l2 4q0 6 -2 10q0 9 -2 11h-47v-11
q1 -2 2 -5.5t2 -4.5v-4h-115l3 4q0 1 1 4.5t1 5.5q2 2 2 4v105q0 2 -2 2q0 3 -1 6.5t-1 5.5l-3 4h205l39 -106h2zM3371 373h-84l-4 -15v-8q1 0 2 -1t2 -1h-104l4 4l6 10q6 13 8 21l39 106h186v-8q0 -6 2 -10q0 -8 2 -12l29 -80l8 -19l6 -8q4 -4 5 -4h-105q2 0 4 2v8
q0 1 -4 13zM4262 473v-80l-6 -22q-4 -11 -10 -17q-9 -6 -23 -6h-178q-14 0 -23 6q-6 6 -10 17q-6 9 -6 22v74l-2 6q0 3 -1 7t-1 5l-4 4h110v-104q0 -4 6 -16q6 -6 19 -9q15 3 18 9q4 4 8 16v104h109q0 -2 -2 -4zM3725 473v-55q0 -17 -2 -25q0 -10 -4 -22t-12 -17
q-6 -6 -21 -6h-180q-14 0 -20 6q-9 6 -13 17q-4 12 -4 22q0 4 -1 12.5t-1 12.5v55q-1 2 -1.5 5t-1 4.5t-1.5 2.5l-2 4h109v-104q4 -12 8 -16q6 -6 18 -9q13 3 19 9q4 4 8 16v104h108q-2 -2 -2 -4q-1 -1 -1.5 -2.5t-1 -4.5t-1.5 -5zM4499 170h-81v39q0 10 -9 16q-5 8 -18 8
h-25v-63h-110q2 0 4 4q0 1 1 4.5t1 5.5q0 4 2 6v99q-2 2 -2 6q0 3 -1 6.5t-1 5.5l-4 4h200q7 0 15 -4t12 -8t8 -12q2 -4 2 -15q0 -12 -4 -18q-3 -8 -12 -14q7 -2 12 -13q4 -6 4 -18v-10q0 -2 1 -5t1 -4v-6q1 -2 2 -5.5t2 -4.5v-4zM2918 539q1 2 5.5 3.5t7.5 1.5t4 -1
q-3 -8 -8 -21t-8.5 -24t-6.5 -21q69 9 76 -28q3 -31 -35 -60q-2 -2 -20 -14q2 0 6.5 -1t7.5 -1q37 -5 39 -27q2 -19 -14 -43q-21 -25 -41 -39q-81 -66 -119 -26q-21 27 -17.5 54t23.5 54q4 6 12 2q4 -4 2 -8q-16 -20 -20.5 -44t10.5 -46q8 -11 21 -14q45 208 49 223
q-5 -2 -8 0.5t-2 6t6 5.5q4 0 8 2q3 11 22 66zM3887 424h107v-6q0 -17 -2 -25q0 -7 -5 -22q-4 -12 -12 -17q-6 -6 -20 -6h-181q-14 0 -20 6l-12 17q-4 12 -4 22v51q0 11 4 23l12 14q4 4 20 8h220q0 -2 -1 -4.5t-1 -3.5q-1 -1 -3 -2q-1 0 -1.5 -0.5t-0.5 -1.5h-122
q-9 0 -15 -6q-5 -2 -8 -12q0 -1 -1 -8t-1 -11v-45q0 -3 1 -9t1 -9q4 -8 8 -12q10 -5 15 -5q4 0 14 5q5 2 8 12q2 4 2 16v27q0 1 -1 2t-1 2zM987 170h131l-84 229q-12 27 -18 33q-8 4 -10 4q-5 0 -7 -4q-6 -3 -6 -12q-4 -8 -4 -17q-2 -6 -2 -22v-211zM3480 829h77q31 0 54 23
q22 22 22 55q0 35 -22 54q-22 22 -54 22h-77v-154zM3379 231q8 -13 8 -28q0 -11 -2 -15l-8 -10l-12 -6q-4 -2 -14 -2h-168q0 6 2 6l4 4q2 2 6 2h84q12 0 16 2l6 6q0 5 -4 9t-6 4l-18 6l-19 8l-37 12q-16 8 -26 21q-8 11 -8 26q0 11 2 15l8 10q6 6 12 6q8 4 12 4h158
q1 0 3 -1t3 -1l4 -4q2 -2 2 -8h-96q-12 0 -16 -2q-6 -3 -6 -6q0 -4 2 -6l8 -7l37 -12l12 -6l6 -2l17 -6q18 -6 28 -19zM4471 410q8 -11 8 -29q0 -8 -2 -12l-8 -13l-13 -6q-4 -2 -14 -2h-168q0 6 2 8q1 0 2 1t2 1q2 2 6 2h84q4 0 10 1t7 1q2 1 6 9q0 2 -4 6q0 4 -6 4l-19 8
l-37 12l-16 7q-21 9 -29 20t-8 27q0 10 2 14l8 10q3 3 13 8q2 0 6.5 1t7.5 1h156q1 0 3 -1t3 -1l4 -4q2 -2 2 -6h-96q-9 0 -17 -4l-6 -6q0 -2 4 -6l6 -6l37 -13l13 -6h6l16 -8q20 -6 29 -18zM3865 293q-6 -6 -9 -12q-2 -6 -2 -19v-43q0 -14 2 -18q3 -9 9 -15q8 -4 14 -4h90
q4 0 6 -2l4 -4q2 0 2 -6h-192q-15 0 -21 6q-1 1 -12 17q-4 12 -4 20q0 4 -1 13.5t-1 13.5q0 5 1 13.5t1 12.5q0 11 4 23q7 11 12 14q4 4 21 8h192q0 -6 -2 -8l-4 -4q-1 0 -3 -1t-3 -1h-90q-10 0 -14 -4zM3627 293l-6 -12q-4 -12 -4 -19v-43q1 -3 2 -9.5t2 -8.5q3 -11 8 -15
q4 -4 14 -4h88q7 0 9 -2l4 -4q2 -4 2 -6h-193q-14 0 -20 6q-8 5 -12 17q-5 15 -5 20q-2 8 -2 27q0 18 2 26q0 8 5 23q3 8 12 14q4 4 20 8h193q0 -2 -1 -4.5t-1 -3.5l-4 -4q-1 0 -4 -1t-5 -1h-88q-12 0 -16 -4zM3033 428q0 5 11 4q2 -1 3 -2q-3 -10 -11 -30.5t-11 -30.5
q-4 -21 0 -29l6 -8l2 -2q13 5 35 39l18 37q0 1 1 2t1 2q3 6 15 4l2 -2q-5 -15 -25 -93l86 35q9 3 10 -2q1 -2 -4 -4q-39 -14 -94 -39q-17 -75 -47 -129q-20 -41 -47 -43q-26 -1 -33.5 25.5t0.5 46.5q15 48 84 86q5 3 15 8.5t14 7.5q6 24 8 29q0 4 4 20q-20 -31 -41 -36
q-14 -3 -22.5 6.5t-6.5 23.5q2 12 6 23.5t11 28t10 22.5zM4733 477h-70v-108q2 -2 2 -7q0 -2 1 -5.5t1 -4.5l4 -4h-116q0 2 2 4t2 10q2 4 2 15v100h-70l-4 4q-2 2 -2 8h256q0 -2 -1 -4.5t-1 -3.5zM4899 295v-111q1 -2 2 -5.5t2 -4.5v-4h-115q2 0 2 4q1 1 2 4.5t2 5.5v111
l-4 12l-2 4h117q-2 -2 -2 -4zM3504 184q0 -2 1 -5.5t1 -4.5l2 -4h-114l2 4q0 1 1 4.5t1 5.5q0 1 1 2t1 2v105l-2 2q0 3 -1 6.5t-1 5.5l-2 4h116l-4 -4q0 -2 -1 -5.5t-1 -6.5q0 -1 -1 -5.5t-1 -6.5v-84q0 -3 1 -8t1 -7zM2939 362q-31 0 -37 -2l-20 -6l-23 -118q25 4 61 36
q25 21 33 33q17 17 17 33q0 19 -31 24zM4616 182h25q11 0 20 6q4 1 7 3t6.5 5.5t5.5 4.5q9 13 10 18q4 12 4 21q0 6 -4 22q-4 11 -10 17q-10 10 -19 12q-9 6 -20 6h-25v-115zM3039 238l21 61l-23 -12q-69 -45 -71 -94q-5 -40 18 -48h8l8 11q25 32 39 82zM4868 360q9 0 14 5
q6 6 9 12q4 12 4 18v45q0 11 -4 19q0 5 -7 12q-6 6 -16 6q-8 0 -14 -6q-5 -2 -8 -12q0 -1 -1 -8t-1 -11v-45q0 -6 4 -18l6 -12q10 -5 14 -5zM2972 446q-7 27 -64 17q-17 -64 -22 -94l12 4q18 8 43 22q33 28 31 51zM3293 387h74l-27 76l-4 8l-4 4q-2 0 -2 2l-2 -2l-4 -4
l-4 -8zM4096 209h45l-29 76q-3 10 -6 10l-2 2h-4q0 -4 -2 -4v-6q0 -4 -2 -8v-70zM4366 246h25q10 0 18 8q9 6 9 18q0 10 -9 19q-6 6 -18 6h-25v-51z" />
    <glyph glyph-name="dotaccent" unicode="&#x2d9;" horiz-adv-x="5087" 
d="M3899 1022h631q45 -7 76 -23q33 -17 61 -45q30 -38 41 -65q15 -37 15 -78t-15 -78q-14 -34 -41 -65q-33 -33 -61 -45q-39 -20 -76 -23h-631l7 12q5 9 8 33l4 19v294l-4 19q-3 24 -8 33zM1391 158v-2q14 -42 24 -58q5 -13 17 -30q6 -13 12 -13h-307q1 0 4 13q0 18 -2 32
q-3 17 -9 31h-143v-16l4 -15q4 -25 8 -32l7 -13h-347q5 5 7 13q2 2 10 32q0 1 1 5t1 6v309q0 2 -1 5t-1 5q-9 30 -10 33l-7 12h615l115 -317h2zM2824 678h-250q-12 -30 -12 -45q-3 -16 0 -23q0 -6 8 -10h-311q6 3 14 14l19 29l24 59v3l115 317h557v-27q0 -18 2 -28
q5 -26 8 -33l88 -242q8 -23 23 -53q6 -12 16 -27q9 -9 15 -12h-310q7 3 9 10v21l-13 39zM598 678h-252l-12 -45q-3 -16 0 -23q2 -7 8 -10h-311q9 5 14 14q7 7 18 29q16 27 25 59v3l117 317h555v-27q0 -8 4 -28q0 -13 8 -33l86 -242q8 -23 23 -53l16 -27q10 -10 14 -12h-309
q6 3 8 10q3 6 0 21q0 12 -10 39zM3881 600h-248v115q0 36 -22 55q-23 23 -54 23h-77v-193h-326q2 0 8 12q8 31 8 33l4 19v294l-4 19q0 2 -8 33l-8 12h594q22 0 45 -10q20 -10 35 -25q18 -18 26 -37q9 -27 9 -43q0 -31 -15 -55q-13 -26 -37 -41q24 -15 37 -41q15 -24 15 -55
v-29q0 -14 2 -22q0 -13 2 -19q0 -2 8 -33q3 -12 6 -12zM1470 100q3 6 3 19q2 6 2 20v252q0 9 -5 39q0 2 -8 33l-6 10l-2 2h358v-12q4 -18 11 -33q4 -8 4 -10l6 -12l156 -261v265l-4 18q-3 21 -9 33l-8 12h98q-4 -4 -6 -12q-7 -15 -10 -33q-2 -6 -2 -22v-297q0 -2 1 -6t1 -5
q3 -22 10 -32l6 -13h-358v13q-1 2 -2 7.5t-3 12t-5 12.5l-21 39l-18 31l-115 190l-10 17v-266q2 -4 2 -11q8 -30 10 -32q3 -13 4 -13h-96q2 0 8 13q6 18 8 32zM1513 782q27 -42 27 -82q0 -21 -10 -41q-8 -17 -25 -30q-15 -15 -35 -21q-16 -8 -38 -8h-504q0 17 6 23l14 12
q8 4 19 4h247q37 0 50 8q12 5 16 19q2 7 -6 20q-5 5 -23 14l-53 21l-55 20l-39 15l-14 6l-56 18q-53 20 -82 60q-24 37 -24 82q0 25 8 41q8 17 25 30q21 17 34 21q24 8 39 8h465q17 -4 19 -6q6 -2 14 -10q5 -7 8 -23h-289q-36 0 -49 -8q-13 -10 -16 -19q0 -12 8 -20
q12 -12 20 -14l56 -21l53 -20l41 -15l14 -6l54 -18q56 -21 81 -60zM2669 238q26 -44 26 -84q0 -19 -10 -39q-11 -22 -25 -33q-17 -14 -34 -21q-18 -6 -39 -6h-504q0 15 6 21q6 9 14 12q8 4 19 4h250q27 0 47 8q16 10 16 19q2 8 -6 20q-12 12 -23 15l-53 22l-55 19l-39 14
l-14 6l-56 21q-56 21 -82 57q-24 37 -24 82q0 25 8 41t25 33q10 8 34 20q18 6 39 6h465q9 0 21 -4l5 -4q5 -4 7 -8q4 -4 8 -23h-289q-36 0 -49 -8q-14 -7 -14 -16q-3 -12 6 -21q7 -10 23 -16l106 -41l41 -15l14 -4l54 -20q60 -23 82 -57zM616 238q27 -41 27 -84
q0 -23 -8 -39q-11 -22 -25 -33q-12 -9 -35 -21q-21 -6 -40 -6h-504q4 17 8 21q6 9 12 12q12 4 19 4h249q30 0 50 8q13 10 16 19q0 12 -8 20q-13 13 -21 15l-55 22l-53 19l-41 14l-14 6l-54 21q-60 23 -82 57q-26 41 -26 82q0 21 10 41q8 16 25 33q13 11 32 20q21 6 41 6h465
q7 0 19 -4q1 -1 6.5 -5t7.5 -7q6 -6 6 -23h-287q-36 0 -49 -8q-16 -6 -16 -16q-2 -9 6 -21q6 -8 22 -16l54 -21l55 -20l39 -15l14 -4l54 -20q58 -21 81 -57zM1892 969q-16 -16 -22 -39q-8 -32 -8 -56v-126q4 -40 8 -56q10 -28 24 -39q14 -14 45 -14h265q10 0 18 -4l14 -12
q7 -7 7 -23h-572q-39 3 -63 23q-21 13 -35 45q-11 24 -14 65q-5 63 -5 78t5 78q3 38 14 65q13 28 35 45q20 17 63 23h572q0 -16 -7 -23q-3 -5 -14 -12q-8 -4 -18 -4h-265q-33 0 -47 -14zM5069 645q9 -30 10 -33l6 -12h-346l6 12q1 3 10 33v10q3 6 3 13v286q0 7 -3 13v10
q-9 30 -10 33l-6 12h346l-6 -12q-1 -3 -10 -33q-2 -10 -2 -41v-250q0 -31 2 -41zM4223 639h80q32 3 59 18q29 11 51 37q21 25 33 54q12 30 12 63t-12 63q-9 21 -33 54q-22 26 -51 37q-27 15 -59 18h-80v-344zM4506 311h213q16 -4 24 -8q14 -7 21 -14q5 -5 14 -23q4 -8 4 -26
q0 -19 -4 -27q-6 -12 -14 -20q-13 -13 -21 -17q-12 -6 -24 -6h-213q2 0 2 4q4 4 4 10v6q2 2 2 9v84q0 4 -2 6v6q0 4 -4 12q0 4 -2 4zM4778 489h180q17 -4 21 -8q9 -6 12 -14q4 -12 4 -23q2 -8 2 -26q0 -17 -2 -25q0 -10 -4 -22t-12 -17q-6 -6 -21 -6h-180q-11 0 -20 6
l-13 17q-4 12 -4 22v51q0 11 4 23l13 14q7 5 20 8zM2589 715h221l-82 231l-12 21l-9 10l-8 6l-8 -6l-8 -10l-12 -21zM360 715h224l-84 231l-11 21l-10 10l-8 6l-6 -6l-10 -10l-11 -21zM4233 205v-2q4 -15 8 -19l7 -10q0 -4 4 -4h-105l2 4q0 6 -2 10q0 9 -2 11h-47v-11
q1 -2 2 -5.5t2 -4.5v-4h-115l3 4q0 1 1 4.5t1 5.5q2 2 2 4v105q0 2 -2 2q0 3 -1 6.5t-1 5.5l-3 4h205l39 -106h2zM3371 373h-84l-4 -15v-8q1 0 2 -1t2 -1h-104l4 4l6 10q6 13 8 21l39 106h186v-8q0 -6 2 -10q0 -8 2 -12l29 -80l8 -19l6 -8q4 -4 5 -4h-105q2 0 4 2v8
q0 1 -4 13zM4262 473v-80l-6 -22q-4 -11 -10 -17q-9 -6 -23 -6h-178q-14 0 -23 6q-6 6 -10 17q-6 9 -6 22v74l-2 6q0 3 -1 7t-1 5l-4 4h110v-104q0 -4 6 -16q6 -6 19 -9q15 3 18 9q4 4 8 16v104h109q0 -2 -2 -4zM3725 473v-55q0 -17 -2 -25q0 -10 -4 -22t-12 -17
q-6 -6 -21 -6h-180q-14 0 -20 6q-9 6 -13 17q-4 12 -4 22q0 4 -1 12.5t-1 12.5v55q-1 2 -1.5 5t-1 4.5t-1.5 2.5l-2 4h109v-104q4 -12 8 -16q6 -6 18 -9q13 3 19 9q4 4 8 16v104h108q-2 -2 -2 -4q-1 -1 -1.5 -2.5t-1 -4.5t-1.5 -5zM4499 170h-81v39q0 10 -9 16q-5 8 -18 8
h-25v-63h-110q2 0 4 4q0 1 1 4.5t1 5.5q0 4 2 6v99q-2 2 -2 6q0 3 -1 6.5t-1 5.5l-4 4h200q7 0 15 -4t12 -8t8 -12q2 -4 2 -15q0 -12 -4 -18q-3 -8 -12 -14q7 -2 12 -13q4 -6 4 -18v-10q0 -2 1 -5t1 -4v-6q1 -2 2 -5.5t2 -4.5v-4zM2918 539q1 2 5.5 3.5t7.5 1.5t4 -1
q-3 -8 -8 -21t-8.5 -24t-6.5 -21q69 9 76 -28q3 -31 -35 -60q-2 -2 -20 -14q2 0 6.5 -1t7.5 -1q37 -5 39 -27q2 -19 -14 -43q-21 -25 -41 -39q-81 -66 -119 -26q-21 27 -17.5 54t23.5 54q4 6 12 2q4 -4 2 -8q-16 -20 -20.5 -44t10.5 -46q8 -11 21 -14q45 208 49 223
q-5 -2 -8 0.5t-2 6t6 5.5q4 0 8 2q3 11 22 66zM3887 424h107v-6q0 -17 -2 -25q0 -7 -5 -22q-4 -12 -12 -17q-6 -6 -20 -6h-181q-14 0 -20 6l-12 17q-4 12 -4 22v51q0 11 4 23l12 14q4 4 20 8h220q0 -2 -1 -4.5t-1 -3.5q-1 -1 -3 -2q-1 0 -1.5 -0.5t-0.5 -1.5h-122
q-9 0 -15 -6q-5 -2 -8 -12q0 -1 -1 -8t-1 -11v-45q0 -3 1 -9t1 -9q4 -8 8 -12q10 -5 15 -5q4 0 14 5q5 2 8 12q2 4 2 16v27q0 1 -1 2t-1 2zM987 170h131l-84 229q-12 27 -18 33q-8 4 -10 4q-5 0 -7 -4q-6 -3 -6 -12q-4 -8 -4 -17q-2 -6 -2 -22v-211zM3480 829h77q31 0 54 23
q22 22 22 55q0 35 -22 54q-22 22 -54 22h-77v-154zM3379 231q8 -13 8 -28q0 -11 -2 -15l-8 -10l-12 -6q-4 -2 -14 -2h-168q0 6 2 6l4 4q2 2 6 2h84q12 0 16 2l6 6q0 5 -4 9t-6 4l-18 6l-19 8l-37 12q-16 8 -26 21q-8 11 -8 26q0 11 2 15l8 10q6 6 12 6q8 4 12 4h158
q1 0 3 -1t3 -1l4 -4q2 -2 2 -8h-96q-12 0 -16 -2q-6 -3 -6 -6q0 -4 2 -6l8 -7l37 -12l12 -6l6 -2l17 -6q18 -6 28 -19zM4471 410q8 -11 8 -29q0 -8 -2 -12l-8 -13l-13 -6q-4 -2 -14 -2h-168q0 6 2 8q1 0 2 1t2 1q2 2 6 2h84q4 0 10 1t7 1q2 1 6 9q0 2 -4 6q0 4 -6 4l-19 8
l-37 12l-16 7q-21 9 -29 20t-8 27q0 10 2 14l8 10q3 3 13 8q2 0 6.5 1t7.5 1h156q1 0 3 -1t3 -1l4 -4q2 -2 2 -6h-96q-9 0 -17 -4l-6 -6q0 -2 4 -6l6 -6l37 -13l13 -6h6l16 -8q20 -6 29 -18zM3865 293q-6 -6 -9 -12q-2 -6 -2 -19v-43q0 -14 2 -18q3 -9 9 -15q8 -4 14 -4h90
q4 0 6 -2l4 -4q2 0 2 -6h-192q-15 0 -21 6q-1 1 -12 17q-4 12 -4 20q0 4 -1 13.5t-1 13.5q0 5 1 13.5t1 12.5q0 11 4 23q7 11 12 14q4 4 21 8h192q0 -6 -2 -8l-4 -4q-1 0 -3 -1t-3 -1h-90q-10 0 -14 -4zM3627 293l-6 -12q-4 -12 -4 -19v-43q1 -3 2 -9.5t2 -8.5q3 -11 8 -15
q4 -4 14 -4h88q7 0 9 -2l4 -4q2 -4 2 -6h-193q-14 0 -20 6q-8 5 -12 17q-5 15 -5 20q-2 8 -2 27q0 18 2 26q0 8 5 23q3 8 12 14q4 4 20 8h193q0 -2 -1 -4.5t-1 -3.5l-4 -4q-1 0 -4 -1t-5 -1h-88q-12 0 -16 -4zM3033 428q0 5 11 4q2 -1 3 -2q-3 -10 -11 -30.5t-11 -30.5
q-4 -21 0 -29l6 -8l2 -2q13 5 35 39l18 37q0 1 1 2t1 2q3 6 15 4l2 -2q-5 -15 -25 -93l86 35q9 3 10 -2q1 -2 -4 -4q-39 -14 -94 -39q-17 -75 -47 -129q-20 -41 -47 -43q-26 -1 -33.5 25.5t0.5 46.5q15 48 84 86q5 3 15 8.5t14 7.5q6 24 8 29q0 4 4 20q-20 -31 -41 -36
q-14 -3 -22.5 6.5t-6.5 23.5q2 12 6 23.5t11 28t10 22.5zM4733 477h-70v-108q2 -2 2 -7q0 -2 1 -5.5t1 -4.5l4 -4h-116q0 2 2 4t2 10q2 4 2 15v100h-70l-4 4q-2 2 -2 8h256q0 -2 -1 -4.5t-1 -3.5zM4899 295v-111q1 -2 2 -5.5t2 -4.5v-4h-115q2 0 2 4q1 1 2 4.5t2 5.5v111
l-4 12l-2 4h117q-2 -2 -2 -4zM3504 184q0 -2 1 -5.5t1 -4.5l2 -4h-114l2 4q0 1 1 4.5t1 5.5q0 1 1 2t1 2v105l-2 2q0 3 -1 6.5t-1 5.5l-2 4h116l-4 -4q0 -2 -1 -5.5t-1 -6.5q0 -1 -1 -5.5t-1 -6.5v-84q0 -3 1 -8t1 -7zM2939 362q-31 0 -37 -2l-20 -6l-23 -118q25 4 61 36
q25 21 33 33q17 17 17 33q0 19 -31 24zM4616 182h25q11 0 20 6q4 1 7 3t6.5 5.5t5.5 4.5q9 13 10 18q4 12 4 21q0 6 -4 22q-4 11 -10 17q-10 10 -19 12q-9 6 -20 6h-25v-115zM3039 238l21 61l-23 -12q-69 -45 -71 -94q-5 -40 18 -48h8l8 11q25 32 39 82zM4868 360q9 0 14 5
q6 6 9 12q4 12 4 18v45q0 11 -4 19q0 5 -7 12q-6 6 -16 6q-8 0 -14 -6q-5 -2 -8 -12q0 -1 -1 -8t-1 -11v-45q0 -6 4 -18l6 -12q10 -5 14 -5zM2972 446q-7 27 -64 17q-17 -64 -22 -94l12 4q18 8 43 22q33 28 31 51zM3293 387h74l-27 76l-4 8l-4 4q-2 0 -2 2l-2 -2l-4 -4
l-4 -8zM4096 209h45l-29 76q-3 10 -6 10l-2 2h-4q0 -4 -2 -4v-6q0 -4 -2 -8v-70zM4366 246h25q10 0 18 8q9 6 9 18q0 10 -9 19q-6 6 -18 6h-25v-51z" />
    <glyph glyph-name="ring" unicode="&#x2da;" horiz-adv-x="946" 
d="M741 1473q39 -4 63.5 -20.5t35 -48.5t13.5 -62t3 -80t-3 -80t-13.5 -62t-35 -48.5t-63.5 -20.5h-536q-32 3 -54 16t-34.5 30t-19 46t-8 54.5t-1.5 64.5t1.5 64.5t8 54.5t19 46t34.5 30t54 16h536zM473 1090q22 0 36.5 9.5t23 23t12.5 38.5t5 46t1 55q0 31 -0.5 46
t-2.5 39.5t-7 36.5t-13 25.5t-22 19t-33 5.5q-22 0 -36.5 -9t-22 -20.5t-11 -36.5t-4 -41.5t-0.5 -51.5v-13q0 -38 0.5 -56t4 -45t11 -39.5t22 -22t36.5 -9.5z" />
    <glyph glyph-name="ogonek" unicode="&#x2db;" horiz-adv-x="831" 
d="M80 -74q-3 3 77.5 4t162.5 0t83 -4l123 -45l45 -18l17 -6l59 -23q123 -44 123 -158q0 -49 -37 -80.5t-86 -31.5h-567q0 19 11 30t21 12l11 1h280q72 0 74 31q1 21 -26 35q-3 2 -7 3l-61 23l-59 22l-48 19l-14 4l-61 23q-29 11 -53.5 38t-36.5 51.5t-21 46.5t-10 23z" />
    <glyph glyph-name="tilde" unicode="&#x2dc;" horiz-adv-x="1114" 
d="M1008 1491l30 -31l-280 -278l-2 -2l-35 -15l-25 -6l-4 -2l-24 -4h-2q-8 -2 -25 -4t-18 -2q-47 0 -105 10q-18 3 -149 35q-129 31 -193 25q-2 0 -6.5 -1.5t-7.5 -1.5q-38 -9 -53 -14l-27 -12v2l-31 31l191 190l82 21q2 0 7 1t7 1q6 2 16 2q10 2 33 2q42 0 115 -15
q50 -13 67 -16q13 -4 35 -8q113 -30 182 -25h17q33 3 63 15q2 0 31 12q2 1 13.5 7t17.5 11q21 13 45 37z" />
    <glyph glyph-name="hungarumlaut" unicode="&#x2dd;" 
 />
    <glyph glyph-name="endash" unicode="&#x2013;" horiz-adv-x="1122" 
d="M20 631h1084v-187h-1084v187z" />
    <glyph glyph-name="emdash" unicode="&#x2014;" horiz-adv-x="1368" 
d="M20 631h1330v-187h-1330v187z" />
    <glyph glyph-name="quoteleft" unicode="&#x2018;" horiz-adv-x="581" 
d="M20 1079h312q2 -12 14 -30l21 -29l16 -23l104 -135l17 -22l24 -27l33 -33h-311q1 0 0 4t-4.5 12t-9.5 17l-21 27l-16 22l-105 135l-16 23l-23 29q-32 29 -35 30z" />
    <glyph glyph-name="quoteright" unicode="&#x2019;" horiz-adv-x="577" 
d="M555 1079l-33 -30l-24 -29l-17 -23l-104 -135l-17 -22l-20 -27q-6 -9 -9.5 -17t-4.5 -12t0 -4h-306q5 0 35 33l25 27l16 22l105 135l16 23l21 29q6 8 9.5 15.5t4.5 11t0 3.5h303z" />
    <glyph glyph-name="quotesinglbase" unicode="&#x201a;" horiz-adv-x="356" 
d="M221 4v-2h-84v2q-33 3 -42 25.5t-9 68.5v330q27 -1 47.5 -11.5t29.5 -25t14.5 -29t6.5 -24.5v-10v-35q0 -35 17 -66q6 -8 18 -18t14 -12q3 0 7 -4q8 -6 16 -17q9 -12 12 -31q2 -2 2 -8q2 -12 2 -39q0 -45 -9.5 -68t-41.5 -26z" />
    <glyph glyph-name="quotedblleft" unicode="&#x201c;" horiz-adv-x="983" 
d="M20 1079h312q2 -12 14 -30l21 -29l16 -23l104 -135l17 -22l24 -27l33 -33h-311q1 0 0 4t-4.5 12t-9.5 17l-21 27l-16 22l-105 135l-16 23l-23 29q-32 29 -35 30zM430 1079h301q5 -12 17 -30q9 -17 18 -29l16 -23l105 -135l16 -22l25 -27q26 -33 33 -33h-302q-2 13 -14 33
l-20 27l-17 22l-104 135l-17 23l-22 29z" />
    <glyph glyph-name="quotedblright" unicode="&#x201d;" horiz-adv-x="991" 
d="M969 1079l-33 -30l-25 -29l-16 -23l-107 -135l-16 -22q-12 -15 -18 -27q-6 -9 -9.5 -17t-5 -12t-0.5 -4h-315q17 13 35 33q15 15 22 27l19 22l104 135l17 23l20 29q6 8 9.5 15.5t4.5 11t0 3.5h314zM555 1079l-33 -30l-24 -29l-17 -23l-104 -135l-17 -22l-20 -27
q-6 -9 -9.5 -17t-4.5 -12t0 -4h-306q5 0 35 33l25 27l16 22l105 135l16 23l21 29q6 8 9.5 15.5t4.5 11t0 3.5h303z" />
    <glyph glyph-name="quotedblbase" unicode="&#x201e;" horiz-adv-x="628" 
d="M137 426v2h84v-2q33 -3 42 -25.5t9 -68.5v-330q-27 1 -47.5 11.5t-29.5 25t-14.5 29t-6.5 24.5v10v35q0 37 -16 66q-6 8 -18 17.5t-15 12.5q-1 0 -6 5q-11 8 -17 16q-9 12 -12 31q-2 2 -2 8q-2 12 -2 39q0 45 9.5 68t41.5 26zM383 426v2h84v-2q33 -3 42 -25.5t9 -68.5
v-330q-27 1 -47.5 11.5t-29.5 25t-14.5 29t-6.5 24.5v10v35q0 35 -17 66q-6 8 -18 18t-14 12q-1 0 -6 5q-11 8 -17 16q-9 12 -12 31q-2 2 -2 8q-2 12 -2 39q0 45 9.5 68t41.5 26z" />
    <glyph glyph-name="dagger" unicode="&#x2020;" horiz-adv-x="589" 
d="M23 1081h178v279h186v-279h178v-186h-178v-1182h-186v1182h-178v186z" />
    <glyph glyph-name="daggerdbl" unicode="&#x2021;" horiz-adv-x="589" 
d="M23 1081h178v279h186v-279h178v-186h-178v-713h178v-186h-178v-283h-186v283h-178v186h178v713h-178v186z" />
    <glyph glyph-name="bullet" unicode="&#x2022;" horiz-adv-x="651" 
d="M133 516q0 88 61.5 150.5t149.5 62.5t150.5 -62.5t62.5 -150.5t-62.5 -149.5t-150.5 -61.5t-149.5 61.5t-61.5 149.5z" />
    <glyph glyph-name="ellipsis" unicode="&#x2026;" horiz-adv-x="778" 
d="M176 188q32 -3 41.5 -26t9.5 -68t-9.5 -68t-41.5 -26h-84q-32 3 -41.5 26t-9.5 68t9.5 68t41.5 26v2h84v-2zM668 188q32 -3 41.5 -26t9.5 -68t-9.5 -68t-41.5 -26h-84q-32 3 -42 26.5t-10 67.5t10 67.5t42 26.5v2h84v-2zM422 188q32 -3 41.5 -26t9.5 -68t-9.5 -68
t-41.5 -26h-84q-32 3 -41.5 26t-9.5 68t9.5 68t41.5 26v2h84v-2z" />
    <glyph glyph-name="perthousand" unicode="&#x2030;" horiz-adv-x="1964" 
d="M1100 393q35 -4 57.5 -19.5t32.5 -45t13 -58t3 -73.5t-3 -73.5t-13 -58.5t-32.5 -45.5t-57.5 -19.5h-500q-29 3 -49.5 15t-32 28.5t-17.5 43.5t-7.5 50.5t-1.5 59.5t1.5 59.5t7.5 50t17.5 43t32 28.5t49.5 15h500zM1858 393q36 -4 58.5 -19.5t32.5 -45.5t12.5 -57.5
t2.5 -73.5t-2.5 -73.5t-12.5 -58t-32.5 -46t-58.5 -19.5h-500q-36 4 -58.5 19.5t-32.5 45.5t-13 58t-3 74q0 45 3 73t13 58t32.5 45.5t58.5 19.5h500zM608 1079q36 -3 58.5 -18.5t32.5 -45.5t13 -58t3 -74t-3 -74t-13 -57.5t-32.5 -45t-58.5 -18.5h-499q-36 3 -58.5 18.5
t-32.5 45t-13 57.5t-3 74t3 74t13 58t32.5 45.5t58.5 18.5h499zM2 393l1962 686v-133l-1962 -688v135zM850 37q17 0 29.5 5t20.5 17t12.5 24t6.5 33t2.5 37t0.5 44q0 29 -0.5 43t-2 36.5t-6.5 33.5t-12.5 23.5t-20 17.5t-30.5 5t-30.5 -4.5t-20 -16.5t-12.5 -22.5t-6.5 -32
t-2 -35t-0.5 -41.5v-7q0 -29 0.5 -43.5t2 -37t6.5 -33.5t12.5 -23.5t20 -17.5t30.5 -5zM1608 37q25 0 40.5 11t22.5 36.5t8.5 48.5t1.5 64q0 30 -0.5 43t-2 36.5t-6 34t-12.5 23t-21 17.5t-31 5q-17 0 -29.5 -4.5t-20 -16.5t-12 -22.5t-6 -32t-2 -35t-0.5 -41.5v-7
q0 -29 0.5 -43.5t2 -37t6 -33.5t12 -23.5t20 -17.5t29.5 -5zM358 723q25 0 40.5 11.5t22 37t8 48t1.5 63.5q0 29 -0.5 43.5t-2 37.5t-6.5 34t-12.5 23.5t-20 17.5t-30.5 5q-17 0 -29 -4.5t-19.5 -16.5t-12 -22t-6 -31.5t-2 -34.5t-0.5 -42v-10q0 -30 0.5 -43t2 -36.5t6 -34
t11.5 -23.5t19.5 -18t29.5 -5z" />
    <glyph glyph-name="guilsinglleft" unicode="&#x2039;" horiz-adv-x="716" 
d="M63 539l396 540h186l-395 -540l395 -539h-186z" />
    <glyph glyph-name="guilsinglright" unicode="&#x203a;" horiz-adv-x="602" 
d="M207 1079l395 -540l-395 -539h-187l396 539l-396 540h187z" />
    <glyph glyph-name="fraction" unicode="&#x2044;" horiz-adv-x="583" 
d="M492 1362h186l-533 -1647h-186z" />
    <glyph glyph-name="Euro" unicode="&#x20ac;" horiz-adv-x="1761" 
d="M1653 98q4 0 10.5 -0.5t23.5 -6t30.5 -14.5t25 -29.5t12.5 -47.5h-1077q-155 13 -277 107t-178 237h-223q1 27 12 47.5t25.5 29.5t28.5 14.5t24 6.5h10h97q-11 57 -11 97q0 37 11 98h-95q-4 0 -10.5 0.5t-23.5 6t-30 14.5t-24 28.5t-12 46.5h221q56 143 178 237t277 107
h1077q-1 -27 -12 -47.5t-26 -29.5t-29.5 -14.5t-24.5 -5.5l-10 -1h-387q-117 -10 -212 -76.5t-145 -169.5h557q-1 -27 -12 -46.5t-26 -28.5t-29.5 -14.5t-24.5 -5.5l-10 -1h-490q-10 -55 -10 -98q0 -45 10 -97h492q4 0 10.5 -0.5t23.5 -6t30.5 -14.5t25 -29.5t12.5 -47.5
h-559q50 -103 145 -169.5t212 -76.5h387z" />
    <glyph glyph-name="trademark" unicode="&#x2122;" 
d="M1229 766q2 -10 5 -19.5t5 -13.5l2 -4h-283q1 0 3.5 4t6 13t5.5 20q0 2 1 8t1 10v97l-62 -76l-61 76v-84q0 -15 4 -31q7 -34 10 -37h-280q6 0 12 37q1 2 2 8.5t2 9.5v189h-168v-176q0 -15 4 -31q6 -33 11 -37h-279q8 14 12 37q4 16 4 31v176h-82q-3 0 -9 0.5t-21.5 5
t-28 12t-24.5 24t-15 38.5q-6 6 -6 18h805q19 0 29 -14l20 -25l59 -69l60 69l22 27q12 12 29 12h217q-8 -14 -12 -37q-4 -20 -4 -33v-204q0 -15 4 -31z" />
    <glyph glyph-name="minus" unicode="&#x2212;" horiz-adv-x="1124" 
d="M20 631h1084v-187h-1084v187z" />
    <glyph glyph-name="fi" unicode="&#xfb01;" horiz-adv-x="2347" 
d="M1237 981h-385v-393h430q8 0 20 -1.5t38.5 -13t39.5 -32.5q-13 -22 -37.5 -34t-42.5 -13l-18 -2h-430v-275q0 -50 10 -102q5 -32 13.5 -59.5t15 -40.5t10.5 -15h-885q3 1 10.5 14.5t16 41t14.5 59.5q11 57 11 102v645q0 46 -11 103q-5 31 -14.5 58t-16 40.5t-10.5 15.5
h1854q148 0 260 -98q92 -83 119 -195h-736q-31 87 -106 141t-170 54zM2238 688h-710v-516q0 -3 -6 -57q-7 -33 -15.5 -59.5t-16 -40t-11.5 -15.5h831q-2 1 -8.5 14.5t-15.5 41t-15 59.5q-8 41 -8 102v469z" />
    <glyph glyph-name="fl" unicode="&#xfb02;" horiz-adv-x="2971" 
d="M1524 115q8 40 8 57v569q-20 104 -101.5 172t-189.5 68h-385v-393h430q8 0 20 -1.5t38.5 -13t39.5 -32.5q-13 -22 -37.5 -34t-42.5 -13l-18 -2h-430v-275q0 -50 10 -102q5 -32 13.5 -59.5t15 -40.5t10.5 -15h-885q3 1 10.5 14.5t16 41t14.5 59.5q11 57 11 102v645
q0 46 -11 103q-5 31 -14.5 58t-16 40.5t-10.5 15.5h1854q148 0 260 -98q130 -117 133 -291v-473q0 -40 8 -102q4 -12 4 -17h570q4 0 10.5 -0.5t23.5 -6t30.5 -14.5t25 -29.5t12.5 -47.5h-1468q4 4 10.5 17t16 40t14.5 58z" />
    </font>
</defs>
</svg>
